<?xml version="1.0" encoding="UTF-8"?>
<svg xmlns="http://www.w3.org/2000/svg" data-name="Layer 1" viewBox="0 0 64 64"><path fill="none" stroke="#003369" stroke-miterlimit="10" stroke-width="2" d="M16.3 50.18h-5.05v-5.34c0-.75.62-.87 1.11-.87h2.42l2.74-5h7.38m-2.9.09V44h-9.71m26.47 6.21H24.9V34h22.35v16.18h-3.83" style="stroke: #003369;"/><circle cx="41.08" cy="52.62" r="3.38" fill="none" stroke="#003369" stroke-miterlimit="10" stroke-width="2" style="stroke: #003369;"/><circle cx="18.86" cy="52.62" r="3.38" fill="none" stroke="#003369" stroke-miterlimit="10" stroke-width="2" style="stroke: #003369;"/><path fill="none" stroke="#003369" stroke-miterlimit="10" stroke-width="2" d="M50.4 48.82h11.05M50.4 43.29h5.53" style="stroke: #003369;"/><path fill="#003369" d="M36.07 41.73H34.3l-2.79 2.54h.5l-.76.76h.76l-1.26 1.27 2.53-1.02-.38-.13 1.14-.63-.38-.13 2.41-2.66zM39.54 39.27L38 40.77V41a2 2 0 0 1-2.09 1.9h-.06l-1.51 1.44a4.38 4.38 0 0 0 1.68.34A3.89 3.89 0 0 0 40 41a3.5 3.5 0 0 0-.46-1.73z" style="fill: #003369;"/><path fill="#003369" d="M33.66 41a2 2 0 0 1 2.09-1.9h.07a2.18 2.18 0 0 1 2 1.13l1.44-1.38A4.22 4.22 0 0 0 36 37.32 3.88 3.88 0 0 0 32 41a3.59 3.59 0 0 0 1.86 3.09l1.36-1.3A1.94 1.94 0 0 1 33.66 41z" style="fill: #003369;"/><path fill="none" stroke="#003369" stroke-miterlimit="10" stroke-width="2" d="M39.1 13h7.38l2.74 5h2.42c.49 0 1.11.13 1.11.87v5.34h-5m4-6.21H42v-5M20.58 24.14h-3.83V8H39.1v16.14H25.24" style="stroke: #003369;"/><circle cx="22.92" cy="26.59" r="3.38" fill="none" stroke="#003369" stroke-miterlimit="10" stroke-width="2" style="stroke: #003369;"/><circle cx="45.14" cy="26.59" r="3.38" fill="none" stroke="#003369" stroke-miterlimit="10" stroke-width="2" style="stroke: #003369;"/><path fill="none" stroke="#003369" stroke-miterlimit="10" stroke-width="2" d="M13.6 22.78H2.55M13.6 17.26H8.07" style="stroke: #003369;"/><path fill="#003369" d="M29.07 15.73H27.3l-2.79 2.54h.5l-.76.76h.76l-1.26 1.27 2.53-1.02-.38-.13 1.14-.63-.38-.13 2.41-2.66zM32.54 13.27L31 14.77V15a2 2 0 0 1-2.09 1.9h-.11l-1.51 1.44a4.38 4.38 0 0 0 1.68.34A3.89 3.89 0 0 0 33 15a3.5 3.5 0 0 0-.46-1.73z" style="fill: #003369;"/><path fill="#003369" d="M26.66 15a2 2 0 0 1 2.09-1.9h.07a2.18 2.18 0 0 1 2 1.13l1.44-1.38A4.22 4.22 0 0 0 29 11.32 3.88 3.88 0 0 0 24.89 15a3.59 3.59 0 0 0 1.86 3.09l1.36-1.3A1.94 1.94 0 0 1 26.66 15z" style="fill: #003369;"/><path fill="none" stroke="#003369" stroke-miterlimit="10" stroke-width="2" d="M43.02 24.15h-4.84M26.74 50.24h-5.52" style="stroke: #003369;"/></svg>
