<?xml version="1.0" encoding="UTF-8"?>
<svg xmlns="http://www.w3.org/2000/svg" aria-describedby="desc" aria-labelledby="title" viewBox="0 0 64 64"><path fill="none" stroke="#003369" stroke-width="2" d="M2 10h34V6a4 4 0 0 0-4-4H6a4 4 0 0 0-4 4v52a4 4 0 0 0 4 4h26a4 4 0 0 0 4-4V46m0 2H2" data-name="layer1" style="stroke: #003369;"/><path fill="none" stroke="#003369" stroke-width="2" d="M54 18l-6 14h14m-4-6v12m-14 0H32l8.5-10v-.2a6 6 0 0 0-8.5-8.2" data-name="layer2" style="stroke: #003369;"/><circle cx="19" cy="55" r="1" fill="none" stroke="#003369" stroke-width="2" data-name="layer1" style="stroke: #003369;"/></svg>
