<?xml version="1.0" encoding="UTF-8"?>
<svg xmlns="http://www.w3.org/2000/svg" aria-describedby="desc" aria-labelledby="title" viewBox="0 0 64 64"><path fill="none" stroke="#003369" stroke-miterlimit="10" stroke-width="2" d="M40 58s12 0 12-14h4.4a3.6 3.6 0 0 0 3.6-3.6V29.6a3.6 3.6 0 0 0-3.6-3.6H52v-4c0-11.045-7.955-20-19-20h-2c-11.047 0-19 8.955-19 20v4H7.6A3.6 3.6 0 0 0 4 29.6v10.8A3.6 3.6 0 0 0 7.6 44H10" data-name="layer2" style="stroke: #003369;"/><path fill="none" stroke="#003369" stroke-miterlimit="10" stroke-width="2" d="M40 58a4 4 0 0 0-4-4h-4a4 4 0 0 0-4 4 4 4 0 0 0 4 4h4a4 4 0 0 0 4-4z" data-name="layer2" style="stroke: #003369;"/><path fill="none" stroke="#003369" stroke-miterlimit="10" stroke-width="2" d="M40 24l-6 14h14m-4-6v12M18 25.55a6 6 0 0 1 8.637 8.277L18 44h12" data-name="layer1" style="stroke: #003369;"/></svg>
