<?xml version="1.0" encoding="UTF-8"?>
<svg xmlns="http://www.w3.org/2000/svg" data-name="Layer 1" viewBox="0 0 64 64"><circle cx="32" cy="32" r="29.78" fill="none" stroke="#003369" stroke-miterlimit="10" stroke-width="2" style="stroke: #003369;"/><path fill="#003369" d="M16.8 24.21a5.68 5.68 0 0 1 3.56 1 3.53 3.53 0 0 1 1.32 3 5.14 5.14 0 0 1-.49 2.11 9.44 9.44 0 0 1-1.44 2.16 19.33 19.33 0 0 1-2.28 2.21c-.9.74-1.92 1.5-3.06 2.26H22v2.38H11.11V37c1.19-1 2.26-1.84 3.21-2.65a29.74 29.74 0 0 0 2.44-2.25 10.38 10.38 0 0 0 1.54-2 3.67 3.67 0 0 0 .53-1.81 2 2 0 0 0-.57-1.51 2.28 2.28 0 0 0-1.62-.54 2.62 2.62 0 0 0-.92.16 2.15 2.15 0 0 0-.81.5 2.55 2.55 0 0 0-.58.92 4.07 4.07 0 0 0-.21 1.39h-2.75a5.21 5.21 0 0 1 .37-2.08 4.58 4.58 0 0 1 1.1-1.59 4.7 4.7 0 0 1 1.72-1 6.66 6.66 0 0 1 2.24-.33zM26.59 29.76a3.23 3.23 0 0 1 1.32-1.27 4.19 4.19 0 0 1 1.88-.42 3.5 3.5 0 0 1 2.9 1.13 5 5 0 0 1 .91 3.19v6.94h-2.83V33a6.58 6.58 0 0 0-.07-1 2.43 2.43 0 0 0-.28-.85 1.49 1.49 0 0 0-.58-.59 2 2 0 0 0-1-.21 2.24 2.24 0 0 0-1.14.26 2.07 2.07 0 0 0-.7.71 3.11 3.11 0 0 0-.35 1 8.22 8.22 0 0 0-.09 1.24v5.74h-2.79V24.48h2.82zM42.28 31h-1.17a3.48 3.48 0 0 0-1 .12 1.59 1.59 0 0 0-.73.4 1.87 1.87 0 0 0-.47.78 4.25 4.25 0 0 0-.16 1.28v5.78H36v-11h2.79v1.93A3.18 3.18 0 0 1 40 28.77a3.29 3.29 0 0 1 1.7-.44h.61zM50 31.63a1.9 1.9 0 0 0-.77-1.14 2.84 2.84 0 0 0-1.66-.44 2.8 2.8 0 0 0-1.37.28.87.87 0 0 0-.5.79 1 1 0 0 0 .35.76 2.65 2.65 0 0 0 1.21.51l1.47.32c.58.13 1.11.26 1.61.41a5.1 5.1 0 0 1 1.31.59 2.58 2.58 0 0 1 .89.91 2.72 2.72 0 0 1 .35 1.38 2.81 2.81 0 0 1-.4 1.5 3.5 3.5 0 0 1-1.06 1.11 5 5 0 0 1-1.55.71 7.13 7.13 0 0 1-3.78 0 4.58 4.58 0 0 1-1.55-.76 3.9 3.9 0 0 1-1.09-1.23 4.2 4.2 0 0 1-.52-1.67h2.72a2.21 2.21 0 0 0 .71 1.34 2.54 2.54 0 0 0 1.75.53 3 3 0 0 0 1.53-.33 1 1 0 0 0 .54-.92 1 1 0 0 0-.56-.9A5.17 5.17 0 0 0 48.3 35l-1.64-.35a9.19 9.19 0 0 1-1.45-.42 3.93 3.93 0 0 1-1.12-.65 2.66 2.66 0 0 1-.7-.93 3 3 0 0 1-.25-1.3 2.57 2.57 0 0 1 .37-1.35 3.53 3.53 0 0 1 1-1 5.48 5.48 0 0 1 1.49-.74 6.27 6.27 0 0 1 1.73-.26 7 7 0 0 1 1.72.21 5 5 0 0 1 1.51.64A4 4 0 0 1 52.07 30a4.12 4.12 0 0 1 .6 1.63z" style="fill: #003369;"/><path fill="none" stroke="#003369" stroke-miterlimit="10" stroke-width="2" d="M6.66 16.51h50.78M6.64 48.41h50.82" style="stroke: #003369;"/></svg>
