<?xml version="1.0" encoding="UTF-8"?>
<svg xmlns="http://www.w3.org/2000/svg" aria-describedby="desc" aria-labelledby="title" viewBox="0 0 64 64"><path fill="none" stroke="#003369" stroke-miterlimit="10" stroke-width="2" d="M37.1 50H2s0-6 7-8 9-4.4 9-6v-2a61.4 61.4 0 0 1-12-2c3.3-3.3 6-4.3 6-18 0-6 3.7-11.6 10-11.6s14 0 14 11.6c0 13.7 2.7 14.7 6 18a61.7 61.7 0 0 1-12 2v2c0 1.4.8 3.2 6.1 5.1" data-name="layer2" style="stroke: #003369;"/><circle cx="48" cy="48" r="4" fill="none" stroke="#003369" stroke-miterlimit="10" stroke-width="2" data-name="layer1" style="stroke: #003369;"/><path fill="none" stroke="#003369" stroke-miterlimit="10" stroke-width="2" d="M62 51.8L58.9 50a11.2 11.2 0 0 0 .1-2 11.3 11.3 0 0 0-.2-2.1l2.8-1.7-3.6-6.4-2.9 1.7a9.5 9.5 0 0 0-3.1-2V34h-8v3.5a9.8 9.8 0 0 0-3.2 2L38 37.8l-3.7 6.5 2.8 1.6a11 11 0 0 0 0 4.1L34 51.8l3.7 6.5 3-1.8a9.8 9.8 0 0 0 3.3 2V62h8v-3.5a9.6 9.6 0 0 0 3.2-2.1l3.1 1.8z" data-name="layer1" style="stroke: #003369;"/></svg>
