<?xml version="1.0" encoding="UTF-8"?>
<svg xmlns="http://www.w3.org/2000/svg" aria-describedby="desc" aria-labelledby="title" viewBox="0 0 64 64"><path fill="none" stroke="#003369" stroke-miterlimit="10" stroke-width="2" d="M47.475 31.994l10.441 10.441a10.974 10.974 0 0 1 0 15.475 10.974 10.974 0 0 1-15.475 0L32 47.469M16.525 31.994L6.084 21.554a10.974 10.974 0 0 1 0-15.475 10.974 10.974 0 0 1 15.475 0L32 16.52" data-name="layer2" style="stroke: #003369;"/><rect width="73.3" height="21.885" x="-4.65" y="21.052" fill="none" stroke="#003369" stroke-miterlimit="10" stroke-width="2" data-name="layer1" rx="10.942" ry="10.942" transform="rotate(-45 32 31.994)" style="stroke: #003369;"/><path fill="none" stroke="#003369" stroke-miterlimit="10" stroke-width="2" d="M28.186 43.656l-7.803-7.804m15.431-15.519l7.847 7.848" data-name="layer1" style="stroke: #003369;"/><circle cx="32.263" cy="24.66" r="1" fill="none" stroke="#003369" stroke-miterlimit="10" stroke-width="2" data-name="layer1" transform="rotate(-45 32.263 24.66)" style="stroke: #003369;"/><circle cx="39.335" cy="31.731" r="1" fill="none" stroke="#003369" stroke-miterlimit="10" stroke-width="2" data-name="layer1" transform="rotate(-45 39.335 31.73)" style="stroke: #003369;"/><circle cx="25.192" cy="31.731" r="1" fill="none" stroke="#003369" stroke-miterlimit="10" stroke-width="2" data-name="layer1" transform="rotate(-45 25.193 31.732)" style="stroke: #003369;"/><circle cx="32.263" cy="31.731" r="1" fill="none" stroke="#003369" stroke-miterlimit="10" stroke-width="2" data-name="layer1" transform="rotate(-45 32.264 31.73)" style="stroke: #003369;"/><circle cx="32.263" cy="38.802" r="1" fill="none" stroke="#003369" stroke-miterlimit="10" stroke-width="2" data-name="layer1" transform="rotate(-45 32.264 38.802)" style="stroke: #003369;"/></svg>
