<?xml version="1.0" encoding="UTF-8"?>
<svg xmlns="http://www.w3.org/2000/svg" data-name="Layer 1" viewBox="0 0 64 64"><path fill="none" stroke="#003369" stroke-miterlimit="10" stroke-width="2" d="M55.88 4.53v10.56H45.32M32.64 60.53a28.53 28.53 0 1 1 23-45.44M46.36 57A28.3 28.3 0 0 1 39 59.82m16.62-10.91a28.3 28.3 0 0 1-5 5.22m9.25-13.66a27.28 27.28 0 0 1-1.67 4.17" style="stroke: #003369;"/><path fill="#003369" d="M23.49 43.91V28h-4.57v-2.71c.77 0 1.43-.06 2-.12a5.86 5.86 0 0 0 1.52-.35 3.31 3.31 0 0 0 1.14-.76 4.49 4.49 0 0 0 .87-1.38h3.07v21.23zM29.61 22.68h15.61v3.4a47.49 47.49 0 0 0-3.63 4.08A23.48 23.48 0 0 0 39 34.25a22.35 22.35 0 0 0-1.65 4.45 26.65 26.65 0 0 0-.75 5.21h-4.47a21 21 0 0 1 .87-5.26 25.44 25.44 0 0 1 2-4.74 28.41 28.41 0 0 1 2.8-4.2 34.31 34.31 0 0 1 3.37-3.63H29.61z" style="fill: #003369;"/></svg>
