<?xml version="1.0" encoding="UTF-8"?>
<svg xmlns="http://www.w3.org/2000/svg" data-name="Layer 1" viewBox="0 0 64 64"><path fill="none" stroke="#003369" stroke-miterlimit="10" stroke-width="2" d="M55.81 4.61v10.54H45.28M32.64 60.44a28.44 28.44 0 1 1 22.91-45.29m-9.24 41.79a28.46 28.46 0 0 1-7.31 2.8m16.55-10.89a28.52 28.52 0 0 1-5 5.21m9.25-13.62a28.18 28.18 0 0 1-1.66 4.16" style="stroke: #003369;"/><path fill="#003369" d="M31.79 41.22a3.63 3.63 0 0 0 2.75-1.14 4.4 4.4 0 0 0 1.08-3.15 5 5 0 0 0-.34-1.9 3.87 3.87 0 0 0-.89-1.36 3.56 3.56 0 0 0-1.25-.8 4 4 0 0 0-1.43-.26 4.38 4.38 0 0 0-2.35.58 3 3 0 0 0-1.27 1.34l-3.68-.17 1.4-11.65h13.05v3.39h-9.75l-.58 4.52a5.79 5.79 0 0 1 1.69-.83 8.19 8.19 0 0 1 2.51-.34 7.15 7.15 0 0 1 2.61.49 6.41 6.41 0 0 1 2.23 1.41 7 7 0 0 1 1.55 2.32 8.28 8.28 0 0 1 .58 3.23 7.59 7.59 0 0 1-.62 3.1 6.62 6.62 0 0 1-1.73 2.3 7.54 7.54 0 0 1-2.54 1.43 9.17 9.17 0 0 1-3.08.5 8.57 8.57 0 0 1-3.28-.58 7.28 7.28 0 0 1-2.39-1.56 7.15 7.15 0 0 1-1.52-2.25 8.09 8.09 0 0 1-.63-2.64h3.8a6.41 6.41 0 0 0 .36 1.54 3.84 3.84 0 0 0 .79 1.26 3.67 3.67 0 0 0 1.24.86 4.08 4.08 0 0 0 1.69.36z" style="fill: #003369;"/></svg>
