<?xml version="1.0" encoding="UTF-8"?>
<svg xmlns="http://www.w3.org/2000/svg" data-name="Layer 1" viewBox="0 0 64 64"><path fill="none" stroke="#1d3763" stroke-miterlimit="10" stroke-width="2.02" d="M18.67 25.56l.19-12.37M16.17 50.44l1.19-11.75M16.76 26.25l-2.19-11.98M20.28 50.44l-1.5-11.99M15.44 27.11l-4.82-10.12M24.55 48.48l-4.38-10.85M14.57 29.21l-6.64-7.95M28.45 44.11l-7.31-8.15M13.96 30.75l-7.59-3.08M31.02 37.65l-9.17-3.81M13.75 32.77l-7.8 1.07M31.67 30.29l-9.52 1.28M14.01 34.8l-6.79 4.79M30.31 23.47l-8.52 6.01M14.67 36.62l-5.27 7.7M27.27 18.1l-6.13 9.83M15.82 38.07l-3.45 9.78M23.84 14.67l-3.79 12.1" style="stroke: #003369;"/><path fill="none" stroke="#1d3763" stroke-miterlimit="10" stroke-width="2" d="M18.86 50.44c-3.31 0-6.45-1.85-8.87-5.22a23.21 23.21 0 0 1-3.94-13.41A23.2 23.2 0 0 1 10 18.41c2.42-3.37 5.56-5.22 8.87-5.22s6.45 1.85 8.86 5.22a23.13 23.13 0 0 1 4 13.4 23.14 23.14 0 0 1-4 13.41c-2.42 3.37-5.57 5.22-8.87 5.22z" style="stroke: #003369;"/><path fill="none" stroke="#1d3763" stroke-miterlimit="10" stroke-width="2" d="M29.21 12.94c5.47 1.11 16.43 4.12 22.78 8.38l.07.06c.28.24 2.68 2.55 2.84 10.6h0v0c-.16 8.05-2.56 10.36-2.84 10.6l-.07.06c-7.05 4.73-18.92 7.38-22.39 8.08" style="stroke: #003369;"/><path fill="none" stroke="#1d3763" stroke-miterlimit="10" stroke-width="2" d="M53.4 24l2.07 1.13a10.13 10.13 0 0 1 5.41 6.48V32a10.16 10.16 0 0 1-5.32 6.44h-.1l-1.91.72" style="stroke: #003369;"/><path fill="none" stroke="#1d3763" stroke-miterlimit="10" stroke-width="2.02" d="M22 53.52h-3.3c-8.62 0-15.63-9.65-15.63-21.52s7-21.52 15.63-21.52H22c8.62 0 15.63 9.65 15.63 21.52s-7 21.52-15.63 21.52z" style="stroke: #003369;"/><ellipse cx="17.94" cy="32" fill="none" stroke="#1d3763" stroke-miterlimit="10" stroke-width="2" rx="4.36" ry="5.98" style="stroke: #003369;"/></svg>
