<?xml version="1.0" encoding="UTF-8"?>
<svg xmlns="http://www.w3.org/2000/svg" aria-describedby="desc" aria-labelledby="title" viewBox="0 0 64 64"><path fill="none" stroke="#003369" stroke-width="2" d="M32 11v12" data-name="layer2" style="stroke: #003369;"/><path fill="none" stroke="#003369" stroke-width="2" d="M12.4 37.3c-4.8-1.3-8.9-3-10.3-4.7 0 0-.6-1.6.9-1.6h20.2m1.6 8l-4.8-.3m31.6-1.4c4.8-1.2 8.9-2.9 10.3-4.6 0 0 .6-1.6-.9-1.6H40.9M39.2 39l4.8-.3" data-name="layer1" style="stroke: #003369;"/><circle cx="16" cy="39" r="4" fill="none" stroke="#003369" stroke-width="2" data-name="layer2" style="stroke: #003369;"/><circle cx="48" cy="39" r="4" fill="none" stroke="#003369" stroke-width="2" data-name="layer2" style="stroke: #003369;"/><ellipse cx="32" cy="33" fill="none" stroke="#003369" stroke-width="2" data-name="layer1" rx="9" ry="10" style="stroke: #003369;"/><path fill="none" stroke="#003369" stroke-width="2" d="M24 28.4s4 4.6 8 4.6 8-4.6 8-4.6" data-name="layer1" style="stroke: #003369;"/></svg>
