<?xml version="1.0" encoding="UTF-8"?>
<svg xmlns="http://www.w3.org/2000/svg" aria-describedby="desc" aria-labelledby="title" viewBox="0 0 64 64"><path fill="none" stroke="#003369" stroke-width="2" d="M11.1 54c.6 5.9 4 8 5.9 8h30c1.9 0 5.3-2.1 5.9-8m-7.5-18a49.8 49.8 0 0 0-8.4-8V12m-10 0v16a49.8 49.8 0 0 0-8.4 8" data-name="layer2" style="stroke: #003369;"/><path fill="none" stroke="#003369" stroke-width="2" d="M37 2H27v10h10zm16 50c0-4.8-3.2-10.7-7.6-16H18.6C14.2 41.3 11 47.2 11 52a19 19 0 0 0 .1 2h41.8a19 19 0 0 0 .1-2z" data-name="layer1" style="stroke: #003369;"/></svg>
