<?xml version="1.0" encoding="UTF-8"?>
<svg xmlns="http://www.w3.org/2000/svg" aria-describedby="desc" aria-labelledby="title" viewBox="0 0 64 64"><path fill="none" stroke="#003369" stroke-miterlimit="10" stroke-width="2" d="M48 16v34m4-26h-4m0 4h-4m8 12h-4m0 4h-4m8-12h-4m0 4h-4" data-name="layer1" style="stroke: #003369;"/><path fill="none" stroke="#003369" stroke-miterlimit="10" stroke-width="2" d="M52 54h7a3 3 0 0 0 3-3V16H10v35a3 3 0 0 1-3 3" data-name="layer2" style="stroke: #003369;"/><path fill="none" stroke="#003369" stroke-miterlimit="10" stroke-width="2" d="M54 16V8H20V4H2v47a3 3 0 0 0 3 3h39" data-name="layer2" style="stroke: #003369;"/><path fill="none" stroke="#003369" stroke-miterlimit="10" stroke-width="2" d="M44 50h8v10h-8z" data-name="layer1" style="stroke: #003369;"/></svg>
