<?xml version="1.0" encoding="UTF-8"?>
<svg xmlns="http://www.w3.org/2000/svg" aria-describedby="desc" aria-labelledby="title" viewBox="0 0 64 64"><path fill="none" stroke="#003369" stroke-miterlimit="10" stroke-width="2" d="M54 34.4V19H10v29a3 3 0 0 1-3 3" data-name="layer2" style="stroke: #003369;"/><path fill="none" stroke="#003369" stroke-miterlimit="10" stroke-width="2" d="M48 19v-8H20V7H2v41a3 3 0 0 0 3 3h28.4" data-name="layer2" style="stroke: #003369;"/><circle cx="47" cy="44" r="5" fill="none" stroke="#003369" stroke-miterlimit="10" stroke-width="2" data-name="layer1" style="stroke: #003369;"/><path fill="none" stroke="#003369" stroke-miterlimit="10" stroke-width="2" d="M62 48l-3.4-2a11.8 11.8 0 0 0 0-4.3l3.1-1.7-4-6.9-3.1 1.8a12 12 0 0 0-3.7-2.1V29h-8v3.7a12 12 0 0 0-3.7 2.1L36 33l-4 7 3 1.7a11.6 11.6 0 0 0 0 4.4L31.7 48l4 6.9 3.3-1.8a12 12 0 0 0 3.8 2.2V59h8v-3.7a12 12 0 0 0 3.9-2.3l3.3 2z" data-name="layer1" style="stroke: #003369;"/></svg>
