<?xml version="1.0" encoding="UTF-8"?>
<svg xmlns="http://www.w3.org/2000/svg" viewBox="0 0 64 64"><g fill="#003369"><path d="M6.041 45.417l2.156-7.1 1.914.58-2.156 7.1zM8.768 45.341l3.103-9.822 1.907.603-3.103 9.822z" style="fill: #003369;"/><path d="M4.01 49.47c-.96 0-1.46-.44-1.72-.81-.65-.95-.2-2.24-.1-2.49l3.23-9.33c-.77-.42-1.3-1.24-1.3-2.18v-4.2c0-1.24.92-2.29 2.15-2.45v-.48c0-1.09.88-1.97 1.97-1.97h1.35c1.09 0 1.97.88 1.97 1.97v.13h24.22v6.59h-3.71v2.36h-6.34v2.8c0 1.54-1.23 2.62-2.99 2.65-1.04.01-2.09.02-3.13.02l-4.02.03c-1.65 5.18-2.04 5.68-2.23 5.92-1.05 1.35-2.53 1.43-2.7 1.44H4.01zm-.06-2H10.64s.67-.05 1.15-.66c.07-.1.52-.9 2.12-5.99l.22-.69 5.48-.04c1.04 0 2.08-.01 3.11-.02.17 0 1.02-.04 1.02-.64V34.63h6.34v-2.36h3.71v-2.59H9.56v-2.13l-1.32.03.03 2.43H6.52c-.22.03-.4.23-.4.47v4.2c0 .26.22.48.48.48h.04l1.53-.13-4.11 11.85c-.08.2-.12.46-.12.61z" style="fill: #003369;"/><path d="M22.53 39.37h-8.3l.32-1.25c.26-1 .43-1.62.55-2.06.08-.28.13-.48.18-.66l.19-.76h7.02l.04 4.73zm-5.71-2h3.69v-.73h-3.5c-.05.2-.12.44-.2.73z" style="fill: #003369;"/></g><path fill="#003369" d="M45.75 15.6a5.54 5.54 0 1 1 5.54-5.54 5.54 5.54 0 0 1-5.54 5.54zm0-9.07c-1.95 0-3.54 1.59-3.54 3.54s1.59 3.54 3.54 3.54 3.54-1.59 3.54-3.54-1.59-3.54-3.54-3.54z" style="fill: #003369;"/><path fill="#003369" d="M49.38 58.7c-1.71 0-3.11-1.38-3.11-3.09l-.04-13.09h.01v-4.31c.02-.66.04-1.65-.27-1.96-.12-.12-.29-.16-.42-.1-.2.09-.43.45-.41 1.19v18.21c0 1.7-1.39 3.09-3.09 3.09s-3.09-1.38-3.09-3.09l-.07-32.89-7.33-1.6c-.17-.04-1.19-.35-1.76-1.37-.41-.74-.47-1.63-.18-2.64l2.52-8.55c.27-.91.63-2.17 1.53-2.89.79-.64 2.05-.73 2.98-.2.5.28 1.64 1.19 1.32 3.41l-1.07 6.5 8.79 2.04 8.79-2.04-.9-5.52c-.18-1.08-.42-2.55.37-3.66.57-.79 1.6-1.21 2.58-1.05.67.11 1.89.61 2.49 2.65l2.72 9.24c.15.35.59 1.57.05 2.66-.25.5-.79 1.15-1.97 1.41l-7.33 1.6.03 6.08-.03 26.87c0 1.7-1.4 3.09-3.11 3.09zm-1.14-14.17l.03 11.08c0 .6.5 1.09 1.11 1.09s1.11-.49 1.11-1.09l.03-24.87h-.02v-9.69l8.9-1.94c.22-.05.51-.15.6-.33.14-.28-.01-.82-.1-1.02l-.05-.14-2.74-9.31c-.21-.73-.54-1.18-.91-1.24a.719.719 0 0 0-.62.24c-.31.44-.15 1.44-.03 2.17l1.21 7.37-11.07 2.57-11.07-2.57 1.36-8.33c.04-.31.11-1.12-.33-1.37-.28-.16-.63-.07-.74.01-.41.33-.67 1.23-.86 1.9l-2.52 8.55c-.31 1.07.19 1.4.51 1.51l8.83 1.92.08 34.5c0 .6.49 1.09 1.09 1.09s1.09-.49 1.09-1.09V37.35c-.03-1.44.57-2.59 1.61-3.04.88-.39 1.91-.19 2.62.5.94.91.91 2.37.89 3.43v6.27z" style="fill: #003369;"/></svg>
