<?xml version="1.0" encoding="UTF-8"?>
<svg xmlns="http://www.w3.org/2000/svg" viewBox="0 0 36.93 66.93"><rect width="36.93" height="15.54" y="28.8" fill="#3bba8e" rx="7.77" ry="7.77" style="fill: #003369;"/><text fill="#fff" font-family="Arial-BoldMT,Arial" font-size="11.82" transform="translate(5.66 40.74)"><tspan x="0" y="0">ARR</tspan></text><text fill="#3bba8e" font-family="Arial-BoldMT,Arial" font-size="11.82" transform="translate(5.31 62.47)"><tspan x="0" y="0">1400</tspan></text><g><g fill="none" stroke="#3bba8e" stroke-miterlimit="10" stroke-width=".8"><path d="M6.09 18.75h20.98M25.21 6.61v12.14m-.38 0h-4.61M19.8 6.79v5.07H8.12v6.89" style="fill: #003369;"/><path d="M10.4 18.75V14.1h12.44v4.65m-12.26-2.39h12.24m-4.03 2.25v-4.38m-4.2 4.45V14.3m2.37-11.33l1.07 3.59h9.07l1.07-3.59-1.44-1.86h-8.02l-1.76 1.86zM24 6.29l.59-3.07m-3.42 3.13l-.59-3.13m-3.62 0h10.92M7.4 3.21L7.62.58l.9.36.28 1.24 1.33.69 3.96 2.06s1 .45.95 1.06c-.05.61-.52.48-.96.32s-1.92-.92-1.92-.92l-3.24.67-1.02-.49 1.49-1.44-1.99-.9z" style="fill: #003369;"/><path d="M12.81 4.27l-1.15-1.82-1.14-.54-.22 1.06" style="fill: #003369;"/></g></g></svg>
