<?xml version="1.0" encoding="UTF-8"?>
<svg xmlns="http://www.w3.org/2000/svg" data-name="Layer 1" viewBox="0 0 64 64"><path fill="none" stroke="#003369" stroke-width="2" d="M12 32.92A8.77 8.77 0 0 1 9.7 27l-.19-4h0s2.3 4.36 4.87 6.5-.4 5.39-.4 5.39zM17 39.92c-.85-1.2-2.16-3.8-3-5M14.43 28.79l.62-1.79a8.53 8.53 0 0 1 3.05 2c1 1.18 1.09 2.78 1.42 4.21A12.08 12.08 0 0 0 21 36.92M26 39.92c-1.72-.91-4.08-2.51-5.81-3.4l-3.4 2.28c.18 1.32 1.45 2.51 2.43 3.32a21.56 21.56 0 0 0 4.6 2.73A28.28 28.28 0 0 0 29 46.92" style="stroke: #003369;"/><path fill="none" stroke="#003369" stroke-width="2" d="M29 31.92c-.06 0 .91 3.73 1 4a41.72 41.72 0 0 0 7.44 13.67c.56.75 7.56 8.33 7.56 8.33l-2.52 3.52c-.19.16-5.19-4.46-5.61-4.83a33.53 33.53 0 0 1-5.77-6.75c-.87-1.32-1.61-2.72-2.44-4.06a17.06 17.06 0 0 1-2.51-10.58" style="stroke: #003369;"/><path fill="none" stroke="#003369" stroke-width="2" d="M20.54 23.48a15.82 15.82 0 0 0 .86 4.78c.52 1.4 2 2.08 2.9 3.21s1.28 3.17 1.68 4.45l3-4c.52-.52-.89-4.74-1-5.62-.4-2.17-5.29.08-7.44-2.82z" style="stroke: #003369;"/><path fill="none" stroke="#003369" stroke-width="2" d="M26.63 25.18a19 19 0 0 1 .23-6.18 5.7 5.7 0 0 0-.26-4.51 24 24 0 0 0-2.72-4.41 27.78 27.78 0 0 1-.64 7.29 29.36 29.36 0 0 1-2.7 6.14" style="stroke: #003369;"/><path fill="none" stroke="#003369" stroke-width="2" d="M21.44 21.43a101.2 101.2 0 0 1-1.7-5.45c-.64-2.3-.26-4.68-.18-7a22.17 22.17 0 0 0-1.06-6.4s5.38 2.3 5.24 4.74a5.53 5.53 0 0 0 .76 3.59M33.53 43a94.56 94.56 0 0 0 16.07 1.06l5-.25.2 4s-9.32 2.89-18.46.32M10.55 24a31.51 31.51 0 0 0-1.34-6.93 21.87 21.87 0 0 1 3.45 2.61c2.34 2.2 1.67 4.45 2.39 7.32" style="stroke: #003369;"/><path fill="none" stroke="#003369" stroke-width="2" d="M23.74 7.3a9 9 0 0 1-2 3.28A7.41 7.41 0 0 0 19.47 15" style="stroke: #003369;"/></svg>
