<?xml version="1.0" encoding="UTF-8"?>
<svg xmlns="http://www.w3.org/2000/svg" data-name="Layer 1" viewBox="0 0 64 64"><path fill="none" stroke="#003369" stroke-width="2" d="M19.45 8.65v-.36c.06-2.2-.75-4-1.81-4.07s-2 1.72-2 3.92a7.39 7.39 0 0 0 0 1.07 3.34 3.34 0 0 1 1.88-1.07 2.33 2.33 0 0 1 1.93.51z" style="stroke: #003369;"/><path fill="none" stroke="#003369" stroke-width="2" d="M15.7 9.21a4.85 4.85 0 0 0-1.18 2.36 7.47 7.47 0 0 1 1.31 2.76 9.17 9.17 0 0 1 .25 1.2 4.15 4.15 0 0 1 1.81.8 8.08 8.08 0 0 1 1-2.4 6.92 6.92 0 0 1 2.13-2.29 5.29 5.29 0 0 0-1.61-3" style="stroke: #003369;"/><path fill="none" stroke="#003369" stroke-width="2" d="M19.45 8.65a2.33 2.33 0 0 0-1.87-.51 3.34 3.34 0 0 0-1.88 1.07M16.16 16.33c.05 1.21-.21 2.12-.75 2.27a.74.74 0 0 1-.5-.06c-.05 2-.09 5.46-.1 9.5a10.84 10.84 0 0 1 .58 1.56c.54 1.77.39 4-.43 4.27h-.14c0 4.09.08 8.39.19 12.29a7.25 7.25 0 0 1 1.28 1.89c.86 1.82.93 3.59.16 4-.33.17-.78 0-1.25-.33.21 4.4.52 7.56 1 8 2 2 2.8 1.9 5 .34.95-.66.85-9.16.44-18.32a.58.58 0 0 1-.23 0c-.84-.15-1.25-2-.92-4.21a8 8 0 0 1 .82-2.53c-.5-8.89-1.1-16.72-1.1-16.72l-.51-.48c-.62.46-1.18.62-1.55.38a1.2 1.2 0 0 1-.37-1" style="stroke: #003369;"/><path fill="none" stroke="#003369" stroke-width="2" d="M17.78 17.1a3.75 3.75 0 0 1 .11-.77 4.15 4.15 0 0 0-1.81-.8 7.74 7.74 0 0 1 .08.8M14.81 28c-.6-1.26-1.37-2.05-2-1.88-.82.24-1 2.15-.43 4.28s1.61 3.48 2.41 3.44M14.52 11.57c-.42-.51-.86-.78-1.23-.68-.83.23-1 2.15-.43 4.28.47 1.73 1.31 3 2.05 3.37" style="stroke: #003369;"/><path fill="none" stroke="#003369" stroke-width="2" d="M16.08 15.53a9.17 9.17 0 0 0-.25-1.2 7.47 7.47 0 0 0-1.31-2.76M14.91 18.54a.74.74 0 0 0 .5.06c.54-.15.8-1.06.75-2.27M19.7 17.77a7.65 7.65 0 0 0 1.84-2.1c1.14-1.85 1.49-3.74.77-4.22-.3-.2-.75-.11-1.25.19" style="stroke: #003369;"/><path fill="none" stroke="#003369" stroke-width="2" d="M21.06 11.64a6.92 6.92 0 0 0-2.13 2.29 8.08 8.08 0 0 0-1 2.4M17.78 17.1a1.2 1.2 0 0 0 .37 1c.37.24.93.08 1.55-.38M17.89 16.33a3.75 3.75 0 0 0-.11.77M21.65 41.73c.78-.15 1.6-1.67 1.91-3.65.33-2.18-.08-4.06-.93-4.21-.44-.08-.92.36-1.32 1.1M21.31 35a8 8 0 0 0-.81 2.57c-.33 2.18.08 4.06.92 4.21M15 46.17c-.61-.62-1.23-.91-1.66-.69-.77.38-.7 2.15.16 4a10.53 10.53 0 0 0 1.7 2.22M16.45 52c.77-.38.7-2.15-.16-4A7.25 7.25 0 0 0 15 46.17M34.56 6.22a3 3 0 0 1 1.57 1.09 6.87 6.87 0 0 0 .13-.94c.11-1.95-.56-3.56-1.49-3.6S33 4.27 32.88 6.22v.31a2.07 2.07 0 0 1 1.68-.31zM35.33 12.84a8.72 8.72 0 0 1 .31-1A6.6 6.6 0 0 1 37 9.47a4.17 4.17 0 0 0-.87-2.16M32.88 6.53a4.63 4.63 0 0 0-1.64 2.52A6.26 6.26 0 0 1 33 11.22a7.22 7.22 0 0 1 .73 2.19" style="stroke: #003369;"/><path fill="none" stroke="#003369" stroke-width="2" d="M36.13 7.31a3 3 0 0 0-1.57-1.09 2.07 2.07 0 0 0-1.68.31M30.22 45.94c1.24-2.44 2.61-5 4-7.63.32-3 .62-6.18.9-9.23H35c-.7-.27-.73-2-.06-3.8a8.2 8.2 0 0 1 .62-1.33c.29-3.55.51-6.57.61-8.37a.67.67 0 0 1-.44 0c-.47-.17-.63-1-.49-2.05a2.85 2.85 0 0 1-1.49.56 1 1 0 0 1-.4.89c-.34.19-.83 0-1.34-.44l-.48.38s-1.11 6.85-2.19 14.63a7.3 7.3 0 0 1 .52 2.33c.13 1.94-.37 3.57-1.12 3.64a.71.71 0 0 1-.2 0c-1 7.67-1.68 14.81-1.05 16l.43-.9" style="stroke: #003369;"/><path fill="none" stroke="#003369" stroke-width="2" d="M35.1 29.08c.7.1 1.73-1.12 2.37-2.85s.64-3.53-.06-3.8c-.52-.19-1.26.44-1.88 1.51" style="stroke: #003369;"/><path fill="none" stroke="#003369" stroke-width="2" d="M35.53 23.94a8.2 8.2 0 0 0-.62 1.33c-.67 1.83-.64 3.53.06 3.8h.13M36.14 15.57a4.77 4.77 0 0 0 2.06-2.81c.67-1.84.64-3.53-.07-3.8-.32-.12-.72.09-1.13.51M37 9.47a6.6 6.6 0 0 0-1.36 2.33 8.72 8.72 0 0 0-.31 1M35.21 13.54c-.14 1.06 0 1.88.49 2.05a.67.67 0 0 0 .44 0M35.33 12.84a6 6 0 0 0-.12.7M30.93 9.37c-.67.37-1.28 1.48-.41 3.19a6.8 6.8 0 0 0 1.46 2M33.68 13.41a7.22 7.22 0 0 0-.68-2.19M32 14.55c.51.44 1 .63 1.34.44a1 1 0 0 0 .4-.89M33.72 14.1a2.75 2.75 0 0 0 0-.69M29.31 29.56c-.3-.68-.69-1.1-1.09-1.06-.75.07-1.26 1.7-1.12 3.64.12 1.76.73 3.17 1.41 3.35M28.51 35.49c.07 0 .35-.11.42-.12.75-.07 1-1.54.9-3.48a7.3 7.3 0 0 0-.52-2.33M49.44 15.72A2.19 2.19 0 0 1 50.75 17a2.68 2.68 0 0 0 .18-.28c1-1.79 1.19-3.66.34-4.17s-2.39.54-3.43 2.33a9.46 9.46 0 0 0-.44.91 3.18 3.18 0 0 1 2.04-.07zM46 22.61a7.41 7.41 0 0 1 2-1.51 6.51 6.51 0 0 1 2.79-.93 5 5 0 0 0 0-3.2M47.4 15.76a4.5 4.5 0 0 0-2 1.41 7.24 7.24 0 0 1-.18 2.83 8.84 8.84 0 0 1-.34 1.1" style="stroke: #003369;"/><path fill="none" stroke="#003369" stroke-width="2" d="M50.75 17a2.19 2.19 0 0 0-1.31-1.25 3.18 3.18 0 0 0-2 0M27.55 51.65a.66.66 0 0 1-.09-.15c-1.56 3.26-2.52 5.61-2.37 6.14.73 2.57 1.46 2.83 4 2.55 1.08-.12 4.81-7.18 8.6-14.92a1.21 1.21 0 0 1-.2-.09c-.63-.5-.13-2.24 1.13-3.89a7.65 7.65 0 0 1 1.83-1.76C44 32 47.06 25.24 47.06 25.24s-.07-.25-.2-.62c-.72.1-1.26 0-1.45-.39a1.08 1.08 0 0 1 .17-1 2.92 2.92 0 0 1-1-1.36c-.5 1-1.13 1.65-1.65 1.53a.72.72 0 0 1-.38-.28c-1 1.67-2.53 4.48-4.35 7.8a10.13 10.13 0 0 1-.2 1.52c-.48 2-1.5 3.51-2.28 3.33l-.12-.06-1.39 2.6" style="stroke: #003369;"/><path fill="none" stroke="#003369" stroke-width="2" d="M27.89 50.6l-.43.9a.66.66 0 0 0 .09.15M34.2 38.31c-1.37 2.58-2.74 5.19-4 7.63M44.88 21.14c-.09.25-.19.48-.29.7a2.92 2.92 0 0 0 1 1.36 3.11 3.11 0 0 1 .44-.59M38.21 30.89c.07-1.31-.21-2.3-.78-2.43-.79-.18-1.81 1.31-2.28 3.33s-.24 3.6.44 3.92M35.59 35.71l.12.06c.78.18 1.8-1.31 2.28-3.33a10.13 10.13 0 0 0 .22-1.55M45.37 17.17c-.12-.61-.35-1-.71-1.11-.78-.18-1.8 1.31-2.28 3.33-.38 1.64-.28 3.11.18 3.7M44.88 21.14a8.84 8.84 0 0 0 .34-1.1 7.24 7.24 0 0 0 .15-2.87M42.56 23.09a.72.72 0 0 0 .38.28c.52.12 1.15-.51 1.65-1.53M44.59 21.84c.1-.22.2-.45.29-.7M46.86 24.62a7.34 7.34 0 0 0 2.46-.91c1.78-1 2.91-2.41 2.53-3.13-.16-.31-.57-.43-1.11-.41" style="stroke: #003369;"/><path fill="none" stroke="#003369" stroke-width="2" d="M50.74 20.17a6.51 6.51 0 0 0-2.74.93 7.41 7.41 0 0 0-2 1.51M45.58 23.2a1.08 1.08 0 0 0-.17 1c.19.37.73.49 1.45.39M46 22.61a3.11 3.11 0 0 0-.44.59M37.7 45.27c.71.23 2.07-.66 3.21-2.16s1.76-3.39 1.13-3.89c-.33-.26-.92-.12-1.58.31" style="stroke: #003369;"/><path fill="none" stroke="#003369" stroke-width="2" d="M40.46 39.53a7.65 7.65 0 0 0-1.83 1.76c-1.26 1.65-1.33 3.58-.7 4.08l-.23-.1M27.89 50.6c.7-1.43 1.48-3 2.33-4.66M30.22 45.94c-.85 1.66-1.63 3.23-2.33 4.66" style="stroke: #003369;"/></svg>
