<?xml version="1.0" encoding="UTF-8"?>
<svg xmlns="http://www.w3.org/2000/svg" aria-describedby="desc" aria-labelledby="title" viewBox="0 0 64 64"><path fill="none" stroke="#003369" stroke-miterlimit="10" stroke-width="2" d="M10 10h26v26H10z" data-name="layer1" style="stroke: #003369;"/><path fill="none" stroke="#003369" stroke-miterlimit="10" stroke-width="2" d="M14 56H5a3 3 0 0 1-3-3V5a3 3 0 0 1 3-3h54a3 3 0 0 1 3 3v48a3 3 0 0 1-3 3H34M10 44h28" data-name="layer2" style="stroke: #003369;"/><path fill="none" stroke="#003369" stroke-miterlimit="10" stroke-width="2" d="M14 44h20v18H14z" data-name="layer2" style="stroke: #003369;"/><path fill="none" stroke="#003369" stroke-miterlimit="10" stroke-width="2" d="M42 16h14m-12 8h2m6 0h2m-10 8h2m6 0h2" data-name="layer1" style="stroke: #003369;"/></svg>
