<?xml version="1.0" encoding="UTF-8"?>
<svg xmlns="http://www.w3.org/2000/svg" data-name="Layer 1" viewBox="0 0 64 64"><path fill="#003369" d="M43.21 53.32a6.16 6.16 0 0 0-3.28-.54 11.88 11.88 0 0 1-6.15-1.56l1-1.74a9.7 9.7 0 0 0 5 1.3 8.25 8.25 0 0 1 4.37.78zm4.1-9.45s-5.07-2.78-8.31-4.55c-2.28-1.22-3.26-1.3-4.2-1l-4.23 1.58-.73-1.9 4.3-1.6c1.94-.59 3.65 0 5.77 1.15 3.28 1.77 8.36 4.55 8.36 4.55z" style="fill: #003369;"/><path fill="#003369" d="M29 49.22a3.13 3.13 0 0 1-1-6.13l9.16-2.78.58 1.91L28.62 45a1.14 1.14 0 1 0 .66 2.18l5.61-1.68.42.44c.08.08 2.14 2.09 5.79.54l.78 1.84c-3.86 1.64-6.48.21-7.52-.58l-4.52 1.36a3.26 3.26 0 0 1-.84.12zM50.23 60l-8.65-5.2 6.63-15.54L57.5 43zm-6.13-6l5.2 3.1 5.56-13-5.58-2.25zM20.93 32.91a14.44 14.44 0 0 1-4.93-28 14.44 14.44 0 1 1 4.94 28zM21 6a12.37 12.37 0 0 0-4.27.76 12.43 12.43 0 1 0 15.48 16.95A12.44 12.44 0 0 0 21 6z" style="fill: #003369;"/><path fill="#003369" d="M22.66 32.2l1.875-.696 4.502 12.131-1.875.696zM33.73 56.86A2.85 2.85 0 0 1 31.05 55l-2.23-6.12 1.88-.68 2.24 6.16a.85.85 0 0 0 1.07.46.87.87 0 0 0 .48-.44.82.82 0 0 0 0-.65l-2.1-5.83 1.88-.68 2.1 5.78a2.87 2.87 0 0 1-1.67 3.72 3 3 0 0 1-.97.14zM26.171 30.865l1.879-.686 4.6 12.607-1.878.686z" style="fill: #003369;"/><path fill="#003369" d="M26.48 45.64a3.6 3.6 0 0 1 .09-4.75L28 42.28a1.64 1.64 0 0 0-.09 2zM11.31 18.12l3.12-1.3a7 7 0 0 1 1.1-.34 3 3 0 0 1 1.07-.05 2 2 0 0 1 .94.36 2 2 0 0 1 .69.92 1.7 1.7 0 0 1 .14.58 2.15 2.15 0 0 1 0 .57 2.09 2.09 0 0 1-.13.52 1.66 1.66 0 0 1-.2.4 3.57 3.57 0 0 1 .56.07 1.61 1.61 0 0 1 .53.22 1.88 1.88 0 0 1 .49.41 2.9 2.9 0 0 1 .6 1.88 2.13 2.13 0 0 1-.37 1 3 3 0 0 1-.81.82 6.09 6.09 0 0 1-1.13.62l-3.26 1.35zm2.95 2.66l1.65-.68a1.51 1.51 0 0 0 .77-.63 1.08 1.08 0 0 0 0-.93 1 1 0 0 0-.63-.61 1.43 1.43 0 0 0-1 .09l-1.64.68zm1.45 3.48l1.75-.73a1.71 1.71 0 0 0 .92-.72 1.09 1.09 0 0 0 0-1 1.13 1.13 0 0 0-.71-.72 1.9 1.9 0 0 0-1.21.16l-1.69.7zM23.58 22.45l-1.58.66-3.33-8 1.58-.66zM24.08 12.83a9.25 9.25 0 0 1 1.85-.56 3.79 3.79 0 0 1 1.68.05 3.24 3.24 0 0 1 1.44.84A5.39 5.39 0 0 1 30.21 15a5.45 5.45 0 0 1 .48 2.12 3.21 3.21 0 0 1-.43 1.62A3.82 3.82 0 0 1 29.11 20a9.41 9.41 0 0 1-1.7.91l-2.39 1-3.32-8zm4.49 2.84a4 4 0 0 0-.84-1.34 2.16 2.16 0 0 0-1-.57 2.36 2.36 0 0 0-1.09 0 6.38 6.38 0 0 0-1.1.35l-.73.3L26.09 20l.74-.31a6.16 6.16 0 0 0 1-.53 2.57 2.57 0 0 0 .77-.77 2.2 2.2 0 0 0 .31-1.12 4 4 0 0 0-.34-1.6z" style="fill: #003369;"/></svg>
