<?xml version="1.0" encoding="UTF-8"?>
<svg xmlns="http://www.w3.org/2000/svg" aria-describedby="desc" aria-labelledby="title" viewBox="0 0 64 64"><path fill="none" stroke="#003369" stroke-miterlimit="10" stroke-width="2" d="M49 24a14.7 14.7 0 0 1 0 22.1m5.5-27a20.6 20.6 0 0 1 .1 31.9M30 24l-9 8h-6a1 1 0 0 0-1 1v6a1 1 0 0 0 1 1h6l9 8z" data-name="layer2" style="stroke: #003369;"/><path fill="none" stroke="#003369" stroke-miterlimit="10" stroke-width="2" d="M2 11v40a5 5 0 0 0 5 5h35V16H7A5 5 0 0 1 7 6h31v10" data-name="layer1" style="stroke: #003369;"/></svg>
