<?xml version="1.0" encoding="UTF-8"?>
<svg xmlns="http://www.w3.org/2000/svg" data-name="Ebene 1" viewBox="0 0 64 64"><path fill="none" stroke="#003369" stroke-miterlimit="10" stroke-width="2" d="M20 56.73v-4.79a2 2 0 0 0-1.17-1.82A16.54 16.54 0 0 0 12 48.73a17 17 0 0 0-6.86 1.4A2 2 0 0 0 4 52v4.78M40 56.73v-4.79a2 2 0 0 0-1.17-1.82A16.54 16.54 0 0 0 32 48.73a17 17 0 0 0-6.86 1.4A2 2 0 0 0 24 52v4.78M60 56.73v-4.79a2 2 0 0 0-1.17-1.82A16.54 16.54 0 0 0 52 48.73a17 17 0 0 0-6.86 1.4A2 2 0 0 0 44 52v4.78M20 41.73v-4.79a2 2 0 0 0-1.17-1.82A16.54 16.54 0 0 0 12 33.73a17 17 0 0 0-6.86 1.4A2 2 0 0 0 4 37v4.78M40 41.73v-4.79a2 2 0 0 0-1.17-1.82A16.54 16.54 0 0 0 32 33.73a17 17 0 0 0-6.86 1.4A2 2 0 0 0 24 37v4.78M60 41.73v-4.79a2 2 0 0 0-1.17-1.82A16.54 16.54 0 0 0 52 33.73a17 17 0 0 0-6.86 1.4A2 2 0 0 0 44 37v4.78M20 26.73v-4.79a2 2 0 0 0-1.17-1.82A16.54 16.54 0 0 0 12 18.73a17 17 0 0 0-6.86 1.4A2 2 0 0 0 4 22v4.78M40 26.73v-4.79a2 2 0 0 0-1.17-1.82A16.54 16.54 0 0 0 32 18.73a17 17 0 0 0-6.86 1.4A2 2 0 0 0 24 22v4.78M60 26.73v-4.79a2 2 0 0 0-1.17-1.82A16.54 16.54 0 0 0 52 18.73a17 17 0 0 0-6.86 1.4A2 2 0 0 0 44 22v4.78" style="stroke: #003369;"/><circle cx="51.66" cy="11.6" r="4.34" fill="none" stroke="#003369" stroke-miterlimit="10" stroke-width="2" style="stroke: #003369;"/><circle cx="31.37" cy="11.6" r="4.34" fill="none" stroke="#003369" stroke-miterlimit="10" stroke-width="2" style="stroke: #003369;"/><circle cx="12" cy="11.6" r="4.34" fill="none" stroke="#003369" stroke-miterlimit="10" stroke-width="2" style="stroke: #003369;"/><circle cx="51.66" cy="26.73" r="4.34" fill="none" stroke="#003369" stroke-miterlimit="10" stroke-width="2" style="stroke: #003369;"/><circle cx="31.37" cy="26.73" r="4.34" fill="none" stroke="#003369" stroke-miterlimit="10" stroke-width="2" style="stroke: #003369;"/><circle cx="12" cy="26.73" r="4.34" fill="none" stroke="#003369" stroke-miterlimit="10" stroke-width="2" style="stroke: #003369;"/><circle cx="51.66" cy="41.73" r="4.34" fill="none" stroke="#003369" stroke-miterlimit="10" stroke-width="2" style="stroke: #003369;"/><circle cx="31.37" cy="41.73" r="4.34" fill="none" stroke="#003369" stroke-miterlimit="10" stroke-width="2" style="stroke: #003369;"/><circle cx="12" cy="41.73" r="4.34" fill="none" stroke="#003369" stroke-miterlimit="10" stroke-width="2" style="stroke: #003369;"/></svg>
