<?xml version="1.0" encoding="UTF-8"?>
<svg xmlns="http://www.w3.org/2000/svg" data-name="Ebene 1" viewBox="0 0 64 64"><circle cx="32.23" cy="20.59" r="4.34" fill="none" stroke="#003369" stroke-miterlimit="10" stroke-width="2" style="stroke: #003369;"/><path fill="none" stroke="#003369" stroke-miterlimit="10" stroke-width="2" d="M45.11 21.79l-5.96 13.36v25.87" style="stroke: #003369;"/><path fill="none" stroke="#003369" stroke-miterlimit="10" stroke-width="2" d="M25 61V34.54l-7.67-15.47 6.93-7.81C25.81 8.84 30.43 7.62 31 11l-7.6 8.47 4.46 8.11h8.78l4.18-8.3-9-8.39c.69-1 2.75-3.86 6.39-1l8.47 8.47-1.5 3.38M32.23 61.02V49.23M42.29 13.27a4.34 4.34 0 1 1 4 5.93" style="stroke: #003369;"/><path fill="none" stroke="#003369" stroke-miterlimit="10" stroke-width="2" d="M45.62 21.89h5.09l4.19-8.3-9.06-8.39c.69-1 2.76-3.85 6.39-1l8.48 8.48-7.47 16.74V57M35.77 8.45l2.59-2.92c1.54-2.42 6.16-3.63 6.71-.22l-5.15 5.75M46.32 57V43.51M21.71 13.27a4.34 4.34 0 1 0-4 5.93" style="stroke: #003369;"/><path fill="none" stroke="#003369" stroke-miterlimit="10" stroke-width="2" d="M18.38 21.89h-5.09l-4.19-8.3 9.06-8.39c-.69-1-2.76-3.85-6.39-1l-8.48 8.49 7.47 16.73V57M28.23 8.45l-2.59-2.92c-1.54-2.42-6.16-3.63-6.71-.22l5.15 5.75M17.68 57V43.51" style="stroke: #003369;"/></svg>
