<?xml version="1.0" encoding="UTF-8"?>
<svg xmlns="http://www.w3.org/2000/svg" data-name="Ebene 1" viewBox="0 0 64 64"><circle cx="11.44" cy="18.24" r="4.34" fill="none" stroke="#003369" stroke-miterlimit="10" stroke-width="2" style="stroke: #003369;"/><circle cx="31.44" cy="18.24" r="4.34" fill="none" stroke="#003369" stroke-miterlimit="10" stroke-width="2" style="stroke: #003369;"/><circle cx="52" cy="18.24" r="4.34" fill="none" stroke="#003369" stroke-miterlimit="10" stroke-width="2" style="stroke: #003369;"/><circle cx="21.17" cy="11.71" r="4.34" fill="none" stroke="#003369" stroke-miterlimit="10" stroke-width="2" style="stroke: #003369;"/><circle cx="41.72" cy="11.71" r="4.34" fill="none" stroke="#003369" stroke-miterlimit="10" stroke-width="2" style="stroke: #003369;"/><path fill="none" stroke="#003369" stroke-miterlimit="10" stroke-width="2" d="M32 56.63v-14M27 56.63v-13a3 3 0 0 1-3-3V28.85A2 2 0 0 1 25.18 27 17.05 17.05 0 0 1 32 25.63 16.73 16.73 0 0 1 38.83 27 2 2 0 0 1 40 28.83v11.8a3 3 0 0 1-3 3v13M52 56.63v-14M47 56.63v-13a3 3 0 0 1-3-3V28.85A2 2 0 0 1 45.18 27 17.05 17.05 0 0 1 52 25.63 16.73 16.73 0 0 1 58.83 27 2 2 0 0 1 60 28.83v11.8a3 3 0 0 1-3 3v13M12 56.63v-14M7 56.63v-13a3 3 0 0 1-3-3V28.85A2 2 0 0 1 5.18 27 17.05 17.05 0 0 1 12 25.63 16.73 16.73 0 0 1 18.83 27 2 2 0 0 1 20 28.83v11.8a3 3 0 0 1-3 3v13" style="stroke: #003369;"/></svg>
