<?xml version="1.0" encoding="UTF-8"?>
<svg xmlns="http://www.w3.org/2000/svg" aria-describedby="desc" aria-labelledby="title" viewBox="0 0 64 64"><path fill="none" stroke="#003369" stroke-miterlimit="10" stroke-width="2" d="M42 44h7a13 13 0 1 0 0-26h-.5a17 17 0 0 0-32.3 4.4A11 11 0 1 0 13 44h9" data-name="layer2" style="stroke: #003369;"/><path fill="none" stroke="#003369" stroke-miterlimit="10" stroke-width="2" d="M38 53.4a6.2 6.2 0 0 0-.3-1.5C36.5 47.6 32 42 32 42s-4.5 5.6-5.7 9.9a6.2 6.2 0 0 0-.3 1.5v.5a6 6 0 1 0 12 0v-.5z" data-name="layer1" style="stroke: #003369;"/></svg>
