<?xml version="1.0" encoding="UTF-8"?>
<svg xmlns="http://www.w3.org/2000/svg" data-name="Layer 1" viewBox="0 0 64 64"><circle cx="32" cy="32" r="30.25" fill="none" stroke="#003369" stroke-miterlimit="10" stroke-width="2" transform="rotate(-76.89 32.004 31.998)" style="stroke: #003369;"/><path fill="none" stroke="#003369" stroke-miterlimit="10" stroke-width="2" d="M21.55 21.55l31.84 31.84" style="stroke: #003369;"/><circle cx="42.72" cy="19.03" r="2.6" fill="none" stroke="#003369" stroke-miterlimit="10" stroke-width="2" style="stroke: #003369;"/><path fill="none" stroke="#003369" stroke-miterlimit="10" stroke-width="2" d="M18.86 18.94a2.6 2.6 0 1 1 2.69 2.69M18.86 19v-.09M10.61 10.61l10.94 10.94M24.1 24.11h-4.45a3.26 3.26 0 0 0-3.17 3.35v5.44A2.51 2.51 0 0 0 19 35.41h0v8.22M40.63 24.11h3.7a3.27 3.27 0 0 1 3.18 3.35v5.44A2.51 2.51 0 0 1 45 35.41h0V45M27.75 47.66V36h0a3.06 3.06 0 0 1-3.07-3.07v-6.24a4 4 0 0 1 3.84-4.06h7a4 4 0 0 1 3.83 4.06v6.15a3.16 3.16 0 0 1-3.2 3.16h0v11.66M32.04 47.66v-9.34" style="stroke: #003369;"/><circle cx="31.99" cy="16.43" r="3.71" fill="none" stroke="#003369" stroke-miterlimit="10" stroke-width="2" style="stroke: #003369;"/></svg>
