<?xml version="1.0" encoding="UTF-8"?>
<svg xmlns="http://www.w3.org/2000/svg" data-name="Layer 1" viewBox="0 0 64 64"><path fill="#003369" d="M13.26 24.74h5.65a10.1 10.1 0 0 1 1.9.17 5.07 5.07 0 0 1 1.69.6 3.51 3.51 0 0 1 1.23 1.16 3.41 3.41 0 0 1 .47 1.85 3.32 3.32 0 0 1-.15 1 4.27 4.27 0 0 1-.39.87 4.86 4.86 0 0 1-.53.71 3.08 3.08 0 0 1-.58.49 5.12 5.12 0 0 1 .82.47 2.92 2.92 0 0 1 .69.67 3.39 3.39 0 0 1 .48 1 4.19 4.19 0 0 1 .18 1.27 4.08 4.08 0 0 1-.45 2 3.84 3.84 0 0 1-1.21 1.32 5.19 5.19 0 0 1-1.78.74 9.73 9.73 0 0 1-2.13.23h-5.89zm2.86 6h3a2.4 2.4 0 0 0 1.59-.48 1.78 1.78 0 0 0 .57-1.45 1.64 1.64 0 0 0-.58-1.34 2.4 2.4 0 0 0-1.61-.47h-3zm0 6.29h3.17a2.91 2.91 0 0 0 1.88-.52 1.87 1.87 0 0 0 .62-1.51 1.9 1.9 0 0 0-.64-1.55 3.08 3.08 0 0 0-2-.53h-3.03zM31.29 24.48a5.5 5.5 0 0 1 3.47 1 3.44 3.44 0 0 1 1.3 2.9 4.92 4.92 0 0 1-.48 2.07 9 9 0 0 1-1.41 2.11 17.76 17.76 0 0 1-2.23 2.16 34.73 34.73 0 0 1-3 2.22h7.46v2.32H25.72V37c1.16-.94 2.21-1.8 3.14-2.59a30.21 30.21 0 0 0 2.39-2.2 10.25 10.25 0 0 0 1.5-1.93 3.55 3.55 0 0 0 .52-1.78 1.94 1.94 0 0 0-.56-1.5 2.21 2.21 0 0 0-1.58-.52 2.74 2.74 0 0 0-.9.15 2.1 2.1 0 0 0-.79.49 2.4 2.4 0 0 0-.57.9 4 4 0 0 0-.21 1.37H26a5.15 5.15 0 0 1 .36-2 4.48 4.48 0 0 1 1.07-1.56 4.65 4.65 0 0 1 1.69-1 6.37 6.37 0 0 1 2.17-.35zM50.74 34.49a5.56 5.56 0 0 1-.65 2 5.64 5.64 0 0 1-1.33 1.59 6.12 6.12 0 0 1-1.92 1 7.26 7.26 0 0 1-2.39.37 7.43 7.43 0 0 1-2.88-.45 5.69 5.69 0 0 1-2.14-1.52 6.68 6.68 0 0 1-1.32-2.39 10.33 10.33 0 0 1-.45-3.15 9.38 9.38 0 0 1 .48-3.1 6.57 6.57 0 0 1 1.37-2.35A6.12 6.12 0 0 1 41.68 25a7.35 7.35 0 0 1 2.85-.52 7.23 7.23 0 0 1 2.34.35 5.89 5.89 0 0 1 1.87 1 5.48 5.48 0 0 1 1.31 1.56 6.11 6.11 0 0 1 .69 2.06H48a4.33 4.33 0 0 0-.55-1.28 3.56 3.56 0 0 0-.81-.83 2.93 2.93 0 0 0-1-.45 4.83 4.83 0 0 0-1.15-.13 3.56 3.56 0 0 0-1.53.33 3.25 3.25 0 0 0-1.23 1 5 5 0 0 0-.83 1.63 7.45 7.45 0 0 0-.3 2.22 7.9 7.9 0 0 0 .3 2.29 5.31 5.31 0 0 0 .82 1.67 3.49 3.49 0 0 0 1.2 1 3.37 3.37 0 0 0 1.47.34 4.85 4.85 0 0 0 1.22-.15 3.15 3.15 0 0 0 1-.48 3 3 0 0 0 .81-.85 4 4 0 0 0 .58-1.27z" style="fill: #003369;"/><path fill="none" stroke="#003369" stroke-miterlimit="10" stroke-width="2" d="M3.8 18.33h56.39v27.34H3.8z" style="stroke: #003369;"/></svg>
