<?xml version="1.0" encoding="UTF-8"?>
<svg xmlns="http://www.w3.org/2000/svg" data-name="Layer 1" viewBox="0 0 64 64"><path fill="none" stroke="#003369" stroke-miterlimit="10" stroke-width="2" d="M23.64 53.16v3.08a1.89 1.89 0 0 1-1.89 1.89H17a1.89 1.89 0 0 1-1.89-1.89v-4M48.93 52.27v4A1.89 1.89 0 0 1 47 58.13h-4.69a1.89 1.89 0 0 1-1.89-1.89v-3.08" style="stroke: #003369;"/><path fill="none" stroke="#003369" stroke-miterlimit="10" stroke-width="2" d="M13 45v4.59a2.72 2.72 0 0 0 2.73 2.72h32.5A2.72 2.72 0 0 0 51 49.55V45zM13.04 9.17L1.89 5.87v35.89l11.15 3.2V9.17zM50.96 9.17l11.15-3.3v35.89l-11.15 3.2V9.17zM13.04 9.17h37.92M18.95 33.17H31.9v11.79H18.95zM31.9 33.17h12.95v11.79H31.9zM25.43 21.37h12.95v11.79H25.43z" style="stroke: #003369;"/></svg>
