<?xml version="1.0" encoding="UTF-8"?>
<svg xmlns="http://www.w3.org/2000/svg" aria-describedby="desc" aria-labelledby="title" viewBox="0 0 64 64"><path fill="none" stroke="#003369" stroke-width="2" d="M8.6 61A4 4 0 0 1 3 61a4 4 0 0 1 0-5.7l9.9-9.9a4 4 0 0 1 5.7 0 4 4 0 0 1 0 5.7z" data-name="layer2" style="stroke: #003369;"/><path fill="none" stroke="#003369" stroke-width="2" d="M18.5 45.5L58.1 5.9m0 19.8a14 14 0 1 0-23-14.9l-12 30.1 30.2-12a13.9 13.9 0 0 0 4.8-3.2z" data-name="layer1" style="stroke: #003369;"/><path fill="none" stroke="#003369" stroke-width="2" d="M53.9 21.5C59.3 16 61.2 9 58.1 5.9S48 4.7 42.5 10.1a23.1 23.1 0 0 0-3.5 4.5L23 40.9 49.4 25a23.2 23.2 0 0 0 4.5-3.5z" data-name="layer1" style="stroke: #003369;"/></svg>
