<?xml version="1.0" encoding="UTF-8"?>
<svg xmlns="http://www.w3.org/2000/svg" aria-describedby="desc" aria-labelledby="title" viewBox="0 0 64 64"><path fill="none" stroke="#003369" stroke-miterlimit="10" stroke-width="2" d="M47.475 31.994l13.364 13.365a3.991 3.991 0 0 1 0 5.627l-9.848 9.848a3.991 3.991 0 0 1-5.627 0L32 47.469M16.525 31.994L3.161 18.63a3.991 3.991 0 0 1 0-5.627l9.848-9.848a3.991 3.991 0 0 1 5.627 0L32 16.52" data-name="layer2" style="stroke: #003369;"/><rect width="21.885" height="67.644" x="21.058" y="-1.827" fill="none" stroke="#003369" stroke-miterlimit="10" stroke-width="2" data-name="layer1" rx="4" ry="4" transform="rotate(45 32 31.995)" style="stroke: #003369;"/><path fill="none" stroke="#003369" stroke-miterlimit="10" stroke-width="2" d="M28.186 43.656l-7.803-7.804m15.431-15.519l7.847 7.848" data-name="layer1" style="stroke: #003369;"/><circle cx="48.263" cy="8.66" r="1" fill="none" stroke="#003369" stroke-miterlimit="10" stroke-width="2" data-name="layer1" transform="rotate(-45 48.264 8.66)" style="stroke: #003369;"/><circle cx="55.335" cy="15.731" r="1" fill="none" stroke="#003369" stroke-miterlimit="10" stroke-width="2" data-name="layer1" transform="rotate(-45 55.335 15.73)" style="stroke: #003369;"/><circle cx="41.192" cy="15.731" r="1" fill="none" stroke="#003369" stroke-miterlimit="10" stroke-width="2" data-name="layer1" transform="rotate(-45 41.192 15.732)" style="stroke: #003369;"/><circle cx="48.263" cy="15.731" r="1" fill="none" stroke="#003369" stroke-miterlimit="10" stroke-width="2" data-name="layer1" transform="rotate(-45 48.264 15.73)" style="stroke: #003369;"/><circle cx="48.263" cy="22.802" r="1" fill="none" stroke="#003369" stroke-miterlimit="10" stroke-width="2" data-name="layer1" transform="rotate(-45 48.264 22.802)" style="stroke: #003369;"/><circle cx="16.444" cy="40.48" r="1" fill="none" stroke="#003369" stroke-miterlimit="10" stroke-width="2" data-name="layer1" transform="rotate(-45 16.444 40.48)" style="stroke: #003369;"/><circle cx="23.515" cy="47.551" r="1" fill="none" stroke="#003369" stroke-miterlimit="10" stroke-width="2" data-name="layer1" transform="rotate(-45 23.515 47.55)" style="stroke: #003369;"/><circle cx="9.373" cy="47.551" r="1" fill="none" stroke="#003369" stroke-miterlimit="10" stroke-width="2" data-name="layer1" transform="rotate(-45 9.373 47.55)" style="stroke: #003369;"/><circle cx="16.444" cy="47.551" r="1" fill="none" stroke="#003369" stroke-miterlimit="10" stroke-width="2" data-name="layer1" transform="rotate(-45 16.444 47.55)" style="stroke: #003369;"/><circle cx="16.444" cy="54.622" r="1" fill="none" stroke="#003369" stroke-miterlimit="10" stroke-width="2" data-name="layer1" transform="rotate(-45 16.444 54.622)" style="stroke: #003369;"/></svg>
