<?xml version="1.0" encoding="UTF-8"?>
<svg xmlns="http://www.w3.org/2000/svg" aria-describedby="desc" aria-labelledby="title" viewBox="0 0 64 64"><path fill="none" stroke="#003369" stroke-miterlimit="10" stroke-width="2" d="M10.3 29l-2.2-6.1a2.4 2.4 0 0 1 1.4-3.1L50.1 5.1a2.4 2.4 0 0 1 3.1 1.4l8.7 24a2.4 2.4 0 0 1-1.4 3.1L50 37.4m-39.9-9.2L55 11.8m-8.3 9.8l4.5-1.6" data-name="layer2" style="stroke: #003369;"/><rect width="48" height="30" x="2" y="29" fill="none" stroke="#003369" stroke-miterlimit="10" stroke-width="2" data-name="layer1" rx="2.4" ry="2.4" style="stroke: #003369;"/><path fill="none" stroke="#003369" stroke-miterlimit="10" stroke-width="2" d="M10 43h14m12-6h6M10 51h2m8 0h2m8 0h2m8 0h2" data-name="layer1" style="stroke: #003369;"/></svg>
