<?xml version="1.0" encoding="UTF-8"?>
<svg xmlns="http://www.w3.org/2000/svg" data-name="Layer 1" viewBox="0 0 64 64"><path fill="none" stroke="#003369" stroke-miterlimit="10" stroke-width="2" d="M62.59 15.4v33.2M60.58 15.4v33.2M56.88 15.4v33.2M54.19 15.4v33.2M52.51 15.4v33.2M55.54 15.4v33.2M47.47 15.4v33.2M37.87 15.4v33.2M29.86 15.4v33.2M4.44 15.4v33.2M26.18 15.4v33.2M28.02 15.4v33.2M28.94 15.4v33.2M43.44 15.4v33.2M24.34 15.4v33.2M19.91 15.4v33.2M33.32 15.4v33.2M16.23 15.4v33.2M15.24 15.4v33.2M43.44 15.4v33.2M10.58 15.4v33.2M8.22 15.4v33.2M12.16 15.4v33.2M4.81 15.4v33.2M7.7 15.4v33.2M3.11 15.4v33.2M1.41 15.4v33.2M45.46 15.4v33.2M41.42 15.4v33.2" style="stroke: #003369;"/></svg>
