<?xml version="1.0" encoding="UTF-8"?>
<svg xmlns="http://www.w3.org/2000/svg" data-name="Layer 1" viewBox="0 0 64 64"><path fill="#003369" d="M57 47H1V17h56v8h6v14h-6zM3 45h52v-8h6V27h-6v-8H3z" style="fill: #003369;"/><path fill="#003369" d="M8 24h7.44v16H8z" style="fill: #003369;"/><path fill="#003369" d="M16.44 41H7V23h9.44zM9 39h5.44V25H9zM19.52 24H27v16h-7.48z" style="fill: #003369;"/><path fill="#003369" d="M28 41h-9.48V23H28zm-7.44-2H26V25h-5.48zM31 24h7.44v16H31z" style="fill: #003369;"/><path fill="#003369" d="M39.48 41H30V23h9.44zM32 39h5.44V25H32zM51 41h-9.44V23H51zm-7.44-2H49V25h-5.44z" style="fill: #003369;"/></svg>
