<?xml version="1.0" encoding="UTF-8"?>
<svg xmlns="http://www.w3.org/2000/svg" aria-describedby="desc" aria-labelledby="title" viewBox="0 0 64 64"><path fill="none" stroke="#003369" stroke-width="2" d="M48 22.7a8 8 0 0 0-4-14.9 7.9 7.9 0 0 0-2.3.4 6 6 0 0 0-9.1-3.1A11 11 0 0 0 15.2 8H15a9 9 0 0 0-3 17.5" data-name="layer2" style="stroke: #003369;"/><path fill="none" stroke="#003369" stroke-width="2" d="M48 22v37a3 3 0 0 1-3 3H15a3 3 0 0 1-3-3V22zM30 32v20M20 32v20m20-20v20m8-26h4a6 6 0 0 1 6 6v12a6 6 0 0 1-6 6h-4" data-name="layer1" style="stroke: #003369;"/><path fill="none" stroke="#003369" stroke-width="2" d="M48 46h4a2 2 0 0 0 2-2V32a2 2 0 0 0-2-2h-4" data-name="layer1" style="stroke: #003369;"/></svg>
