<?xml version="1.0" encoding="UTF-8"?>
<svg xmlns="http://www.w3.org/2000/svg" data-name="Layer 1" viewBox="0 0 64 64"><path fill="none" stroke="#003369" stroke-miterlimit="10" stroke-width="2" d="M18.68 15.09H8.12V4.53m.26 10.56a28.53 28.53 0 1 1 23 45.44M25 59.82A28.3 28.3 0 0 1 17.64 57m-4.28-2.89a28.3 28.3 0 0 1-5-5.22m-2.6-4.27a27.28 27.28 0 0 1-1.67-4.17" style="stroke: #003369;"/><path fill="#003369" d="M22 43.12V27.25h-4.56v-2.76c.76 0 1.43-.06 2-.11A5.94 5.94 0 0 0 21 24a3.2 3.2 0 0 0 1.14-.77 4.54 4.54 0 0 0 .86-1.34h3.08v21.23zM37 21.51A8.07 8.07 0 0 1 42.11 23 5 5 0 0 1 44 27.22a7.1 7.1 0 0 1-.7 3 13.23 13.23 0 0 1-2 3.09 26.7 26.7 0 0 1-3.3 3.17 49.92 49.92 0 0 1-4.38 3.24h10.87v3.4h-15.6v-3.28q2.55-2.06 4.59-3.78A46.68 46.68 0 0 0 37 32.84 14.76 14.76 0 0 0 39.16 30a5.16 5.16 0 0 0 .76-2.59 2.84 2.84 0 0 0-.81-2.17 3.32 3.32 0 0 0-2.32-.76 4.25 4.25 0 0 0-1.32.22 3.1 3.1 0 0 0-1.15.72 3.46 3.46 0 0 0-.82 1.32 5.55 5.55 0 0 0-.31 2h-3.92a7.31 7.31 0 0 1 .52-3 6.68 6.68 0 0 1 1.57-2.29A6.85 6.85 0 0 1 33.82 22a9.65 9.65 0 0 1 3.18-.49z" style="fill: #003369;"/></svg>
