<?xml version="1.0" encoding="UTF-8"?>
<svg xmlns="http://www.w3.org/2000/svg" data-name="Layer 1" viewBox="0 0 64 64"><path fill="none" stroke="#003369" stroke-miterlimit="10" stroke-width="2" d="M18.68 15.09H8.12V4.53m.26 10.56a28.53 28.53 0 1 1 23 45.44M25 59.82A28.3 28.3 0 0 1 17.64 57m-4.28-2.89a28.3 28.3 0 0 1-5-5.22m-2.6-4.27a27.28 27.28 0 0 1-1.67-4.17" style="stroke: #003369;"/><path fill="#003369" d="M21.49 41.87V26h-4.57v-2.76c.76 0 1.43 0 2-.11a6 6 0 0 0 1.52-.35 3.2 3.2 0 0 0 1.15-.78 4.54 4.54 0 0 0 .86-1.37h3.08v21.24zM37.42 42.25a8.18 8.18 0 0 1-3.74-.82A7.51 7.51 0 0 1 31 39.14a10.34 10.34 0 0 1-1.61-3.48 17.23 17.23 0 0 1-.54-4.45 17 17 0 0 1 .54-4.42A10.2 10.2 0 0 1 31 23.32a7.43 7.43 0 0 1 2.66-2.26 8.31 8.31 0 0 1 3.74-.8 8.19 8.19 0 0 1 3.7.8 7.43 7.43 0 0 1 2.66 2.26 10.21 10.21 0 0 1 1.62 3.47 17 17 0 0 1 .54 4.42 17.23 17.23 0 0 1-.54 4.45 10.36 10.36 0 0 1-1.62 3.48 7.51 7.51 0 0 1-2.66 2.29 8.07 8.07 0 0 1-3.68.82zm0-3a3.54 3.54 0 0 0 3.28-2.08 12.73 12.73 0 0 0 1.11-5.91 12.46 12.46 0 0 0-1.11-5.87 3.67 3.67 0 0 0-6.58 0A12.33 12.33 0 0 0 33 31.21a12.59 12.59 0 0 0 1.12 5.91 3.56 3.56 0 0 0 3.3 2.08z" style="fill: #003369;"/></svg>
