<?xml version="1.0" encoding="UTF-8"?>
<svg xmlns="http://www.w3.org/2000/svg" data-name="Layer 1" viewBox="0 0 64 64"><path fill="none" stroke="#003369" stroke-width="2" d="M49.6 28C56.8 29.6 62 34.9 62 41.1a12.41 12.41 0 0 1-5.1 9.7l3.1 7.7-10.3-4.3a21.21 21.21 0 0 1-4.7.5c-8.2 0-15.1-4.7-16.7-10.9" style="stroke: #003369;"/><path fill="none" stroke="#003369" stroke-width="2" d="M4 49.5l15.4-6.3a29.9 29.9 0 0 0 6.6.7c13.3 0 24-8.6 24-19.2S39.3 5.5 26 5.5 2 14.1 2 24.7C2 30.1 4.8 35 9.3 38.5z" style="stroke: #003369;"/><path fill="#003369" d="M14.55 29a1.82 1.82 0 0 0 1.62-.89 4.36 4.36 0 0 0 .58-2.41 2.64 2.64 0 0 1-1 .74 3.51 3.51 0 0 1-1.51.3 3.88 3.88 0 0 1-1.41-.26 3.35 3.35 0 0 1-2-1.89 4.07 4.07 0 0 1-.24-1.59 3.72 3.72 0 0 1 .3-1.52 3.31 3.31 0 0 1 .84-1.17 3.77 3.77 0 0 1 1.27-.76 5 5 0 0 1 1.63-.26 4 4 0 0 1 1.88.41 3.57 3.57 0 0 1 1.3 1.14 5.33 5.33 0 0 1 .76 1.71 8.94 8.94 0 0 1 .24 2.12 10.19 10.19 0 0 1-.23 2.24 5.49 5.49 0 0 1-.76 1.87 3.91 3.91 0 0 1-1.36 1.29 4.1 4.1 0 0 1-2.06.48 4 4 0 0 1-1.54-.27 3.66 3.66 0 0 1-1.1-.71 2.9 2.9 0 0 1-.68-1 3.19 3.19 0 0 1-.27-1.06h2a1.43 1.43 0 0 0 .55 1 1.83 1.83 0 0 0 1.19.49zm2.07-6a2.41 2.41 0 0 0-.15-.87 2 2 0 0 0-.42-.68 1.93 1.93 0 0 0-.63-.42 2 2 0 0 0-.78-.15 1.85 1.85 0 0 0-1.4.57 2.1 2.1 0 0 0-.55 1.55 2.41 2.41 0 0 0 .15.87 2 2 0 0 0 .4.66 1.69 1.69 0 0 0 .62.43 2.1 2.1 0 0 0 1.56 0 1.81 1.81 0 0 0 .63-.43 1.87 1.87 0 0 0 .42-.66 2.41 2.41 0 0 0 .15-.87zM20.23 27.25v-1.8h5v1.8zM27.64 30.36v-8.13H25.3v-1.41c.39 0 .74 0 1-.06a2.8 2.8 0 0 0 .78-.18 1.69 1.69 0 0 0 .59-.39 2.47 2.47 0 0 0 .44-.71h1.57v10.88zM35.7 20.88a1.84 1.84 0 0 0-1.62.88 4.38 4.38 0 0 0-.59 2.42 2.68 2.68 0 0 1 1-.74 3.45 3.45 0 0 1 1.49-.3 4 4 0 0 1 1.42.25 3.26 3.26 0 0 1 1.18.73 3.48 3.48 0 0 1 .8 1.17 4.07 4.07 0 0 1 .29 1.57 3.8 3.8 0 0 1-.3 1.53 3.36 3.36 0 0 1-.84 1.16 3.77 3.77 0 0 1-1.28.74 4.76 4.76 0 0 1-1.63.26 3.92 3.92 0 0 1-1.88-.41A3.48 3.48 0 0 1 32.43 29a5.24 5.24 0 0 1-.76-1.71 8.87 8.87 0 0 1-.25-2.12 10.19 10.19 0 0 1 .24-2.24 5.48 5.48 0 0 1 .75-1.87 3.82 3.82 0 0 1 1.36-1.29 4.63 4.63 0 0 1 3.61-.21 3.3 3.3 0 0 1 1.1.7 3.16 3.16 0 0 1 .68 1 3.52 3.52 0 0 1 .27 1.06h-2a1.48 1.48 0 0 0-.56-1 1.8 1.8 0 0 0-1.17-.44zm-2.09 6a2.48 2.48 0 0 0 .15.89 1.91 1.91 0 0 0 .42.67 2 2 0 0 0 .63.44 2.07 2.07 0 0 0 .8.15 2 2 0 0 0 .78-.15 1.65 1.65 0 0 0 .61-.43 2.2 2.2 0 0 0 .41-.68 2.48 2.48 0 0 0 .15-.89 2.41 2.41 0 0 0-.15-.87 2 2 0 0 0-.41-.66 1.65 1.65 0 0 0-.61-.43 2 2 0 0 0-.78-.15 2.07 2.07 0 0 0-.8.15 1.81 1.81 0 0 0-.63.43 1.87 1.87 0 0 0-.42.66 2.41 2.41 0 0 0-.15.83z" style="fill: #003369;"/></svg>
