<?xml version="1.0" encoding="UTF-8"?>
<svg xmlns="http://www.w3.org/2000/svg" viewBox="0 0 64 64"><path fill="none" stroke="#003369" stroke-linecap="round" stroke-linejoin="round" stroke-width="2" d="M8.2 20.6c.1-1 1-1.8 2-1.7.9.1 1.6.8 1.7 1.7M54.1 20.6c0-1-.8-1.8-1.8-1.8h0c-.6 0-1.1.3-1.5.7-.3.5-.5 1.1-.5 1.8" style="stroke: #003369;"/><path fill="none" stroke="#003369" stroke-linecap="round" stroke-linejoin="round" stroke-width="2" d="M54.1 20.6c-.1 3.8-.5 7.6-1.3 11.4-1.1 4.9-3.8 11.6-12.6 20.4l-2.6 2.3v9.2h-13v-9.2L22 52.4C13.4 43.6 10.6 36.9 9.5 32c-.7-3.8-1.2-7.6-1.3-11.4" style="stroke: #003369;"/><circle cx="24.2" cy="19.1" r="1.8" fill="none" stroke="#003369" stroke-miterlimit="10" stroke-width="2" style="stroke: #003369;"/><path fill="none" stroke="#003369" stroke-miterlimit="10" stroke-width="2" d="M37.3 8.9c-.6-1-1.6-1.6-2.8-1.6h-7.1c-1.2 0-2.3.7-2.9 1.7M48.3 21.9v.3c.1-.3.1-.5.1-.8v-5.8c0-.3 0-.6-.1-.9-.4-1.8-1.9-3.3-3.7-3.5" style="stroke: #003369;"/><path fill="none" stroke="#003369" stroke-miterlimit="10" stroke-width="2" d="M50 22.6C53 1.3 31.1 2.8 31.1 2.8S9.2 1.3 12.2 22.6M48.4 15.6v5.8c0 .3 0 .5-.1.8-.2 9.3-7.8 14.7-17.1 14.7-9 0-16.3-4.8-17.1-13.6-.3-.6-.4-1.2-.4-1.9v-5.7-.3c.2-2.1 1.9-3.9 4-4.1" style="stroke: #003369;"/><path fill="none" stroke="#003369" stroke-miterlimit="10" stroke-width="2" d="M17.7 11.3h6.5v-.7c0-.5.1-1 .4-1.5-.2.5-.4 1-.4 1.5v.7h-6.5m26.8-.1H37.8v-.7c0-.6-.2-1.2-.5-1.7.3.5.5 1.1.5 1.7v.7H44.5M14.1 23.3c.7 1.5 2.2 2.5 4 4.2h7.2c2.4-1.7 4.4-3.6 4.4-6.1v-5.7-.5h2.7v6.2c0 2.4 2 4.4 4.4 6.1H44c2.2-1.7 4-3.2 4.3-5.3v-.3" style="stroke: #003369;"/><circle cx="24.2" cy="19.1" r="1.8" fill="none" stroke="#003369" stroke-miterlimit="10" stroke-width="2" style="stroke: #003369;"/><path fill="none" stroke="#003369" stroke-miterlimit="10" stroke-width="2" d="M28.8 19.1c0 2.5-2 4.6-4.6 4.6M24.2 14.5c2.5 0 4.6 2 4.6 4.5 0 0 0 0 0 0M24.2 23.6c-2.5-.1-4.5-2.3-4.4-4.8.1-2.4 2-4.2 4.4-4.4" style="stroke: #003369;"/><path fill="none" stroke="#003369" stroke-miterlimit="10" stroke-width="2" d="M28.8 19.1c0-2.5-2-4.6-4.6-4.6 0 0 0 0 0 0M24.2 23.6c2.5 0 4.6-2 4.6-4.6M24.2 14.5c-2.5.1-4.5 2.3-4.4 4.8.1 2.4 2 4.2 4.4 4.4" style="stroke: #003369;"/><circle cx="37.8" cy="19.1" r="1.8" fill="none" stroke="#003369" stroke-miterlimit="10" stroke-width="2" style="stroke: #003369;"/><circle cx="37.8" cy="19.1" r="1.8" fill="none" stroke="#003369" stroke-miterlimit="10" stroke-width="2" style="stroke: #003369;"/><path fill="none" stroke="#003369" stroke-miterlimit="10" stroke-width="2" d="M42.4 19.1c0 2.5-2 4.6-4.6 4.6M37.8 14.5c2.5 0 4.6 2 4.6 4.6M37.8 23.6c-2.5.1-4.7-1.8-4.8-4.4-.1-2.5 1.8-4.7 4.4-4.8h.4M42.4 19.1c0-2.5-2-4.6-4.6-4.6M37.8 23.6c2.5 0 4.6-2 4.6-4.6" style="stroke: #003369;"/><path fill="none" stroke="#003369" stroke-miterlimit="10" stroke-width="2" d="M37.8 14.5c-2.5-.1-4.7 1.8-4.8 4.4s1.8 4.7 4.4 4.8h.4M6 19.8h2.2v5.1H6" style="stroke: #003369;"/><path fill="none" stroke="#003369" stroke-linecap="round" stroke-linejoin="round" stroke-width="2" d="M3 17.9h1.8c.6 0 1 .4 1 1v6.6c0 .6-.4 1-1 1H3c-.6 0-1-.4-1-1v-6.6c0-.6.4-1 1-1z" style="stroke: #003369;"/><path fill="none" stroke="#003369" stroke-miterlimit="10" stroke-width="2" d="M56.7 19.8h-2.2v5.1h2.2" style="stroke: #003369;"/><path fill="none" stroke="#003369" stroke-linecap="round" stroke-linejoin="round" stroke-width="2" d="M59.8 26.5H58c-.6 0-1-.4-1-1v-6.6c0-.6.4-1 1-1h1.8c.6 0 1 .4 1 1v6.6c0 .5-.5 1-1 1zM12.3 22.6S10.7 43.1 31 51.9M49.9 22.6s1.6 20.5-18.6 29.3" style="stroke: #003369;"/></svg>
