<?xml version="1.0" encoding="UTF-8"?>
<svg xmlns="http://www.w3.org/2000/svg" aria-describedby="desc" aria-labelledby="title" viewBox="0 0 64 64"><path fill="none" stroke="#003369" stroke-miterlimit="10" stroke-width="2" d="M28 42V16.5A7.5 7.5 0 0 0 20.5 9a7.7 7.7 0 0 0-6.7 4.1l-.3.6L3 37m33 5V16.5A7.5 7.5 0 0 1 43.5 9a7.7 7.7 0 0 1 6.7 4.1l.3.6L61 37M28 17.8a10 10 0 0 1 7.9 0m-7.9 12a10 10 0 0 1 7.9 0" data-name="layer2" style="stroke: #003369;"/><circle cx="15" cy="42" r="13" fill="none" stroke="#003369" stroke-miterlimit="10" stroke-width="2" data-name="layer1" style="stroke: #003369;"/><path fill="none" stroke="#003369" stroke-miterlimit="10" stroke-width="2" d="M22 42a7 7 0 0 1-7 7m41-7a7 7 0 0 1-7 7" data-name="layer1" style="stroke: #003369;"/><circle cx="49" cy="42" r="13" fill="none" stroke="#003369" stroke-miterlimit="10" stroke-width="2" data-name="layer1" style="stroke: #003369;"/></svg>
