<?xml version="1.0" encoding="UTF-8"?>
<svg xmlns="http://www.w3.org/2000/svg" aria-describedby="desc" aria-labelledby="title" viewBox="0 0 64 64"><path fill="none" stroke="#003369" stroke-miterlimit="10" stroke-width="2" d="M26 31h7a4.5 4.5 0 0 0 4.7-4.4 4.6 4.6 0 0 0-4.6-4.6H26v20h8a4.7 4.7 0 0 0 5-5 5.8 5.8 0 0 0-6-6m-5-9v-4m6 4v-4m-6 28v-4m6 4v-4" data-name="layer2" style="stroke: #003369;"/><path fill="none" stroke="#003369" stroke-miterlimit="10" stroke-width="2" d="M54 32a8 8 0 0 1 8-8V14H2v10a8 8 0 1 1 0 16v10h60V40a8 8 0 0 1-8-8z" data-name="layer1" style="stroke: #003369;"/></svg>
