<?xml version="1.0" encoding="UTF-8"?>
<svg xmlns="http://www.w3.org/2000/svg" aria-describedby="desc" aria-labelledby="title" viewBox="0 0 64 64"><path fill="none" stroke="#003369" stroke-width="2" d="M9 46.001l-5.998-14H28L22 22h24.002L52 30l8.777 2.982c1.21.411 1.357 2.057.098 3.32l-8.11 8.14" data-name="layer2" style="stroke: #003369;"/><path fill="none" stroke="#003369" stroke-width="2" d="M31.879 22l5.039 8H52" data-name="layer2" style="stroke: #003369;"/><path fill="none" stroke="#003369" stroke-width="2" d="M18 43.999c-4 0-4 2.001-8 2.001s-4-2.001-8-2.001m32 0c-4 0-4 2.001-8 2.001s-4-2.001-8-2.001m32 0c-4 0-4 2.001-8 2.001s-4-2.001-8-2.001m28.002 1A7.758 7.758 0 0 1 58 46c-4 0-4-2.001-8-2.001" data-name="layer1" style="stroke: #003369;"/></svg>
