<?xml version="1.0" encoding="UTF-8"?>
<svg xmlns="http://www.w3.org/2000/svg" data-name="Ebene 1" viewBox="0 0 64 64"><path fill="none" stroke="#003369" stroke-miterlimit="10" stroke-width="2" d="M43.72 7.14h4.04v17.84H16.24V7.14h3.61M31.83 24.98v36.21M22.11 61.19l9.72-8.65 9.73 8.65" style="stroke: #003369;"/><path fill="none" stroke="#003369" stroke-miterlimit="10" stroke-width="2" d="M42.65 2.81a28.26 28.26 0 0 0-10.44 2l-.38.19-.38-.16A28.25 28.25 0 0 0 21 2.81h-1.06v18.54H21a28.25 28.25 0 0 1 10.43 2l.38.16.38-.16a28.26 28.26 0 0 1 10.44-2h1.07V2.81zM35.08 10.85h4.32M35.08 15.17h4.32M24.27 10.85h4.32M24.27 15.17h4.32M31.83 4.98v18.38" style="stroke: #003369;"/></svg>
