<?xml version="1.0" encoding="UTF-8"?>
<svg xmlns="http://www.w3.org/2000/svg" aria-describedby="desc" aria-labelledby="title" viewBox="0 0 64 64"><path fill="none" stroke="#003369" stroke-miterlimit="10" stroke-width="2" d="M42 20H10v33a3 3 0 0 1-3 3" data-name="layer2" style="stroke: #003369;"/><path fill="none" stroke="#003369" stroke-miterlimit="10" stroke-width="2" d="M38 12H20V8H2v45a3 3 0 0 0 3 3h54a3 3 0 0 0 3-3V20h-8" data-name="layer2" style="stroke: #003369;"/><path fill="none" stroke="#003369" stroke-miterlimit="10" stroke-width="2" d="M38 12h13a3 3 0 0 1 3 3v27l-6-5-6 5V15a3 3 0 0 0-3-3h-2a3 3 0 0 0-3 3v5" data-name="layer1" style="stroke: #003369;"/></svg>
