<?xml version="1.0" encoding="UTF-8"?>
<svg xmlns="http://www.w3.org/2000/svg" data-name="Layer 1" viewBox="0 0 64 64"><path fill="#003369" d="M54.56 31.52a3.77 3.77 0 0 0-4.77-.52A3.82 3.82 0 0 0 46 27.46a3.84 3.84 0 0 0-2.39.84 3.74 3.74 0 0 0-.81-1.2 3.79 3.79 0 0 0-2.7-1.1 3.86 3.86 0 0 0-2.08.62V18a3.8 3.8 0 1 0-7.6 0v23l-1.62-2.64a3.94 3.94 0 0 0-.9-1.16 3.82 3.82 0 0 0-1.3-.74 3.92 3.92 0 0 0-1.48-.19 4 4 0 0 0-1.44.4 3.89 3.89 0 0 0-1.18.91 3.82 3.82 0 0 0-.74 1.3 3.92 3.92 0 0 0-.19 1.48 3.84 3.84 0 0 0 .43 1.45l8.68 14.28a8.29 8.29 0 0 0 7.06 3.94h9.71a8.23 8.23 0 0 0 8.22-8.22v-17.6a3.77 3.77 0 0 0-1.11-2.69zM25.4 38a2.07 2.07 0 0 1 .66.1 2.2 2.2 0 0 1 .71.41 2 2 0 0 1 .5.65v.07l3.23 5.29a.86.86 0 0 0 1.6-.45V18a2 2 0 0 1 .61-1.47A2.08 2.08 0 0 1 36.3 18v16.21a.86.86 0 0 0 1.72 0v-4.42a2.08 2.08 0 0 1 2.08-2.08 2.11 2.11 0 0 1 1.48.61 2.08 2.08 0 0 1 .61 1.47v5.89a.86.86 0 0 0 1.72 0v-4.42a2.08 2.08 0 0 1 3.55-1.47 2.1 2.1 0 0 1 .61 1.47v5.89a.86.86 0 0 0 1.72 0v-3a2.09 2.09 0 0 1 3.56-1.46 2.11 2.11 0 0 1 .65 1.52v17.65a6.5 6.5 0 0 1-6.5 6.5h-9.76a6.61 6.61 0 0 1-5.58-3.12L23.5 41a2.06 2.06 0 0 1-.11-1.57 2.14 2.14 0 0 1 .41-.72 2.21 2.21 0 0 1 .66-.5 2.11 2.11 0 0 1 .79-.22zM14.81 14.18a.85.85 0 0 0-.59-.3.78.78 0 0 0-.62.2.87.87 0 0 0-.1 1.22l4.27 5a.85.85 0 0 0 .65.3.86.86 0 0 0 .65-.31L31.18 5.32a.85.85 0 0 0-.13-1.21.87.87 0 0 0-1.21.13L18.4 18.37z" style="fill: #003369;"/><path fill="#003369" d="M27.51 21.3a10.07 10.07 0 0 0 .9-6 .87.87 0 0 0-.34-.56.86.86 0 0 0-.64-.15.79.79 0 0 0-.56.34.85.85 0 0 0-.16.64 8.38 8.38 0 0 1-4.2 8.61A8.38 8.38 0 0 1 10.56 14a8.4 8.4 0 0 1 7.87-5.47 8.21 8.21 0 0 1 3.21.64.84.84 0 0 0 .66 0 .86.86 0 0 0 0-1.59 9.92 9.92 0 0 0-3.88-.78A10.12 10.12 0 0 0 9 13.37a10 10 0 0 0-.3 6 10.05 10.05 0 0 0 8.77 7.51 8.72 8.72 0 0 0 1 .06 10.1 10.1 0 0 0 9.07-5.68z" style="fill: #003369;"/></svg>
