<?xml version="1.0" encoding="UTF-8"?>
<svg xmlns="http://www.w3.org/2000/svg" data-name="Layer 1" viewBox="0 0 64 64"><path fill="none" stroke="#003369" stroke-width="2" d="M30.86 41.29H10.08v8.18a1.63 1.63 0 0 0 1.64 1.64h14.41M46.09 3.64A1.63 1.63 0 0 0 44.46 2H11.72a1.63 1.63 0 0 0-1.64 1.64v4.91h36zM46.09 32.22V8.55M10.08 8.55v32.74M15.81 14.28h4.91v4.91h-4.91zm9.82 0h4.91v4.91h-4.91zm9.82 0h4.91v4.91h-4.91zM15.81 24.1h4.91V29h-4.91zm9.82 0h4.91V29h-4.91z" style="stroke: #003369;"/><path fill="none" stroke="#003369" stroke-miterlimit="10" stroke-width="2" d="M35 49.83V28.92a2.36 2.36 0 1 1 4.72 0v13m-4.59 17.24l-7-11.46a2.36 2.36 0 0 1 1-3.17h0a2.36 2.36 0 0 1 3.17 1h0l2.7 4.3m4.72-13.35a2.37 2.37 0 0 1 4.73 0v6.62m0-5.44a2.36 2.36 0 0 1 4.72 0v6.62" style="stroke: #003369;"/><path fill="none" stroke="#003369" stroke-miterlimit="10" stroke-width="2" d="M35.13 59.16A6 6 0 0 0 40.21 62H48a5.9 5.9 0 0 0 5.91-5.91V40a2.37 2.37 0 1 0-4.73 0" style="stroke: #003369;"/></svg>
