<?xml version="1.0" encoding="UTF-8"?>
<svg xmlns="http://www.w3.org/2000/svg" data-name="Layer 1" viewBox="0 0 64 64"><path fill="none" d="M5.68 37.8h52.48v17.4H5.68zM5.68 17.7h52.48v17.4H5.68z"/><path fill="none" stroke="#003369" stroke-miterlimit="10" stroke-width="2" d="M60.37 17.7h2.28V15h-2.28M58.16 15H5.68M5.68 17.7h52.48M3.46 15H1.35v2.7h2.11M2.91 57.89h2.77v3.55H2.91zM2.91 2.56h2.77V15H2.91zM2.91 17.7h2.77v17.4H2.91zM2.91 37.8h2.77v17.4H2.91zM3.46 17.7h2.22M5.68 15H3.46M58.16 57.89h2.77v3.55h-2.77zM58.16 2.56h2.77V15h-2.77zM58.16 17.7h2.77v17.4h-2.77zM58.16 37.8h2.77v17.4h-2.77zM58.16 17.7h2.21M60.37 15h-2.21M58.16 35.1H5.68M5.68 37.8h52.48" style="stroke: #003369;"/><path fill="none" stroke="#003369" stroke-miterlimit="10" stroke-width="2" d="M3.46 35.1H1.35v2.7h2.11M60.37 37.8h2.28v-2.7h-2.28M3.46 37.8h2.22M5.68 35.1H3.46M60.37 35.1h-2.21M58.16 37.8h2.21M60.37 57.89h2.28v-2.7h-2.28M3.46 55.19H1.35v2.7h2.11M58.16 55.19H5.68M5.68 57.89h52.48M5.68 55.19H3.46M3.46 57.89h2.22M60.37 55.19h-2.21M58.16 57.89h2.21M9.23 3.56h12.62V14H9.23z" style="stroke: #003369;"/><path fill="none" stroke="#003369" stroke-miterlimit="10" stroke-width="2" d="M16.03 5.46H20V6.8h-3.97zM25.69 3.56h12.62V14H25.69z" style="stroke: #003369;"/><path fill="none" stroke="#003369" stroke-miterlimit="10" stroke-width="2" d="M32.48 5.46h3.97V6.8h-3.97zM42.14 3.56h12.62V14H42.14z" style="stroke: #003369;"/><path fill="none" stroke="#003369" stroke-miterlimit="10" stroke-width="2" d="M48.94 5.46h3.97V6.8h-3.97zM9.23 23.88h12.62v10.44H9.23z" style="stroke: #003369;"/><path fill="none" stroke="#003369" stroke-miterlimit="10" stroke-width="2" d="M16.03 25.78H20v1.34h-3.97zM25.69 23.88h12.62v10.44H25.69z" style="stroke: #003369;"/><path fill="none" stroke="#003369" stroke-miterlimit="10" stroke-width="2" d="M32.48 25.78h3.97v1.34h-3.97zM42.14 23.88h12.62v10.44H42.14z" style="stroke: #003369;"/><path fill="none" stroke="#003369" stroke-miterlimit="10" stroke-width="2" d="M48.94 25.78h3.97v1.34h-3.97zM9.23 44.2h12.62v10.44H9.23z" style="stroke: #003369;"/><path fill="none" stroke="#003369" stroke-miterlimit="10" stroke-width="2" d="M16.03 46.1H20v1.34h-3.97zM25.69 44.2h12.62v10.44H25.69z" style="stroke: #003369;"/><path fill="none" stroke="#003369" stroke-miterlimit="10" stroke-width="2" d="M32.48 46.1h3.97v1.34h-3.97zM42.14 44.2h12.62v10.44H42.14z" style="stroke: #003369;"/><path fill="none" stroke="#003369" stroke-miterlimit="10" stroke-width="2" d="M48.94 46.1h3.97v1.34h-3.97z" style="stroke: #003369;"/></svg>
