<?xml version="1.0" encoding="UTF-8"?>
<svg xmlns="http://www.w3.org/2000/svg" aria-describedby="desc" aria-labelledby="title" viewBox="0 0 64 64"><path fill="none" stroke="#003369" stroke-width="2" d="M43 32v5.1m-34-15V8h34v6M33 58H9V40M3 2l6 6m40-6l-6 6" data-name="layer1" style="stroke: #003369;"/><path fill="none" stroke="#003369" stroke-width="2" d="M54.7 41.8a8 8 0 0 0-15-1.1A5.9 5.9 0 0 0 37 40a6 6 0 0 0-6 6m12-14L9 40V22.1L43 14v18z" data-name="layer2" style="stroke: #003369;"/><path fill="none" stroke="#003369" stroke-width="2" d="M61 26l-8 20m-26 0a17 17 0 0 0 33.9 0z" data-name="layer1" style="stroke: #003369;"/></svg>
