<?xml version="1.0" encoding="UTF-8"?>
<svg xmlns="http://www.w3.org/2000/svg" aria-describedby="desc" aria-labelledby="title" viewBox="0 0 64 64"><path fill="none" stroke="#003369" stroke-width="2" d="M19 32h26v14c0 8-8.191 12-8.191 12H27s-8-4-8-12V32zm26 2h2a6 6 0 0 1 0 12h-2" data-name="layer2" style="stroke: #003369;"/><path fill="none" stroke="#003369" stroke-width="2" d="M37 28c0-12 12-14 12-26M27 28c0-6.125 6-8.9 6-14m25 46a2 2 0 0 1-2 2H8a2 2 0 0 1-2-2 2 2 0 0 1 2-2h48a2 2 0 0 1 2 2z" data-name="layer1" style="stroke: #003369;"/></svg>
