<?xml version="1.0" encoding="UTF-8"?>
<svg xmlns="http://www.w3.org/2000/svg" aria-describedby="desc" aria-labelledby="title" viewBox="0 0 64 64"><path fill="none" stroke="#003369" stroke-width="2" d="M40.7 43.2a7 7 0 0 0 12.6-.2h.7a8 8 0 0 0 3-15.4 7 7 0 0 0-11-8.4 13 13 0 0 0-25.7-1.7A6 6 0 0 0 12 23h-1a9 9 0 0 0 0 18h1.3a6 6 0 0 0 10.3 2" data-name="layer1" style="stroke: #003369;"/><path fill="none" stroke="#003369" stroke-width="2" d="M22 36.4L24 57h14l3.7-18.4M30 41v16" data-name="layer2" style="stroke: #003369;"/><path fill="none" stroke="#003369" stroke-width="2" d="M18 34.2a13 13 0 0 0 17.6-1.5 13 13 0 0 0 11.5 7" data-name="layer1" style="stroke: #003369;"/></svg>
