<?xml version="1.0" encoding="UTF-8"?>
<svg xmlns="http://www.w3.org/2000/svg" viewBox="0 0 64 64"><path fill="none" stroke="#003369" stroke-miterlimit="10" stroke-width="2" d="M34.16 47.09c0 .96-.78 1.75-1.75 1.75s-1.75-.78-1.75-1.75v-5.24c0-.96.78-1.75 1.75-1.75s1.75.78 1.75 1.75v5.24zM20.19 30.87V17.41c0-.69.06-1.36.18-2.02l1.51 1.07.06 1.97 3.43 2.69v9.75M42.69 30.87l1.34-12.36c.65-6.23-3.87-11.82-10.11-12.47-4.14-.43-7.99 1.42-10.3 4.53l2.3 1.84-.63 3.1 1.31 1.2c0-.08.02-.15.03-.23a6.162 6.162 0 0 1 6.75-5.26A6.16 6.16 0 0 1 38.87 18l-1.39 12.87M20.23 9.68l-.95-4.12M17.89 10.82l-3.88-2.69M17.37 13.41l-4.99.55" style="stroke: #003369;"/><path fill="none" stroke="#003369" stroke-miterlimit="10" stroke-width="2" d="M18.57 30.87c-2.89 0-5.24 2.28-5.24 5.1v17.01c0 2.82 2.35 5.1 5.24 5.1h27.81c2.89 0 5.24-2.28 5.24-5.1V35.97c0-2.82-2.35-5.1-5.24-5.1H18.44" style="stroke: #003369;"/></svg>
