<?xml version="1.0" encoding="UTF-8"?>
<svg xmlns="http://www.w3.org/2000/svg" data-name="Layer 1" viewBox="0 0 64 64"><path fill="none" stroke="#003369" stroke-miterlimit="10" stroke-width="2" d="M8.25 9.59h5.5v5.5h-5.5zM20.25 9.59h5.5v5.5h-5.5zM8.25 20.6h5.5v5.5h-5.5zM20.25 20.6h5.5v5.5h-5.5zM8.25 31.6h5.5v5.5h-5.5zM20.25 31.6h5.5v5.5h-5.5zM38.25 31.6h5.5v5.5h-5.5zM50.25 31.6h5.5v5.5h-5.5zM52.5 59.5V48.49h-11V59.5M22.5 59.5V48.49h-11V59.5" style="stroke: #003369;"/><path fill="none" stroke="#003369" stroke-miterlimit="10" stroke-width="2" d="M2 4.5h30v55H2zm30 22h30v33H31.72" style="stroke: #003369;"/></svg>
