<?xml version="1.0" encoding="UTF-8"?>
<svg xmlns="http://www.w3.org/2000/svg" data-name="Layer 1" viewBox="0 0 64 64"><path fill="none" stroke="#003369" stroke-miterlimit="10" stroke-width="2" d="M6.71 6.13H57.3v51.72H6.71zM2.3 57.85h59.39v.02H2.3z" style="stroke: #003369;"/><path fill="none" stroke="#003369" stroke-miterlimit="10" stroke-width="2" d="M12.47 12.74h5.5v5.5h-5.5zM23.65 12.74h5.5v5.5h-5.5zM34.84 12.74h5.5v5.5h-5.5zM12.47 34.75h5.5v5.5h-5.5zM23.65 34.75h5.5v5.5h-5.5zM34.84 34.75h5.5v5.5h-5.5zM12.47 23.74h5.5v5.5h-5.5zM23.65 23.74h5.5v5.5h-5.5zM34.84 23.74h5.5v5.5h-5.5zM46.03 12.74h5.5v5.5h-5.5zM46.03 34.75h5.5v5.5h-5.5zM46.03 23.74h5.5v5.5h-5.5zM22.61 46.85h18.92v11.01H22.61zM51.53 57.86V46.85h-10M22.61 46.85H12.6v11.01" style="stroke: #003369;"/></svg>
