<?xml version="1.0" encoding="UTF-8"?>
<svg xmlns="http://www.w3.org/2000/svg" viewBox="0 0 64 64"><path fill="#003369" d="M54.47 61.85H9.53c-2.69 0-4.88-2.31-4.88-5.14V29.89c0-2.84 2.19-5.14 4.88-5.14h.63l.05-19.14c0-1.9 1.48-3.45 3.29-3.45h6.2c1.82 0 3.29 1.55 3.29 3.45v11.91c0 .56.41 1.03.9 1.03h16.22c.49 0 .9-.47.9-1.03V5.61c0-1.9 1.48-3.45 3.29-3.45h6.2c1.82 0 3.29 1.55 3.29 3.45v19.13h.68c2.68 0 4.87 2.31 4.87 5.15v26.82c0 2.84-2.19 5.14-4.88 5.14zM9.53 26.74c-1.59 0-2.88 1.41-2.88 3.14V56.7c0 1.73 1.29 3.14 2.88 3.14h44.94c1.59 0 2.88-1.41 2.88-3.14V29.89c0-1.73-1.29-3.14-2.88-3.14h-2.68V5.61c0-.8-.58-1.45-1.29-1.45h-6.2c-.71 0-1.29.65-1.29 1.45v11.91c0 1.67-1.3 3.03-2.9 3.03H23.89c-1.6 0-2.9-1.36-2.9-3.03V5.61c0-.8-.58-1.45-1.29-1.45h-6.2c-.71 0-1.29.65-1.29 1.45l-.05 21.14H9.53z" style="fill: #003369;"/><g fill="#003369"><path d="M13.01 32.93h37.97v2H13.01zM13.01 41.85h37.97v2H13.01zM13.01 50.77h37.97v2H13.01z" style="fill: #003369;"/></g><path fill="#003369" d="M31.8 13.36c-3.6 0-7.14-.68-10.22-2.04l.81-1.83c5.67 2.51 13.04 2.5 19.24-.01l.75 1.85c-3.34 1.35-6.99 2.03-10.58 2.03z" style="fill: #003369;"/></svg>
