<?xml version="1.0" encoding="UTF-8"?>
<svg xmlns="http://www.w3.org/2000/svg" viewBox="0 0 64 64"><g fill="#003369"><path d="M56.9 33.89h-2v-4.37c-1.38-1.05-5.37-4.58-5.4-10.22h2c.03 5.56 4.9 8.83 4.95 8.87l.45.3v5.42zM54.9 41.57h2v4.82h-2zM56.9 62.31h-50v-8.24h2v6.24h46v-6.24h2v8.24zM6.9 41.57h2v4.82h-2z" style="fill: #003369;"/><path d="M8.9 33.89h-2v-5.36l.37-.3c4.59-3.69 4.77-8.45 4.77-8.65l.04-14.29c0-1.99 1.62-3.6 3.61-3.6h3.09c1.99 0 3.6 1.62 3.6 3.6v6.92c0 1.46.42 2.82 1.21 3.93 1.42 2 4.38 4.33 8.06 4.33s6.88-2.22 8.51-4.42c.76-1.02 1.17-2.32 1.17-3.65V5.29c0-1.99 1.62-3.6 3.61-3.6h3.09c1.99 0 3.61 1.62 3.61 3.6l-.13 14.02-2-.02.13-14.01c0-.88-.72-1.6-1.61-1.6h-3.09c-.89 0-1.61.72-1.61 1.6v7.11c0 1.76-.56 3.48-1.57 4.84-1.93 2.6-5.8 5.23-10.11 5.23-3.65 0-7.46-2.03-9.69-5.17-1.03-1.45-1.57-3.21-1.57-5.09V5.29c0-.88-.72-1.6-1.6-1.6H15.7c-.89 0-1.61.72-1.61 1.6l-.04 14.32c0 .25-.16 5.62-5.15 9.87v4.41z" style="fill: #003369;"/><path d="M18.38 42.57H6.88c-1.79 0-3.25-1.46-3.25-3.25v-3.18c0-1.79 1.46-3.25 3.25-3.25h11.5c1.79 0 3.25 1.46 3.25 3.25v3.18c0 1.79-1.46 3.25-3.25 3.25zm-11.5-7.68c-.69 0-1.25.56-1.25 1.25v3.18c0 .69.56 1.25 1.25 1.25h11.5c.69 0 1.25-.56 1.25-1.25v-3.18c0-.69-.56-1.25-1.25-1.25H6.88zM18.38 55.07H6.88c-1.79 0-3.25-1.46-3.25-3.25v-3.18c0-1.79 1.46-3.25 3.25-3.25h11.5c1.79 0 3.25 1.46 3.25 3.25v3.18c0 1.79-1.46 3.25-3.25 3.25zm-11.5-7.68c-.69 0-1.25.56-1.25 1.25v3.18c0 .69.56 1.25 1.25 1.25h11.5c.69 0 1.25-.56 1.25-1.25v-3.18c0-.69-.56-1.25-1.25-1.25H6.88zM57.12 42.57h-11.5c-1.79 0-3.25-1.46-3.25-3.25v-3.18c0-1.79 1.46-3.25 3.25-3.25h11.5c1.79 0 3.25 1.46 3.25 3.25v3.18c0 1.79-1.46 3.25-3.25 3.25zm-11.5-7.68c-.69 0-1.25.56-1.25 1.25v3.18c0 .69.56 1.25 1.25 1.25h11.5c.69 0 1.25-.56 1.25-1.25v-3.18c0-.69-.56-1.25-1.25-1.25h-11.5zM57.12 55.07h-11.5c-1.79 0-3.25-1.46-3.25-3.25v-3.18c0-1.79 1.46-3.25 3.25-3.25h11.5c1.79 0 3.25 1.46 3.25 3.25v3.18c0 1.79-1.46 3.25-3.25 3.25zm-11.5-7.68c-.69 0-1.25.56-1.25 1.25v3.18c0 .69.56 1.25 1.25 1.25h11.5c.69 0 1.25-.56 1.25-1.25v-3.18c0-.69-.56-1.25-1.25-1.25h-11.5z" style="fill: #003369;"/></g><path fill="#003369" d="M31.66 13.1c-3.84 0-7.61-.68-10.68-2.04l.81-1.83c5.67 2.51 13.97 2.5 20.17-.01l.75 1.85c-3.33 1.35-7.22 2.02-11.04 2.02z" style="fill: #003369;"/></svg>
