<?xml version="1.0" encoding="UTF-8"?>
<svg xmlns="http://www.w3.org/2000/svg" aria-describedby="desc" aria-labelledby="title" viewBox="0 0 64 64"><path fill="none" stroke="#003369" stroke-width="2" d="M52 44h8.5a1.5 1.5 0 0 0 1.5-1.5V28l-2-9c-.6-1.7-1.3-3-3-3H5a3 3 0 0 0-3 3v23a2.2 2.2 0 0 0 2 2h6m8 0h26M2 30h50m0-13.8V44M19 30V16m17 14V16" data-name="layer1" style="stroke: #003369;"/><circle cx="14" cy="44" r="4" fill="none" stroke="#003369" stroke-width="2" data-name="layer2" style="stroke: #003369;"/><circle cx="48" cy="44" r="4" fill="none" stroke="#003369" stroke-width="2" data-name="layer2" style="stroke: #003369;"/><path fill="none" stroke="#003369" stroke-width="2" d="M52 36h10" data-name="layer1" style="stroke: #003369;"/></svg>
