<?xml version="1.0" encoding="UTF-8"?>
<svg xmlns="http://www.w3.org/2000/svg" aria-describedby="desc" aria-labelledby="title" viewBox="0 0 64 64"><circle cx="23.997" cy="9" r="7" fill="none" stroke="#003369" stroke-miterlimit="10" stroke-width="2" data-name="layer2" style="stroke: #003369;"/><path fill="none" stroke="#003369" stroke-miterlimit="10" stroke-width="2" d="M34.997 22h-22a3 3 0 0 0-3 3v16a3 3 0 0 0 3 3h3v15a3 3 0 0 0 3 3h10a3 3 0 0 0 3-3V44h3a3 3 0 0 0 3-3V25a3 3 0 0 0-3-3z" data-name="layer2" style="stroke: #003369;"/><path fill="none" stroke="#003369" stroke-miterlimit="10" stroke-width="2" d="M46.003 42h8v20h-8zm4-5.999V42M24.001 21.999l4 14.002-4 4-4-4 4-14.002" data-name="layer1" style="stroke: #003369;"/></svg>
