<?xml version="1.0" encoding="UTF-8"?>
<svg xmlns="http://www.w3.org/2000/svg" aria-describedby="desc" aria-labelledby="title" viewBox="0 0 64 64"><path fill="none" stroke="#003369" stroke-width="2" d="M4 18L60 8M32 24V13.1m-10 1.7v-4A5 5 0 0 1 26 6l12-1.9a3.2 3.2 0 0 1 4 3.3v3.9" data-name="layer2" style="stroke: #003369;"/><path fill="none" stroke="#003369" stroke-width="2" d="M10 24h44c4.5 0 8 6.4 8 19s-2.7 19-8 19H10c-3.4 0-8-6.4-8-19s5.8-19 8-19z" data-name="layer1" style="stroke: #003369;"/><rect width="36" height="18" x="14" y="32" fill="none" stroke="#003369" stroke-width="2" data-name="layer1" rx="3" ry="3" style="stroke: #003369;"/><path fill="none" stroke="#003369" stroke-width="2" d="M26 32v18m12-18v18" data-name="layer1" style="stroke: #003369;"/></svg>
