<?xml version="1.0" encoding="UTF-8"?>
<svg xmlns="http://www.w3.org/2000/svg" aria-describedby="desc" aria-labelledby="title" viewBox="0 0 64 64"><path fill="none" stroke="#003369" stroke-width="2" d="M2 20L62 2" data-name="layer2" style="stroke: #003369;"/><path fill="none" stroke="#003369" stroke-width="2" d="M32 54V22" data-name="layer1" style="stroke: #003369;"/><path fill="none" stroke="#003369" stroke-width="2" d="M32 22V11" data-name="layer2" style="stroke: #003369;"/><path fill="none" stroke="#003369" stroke-width="2" d="M22 22v29.6a2.4 2.4 0 0 0 2.3 2.4h15.3a2.4 2.4 0 0 0 2.4-2.4V22" data-name="layer1" style="stroke: #003369;"/><path fill="none" stroke="#003369" stroke-width="2" d="M21 62c-5.4 0-7.4-2.4-8.7-6L9 47.3a14.5 14.5 0 0 1 0-10.6l3.3-8.7a8.6 8.6 0 0 1 8.7-6h22a8.6 8.6 0 0 1 8.7 6l3.3 8.7a14.5 14.5 0 0 1 0 10.6L51.7 56c-1.3 3.6-3.3 6-8.7 6z" data-name="layer1" style="stroke: #003369;"/></svg>
