<?xml version="1.0" encoding="UTF-8"?>
<svg xmlns="http://www.w3.org/2000/svg" data-name="Layer 1" viewBox="0 0 64 64"><path fill="none" stroke="#1d3763" stroke-miterlimit="10" stroke-width="2" d="M2.79 7.1h58.42v52.57H2.79zM32 4.33v8.79M18.37 4.33v8.79m27.26-8.79v8.79" style="stroke: #003369;"/><path fill="#1d3763" d="M10 18.6V20H8.62v-1.4H10m2-2H6.62V22H12v-5.4zM17.57 18.6V20h-1.39v-1.4h1.39m2-2h-5.39V22h5.39v-5.4zM25.13 18.6V20h-1.39v-1.4h1.39m2-2h-5.39V22h5.39v-5.4zM32.7 18.6V20h-1.4v-1.4h1.4m2-2h-5.4V22h5.4v-5.4zM40.26 18.6V20h-1.39v-1.4h1.39m2-2h-5.39V22h5.39v-5.4zM47.82 18.6V20h-1.39v-1.4h1.39m2-2h-5.39V22h5.39v-5.4zM55.38 18.6V20H54v-1.4h1.39m2-2H52V22h5.39v-5.4zM10 26.42v1.4H8.62v-1.4H10m2-2H6.62v5.4H12v-5.4zM17.57 26.42v1.4h-1.39v-1.4h1.39m2-2h-5.39v5.4h5.39v-5.4zM25.13 26.42v1.4h-1.39v-1.4h1.39m2-2h-5.39v5.4h5.39v-5.4zM32.7 26.42v1.4h-1.4v-1.4h1.4m2-2h-5.4v5.4h5.4v-5.4zM40.26 26.42v1.4h-1.39v-1.4h1.39m2-2h-5.39v5.4h5.39v-5.4zM47.82 26.42v1.4h-1.39v-1.4h1.39m2-2h-5.39v5.4h5.39v-5.4zM55.38 26.42v1.4H54v-1.4h1.39m2-2H52v5.4h5.39v-5.4zM10 34.24v1.4H8.62v-1.4H10m2-2H6.62v5.4H12v-5.4zM17.57 34.24v1.4h-1.39v-1.4h1.39m2-2h-5.39v5.4h5.39v-5.4zM25.13 34.24v1.4h-1.39v-1.4h1.39m2-2h-5.39v5.4h5.39v-5.4zM32.7 34.24v1.4h-1.4v-1.4h1.4m2-2h-5.4v5.4h5.4v-5.4zM40.26 34.24v1.4h-1.39v-1.4h1.39m2-2h-5.39v5.4h5.39v-5.4zM47.82 34.24v1.4h-1.39v-1.4h1.39m2-2h-5.39v5.4h5.39v-5.4zM55.38 34.24v1.4H54v-1.4h1.39m2-2H52v5.4h5.39v-5.4zM10 42.06v1.4H8.62v-1.4H10m2-2H6.62v5.4H12v-5.4zM17.57 42.06v1.4h-1.39v-1.4h1.39m2-2h-5.39v5.4h5.39v-5.4zM25.13 42.06v1.4h-1.39v-1.4h1.39m2-2h-5.39v5.4h5.39v-5.4zM32.7 42.06v1.4h-1.4v-1.4h1.4m2-2h-5.4v5.4h5.4v-5.4zM40.26 42.06v1.4h-1.39v-1.4h1.39m2-2h-5.39v5.4h5.39v-5.4zM47.82 42.06v1.4h-1.39v-1.4h1.39m2-2h-5.39v5.4h5.39v-5.4zM55.38 42.06v1.4H54v-1.4h1.39m2-2H52v5.4h5.39v-5.4zM10 49.89v1.39H8.62v-1.39H10m2-2H6.62v5.39H12v-5.39zM17.57 49.89v1.39h-1.39v-1.39h1.39m2-2h-5.39v5.39h5.39v-5.39zM25.13 49.89v1.39h-1.39v-1.39h1.39m2-2h-5.39v5.39h5.39v-5.39z" style="fill: #003369;"/></svg>
