<?xml version="1.0" encoding="UTF-8"?>
<svg xmlns="http://www.w3.org/2000/svg" aria-describedby="desc" aria-labelledby="title" viewBox="0 0 64 64"><path fill="none" stroke="#003369" stroke-miterlimit="10" stroke-width="2" d="M40.8 25H12M2 9h6l10 40h32l5.2-16" data-name="layer2" style="stroke: #003369;"/><circle cx="20" cy="57" r="4" fill="none" stroke="#003369" stroke-miterlimit="10" stroke-width="2" data-name="layer2" style="stroke: #003369;"/><circle cx="46" cy="57" r="4" fill="none" stroke="#003369" stroke-miterlimit="10" stroke-width="2" data-name="layer2" style="stroke: #003369;"/><path fill="none" stroke="#003369" stroke-miterlimit="10" stroke-width="2" d="M55.3 22.1a2.4 2.4 0 0 0-3.3.6c-1.2 1.5-1.7 3.4-7.2-2.1s-4-6.5-2.6-7.7a2.4 2.4 0 0 0 .6-3.3l-3.3-5.1C39 3.9 38.4 2.8 37 3a7.2 7.2 0 0 0-5 6.8c0 4.5 3.5 10 8.4 14.8S50.7 33 55.2 33a7.2 7.2 0 0 0 6.8-5c.2-1.4-.9-2-1.5-2.5z" data-name="layer1" style="stroke: #003369;"/></svg>
