<?xml version="1.0" encoding="UTF-8"?>
<svg xmlns="http://www.w3.org/2000/svg" aria-describedby="desc" aria-labelledby="title" viewBox="0 0 64 64"><rect width="36" height="60" x="14" y="2" fill="none" stroke="#003369" stroke-miterlimit="10" stroke-width="2" data-name="layer2" rx="4" ry="4" style="stroke: #003369;"/><path fill="none" stroke="#003369" stroke-miterlimit="10" stroke-width="2" d="M14 10h25m6 0h5M14 48h36" data-name="layer2" style="stroke: #003369;"/><circle cx="32" cy="55" r="3" fill="none" stroke="#003369" stroke-miterlimit="10" stroke-width="2" data-name="layer2" style="stroke: #003369;"/><circle cx="42" cy="10" r="3" fill="none" stroke="#003369" stroke-miterlimit="10" stroke-width="2" data-name="layer2" style="stroke: #003369;"/><path fill="none" stroke="#003369" stroke-miterlimit="10" stroke-width="2" d="M45 48a13.5 13.5 0 0 0-8.7-12.7 8.7 8.7 0 0 0 3.3-6.9c0-4.6-3.4-8.4-7.6-8.4s-7.6 3.8-7.6 8.4a8.7 8.7 0 0 0 3.3 6.9A13.5 13.5 0 0 0 19 48" data-name="layer1" style="stroke: #003369;"/></svg>
