<?xml version="1.0" encoding="UTF-8"?>
<svg xmlns="http://www.w3.org/2000/svg" aria-describedby="desc" aria-labelledby="title" viewBox="0 0 64 64"><path fill="none" stroke="#003369" stroke-miterlimit="10" stroke-width="2" d="M28 24v16l4 4 4-4V24m-4 38V44L14 62m18-18l18 18" data-name="layer2" style="stroke: #003369;"/><path fill="none" stroke="#003369" stroke-miterlimit="10" stroke-width="2" d="M44.5 6H43l-3.3-4h-7.9l-3.2 4H17.5A1.5 1.5 0 0 0 16 7.5v15a1.5 1.5 0 0 0 1.5 1.5h27a1.5 1.5 0 0 0 1.5-1.5v-15A1.5 1.5 0 0 0 44.5 6z" data-name="layer1" style="stroke: #003369;"/><circle cx="36" cy="14" r="4" fill="none" stroke="#003369" stroke-miterlimit="10" stroke-width="2" data-name="layer1" style="stroke: #003369;"/></svg>
