<?xml version="1.0" encoding="UTF-8"?>
<svg xmlns="http://www.w3.org/2000/svg" aria-describedby="desc" aria-labelledby="title" viewBox="0 0 64 64"><path fill="none" stroke="#003369" stroke-miterlimit="10" stroke-width="2" d="M62 26.731c0 5.269.254 16.739-9.086 26.08-.018-.008-.033-.02-.049-.028A3.983 3.983 0 0 1 50 54H14a3.991 3.991 0 0 1-2.844-1.189C1.816 43.471 2.07 32 2.07 26.731A3.936 3.936 0 0 1 2 26V6a4 4 0 0 1 4-4h52a4 4 0 0 1 4 4z" data-name="layer1" style="stroke: #003369;"/><path fill="none" stroke="#003369" stroke-miterlimit="10" stroke-width="2" d="M10 10h44v22H10zm12 8h20m-20 6h20" data-name="layer2" style="stroke: #003369;"/><path fill="none" stroke="#003369" stroke-miterlimit="10" stroke-width="2" d="M26 46h12M18 32v14m28-14v14m-26 8v8h24v-8" data-name="layer1" style="stroke: #003369;"/></svg>
