<?xml version="1.0" encoding="UTF-8"?>
<svg xmlns="http://www.w3.org/2000/svg" aria-describedby="desc" aria-labelledby="title" viewBox="0 0 64 64"><path fill="none" stroke="#003369" stroke-miterlimit="10" stroke-width="2" d="M35.4 58H4a2 2 0 0 1-2-2V10a2 2 0 0 1 2-2h9.9M34 8h10a2 2 0 0 1 2 2v20" data-name="layer2" style="stroke: #003369;"/><path fill="none" stroke="#003369" stroke-miterlimit="10" stroke-width="2" d="M32 6h-3.1a5 5 0 0 0-9.8 0H16a2 2 0 0 0-2 2v6h20V8a2 2 0 0 0-2-2zm6 26.1V14h-4m-20 0h-4v36h20.5M18 22h12M18 32h12M18 42h12" data-name="layer2" style="stroke: #003369;"/><circle cx="46" cy="46" r="16" fill="none" stroke="#003369" stroke-miterlimit="10" stroke-width="2" data-name="layer1" style="stroke: #003369;"/><path fill="none" stroke="#003369" stroke-miterlimit="10" stroke-width="2" d="M57.3 34.7L34.7 57.3" data-name="layer1" style="stroke: #003369;"/></svg>
