<?xml version="1.0" encoding="UTF-8"?>
<svg xmlns="http://www.w3.org/2000/svg" data-name="Layer 1" viewBox="0 0 64 64"><path fill="none" stroke="#00336a" stroke-miterlimit="3" stroke-width="2" d="M47.98 11.5v5.32h4.88V11.5" style="stroke: #003369;"/><path fill="none" stroke="#00336a" stroke-miterlimit="3" stroke-width="2" d="M48 16.81h-2.53v4.31a5.13 5.13 0 0 0 .12 1.12 5 5 0 0 0 4.83 3.83 5 5 0 0 0 4.84-3.83 5.13 5.13 0 0 0 .12-1.12v-4.31h-2.52" style="stroke: #003369;"/><path fill="none" stroke="#00336a" stroke-miterlimit="10" stroke-width="2" d="M27.64 24.78L16.32 37.1h5.78l-2.54 10.78 12.16-13.09H26z" style="stroke: #003369;"/><path fill="none" stroke="#00336a" stroke-width="2" d="M37.22 52.9h-26.4V11.1a4.4 4.4 0 0 1 4.4-4.4h17.6a4.4 4.4 0 0 1 4.4 4.4z" style="stroke: #003369;"/><path fill="none" stroke="#00336a" stroke-width="2" d="M50.42 26.5v19.8A4.4 4.4 0 0 1 46 50.7h0a4.4 4.4 0 0 1-4.4-4.4V43a3.3 3.3 0 0 0-3.3-3.3h-1.1M15.22 11.1h17.6v8.8h-17.6zM8.62 57.3v-2.2a2.2 2.2 0 0 1 2.2-2.2h26.4a2.19 2.19 0 0 1 2.2 2.2v2.2z" style="stroke: #003369;"/></svg>
