<?xml version="1.0" encoding="UTF-8"?>
<svg xmlns="http://www.w3.org/2000/svg" data-name="Layer 1" viewBox="0 0 64 64"><path fill="none" stroke="#00336a" stroke-width="2" d="M12.24 47.48H2V19.36a1.72 1.72 0 0 1 1.71-1.71h6.85a1.72 1.72 0 0 1 1.71 1.71zM29.78 43.15V46a1.4 1.4 0 0 1-1.4 1.4h-5.61a1.4 1.4 0 0 1-1.4-1.4v-3m39.24 0v3a1.4 1.4 0 0 1-1.4 1.4h-5.6A1.41 1.41 0 0 1 52.2 46v-2.85M56.42 24.84H62M20 31.94h8.52l3.58 5.61h-12m42-5.61h-8.6l-3.59 5.61h11.83" style="stroke: #003369;"/><path fill="none" stroke="#00336a" stroke-miterlimit="3" stroke-width="2" d="M22.07 43.15a2.1 2.1 0 0 1-2.1-2.1V30.54l5.6-5.61 5.61-8.41H50.8l5.61 8.41L62 30.54v10.51a2.11 2.11 0 0 1-2.11 2.1z" style="stroke: #003369;"/><path fill="none" stroke="#00336a" stroke-width="2" d="M29.78 37.55h24.41M24.53 25.97h32.92M36 31.94h10.73M5.12 20.72h3.96v8.23H5.12zM12.24 43.15a3.82 3.82 0 0 0 3.83-3.83V26.94" style="stroke: #003369;"/><path fill="none" stroke="#00336a" stroke-width="2" d="M14.47 28.39l4.79-3.55h5.78" style="stroke: #003369;"/></svg>
