<?xml version="1.0" encoding="UTF-8"?>
<svg xmlns="http://www.w3.org/2000/svg" data-name="Layer 1" viewBox="0 0 64 64"><path fill="none" stroke="#00336a" stroke-miterlimit="3" stroke-width="2" d="M46.88 11.5v5.32h4.88V11.5" style="stroke: #003369;"/><path fill="none" stroke="#00336a" stroke-miterlimit="3" stroke-width="2" d="M46.88 16.81h-2.51v4.31a5.13 5.13 0 0 0 .12 1.12 5 5 0 0 0 4.83 3.83 5 5 0 0 0 4.84-3.83 5.13 5.13 0 0 0 .12-1.12v-4.31h-2.52" style="stroke: #003369;"/><path fill="none" stroke="#00336a" stroke-width="2" d="M36.12 57.3H9.72V11.1a4.4 4.4 0 0 1 4.4-4.4h17.6a4.4 4.4 0 0 1 4.4 4.4zM49.32 26.5v19.8a4.4 4.4 0 0 1-4.4 4.4h0a4.4 4.4 0 0 1-4.4-4.4v-8.95a3.29 3.29 0 0 0-3.3-3.3h-1.1" style="stroke: #003369;"/><path fill="none" stroke="#00336a" stroke-width="2" d="M14.12 11.1h17.6v8.8h-17.6z" style="stroke: #003369;"/><path fill="none" stroke="#00336a" stroke-miterlimit="3" stroke-width="2" d="M20.64 42.77l5.7-8.72h-6.66l5.69-8.72" style="stroke: #003369;"/></svg>
