<?xml version="1.0" encoding="UTF-8"?>
<svg xmlns="http://www.w3.org/2000/svg" data-name="Layer 1" viewBox="0 0 64 64"><path fill="none" stroke="#00336a" stroke-miterlimit="3" stroke-width="2" d="M20.77 33.26l5.18-7.93H19.9l5.17-7.93M46.88 12.05v5.31h4.88v-5.31M46.88 17.36h-2.51v4.31a5.13 5.13 0 0 0 .12 1.12 5 5 0 0 0 4.83 3.83 5 5 0 0 0 4.84-3.83 5.13 5.13 0 0 0 .12-1.12v-4.31h-2.52" style="stroke: #003369;"/><path fill="none" stroke="#00336a" stroke-width="2" d="M36.12 56.75H9.72v-45.1a4.4 4.4 0 0 1 4.4-4.4h17.6a4.4 4.4 0 0 1 4.4 4.4zM49.32 27.05v19.8a4.4 4.4 0 0 1-4.4 4.4h0a4.4 4.4 0 0 1-4.4-4.4V28.7a3.3 3.3 0 0 0-3.3-3.3h-1.1" style="stroke: #003369;"/><path fill="none" stroke="#00336a" stroke-width="2" d="M14.12 11.65h17.6v23.61a8.8 8.8 0 1 1-17.6 0z" style="stroke: #003369;"/></svg>
