<?xml version="1.0" encoding="UTF-8"?>
<svg xmlns="http://www.w3.org/2000/svg" aria-describedby="desc" aria-labelledby="title" viewBox="0 0 64 64"><path fill="none" stroke="#003369" stroke-miterlimit="10" stroke-width="2" d="M48.5 36.5c.7.4 1.7 1.1 1.5 2.5a7.2 7.2 0 0 1-6.8 5c-4.5 0-10-3.5-14.8-8.4S20 25.3 20 20.8a7.2 7.2 0 0 1 5-6.8c1.4-.2 2 .9 2.5 1.5l3.4 5.2a2.4 2.4 0 0 1-.6 3.3c-1.5 1.2-2.9 1.6 2.6 7.1s5.9 4.1 7.1 2.6a2.4 2.4 0 0 1 3.3-.6z" data-name="layer2" style="stroke: #003369;"/><path fill="none" stroke="#003369" stroke-miterlimit="10" stroke-width="2" d="M34 2A28 28 0 0 0 9.3 43.2L3.2 60.8l17.5-6.1A28 28 0 1 0 34 2z" data-name="layer1" style="stroke: #003369;"/></svg>
