<?xml version="1.0" encoding="UTF-8"?>
<svg xmlns="http://www.w3.org/2000/svg" aria-describedby="desc" aria-labelledby="title" viewBox="0 0 64 64"><circle cx="34" cy="29" r="2" fill="none" stroke="#003369" stroke-miterlimit="10" stroke-width="2" data-name="layer1" style="stroke: #003369;"/><circle cx="39" cy="38" r="2" fill="none" stroke="#003369" stroke-miterlimit="10" stroke-width="2" data-name="layer1" style="stroke: #003369;"/><circle cx="36" cy="51" r="2" fill="none" stroke="#003369" stroke-miterlimit="10" stroke-width="2" data-name="layer1" style="stroke: #003369;"/><circle cx="28" cy="38" r="3" fill="none" stroke="#003369" stroke-miterlimit="10" stroke-width="2" data-name="layer1" style="stroke: #003369;"/><path fill="none" stroke="#003369" stroke-miterlimit="10" stroke-width="2" d="M24 8h16M28 8V4a2 2 0 0 1 2-2h4a2 2 0 0 1 2 2v4m-9 0v13.316a4.909 4.909 0 0 1-2.929 4.435 18.971 18.971 0 0 0-11.057 17.876m37.626 3.039a18.955 18.955 0 0 0-10.723-20.92A4.883 4.883 0 0 1 37 21.331V8" data-name="layer2" style="stroke: #003369;"/><path fill="none" stroke="#003369" stroke-miterlimit="10" stroke-width="2" d="M32.022 44.986a25.393 25.393 0 0 1-19.008-1.359c.018.568.057 1.14.126 1.717a19 19 0 0 0 37.5 1.322c-3.852-2.566-10.476-4.394-18.618-1.68z" data-name="layer1" style="stroke: #003369;"/></svg>
