<?xml version="1.0" encoding="UTF-8"?>
<svg xmlns="http://www.w3.org/2000/svg" aria-describedby="desc" aria-labelledby="title" viewBox="0 0 64 64"><path fill="none" stroke="#003369" stroke-width="2" d="M11.1 17.5a6 6 0 1 1 10.6-5.3M4 2c3.2 0 8.7 2.2 9.9 6.3" data-name="layer2" style="stroke: #003369;"/><path fill="none" stroke="#003369" stroke-width="2" d="M60 58a4 4 0 0 0-4-4c-8.4 0-13.5-2.6-18.5-15.6s-6.5-18.2-9.2-22l-.9-1.1h-.1A10 10 0 0 0 10 22v.4c0 12 19.9 39.5 45.9 39.6h.2a4 4 0 0 0 3.9-4z" data-name="layer1" style="stroke: #003369;"/></svg>
