<?xml version="1.0" encoding="UTF-8"?>
<svg xmlns="http://www.w3.org/2000/svg" data-name="Layer 1" viewBox="0 0 64 64"><path fill="none" stroke="#003369" stroke-miterlimit="10" stroke-width="2" d="M25.2 42.8h0M36.36 37.19s3.23-1.83 5.89-1.42" style="stroke: #003369;"/><path fill="none" stroke="#003369" stroke-miterlimit="10" stroke-width="2" d="M24.5 51.6c-.07-1.87-.43-7 1.42-9.32a16.48 16.48 0 0 1 6.2-5c1.66-.58 2.71-1.23 3.66-.61a4.42 4.42 0 0 1 1.77 3.41c-.12 1.11-.16 4.51-1.73 6.7a14.83 14.83 0 0 1-6.31 5c-2.13.71-4 1.87-4.49 1.41a2.8 2.8 0 0 1-.52-1.59z" style="stroke: #003369;"/><path fill="none" stroke="#003369" stroke-linejoin="round" stroke-width="2" d="M26.22 48.53l2.17 1.57M26.56 45.86l4.26 3.09M27.26 43.56l5.53 4.02M28.54 41.71l5.61 4.08M30.35 40.12l4.76 3.45M32.79 38.96l2.66 1.93M51.88 27c5 11.67 1.9 24.69.78 27.72S54.57 57 55.13 59s-1.91 2.81-1.91 2.81H10.78S8.31 61 8.87 59s3.59-1.23 2.47-4.26-4.27-16 .78-27.72" style="stroke: #003369;"/><path fill="none" stroke="#003369" stroke-linejoin="round" stroke-width="2" d="M35.9 30.66c5.53-.19 11.15-.78 16-3.62 1.9-1.12 2.13-3.81 2.24-5.83s-1.27-7.85-2.24-6.51c-1.41 1.94-4.76 2.6-6.92 3.11a57.1 57.1 0 0 1-25.94 0c-2.15-.51-5.49-1.17-6.9-3.11-1-1.34-2.35 4.49-2.24 6.51s.34 4.71 2.24 5.83c6 3.52 13.12 3.83 19.89 3.71zM14.7 11.47c-1.23.48-3.15 1.61-2.58 3.23M51.88 14.7c.47-1.34-.84-2.42-1.92-2.93" style="stroke: #003369;"/><path fill="none" stroke="#003369" stroke-linejoin="round" stroke-width="2" d="M15.44 14.74a29 29 0 0 0 .5-7.15c-.38-2.59 1.11-2.35 1.85-1.73s3 4.58 4.58 6.81.81 4.46-.87 4.82M21.57 10.48a3.26 3.26 0 0 1 2.3-2.14M42.42 16.06s-.38-3.26.49-4.76 1.83-3.32 2.21-4 .86-.53 1.62 1 1.26 3.23 1.86 3.84-.07 3.15-.07 3.15M27.25 17.49c-1.1-1.65.32-6.65 1.28-7s3.18 1.88 3.75 2.75c1.7 2.61 1.13 5.15.67 4.26M24.32 9.91A9.75 9.75 0 0 1 25.74 6c1.26-2.4 2.49-1.7 3.07 0s1.36 3.92 1.36 3.92M34.07 14.5c-.2-1.51 1.23-3.15 4.31-5 1.49-.87 1.74-2.22 1.87-1.48a46.9 46.9 0 0 1-.5 5.18 10.09 10.09 0 0 1-.25 3.1 3.18 3.18 0 0 1-1.12 1.16M31.67 7.79s1.93-2.59 3.5-4.24 1.84-1.93 2-.24.66 4.17-.3 4.59" style="stroke: #003369;"/></svg>
