<?xml version="1.0" encoding="UTF-8"?>
<svg xmlns="http://www.w3.org/2000/svg" data-name="Layer 1" viewBox="0 0 64 64"><path fill="none" stroke="#003369" stroke-miterlimit="10" stroke-width="2" d="M6 55.22h0a2.14 2.14 0 0 1-.12-.84 61 61 0 0 1 1.28-14.4c2-8.53 7.71-14.71 14.86-19.38 5-3.26 14-8.7 20.2-5.84 6.76 3.09 6.1 11 4.23 17-2.71 8.58-7.22 16.6-15.85 20.24a59.06 59.06 0 0 1-13.55 3.78c-1.86.35-9.87 1.91-11.05-.56zM29.16 24.14c1.95-1.93 8-5 10-5.87M9.78 48.51c1.32-8.94 9-15.89 15.61-22.13M13.52 52.17s12.79-1.9 31.28-28.44M45.67 17.43s5.31-7.92 11.9-10" style="stroke: #003369;"/></svg>
