<?xml version="1.0" encoding="UTF-8"?>
<svg xmlns="http://www.w3.org/2000/svg" data-name="Layer 1" viewBox="0 0 64 64"><path fill="none" stroke="#003369" stroke-miterlimit="10" stroke-width="2" d="M20.47 36.92h0M45.27 21.23c-3.22-4-13.8-5.81-18.24-5.3-6.36.73-12.27 3-16.48 8a46 46 0 0 0-5.69 9.23 1.63 1.63 0 0 0-.2.61v0c0 2.06 5.87 3.7 7.21 4.12a47.8 47.8 0 0 0 7.07 1.65M30.64 20.74a26 26 0 0 1 7.2-.61M9.46 30.58C13.34 25 20.86 23 27.36 21M10.73 34.29c3.67 1 8 .11 11.54-.77M43.4 22.16s7.6-4.32 13.9-3.34" style="stroke: #003369;"/><path fill="none" stroke="#003369" stroke-linejoin="round" stroke-width="2" d="M49.69 19.57s-5.54-7.69-2.48-12.64 2.71-4.09 2.71-4.09 3.31 5.05 2.69 8.67a34.75 34.75 0 0 1-2.92 8.06s.46-6.79.31-11.42" style="stroke: #003369;"/><path fill="none" stroke="#003369" stroke-linejoin="round" stroke-width="2" d="M49.34 19.35S45.4 6.25 37 5.41s-7-.49-7-.49 2.88 8.23 7.56 10.69 11.81 3.74 11.81 3.74S41.15 13.92 36 9.68" style="stroke: #003369;"/><path fill="none" stroke="#003369" stroke-miterlimit="10" stroke-width="2" d="M18.82 57.68c-.16-4.4-1-16.41 3.36-22S32.89 25.34 36.81 24s6.38-2.91 8.62-1.43 4.47 5.4 4.19 8-.38 10.64-4.09 15.83-9.88 10.21-14.89 11.89-9.41 4.42-10.59 3.33-1.23-3.94-1.23-3.94z" style="stroke: #003369;"/><path fill="none" stroke="#003369" stroke-linejoin="round" stroke-width="2" d="M22.43 56.48s-1.5-3.69-.81-4.88 1.11-1.39 1.27-1.16-1.43-3.26-.77-4.64.93-2.06 1.57-1.65-1-2.07-.54-3.28 1.2-2.68 2.18-2.14c.56.31.19-.78.15-1a2.84 2.84 0 0 1 .65-2.61c1.64-1.54 2.22-.76 2.22-.75-.64-.88.56-2.31 1.26-2.77a13.18 13.18 0 0 1 3-1 1.77 1.77 0 0 1 .64-1.5c.77-.7 3-2.41 4.08-1.82l1 .59c-.3-.17-.31-.75-.23-1 .46-1.38 4.61-2.6 5.69-1.68l.81.69z" style="stroke: #003369;"/><path fill="none" stroke="#003369" stroke-linejoin="round" stroke-width="2" d="M22.39 56.45s4 .28 4.89-.74 1-1.48.72-1.57 3.54.35 4.64-.7 1.67-1.52 1.09-2 2.26.29 3.29-.5 2.17-2 1.35-2.74c-.46-.44.69-.42.91-.46a2.87 2.87 0 0 0 2.3-1.42c1-2 0-2.35 0-2.35 1 .34 2-1.24 2.24-2a13.52 13.52 0 0 0 0-3.18 1.75 1.75 0 0 0 1.23-1.07c.43-1 1.35-3.63.47-4.44l-.88-.82c.24.23.8.07 1-.1 1.17-.86 1.05-5.18-.16-5.92l-.91-.56zM22.89 50.44l5.11 3.7M23.69 44.15l10.04 7.29M25.33 38.73l13.04 9.47M28.35 34.36l13.25 9.61M32.62 30.6l11.23 8.15M38.39 27.87l6.28 4.55" style="stroke: #003369;"/></svg>
