<?xml version="1.0" encoding="UTF-8"?>
<svg xmlns="http://www.w3.org/2000/svg" data-name="Layer 1" viewBox="0 0 64 64"><path fill="none" stroke="#003369" stroke-miterlimit="10" stroke-width="2" d="M2.2 59.77h0a2.24 2.24 0 0 1-.13-.89A64.76 64.76 0 0 1 3.4 43.62c2.12-9 8.15-15.55 15.71-20.49 5.26-3.44 14.77-9.19 21.36-6.17 7.13 3.27 6.43 11.66 4.46 18-2.83 9.04-7.6 17.56-16.72 21.45a63 63 0 0 1-14.32 4c-1.97.32-10.43 1.97-11.69-.64zM26.69 26.92c2.06-2 8.41-5.24 10.52-6.2M6.21 52.68c1.39-9.45 9.55-16.8 16.49-23.4M10.15 56.54s13.53-2 33.07-30.06M43.66 20.66s6.87-10.25 15.4-13" style="stroke: #003369;"/><path fill="none" stroke="#003369" stroke-linejoin="round" stroke-width="2" d="M51.62 13.09s13.84 13.4 9.48 24.41-4 9.17-4 9.17-8.43-8.94-8.48-16.39 3-17.19 3-17.19 1.5 13.76 3.45 23M50.42 13.37S37.2-.64 26.13 3.57s-9.21 3.84-9.21 3.84 8.82 8.59 16.28 8.7 17.22-2.74 17.22-2.74-13.74-1.68-22.93-3.75" style="stroke: #003369;"/></svg>
