<?xml version="1.0" encoding="UTF-8"?>
<svg xmlns="http://www.w3.org/2000/svg" data-name="Layer 1" viewBox="0 0 64 64"><path fill="none" stroke="#003369" stroke-miterlimit="10" stroke-width="2" d="M10.2 28.39h0M43.68 11.57s9.69-5.5 17.68-4.25" style="stroke: #003369;"/><path fill="none" stroke="#003369" stroke-miterlimit="10" stroke-width="2" d="M8.1 54.8c-.2-5.6-1.28-20.87 4.27-28S26 13.67 31 11.94s8.11-3.71 11-1.82 5.68 6.87 5.32 10.2-.48 13.53-5.2 20.13-12.57 13-18.94 15.13-12 5.62-13.47 4.24S8.1 54.8 8.1 54.8z" style="stroke: #003369;"/><path fill="none" stroke="#003369" stroke-linejoin="round" stroke-width="2" d="M12.69 53.28s-1.91-4.69-1-6.21 1.4-1.77 1.61-1.48-1.81-4.14-1-5.9 1.18-2.61 2-2.1-1.25-2.59-.7-4.17 1.53-3.4 2.78-2.72c.71.39.23-1 .19-1.28a3.62 3.62 0 0 1 .82-3.33c2.09-2 2.83-1 2.83-1-.81-1.11.72-2.92 1.6-3.51.24-.16 3.79-1.5 3.83-1.26a2.25 2.25 0 0 1 .81-1.91c1-.89 3.86-3.06 5.19-2.32l1.34.75c-.38-.21-.4-.95-.29-1.28.58-1.75 5.86-3.3 7.23-2.13l1 .88z" style="stroke: #003369;"/><path fill="none" stroke="#003369" stroke-linejoin="round" stroke-width="2" d="M12.64 53.24s5.05.36 6.22-.94 1.25-1.89.91-2 4.5.45 5.91-.89 2.12-1.93 1.39-2.55 2.87.37 4.17-.63S34 43.72 33 42.74c-.59-.55.87-.53 1.16-.57A3.66 3.66 0 0 0 37 40.36c1.22-2.6 0-3 0-3 1.32.43 2.57-1.59 2.85-2.61.08-.28.26-4.07 0-4a2.26 2.26 0 0 0 1.56-1.37c.54-1.21 1.72-4.61.6-5.65l-1.13-1c.32.29 1 .08 1.31-.13 1.49-1.1 1.33-6.59-.21-7.54l-1.16-.71zM13.27 45.59l6.5 4.71M14.29 37.59l12.78 9.27M16.38 30.7l16.59 12.04M20.22 25.13l16.85 12.24M25.65 20.36l14.29 10.37M32.99 16.88l7.98 5.8" style="stroke: #003369;"/></svg>
