<?xml version="1.0" encoding="UTF-8"?>
<svg xmlns="http://www.w3.org/2000/svg" data-name="Layer 1" viewBox="0 0 64 64"><path fill="none" stroke="#003369" stroke-miterlimit="10" stroke-width="2" d="M5.11 57.84v-.05a2.68 2.68 0 0 1-.16-1.09 79.37 79.37 0 0 1 1.63-18.64c2.6-11 10-19 19.24-25.08C32.26 8.77 43.9 1.73 52 5.42c8.74 4 7.89 14.28 5.48 22C54 38.59 48.12 49 37 53.72a76.71 76.71 0 0 1-17.54 4.9C17 59 6.66 61 5.11 57.84zM35.09 17.62C37.62 15.12 45.4 11.2 48 10M10 49.16c1.7-11.57 11.7-20.57 20.2-28.65M14.85 53.89s16.56-2.46 40.49-36.81" style="stroke: #003369;"/></svg>
