<?xml version="1.0" encoding="UTF-8"?>
<svg xmlns="http://www.w3.org/2000/svg" aria-describedby="desc" aria-labelledby="title" viewBox="0 0 64 64"><path fill="none" stroke="#003369" stroke-miterlimit="10" stroke-width="2" d="M32 62H6a4 4 0 0 1-4-4 4 4 0 0 1 4-4h48a8 8 0 0 0 8-8 8 8 0 0 0-8-8H41" data-name="layer2" style="stroke: #003369;"/><path fill="none" stroke="#003369" stroke-miterlimit="10" stroke-width="2" d="M15.4 27.5L9.2 30a15.9 15.9 0 0 1 0-12l6.2 2.5m4.9-5.1l-2.6-6.1A15.9 15.9 0 0 1 29.6 9l-2.3 6.2m5.3 5.1l6.1-2.6a16 16 0 0 1 0 12.7l-6.1-2.6m-5.3 4.9l2.3 6.3a15.9 15.9 0 0 1-11.9-.3l2.6-6.1" data-name="layer1" style="stroke: #003369;"/><circle cx="24" cy="24" r="22" fill="none" stroke="#003369" stroke-miterlimit="10" stroke-width="2" data-name="layer1" style="stroke: #003369;"/><circle cx="24" cy="24" r="4" fill="none" stroke="#003369" stroke-miterlimit="10" stroke-width="2" data-name="layer2" style="stroke: #003369;"/></svg>
