<?xml version="1.0" encoding="UTF-8"?>
<svg xmlns="http://www.w3.org/2000/svg" aria-describedby="desc" aria-labelledby="title" viewBox="0 0 64 64"><path fill="none" stroke="#003369" stroke-miterlimit="10" stroke-width="2" d="M39 33.5L29 46h8l-9.6 12" data-name="layer1" style="stroke: #003369;"/><path fill="none" stroke="#003369" stroke-miterlimit="10" stroke-width="2" d="M45 38h3.8A10.1 10.1 0 0 0 59 28.1a10.1 10.1 0 0 0-10.2-9.9h-1A13.6 13.6 0 0 0 35.1 10a13.5 13.5 0 0 0-13.5 11.5h-.1a8.2 8.2 0 1 0 0 16.5H27m-8.3-16A10 10 0 1 1 29 11.4" data-name="layer2" style="stroke: #003369;"/><path fill="none" stroke="#003369" stroke-miterlimit="10" stroke-width="2" d="M9 58.5L6.2 62M19 46l-5.9 7.4m31.9.1L38.2 62M51 46l-1.6 2" data-name="layer1" style="stroke: #003369;"/></svg>
