<?xml version="1.0" encoding="UTF-8"?>
<svg xmlns="http://www.w3.org/2000/svg" aria-describedby="desc" aria-labelledby="title" viewBox="0 0 64 64"><path fill="none" stroke="#003369" stroke-miterlimit="10" stroke-width="2" d="M46.8 38A10.1 10.1 0 0 0 57 28.1a10.1 10.1 0 0 0-10.2-9.9h-1A13.6 13.6 0 0 0 33.1 10a13.5 13.5 0 0 0-13.5 11.5h-.1a8.2 8.2 0 1 0 0 16.5zM16.7 22A10 10 0 1 1 27 11.4" data-name="layer2" style="stroke: #003369;"/><path fill="none" stroke="#003369" stroke-miterlimit="10" stroke-width="2" d="M19 46v4m2-2h-4m18 0h-4m2 2v-4m-5 12h-4m2 2v-4m14 0v4m2-2h-4m9-12v4m2-2h-4" data-name="layer1" style="stroke: #003369;"/></svg>
