<?xml version="1.0" encoding="UTF-8"?>
<svg xmlns="http://www.w3.org/2000/svg" aria-describedby="desc" aria-labelledby="title" viewBox="0 0 64 64"><path fill="none" stroke="#003369" stroke-width="2" d="M24.7 18a24 24 0 0 0-10 14m46.5 0a24 24 0 0 0-10-14M14.8 32a24 24 0 0 0 7.4 24h31.6a24 24 0 0 0 7.4-24z" data-name="layer2" style="stroke: #003369;"/><path fill="none" stroke="#003369" stroke-width="2" d="M60 8s-35.3 2.3-40.9 3.3S2 22.6 2 38c0 2.4.3 4 2 4s1.8-1.5 2-4 6-20 16-20h32z" data-name="layer1" style="stroke: #003369;"/></svg>
