<?xml version="1.0" encoding="UTF-8"?>
<svg xmlns="http://www.w3.org/2000/svg" aria-describedby="desc" aria-labelledby="title" viewBox="0 0 64 64"><path fill="none" stroke="#003369" stroke-width="2" d="M54 18c-3.7 4.9-5.9 5.8-12 6-4.4.1-7.7.9-9.9 3.1" data-name="layer2" style="stroke: #003369;"/><path fill="none" stroke="#003369" stroke-width="2" d="M40 42c9-.1 18-6.1 21-14.5S59 9.6 49.1 8.2s-20.7 5-24.1 14.3l-.2.7" data-name="layer2" style="stroke: #003369;"/><path fill="none" stroke="#003369" stroke-width="2" d="M10 32c3.7 4.9 5.9 5.8 12 6s9.9 1.6 12 6" data-name="layer1" style="stroke: #003369;"/><path fill="none" stroke="#003369" stroke-width="2" d="M39 36.5c3.4 9.3-2 17.9-11.9 19.3S6.4 50.8 3 41.5s2-17.9 11.9-19.3 20.7 5 24.1 14.3z" data-name="layer1" style="stroke: #003369;"/></svg>
