<?xml version="1.0" encoding="UTF-8"?>
<svg xmlns="http://www.w3.org/2000/svg" aria-describedby="desc" aria-labelledby="title" viewBox="0 0 64 64"><path fill="none" stroke="#003369" stroke-width="2" d="M32 36C9.5 28.7 6.2 16 6.2 10.7 2.3 16.1.9 23.7 3 32c4.1 16.6 20.4 30 36.5 30a24.9 24.9 0 0 0 8.5-1.5c2.2-1.3 4.7-17.8-16-24.5z" data-name="layer2" style="stroke: #003369;"/><path fill="none" stroke="#003369" stroke-width="2" d="M34.1 28C56 34.2 57.8 53.2 57.8 53.2c3.9-5.4 5.3-12.9 3.2-21.2C56.9 15.4 40.6 2 24.5 2a24.9 24.9 0 0 0-8.6 1.5C13.5 4.8 11.6 21.7 34.1 28z" data-name="layer1" style="stroke: #003369;"/></svg>
