<?xml version="1.0" encoding="UTF-8"?>
<svg xmlns="http://www.w3.org/2000/svg" aria-describedby="desc" aria-labelledby="title" viewBox="0 0 64 64"><ellipse cx="44" cy="7.1" fill="none" stroke="#003369" stroke-miterlimit="10" stroke-width="2" data-name="layer2" rx="18" ry="5.1" style="stroke: #003369;"/><path fill="none" stroke="#003369" stroke-miterlimit="10" stroke-width="2" d="M26 14.9c0 2.8 8.1 5.1 18 5.1s18-2.3 18-5.1m-36 8c0 2.8 8.1 5.1 18 5.1s18-2.3 18-5.1m-36 8c0 2.8 8.1 5.1 18 5.1s18-2.3 18-5.1M38 43.7c1.9.2 3.9.3 6 .3 9.9 0 18-2.3 18-5.1m-36-2.8V7.5" data-name="layer2" style="stroke: #003369;"/><path fill="none" stroke="#003369" stroke-miterlimit="10" stroke-width="2" d="M62 7.1v39.8c0 2.8-8.1 5.1-18 5.1-2.1 0-4.1-.1-6-.3" data-name="layer2" style="stroke: #003369;"/><ellipse cx="20" cy="40.9" fill="none" stroke="#003369" stroke-miterlimit="10" stroke-width="2" data-name="layer1" rx="18" ry="5.1" style="stroke: #003369;"/><path fill="none" stroke="#003369" stroke-miterlimit="10" stroke-width="2" d="M2 48.9c0 2.8 8 5.1 18 5.1s18-2.3 18-5.1" data-name="layer1" style="stroke: #003369;"/><path fill="none" stroke="#003369" stroke-miterlimit="10" stroke-width="2" d="M38 40.9v16c0 2.8-8.1 5.1-18 5.1S2 59.7 2 56.9V41.3" data-name="layer1" style="stroke: #003369;"/></svg>
