<?xml version="1.0" encoding="UTF-8"?>
<svg xmlns="http://www.w3.org/2000/svg" aria-describedby="desc" aria-labelledby="title" viewBox="0 0 64 64"><path fill="none" stroke="#003369" stroke-miterlimit="10" stroke-width="2" d="M32 52h26v10H32zm4 0V42h26v10h-4M36 42h-4V32h26v10" data-name="layer1" style="stroke: #003369;"/><path fill="none" stroke="#003369" stroke-miterlimit="10" stroke-width="2" d="M26 52H6v10h20m0-20H2v10h4m20-20H6v10" data-name="layer2" style="stroke: #003369;"/><path fill="none" stroke="#003369" stroke-miterlimit="10" stroke-width="2" d="M36 32V22h26v10h-4M36 22h-4V12h26v10M36 12V2h26v10h-4" data-name="layer1" style="stroke: #003369;"/><path fill="none" stroke="#003369" stroke-miterlimit="10" stroke-width="2" d="M14 32v10m-4 0v10m4 0v10" data-name="layer2" style="stroke: #003369;"/><path fill="none" stroke="#003369" stroke-miterlimit="10" stroke-width="2" d="M40 32v10m4 0v10m0-30v10m-4-20v10m4-20v10m-4 40v10" data-name="layer1" style="stroke: #003369;"/></svg>
