<?xml version="1.0" encoding="UTF-8"?>
<svg xmlns="http://www.w3.org/2000/svg" aria-describedby="desc" aria-labelledby="title" viewBox="0 0 64 64"><circle cx="46" cy="20" r="4" fill="none" stroke="#003369" stroke-miterlimit="10" stroke-width="2" data-name="layer2" transform="rotate(-45 46.003 20.045)" style="stroke: #003369;"/><circle cx="32" cy="14" r="4" fill="none" stroke="#003369" stroke-miterlimit="10" stroke-width="2" data-name="layer2" transform="rotate(-45 31.98 13.954)" style="stroke: #003369;"/><circle cx="19" cy="19" r="3" fill="none" stroke="#003369" stroke-miterlimit="10" stroke-width="2" data-name="layer2" transform="rotate(-45 18.985 19.036)" style="stroke: #003369;"/><circle cx="15" cy="33" r="5" fill="none" stroke="#003369" stroke-miterlimit="10" stroke-width="2" data-name="layer2" transform="rotate(-45 15.004 33.085)" style="stroke: #003369;"/><path fill="none" stroke="#003369" stroke-miterlimit="10" stroke-width="2" d="M18.9 46C29 46 36 42.1 35 49.4c-.6 4.3-9 .4-9 7.5 0 3.3 3 4.9 7.1 5.1a29.8 29.8 0 0 0 14.2-4.2l.7-.5 1.3-.8a30 30 0 1 0-47-20.4C3.5 42.3 8.9 46 18.9 46z" data-name="layer1" style="stroke: #003369;"/></svg>
