<?xml version="1.0" encoding="UTF-8"?>
<svg xmlns="http://www.w3.org/2000/svg" data-name="Layer 1" viewBox="0 0 64 64"><path fill="none" stroke="#003369" stroke-linejoin="round" stroke-width="2" d="M52.17 20.76C57.29 32.6 54.1 49.4 53 52.47s1.93 2.28 2.5 4.33-1.93 2.84-1.93 2.84H10.46S8 58.85 8.53 56.8s3.64-1.26 2.5-4.33-4.32-19.87.8-31.71" style="stroke: #003369;"/><path fill="none" stroke="#003369" stroke-linejoin="round" stroke-width="2" d="M36 24.42c5.61-.18 11.31-.78 16.21-3.66 1.93-1.14 2.16-3.87 2.28-5.92s-1.3-8-2.28-6.61c-1.43 2-4.83 2.64-7 3.16a57.91 57.91 0 0 1-26.32 0c-2.18-.51-5.58-1.18-7-3.15-1-1.36-2.39 4.56-2.28 6.61s.35 4.78 2.28 5.92c6.01 3.56 13.25 3.87 20.11 3.75 1.31-.03 2.63-.05 4-.1z" style="stroke: #003369;"/><path fill="none" stroke="#003369" stroke-miterlimit="10" stroke-width="2" d="M32.18 44.2C24 43.87 22 37.32 21.49 35h.36c8.15 0 9.95 6.78 10.33 9.2zM32.67 44.2c.39-2.46 2.24-9.43 10.7-9.24-.48 2.36-2.53 8.96-10.7 9.24zM32.43 45.21v4.87" style="stroke: #003369;"/><path fill="none" stroke="#003369" stroke-linejoin="round" stroke-width="2" d="M11.83 8.23s.48-1.88 1.26-1.49 1.47.72 1.47.72l1.24-.77s1.94-.29 2.25 0S19.83 8 19.83 8H21s.93.09 1-1.14a3.08 3.08 0 0 1 1.09-2 6.89 6.89 0 0 0 1.62 2 4 4 0 0 0 2.13.7l2.21-.7 1.09-.38L31.45 8a6.53 6.53 0 0 1 4.89-3.46c5-.84 3.48 1.08 3.48 1.08v1.27l1.94.47h.93l1.63-.47c1.72-2.58 3-1.57 3-.46l.93.46 1.4.47.93.08a2.94 2.94 0 0 1 .46 1.47" style="stroke: #003369;"/></svg>
