<?xml version="1.0" encoding="UTF-8"?>
<svg xmlns="http://www.w3.org/2000/svg" data-name="Ebene 1" viewBox="0 0 64 64"><circle cx="31.25" cy="14.47" r="5.19" fill="none" stroke="#003369" stroke-miterlimit="10" stroke-width="2" style="stroke: #003369;"/><path fill="none" stroke="#003369" stroke-miterlimit="10" stroke-width="2" d="M25.09 42.52V62.1M37.41 62.1V43.02M31.25 44.48V62.1M45.94 62.1H16.57M18.85 10.29L29.8 1.9M24.85 43.13l6.42-12.28-2.61-8.16" style="stroke: #003369;"/><path fill="none" stroke="#003369" stroke-miterlimit="10" stroke-width="2" d="M37.24 48.22l2.14-2.4V29.69l6.91 4.38 3.8-2.81c2.15-1.48 4-3.88 1.4-5.61l-4.79 3.22-8.21-6.05H25l-8.53-1.88 3.53-9.8c-1.32-.66-3.2-2.31-5.23 2.76l-3.53 10 12.06 3.86-.12 18.14 1.75 1.9" style="stroke: #003369;"/><path fill="none" stroke="#003369" stroke-miterlimit="10" stroke-width="2" d="M34.4 22.56l-2.87 8.51L37.7 43.4" style="stroke: #003369;"/></svg>
