<?xml version="1.0" encoding="UTF-8"?>
<svg xmlns="http://www.w3.org/2000/svg" data-name="Ebene 1" viewBox="0 0 64 64"><circle cx="34.16" cy="14.85" r="5.19" fill="none" stroke="#003369" stroke-miterlimit="10" stroke-width="2" style="stroke: #003369;"/><path fill="none" stroke="#003369" stroke-miterlimit="10" stroke-width="2" d="M28 42.91v19.58M40.32 62.49V43.4M34.16 44.87v17.62M48.85 62.49H19.48M13.5 13.97L8.17 1.51M27.76 43.52l6.42-12.28-2.61-8.16" style="stroke: #003369;"/><path fill="none" stroke="#003369" stroke-miterlimit="10" stroke-width="2" d="M40.15 48.6l2.14-2.39V28.45l10.14-4.87 2.68-5.74c1.47-3.12.69-4.89-2.22-6.56l-3.77 8.41-7.72 3.52H27.92l-10.06-2.6-3.33-8c-2.91 1.67-3.22 3.59-1.74 6.71l3 6.38 10.51 2.75-.18 17.81 1.75 1.9" style="stroke: #003369;"/><path fill="none" stroke="#003369" stroke-miterlimit="10" stroke-width="2" d="M37.31 22.95l-2.87 8.51 6.18 12.32" style="stroke: #003369;"/></svg>
