<?xml version="1.0" encoding="UTF-8"?>
<svg xmlns="http://www.w3.org/2000/svg" aria-describedby="desc" aria-labelledby="title" viewBox="0 0 64 64"><path fill="none" stroke="#003369" stroke-width="2" d="M6 22l3.1-10H23l3 10M12 12l2.7-10h2.8L20 12" data-name="layer2" style="stroke: #003369;"/><rect width="24" height="40" x="4" y="22" fill="none" stroke="#003369" stroke-width="2" data-name="layer2" rx="3" ry="3" style="stroke: #003369;"/><path fill="none" stroke="#003369" stroke-width="2" d="M6 22l3.1-10H23l3 10M12 12l2.7-10h2.8L20 12" data-name="layer2" style="stroke: #003369;"/><rect width="24" height="40" x="4" y="22" fill="none" stroke="#003369" stroke-width="2" data-name="layer2" rx="3" ry="3" style="stroke: #003369;"/><ellipse cx="16" cy="40" fill="none" stroke="#003369" stroke-width="2" data-name="layer2" rx="6" ry="8" style="stroke: #003369;"/><path fill="none" stroke="#003369" stroke-width="2" d="M38 22l3.1-10H55l3 10M44 12l2.7-10h2.8L52 12" data-name="layer1" style="stroke: #003369;"/><rect width="24" height="40" x="36" y="22" fill="none" stroke="#003369" stroke-width="2" data-name="layer1" rx="3" ry="3" style="stroke: #003369;"/><ellipse cx="48" cy="40" fill="none" stroke="#003369" stroke-width="2" data-name="layer1" rx="6" ry="8" style="stroke: #003369;"/></svg>
