<?xml version="1.0" encoding="UTF-8"?>
<svg xmlns="http://www.w3.org/2000/svg" data-name="Ebene 1" viewBox="0 0 64 64"><circle cx="33.56" cy="11.61" r="4.39" fill="none" stroke="#003369" stroke-miterlimit="10" stroke-width="2" style="stroke: #003369;"/><path fill="none" stroke="#003369" stroke-miterlimit="10" stroke-width="2" d="M28.36 34.51v17.31M38.76 51.82V34.84M33.56 36.95v14.87M50.92 61.74h-4.96v-9.91h-24.8v9.91H16.2" style="stroke: #003369;"/><path fill="none" stroke="#003369" stroke-miterlimit="10" stroke-width="2" d="M27.36 56.78h12.4v4.96h-12.4zM16.2 14.45L11.89 2.26M36.22 18.44l-2.43 8.48 6.64 11.58V23.37L48.89 25l2.64-6.06c1.25-2.63.46-4.25-2-5.66l-3.18 7.09-6.69-1.7H28.29l-8 1.76-3.18-7.1c-2.46 1.41-3.24 3-2 5.67l2.64 6.06 9-1.55v14.64l6.82-11.34-2.2-8.26" style="stroke: #003369;"/></svg>
