<?xml version="1.0" encoding="UTF-8"?>
<svg xmlns="http://www.w3.org/2000/svg" aria-describedby="desc" aria-labelledby="title" viewBox="0 0 64 64"><circle cx="50" cy="9" r="6" fill="none" stroke="#003369" stroke-miterlimit="10" stroke-width="2" data-name="layer2" style="stroke: #003369;"/><path fill="none" stroke="#003369" stroke-miterlimit="10" stroke-width="2" d="M44 41v13a3 3 0 0 0 3 3h6a3 3 0 0 0 3-3V41h3a3 3 0 0 0 3-3V24a3 3 0 0 0-3-3H41a3 3 0 0 0-3 3v1" data-name="layer2" style="stroke: #003369;"/><circle cx="14" cy="9" r="6" fill="none" stroke="#003369" stroke-miterlimit="10" stroke-width="2" data-name="layer2" style="stroke: #003369;"/><path fill="none" stroke="#003369" stroke-miterlimit="10" stroke-width="2" d="M26 24a3 3 0 0 0-3-3H5a3 3 0 0 0-3 3v14a3 3 0 0 0 3 3h3v13a3 3 0 0 0 3 3h6a3 3 0 0 0 3-3V41" data-name="layer2" style="stroke: #003369;"/><circle cx="32" cy="13" r="6" fill="none" stroke="#003369" stroke-miterlimit="10" stroke-width="2" data-name="layer1" style="stroke: #003369;"/><path fill="none" stroke="#003369" stroke-miterlimit="10" stroke-width="2" d="M41 25H23a3 3 0 0 0-3 3v14a3 3 0 0 0 3 3h3v13a3 3 0 0 0 3 3h6a3 3 0 0 0 3-3V45h3a3 3 0 0 0 3-3V28a3 3 0 0 0-3-3z" data-name="layer1" style="stroke: #003369;"/></svg>
