<?xml version="1.0" encoding="UTF-8"?>
<svg xmlns="http://www.w3.org/2000/svg" viewBox="0 0 64 64"><path fill="#003369" d="M39.09 38.98c-.69 0-1.33-.27-1.82-.76s-.76-1.14-.76-1.83v-8.95a2.58 2.58 0 0 1 2.57-2.59h6.75c1.42 0 2.58 1.15 2.58 2.57v8.95a2.58 2.58 0 0 1-2.57 2.59h-6.75zm6.73-12.12h-6.75c-.32 0-.58.28-.58.59v8.95c.01.32.28.58.6.58h6.75a.594.594 0 0 0 .58-.59v-8.95a.598.598 0 0 0-.6-.58z" style="fill: #003369;"/><path fill="#003369" d="M34.75 39.99c-1 0-1.81-.81-1.81-1.81V25.69c-.02-.48.17-.94.51-1.28.34-.34.8-.53 1.28-.53h1.94a1.809 1.809 0 0 1 1.81 1.81l.02 12.49c0 1-.81 1.81-1.81 1.81h-1.94zm.17-14.12v12.12h1.58l-.02-12.12h-1.56zM48.84 36.4c-.64 0-1.24-.25-1.69-.7s-.7-1.05-.71-1.69v-4.18c0-.64.24-1.24.7-1.7.45-.45 1.05-.71 1.69-.71h1.91c1.32 0 2.4 1.07 2.4 2.39v4.18c0 1.32-1.07 2.4-2.39 2.4h-1.91zm1.91-6.98h-1.91c-.22 0-.4.19-.4.4V34a.407.407 0 0 0 .4.4h1.91c.22 0 .4-.19.4-.4v-4.18a.407.407 0 0 0-.4-.4zM18.18 39.28c-.69 0-1.33-.27-1.82-.76s-.76-1.14-.76-1.83v-8.95c-.01-.69.26-1.34.74-1.83.49-.49 1.14-.76 1.83-.76h6.75c.69 0 1.33.26 1.82.75s.76 1.14.76 1.83v8.95c.01 1.42-1.15 2.58-2.57 2.59h-6.75zm6.74-12.12h-6.75a.594.594 0 0 0-.58.59v8.95c.01.32.28.58.59.58h6.75c.32 0 .58-.28.58-.59v-8.95a.641.641 0 0 0-.18-.41.583.583 0 0 0-.41-.17z" style="fill: #003369;"/><path fill="#003369" d="M13.29 36.71a2.4 2.4 0 0 1-2.4-2.4v-4.18c0-.64.24-1.24.7-1.7.45-.45 1.05-.71 1.69-.71h1.91c1.32 0 2.4 1.07 2.4 2.39v4.18c0 .64-.24 1.24-.7 1.7-.45.45-1.05.7-1.69.71h-1.91zm1.91-6.98h-1.91a.407.407 0 0 0-.4.4v4.18a.407.407 0 0 0 .4.4h1.91c.22 0 .4-.19.4-.4v-4.18c0-.22-.19-.4-.4-.4z" style="fill: #003369;"/><path fill="#003369" d="M11.84 33.05c-.41-.01-.86-.01-1.34-.01-2.36 0-5.29 0-7.36-1.17-.85-.48-1.54-1.29-2.05-2.4-.53-1.17-.84-3.05-.26-4.4.92-2.14 2.47-2.9 3.98-3.63.4-.2.82-.4 1.24-.64 1.66-.95 2.77-2.06 3.29-3.31.53-1.27.51-2.84-.06-4.42-.25-.69-.59-1.39-1.06-2.13a20.8 20.8 0 0 0-1.5-2.05l1.55-1.26c.68.83 1.2 1.55 1.64 2.25.54.87.95 1.69 1.25 2.52.74 2.06.74 4.14.02 5.87-.7 1.66-2.09 3.1-4.15 4.27-.46.26-.91.48-1.35.7-1.39.67-2.39 1.16-3.01 2.62-.28.64-.17 1.89.24 2.79.33.73.74 1.23 1.21 1.49 1.61.9 4.25.91 6.38.91.49 0 .96 0 1.39.01l-.05 2zM42.65 36.06l-1.78-.9 1.12-2.24h-2.32l2.58-5.14 1.79.89-1.12 2.25h2.31l-2.58 5.14z" style="fill: #003369;"/><g fill="#003369"><path d="M26.5 28.72h4.11v2H26.5zM26.51 33.68h4.1v2h-4.1z" style="fill: #003369;"/></g><path fill="#003369" d="M55.71 56.38c-.68-.83-1.2-1.55-1.64-2.25-.54-.87-.95-1.69-1.25-2.52-.74-2.06-.74-4.14-.02-5.87.7-1.66 2.09-3.1 4.15-4.27.46-.26.91-.48 1.35-.7 1.39-.67 2.39-1.16 3.01-2.62.28-.64.17-1.89-.24-2.79-.33-.73-.74-1.23-1.21-1.49-1.77-1-4.35-.96-6.85-.93h-.88l-.02-1.99h.87c2.76-.05 5.62-.08 7.86 1.18.85.48 1.54 1.29 2.05 2.4.53 1.17.84 3.05.26 4.4-.92 2.14-2.47 2.9-3.98 3.63-.4.2-.82.4-1.24.64-1.66.95-2.77 2.06-3.29 3.31-.53 1.27-.51 2.84.06 4.42.25.69.59 1.39 1.06 2.13.4.63.87 1.28 1.5 2.05l-1.55 1.26z" style="fill: #003369;"/><g fill="#003369"><path d="M36.39 48.68h7.49v2h-7.49z" style="fill: #003369;"/><path d="M38.66 53.03l-3.78-3.34 3.77-3.36 1.33 1.49-2.09 1.86 2.09 1.86-1.32 1.49z" style="fill: #003369;"/></g><g fill="#003369"><path d="M18.13 14.97h7.49v2h-7.49z" style="fill: #003369;"/><path d="M23.36 19.32l-1.33-1.49 2.08-1.86-2.09-1.86 1.33-1.49 3.77 3.35-3.76 3.35z" style="fill: #003369;"/></g></svg>
