<?xml version="1.0" encoding="UTF-8"?>
<svg xmlns="http://www.w3.org/2000/svg" aria-describedby="desc" aria-labelledby="title" viewBox="0 0 64 64"><path fill="none" stroke="#003369" stroke-miterlimit="10" stroke-width="2" d="M35.9 38.1A10 10 0 0 0 28 22H12a10 10 0 0 0 0 20h16a10 10 0 0 0 4-.8m-3.9-3.1h-16a6.1 6.1 0 0 1 0-12.2h15.8A6.1 6.1 0 0 1 32 36.5" data-name="layer2" style="stroke: #003369;"/><path fill="none" stroke="#003369" stroke-miterlimit="10" stroke-width="2" d="M28.1 25.9A10 10 0 0 0 36 42h16a10 10 0 0 0 0-20H36a10 10 0 0 0-4 .8m3.9 3.1h16a6.1 6.1 0 0 1 0 12.2H36.1A6.1 6.1 0 0 1 32 27.5" data-name="layer1" style="stroke: #003369;"/></svg>
