<?xml version="1.0" encoding="UTF-8"?>
<svg xmlns="http://www.w3.org/2000/svg" aria-describedby="desc" aria-labelledby="title" viewBox="0 0 64 64"><path fill="none" stroke="#003369" stroke-width="2" d="M24 31h18m-7.1-7l7.1 7-7.1 7" data-name="layer2" style="stroke: #003369;"/><path fill="none" stroke="#003369" stroke-width="2" d="M36 44v6.5a3.5 3.5 0 0 1-3.5 3.5h-21A3.5 3.5 0 0 1 8 50.5v-45A3.5 3.5 0 0 1 11.5 2h21A3.5 3.5 0 0 1 36 5.5V18M8 10h28M8 44h28" data-name="layer1" style="stroke: #003369;"/><path fill="none" stroke="#003369" stroke-width="2" d="M36 10h16.5a3.5 3.5 0 0 1 3.5 3.5v45a3.5 3.5 0 0 1-3.5 3.5h-21a3.5 3.5 0 0 1-3.5-3.5V54m8-36h20M36 52h20" data-name="layer1" style="stroke: #003369;"/></svg>
