<?xml version="1.0" encoding="UTF-8"?>
<svg xmlns="http://www.w3.org/2000/svg" viewBox="0 0 60.43 55.87"><g fill="none" stroke="#1d3768" stroke-miterlimit="10" stroke-width="1.2"><path d="M44.8 7.1h-3.38V3.72h3.38V7.1zm-7.37 0h-3.38V3.72h3.38V7.1zm7.37 6.76h-3.38v-3.38h3.38v3.38zm-7.37 0h-3.38v-3.38h3.38v3.38zm7.37 6.76h-3.38v-3.38h3.38v3.38zm-7.37 0h-3.38v-3.38h3.38v3.38zm-11.06 0h-3.38v-3.38h3.38v3.38zm-7.37 0h-3.38v-3.38H19v3.38zm5.37 13.76v-6.76h-6.76v6.76m25.18 0v-6.76h-6.76v6.76" style="fill: #003369;"/><path d="M48.64 34.38H30.22V.6h18.43v33.78zm-18.25 0h-18.6V14.11h18.43" style="fill: #003369;"/></g><text fill="#1d3767" font-family="Arial-BoldMT,Arial" font-size="11.82" transform="translate(0 51.42)"><tspan x="0" y="0">Consignee</tspan></text></svg>
