<?xml version="1.0" encoding="UTF-8"?>
<svg xmlns="http://www.w3.org/2000/svg" data-name="Layer 1" viewBox="0 0 64 64"><path fill="none" stroke="#003369" stroke-miterlimit="10" stroke-width="2" d="M3.14 36v6M53 42a4.09 4.09 0 0 1 .13 1 4 4 0 0 1-8 0 4.09 4.09 0 0 1 .12-1M19 42a4.09 4.09 0 0 1 .13 1 4 4 0 0 1-8 0 4.09 4.09 0 0 1 .12-1M61.14 39h-4M3.14 39h4" style="stroke: #003369;"/><path fill="none" stroke="#003369" stroke-miterlimit="10" stroke-width="2" d="M7.14 37h50v5h-50zM61.14 36v6M18.14 34V20M14.14 34V20M22.14 34V20M26.14 34V20M30.14 34V20M34.14 34V20M38.14 34V20M42.14 34V20M46.14 34V20M50.14 34V20" style="stroke: #003369;"/><path fill="none" stroke="#003369" stroke-miterlimit="10" stroke-width="2" d="M10.14 17h44v20h-44zM2.66 47h58.68" style="stroke: #003369;"/></svg>
