<?xml version="1.0" encoding="UTF-8"?>
<svg xmlns="http://www.w3.org/2000/svg" data-name="Layer 1" viewBox="0 0 64 64"><path fill="none" stroke="#003369" stroke-miterlimit="10" stroke-width="2" d="M5.44 55.67H61.3M10.38 55.67V23.36M23.65 55.67H11.38M55.91 55.67V37.34H24.76v-13.5" style="stroke: #003369;"/><path fill="none" stroke="#003369" stroke-miterlimit="10" stroke-width="2" d="M16.73 55.67V43.28h33.11v12.39M16.78 49.3h32.59M27.52 43.63V55.3M38.69 43.8v11.67M27.69 8.68H6.35l-3.83 4.95 2.85 9.55h24.15l2.85-9.55-4.68-4.95zM12.06 14.32l1.58 8.16M22.73 14.32l-1.57 8.32M3.29 14.33h29.08M43.3 21.62L38 17l2.19-1.35L43.3 17l3.57-1.76L57.53 10s2.54-1.44 3.77-.38.22 1.87-.83 2.55-5 2.66-5 2.66l-3.69 8-2.67 1.41-.74-5.48z" style="stroke: #003369;"/><path fill="none" stroke="#003369" stroke-miterlimit="10" stroke-width="2" d="M54.12 11.71l-5.72-.41-2.95 1.58 1.93 2.14" style="stroke: #003369;"/></svg>
