<?xml version="1.0" encoding="UTF-8"?>
<svg xmlns="http://www.w3.org/2000/svg" data-name="Layer 1" viewBox="0 0 64 64"><path fill="none" stroke="#003369" stroke-miterlimit="10" stroke-width="2" d="M32.14 28.83V5.8M32.14 55.44V33.32M6.41 6.69h51.36v48.83H6.41zM20.59 40.66h4.72M13.09 40.66h4.37M46.65 40.66h4.72M39.15 40.66h4.36M24.78 15.5v42.31M16.97 15.5v42.31M47.15 15.5v42.31M39.33 15.5v42.31M24.78 4.01v7.96M16.97 4.01v7.96M47.15 4.01v7.96M39.33 4.01v7.96" style="stroke: #003369;"/><path fill="none" stroke="#003369" stroke-miterlimit="10" stroke-width="2" d="M61.53 62.26h-5.06l-1.93-1.92H9.21l-1.94 1.92h-4.8V1.74h59.06v60.52z" style="stroke: #003369;"/><path fill="none" stroke="#003369" stroke-miterlimit="10" stroke-width="2" d="M28.88 28.71h6.49v4.41h-6.49zM14.96 11.07h3.48v4.41h-3.48zM23.21 11.07h3.48v4.41h-3.48zM37.62 11.07h3.48v4.41h-3.48zM45.38 11.07h3.48v4.41h-3.48z" style="stroke: #003369;"/></svg>
