<?xml version="1.0" encoding="UTF-8"?>
<svg xmlns="http://www.w3.org/2000/svg" data-name="Layer 1" viewBox="0 0 64 64"><path fill="none" stroke="#003369" stroke-miterlimit="10" stroke-width="2" d="M3 3.6C.26 14.82 7.79 21 7.79 21l39.67 39.67h0c2 1.45 6.07.12 9.36-3.18s4.63-7.35 3.18-9.36v0L20.38 8.41S14.2.88 3 3.6z" style="stroke: #003369;"/><path fill="none" stroke="#003369" stroke-miterlimit="10" stroke-width="2" d="M11.27 6.45A20.09 20.09 0 0 0 6.42 7a20.09 20.09 0 0 0-.59 4.85M8.14 16.05l2.67 2.68M9.38 14.8l2.68 2.68M10.63 13.56l2.67 2.68M12.94 11.25l2.68 2.67M14.18 10l2.68 2.68M15.43 8.76l2.68 2.67M12.92 22.837l2.29-2.29 1.047 1.046-2.29 2.291zM16.423 19.34l2.29-2.29 1.047 1.046-2.29 2.291zM19.93 15.834l2.29-2.291 1.047 1.046-2.29 2.291zM15.784 25.707l2.292-2.29 1.046 1.046-2.291 2.291zM19.284 22.208l2.292-2.291 1.046 1.046-2.291 2.291zM22.794 18.694l2.292-2.291 1.046 1.046-2.291 2.291zM18.64 28.567l2.29-2.29 1.047 1.046-2.291 2.291zM22.15 25.068l2.29-2.291 1.047 1.046-2.291 2.291zM25.65 21.554l2.29-2.291 1.047 1.046-2.291 2.291zM21.504 31.427l2.29-2.29 1.047 1.046-2.29 2.291zM25.004 27.928l2.29-2.291 1.047 1.046-2.29 2.291zM28.514 24.414l2.29-2.291 1.047 1.046-2.29 2.291zM36.511 46.437l2.291-2.29 1.047 1.046-2.291 2.291zM40.011 42.938l2.291-2.291 1.047 1.046-2.291 2.291zM43.521 39.424l2.291-2.291 1.047 1.046-2.291 2.291zM39.376 49.297l2.29-2.29 1.047 1.046-2.29 2.291zM42.883 45.79l2.29-2.29 1.047 1.046-2.29 2.291zM46.376 42.284l2.29-2.291 1.047 1.046-2.29 2.291zM42.23 52.157l2.291-2.29 1.047 1.046-2.291 2.291zM45.737 48.65l2.292-2.29 1.046 1.046-2.291 2.291zM49.24 45.144l2.291-2.291 1.047 1.046-2.291 2.291zM25.99 35.53l3.24 3.25M27.48 34.05l3.24 3.24M28.96 32.56l3.25 3.24M30.45 31.07l3.25 3.25M31.94 29.58l3.24 3.25M33.43 28.1l3.24 3.24M34.91 26.61l3.25 3.24M30.33 39.87l3.24 3.25M31.81 38.38l3.25 3.25M33.3 36.9l3.25 3.24M34.79 35.41l3.24 3.24M36.28 33.92l3.24 3.25M37.76 32.43l3.25 3.25M39.25 30.95l3.25 3.24M45.531 54.857l9.009-9.008 1.873 1.873-9.008 9.009zM51.76 55.861l4.102-4.1 1.018 1.018-4.101 4.1z" style="stroke: #003369;"/></svg>
