<?xml version="1.0" encoding="UTF-8"?>
<svg xmlns="http://www.w3.org/2000/svg" viewBox="0 0 64 64"><path fill="none" stroke="#003369" stroke-miterlimit="10" stroke-width="2" d="M1.8 18.9h40.4v18.4H1.8zM7 34.3V21.7M12.1 34.3V21.7M17.1 34.3V21.7M22.2 34.3V21.7M27.3 34.3V21.7M32.4 34.3V21.7M37.4 34.3V21.7" style="stroke: #003369;"/><path fill="none" stroke="#003369" stroke-width="2" d="M49.5 41.9h-7.2m8.4-3.5h-4.3M61 31.3H49.8v-5.7m-9 12.8h5.7V25.6H55l3.1 5.7h2.8c.6 0 1.3.1 1.3 1V42h-4.9m-46.4-.1h4.6M32.6 26" style="stroke: #003369;"/><circle cx="38.1" cy="41.2" r="3.9" fill="none" stroke="#003369" stroke-width="2" style="stroke: #003369;"/><circle cx="19.3" cy="41.2" r="3.9" fill="none" stroke="#003369" stroke-width="2" style="stroke: #003369;"/><circle cx="7.2" cy="41.2" r="3.9" fill="none" stroke="#003369" stroke-width="2" style="stroke: #003369;"/><circle cx="53.4" cy="41.2" r="3.9" fill="none" stroke="#003369" stroke-width="2" style="stroke: #003369;"/></svg>
