<?xml version="1.0" encoding="UTF-8"?>
<svg xmlns="http://www.w3.org/2000/svg" data-name="Layer 1" viewBox="0 0 64 64"><path fill="none" stroke="#003369" stroke-miterlimit="10" stroke-width="2" d="M2.66 36v6M52.54 42a4.09 4.09 0 0 1 .12 1 4 4 0 0 1-8 0 4.09 4.09 0 0 1 .13-1M18.53 42a3.66 3.66 0 0 1 .13 1 4 4 0 0 1-8 0 3.66 3.66 0 0 1 .13-1M60.66 39h-4M2.66 39h4" style="stroke: #003369;"/><path fill="none" stroke="#003369" stroke-miterlimit="10" stroke-width="2" d="M6.66 37h50v5h-50zM60.66 36v6M22.06 34V20M15.66 34V20M28.46 34V20M34.86 34V20M41.26 34V20M47.66 34V20" style="stroke: #003369;"/><path fill="none" stroke="#003369" stroke-miterlimit="10" stroke-width="2" d="M9.66 17h44v20h-44zM2.66 47h58.68" style="stroke: #003369;"/></svg>
