<?xml version="1.0" encoding="UTF-8"?>
<svg xmlns="http://www.w3.org/2000/svg" aria-describedby="desc" aria-labelledby="title" viewBox="0 0 64 64"><path fill="none" stroke="#003369" stroke-width="2" d="M28.5 35.5c1.1 3.1-1 5.4-4.2 4.2m4.2-4.2c-.8-3.2 1-5.2 4.2-4.2s5.2-1 4.2-4.2.9-5.1 4.2-4.2 5.1-.9 4.2-4.2 1.1-5.3 4.2-4.2 5.3-1.1 4.2-4.2M17.9 46.1L2 62" data-name="layer2" style="stroke: #003369;"/><path fill="none" stroke="#003369" stroke-width="2" d="M30.2 46.1a8.7 8.7 0 0 1-12.3 0 8.7 8.7 0 0 1 0-12.3L47.2 4.5a8.7 8.7 0 0 1 12.3 0 8.7 8.7 0 0 1 0 12.3z" data-name="layer1" style="stroke: #003369;"/></svg>
