<?xml version="1.0" encoding="UTF-8"?>
<svg xmlns="http://www.w3.org/2000/svg" data-name="Layer 1" viewBox="0 0 64 64"><path fill="none" stroke="#003369" stroke-miterlimit="10" stroke-width="2" d="M19.86 24.19L17 25.29M36.45 38.06l-1.32 2.76M33.15 43.02l-1.21 2.64M14.24 24.3l-3.3.77M16.56 28.48l-2.65 1.88M58.4 58.49v-9.34a10.6 10.6 0 0 0-9-10.47c-6.77-1.33-8.68-3-8.68-4.34v-1.67a11.83 11.83 0 0 0 3.35-5.85c2.09 0 3.34-2.51 3.34-5 0-.67 0-3.34-1.67-3.34C49.9 6.34 37.69 1.74 29 7.59c-3.67 0-4.68 5.52-3.34 10.87C24 18.46 24 21.13 24 21.8a6.06 6.06 0 0 0 1.5 4.2M46.67 58.93v-8.78" style="stroke: #003369;"/><path fill="none" stroke="#003369" stroke-miterlimit="10" stroke-width="2" d="M18 46.92l17.35-13.26a5.67 5.67 0 1 0-7-8.94L9.65 39.07a10.51 10.51 0 1 0 12.93 16.58" style="stroke: #003369;"/></svg>
