<?xml version="1.0" encoding="UTF-8"?>
<svg xmlns="http://www.w3.org/2000/svg" data-name="Layer 1" viewBox="0 0 64 64"><path fill="none" stroke="#003369" stroke-miterlimit="10" stroke-width="2" d="M13.05 9.71l1.67 3.2M16.44 15.66l1.67 3.2M11.23 18.42l2.65 2.44M6.01 13.67l2.65 2.44M28.85 32.95l1.1 7.56M25.51 8a10.63 10.63 0 0 0-3.3 7.62c0 1.49 2 2.23-1 6.43l1.13 1.23" style="stroke: #003369;"/><path fill="none" stroke="#003369" stroke-miterlimit="10" stroke-width="2" d="M47.66 21.17a14.89 14.89 0 0 0 1.05-5.34C48.71 8.21 43.59 4 36.48 4h-10c-2.72 0-2.82 3.77-.85 4.07s5.44.68 5.44.68l-.35 2.43c-.18 1.23.72 1.87 2.47 3.18l3.67 2.86A6.13 6.13 0 0 1 39.38 16a2.94 2.94 0 0 1 3.56 2.41 5 5 0 0 1-.44 3.12M44.6 27.46a6.14 6.14 0 0 0-.6 2.39 13.23 13.23 0 0 0 .57 2.83" style="stroke: #003369;"/><path fill="none" stroke="#003369" stroke-miterlimit="10" stroke-width="2" d="M44.5 32.6s4.5 4.53 5.21 5.27c8.46 8.68 8.8 18.7 9.66 22.14M44.5 32.6L28.23 41l-4 8.74m4.59-9.16l-10.71-4.83L20.3 35l1.15-.39 8.2-2.73m0 0l6.7-2.23 1.18-.4A46.92 46.92 0 0 1 42.38 28l1.27-.26.93-.17m0 0l2.16-.4.13-.2a2.1 2.1 0 0 1 2.94-.57L52 27.85a2 2 0 0 0 1.8.27 2.05 2.05 0 0 0 1.32-1.25 2.08 2.08 0 0 0-.91-2.52l-4.93-2.85a5.22 5.22 0 0 0-1.52-.59m0 0a5.43 5.43 0 0 0-2.47.05l-1.71.45-4.14 1.09a5.3 5.3 0 0 1-1.25.17c-.69 0-2 0-3.78.06-3.84.09-9.68.31-15.07.86l-1.42.15a61.07 61.07 0 0 0-6.78 1.09A8.39 8.39 0 0 0 5.65 37l10.43 16.92" style="stroke: #003369;"/></svg>
