<?xml version="1.0" encoding="UTF-8"?>
<svg xmlns="http://www.w3.org/2000/svg" data-name="Layer 1" viewBox="0 0 64 64"><path fill="none" stroke="#003369" stroke-miterlimit="10" stroke-width="2" d="M6.86 54.14v-3.69h6.77v3.67M26.25 54.14v-3.69h6.77v3.67M47.09 30.14h10.36v9.44H47.09zM41.92 44.68h10.36v9.44H41.92z" style="stroke: #003369;"/><path fill="none" stroke="#003369" stroke-miterlimit="10" stroke-width="2" d="M52.27 44.68h10.36v9.44H52.27zM1.37 54.12h59.25M29.63 9.86v40.58M52.44 21.96H1.37M3.65 21.96l25.98-12.1L52.26 21.9v8.4M10.46 21.96v28.48" style="stroke: #003369;"/><path fill="none" stroke="#003369" stroke-miterlimit="10" stroke-width="2" d="M10.46 44.68L29.63 21.9l-12.99-5.99M50.66 32.72v4.4M54.02 32.72v4.4M45.43 47.25v4.41M48.79 47.25v4.41M55.83 47.25v4.41M59.19 47.25v4.41" style="stroke: #003369;"/></svg>
