<?xml version="1.0" encoding="UTF-8"?>
<svg xmlns="http://www.w3.org/2000/svg" aria-describedby="desc" aria-labelledby="title" viewBox="0 0 64 64"><ellipse cx="42" cy="33" fill="none" stroke="#003369" stroke-miterlimit="10" stroke-width="2" data-name="layer1" rx="12" ry="4" style="stroke: #003369;"/><path fill="none" stroke="#003369" stroke-miterlimit="10" stroke-width="2" d="M54 41c0 2.2-5.4 4-12 4s-12-1.8-12-4m24 8c0 2.2-5.4 4-12 4s-12-1.8-12-4" data-name="layer1" style="stroke: #003369;"/><path fill="none" stroke="#003369" stroke-miterlimit="10" stroke-width="2" d="M30 39H2V3h60v36h-8" data-name="layer2" style="stroke: #003369;"/><circle cx="32" cy="21" r="8" fill="none" stroke="#003369" stroke-miterlimit="10" stroke-width="2" data-name="layer2" style="stroke: #003369;"/><path fill="none" stroke="#003369" stroke-miterlimit="10" stroke-width="2" d="M12 21h4m32 0h4M12 3A10 10 0 0 1 2 13m60 0A10 10 0 0 1 52 3M2 29a10 10 0 0 1 10 10" data-name="layer2" style="stroke: #003369;"/><path fill="none" stroke="#003369" stroke-miterlimit="10" stroke-width="2" d="M30 33v24c0 2.2 5.4 4 12 4s12-1.8 12-4V33" data-name="layer1" style="stroke: #003369;"/></svg>
