<?xml version="1.0" encoding="UTF-8"?>
<svg xmlns="http://www.w3.org/2000/svg" data-name="Ebene 1" viewBox="0 0 64 64"><path fill="none" stroke="#003369" stroke-miterlimit="10" stroke-width="2" d="M63.45 56.76H.96M15.38 7.24S15.5 19.12 12.69 25a35.79 35.79 0 0 1-5.27 8.5M21.19 7.26s.6 12.73-3.08 19a30.65 30.65 0 0 1-6.64 8.34M3 33.51h7.19s1.29.24 1.29 2-1.29 1.85-1.29 1.85H3.47" style="stroke: #003369;"/><path fill="none" stroke="#003369" stroke-miterlimit="10" stroke-width="2" d="M7.42 37.39l1.42 19.38H3.03l.44-49.53H61.4l.44 49.53h-5.81l1.42-19.38" style="stroke: #003369;"/><path fill="none" stroke="#003369" stroke-miterlimit="10" stroke-width="2" d="M10.93 37.08l1.76 16.11H8.45M49.49 7.24S49.37 19.12 52.18 25a35.79 35.79 0 0 0 5.27 8.5M43.68 7.26s-.6 12.73 3.07 19a30.65 30.65 0 0 0 6.64 8.34" style="stroke: #003369;"/><path fill="none" stroke="#003369" stroke-miterlimit="10" stroke-width="2" d="M61.84 33.51h-7.2s-1.28.24-1.28 2 1.28 1.85 1.28 1.85h6.76" style="stroke: #003369;"/><path fill="none" stroke="#003369" stroke-miterlimit="10" stroke-width="2" d="M53.93 37.08l-1.75 16.11h4.24M39.06 20.37v28.55M25 48.92V20.37M12.12 51.25h10.52A2.35 2.35 0 0 0 25 49.06a18 18 0 0 0 14.08 0 2.34 2.34 0 0 0 2.35 2.19h10.5M20.7 17.52S24.69 21 32.87 21s11.3-3.43 11.3-3.43" style="stroke: #003369;"/></svg>
