<?xml version="1.0" encoding="UTF-8"?>
<svg xmlns="http://www.w3.org/2000/svg" viewBox="0 0 64 64"><path fill="none" stroke="#003369" stroke-miterlimit="10" stroke-width="2" d="M35.4 58H4c-1.1 0-2-.9-2-2V10c0-1.1.9-2 2-2h9.9M34 8h10c1.1 0 2 .9 2 2v20" style="stroke: #003369;"/><path fill="none" stroke="#003369" stroke-miterlimit="10" stroke-width="2" d="M32 6h-3.1c-.5-2.7-3.2-4.5-5.9-3.9-2 .4-3.5 1.9-3.9 3.9H16c-1.1 0-2 .9-2 2v6h20V8c0-1.1-.9-2-2-2zm6 26.1V14h-4m-20 0h-4v36h20.5M18 32" style="stroke: #003369;"/><circle cx="46" cy="46" r="16" fill="none" stroke="#003369" stroke-miterlimit="10" stroke-width="2" style="stroke: #003369;"/><path fill="none" stroke="#003369" stroke-miterlimit="10" stroke-width="2" d="M15.3 20.4h4.8v4.8h-4.8zM15.3 29.8h4.8v4.8h-4.8zM15.3 39.3h4.8v4.8h-4.8zM23.8 21.9h11.4M23.8 27.7H28M23.8 39.3H28M23.8 33.5h8.4M39.8 45.4l4.9 4.9 7.5-8.6" style="stroke: #003369;"/></svg>
