<?xml version="1.0" encoding="UTF-8"?>
<svg xmlns="http://www.w3.org/2000/svg" data-name="Layer 1" viewBox="0 0 64 64"><path fill="none" stroke="#003369" stroke-miterlimit="10" stroke-width="2" d="M20 14h-4v40h20l12-12V14h-4" style="stroke: #003369;"/><path fill="none" stroke="#003369" stroke-miterlimit="10" stroke-width="2" d="M36 54V42h12" style="stroke: #003369;"/><path fill="none" stroke="#003369" stroke-miterlimit="10" stroke-width="2" d="M43.1 8H54a2 2 0 0 1 2 2v50a2 2 0 0 1-2 2H10a2 2 0 0 1-2-2V10a2 2 0 0 1 2-2h10.9" style="stroke: #003369;"/><path fill="none" stroke="#003369" stroke-miterlimit="10" stroke-width="2" d="M39 6h-2.1a5 5 0 0 0-9.8 0H25a4.7 4.7 0 0 0-5 4.38V14h24v-3a4.8 4.8 0 0 0-4.59-5zM21.71 21.03h5.43v5.43h-5.43zM21.71 31.29h5.43v5.43h-5.43zM31.23 22.67H44M31.23 28.19h4.73M31.23 34h9.45M21.71 44.54L24.42 48l5.55-5.42" style="stroke: #003369;"/></svg>
