<?xml version="1.0" encoding="UTF-8"?>
<svg xmlns="http://www.w3.org/2000/svg" viewBox="0 0 64 64"><path fill="#003369" d="M37.17 52.84H3.53V17.97L13.58 2.9h29.83l10.05 15.08v29.64h-2V19.28H5.53v31.56h31.64v2zM6.4 17.28h44.2L42.35 4.9h-27.7L6.4 17.28z" style="fill: #003369;"/><path fill="#003369" d="M27.9 46.44H9.92v-8.39H27.9v8.39zm-15.98-2H25.9v-4.39H11.92v4.39zM27.5 3.9h2v14.38h-2zM61.17 61.1H30.84l15.17-27.09L61.18 61.1zm-26.93-2h23.51L45.99 38.11 34.23 59.1z" style="fill: #003369;"/><path fill="#003369" d="M45.01 44.24h2v7.69h-2zM46.01 57.26c-1.08 0-1.96-.88-1.96-1.96s.88-1.96 1.96-1.96 1.96.88 1.96 1.96-.88 1.96-1.96 1.96zm.04-1.96l-.04.04s.04-.02.04-.04z" style="fill: #003369;"/></svg>
