<?xml version="1.0" encoding="UTF-8"?>
<svg xmlns="http://www.w3.org/2000/svg" aria-describedby="desc" aria-labelledby="title" viewBox="0 0 64 64"><circle cx="32" cy="32" r="30" fill="none" stroke="#003369" stroke-width="2" data-name="layer1" style="stroke: #003369;"/><circle cx="32" cy="32" r="6" fill="none" stroke="#003369" stroke-width="2" data-name="layer2" style="stroke: #003369;"/><path fill="none" stroke="#003369" stroke-width="2" d="M20 32v-.8L9.3 39.9a23.9 23.9 0 0 0 4.1 7.3L26 42.4A12 12 0 0 1 20 32zm24-.6v.6a12 12 0 0 1-6 10.4l12.6 4.8a24 24 0 0 0 4-7.2zM32 20a11.9 11.9 0 0 1 6.5 1.9L36.1 8.4a22.5 22.5 0 0 0-8.1 0L25.4 22a11.9 11.9 0 0 1 6.6-2z" data-name="layer1" style="stroke: #003369;"/></svg>
