<?xml version="1.0" encoding="UTF-8"?>
<svg xmlns="http://www.w3.org/2000/svg" aria-describedby="desc" aria-labelledby="title" viewBox="0 0 64 64"><path fill="none" stroke="#003369" stroke-width="2" d="M32 48v13.5M20 62h24m-28 0h-4m-4 0H4m48 0h-4m12 0h-4" data-name="layer2" style="stroke: #003369;"/><ellipse cx="32" cy="10" fill="none" stroke="#003369" stroke-width="2" data-name="layer1" rx="22" ry="8" style="stroke: #003369;"/><path fill="none" stroke="#003369" stroke-width="2" d="M54 20c0 4.4-9.8 8-22 8s-22-3.6-22-8m44 10c0 4.4-9.8 8-22 8s-22-3.6-22-8" data-name="layer1" style="stroke: #003369;"/><path fill="none" stroke="#003369" stroke-width="2" d="M10 10v30c0 4.4 9.8 8 22 8s22-3.6 22-8V10" data-name="layer1" style="stroke: #003369;"/></svg>
