<?xml version="1.0" encoding="UTF-8"?>
<svg xmlns="http://www.w3.org/2000/svg" viewBox="0 0 36.93 68.24"><rect width="36.93" height="15.54" y="30.05" fill="#1d3767" rx="7.77" ry="7.77" style="fill: #003369;"/><text fill="#fff" font-family="Arial-BoldMT,Arial" font-size="11.82" transform="translate(5.98 41.99)"><tspan x="0" y="0">DEH</tspan></text><g fill="none" stroke="#1d3768" stroke-miterlimit="10" stroke-width=".61"><path d="M12.92 16.04h2.78v2.69h-2.78v-2.69zM10.14 16.04h2.78v2.69h-2.78v-2.69zM7.36 16.04h2.78v2.69H7.36v-2.69z" style="fill: #003369;"/><path d="M10.14 13.36h2.78v2.69h-2.78v-2.69zM12.92 13.36h2.78v2.69h-2.78v-2.69zm-5.57 0h2.78v2.69H7.35v-2.69zm0-2.69h2.78v2.69H7.35v-2.69z" style="fill: #003369;"/><path d="M2.26 5.97v12.76h3.08l.04-10.86h12.3l.04 10.86h3.08V5.97L11.53.36 2.26 5.97z" style="fill: #003369;"/><g><path d="M9.03 22.11H3.58M6.91 19.99l2.12 2.12-2.12 2.12" style="fill: #003369;"/></g><g><path d="M17.88 22.41h-5.46M15.75 20.29l2.12 2.12-2.12 2.12" style="fill: #003369;"/></g></g><g fill="none" stroke="#1d3768" stroke-miterlimit="10" stroke-width=".61"><path d="M27.94 18.1h-3.12m5.21 0h-.72m-1.18-.49h-.76m0-2.28h1.52l.57.99h.49c.11 0 .23.04.23.19v1.06h-1.03m.8-1.22h-1.98v-.99m-4.33 2.24h-.76v-3.27h4.48v3.27h-2.77" style="fill: #003369;"/><circle cx="24.1" cy="18.1" r=".68" style="fill: #003369;"/><circle cx="28.63" cy="18.1" r=".68" style="fill: #003369;"/></g><text fill="#1d3767" font-family="Arial-BoldMT,Arial" font-size="3.64" transform="translate(7.54 6.37)"><tspan x="0" y="0">HUB</tspan></text><g><text fill="#1d3767" font-family="Arial-BoldMT,Arial" font-size="11.82" transform="translate(5.31 63.78)"><tspan x="0" y="0">1080</tspan></text></g></svg>
