<?xml version="1.0" encoding="UTF-8"?>
<svg xmlns="http://www.w3.org/2000/svg" aria-describedby="desc" aria-labelledby="title" viewBox="0 0 64 64"><path fill="none" stroke="#003369" stroke-miterlimit="10" stroke-width="2" d="M38 23c0 13.7 2.7 14.7 6 18a61.6 61.6 0 0 1-12 2v2c0 1.6 1.1 3.7 9 6s7 8 7 8H4s0-6 7-8 9-4.4 9-6v-2a61.4 61.4 0 0 1-12-2c3.3-3.3 6-4.3 6-18 0-6 3.7-12 10-12s14 .4 14 12z" data-name="layer2" style="stroke: #003369;"/><path fill="none" stroke="#003369" stroke-miterlimit="10" stroke-width="2" d="M60 5L48 17m0-12l12 12" data-name="layer1" style="stroke: #003369;"/></svg>
