<?xml version="1.0" encoding="UTF-8"?>
<svg xmlns="http://www.w3.org/2000/svg" aria-describedby="desc" aria-labelledby="title" viewBox="0 0 64 64"><circle cx="24" cy="24" r="10" fill="none" stroke="#003369" stroke-miterlimit="10" stroke-width="2" data-name="layer2" style="stroke: #003369;"/><path fill="none" stroke="#003369" stroke-miterlimit="10" stroke-width="2" d="M45.3 30a26.5 26.5 0 0 0 .5-3.1v-.4c.1-.7.1-1.4.1-2.1A22.2 22.2 0 0 0 24 2 22.2 22.2 0 0 0 2 24.4c0 .7 0 1.5.1 2.2v.3C3.9 44.5 24 58 24 58a65.2 65.2 0 0 0 7.2-5.9" data-name="layer2" style="stroke: #003369;"/><circle cx="46" cy="46" r="16" fill="none" stroke="#003369" stroke-miterlimit="10" stroke-width="2" data-name="layer1" style="stroke: #003369;"/><path fill="none" stroke="#003369" stroke-miterlimit="10" stroke-width="2" d="M52 40L40 52m0-12l12 12" data-name="layer1" style="stroke: #003369;"/></svg>
