<?xml version="1.0" encoding="UTF-8"?>
<svg xmlns="http://www.w3.org/2000/svg" data-name="Layer 1" viewBox="0 0 64 64"><path fill="none" stroke="#003369" stroke-miterlimit="10" stroke-width="2" d="M10 5h17.45v6H10zM10 12c.22 5 3.79 9 8.17 9s7.94-4 8.16-9v-1M21 40.71V56a2 2 0 0 1-2 2h-5a2 2 0 0 1-2-2V26" style="stroke: #003369;"/><path fill="none" stroke="#003369" stroke-miterlimit="10" stroke-width="2" d="M29.68 37h-1.1c-8.84-1-9.95-11-9.95-11a3.16 3.16 0 0 0-3.31-3A3.17 3.17 0 0 0 12 26a2.74 2.74 0 0 0 .12.76C14.69 43 29.68 43 29.68 43a3 3 0 1 0 0-6z" style="stroke: #003369;"/><path fill="none" stroke="#003369" stroke-miterlimit="10" stroke-width="2" d="M26.75 37V22h26v20H32.18" style="stroke: #003369;"/><path fill="none" stroke="#003369" stroke-miterlimit="10" stroke-width="2" d="M33.25 22h13v5h-13zM10 12a5.56 5.56 0 0 1 0-1h24" style="stroke: #003369;"/></svg>
