<?xml version="1.0" encoding="UTF-8"?>
<svg xmlns="http://www.w3.org/2000/svg" aria-describedby="desc" aria-labelledby="title" viewBox="0 0 64 64"><path fill="none" stroke="#003369" stroke-miterlimit="10" stroke-width="2" d="M17 15h26c2.3 0 2.1 1.6 1.7 3.1S41 33 41 33h10.1l4-2 3.9 2v8c0 1.3-.5 2-2 2h-8M9 43h6.6m9.4 0h14.6" data-name="layer2" style="stroke: #003369;"/><path fill="none" stroke="#003369" stroke-miterlimit="10" stroke-width="2" d="M43.6 23H49l6.1 8M31 23H9m18 8H5" data-name="layer2" style="stroke: #003369;"/><path fill="none" stroke="#003369" stroke-miterlimit="10" stroke-width="2" d="M24.8 44a6.9 6.9 0 0 1-6.2 5c-2.7 0-4.2-2.2-3.4-5a6.9 6.9 0 0 1 6.2-5c2.6 0 4.2 2.2 3.4 5zm24 0a6.9 6.9 0 0 1-6.2 5c-2.7 0-4.2-2.2-3.4-5a6.9 6.9 0 0 1 6.2-5c2.6 0 4.2 2.2 3.4 5z" data-name="layer1" style="stroke: #003369;"/></svg>
