<?xml version="1.0" encoding="UTF-8"?>
<svg xmlns="http://www.w3.org/2000/svg" viewBox="0 0 36.93 66.23"><rect width="36.93" height="15.54" y="28.1" fill="#3bba8e" rx="7.77" ry="7.77" style="fill: #003369;"/><text fill="#fff" font-family="Arial-BoldMT,Arial" font-size="11.82" transform="translate(6.42 40.04)"><tspan x="0" y="0">DE</tspan><tspan x="16.42" y="0" letter-spacing="-.02em">P</tspan></text><text fill="#3bba8e" font-family="Arial-BoldMT,Arial" font-size="11.82" transform="translate(5.31 61.77)"><tspan x="0" y="0">1300</tspan></text><g><g fill="none" stroke="#3bba8e" stroke-miterlimit="10" stroke-width=".8"><path d="M8.41 18.05H29.4m-19.13 0V5.92m4.98 12.14h-4.61m16.73 0v-6.89h-11.7V6.1" style="fill: #003369;"/><path d="M12.66 18.05V13.4H25.1v4.65m-12.42-2.39h12.24m-8.21-2.13v4.38m4.2-4.32v4.38M16.77.4H8.76L7.32 2.26l1.07 3.59h9.07l1.07-3.59L16.77.4zM10.9 2.52l.59 3.07m3.41-3.07l-.59 3.13m-6.7-3.13h10.92m4.11 2.74l-1.99-1.74.82-.51 1.17.51 1.34-.66 4-1.97s.95-.54 1.42-.14.08.7-.31.96-1.88 1-1.88 1l-1.39 3.01-1 .53-.28-2.06-1.9 1.07z" style="fill: #003369;"/><path d="M26.7 1.54l-2.15-.15-1.11.59.72.8" style="fill: #003369;"/></g></g></svg>
