<?xml version="1.0" encoding="UTF-8"?>
<svg xmlns="http://www.w3.org/2000/svg" aria-describedby="desc" aria-labelledby="title" viewBox="0 0 64 64"><path fill="none" stroke="#003369" stroke-miterlimit="10" stroke-width="2" d="M43.1 17l9.9 9.9M43 27l9.9-9.9m-19.5 7.6a10 10 0 0 1 6.8-2.7M29.7 35.2a10 10 0 0 0 .5-2.9V32a10 10 0 0 1 .9-4.3M21.2 42a10 10 0 0 0 6.6-3.5M9.8 42h7.6M2 42h4" data-name="layer2" style="stroke: #003369;"/><path fill="none" stroke="#003369" stroke-miterlimit="10" stroke-width="2" d="M62 10v50l-22-6-16 6-22-6V4l22 6 16-6 22 6z" data-name="layer1" style="stroke: #003369;"/></svg>
