<?xml version="1.0" encoding="UTF-8"?>
<svg xmlns="http://www.w3.org/2000/svg" viewBox="0 0 36.93 68.24"><rect width="36.93" height="15.54" y="30.13" fill="#1d3767" rx="7.77" ry="7.77" style="fill: #003369;"/><text fill="#fff" font-family="Arial-BoldMT,Arial" font-size="11.82" transform="translate(8.28 42.07)"><tspan x="0" y="0">DIH</tspan></text><g fill="none" stroke="#1d3768" stroke-miterlimit="10" stroke-width=".61"><path d="M14.9 16.04h2.78v2.69H14.9v-2.69zM12.12 16.04h2.78v2.69h-2.78v-2.69zM9.34 16.04h2.78v2.69H9.34v-2.69z" style="fill: #003369;"/><path d="M12.12 13.36h2.78v2.69h-2.78v-2.69zM14.9 13.36h2.78v2.69H14.9v-2.69zm-5.57 0h2.78v2.69H9.33v-2.69zm0-2.69h2.78v2.69H9.33v-2.69z" style="fill: #003369;"/><path d="M4.25 5.97v12.76h3.08l.04-10.86h12.3l.04 10.86h3.08V5.97L13.51.36 4.25 5.97z" style="fill: #003369;"/><g><path d="M11.02 22.11H5.56M8.89 19.99l2.12 2.12-2.12 2.12" style="fill: #003369;"/></g><g><path d="M19.86 22.41H14.4M17.74 20.29l2.12 2.12-2.12 2.12" style="fill: #003369;"/></g></g><g fill="none" stroke="#1d3768" stroke-miterlimit="10" stroke-width=".61"><path d="M29.93 18.1h-3.12m5.21 0h-.72m-1.18-.49h-.76m0-2.28h1.52l.57.99h.49c.11 0 .23.04.23.19v1.06h-1.03m.8-1.22h-1.98v-.99m-4.33 2.24h-.76v-3.27h4.48v3.27h-2.77" style="fill: #003369;"/><circle cx="26.09" cy="18.1" r=".68" style="fill: #003369;"/><circle cx="30.61" cy="18.1" r=".68" style="fill: #003369;"/></g><text fill="#1d3767" font-family="Arial-BoldMT,Arial" font-size="3.64" transform="translate(9.52 6.37)"><tspan x="0" y="0">HUB</tspan></text><g><text fill="#1d3767" font-family="Arial-BoldMT,Arial" font-size="11.82" transform="translate(5.31 63.78)"><tspan x="0" y="0">1470</tspan></text></g></svg>
