<?xml version="1.0" encoding="UTF-8"?>
<svg xmlns="http://www.w3.org/2000/svg" aria-describedby="desc" aria-labelledby="title" viewBox="0 0 64 64"><circle cx="32.7" cy="33" r="19" fill="none" stroke="#003369" stroke-width="2" data-name="layer2" style="stroke: #003369;"/><circle cx="32.7" cy="33" r="11" fill="none" stroke="#003369" stroke-width="2" data-name="layer2" style="stroke: #003369;"/><path fill="none" stroke="#003369" stroke-width="2" d="M61.7 34.2V48a2 2 0 0 1-2 2 2 2 0 0 1-2-2V34.1M6.7 12v9.5" data-name="layer1" style="stroke: #003369;"/><path fill="none" stroke="#003369" stroke-width="2" d="M61.7 34.2V12a6.3 6.3 0 0 0-6.3 6.3V31a3.2 3.2 0 0 0 3.2 3.2zm-50.5-9.5L10.5 12H2.9l-.6 12.7a3.5 3.5 0 0 0 2.4 3.5V48a2 2 0 1 0 4 0V28.1a3.5 3.5 0 0 0 2.5-3.4z" data-name="layer1" style="stroke: #003369;"/></svg>
