<?xml version="1.0" encoding="UTF-8"?>
<svg xmlns="http://www.w3.org/2000/svg" aria-describedby="desc" aria-labelledby="title" viewBox="0 0 64 64"><path fill="none" stroke="#003369" stroke-miterlimit="10" stroke-width="2" d="M46 9h-2c-4 0-12-4-16-4H12a4 4 0 0 0 0 8h-2a4 4 0 1 0 0 8H8a4 4 0 1 0 0 8m0 0H6a4 4 0 0 0 0 8h20a81 81 0 0 0-2 18 4 4 0 0 0 8 0s1.8-19.9 14-21.8" data-name="layer2" style="stroke: #003369;"/><path fill="none" stroke="#003369" stroke-miterlimit="10" stroke-width="2" d="M62 41l-16-2V7h16v34z" data-name="layer1" style="stroke: #003369;"/><circle cx="54" cy="31" r="1" fill="none" stroke="#003369" stroke-miterlimit="10" stroke-width="2" data-name="layer1" style="stroke: #003369;"/></svg>
