<?xml version="1.0" encoding="UTF-8"?>
<svg xmlns="http://www.w3.org/2000/svg" data-name="Ebene 1" viewBox="0 0 64 64"><circle cx="30.56" cy="35.67" r="6.32" fill="none" stroke="#003369" stroke-miterlimit="10" stroke-width="2" style="stroke: #003369;"/><circle cx="28.56" cy="18.26" r="1.91" fill="none" stroke="#003369" stroke-miterlimit="10" stroke-width="2" style="stroke: #003369;"/><path fill="none" stroke="#003369" stroke-miterlimit="10" stroke-width="2" d="M32.57 13.76l4.76-.87a3.81 3.81 0 0 0 2.81-2.24L40.85 9l-6.76 1.23L30.31 19" style="stroke: #003369;"/><circle cx="6.26" cy="31.78" r="1.91" fill="none" stroke="#003369" stroke-miterlimit="10" stroke-width="2" style="stroke: #003369;"/><path fill="none" stroke="#003369" stroke-miterlimit="10" stroke-width="2" d="M5 25.89l2.1-4.36a3.81 3.81 0 0 0-.16-3.59L6 16.41l-3 6.2 4.85 8.2" style="stroke: #003369;"/><circle cx="13.38" cy="16.24" r="1.91" fill="none" stroke="#003369" stroke-miterlimit="10" stroke-width="2" style="stroke: #003369;"/><path fill="none" stroke="#003369" stroke-miterlimit="10" stroke-width="2" d="M15.28 10.52L21 6.71V2.89l-5.72 3.82v9.53" style="stroke: #003369;"/><circle cx="22.91" cy="12.43" r="1.91" fill="none" stroke="#003369" stroke-miterlimit="10" stroke-width="2" style="stroke: #003369;"/><path fill="none" stroke="#003369" stroke-miterlimit="10" stroke-width="2" d="M21 2.89v9.54" style="stroke: #003369;"/><circle cx="52.23" cy="27.89" r="1.91" fill="none" stroke="#003369" stroke-miterlimit="10" stroke-width="2" style="stroke: #003369;"/><path fill="none" stroke="#003369" stroke-miterlimit="10" stroke-width="2" d="M51.37 21.92l3.41-5.96-1.71-3.42-3.4 5.97 4.26 8.53" style="stroke: #003369;"/><circle cx="59.04" cy="20.22" r="1.91" fill="none" stroke="#003369" stroke-miterlimit="10" stroke-width="2" style="stroke: #003369;"/><path fill="none" stroke="#003369" stroke-miterlimit="10" stroke-width="2" d="M53.07 12.54l4.27 8.53M21.39 28.53l-2.58-5.62M24.82 27.93l.73-6.08M40.88 63.11v-8.49L53 46.5a4.56 4.56 0 0 0 2-2.58c.39-1.49-1.17-3-1.17-3s-13.29-9.17-14.49-9.8c-2.7-1.43-2.25 2.12-2.34 5l9.11 6.29a18.77 18.77 0 0 1-8.93 3.09c-4.78.17-9.38.14-13.35 0a18.77 18.77 0 0 1-8.93-3.09l9.1-6.29c-.09-2.86.36-6.41-2.34-5-1.2.63-14.49 9.8-14.49 9.8s-1.56 1.49-1.17 3a4.56 4.56 0 0 0 2 2.58l12 8.12v8.49M39.52 28.53l2.54-5.75M36.09 27.93l-.9-5.94" style="stroke: #003369;"/></svg>
