<?xml version="1.0" encoding="UTF-8"?>
<svg xmlns="http://www.w3.org/2000/svg" viewBox="0 0 36.93 62.67"><rect width="36.93" height="15.54" y="24.54" fill="#3bba8e" rx="7.77" ry="7.77" style="fill: #003369;"/><text fill="#fff" font-family="Arial-BoldMT,Arial" font-size="11.82" transform="translate(6.28 36.48)"><tspan x="0" y="0">D</tspan><tspan x="8.54" y="0" letter-spacing="-.07em">L</tspan><tspan x="14.88" y="0">V</tspan></text><g fill="none" stroke="#3bba8e" stroke-miterlimit="10"><g stroke-width=".65"><path d="M6.43 5.82h7.31v5.5H6.43v-5.5z" style="fill: #003369;"/><path d="M9.09 5.84h2.04v1.53H9.09V5.84zm4.66-.02h7.31v5.5h-7.31v-5.5z" style="fill: #003369;"/><path d="M16.41 5.84h2.04v1.53h-2.04V5.84zM8.19.32h7.31v5.5H8.19V.32z" style="fill: #003369;"/><path d="M10.85.35h2.04v1.53h-2.04V.35zM4.86 11.34h17.77v1.41H4.86v-1.41zm.39 1.43h1.9v1.41h-1.9v-1.41zm7.54 0h1.9v1.41h-1.9v-1.41zm7.54 0h1.9v1.41h-1.9v-1.41z" style="fill: #003369;"/></g><g stroke-width=".61"><path d="M29.83 12.53h-3.12m5.21 0h-.72m-1.18-.49h-.76m0-2.28h1.52l.57.99h.49c.11 0 .23.04.23.19V12h-1.03m.8-1.22h-1.98v-.99m-4.33 2.24h-.76V8.76h4.48v3.27h-2.77" style="fill: #003369;"/><circle cx="25.99" cy="12.53" r=".68" style="fill: #003369;"/><circle cx="30.51" cy="12.53" r=".68" style="fill: #003369;"/></g></g><g><text fill="#3bba8e" font-family="Arial-BoldMT,Arial" font-size="11.82" transform="translate(4.52 58.21)"><tspan x="0" y="0">1415</tspan></text></g></svg>
