<svg xmlns="http://www.w3.org/2000/svg" viewBox="0 0 36.9 68.1"><path fill="none" stroke="#1d3768" stroke-miterlimit="10" stroke-width=".75" d="M13.8 18.4h21.4m-19.5 0V6m5.1 12.4h-4.7m17.1 0v-7.1h-12V6.2"/><path fill="none" stroke="#1d3768" stroke-miterlimit="10" stroke-width=".75" d="M18.1 18.4v-4.8h12.7v4.8m-12.6-2.5h12.5m-8.4-2.1v4.5m4.3-4.5v4.5M22.4.4h-8.3l-1.5 1.9L13.7 6H23l1.1-3.7L22.4.4h0zm-6 2.1l.6 3.2m3.5-3.2l-.6 3.2M13 2.5h11.2"/><path fill="none" stroke="#1d3768" stroke-miterlimit="10" stroke-width=".61" d="M8.1 17.8H4.9m5.3 0h-.7m-1.2-.5h-.8m0-2.3H9l.6 1h.5c.1 0 .2 0 .2.2v1.1h-1m.8-1.3h-2v-1m-4.3 2.3H3V14h4.5v3.3H4.7"/><circle cx="4.2" cy="17.8" r=".7" fill="none" stroke="#1d3768" stroke-miterlimit="10" stroke-width=".61"/><circle cx="8.8" cy="17.8" r=".7" fill="none" stroke="#1d3768" stroke-miterlimit="10" stroke-width=".61"/><path fill="#1d3767" d="M7.8 29.9h21.4c4.3 0 7.8 3.5 7.8 7.8s-3.5 7.8-7.8 7.8H7.8C3.5 45.4 0 42 0 37.7s3.5-7.8 7.8-7.8z"/><text fill="#fff" font-family="Arial-BoldMT" font-size="11.82" transform="translate(5.33 41.83)">DOC</text><path fill="none" stroke="#1d3767" stroke-miterlimit="10" stroke-width=".75" d="M13.8 16.3l-5-5.1M12.7 19l-.1-4.9"/><path fill="none" stroke="#fff" stroke-miterlimit="10" stroke-width=".6" d="M9.4 11.9l.5.4M10 12.5l.4.4M10.7 13.2l.4.4M11.3 13.8l.4.4"/><g><text fill="#1d3767" font-family="Arial-BoldMT" font-size="11.82" transform="translate(5.31 63.63)">1270</text></g></svg>