<?xml version="1.0" encoding="UTF-8"?>
<svg xmlns="http://www.w3.org/2000/svg" aria-describedby="desc" aria-labelledby="title" viewBox="0 0 64 64"><path fill="none" stroke="#003369" stroke-miterlimit="10" stroke-width="2" d="M62 24H10a8 8 0 0 1-8-8 8 8 0 0 1 8-8h52M14 40h-4a8 8 0 0 1-8-8 8 8 0 0 1 8-8m52 16H28m34 16H10a8 8 0 0 1-8-8 8 8 0 0 1 8-8" data-name="layer2" style="stroke: #003369;"/><path fill="none" stroke="#003369" stroke-miterlimit="10" stroke-width="2" d="M28 50l-7-6-7 6V32h14v18zm0-18h4" data-name="layer1" style="stroke: #003369;"/></svg>
