<?xml version="1.0" encoding="UTF-8"?>
<svg xmlns="http://www.w3.org/2000/svg" aria-describedby="desc" aria-labelledby="title" viewBox="0 0 64 64"><path fill="none" stroke="#003369" stroke-miterlimit="10" stroke-width="2" d="M54 32a8 8 0 0 1 8-8V14H2v10a8 8 0 1 1 0 16v10h60V40a8 8 0 0 1-8-8z" data-name="layer2" style="stroke: #003369;"/><path fill="none" stroke="#003369" stroke-miterlimit="10" stroke-width="2" d="M36.93 27A5 5 0 0 0 32 22.835c-2.762 0-5 1.821-5 4.584s2.5 4.012 5 4.581 5 1.823 5 4.583-2.238 4.584-5 4.584a5 5 0 0 1-5-5" style="stroke: #003369;"/><path fill="none" stroke="#003369" stroke-miterlimit="10" stroke-width="2" d="M32 22.835v-2.501m0 23.335v-2.5" data-name="layer1" style="stroke: #003369;"/></svg>
