<?xml version="1.0" encoding="UTF-8"?>
<svg xmlns="http://www.w3.org/2000/svg" aria-describedby="desc" aria-labelledby="title" viewBox="0 0 64 64"><circle cx="32" cy="32" r="10" fill="none" stroke="#003369" stroke-width="2" data-name="layer2" style="stroke: #003369;"/><path fill="none" stroke="#003369" stroke-width="2" d="M54 24c-6 1.8-7.1-3.5-6-6-4.5 1.2-8.9-1.9-6-8-3.4-.7-5.7-4.3-3.9-7.4A30.3 30.3 0 1 0 61.7 28c-4.4.8-6.8-1-7.7-4z" data-name="layer2" style="stroke: #003369;"/><path fill="none" stroke="#003369" stroke-width="2" d="M28 12l2 2m-8 4l-4 4m-6-4v4m0 8l-2 2m6 4v4m-2 6l2 2m10 2l2 2m10-4l-2 2m10-4v4m1.8-12l4.2 4m4-10v4" data-name="layer1" style="stroke: #003369;"/></svg>
