<?xml version="1.0" encoding="UTF-8"?>
<svg xmlns="http://www.w3.org/2000/svg" data-name="Layer 1" viewBox="0 0 113.39 113.39"><path fill="none" d="M95.47 15.17a1.2 1.2 0 1 0 0-2.4 1.2 1.2 0 0 0 0 2.4zM67.24 45.41a6.54 6.54 0 0 1 1.18-.29l-1.55-6 1.94-.49 2.77 10.77-1 .22-1 .25a15.36 15.36 0 0 0-1.16-2.72 14.72 14.72 0 0 0-3 1.22 5.45 5.45 0 0 0 .27.85s.08.07.26.12l.62.16.11.63c.3 1.74.74 2.3.87 2.36a5.53 5.53 0 0 1 .6 0 3.93 3.93 0 0 0 1.7-.22 43.21 43.21 0 0 0 4.06-3.34c.8-.93.24-3.17 0-4L70.45 33c-.06-.19-.12-.43-.18-.68A2.78 2.78 0 0 0 68.49 30l-8.8 10.51a13.27 13.27 0 0 1 7.55 4.9zM95.35 85.31a9.93 9.93 0 1 0 9.94 9.93 9.95 9.95 0 0 0-9.94-9.93zm6.06 14.5l-1.41 1.41-4.72-4.71-4.72 4.71-1.41-1.41 4.71-4.72-4.71-4.71L90.56 89l4.72 4.72L100 89l1.41 1.42-4.72 4.71zM56.66 40.19h.68l9-10.74c-2-.38-7.32-1.61-7.32-3.82v-1.77l.28-.29a6.82 6.82 0 0 0 2-4.93v-3.78a4.6 4.6 0 1 0-9.2 0v3.76a6.78 6.78 0 0 0 2 4.94l.3.29v1.82c0 2.09-3.79 3.18-7 3.73-3.78.65-4.2 2-4.64 3.46l-.05.17-3.28 12c-.2.82-.74 3.07.06 4a43.1 43.1 0 0 0 4.09 3.31 3.81 3.81 0 0 0 1.7.21h.63c.1-.06.54-.62.83-2.36l.1-.63.62-.17.24-.08a4.28 4.28 0 0 0 .27-.86v-.06a14 14 0 0 0-3.06-1.19 16.26 16.26 0 0 0-1.14 2.8l-1-.24-1-.22 2.69-10.84 1.94.48-1.4 6.03a6.74 6.74 0 0 1 1.18.29 13.23 13.23 0 0 1 10.48-5.31z"/><path fill="none" d="M48.07 46.24c1.47.66 1.69 1.11 1.78 1.29a2.08 2.08 0 0 1 0 1.43l-.06.24 5.82-7a11.29 11.29 0 0 0-7.54 4.04z"/><path fill="#1d3763" d="M41.38 86.94a2.27 2.27 0 0 1 3.39-.51 1.88 1.88 0 0 1 .7 1.32 2.45 2.45 0 0 1-.55 1.7l-3.06 3.85h3.08A1.53 1.53 0 0 0 46 91.83V79h-8.49l2.32-2.31v-5.58A2.1 2.1 0 0 1 41.92 69h4v-1H30.86v20.71h8.91z" style="fill: #003369;"/><path fill="#1d3763" d="M41.63 71.11v5.67a1.74 1.74 0 0 1-.05.39h11.68a.3.3 0 0 0 .3-.3v-5.76a.29.29 0 0 0-.3-.29H41.92a.29.29 0 0 0-.29.29zm2.43.76h7v1.8h-7zm0 2.45h7v1.8h-7zM38.13 90.51h-7.27v1.32a1.55 1.55 0 0 0 1.14 1.5H35.49zM46 64.7a1.53 1.53 0 0 0-1.46-1.08H32.4a1.54 1.54 0 0 0-1.54 1.55v1.1H46zM76.72 77.8a.88.88 0 0 0 1.18.38.66.66 0 0 0 .17-.12l5.15-4.53-6.13 3.09a.88.88 0 0 0-.37 1.18z" style="fill: #003369;"/><path fill="#1d3763" d="M112.15 56.71a54.94 54.94 0 0 0-5.94-25l-1.79.91a52.75 52.75 0 0 1 5.73 23.9H3.25A53.51 53.51 0 0 1 56.7 3.26 52.89 52.89 0 0 1 81 9.07l.91-1.78a54.83 54.83 0 0 0-25.16-6 55.46 55.46 0 1 0 30 102.12 11.92 11.92 0 1 0 16.82-16.86 56.24 56.24 0 0 0 8.58-29.84zM55.36 76.87a2.1 2.1 0 0 1-2.1 2.13h-5.43v12.83a3.33 3.33 0 0 1-2.09 3.09 7.17 7.17 0 0 1-1.49 4.21 7 7 0 0 1-2.25 1.92v4.19h-1.8V99.9l.55-.24A5.17 5.17 0 0 0 42.83 98l.71.55-.71-.55a5.36 5.36 0 0 0 1.1-2.93H42a4.36 4.36 0 0 1 0 .52 4.86 4.86 0 0 1-2 3.92l-1-1.42a3.09 3.09 0 0 0 1.25-2.47 3.15 3.15 0 0 0-.31-1.36l-.1-.28a1 1 0 0 1 0-.25v-.29a1.23 1.23 0 0 1 0-.28 1.25 1.25 0 0 1 .13-.28.74.74 0 0 1 .14-.22l3.46-4.35a.69.69 0 0 0 .15-.41.16.16 0 0 0 0-.09c-.16-.13-.38-.3-.91.32l-6.39 7.05h-3.7v5.65h-1.8v-6a3.33 3.33 0 0 1-1.86-3V65.17a3.35 3.35 0 0 1 3.34-3.35h12.09a3.34 3.34 0 0 1 3.24 2.55V69h5.51a2.1 2.1 0 0 1 2.1 2.09zm16.79-8.77l-.89-1.54a12.71 12.71 0 0 0-2.11 1.72 14.44 14.44 0 0 0-1.69 2l1.57.91-.9 1.55-1.57-.9a14.52 14.52 0 0 0-1.25 3.95l-1.78-.32A15 15 0 0 1 67.88 67a15.15 15.15 0 0 1 25.86 10.81v1h-4.25v-1.8h2.41a13.13 13.13 0 0 0-1.21-4.88l-1.11.64-.9-1.55 1.15-.67A13.13 13.13 0 0 0 88 68.28a13.67 13.67 0 0 0-1.72-1.44l-.73 1.26-1.55-.9.76-1.31a13.19 13.19 0 0 0-5-1.46v3H78V64.4a13.26 13.26 0 0 0-5.13 1.29l.88 1.51zm6.58 11.67a2.57 2.57 0 0 1-1.23.3 2.67 2.67 0 0 1-1.23-5l9.08-4.58a1.37 1.37 0 0 1 1.67.33 1.34 1.34 0 0 1 .33 1 1.38 1.38 0 0 1-.47.94l-7.63 6.71a2.26 2.26 0 0 1-.52.3zm26.56 15.47a9.94 9.94 0 1 1-9.94-9.93 9.94 9.94 0 0 1 9.94 9.93z" style="fill: #003369;"/><path fill="#1d3763" d="M95.28 93.676l4.717-4.717 1.414 1.415-4.717 4.716zM89.15 99.805l4.717-4.717 1.414 1.415-4.717 4.716z" style="fill: #003369;"/><path fill="#1d3763" d="M89.149 90.378l1.414-1.414 4.716 4.716-1.414 1.414zM95.278 96.508l1.414-1.414 4.716 4.716-1.414 1.414z" style="fill: #003369;"/><path fill="#1d3763" d="M93.868 95.096l1.414-1.415 1.414 1.415-1.414 1.414zM42.79 49.76l.98.24v-.03.01l-.98-.22zM44.51 38.68l-2.69 10.84c.08-.25 1.13-3.69 2.21-4.21a1.46 1.46 0 0 1 .92-.1l1.5-6.05zM69.34 45.2c1.09.52 2.16 3.94 2.24 4.2l-2.77-10.82-1.94.49 1.55 6a1.43 1.43 0 0 1 .92.13zM70.61 49.65l-1 .22zM56.7 48.56a4.89 4.89 0 0 0-4.87 4.91h2a2.89 2.89 0 0 1 2.88-2.9 2.9 2.9 0 0 1 2.89 2.88h2a4.91 4.91 0 0 0-4.89-4.87zM55.65 42.25l1.69-2h-.68a13.23 13.23 0 0 0-10.53 5.25l.69.23c.51.18.9.35 1.25.51a11.29 11.29 0 0 1 7.58-3.99zM67.24 45.41a13.27 13.27 0 0 0-7.55-4.86l-1.47 1.74a11.28 11.28 0 0 1 7.08 3.88c.35-.16.74-.33 1.25-.52zM56.67 42.19c-.34 0-.68 0-1 .06l-5.82 7a6.39 6.39 0 0 1-.34 1 2 2 0 0 1-.91.92A7.81 7.81 0 0 1 48 53l.76.64 9.47-11.31a12.46 12.46 0 0 0-1.5-.1zM59.69 40.55L68.49 30a7.5 7.5 0 0 0-1.62-.45l-.53-.1-9 10.74a13.16 13.16 0 0 1 2.35.36z" style="fill: #003369;"/><path fill="#1d3763" d="M57.34 40.23l-1.69 2c.34 0 .68-.06 1-.06a12.46 12.46 0 0 1 1.5.1l1.47-1.74a13.16 13.16 0 0 0-2.28-.3zM71.58 49.43l-1 .25z" style="fill: #003369;"/><path fill="#1d3763" d="M63.54 47.48a2 2 0 0 0 0 1.4 6.12 6.12 0 0 0 .42 1.26 2 2 0 0 0 .91.92c.51 2.33 1.41 3.48 2.79 3.43h.55a5.22 5.22 0 0 0 2.7-.5 38.39 38.39 0 0 0 4.56-3.76c1.32-1.51.94-3.9.45-5.84l-3.52-12a4.74 4.74 0 0 1-.15-.57c-.35-1.39-.87-3.49-5-4.22-3.89-.6-5.82-1.66-6.25-2.1v-.83a8.86 8.86 0 0 0 2.24-6.05v-3.76a6.28 6.28 0 0 0-6.6-6.65 6.28 6.28 0 0 0-6.6 6.65v3.74a8.71 8.71 0 0 0 2.29 6.07v.91c-.14.18-1.1 1.12-5.31 1.85-5 .86-5.7 3.16-6.22 4.84l-3.34 12.3c-.47 1.91-.83 4.3.49 5.79a39.59 39.59 0 0 0 4.6 3.74 5.29 5.29 0 0 0 2.7.47h.63A2.36 2.36 0 0 0 48 53l-.77-.64 2.61-3.12.06-.24a2.08 2.08 0 0 0 0-1.43c-.09-.18-.31-.63-1.78-1.29a11.66 11.66 0 0 0-.77 1l-1.68-1.1c.16-.24.34-.46.51-.68a6.74 6.74 0 0 0-1.18-.29L43.77 50a16.26 16.26 0 0 1 1.14-2.74A14 14 0 0 1 48 48.42v.06a4.28 4.28 0 0 1-.27.86l-.24.08-.62.17-.1.63c-.29 1.74-.73 2.3-.83 2.36h-.63a3.81 3.81 0 0 1-1.7-.21 43.1 43.1 0 0 1-4.09-3.31c-.8-.91-.26-3.16-.06-4l3.28-12 .05-.17c.44-1.44.86-2.81 4.64-3.46 3.18-.55 7-1.64 7-3.73v-1.85l-.3-.29a6.78 6.78 0 0 1-2-4.94v-3.76a4.6 4.6 0 1 1 9.2 0v3.78a6.82 6.82 0 0 1-2 4.93l-.28.29v1.81c0 2.21 5.31 3.44 7.32 3.82l1.29-1.55 1.54 1.29-.68.81a2.78 2.78 0 0 1 1.78 2.29c.06.25.12.49.18.68L74 44.91c.21.84.77 3.08 0 4a43.21 43.21 0 0 1-4.06 3.34 3.93 3.93 0 0 1-1.7.22 5.53 5.53 0 0 0-.6 0c-.13-.06-.57-.62-.87-2.36l-.11-.63-.66-.13c-.18-.05-.23-.08-.26-.12a5.45 5.45 0 0 1-.27-.85 14.72 14.72 0 0 1 3-1.22 15.36 15.36 0 0 1 1.16 2.72l-1.21-4.73a6.54 6.54 0 0 0-1.18.29c.14.19.3.37.44.57L66 47.11c-.23-.33-.48-.64-.73-.94-1.43.67-1.65 1.12-1.73 1.31z" style="fill: #003369;"/><path fill="#1d3763" d="M41.82 49.54l1 .22-1-.24z" style="fill: #003369;"/><path fill="#1d3763" d="M44 45.31c-1.08.52-2.13 4-2.21 4.21l1 .24 1 .22L45 45.21a1.46 1.46 0 0 0-1 .1zM70.61 49.65l1-.25c-.08-.26-1.15-3.68-2.24-4.2a1.43 1.43 0 0 0-.92-.08l1.21 4.73zM46.13 45.5c-.17.22-.35.44-.51.68l1.68 1.1a11.66 11.66 0 0 1 .77-1c-.35-.16-.74-.33-1.25-.51zM67.68 46c-.14-.2-.3-.38-.44-.57l-.69.24c-.51.19-.9.36-1.25.52.25.3.5.61.73.94zM49.49 50.2a6.39 6.39 0 0 0 .34-1l-2.61 3.12.78.68a7.81 7.81 0 0 0 .59-1.84 2 2 0 0 0 .9-.96zM68.49 30l.68-.81-1.54-1.29-1.29 1.55.53.1a7.5 7.5 0 0 1 1.62.45zM89.21 25.41L87.71 27a12 12 0 0 0 15.55 0l-1.5-1.59a8.71 8.71 0 0 1-5.21 2.36v-8.51h2.09v-1.57h-2.09v-1.28A2.52 2.52 0 0 0 98.26 14a2.78 2.78 0 0 0-5.56 0 2.54 2.54 0 0 0 1.71 2.42v1.28h-2.08v1.57h2.08v8.51a8.69 8.69 0 0 1-5.2-2.37zM94.28 14a1.21 1.21 0 0 1 2.41 0 1.21 1.21 0 0 1-2.41 0z" style="fill: #003369;"/><path fill="#1d3763" d="M107.65 17.69a12.17 12.17 0 1 0-21.39 7.9L87.84 24a9.9 9.9 0 1 1 15.29 0l1.57 1.57a12.09 12.09 0 0 0 2.95-7.88z" style="fill: #003369;"/></svg>
