<?xml version="1.0" encoding="UTF-8"?>
<svg xmlns="http://www.w3.org/2000/svg" data-name="Layer 1" viewBox="0 0 64 64"><path fill="none" stroke="#00336a" stroke-width="2" d="M10.08 49.31h.56a11.66 11.66 0 0 1 3.42.51L31.54 56a7 7 0 0 0 5.55-.78l22.1-13.28a3.5 3.5 0 0 0 .81-5.32 3.58 3.58 0 0 0-4.35-.74l-8.71 4.64" style="stroke: #003369;"/><path fill="none" stroke="#00336a" stroke-width="2" d="M26.23 44.69h17.11A3.58 3.58 0 0 0 47 41.42a3.46 3.46 0 0 0-3.45-3.65H31.79a4.54 4.54 0 0 1-3.15-1.25 13.44 13.44 0 0 0-9.33-3.37A14.59 14.59 0 0 0 12 35a3.52 3.52 0 0 1-1.8.45h-.14" style="stroke: #003369;"/><path fill="none" stroke="#00336a" stroke-width="2" d="M3.16 33.15h6.92v20.77H5.46M58.54 25c-4.54 6.23-16.9 10.45-26.35 6.8-7.07-2.74-11-10-8.79-16.37s9.8-9.35 16.9-6.68S50 21.31 58.54 25zM14.69 16.7c8-4.18 19.31-2.11 25.39 4.61" style="stroke: #003369;"/></svg>
