<?xml version="1.0" encoding="UTF-8"?>
<svg xmlns="http://www.w3.org/2000/svg" data-name="Layer 1" viewBox="0 0 64 64"><path fill="none" stroke="#1d3763" stroke-miterlimit="10" stroke-width="2" d="M24.71 39.35h32.07a5.12 5.12 0 0 1 5.07 4.33l-29.14 6.41a11.38 11.38 0 0 1-6.36-.32L8.2 43.46a.74.74 0 0 0-.2-.05l-5.79-.08v-13.9h8.93a.75.75 0 0 0 .26-.05l2.48-.85a15.88 15.88 0 0 1 6-1 21.82 21.82 0 0 1 5.3 1l13.25 4.27a5.46 5.46 0 0 1 4 5.7M41.69 23.3c-11.6-.35-14.52-7.22-15.2-9.69H27c11.59-.01 14.15 7.15 14.69 9.69zM42.39 23.3c.55-2.58 3.18-9.89 15.21-9.69-.68 2.47-3.6 9.39-15.21 9.69zM42.04 24.36v5.1" style="stroke: #003369;"/></svg>
