<?xml version="1.0" encoding="UTF-8"?>
<svg xmlns="http://www.w3.org/2000/svg" data-name="Layer 1" viewBox="0 0 64 64"><path fill="none" stroke="#1d3763" stroke-miterlimit="10" stroke-width="2" d="M41.28 41.49l15.21-7.14a2.7 2.7 0 0 1 3 .47 2.69 2.69 0 0 1-.2 4.07L41 53.15a10.34 10.34 0 0 1-9.76 1.94l-20-5.28a.64.64 0 0 0-.2 0H3.66v-12H12a.84.84 0 0 0 .48-.16s5-3.75 9.22-3.48S40.36 41 41.11 41.36c.23.16 3.62 1.23 2.57 4.27-.47 1.39-2.63 1.73-3.89 1.43l-16.65-3.85" style="stroke: #003369;"/><path fill="none" stroke="#1d3763" stroke-miterlimit="10" stroke-width="2" d="M58.45 25.64C54 31.9 41.56 36.11 32.11 32.46c-7.07-2.74-11-10-8.8-16.37s9.81-9.35 16.91-6.68S49.94 22 58.45 25.64zM14.61 17.36C22.55 13.18 33.92 15.25 40 22" style="stroke: #003369;"/></svg>
