<?xml version="1.0" encoding="UTF-8"?>
<svg xmlns="http://www.w3.org/2000/svg" aria-describedby="desc" aria-labelledby="title" viewBox="0 0 64 64"><ellipse cx="24.959" cy="10" fill="none" stroke="#003369" stroke-width="2" data-name="layer2" rx="23" ry="8" style="stroke: #003369;"/><path fill="none" stroke="#003369" stroke-width="2" d="M47.959 36.953V9.96m0 12.059c0 4.4-10.3 7.962-23 7.962s-23-3.564-23-7.962m46 12.001c0 4.4-10.3 7.961-23 7.961s-23-3.565-23-7.961" data-name="layer2" style="stroke: #003369;"/><path fill="none" stroke="#003369" stroke-width="2" d="M55.018 30L34.264 50.707 29.881 62l11.406-4.266 20.754-20.707L55.018 30zM34.264 50.707l7.023 7.027" data-name="layer1" style="stroke: #003369;"/><path fill="none" stroke="#003369" stroke-width="2" d="M33.205 53.433a62.991 62.991 0 0 1-8.246.527c-12.7 0-23-3.564-23-7.961V10" data-name="layer2" style="stroke: #003369;"/></svg>
