<?xml version="1.0" encoding="UTF-8"?>
<svg xmlns="http://www.w3.org/2000/svg" aria-describedby="desc" aria-labelledby="title" viewBox="0 0 64 64"><path fill="none" stroke="#003369" stroke-width="2" d="M23 62V34m5.9 21.1v-.6c-1.1-4.5-6-12.2-6-14.5 0 2.3-4.7 10.1-5.7 14.5v.5a5.9 5.9 0 0 0-.1 1 6 6 0 0 0 12 0 5.7 5.7 0 0 0-.2-.9zM11 60.4A6 6 0 0 1 9.1 56a6.1 6.1 0 0 1 .1-1v-.5C10.3 50.1 15 42.3 15 40v-6" data-name="layer2" style="stroke: #003369;"/><circle cx="14" cy="25" r="1" fill="none" stroke="#003369" stroke-width="2" data-name="layer2" style="stroke: #003369;"/><circle cx="14" cy="17" r="1" fill="none" stroke="#003369" stroke-width="2" data-name="layer2" style="stroke: #003369;"/><path fill="none" stroke="#003369" stroke-width="2" d="M45 13a5 5 0 0 1-5 5H26a5 5 0 0 1-5-5 5 5 0 0 1 5-5h14a5 5 0 0 1 5 5z" data-name="layer1" style="stroke: #003369;"/><path fill="none" stroke="#003369" stroke-width="2" d="M58.5 25.9l-5-16.1A10.5 10.5 0 0 0 43 2H5v32h48c4 0 7.1-2.9 5.5-8.1z" data-name="layer1" style="stroke: #003369;"/></svg>
