<?xml version="1.0" encoding="UTF-8"?>
<svg xmlns="http://www.w3.org/2000/svg" data-name="Layer 1" viewBox="0 0 64 64"><path fill="none" stroke="#00336a" stroke-width="2" d="M15.84 53.14v3.71A1.85 1.85 0 0 1 14 58.7H6.57a1.85 1.85 0 0 1-1.86-1.85V53m51.92 0v3.89a1.85 1.85 0 0 1-1.86 1.85h-7.41a1.85 1.85 0 0 1-1.86-1.85v-3.75" style="stroke: #003369;"/><path fill="none" stroke="#00336a" stroke-width="2" d="M51.06 29l-7.41-11.08h-26L10.28 29l-7.42 7.46v13.9a2.77 2.77 0 0 0 2.78 2.78H55.7a2.78 2.78 0 0 0 2.78-2.78v-13.9zM8.61 30.89h44.15M2.86 45.73h55.51M2.86 29h7.42" style="stroke: #003369;"/><path fill="none" stroke="#00336a" stroke-width="2" d="M2.86 38.31h9.27l7.42 7.42m38.93-7.42h-9.27l-7.42 7.42" style="stroke: #003369;"/><path fill="none" stroke="#00336a" stroke-miterlimit="3" stroke-width="2" d="M23.5 12.02h4.84V7.59H23.5" style="stroke: #003369;"/><path fill="none" stroke="#00336a" stroke-miterlimit="3" stroke-width="2" d="M28.34 12v2.3h3.91a4.36 4.36 0 0 0 3.18-1.3 4.34 4.34 0 0 0 1.33-3.2 4.52 4.52 0 0 0-3.49-4.4 4.9 4.9 0 0 0-1-.1h-3.93v2.29" style="stroke: #003369;"/><path fill="none" stroke="#00336a" stroke-miterlimit="3" stroke-width="2" d="M51.1 29h.45a9.59 9.59 0 1 0 0-19.18H36.72M27.62 49.92l8.46-11.4h-8.71l8.44-11.43" style="stroke: #003369;"/></svg>
