<?xml version="1.0" encoding="UTF-8"?>
<svg xmlns="http://www.w3.org/2000/svg" data-name="Layer 1" viewBox="0 0 64 64"><path fill="#00336a" d="M11.35 33.57H5.51v-2h3.84v-2.43H5.51v-2h5.84v6.43z" style="fill: #003369;"/><path fill="#00336a" d="M14.26 35.85H9.35v-3.28h2v1.28h2.91a4.07 4.07 0 0 0 .79-.08 3.25 3.25 0 0 0 1.67-1 3.32 3.32 0 0 0 1-2.47 3.39 3.39 0 0 0-1-2.49 3.34 3.34 0 0 0-1.67-.94 4.09 4.09 0 0 0-.8-.08h-2.9v1.3h-2v-3.3h4.91a6.08 6.08 0 0 1 1.22.13 5.5 5.5 0 0 1 2.66 9.26 5.27 5.27 0 0 1-2.65 1.49 5.52 5.52 0 0 1-1.23.18z" style="fill: #003369;"/><path fill="#00336a" d="M32.22 50.58v-2a8.59 8.59 0 1 0 0-17.18H18.71v-2h13.51a10.59 10.59 0 1 1 0 21.18z" style="fill: #003369;"/><g fill="#00336a"><path d="M54.8 57.79a7 7 0 1 1 7-7 7 7 0 0 1-7 7zm0-12a5 5 0 1 0 5 5 5 5 0 0 0-5-5zM9.2 57.79a7 7 0 1 1 7-7 7 7 0 0 1-7 7zm0-12a5 5 0 1 0 5 5 5 5 0 0 0-5-5z" style="fill: #003369;"/><path d="M42.7 50.59H19l-.1-.89A9.77 9.77 0 0 0 9.2 41v-2a11.76 11.76 0 0 1 11.54 9.6h21l8.56-11.69 1.61 1.18zM44.13 10.19h6.52v2h-6.52z" style="fill: #003369;"/></g><path fill="#00336a" d="M42.614 7.458l1.94-.486L55.355 50.1l-1.94.486z" style="fill: #003369;"/></svg>
