<?xml version="1.0" encoding="UTF-8"?>
<svg xmlns="http://www.w3.org/2000/svg" data-name="Layer 1" viewBox="0 0 64 64"><path fill="none" stroke="#00336a" stroke-miterlimit="3" stroke-width="2" d="M28.81 26.33h-6.2v5.68h6.2M22.61 26.33V23.4h-5a5.66 5.66 0 0 0-1.31.14 5.79 5.79 0 0 0-2.77 9.73 5.54 5.54 0 0 0 2.77 1.55 6.26 6.26 0 0 0 1.31.13h5V32" style="stroke: #003369;"/><path fill="none" stroke="#00336a" stroke-miterlimit="10" stroke-width="2" d="M39.66 40.35h5a6.59 6.59 0 0 0 13-.12 4 4 0 0 0 3.07-3.93v-3.11a4.06 4.06 0 0 0-3-3.92l-11-2.63c-.37-.1-11.39-8.14-14.42-8.14h-16.6c-2.59 0-9.91 6-9.91 6A2.84 2.84 0 0 0 8 29.18h4.28m-9 2.45v4.3a4.43 4.43 0 0 0 3.42 4.31 6.59 6.59 0 0 0 13 .11h6" style="stroke: #003369;"/><path fill="none" stroke="#00336a" stroke-miterlimit="3" stroke-width="2" d="M30.89 48.3l5.17-7.92h-6.04l5.17-7.94" style="stroke: #003369;"/></svg>
