<?xml version="1.0" encoding="UTF-8"?>
<svg xmlns="http://www.w3.org/2000/svg" data-name="Layer 1" viewBox="0 0 64 64"><path fill="#00336a" d="M9.4 54.53a3.48 3.48 0 1 1 3.48-3.48 3.49 3.49 0 0 1-3.48 3.48zm0-5a1.48 1.48 0 1 0 1.48 1.48 1.48 1.48 0 0 0-1.48-1.44z" style="fill: #003369;"/><path fill="#00336a" d="M9.4 59.44a8.4 8.4 0 1 1 8.39-8.39 8.4 8.4 0 0 1-8.39 8.39zm0-14.79a6.4 6.4 0 1 0 6.39 6.4 6.41 6.41 0 0 0-6.39-6.4zM54.6 54.53a3.48 3.48 0 1 1 3.48-3.48 3.49 3.49 0 0 1-3.48 3.48zm0-5a1.48 1.48 0 1 0 1.48 1.48 1.47 1.47 0 0 0-1.48-1.44z" style="fill: #003369;"/><path fill="#00336a" d="M54.6 59.44a8.4 8.4 0 1 1 8.4-8.39 8.39 8.39 0 0 1-8.4 8.39zm0-14.79a6.4 6.4 0 1 0 6.4 6.4 6.4 6.4 0 0 0-6.4-6.4z" style="fill: #003369;"/><path fill="#00336a" d="M45.1 52.05H18.9v-1a9.52 9.52 0 0 0-9.5-9.51v-2a11.53 11.53 0 0 1 11.46 10.51h22.28c.45-6 5-10.49 10.91-10.49v2c-5.1 0-8.95 4.08-8.95 9.49z" style="fill: #003369;"/><path fill="#00336a" d="M47.693 10.684l1.97-.352 5.92 33.135-1.97.352z" style="fill: #003369;"/><path fill="#00336a" d="M48.69 11.51A3.48 3.48 0 1 1 52.16 8a3.48 3.48 0 0 1-3.47 3.51zm0-4.95A1.48 1.48 0 1 0 50.16 8a1.47 1.47 0 0 0-1.47-1.44zM11.46 35.31H5.63v-2h3.83v-2.43H5.63v-2h5.83v6.43z" style="fill: #003369;"/><path fill="#00336a" d="M14.37 37.59H9.46v-3.28h2v1.28h2.91a4.09 4.09 0 0 0 .8-.08 3.58 3.58 0 0 0 2.71-3.42 3.38 3.38 0 0 0-1-2.49 3.3 3.3 0 0 0-1.66-.93 3.48 3.48 0 0 0-.81-.08h-2.95v1.29h-2v-3.29h4.91a6.11 6.11 0 0 1 1.23.12 5.54 5.54 0 0 1 4.28 5.38 5.57 5.57 0 0 1-4.27 5.37 5.61 5.61 0 0 1-1.24.13z" style="fill: #003369;"/><path fill="#00336a" d="M29.75 48.58h-7.26v-2h7.26a6.68 6.68 0 0 0 0-13.35H19v-2h10.8a8.68 8.68 0 0 1 0 17.35z" style="fill: #003369;"/></svg>
