<?xml version="1.0" encoding="UTF-8"?>
<svg xmlns="http://www.w3.org/2000/svg" data-name="Layer 1" viewBox="0 0 64 64"><path fill="#00336a" d="M25.19 29.97h-6.02v-2h4.02v-2.6h-4.02v-2h6.02v6.6z" style="fill: #003369;"/><path fill="#00336a" d="M28.26 32.35h-5.07V29h2v1.38h3.07a3.7 3.7 0 0 0 .83-.09 3.76 3.76 0 0 0 2.85-3.59 3.71 3.71 0 0 0-2.84-3.6 4.52 4.52 0 0 0-.84-.08h-3.07v1.38h-2V21h5.07a5.88 5.88 0 0 1 1.27.13 5.7 5.7 0 0 1 4.41 5.55 5.43 5.43 0 0 1-1.68 4 5.49 5.49 0 0 1-2.73 1.53 5.81 5.81 0 0 1-1.27.14z" style="fill: #003369;"/><g fill="#00336a"><path d="M54.8 58.08a7 7 0 0 1-3.55-13l1 1.72a5 5 0 1 0 2.54-.69h-.15l-.06-2h.21a7 7 0 0 1 0 14zM9.2 58.08A7 7 0 1 1 16 49.3l-1.93.53a5.14 5.14 0 0 0-4.87-3.75 5 5 0 1 0 4.87 6.16l1.93.46a7 7 0 0 1-6.8 5.38z" style="fill: #003369;"/><path d="M18.79 49.77a9.49 9.49 0 0 0-9.59-8.49v-2a11.47 11.47 0 0 1 11.58 10.26zM41.66 49.133l7.117-11.555 1.702 1.05-7.116 11.553zM34.65 8.66h6.52v2h-6.52zM44.22 8.66h6.52v2h-6.52z" style="fill: #003369;"/></g><path fill="#00336a" d="M44.26 53.42H9.58a2.42 2.42 0 0 1 0-4.83h34.68a2.42 2.42 0 1 1 0 4.83zM9.58 50.59a.41.41 0 0 0-.41.42.41.41 0 0 0 .41.41h34.68a.41.41 0 0 0 .42-.41.42.42 0 0 0-.42-.42zM53.6 45.39L42.85 8.22a.4.4 0 0 0-.51-.28.42.42 0 0 0-.29.51l4.4 15.48a3 3 0 0 1-.46 2.7 3.24 3.24 0 0 1-2.61 1.08H33.13v-2h10.25a1.38 1.38 0 0 0 1-.33 1.33 1.33 0 0 0 .07-1L40.13 9a2.42 2.42 0 0 1 4.65-1.35l10.74 37.19z" style="fill: #003369;"/><path fill="#00336a" d="M54.64 52.94a2.42 2.42 0 0 1-2.32-1.75L45.76 28.6l1.92-.6 6.56 22.6a.49.49 0 0 0 .2.25.44.44 0 0 0 .32 0 .43.43 0 0 0 .29-.52l-1.45-5 1.92-.55 1.45 5a2.42 2.42 0 0 1-1.65 3 2.24 2.24 0 0 1-.68.16z" style="fill: #003369;"/></svg>
