<?xml version="1.0" encoding="UTF-8"?>
<svg xmlns="http://www.w3.org/2000/svg" aria-describedby="desc" aria-labelledby="title" viewBox="0 0 64 64"><path fill="none" stroke="#003369" stroke-width="2" d="M19 36v26m6-6a6 6 0 0 1-6 6 6 6 0 0 1-6-6v-2a6 6 0 0 1 6-6 6 6 0 0 1 6 6zm14-20v26m6-6a6 6 0 0 1-6 6 6 6 0 0 1-6-6v-2a6 6 0 0 1 6-6 6 6 0 0 1 6 6z" data-name="layer2" style="stroke: #003369;"/><path fill="none" stroke="#003369" stroke-width="2" d="M43 22H17A10 10 0 0 0 7 32v4h50V12A10 10 0 0 0 47 2H21s-.1 8 8 8h10c1.6 0 4 .4 4 3.9z" data-name="layer1" style="stroke: #003369;"/></svg>
