<?xml version="1.0" encoding="UTF-8"?>
<svg xmlns="http://www.w3.org/2000/svg" data-name="Layer 1" viewBox="0 0 64 64"><path fill="none" stroke="#00336a" stroke-miterlimit="3" stroke-width="2" d="M34.16 26.13h-6.2v5.69h6.2" style="stroke: #003369;"/><path fill="none" stroke="#00336a" stroke-miterlimit="3" stroke-width="2" d="M28 26.13V23.2h-5a6.19 6.19 0 0 0-1.31.14 5.47 5.47 0 0 0-2.77 1.57A5.53 5.53 0 0 0 17.16 29a5.59 5.59 0 0 0 1.7 4.1 5.48 5.48 0 0 0 2.77 1.54 6.19 6.19 0 0 0 1.31.14h5v-2.96" style="stroke: #003369;"/><path fill="none" stroke="#00336a" stroke-miterlimit="10" stroke-width="2" d="M3.26 31.44v4.3a4.43 4.43 0 0 0 3.44 4.31 6.59 6.59 0 0 0 13 .11h24.94a6.59 6.59 0 0 0 13-.12 4.07 4.07 0 0 0 3.07-3.94V33a4.06 4.06 0 0 0-3-3.92l-11-2.64c-.37-.1-11.39-8.13-14.42-8.13H15.71c-2.59 0-9.91 6-9.91 6A2.83 2.83 0 0 0 8 29h9.63" style="stroke: #003369;"/></svg>
