<?xml version="1.0" encoding="UTF-8"?>
<svg xmlns="http://www.w3.org/2000/svg" aria-describedby="desc" aria-labelledby="title" viewBox="0 0 64 64"><path fill="none" stroke="#003369" stroke-miterlimit="10" stroke-width="2" d="M47 36h-8v-8h-6v8h-8v6h8v8h6v-8h8v-6z" data-name="layer2" style="stroke: #003369;"/><path fill="none" stroke="#003369" stroke-miterlimit="10" stroke-width="2" d="M54 21v-4a2 2 0 0 0-2-2H20v-4a2 2 0 0 0-2-2H4a2 2 0 0 0-2 2v43a3 3 0 0 0 3 3h54a3 3 0 0 0 3-3V23a2 2 0 0 0-2-2H12a2 2 0 0 0-2 2v31a3 3 0 0 1-3 3" data-name="layer1" style="stroke: #003369;"/></svg>
