<?xml version="1.0" encoding="UTF-8"?>
<svg xmlns="http://www.w3.org/2000/svg" viewBox="0 0 64 64"><path fill="#003369" d="M50.16 41.79H39.52c-2.31 0-4.18-1.88-4.18-4.18V25.27c0-2.31 1.88-4.18 4.18-4.18h10.64c2.3 0 4.18 1.88 4.18 4.18v12.34c0 2.31-1.88 4.18-4.18 4.18zm-10.64-18.7c-1.2 0-2.18.98-2.18 2.18v12.34c0 1.2.98 2.18 2.18 2.18h10.64c1.2 0 2.18-.98 2.18-2.18V25.27c0-1.2-.98-2.18-2.18-2.18H39.52z" style="fill: #003369;"/><g fill="#003369"><path d="M44.84 37.95c-1.52 0-2.76-1.24-2.76-2.76s1.24-2.76 2.76-2.76 2.76 1.24 2.76 2.76-1.24 2.76-2.76 2.76zm0-3.52a.76.76 0 1 0 0 1.52.76.76 0 0 0 0-1.52zM44.84 30.45c-1.52 0-2.76-1.24-2.76-2.76s1.24-2.76 2.76-2.76 2.76 1.24 2.76 2.76-1.24 2.76-2.76 2.76zm0-3.52a.76.76 0 1 0 0 1.52.76.76 0 0 0 0-1.52z" style="fill: #003369;"/></g><path fill="#003369" d="M56.16 37.42h-1.77c-1.13 0-2.05-.92-2.05-2.05v-6.64c0-1.13.92-2.05 2.05-2.05h1.77c1.13 0 2.05.92 2.05 2.05v6.64c0 1.13-.92 2.05-2.05 2.05zm-1.77-8.73l-.05 6.69 1.82.05s.05-.02.05-.05v-6.64l-1.82-.05zM8.92 35.44H7.81c-1.13 0-2.05-.92-2.05-2.05v-3.91c0-1.13.92-2.05 2.05-2.05h1.11c1.13 0 2.05.92 2.05 2.05v3.91c0 1.13-.92 2.05-2.05 2.05zm-1.11-6l-.05 3.96 1.16.05s.05-.02.05-.05v-3.91l-1.16-.05z" style="fill: #003369;"/><path fill="#003369" d="M38.68 62.07c-.26-4.71 2.05-10.58 6.96-12.67 1.81-.77 3.52-1.22 5.17-1.65 2.04-.53 3.97-1.04 5.98-2.12 3.34-1.8 5.07-6.19 3.87-9.78-.42-1.25-1.67-3.06-3.37-2.92l-.16-1.99c2.68-.21 4.69 2.06 5.43 4.28 1.52 4.55-.59 9.9-4.82 12.18-2.22 1.2-4.36 1.75-6.42 2.29-1.58.41-3.21.84-4.89 1.55-4.06 1.73-5.96 6.71-5.75 10.72l-2 .11zM6.13 32.51c-.86 0-1.72-.29-2.52-.85-1.37-.97-2.39-2.63-2.59-4.25-.27-2.19.45-4.61 1.99-6.65.91-1.21 2.08-2.26 3.38-3.04 1.03-.62 2.13-1.07 3.2-1.51 1.23-.51 2.4-.99 3.42-1.69 2.13-1.49 3.32-3.83 3.94-5.54.83-2.27 1.19-4.74 1.54-7.13l1.98.29c-.36 2.49-.74 5.07-1.64 7.53-1.03 2.83-2.65 5.08-4.67 6.49-1.2.83-2.52 1.38-3.8 1.9-1.04.43-2.03.83-2.93 1.37-1.08.65-2.06 1.53-2.82 2.54-1.23 1.62-1.81 3.51-1.6 5.19.13 1.05.85 2.22 1.76 2.86.6.42 1.2.57 1.79.44l.43 1.95c-.28.06-.57.09-.85.09z" style="fill: #003369;"/><g fill="#003369"><path d="M24.8 18.53l-1.34-1.5c-.36-.4-.72-.8-1.09-1.2l-.67-.73 1.46-1.37c.23.25.46.49.69.74.37.4.73.81 1.1 1.22l1.34 1.5-1.49 1.33zM30.697 15.523l.18-4.896 1.998.073-.18 4.897zM37.436 16.953l3.4-3.486 1.432 1.396-3.4 3.486z" style="fill: #003369;"/></g><g fill="#003369"><path d="M37.98 50.11l-.57-.83c-.3-.45-.6-.9-.9-1.34l-1.13-1.69 1.66-1.11 1.13 1.69c.3.44.59.89.89 1.33l.56.81-1.64 1.14zM27.928 51.721l.87-4.822 1.969.355-.87 4.823zM19.23 46.29l3.857-2.974 1.22 1.585-3.857 2.972z" style="fill: #003369;"/></g><g fill="#003369"><path d="M31.38 31.01h-3.83c-1.29 0-2.34-1.05-2.34-2.34s1.05-2.34 2.34-2.34h3.83c1.29 0 2.34 1.05 2.34 2.34s-1.05 2.34-2.34 2.34zm-3.83-2.68c-.18 0-.34.16-.34.34s.16.34.34.34h3.83c.18 0 .34-.16.34-.34s-.16-.34-.34-.34h-3.83zM31.38 36.55h-3.83c-1.29 0-2.34-1.05-2.34-2.34s1.05-2.34 2.34-2.34h3.83c1.29 0 2.34 1.05 2.34 2.34s-1.05 2.34-2.34 2.34zm-3.83-2.68c-.18 0-.34.16-.34.34s.16.34.34.34h3.83c.18 0 .34-.16.34-.34s-.16-.34-.34-.34h-3.83z" style="fill: #003369;"/></g><path fill="#003369" d="M26.21 39.31c-2.34 0-4.1-3.34-4.1-7.77 0-3.86 1.44-7.97 4.1-7.97 1.56 0 2.71 1.17 3.4 3.47l-1.92.58c-.28-.93-.76-2.05-1.48-2.05s-2.1 2.32-2.1 5.97 1.27 5.77 2.1 5.77c.28 0 1.07-.64 1.62-2.11l1.88.7c-.61 1.65-1.85 3.41-3.49 3.41z" style="fill: #003369;"/><path fill="#003369" d="M30.19 32.98l-1.99-.22c.05-.46.07-1.2.07-1.68 0-.27-.02-.44-.04-.65l-.03-.32 1.99-.17.03.29c.03.28.05.5.05.86 0 .27 0 1.22-.08 1.9zM26.15 39.31H13.11c-2.29 0-4.14-1.88-4.14-4.18v-7.37c0-2.31 1.86-4.18 4.14-4.18h13.04v2H13.11c-1.18 0-2.14.98-2.14 2.18v7.37c0 1.2.96 2.18 2.14 2.18h13.04v2z" style="fill: #003369;"/></svg>
