<?xml version="1.0" encoding="UTF-8"?>
<svg xmlns="http://www.w3.org/2000/svg" data-name="Layer 1" viewBox="0 0 64 64"><path fill="none" stroke="#00336a" stroke-width="2" d="M17.16 46.83v3.71a1.85 1.85 0 0 1-1.85 1.85H7.89A1.85 1.85 0 0 1 6 50.54v-3.89m51.91 0v3.89a1.85 1.85 0 0 1-1.86 1.85h-7.37a1.85 1.85 0 0 1-1.86-1.85v-3.71M4.18 22.61h7m41.18 0h7.42M4.18 32h11.27l3.42 7.42H4.29M59.8 32H48.53l-3.41 7.42h14.32" style="stroke: #003369;"/><path fill="none" stroke="#00336a" stroke-miterlimit="3" stroke-width="2" d="M28.91 15.7v6.96h6.38V15.7M28.91 22.66h-3.29v5.63a6.43 6.43 0 0 0 .16 1.47 6.49 6.49 0 0 0 10.92 3.11 6.3 6.3 0 0 0 1.74-3.11 7 7 0 0 0 .15-1.47v-5.63h-3.3" style="stroke: #003369;"/><path fill="none" stroke="#00336a" stroke-miterlimit="3" stroke-width="2" d="M32.46 34.78v9.85a2.21 2.21 0 0 1-2.21 2.21H7a2.78 2.78 0 0 1-2.78-2.78V30.15l7.42-7.42L19 11.61h26l7.42 11.12 7.41 7.42v13.9A2.77 2.77 0 0 1 57 46.83H38.43" style="stroke: #003369;"/></svg>
