<?xml version="1.0" encoding="UTF-8"?>
<svg xmlns="http://www.w3.org/2000/svg" data-name="Layer 1" viewBox="0 0 64 64"><path fill="#00336a" d="M25.19 28.6h-6.02v-2h4.02V24h-4.02v-2h6.02v6.6z" style="fill: #003369;"/><path fill="#00336a" d="M28.26 31h-5.07v-3.4h2V29h3.07a3.7 3.7 0 0 0 .83-.09 3.52 3.52 0 0 0 1.76-1 3.46 3.46 0 0 0 1.09-2.59 3.71 3.71 0 0 0-2.84-3.6 3.74 3.74 0 0 0-.84-.08h-3.07V23h-2v-3.38h5.07a5.88 5.88 0 0 1 1.27.13 5.7 5.7 0 0 1 4.41 5.55 5.43 5.43 0 0 1-1.68 4 5.49 5.49 0 0 1-2.73 1.53 5.81 5.81 0 0 1-1.27.17z" style="fill: #003369;"/><g fill="#00336a"><path d="M54.8 56.71a7 7 0 0 1-3.55-13l1 1.72a5 5 0 1 0 2.54-.69h-.15l-.06-2h.21a7 7 0 0 1 0 14zM9.2 56.71a7 7 0 1 1 6.8-8.79l-1.93.53a5.13 5.13 0 0 0-4.87-3.74 5 5 0 1 0 4.86 6.16l2 .46a7 7 0 0 1-6.86 5.38z" style="fill: #003369;"/><path d="M18.79 48.39a9.49 9.49 0 0 0-9.59-8.48v-2a11.47 11.47 0 0 1 11.58 10.26zM41.663 47.764L48.78 36.21l1.703 1.049-7.117 11.554zM34.65 7.29h16.18v2H34.65z" style="fill: #003369;"/></g><path fill="#00336a" d="M44.26 52.05H9.58a2.42 2.42 0 0 1 0-4.83h34.68a2.42 2.42 0 1 1 0 4.83zM9.58 49.22a.41.41 0 0 0-.41.42.41.41 0 0 0 .41.41h34.68a.41.41 0 0 0 .42-.41.42.42 0 0 0-.42-.42zM33.12 26.35v-2h10.26a1.38 1.38 0 0 0 1-.33 1.33 1.33 0 0 0 .07-1c0-.18-2.91-10.22-4-14l1.92-.55 4 14.08a3 3 0 0 1-.47 2.7 3.2 3.2 0 0 1-2.6 1.08zM43.445 8.89l1.92-.556L55.52 43.466l-1.922.555z" style="fill: #003369;"/><path fill="#00336a" d="M54.64 51.57a2.42 2.42 0 0 1-2.32-1.75l-6.56-22.6 1.92-.55 6.56 22.59a.45.45 0 0 0 .2.25.39.39 0 0 0 .32 0 .43.43 0 0 0 .29-.52L53.6 44l1.92-.56 1.45 5a2.42 2.42 0 0 1-1.65 3 2.6 2.6 0 0 1-.68.13z" style="fill: #003369;"/></svg>
