<?xml version="1.0" encoding="UTF-8"?>
<svg xmlns="http://www.w3.org/2000/svg" data-name="Layer 1" viewBox="0 0 64 64"><path fill="none" stroke="#00336a" stroke-width="2" d="M17.54 53.53v3.7a1.85 1.85 0 0 1-1.85 1.86H8.27a1.85 1.85 0 0 1-1.85-1.86v-3.89m51.91 0v3.89a1.85 1.85 0 0 1-1.85 1.86h-7.42a1.85 1.85 0 0 1-1.85-1.86v-3.7" style="stroke: #003369;"/><path fill="none" stroke="#00336a" stroke-width="2" d="M52.77 29.42L45.35 18.3H19.4L12 29.42l-7.43 7.42v13.91a2.78 2.78 0 0 0 2.78 2.78h50.06a2.79 2.79 0 0 0 2.78-2.78V36.84zm-42.46 1.86h44M4.57 29.42H12" style="stroke: #003369;"/><path fill="none" stroke="#00336a" stroke-width="2" d="M4.57 38.69h9.27l5.41 7.42H4.53m55.66-7.42h-9.27l-5.42 7.42h14.6" style="stroke: #003369;"/><path fill="none" stroke="#00336a" stroke-miterlimit="3" stroke-width="2" d="M25.21 12.4h4.83V7.97h-4.83" style="stroke: #003369;"/><path fill="none" stroke="#00336a" stroke-miterlimit="3" stroke-width="2" d="M30 12.4v2.29h4a4.74 4.74 0 0 0 1-.11 4.28 4.28 0 0 0 2.16-1.22 4.28 4.28 0 0 0 1.33-3.17A4.35 4.35 0 0 0 37.13 7 4.26 4.26 0 0 0 35 5.78a5.49 5.49 0 0 0-1-.1h-4V8" style="stroke: #003369;"/><path fill="none" stroke="#00336a" stroke-miterlimit="3" stroke-width="2" d="M52.81 29.42h.44a9.6 9.6 0 1 0 0-19.19H38.42M30.08 50.12l7.46-11.41h-8.71l7.45-11.42" style="stroke: #003369;"/></svg>
