<?xml version="1.0" encoding="UTF-8"?>
<svg xmlns="http://www.w3.org/2000/svg" data-name="Layer 1" viewBox="0 0 64 64"><path fill="none" stroke="#00336a" stroke-width="2" d="M12.24 45.38H2V17.27a1.71 1.71 0 0 1 1.71-1.71h6.85a1.71 1.71 0 0 1 1.71 1.71z" style="stroke: #003369;"/><path fill="none" stroke="#00336a" stroke-miterlimit="3" stroke-width="2" d="M6.22 38.65l2.21-3.39H5.85l2.21-3.39" style="stroke: #003369;"/><path fill="none" stroke="#00336a" stroke-width="2" d="M4.95 19.51h4.28M4.95 22.73h4.28M29.78 41.06v2.8a1.4 1.4 0 0 1-1.4 1.4h-5.61a1.4 1.4 0 0 1-1.4-1.4v-2.94m39.24 0v2.94a1.4 1.4 0 0 1-1.4 1.4h-5.6a1.41 1.41 0 0 1-1.41-1.4v-2.8M20 22.74h5.32m31.13 0H62M20 29.84h8.52l3.58 5.61h-12m42-5.61h-8.6l-3.59 5.61h11.83" style="stroke: #003369;"/><path fill="none" stroke="#00336a" stroke-miterlimit="3" stroke-width="2" d="M22.07 41.06A2.1 2.1 0 0 1 20 39V28.44l5.6-5.6 5.61-8.41H50.8l5.61 8.41 5.59 5.6V39a2.11 2.11 0 0 1-2.11 2.11z" style="stroke: #003369;"/><path fill="none" stroke="#00336a" stroke-miterlimit="3" stroke-width="2" d="M41.34 29.84V47.9a1.67 1.67 0 0 1-1.67 1.67H17.82a1.7 1.7 0 0 1-1.71-1.71V36.54a1.29 1.29 0 0 0-1.29-1.28h-2.58" style="stroke: #003369;"/><path fill="none" stroke="#00336a" stroke-width="2" d="M29.78 35.45h24.41M24.53 23.88h32.92M39 29.84h4.73" style="stroke: #003369;"/></svg>
