<?xml version="1.0" encoding="UTF-8"?>
<svg xmlns="http://www.w3.org/2000/svg" data-name="Layer 1" viewBox="0 0 64 64"><path fill="none" stroke="#00336a" stroke-miterlimit="3" stroke-width="2" d="M34.37 24.33h-6.2v5.69h6.2" style="stroke: #003369;"/><path fill="none" stroke="#00336a" stroke-miterlimit="3" stroke-width="2" d="M28.17 24.33V21.4h-5a6.26 6.26 0 0 0-1.31.14 5.87 5.87 0 0 0-4.47 5.64 5.63 5.63 0 0 0 1.7 4.1 5.53 5.53 0 0 0 2.77 1.54 6.26 6.26 0 0 0 1.31.14h5V30" style="stroke: #003369;"/><path fill="none" stroke="#00336a" stroke-miterlimit="10" stroke-width="2" d="M3.48 29.64v4.3a4.43 4.43 0 0 0 3.43 4.31 6.59 6.59 0 0 0 13 .11h24.95a6.59 6.59 0 0 0 13-.12A4.07 4.07 0 0 0 61 34.3v-3.1a4.06 4.06 0 0 0-3-3.92l-11-2.64c-.37-.1-11.39-8.13-14.42-8.13H15.92c-2.59 0-9.91 6-9.91 6a2.83 2.83 0 0 0 2.19 4.67h9.62M2.39 47.49h59.22" style="stroke: #003369;"/></svg>
