<?xml version="1.0" encoding="UTF-8"?>
<svg xmlns="http://www.w3.org/2000/svg" aria-describedby="desc" aria-labelledby="title" viewBox="0 0 64 64"><path fill="none" stroke="#003369" stroke-miterlimit="10" stroke-width="2" d="M32.008 4c-5.3 0-11.2 3.2-11.2 11.521V18.4c-2.436.023-2.34 3.026-2.34 3.78s.566 5.817 3 5.817a13.783 13.783 0 0 0 5.736 8.212m9.596.004A13.774 13.774 0 0 0 42.539 28c2.42-.028 2.984-5.057 2.984-5.812s.092-3.734-2.32-3.776V15.52C43.2 7.2 37.309 4 32.008 4" data-name="layer1" style="stroke: #003369;"/><path fill="none" stroke="#003369" stroke-miterlimit="10" stroke-width="2" d="M20.813 16.8c9.6 0 9.6-6.4 16-6.4a6.148 6.148 0 0 1 6.387 5.624" data-name="layer1" style="stroke: #003369;"/><path fill="none" stroke="#003369" stroke-miterlimit="10" stroke-width="2" d="M32.012 45.999l-10.012 8V42.165m10.012 3.834l9.988 8V42.082m-9.988 3.917v14.002" data-name="layer2" style="stroke: #003369;"/><path fill="none" stroke="#003369" stroke-miterlimit="10" stroke-width="2" d="M25.033 40.487c-.93.979-3.124 1.95-7.419 2.712C8 44.9 8 52 8 52v8h48v-8s0-6.96-9.613-8.8c-4.39-.84-6.374-1.87-7.272-2.889" data-name="layer2" style="stroke: #003369;"/><path fill="none" stroke="#003369" stroke-miterlimit="10" stroke-width="2" d="M26 35v2.6a3.7 3.7 0 0 1-.968 2.887L32.012 46l7.1-5.689a3.49 3.49 0 0 1-.728-2.71l-.07-2.518" data-name="layer1" style="stroke: #003369;"/></svg>
