<?xml version="1.0" encoding="UTF-8"?>
<svg xmlns="http://www.w3.org/2000/svg" data-name="Layer 1" viewBox="0 0 113.39 113.39"><path fill="none" d="M95.35 85.31a9.93 9.93 0 1 0 9.94 9.93 9.94 9.94 0 0 0-9.94-9.93zm6.06 14.5l-1.41 1.41-4.72-4.71-4.72 4.71-1.41-1.41 4.71-4.72-4.71-4.71L90.56 89l4.72 4.72L100 89l1.41 1.42-4.72 4.71zM45.31 17v27.46a2 2 0 0 0 2.06 2H66a2 2 0 0 0 2.07-2v-31.1a1.67 1.67 0 0 0-1.71-1.62H47a1.66 1.66 0 0 0-1.7 1.62v.27h.12l-.1 1.17c0 .2 0 1.47-.01 2.2zm10 22.82l-1.6-1.19 2.48-3.35h-2.81l4.92-6.6 1.6 1.2-2.54 3.4h2.79zm4.58-20.39h3.87v1.24h-2.49v1h2.11v1.25h-2.11v2.2h-1.4zm-4.77 0H59v1.24h-2.5v1h2.12v1.25H56.5v2.2h-1.4zm-4.74.57a2.34 2.34 0 0 1 3.17 0 2.91 2.91 0 0 1 .58 2.27 2.9 2.9 0 0 1-.58 2.27 2.31 2.31 0 0 1-3.17 0 2.9 2.9 0 0 1-.58-2.27 2.91 2.91 0 0 1 .58-2.27z"/><path fill="none" d="M52 23.93a.71.71 0 0 0 .56-.26c.13-.16.21-.35.21-1.39s-.08-1.23-.21-1.4a.74.74 0 0 0-.56-.24.7.7 0 0 0-.56.24c-.13.17-.21.36-.21 1.4s.08 1.23.21 1.39a.68.68 0 0 0 .56.26zM95.47 15.17a1.2 1.2 0 1 0 0-2.4 1.2 1.2 0 0 0 0 2.4zM32.49 39.47a4.24 4.24 0 0 1-3.1-1.35v3.32h6.21v-3.32a4.25 4.25 0 0 1-3.11 1.35z"/><circle cx="32.49" cy="35.17" r="2.29" fill="none"/><path fill="none" d="M26.77 51.67h11.44v-8.23H26.77zm4.72-5.87h2v3.51h-2z"/><path fill="#1d3763" d="M45.23 71.94v27.59a2.12 2.12 0 0 0 2.15 2.06H66a2.11 2.11 0 0 0 2.15-2.06v-31.1a1.75 1.75 0 0 0-1.79-1.71H47a1.76 1.76 0 0 0-1.79 1.71v.36h.12l-.09 1.07c0 .2-.01 1.33-.01 2.08zm10 23.31l-1.44-1.07 2.6-3.51h-2.81l4.8-6.44 1.44 1.08-2.66 3.56H60zM57.09 75h1.22l1.82 2.86V75h1.4v5.69h-1.22l-1.82-2.89v2.86h-1.4zm-4.72.57a2.32 2.32 0 0 1 3.16 0 2.87 2.87 0 0 1 .59 2.27 2.86 2.86 0 0 1-.59 2.27 2.3 2.3 0 0 1-3.16 0 2.86 2.86 0 0 1-.59-2.27 2.87 2.87 0 0 1 .59-2.3z" style="fill: #003369;"/><circle cx="32.69" cy="76.24" r="2.39" fill="#1d3763" style="fill: #003369;"/><path fill="#1d3763" d="M54 79.46a.68.68 0 0 0 .56-.26c.13-.16.21-.35.21-1.39s-.08-1.23-.21-1.4a.77.77 0 0 0-1.12 0c-.13.17-.21.36-.21 1.4s.08 1.23.21 1.39a.68.68 0 0 0 .56.26z" style="fill: #003369;"/><path fill="#1d3763" d="M112.15 56.72a54.84 54.84 0 0 0-5.9-24.93l-1.79.9a52.87 52.87 0 0 1 5.69 23.83H3.25A53.51 53.51 0 0 1 56.7 3.26 53 53 0 0 1 81 9.08l.9-1.78a54.88 54.88 0 0 0-25.2-6 55.46 55.46 0 1 0 30 102.12 11.92 11.92 0 1 0 16.82-16.86 56.23 56.23 0 0 0 8.63-29.84zM70 99.53a3.91 3.91 0 0 1-4 3.86H47.37a3.91 3.91 0 0 1-3.95-3.86V84.42l-7.84-5.16a4.19 4.19 0 0 1-7.09-3 4.2 4.2 0 1 1 8.39 0 4.13 4.13 0 0 1-.3 1.53l6.84 4.5V68.43A3.55 3.55 0 0 1 47 64.92h19.36A3.55 3.55 0 0 1 70 68.43zm35.34-4.29a9.94 9.94 0 1 1-9.94-9.93 9.94 9.94 0 0 1 9.89 9.93z" style="fill: #003369;"/><path fill="#1d3763" d="M89.15 99.805l4.717-4.717 1.414 1.415-4.717 4.716zM95.28 93.676l4.717-4.717 1.414 1.415-4.717 4.716zM95.278 96.508l1.414-1.414 4.716 4.716-1.414 1.414z" style="fill: #003369;"/><path fill="#1d3763" d="M89.149 90.378l1.414-1.414 4.716 4.716-1.414 1.414zM93.868 95.096l1.414-1.415 1.414 1.415-1.414 1.414zM36.79 35.17a4.27 4.27 0 0 1-1.19 2.95v3.32h2V36a5.05 5.05 0 0 0-.55-2.25l-.45.3a4.15 4.15 0 0 1 .19 1.12zM29.39 38.12a4.28 4.28 0 1 1 6.23-5.87l.21-.13A5.08 5.08 0 0 0 27.39 36v5.49h2z" style="fill: #003369;"/><path fill="#1d3763" d="M35.6 42.85v-1.41h-6.21v1.41h-2v-1.41h-2.62v12.23h15.44V41.44H37.6v1.41zm2.61 8.82H26.77v-8.23h11.44z" style="fill: #003369;"/><path fill="#1d3763" d="M31.49 45.8h2v3.51h-2zM27.39 41.44h2v1.42h-2zM35.6 41.44h2v1.42h-2zM35.83 32.12a5.23 5.23 0 0 1 1.22 1.58l6.29-4.13v-2.4z" style="fill: #003369;"/><path fill="#1d3763" d="M35.83 32.12l-.21.13a4.27 4.27 0 0 1 1 1.75l.45-.3a5.23 5.23 0 0 0-1.24-1.58zM32.49 32.85a3.1 3.1 0 0 0-3.1 3.1v2.17a4.25 4.25 0 0 0 6.21 0V36a3.1 3.1 0 0 0-3.11-3.15zm0 4.62a2.3 2.3 0 1 1 2.3-2.3 2.3 2.3 0 0 1-2.3 2.3z" style="fill: #003369;"/><path fill="#1d3763" d="M32.49 30.88a4.28 4.28 0 0 0-3.1 7.24V36a3.11 3.11 0 0 1 6.21 0v2.17a4.27 4.27 0 0 0 1.19-2.95A4.15 4.15 0 0 0 36.6 34l-.35.23-1.1-1.67.47-.31a4.26 4.26 0 0 0-3.13-1.37z" style="fill: #003369;"/><path fill="#1d3763" d="M36.25 34.23l.35-.23a4.27 4.27 0 0 0-1-1.75l-.47.31zM47.37 48.41H66a4 4 0 0 0 4-3.95v-31.1a3.64 3.64 0 0 0-3.68-3.59H47a3.64 3.64 0 0 0-3.67 3.59v13.81l.53-.35L45 28.49l-1.63 1.08v14.89a4 4 0 0 0 4 3.95zm-2.06-34.78v-.27A1.66 1.66 0 0 1 47 11.74h19.36a1.67 1.67 0 0 1 1.71 1.62v31.1a2 2 0 0 1-2.07 2H47.37a2 2 0 0 1-2.06-2V17v-2.22l.1-1.17z" style="fill: #003369;"/><path fill="#1d3763" d="M43.87 26.82l-.53.35v2.4l1.63-1.08-1.1-1.67zM52 25.18a2.08 2.08 0 0 0 1.58-.63 2.9 2.9 0 0 0 .58-2.27 2.91 2.91 0 0 0-.61-2.28 2.34 2.34 0 0 0-3.17 0 2.91 2.91 0 0 0-.58 2.27 2.9 2.9 0 0 0 .58 2.27 2.08 2.08 0 0 0 1.62.64zm-.56-4.3a.7.7 0 0 1 .56-.24.74.74 0 0 1 .56.24c.13.17.21.36.21 1.4s-.08 1.23-.21 1.39a.71.71 0 0 1-.56.26.68.68 0 0 1-.56-.26c-.13-.16-.21-.35-.21-1.39s.05-1.23.18-1.4zM56.5 22.93h2.12v-1.25H56.5v-1h2.47v-1.24H55.1v5.69h1.4v-2.2zM61.27 22.93h2.11v-1.25h-2.11v-1h2.47v-1.24h-3.87v5.69h1.4v-2.2zM59.9 29.89l-1.6-1.2-4.92 6.6h2.79l-2.48 3.35 1.6 1.19 4.86-6.54h-2.79l2.54-3.4zM89.21 25.41L87.71 27a12 12 0 0 0 15.55 0l-1.5-1.59a8.71 8.71 0 0 1-5.21 2.36v-8.51h2.09v-1.57h-2.09v-1.28A2.52 2.52 0 0 0 98.26 14a2.78 2.78 0 0 0-5.56 0 2.54 2.54 0 0 0 1.71 2.42v1.28h-2.08v1.57h2.08v8.51a8.69 8.69 0 0 1-5.2-2.37zM94.28 14a1.21 1.21 0 0 1 2.41 0 1.21 1.21 0 0 1-2.41 0z" style="fill: #003369;"/><path fill="#1d3763" d="M95.48 5.67a12 12 0 0 0-9.22 19.92L87.84 24a9.9 9.9 0 1 1 15.29 0l1.57 1.57a12 12 0 0 0-9.22-19.9z" style="fill: #003369;"/></svg>
