<?xml version="1.0" encoding="UTF-8"?>
<svg xmlns="http://www.w3.org/2000/svg" data-name="Layer 1" viewBox="0 0 64 64"><path fill="none" stroke="#003369" stroke-miterlimit="10" stroke-width="2" d="M23.4 42.4l8.5 5.5 7.6-5.4" style="stroke: #003369;"/><path fill="none" stroke="#003369" stroke-miterlimit="10" stroke-width="2" d="M24 39v.9c0 2 0 5-10.4 7C2 49.1 2 57.9 2 57.9v4h60v-4s0-8.7-12.4-11c-10.6-2-10.6-5-10.6-7v-.7M15.5 19.7h-1.3a1.88 1.88 0 0 0-1.8 1.9v2.9a1.88 1.88 0 0 0 1.8 1.9h1M48.5 26.4h1a1.88 1.88 0 0 0 1.8-1.9v-2.9a1.88 1.88 0 0 0-1.8-1.9h-1.3M49.26 26.4H14.18M28.4 4.1C22 5.9 16.9 10.9 15.5 20.7h32.6c-1.3-9.8-6.4-14.8-12.9-16.6M48.1 20.7H15.5M28.2 13.9V3.4M35.4 13.9V3.4M28.2 3.6c0-1 1.6-1.9 3.6-1.9s3.6.9 3.6 1.9M13.8 47.6v14.7M49.4 47.6v14.7" style="stroke: #003369;"/><path fill="none" stroke="#003369" stroke-miterlimit="10" stroke-width="2" d="M19.7 45.3v3.9a2.74 2.74 0 0 0 2.5 3l18.7.3a2.74 2.74 0 0 0 2.5-3v-4.2M25.2 57.9h13.2M14.7 26.9c.2 1.4 1.1 4.1 3.7 4.1a16 16 0 0 0 6.9 9.1M37.6 40.3a15.85 15.85 0 0 0 7.2-9.2c2.6 0 3.4-2.8 3.7-4.1" style="stroke: #003369;"/></svg>
