<?xml version="1.0" encoding="UTF-8"?>
<svg xmlns="http://www.w3.org/2000/svg" aria-describedby="desc" aria-labelledby="title" viewBox="0 0 64 64"><path fill="none" stroke="#003369" stroke-miterlimit="10" stroke-width="2" d="M14.9 57l3.5 3.5a5 5 0 0 0 7 0l35.1-35.1a5 5 0 0 0 0-7L57 14.9" data-name="layer2" style="stroke: #003369;"/><path fill="none" stroke="#003369" stroke-miterlimit="10" stroke-width="2" d="M21.9 57L57 21.9a5 5 0 0 0 0-7L45.6 3.5a5 5 0 0 0-7 0L3.5 38.6a5 5 0 0 0 0 7L14.9 57a5 5 0 0 0 7 0zM21 21l22 22" data-name="layer1" style="stroke: #003369;"/></svg>
