<?xml version="1.0" encoding="UTF-8"?>
<svg xmlns="http://www.w3.org/2000/svg" data-name="Layer 1" viewBox="0 0 113.39 113.39"><path fill="none" d="M28.84 25a2.63 2.63 0 0 0 .74-5.2 2.29 2.29 0 0 0-.37 0 2.64 2.64 0 0 0-.42 5.25h.05zM95.35 85.29a9.93 9.93 0 1 0 9.93 9.93 9.94 9.94 0 0 0-9.93-9.93zm6.05 14.5l-1.4 1.41-4.72-4.72-4.71 4.72-1.42-1.41 4.72-4.72-4.72-4.72 1.42-1.41 4.71 4.72 4.72-4.72 1.41 1.41-4.71 4.72zM62.66 51.23h11.02v-7.01l-1.44 1.09-1.21-1.59.81-.61h-9.18v8.12zM77.15 28a2.62 2.62 0 0 0 2.23-3 2.63 2.63 0 0 0-2.6-2.25 2.41 2.41 0 0 0-.38 0 2.65 2.65 0 0 0 .75 5.25zM95.46 15.15a1.21 1.21 0 1 0-1.18-1.24V14a1.18 1.18 0 0 0 1.18 1.15z"/><path fill="#00336a" d="M62.54 92.4h11.02v-8.12h-.88l-1.48 2.07-1.62-1.17.64-.9h-7.68v8.12zM36.59 68.53a2.63 2.63 0 0 0 3-2.2 2.65 2.65 0 0 0-2.22-3H37a2.63 2.63 0 0 0-.39 5.23zM62.73 73.09a2.6 2.6 0 0 0 2 .49 2.63 2.63 0 0 0 1.21-4.7 2.61 2.61 0 0 0-1.57-.53H64a2.64 2.64 0 0 0-1.21 4.71zM102.1 86.48l1 .63.38-.61c-.29-.27-.59-.52-.9-.76zM101.89 85.25c-.16.26-.31.52-.48.78l.69.45c.16-.25.31-.5.47-.74-.23-.17-.45-.34-.68-.49zM89.139 99.788l4.716-4.717 1.415 1.415-4.717 4.716zM95.283 93.669L100 88.952l1.415 1.414-4.717 4.717zM89.144 90.354l1.415-1.414 4.716 4.716-1.414 1.414z" style="fill: #003369;"/><path fill="#00336a" d="M95.273 96.484l1.415-1.414 4.716 4.716-1.414 1.414zM93.856 95.069l1.415-1.415 1.414 1.415-1.414 1.414zM89.21 25.38L87.7 27a12 12 0 0 0 15.55 0l-1.5-1.6a8.63 8.63 0 0 1-5.2 2.37v-8.53h2.08v-1.57h-2.08v-1.28A2.53 2.53 0 0 0 98.26 14a2.78 2.78 0 0 0-5.56 0 2.53 2.53 0 0 0 1.71 2.42v1.28h-2.09v1.57h2.09v8.51a8.59 8.59 0 0 1-5.2-2.4zM94.28 14a1.2 1.2 0 1 1 1.2 1.2 1.17 1.17 0 0 1-1.2-1.2z" style="fill: #003369;"/><path fill="#00336a" d="M87.84 24a9.91 9.91 0 1 1 17.54-6.33 9.85 9.85 0 0 1-2.26 6.33l1.58 1.58a12.17 12.17 0 1 0-18.44 0zM29.87 17.79A4.65 4.65 0 1 0 28.55 27a3.64 3.64 0 0 0 .66 0 4.63 4.63 0 0 0 .66-9.21zM29.12 25h-.28a2.63 2.63 0 0 1-2.24-3 2.62 2.62 0 0 1 2.6-2.26h.37a2.63 2.63 0 1 1-.45 5.26zM51.73 53.33v-15.8H36.71v15.8h2v-13.8h11.02v13.8h2z" style="fill: #003369;"/><path fill="#00336a" d="M28.83 30.12L32 36.54l6.62.05v-2h-5.38l-3.13-6.42h-.6a4.13 4.13 0 0 0-3.08 1 3.64 3.64 0 0 0-1 2.71c0 1.69.05 3.36.1 5.12 0 1.48.09 3.06.12 4.86a3.51 3.51 0 0 0 .51 1.81h-1.84l-.72-12-2 .12.83 13.87h4.43V50l-3.26 1.41.78 1.83 3.48-1.48 3.48 1.48.79-1.83L28.86 50v-4.33h2.61v.08l1.18.14 1.27 5.61 1.92-.5-1.58-7-2.77-.33-2.29-.27a1.63 1.63 0 0 1-1.49-1.64c0-1.81-.08-3.4-.12-4.89-.05-1.75-.1-3.4-.1-5.06a1.72 1.72 0 0 1 .4-1.27 1.85 1.85 0 0 1 .94-.42zM47 25.11a3.94 3.94 0 0 0-.74-.37 4.15 4.15 0 0 1 .76.38l.6-4.86-2-.25-1.49 12.27 2 .25.63-5a5.42 5.42 0 0 1 1.08 3.61v3.41h-1.78v2h3.78v-5.44c0-3.71-1.76-5.35-2.84-6zM74 29.07a4.62 4.62 0 0 0 2.77.93 5 5 0 0 0 .67-.05 4.64 4.64 0 1 0-3.44-.88zm.67-5.28a2.6 2.6 0 0 1 1.73-1h.38a2.64 2.64 0 1 1-2.11 1.05zM86.79 42.35l-.87-2.09c-1.13-2.71-2-4.85-3-7.1s-2.52-2.91-4.8-1.95l-.54.23a1 1 0 0 0-.6.92v6.24c0 .43 0 .65-.88 1.29l-1.61 1.22H60.66v12.12h15V42.71l1.6-1.21c1.58-1.13 1.71-2 1.7-2.92V33c1.06-.44 1.42-.48 2.07 1 1 2.23 1.9 4.36 3 7l1 2.11a1.61 1.61 0 0 1-.12 1.65 1.26 1.26 0 0 1-1.2.45 15 15 0 0 1-4.06-1.72 1 1 0 0 0-1 0 1 1 0 0 0-.5.87v8.92h2V46a12.06 12.06 0 0 0 3.24 1.16 3.22 3.22 0 0 0 3-1.16 3.54 3.54 0 0 0 .4-3.65zm-13.11 8.88h-11v-8.12h9.18l-.81.61 1.21 1.59 1.44-1.09z" style="fill: #003369;"/><path fill="#00336a" d="M86.64 103.41a11.93 11.93 0 0 0 16.83-16.91l-.38.61-.72-.46.2-.91c.31.24.61.49.9.76a56.3 56.3 0 0 0 8.68-29.81 54.73 54.73 0 0 0-5.92-24.94l-1.78.9a52.82 52.82 0 0 1 5.69 23.85H3.24A53.51 53.51 0 0 1 56.69 3.24 52.93 52.93 0 0 1 80.94 9l.9-1.78a54.69 54.69 0 0 0-25.15-6 55.45 55.45 0 0 0-40.83 93l.44.53.54.5a55.43 55.43 0 0 0 69.85 8.13M2.18 56.55v1.38c.02-.49 0-.93 0-1.38zm1.06.14c0 .89 0 1.77.07 2.64-.04-.9-.07-1.77-.07-2.64zm44.7 12.81l2 .24-.94 7.9h-7.49v-2h5.71zm-15.58-4.1v-.13a4.63 4.63 0 0 1 8.28-2.08A4.66 4.66 0 0 1 37 70.63h-.66a4.63 4.63 0 0 1-3.98-5.23zm1.43 27.17l-1.29-5.63-1.06-.11h-2.58v4.34l3.27 1.39-.79 1.84-3.48-1.48-3.48 1.48-.78-1.84 3.26-1.39v-4.32h-4.43L21.6 73l2-.15.72 12h2.08a3.12 3.12 0 0 1-.23-.49c-.88-2.31.19-5.93 1.14-9.11l.11-.38a5.2 5.2 0 0 1 5.89-3.68l-.29 2a3.75 3.75 0 0 0-1.49.09l1.17 2.21 5.57-.41.14 2-6.22.45h-.07a1 1 0 0 1-.88-.53l-1.38-2.59a3.18 3.18 0 0 0-.52 1l-.12.38C28.46 78.41 27.4 82 28 83.65a1.35 1.35 0 0 0 1.07.91l5 .55 1.67 7zm17.94 1.93h-2V80.71h-11V94.5h-2V78.71h15zm12-28.15v.05A4.63 4.63 0 0 1 65 75.56a3.64 3.64 0 0 1-.66 0 4.63 4.63 0 0 1-.66-9.21zm20.84 27.22a9.71 9.71 0 0 1 .28-1.3 11.11 11.11 0 0 0-.28 1.3zm.05-14.36l-2.31 3.37v11.84h-2V82.27a1 1 0 0 1 .18-.56L83 78.1a1.36 1.36 0 0 0 0-1.38c-.86-1.57-4.26-3.08-6.73-4.18l-.36-.16c-1.78-.8-2.62-.55-3.28.05l3.61 6a1 1 0 0 1 0 1.1l-2 2.77h1.44v12.1h-15V82.28h11l2.46-3.41-3.66-6.05a1 1 0 0 1 .08-1.15c1.63-2 3.45-2.3 6.11-1.12l.36.16c3 1.35 6.49 2.88 7.67 5.05a3.39 3.39 0 0 1-.08 3.45zm10.73 25.94a9.93 9.93 0 1 1 9.93-9.93 9.94 9.94 0 0 1-9.93 9.93z" style="fill: #003369;"/></svg>
