<?xml version="1.0" encoding="UTF-8"?>
<svg xmlns="http://www.w3.org/2000/svg" aria-describedby="desc" aria-labelledby="title" viewBox="0 0 64 64"><path fill="none" stroke="#003369" stroke-width="2" d="M58 18c0 5.2-3.5 7.4-8 8.2M62 36H50m-1.2 8C54 45.2 59.9 48 60 56M6 18c0 5.2 3.5 7.4 8 8.2M2 36h12m1.2 8C10 45.2 4 48 4 56" data-name="layer2" style="stroke: #003369;"/><path fill="none" stroke="#003369" stroke-width="2" d="M18 22.6v-2a8.6 8.6 0 0 1 8.6-8.6h10.8a8.6 8.6 0 0 1 8.6 8.6v1.9M24.2 12.4a8 8 0 0 1 15.7 0" data-name="layer1" style="stroke: #003369;"/><path fill="none" stroke="#003369" stroke-width="2" d="M43.3 22H20.7a6.7 6.7 0 0 0-6.7 6.7v7.8c.1 10.6 6 19.3 18 21.5 12-2.1 17.9-11 18-21.6v-7.7a6.7 6.7 0 0 0-6.7-6.7zM32 22v36" data-name="layer1" style="stroke: #003369;"/></svg>
