<?xml version="1.0" encoding="UTF-8"?>
<svg xmlns="http://www.w3.org/2000/svg" aria-describedby="desc" aria-labelledby="title" viewBox="0 0 64 64"><ellipse cx="25" cy="11" fill="none" stroke="#003369" stroke-width="2" data-name="layer2" rx="23" ry="8" style="stroke: #003369;"/><path fill="none" stroke="#003369" stroke-width="2" d="M48 34.624V10.963m0 12.057c0 4.4-10.3 7.961-23 7.961S2 27.416 2 23.02m38.766 17.796A52.715 52.715 0 0 1 25 42.981c-12.7 0-23-3.565-23-7.961" data-name="layer2" style="stroke: #003369;"/><path fill="none" stroke="#003369" stroke-width="2" d="M33.08 54.455a63.143 63.143 0 0 1-8.08.506C12.3 54.961 2 51.4 2 47V11" data-name="layer2" style="stroke: #003369;"/><path fill="none" stroke="#003369" stroke-width="2" d="M30 61l16-30 16 30H30zm16-18v6" data-name="layer1" style="stroke: #003369;"/><circle cx="46" cy="55" r="1" fill="none" stroke="#003369" stroke-width="2" data-name="layer1" style="stroke: #003369;"/></svg>
