<?xml version="1.0" encoding="UTF-8"?>
<svg xmlns="http://www.w3.org/2000/svg" data-name="Layer 1" viewBox="0 0 64 64"><path fill="none" stroke="#003369" stroke-miterlimit="10" stroke-width="2" d="M40.94 8.61A21.32 21.32 0 0 0 36 5.43C31.11 3.15 25.48 2.1 20.16 3.57a22.19 22.19 0 0 0-12.33 8.52l-.08.12C3.45 18.67 2.52 28.11 6.22 35c2.19 4.08 5.65 7.3 8.77 10.65 3.58 3.85 7.24 7.6 11 11.32h0c3.71-3.72 7.37-7.47 11-11.32C40 42.32 43.47 39.1 45.66 35c4.48-8.35 2.49-20.14-4.72-26.39z" style="stroke: #003369;"/><path fill="none" stroke="#003369" stroke-miterlimit="10" stroke-width="2" d="M33.31 49.45q-3.64 3.81-7.37 7.55h0q-3.72-3.74-7.37-7.54h-.09L5.59 62.26h44.08l12.48-12.81zM26 38.06a13.21 13.21 0 1 1 10.9-20.67l-11 11-3.45-3.45 7-7a7.72 7.72 0 1 0 4.25 7.16l4.71-4.71A13.2 13.2 0 0 1 26 38.06z" style="stroke: #003369;"/></svg>
