<?xml version="1.0" encoding="UTF-8"?>
<svg xmlns="http://www.w3.org/2000/svg" data-name="Layer 1" viewBox="0 0 64 64"><circle cx="30.66" cy="23.24" r="3.04" fill="none" stroke="#003369" stroke-miterlimit="10" stroke-width="2" transform="rotate(-9.22 30.642 23.254)" style="stroke: #003369;"/><path fill="none" stroke="#003369" stroke-miterlimit="10" stroke-width="2" d="M37.09 30.12l-.19-.36a1.18 1.18 0 0 0-1.6-.49l-5.38 2.82-1.78-5.46a1.18 1.18 0 0 0-.66-.72l-.18-.09-9.73-3.66h-.05a1.18 1.18 0 0 0-1.14.2l-5.86 4.78a1.18 1.18 0 0 0-.17 1.66l.26.32a1.19 1.19 0 0 0 1.66.17l5.16-4.21 5.93 2.23-11.09 16-5.4 1.1a1.19 1.19 0 0 0-.93 1.4l.32 1.55a1.18 1.18 0 0 0 1.39.92l6.49-1.32a1.25 1.25 0 0 0 .59-.31 1.54 1.54 0 0 0 .17-.19L18.66 41l4.22 5.17-3.85 8a1.18 1.18 0 0 0 .56 1.57l1.42.69a1.19 1.19 0 0 0 1.58-.55l4.61-9.59a.05.05 0 0 1 0 0v0-.08-.08 0a.64.64 0 0 0 0-.07v-.2a1.17 1.17 0 0 0-.26-.68l-5.56-7.08-.38-.42L26.31 30l1.54 4.71a1.18 1.18 0 0 0 1.49.76l.38-.13a.88.88 0 0 0 .28-.14l6.63-3.48a1.19 1.19 0 0 0 .46-1.6z" style="stroke: #003369;"/><path fill="none" stroke="#003369" stroke-miterlimit="10" stroke-width="2" d="M29.78 6.23v10.16a4.28 4.28 0 0 1 4.08.66V9.87h20.3v1.35l-14.55 9.07v37.48l18.47-11.69V6.43z" style="stroke: #003369;"/></svg>
