<?xml version="1.0" encoding="UTF-8"?>
<svg xmlns="http://www.w3.org/2000/svg" aria-describedby="desc" aria-labelledby="title" viewBox="0 0 64 64"><path fill="none" stroke="#003369" stroke-width="2" d="M46.5 20L34 38H2V24h12l6 6h13.8" data-name="layer2" style="stroke: #003369;"/><path fill="none" stroke="#003369" stroke-width="2" d="M42.5 17.9L36 24 24.5 12H14v12" data-name="layer2" style="stroke: #003369;"/><circle cx="46" cy="16" r="4" fill="none" stroke="#003369" stroke-width="2" data-name="layer2" style="stroke: #003369;"/><path fill="none" stroke="#003369" stroke-width="2" d="M54.8 23.6l-6-4.8" data-name="layer2" style="stroke: #003369;"/><circle cx="57" cy="25.6" r="3" fill="none" stroke="#003369" stroke-width="2" data-name="layer1" style="stroke: #003369;"/><path fill="none" stroke="#003369" stroke-width="2" d="M54.8 27.6L42 44h16c1.9 0 5.3-.6 4-4l-4.3-11.4M38 49a5 5 0 0 1-5 5H7a5 5 0 0 1-5-5 5 5 0 0 1 5-5h26a5 5 0 0 1 5 5z" data-name="layer1" style="stroke: #003369;"/></svg>
