<?xml version="1.0" encoding="UTF-8"?>
<svg xmlns="http://www.w3.org/2000/svg" aria-describedby="desc" aria-labelledby="title" viewBox="0 0 64 64"><path fill="none" stroke="#003369" stroke-width="2" d="M52 48l-6 6-6-6m6 6V38" data-name="layer1" style="stroke: #003369;"/><path fill="none" stroke="#003369" stroke-width="2" d="M30.5 50H4a2 2 0 0 1-2-2V4a2 2 0 0 1 2-2h48a2 2 0 0 1 2 2v28.1M46 26H30m16-16H30" data-name="layer2" style="stroke: #003369;"/><circle cx="11" cy="10" r="1" fill="none" stroke="#003369" stroke-width="2" data-name="layer2" style="stroke: #003369;"/><circle cx="11" cy="26" r="1" fill="none" stroke="#003369" stroke-width="2" data-name="layer2" style="stroke: #003369;"/><circle cx="11" cy="42" r="1" fill="none" stroke="#003369" stroke-width="2" data-name="layer2" style="stroke: #003369;"/><path fill="none" stroke="#003369" stroke-width="2" d="M54 18H2m33.4 16H2" data-name="layer2" style="stroke: #003369;"/><circle cx="46" cy="46" r="16" fill="none" stroke="#003369" stroke-width="2" data-name="layer1" style="stroke: #003369;"/></svg>
