<?xml version="1.0" encoding="UTF-8"?>
<svg xmlns="http://www.w3.org/2000/svg" aria-describedby="desc" aria-labelledby="title" viewBox="0 0 64 64"><path fill="none" stroke="#003369" stroke-width="2" d="M4.4 33.4L4 34S2.6 52 16 52s12-16 12-16m31.7-2.6l.4.6s1.4 18-12 18-12-16-12-16" data-name="layer2" style="stroke: #003369;"/><path fill="none" stroke="#003369" stroke-width="2" d="M26.1 18c0-4.7-3.1-7.6-6.6-5s-13 17.2-15 20.4M38.1 18c0-4.7 3.1-7.6 6.6-5s13 17.3 15 20.4" data-name="layer1" style="stroke: #003369;"/><path fill="none" stroke="#003369" stroke-width="2" d="M62 34.5S48 26 36 36h-8C16.1 26 2.1 34.5 2.1 34.5" data-name="layer1" style="stroke: #003369;"/></svg>
