<?xml version="1.0" encoding="UTF-8"?>
<svg xmlns="http://www.w3.org/2000/svg" data-name="Layer 1" viewBox="0 0 64 64"><path fill="none" stroke="#003369" stroke-miterlimit="10" stroke-width="2" d="M44.93 13.09v-.17a5.42 5.42 0 0 1 .92-3 4 4 0 0 0 .62-2 3.78 3.78 0 0 0-.62-2 5.35 5.35 0 0 1-.92-3M49.17 13.09v-.17a5.5 5.5 0 0 1 .92-3 4.06 4.06 0 0 0 .63-2 3.79 3.79 0 0 0-.63-2 5.43 5.43 0 0 1-.92-3M8.22 39.68h5.5v5.5h-5.5zM20.21 39.68h5.5v5.5h-5.5zM38.29 39.68h5.5v5.5h-5.5zM50.28 39.68h5.5v5.5h-5.5z" style="stroke: #003369;"/><path fill="none" stroke="#003369" stroke-miterlimit="10" stroke-width="2" d="M16.96 31.15v-7.03L1.93 31.15v30.07H32v-37.1l-15.04 7.03zM32 33.65h30.07v27.57H32zM51.05 33.65V16.11h-8.03v17.54" style="stroke: #003369;"/><path fill="none" stroke="#003369" stroke-miterlimit="10" stroke-width="2" d="M53.3 61.22v-8.77H40.77v8.77" style="stroke: #003369;"/></svg>
