<?xml version="1.0" encoding="UTF-8"?>
<svg xmlns="http://www.w3.org/2000/svg" data-name="Layer 1" viewBox="0 0 64 64"><path fill="none" stroke="#003369" stroke-miterlimit="10" stroke-width="2" d="M10.59 42.75h5.5v5.5h-5.5zM22.48 42.75h5.5v5.5h-5.5zM34.38 42.75h5.5v5.5h-5.5zM46.27 42.75h5.5v5.5h-5.5z" style="stroke: #003369;"/><path fill="none" stroke="#003369" stroke-miterlimit="10" stroke-width="2" d="M1.88 62.29V35.22l15.04-7.02v7.02l15.03-7.02.1 7.02 15.03-7.02v7.02l15.04-7.02v34.09H1.88z" style="stroke: #003369;"/><path fill="none" stroke="#003369" stroke-miterlimit="10" stroke-width="2" d="M47.05 29V14.84h8.03v16.15M51.93 62.29v-8.77H39.4v8.77M48.88 12v-.17a5.41 5.41 0 0 1 .92-3 4.08 4.08 0 0 0 .62-2.05 3.75 3.75 0 0 0-.62-2 5.41 5.41 0 0 1-.92-3M53.12 12v-.08-.09a5.49 5.49 0 0 1 .92-3 4.1 4.1 0 0 0 .63-2.05 3.75 3.75 0 0 0-.63-2 5.49 5.49 0 0 1-.92-3" style="stroke: #003369;"/></svg>
