<?xml version="1.0" encoding="UTF-8"?>
<svg xmlns="http://www.w3.org/2000/svg" aria-describedby="desc" aria-labelledby="title" viewBox="0 0 64 64"><path fill="none" stroke="#003369" stroke-miterlimit="10" stroke-width="2" d="M13.1 55.3a11.9 11.9 0 0 1 4.3-1.6c8.1-1.5 8.6-5.7 8.6-7.4V46a58.8 58.8 0 0 1-11.9-2c3.3-3.3 5.9-5.2 5.9-19.2 0 0-.1-10.8 10-10.8 0 0 14-2.4 14 11.2s2.8 15.5 6.1 18.8A60.6 60.6 0 0 1 38 46v.3c0 1.6.5 5.8 8.6 7.4a12.1 12.1 0 0 1 4.3 1.7" data-name="layer2" style="stroke: #003369;"/><circle cx="32" cy="32" r="30" fill="none" stroke="#003369" stroke-miterlimit="10" stroke-width="2" data-name="layer1" style="stroke: #003369;"/></svg>
