<?xml version="1.0" encoding="UTF-8"?>
<svg xmlns="http://www.w3.org/2000/svg" data-name="Layer 1" viewBox="0 0 64 64"><path fill="none" stroke="#003369" stroke-miterlimit="10" stroke-width="2" d="M25.52 22.6l-10.2 4.52M15.32 34.26v15.08l20 8.84 19.95-8.84V27.12l-9.8-4.34" style="stroke: #003369;"/><path fill="none" stroke="#003369" stroke-miterlimit="10" stroke-width="2" d="M39.39 10.34l21.2 8.83-5.37 8L35.27 36l-20-8.85L3.41 29l20 8.84 11-1.85M35.27 36v22.18" style="stroke: #003369;"/><path fill="none" stroke="#003369" stroke-width="2" d="M41.45 15.47c1.76 1.54 4 5.51 4 8.81a8 8 0 0 0-4.79-.05m-11.75-7.82c-3.84 3.84-3.79 9.64-3.79 9.64s3.6-3 4.88-1.91" style="stroke: #003369;"/><path fill="none" stroke="#003369" stroke-width="2" d="M29.46 14.48a13.16 13.16 0 0 0-.39 5.65c.81 5.57 3.66 10.66 6.4 15a58 58 0 0 0 5.11-10.84 17 17 0 0 0 .86-8.77" style="stroke: #003369;"/><ellipse cx="35.33" cy="12.36" fill="none" stroke="#003369" stroke-width="2" rx=".96" ry=".98" transform="rotate(-45 35.328 12.357)" style="stroke: #003369;"/><path fill="none" stroke="#003369" stroke-width="2" d="M29.46 14.48c3.23 3.23 7.54 4.24 12 1C40.61 11 37.79 8 35.59 5.82a17.62 17.62 0 0 0-6.13 8.66z" style="stroke: #003369;"/></svg>
