<?xml version="1.0" encoding="UTF-8"?>
<svg xmlns="http://www.w3.org/2000/svg" data-name="Layer 1" viewBox="0 0 64 64"><path fill="none" stroke="#003369" stroke-miterlimit="10" stroke-width="2" d="M30.35 39.17l4.29-1.6c1.41-.42 2.75-.09 5 1.1 3.23 1.76 8.36 4.54 8.36 4.54m-13.56 7.36A10.72 10.72 0 0 0 40 52a7 7 0 0 1 3.81.66M37.64 41.49l-9.15 2.78a2.14 2.14 0 1 0 1.23 4.09l5-1.51s2.51 2.63 6.9.77" style="stroke: #003369;"/><path fill="none" stroke="#003369" stroke-miterlimit="10" stroke-width="2" d="M49.92 58.75L43 54.61l5.9-13.84 7.44 3z" style="stroke: #003369;"/><circle cx="21.1" cy="18.69" r="13.43" fill="none" stroke="#003369" stroke-miterlimit="10" stroke-width="2" style="stroke: #003369;"/><path fill="none" stroke="#003369" stroke-miterlimit="10" stroke-width="2" d="M28.26 44.2l-4.5-12.13M33.49 47.78l2.1 5.76v.06a1.85 1.85 0 0 1-3.47 1.27v-.08l-2.2-6M27.27 30.74l4.6 12.6M27.45 41.81a2.58 2.58 0 0 0-.09 3.36" style="stroke: #003369;"/><circle cx="21.03" cy="18.65" r="2.07" fill="none" stroke="#003369" stroke-miterlimit="10" stroke-width="2" style="stroke: #003369;"/><path fill="none" stroke="#003369" stroke-miterlimit="10" stroke-width="2" d="M29.31 17.26A3.25 3.25 0 0 0 26 14.05a3.19 3.19 0 0 0-1.86.62 3.31 3.31 0 0 0 .2-1 3.26 3.26 0 0 0-6.52-.11 3.07 3.07 0 0 0 .21 1.2 3.26 3.26 0 1 0-2 5.8A3.26 3.26 0 1 0 21 24a3.26 3.26 0 1 0 5-3.52 3.26 3.26 0 0 0 3.31-3.22z" style="stroke: #003369;"/></svg>
