<?xml version="1.0" encoding="UTF-8"?>
<svg xmlns="http://www.w3.org/2000/svg" viewBox="0 0 36.93 65.12"><rect width="36.93" height="15.54" y="27" fill="#3bba8e" rx="7.77" ry="7.77" style="fill: #003369;"/><text fill="#fff" font-family="Arial-BoldMT,Arial" font-size="11.82" transform="translate(5.99 38.94)"><tspan x="0" y="0">FOH</tspan></text><g fill="none" stroke="#3bba8e" stroke-miterlimit="10" stroke-width=".75"><path d="M12.38 4.42h5.37v4.04h-5.37V4.42z" style="fill: #003369;"/><path d="M14.33 4.43h1.5v1.13h-1.5V4.43zm3.42-.02h5.37v4.04h-5.37V4.42z" style="fill: #003369;"/><path d="M19.71 4.43h1.5v1.13h-1.5V4.43zM13.67.38h5.37v4.04h-5.37V.38z" style="fill: #003369;"/><path d="M15.63.39h1.5v1.13h-1.5V.39zm-4.41 8.08h13.06v1.04H11.22V8.47zm.29 1.05h1.4v1.04h-1.4V9.52zm5.54 0h1.4v1.04h-1.4V9.52zm5.55 0H24v1.04h-1.4V9.52z" style="fill: #003369;"/></g><g fill="none" stroke="#3bba8e" stroke-miterlimit="10" stroke-width=".75"><path d="M19.52 14.74c2.82-.89 6.16-2.27 6.16-1.23s-2.51 2.51-3.68 3.06c-2.48 1.16-3.61 1.84-4.9 1.84-2.17 0-6.13-1.78-6.74-1.78L8.35 16l-.19-4.33" style="fill: #003369;"/><path d="M8.13 12.09l2.2-.41c4.29 0 3.06 1.84 6.74 1.84h1.23a1.23 1.23 0 1 1 0 2.46h-3.06" style="fill: #003369;"/></g><g><text fill="#3bba8e" font-family="Arial-BoldMT,Arial" font-size="11.82" transform="translate(5.31 60.67)"><tspan x="0" y="0">1279</tspan></text></g></svg>
