<?xml version="1.0" encoding="UTF-8"?>
<svg xmlns="http://www.w3.org/2000/svg" aria-describedby="desc" aria-labelledby="title" viewBox="0 0 64 64"><path fill="none" stroke="#003369" stroke-miterlimit="10" stroke-width="2" d="M54 32.4V15H22V9H2v40.3A1.7 1.7 0 0 0 3.7 51h30.9" data-name="layer2" style="stroke: #003369;"/><circle cx="46.9" cy="42" r="5" fill="none" stroke="#003369" stroke-miterlimit="10" stroke-width="2" data-name="layer1" style="stroke: #003369;"/><path fill="none" stroke="#003369" stroke-miterlimit="10" stroke-width="2" d="M62 46l-3.4-2a11.7 11.7 0 0 0 0-4.3l3.1-1.7-4-6.9-3.1 1.8a12 12 0 0 0-3.7-2.1V27h-8v3.7a12 12 0 0 0-3.7 2.1L36 31l-4 7 3 1.7a11.6 11.6 0 0 0 0 4.4L31.7 46l4 6.9 3.3-1.8a12 12 0 0 0 3.8 2.2V57h8v-3.7a12.1 12.1 0 0 0 3.9-2.3l3.3 2z" data-name="layer1" style="stroke: #003369;"/></svg>
