<?xml version="1.0" encoding="UTF-8"?>
<svg xmlns="http://www.w3.org/2000/svg" viewBox="0 0 64 64"><g fill="#003369"><path d="M32 57.69c-.68 0-1.37-.03-2.06-.08-6.83-.54-13.04-3.7-17.5-8.91-4.45-5.21-6.61-11.84-6.07-18.67l1.99.16c-.49 6.3 1.49 12.41 5.6 17.22 4.1 4.8 9.83 7.72 16.13 8.22 10.42.82 20-5.16 23.84-14.88l1.86.74c-3.92 9.89-13.32 16.21-23.8 16.21zm25.53-23.72l-1.99-.16c.5-6.3-1.49-12.41-5.59-17.21-4.1-4.8-9.83-7.72-16.12-8.21-10.41-.83-19.99 5.16-23.84 14.87l-1.86-.74C12.29 11.99 22.68 5.51 33.98 6.4c6.83.54 13.04 3.7 17.49 8.91s6.6 11.84 6.07 18.67z" style="fill: #003369;"/><path d="M13.68 38.44L7.5 31.72l-5.47 6.41-1.52-1.3 6.94-8.12 7.71 8.38-1.47 1.35zm43.17-2.49l-7.82-7.24 1.36-1.47 6.16 5.71 5.37-7.43 1.62 1.17-6.7 9.26z" style="fill: #003369;"/></g><g fill="#003369"><path d="M36.26 45.18c-1.17 0-2.08-.66-2.8-1.18-.45-.33-.92-.67-1.23-.67-.16 0-.29.1-.67.45-.6.56-1.51 1.4-3.31 1.4-4.67 0-8.83-7.3-8.83-13.05 0-6.07 3.86-9.34 7.49-9.34 2.1 0 3.22.35 4.13.63.55.17.94.29 1.43.29.77 0 1.42-.21 2.11-.43.76-.24 1.55-.5 2.53-.5 3.62 0 7.49 2.45 7.49 9.34 0 7.98-5.85 13.05-8.32 13.05zm-4.03-3.85c.97 0 1.73.56 2.41 1.05.56.41 1.1.8 1.62.8 1.07-.04 6.32-3.87 6.32-11.05 0-6.62-3.84-7.34-5.49-7.34-.66 0-1.24.19-1.92.4-.77.25-1.64.52-2.72.52-.8 0-1.39-.19-2.03-.38-.82-.25-1.74-.54-3.53-.54-2.66 0-5.49 2.57-5.49 7.34 0 5.06 3.7 11.05 6.83 11.05 1.02 0 1.43-.38 1.96-.87.47-.44 1.07-.99 2.03-.99z" style="fill: #003369;"/><path d="M33.46 24.72h-2v-.93c0-3.36-1.88-4.56-3.63-4.56v-2c2.8 0 5.63 2.03 5.63 6.56v.93z" style="fill: #003369;"/><path d="M29.58 36.84c-1.72 0-2.66-3.21-2.74-3.71-.13-.63 0-1.29.37-1.85.37-.55.93-.93 1.58-1.06h.1c.69-.08 1.33.13 1.83.55.51.42.82 1.02.88 1.68.06.59 0 4.15-1.84 4.38-.06 0-.12.01-.18.01zm-.45-4.64h-.04c-.08.02-.17.13-.21.19-.04.06-.11.19-.07.36.07.44.36 1.12.63 1.6.13-.55.23-1.29.18-1.7v-.02a.56.56 0 0 0-.17-.33.504.504 0 0 0-.31-.11zm6.21 4.64c-.06 0-.12 0-.18-.01-.28-.03-.69-.17-1.04-.64-.71-.96-.87-2.92-.76-3.74.04-.62.32-1.18.78-1.6.47-.43 1.08-.65 1.72-.62.64.03 1.23.31 1.65.78s.65 1.08.62 1.72c0 .17-.03.33-.07.48-.07.42-1 3.62-2.72 3.62zm.41-4.62c-.13 0-.22.06-.26.1-.04.04-.12.13-.13.27v.12c-.07.37 0 1.1.13 1.64.27-.48.58-1.31.65-1.72l1 .05-1-.05a.41.41 0 0 0-.1-.28.423.423 0 0 0-.27-.13h-.02zm-1.43-9.29h-1v-1c0-5.42 3.57-6.56 6.56-6.56h1v1c0 5.42-3.57 6.56-6.56 6.56zm4.5-5.5c-2.11.25-3.19 1.33-3.44 3.44 2.11-.25 3.19-1.33 3.44-3.44z" style="fill: #003369;"/></g></svg>
