<?xml version="1.0" encoding="UTF-8"?>
<svg xmlns="http://www.w3.org/2000/svg" data-name="Layer 1" viewBox="0 0 64 64"><path fill="none" stroke="#003369" stroke-miterlimit="10" stroke-width="2" d="M29.16 29.06v25.93M54.12 32.08v22.91M54.22 36.87l5.04-5.04M54.12 35.69l-2.75-3.33M24.56 33.51a6.92 6.92 0 0 0-3.31-5.91A6.94 6.94 0 0 0 7.8 30a7.61 7.61 0 0 0 .12 1.28 6.94 6.94 0 0 0 .67 13.82 6.86 6.86 0 0 0 3.8-1.1 6.93 6.93 0 0 0 12.17-4.54 6.75 6.75 0 0 0-.66-3 6.83 6.83 0 0 0 .66-2.95zM15.15 33.97v21.02M15.15 41.81l4.34-4.34M15.04 39.02l-5.19-3.63" style="stroke: #003369;"/><path fill="none" stroke="#003369" stroke-miterlimit="10" stroke-width="2" d="M30.24 20.94a11.87 11.87 0 0 1 2.25-7 5.59 5.59 0 0 0-3.33-1.16c-4.5 0-8.18 6-8.53 13.52a7.27 7.27 0 0 1 .62 1.25 6.92 6.92 0 0 1 3.31 5.91 6.83 6.83 0 0 1-.66 3 6.75 6.75 0 0 1 .66 3v.52a6.28 6.28 0 0 0 4.62 2.33c3.86 0 7.12-4.39 8.19-10.42a11.92 11.92 0 0 1-7.13-10.95zM42.18 21.76v33.23M42.34 28.7l7.31-7.31M42.02 28.7l-7.31-7.31M54.63 22.45a12.27 12.27 0 0 1-8.49 10.2 8.22 8.22 0 1 0 8.49-10.2z" style="stroke: #003369;"/><circle cx="42.46" cy="20.94" r="12.27" fill="none" stroke="#003369" stroke-miterlimit="10" stroke-width="2" style="stroke: #003369;"/></svg>
