<?xml version="1.0" encoding="UTF-8"?>
<svg xmlns="http://www.w3.org/2000/svg" data-name="Layer 1" viewBox="0 0 64 64"><path fill="none" stroke="#003369" stroke-miterlimit="10" stroke-width="2" d="M48.82 37.44l9.28-3.4M47.44 33.66l9.28-3.39M50.2 41.21l9.28-3.39" style="stroke: #003369;"/><circle cx="9.4" cy="47.18" r="6.3" fill="none" stroke="#003369" stroke-miterlimit="10" stroke-width="2" style="stroke: #003369;"/><circle cx="40.9" cy="45.92" r="7.56" fill="none" stroke="#003369" stroke-miterlimit="10" stroke-width="2" style="stroke: #003369;"/><path fill="none" stroke="#003369" stroke-miterlimit="10" stroke-width="2" d="M3.1 47.18V30.8a2.52 2.52 0 0 1 2.52-2.52h7.56a10.08 10.08 0 0 1 10.08 10.08H40.9" style="stroke: #003369;"/><path fill="none" stroke="#003369" stroke-miterlimit="10" stroke-width="2" d="M13.18 28.28V13.16a2.52 2.52 0 0 1 2.52-2.52h10a3.77 3.77 0 0 1 3.55 2.48l9.18 25.24M60.9 41.7l-11.83 4.33-12.98-35.5M10.66 33.32H3.1M35.27 50.96H14.44" style="stroke: #003369;"/></svg>
