<?xml version="1.0" encoding="UTF-8"?>
<svg xmlns="http://www.w3.org/2000/svg" data-name="Layer 1" viewBox="0 0 64 64"><path fill="none" stroke="#003369" stroke-miterlimit="10" stroke-width="2" d="M49.33 32.94h3.62v4h-3.62zM53.63 32.94h3.62v4h-3.62zM57.92 32.94h3.62v4h-3.62zM49.33 19.85h3.62v4h-3.62zM53.63 19.85h3.62v4h-3.62zM57.92 19.85h3.62v4h-3.62zM49.33 26.34h3.62v4h-3.62zM53.63 26.34h3.62v4h-3.62zM57.92 26.34h3.62v4h-3.62zM49.36 45.22h12.18v2.81H49.36zM49.36 39.71h12.18v2.81H49.36z" style="stroke: #003369;"/><circle cx="8.77" cy="49.58" r="6.3" fill="none" stroke="#003369" stroke-miterlimit="10" stroke-width="2" style="stroke: #003369;"/><circle cx="39.32" cy="48.51" r="7.37" fill="none" stroke="#003369" stroke-miterlimit="10" stroke-width="2" style="stroke: #003369;"/><path fill="none" stroke="#003369" stroke-miterlimit="10" stroke-width="2" d="M2.45 49.74v-16a2.46 2.46 0 0 1 2.46-2.45h7.39a9.82 9.82 0 0 1 9.82 9.82h17.2" style="stroke: #003369;"/><path fill="none" stroke="#003369" stroke-miterlimit="10" stroke-width="2" d="M12.3 31.32V16.58a2.46 2.46 0 0 1 2.45-2.46h9.75a3.69 3.69 0 0 1 3.5 2.43l8.89 24.59M59 50.7H46.69V22.82M9.84 36.23H2.47m31.36 17.19h-20.3" style="stroke: #003369;"/><path fill="none" stroke="#003369" stroke-linecap="round" stroke-miterlimit="10" stroke-width="2" d="M30.29 39.02l2.31-2.93" style="stroke: #003369;"/><path fill="none" stroke="#003369" stroke-miterlimit="10" stroke-width="2" d="M32.19 36.98l.21 3.47M20.16 28.1a3.13 3.13 0 0 0 2.89 3.19 3.11 3.11 0 0 0 2.88-3.19v-.35m-3.36 13.39v-9.9M18.74 27.33l9.15-.09" style="stroke: #003369;"/><path fill="none" stroke="#003369" stroke-linecap="round" stroke-miterlimit="10" stroke-width="2" d="M23.08 31.88s-1 4.7 5.19 4.94M27.34 40.49h-4.77" style="stroke: #003369;"/><path fill="none" stroke="#003369" stroke-miterlimit="10" stroke-width="2" d="M19.79 25.74A2.94 2.94 0 0 1 22.9 23a2.94 2.94 0 0 1 3.1 2.74M19.79 25.56v1.23M26.02 25.56v1.23" style="stroke: #003369;"/></svg>
