<?xml version="1.0" encoding="UTF-8"?>
<svg xmlns="http://www.w3.org/2000/svg" data-name="Layer 1" viewBox="0 0 64 64"><circle cx="8.66" cy="47.18" r="6.3" fill="none" stroke="#003369" stroke-miterlimit="10" stroke-width="2" style="stroke: #003369;"/><circle cx="40.16" cy="45.92" r="7.56" fill="none" stroke="#003369" stroke-miterlimit="10" stroke-width="2" style="stroke: #003369;"/><path fill="none" stroke="#003369" stroke-miterlimit="10" stroke-width="2" d="M2.36 47.18V30.8a2.51 2.51 0 0 1 2.52-2.52h7.56a10.08 10.08 0 0 1 10.08 10.08h17.64" style="stroke: #003369;"/><path fill="none" stroke="#003369" stroke-miterlimit="10" stroke-width="2" d="M12.44 28.28V13.16A2.51 2.51 0 0 1 15 10.64h10a3.77 3.77 0 0 1 3.55 2.48l9.18 25.24M60.16 41.7l-11.83 4.33-12.98-35.5M9.92 33.32H2.36M34.52 50.96H13.7" style="stroke: #003369;"/><path fill="none" stroke="#003369" stroke-miterlimit="10" stroke-width="2" d="M46.617 29.769l11.012-4.013 4.012 11.012L50.63 40.78zM51.9 27.81l1.38 3.98" style="stroke: #003369;"/></svg>
