<?xml version="1.0" encoding="UTF-8"?>
<svg xmlns="http://www.w3.org/2000/svg" data-name="Layer 1" viewBox="0 0 64 64"><path fill="none" stroke="#003369" stroke-miterlimit="10" stroke-width="2" d="M51.1 40.23h9.88M51.1 36.21h9.88M51.1 44.25h9.88" style="stroke: #003369;"/><circle cx="9.32" cy="47.12" r="6.3" fill="none" stroke="#003369" stroke-miterlimit="10" stroke-width="2" style="stroke: #003369;"/><circle cx="40.82" cy="45.86" r="7.56" fill="none" stroke="#003369" stroke-miterlimit="10" stroke-width="2" style="stroke: #003369;"/><path fill="none" stroke="#003369" stroke-miterlimit="10" stroke-width="2" d="M3 47.12V30.74a2.52 2.52 0 0 1 2.52-2.52h7.58A10.08 10.08 0 0 1 23.18 38.3h17.64" style="stroke: #003369;"/><path fill="none" stroke="#003369" stroke-miterlimit="10" stroke-width="2" d="M13.1 28.22V13.1a2.52 2.52 0 0 1 2.52-2.52h10a3.79 3.79 0 0 1 3.56 2.49L38.3 38.3M60.98 48.38h-12.6v-37.8M10.58 33.26H3.02M35.19 50.9H14.36" style="stroke: #003369;"/></svg>
