<?xml version="1.0" encoding="UTF-8"?>
<svg xmlns="http://www.w3.org/2000/svg" aria-describedby="desc" aria-labelledby="title" viewBox="0 0 64 64"><path fill="none" stroke="#003369" stroke-miterlimit="10" stroke-width="2" d="M27.4 17.9L41.6 3.7a5.4 5.4 0 0 1 7.6 0L51 5.6M14.54 42.148l23.617-23.617 7.778 7.778-23.617 23.617z" data-name="layer2" style="stroke: #003369;"/><path fill="none" stroke="#003369" stroke-miterlimit="10" stroke-width="2" d="M45.9 26.3l15.5-15.5L53.6 3 38.1 18.5" data-name="layer2" style="stroke: #003369;"/><path fill="none" stroke="#003369" stroke-miterlimit="10" stroke-width="2" d="M2.6 61.8s7.4-.9 11.8-2.9a6.9 6.9 0 0 0 1.9-1l.7-.6a7 7 0 1 0-9.9-9.9l-.6.7a6.9 6.9 0 0 0-1.1 2.1c-1.9 4.4-2.8 11.6-2.8 11.6zm8.1-8.1l-8.1 8.1" data-name="layer1" style="stroke: #003369;"/></svg>
