<?xml version="1.0" encoding="UTF-8"?>
<svg xmlns="http://www.w3.org/2000/svg" aria-describedby="desc" aria-labelledby="title" viewBox="0 0 64 64"><path fill="none" stroke="#003369" stroke-miterlimit="10" stroke-width="2" d="M9.7 54.3l-7.6 7.6m15.1-10.8a6.5 6.5 0 0 0-4.3-4.3 6 6 0 0 1-5.6.9l-.9.7-.5.7a6.4 6.4 0 0 0-1 1.9c-1.8 4.2-2.8 10.9-2.8 10.9s6.8-.9 11-2.7a6.5 6.5 0 0 0 1.7-1l.7-.6.7-.9a6 6 0 0 1 1-5.6z" data-name="layer2" style="stroke: #003369;"/><path fill="none" stroke="#003369" stroke-miterlimit="10" stroke-width="2" d="M61.1 6.9l-36 40.4a6 6 0 1 1-9-8l.5-.5L57 2.8a2.8 2.8 0 0 1 4 4z" data-name="layer1" style="stroke: #003369;"/></svg>
