<?xml version="1.0" encoding="UTF-8"?>
<svg xmlns="http://www.w3.org/2000/svg" aria-describedby="desc" aria-labelledby="title" viewBox="0 0 64 64"><path fill="none" stroke="#003369" stroke-width="2" d="M18.999 56.005l-9.998 5.997m36.001-5.997l9.996 5.997" data-name="layer2" style="stroke: #003369;"/><path fill="none" stroke="#003369" stroke-width="2" d="M28 6.01H15a3 3 0 0 0-3 3v19.369c-2.326.827-2 3.024-2 5.633v15.992a6 6 0 0 0 6 6h32a6 6 0 0 0 6-6V34.012c0-2.609.326-4.806-2-5.633V9.009a3 3 0 0 0-3-3H36M10 40.004h44" data-name="layer1" style="stroke: #003369;"/><circle cx="32" cy="6.003" r="4" fill="none" stroke="#003369" stroke-width="2" data-name="layer2" style="stroke: #003369;"/><circle cx="22" cy="30.006" r="2" fill="none" stroke="#003369" stroke-width="2" data-name="layer1" style="stroke: #003369;"/><circle cx="42" cy="30.006" r="2" fill="none" stroke="#003369" stroke-width="2" data-name="layer1" style="stroke: #003369;"/><path fill="none" stroke="#003369" stroke-width="2" d="M12 20.002h40" data-name="layer1" style="stroke: #003369;"/></svg>
