<?xml version="1.0" encoding="UTF-8"?>
<svg xmlns="http://www.w3.org/2000/svg" aria-describedby="desc" aria-labelledby="title" viewBox="0 0 64 64"><path fill="none" stroke="#003369" stroke-width="2" d="M4 33c0-6.4 7.6-20 28-20s28 9.1 28 20-10 10-22 10H14c-3 0-10-2.5-10-10zm15.1-17.8C21.8 17 26 20.9 26 27m4-14c3 1.4 5.4 6.3 6 12m4-11.5c2.7 1.8 5.4 5.8 6 11.5" data-name="layer2" style="stroke: #003369;"/><path fill="none" stroke="#003369" stroke-width="2" d="M62 49a2 2 0 0 1-2 2H4a2 2 0 0 1-2-2 2 2 0 0 1 2-2h56a2 2 0 0 1 2 2z" data-name="layer1" style="stroke: #003369;"/></svg>
