<?xml version="1.0" encoding="UTF-8"?>
<svg xmlns="http://www.w3.org/2000/svg" data-name="Layer 1" viewBox="0 0 64 64"><path fill="none" stroke="#003369" stroke-miterlimit="10" stroke-width="2" d="M20.5 55.75V59a2 2 0 0 1-2 2h-5a2 2 0 0 1-2-2v-4.2M52.86 54.81V59a2 2 0 0 1-2 2h-5a2 2 0 0 1-2-2v-4M9.85 47v4.85a2.89 2.89 0 0 0 2.88 2.89h38.79a2.9 2.9 0 0 0 2.89-2.89V47zM10.56 35.31V2.99h43.13v32.37M9.85 39.62h6.93l8.33 7.27m14.56-.12l8.21-7.15h6.53M10 39.62h44" style="stroke: #003369;"/><path fill="none" stroke="#003369" stroke-miterlimit="10" stroke-width="2" d="M9.85 47.12V36.76l4.74-10.57h34.82l5 10.57v10.56" style="stroke: #003369;"/><path fill="none" stroke="#003369" stroke-miterlimit="10" stroke-width="2" d="M14.59 26.19h-4.2a2 2 0 0 1-2-2l.08-5a2 2 0 0 1 2-2h4M49.41 17.15h4.2a2 2 0 0 1 2 2l-.08 5a2 2 0 0 1-2 2h-4" style="stroke: #003369;"/><path fill="none" stroke="#003369" stroke-miterlimit="10" stroke-width="2" d="M49.74 26.19l-1-12.88c-.26-2.58-1.07-3.92-4.88-3.92H20c-4.51 0-3.94 1.53-4.38 3.92l-1 12.88z" style="stroke: #003369;"/></svg>
