<?xml version="1.0" encoding="UTF-8"?>
<svg xmlns="http://www.w3.org/2000/svg" data-name="Layer 1" viewBox="0 0 64 64"><path fill="none" stroke="#003369" stroke-miterlimit="10" stroke-width="2" d="M54.17 57.49h-.36a11.64 11.64 0 0 1-6.48-2 7.83 7.83 0 0 0-8.76 0 11.64 11.64 0 0 1-6.48 2h-.36a11.64 11.64 0 0 1-6.48-2 7.13 7.13 0 0 0-4.38-1.34 7.19 7.19 0 0 0-4.39 1.34 11.57 11.57 0 0 1-6.47 2h-.18M32 26.39V44.1M19.89 22.51v-8h8v8M27.89 22.51v-8h8v8M27.89 14.51v-8h8v8M35.89 22.51v-8h8v8" style="stroke: #003369;"/><path fill="none" stroke="#003369" stroke-miterlimit="10" stroke-width="2" d="M16 27.59v-5.08h31.19v5.08" style="stroke: #003369;"/><path fill="none" stroke="#003369" stroke-miterlimit="10" stroke-width="2" d="M38.86 55.16a171.88 171.88 0 0 1 12-25.26 1 1 0 0 0 0-1 1 1 0 0 0-.85-.49l-18.09-2-18.45 2a1 1 0 0 0-.85.49 1 1 0 0 0 0 1c5.21 8.88 9.13 16.16 12.46 25.24" style="stroke: #003369;"/></svg>
