<?xml version="1.0" encoding="UTF-8"?>
<svg xmlns="http://www.w3.org/2000/svg" data-name="Layer 1" viewBox="0 0 64 64"><path fill="none" stroke="#003369" stroke-miterlimit="10" stroke-width="2" d="M54.17 57.19h-.36a11.64 11.64 0 0 1-6.48-2 7.83 7.83 0 0 0-8.76 0 11.64 11.64 0 0 1-6.48 2h-.36a11.64 11.64 0 0 1-6.48-2 7.13 7.13 0 0 0-4.38-1.34 7.19 7.19 0 0 0-4.39 1.34 11.57 11.57 0 0 1-6.47 2h-.18M32 26.09V43.8" style="stroke: #003369;"/><path fill="none" stroke="#003369" stroke-miterlimit="10" stroke-width="2" d="M38.86 54.86a172.37 172.37 0 0 1 12-25.26 1 1 0 0 0 0-1 1 1 0 0 0-.85-.49l-18.09-2-18.45 2a1 1 0 0 0-.85.49 1 1 0 0 0 0 1c5.21 8.88 9.13 16.16 12.46 25.24M27.85 14.8v-8h8v8" style="stroke: #003369;"/><path fill="none" stroke="#003369" stroke-miterlimit="10" stroke-width="2" d="M17.85 27.13V16.71a1.92 1.92 0 0 1 1.91-1.91h24.18a1.91 1.91 0 0 1 1.91 1.91v10.42M25.85 19.47h12" style="stroke: #003369;"/></svg>
