<?xml version="1.0" encoding="UTF-8"?>
<svg xmlns="http://www.w3.org/2000/svg" data-name="Layer 1" viewBox="0 0 64 64"><path fill="none" stroke="#1d3763" stroke-miterlimit="10" stroke-width="2" d="M28.15 11.68l1-6.1c.34-1.42 1.18-2.65 2.65-2.65s2.2 1.13 2.67 2.65l1.27 6M57.13 5.41H34.78M29.22 5.41H6.87M44.53 48.66a10 10 0 0 0 4.11-8.08V28.9a10 10 0 0 0-10-10H25.26a9.69 9.69 0 0 0-2.43.3 10 10 0 0 0-7.57 9.7v11.68a10 10 0 0 0 10 10l1.83 3.32h9.55l2-3.32a10 10 0 0 0 5.89-1.92" style="stroke: #003369;"/><path fill="none" stroke="#1d3763" stroke-miterlimit="10" stroke-width="2" d="M23.25 19.24l1.56-7.16h13.9l1.66 6.85M15.26 31.79l8.72 6.96h15.67l8.82-6.85M31.87 19.13v19.51" style="stroke: #003369;"/><circle cx="31.87" cy="45.6" r="2.59" fill="none" stroke="#1d3763" stroke-miterlimit="10" stroke-width="2" style="stroke: #003369;"/><path fill="none" stroke="#1d3763" stroke-miterlimit="10" stroke-width="2" d="M43.85 49.84c3.21 2.84 5.65 6.62 5.65 11.23h4M20.63 49.66a15.41 15.41 0 0 0-5.55 11.41h-4" style="stroke: #003369;"/></svg>
