<?xml version="1.0" encoding="UTF-8"?>
<svg xmlns="http://www.w3.org/2000/svg" data-name="Layer 1" viewBox="0 0 64 64"><path fill="none" stroke="#1d3763" stroke-miterlimit="10" stroke-width="2" d="M42.12 49.09H22.28l-6-5.8v-11.9a15.42 15.42 0 0 1 30.83 0v12.67z" style="stroke: #003369;"/><path fill="none" stroke="#1d3763" stroke-miterlimit="10" stroke-width="2" d="M16.49 35.51l5.72 5.72h3.43l3.09-3.09h7.14l2.8 2.81h2.99l5.55-5.54M28.86 43.76h6.32M22.29 49.09l-5.65 10.38h-3.36M42.43 49.09l5.64 10.38h3.36M26.56 16.89l2.59-9.61c.36-1.48 1.23-2.75 2.75-2.75s2.29 1.17 2.75 2.75l2.89 9.61M20.76 32.15a11.8 11.8 0 0 1 11.8-11.8M28.9 7.64H8.25M55.75 7.64H35.1" style="stroke: #003369;"/></svg>
