<?xml version="1.0" encoding="UTF-8"?>
<svg xmlns="http://www.w3.org/2000/svg" data-name="Layer 1" viewBox="0 0 64 64"><path fill="none" stroke="#003369" stroke-miterlimit="10" stroke-width="2" d="M17.88 56.35v3.76a2 2 0 0 1-2 2h-6a2 2 0 0 1-2-2v-4.2M56.11 55.91v4.2a2 2 0 0 1-2 2h-6a2 2 0 0 1-2-2v-3.76" style="stroke: #003369;"/><path fill="none" stroke="#003369" stroke-miterlimit="10" stroke-width="2" d="M23.18 37.84h-9.82c-3.72 0-5.48 1.84-5.48 5.48v13h48.23v-13a5.17 5.17 0 0 0-5.48-5.48h-9.25M50.21 14.37v-1.1a5.43 5.43 0 0 0-5.48-5.48H19.11c-4.94 0-5.48 3.67-5.48 5.48v1.1z" style="stroke: #003369;"/><path fill="none" stroke="#003369" stroke-miterlimit="10" stroke-width="2" d="M13.59 37.87V6c0-4-1.72-4.06-2.79-4.06M53 1.89c-1.07 0-2.79.1-2.79 4.06v31.92" style="stroke: #003369;"/><path fill="none" stroke="#003369" stroke-miterlimit="10" stroke-width="2" d="M50.17 18.13l5.13.05a2.19 2.19 0 0 1 2.17 2.21l-.09 8.77a2.19 2.19 0 0 1-2.21 2.17h-4.91M13.63 31.33H8.7a2.19 2.19 0 0 1-2.17-2.21l.09-8.77a2.19 2.19 0 0 1 2.21-2.17h4.71M13.61 24.69h36.6M23.18 31.42h18.2v18.2h-18.2zM32.28 24.69V14.37" style="stroke: #003369;"/><circle cx="15.35" cy="47.79" r="2" fill="none" stroke="#003369" stroke-miterlimit="10" stroke-width="2" style="stroke: #003369;"/><circle cx="48.79" cy="47.79" r="2" fill="none" stroke="#003369" stroke-miterlimit="10" stroke-width="2" style="stroke: #003369;"/></svg>
