<svg xmlns="http://www.w3.org/2000/svg" viewBox="0 0 36.93 69.64"><rect width="36.93" height="15.54" y="31.45" fill="#1d3767" rx="7.77" ry="7.77"/><text fill="#fff" font-family="Arial-BoldMT,Arial" font-size="11.82" transform="translate(6.42 43.39)"><tspan x="0" y="0">FWB</tspan></text><text fill="#1d3767" font-family="Arial-BoldMT,Arial" font-size="11.82" transform="translate(5.31 65.18)"><tspan x="0" y="0">xxxx</tspan></text><g><path fill="none" stroke="#1d3768" stroke-miterlimit="10" stroke-width=".75" d="M24.28 8.76v10.88H13.41V9.39h.02c2.49 0 4.51-2.02 4.51-4.51v-.07h2.39l3.95 3.95z"/><path fill="none" stroke="#1d3768" stroke-miterlimit="10" stroke-width=".75" d="M20.32 4.82v3.95h3.95"/><path fill="#1d3767" d="M14.61 5.76l.82.1c-.13.48-.37.85-.72 1.11s-.79.4-1.34.4c-.68 0-1.22-.21-1.62-.63-.4-.42-.6-1.01-.6-1.77s.2-1.39.61-1.83.93-.65 1.57-.65 1.13.21 1.53.64.59 1.02.59 1.79v.21h-3.48c.03.51.17.91.44 1.18s.59.41.98.41c.29 0 .54-.08.74-.23s.37-.4.49-.73zm-2.6-1.28h2.61c-.04-.39-.13-.69-.3-.88-.25-.3-.58-.46-.98-.46-.36 0-.67.12-.92.36s-.38.57-.41.98z"/><g fill="#1d3767"><path d="M17.19 13.82h-.58l-.23-.6h-1.06l-.22.6h-.57l1.03-2.65h.57l1.06 2.65zm-.99-1.05l-.37-.98-.36.98h.72zM17.65 13.82l-.63-2.65h.55l.4 1.82.49-1.82h.64l.47 1.85.41-1.85h.54l-.64 2.65h-.57l-.53-1.98-.53 1.98h-.58zM20.77 11.17h1.06c.21 0 .37 0 .47.03s.2.05.28.11.15.13.2.22.08.2.08.31c0 .12-.03.24-.1.34-.07.1-.16.18-.27.23.16.05.29.13.37.24.09.11.13.25.13.4 0 .12-.03.24-.08.35-.06.11-.13.21-.23.27-.1.07-.22.11-.36.13-.09 0-.3.02-.65.02h-.9v-2.65zm.54.44v.61h.74c.09-.01.16-.04.22-.1s.08-.12.08-.21-.02-.15-.07-.2c-.04-.05-.11-.08-.2-.09h-.77zm0 1.05v.71h.5c.19 0 .32 0 .37-.02.08-.01.14-.05.19-.11.05-.06.07-.13.07-.23 0-.08-.02-.15-.06-.2a.27.27 0 0 0-.17-.12c-.07-.03-.23-.04-.48-.04h-.43z"/></g><path fill="none" stroke="#1d3767" stroke-miterlimit="10" stroke-width=".75" d="M17.94 4.82v.07c0 2.49-2.02 4.51-4.51 4.51h-.02c-2.49-.01-4.5-2.03-4.5-4.51S10.93.38 13.43.38s4.47 1.98 4.51 4.44z"/></g></svg>