<?xml version="1.0" encoding="UTF-8"?>
<svg xmlns="http://www.w3.org/2000/svg" aria-describedby="desc" aria-labelledby="title" viewBox="0 0 64 64"><path fill="none" stroke="#003369" stroke-width="2" d="M44.1 47.9l5.1 7a7 7 0 0 0 12.7-5.4L57.8 28a12 12 0 0 0-11.2-9.9H18A12 12 0 0 0 6.2 28l-4 21.6A7 7 0 0 0 14.9 55l5.1-7m5.9-4h12.2" data-name="layer2" style="stroke: #003369;"/><circle cx="39" cy="29" r="3" fill="none" stroke="#003369" stroke-width="2" data-name="layer1" style="stroke: #003369;"/><circle cx="49" cy="31" r="3" fill="none" stroke="#003369" stroke-width="2" data-name="layer1" style="stroke: #003369;"/><path fill="none" stroke="#003369" stroke-width="2" d="M18 26v8m-4-4h8" data-name="layer1" style="stroke: #003369;"/><path fill="none" stroke="#003369" stroke-width="2" d="M32 18V6" data-name="layer2" style="stroke: #003369;"/><circle cx="21" cy="43" r="5" fill="none" stroke="#003369" stroke-width="2" data-name="layer1" style="stroke: #003369;"/><circle cx="43" cy="43" r="5" fill="none" stroke="#003369" stroke-width="2" data-name="layer1" style="stroke: #003369;"/></svg>
