<?xml version="1.0" encoding="UTF-8"?>
<svg xmlns="http://www.w3.org/2000/svg" aria-describedby="desc" aria-labelledby="title" viewBox="0 0 64 64"><path fill="none" stroke="#003369" stroke-width="2" d="M23 34h-2a6 6 0 0 0-6 6v14a6 6 0 0 1-6 6 6 6 0 0 1-6-6V20l8-8" data-name="layer2" style="stroke: #003369;"/><path fill="none" stroke="#003369" stroke-width="2" d="M3 20l8 8v4H3" data-name="layer2" style="stroke: #003369;"/><path fill="none" stroke="#003369" stroke-width="2" d="M41 34h8v14h-8z" data-name="layer1" style="stroke: #003369;"/><path fill="none" stroke="#003369" stroke-width="2" d="M23 62V6a4 4 0 0 1 4-4h26a4 4 0 0 1 4 4v56m-38 0h42M23 26h34M21 62" data-name="layer1" style="stroke: #003369;"/></svg>
