<?xml version="1.0" encoding="UTF-8"?>
<svg xmlns="http://www.w3.org/2000/svg" aria-describedby="desc" aria-labelledby="title" viewBox="0 0 64 64"><path fill="none" stroke="#003369" stroke-miterlimit="10" stroke-width="2" d="M56 34v28H8V34M4 22h56v12H4z" data-name="layer2" style="stroke: #003369;"/><path fill="none" stroke="#003369" stroke-miterlimit="10" stroke-width="2" d="M24 22v40m16-40v40M26.2 5A7.4 7.4 0 0 0 20 2a8 8 0 0 0-5.3 14c4.2 3.7 17.3 6 17.3 6 0-6-3.4-14.3-5.8-17zm11.6 0A7.4 7.4 0 0 1 44 2a8 8 0 0 1 5.3 14C45.1 19.7 32 22 32 22c0-6 3.4-14.3 5.8-17z" data-name="layer1" style="stroke: #003369;"/></svg>
