<?xml version="1.0" encoding="UTF-8"?>
<svg xmlns="http://www.w3.org/2000/svg" data-name="Layer 1" viewBox="0 0 64 64"><path fill="none" stroke="#003369" stroke-miterlimit="10" stroke-width="2" d="M4.37 27.11c.23.94.55 1.94.73 3.07A26 26 0 0 0 6.51 35c.82 1.69 6.21 2.44 6.21 2.44s-.88-2.77-1.64-3.39-1.08-2.6 1.37-4.68 3.53 1.43 3.91 0 1.88-1.95 3.08-3.81 2.56-1.26 5.08-2.5.61-2.25.77-2.75a1.09 1.09 0 0 1 1-.57 14.9 14.9 0 0 1 2 .14s.4.17.67-.61-.36-1.94-.84-2.65a2.06 2.06 0 0 0-1.41-.8l-1.31-.4a4.07 4.07 0 0 0-1.73.48c-.37.36-.5.27-.72.45-1.14 1-1.83 3.21-3.08 2.7a7.42 7.42 0 0 1-2.09-2.54c-.6-1.1.26-3.67.26-3.67-1.78-.18-.13.58-3.43.45a9.34 9.34 0 0 1-3.15-.53M21.23 57.48a13.73 13.73 0 0 1-.51-1.5c-1.31-4.56 0-4-2.2-5.46s-3.83-4.8-3-6.68a4.43 4.43 0 0 0-.16-3.64" style="stroke: #003369;"/><path fill="none" stroke="#003369" stroke-miterlimit="10" stroke-width="2" d="M12.72 37.47a15.15 15.15 0 0 0 2.62 2.73l1.55-1.2s1.55-1.39 2.93-.66 3.34.29 5.78 1.9 1.31 1.28 3 2.09 6 2.53 3.84 5.62-3.36 4.16-4.41 6.93-3.18 3.58-3.59 4.64M22.17 5.4c-.2 1.45 1 4.34 2.25 5a6.62 6.62 0 0 1 2.4 1.42c2.22 2.13 2.72 1.51 4.59 1s-2-8.06-3.94-9M57.33 18.46a28.47 28.47 0 1 1-3.21-4.71" style="stroke: #003369;"/><path fill="none" stroke="#003369" stroke-miterlimit="10" stroke-width="2" d="M35.66 35.89C21.94 49.61 7.83 57.73 4.13 54c-1.69-1.7-.9-5.57 1.76-10.6" style="stroke: #003369;"/><path fill="none" stroke="#003369" stroke-miterlimit="10" stroke-width="2" d="M54.41 38.3l-2-15 4.2-4.2c1.15-1.15 3.2-5.06 2.05-6.21s-5.07.9-6.22 2.05l-4.2 4.2-15-2s-1.13-.21-1.62.29l-1.34 1.33a.85.85 0 0 0-.25.84c.13.29.92.66 1.21.79l10.46 5.29-4.7 4.66-5.71-.34a1 1 0 0 0-.87.29l-1.29 1.29c-.17.17-.5.58.25.92s6.83 2.83 6.83 2.83 2.45 6 2.83 6.83.75.42.91.25l1.3-1.29a1 1 0 0 0 .29-.88l-.75-5.33 5.08-5.08 5.29 10.47c.12.29.5 1.08.79 1.2a.76.76 0 0 0 .83-.25l1.33-1.33c.5-.5.3-1.62.3-1.62z" style="stroke: #003369;"/><path fill="none" stroke="#003369" stroke-miterlimit="10" stroke-width="2" d="M52.66 41.14a9.51 9.51 0 0 1-.2 2 22.22 22.22 0 0 0-.37 4c0 2.08.1 3.54.16 4.53M60.13 26.23c-1.91.55-2.66 1.67-3.85.59A4.53 4.53 0 0 0 52.9 26" style="stroke: #003369;"/></svg>
