<?xml version="1.0" encoding="UTF-8"?>
<svg xmlns="http://www.w3.org/2000/svg" data-name="Layer 1" viewBox="0 0 64 64"><path fill="none" stroke="#003369" stroke-miterlimit="10" stroke-width="2" d="M59 19a18.22 18.22 0 0 0 2.19-6.22 5.93 5.93 0 0 0 .06-.84 6.53 6.53 0 0 0-11.57-4.17" style="stroke: #003369;"/><path fill="none" d="M58.44 20H51a45.35 45.35 0 0 0 3.72 5.45A45.29 45.29 0 0 0 58.44 20z"/><path fill="none" stroke="#003369" stroke-miterlimit="10" stroke-width="2" d="M4.5 20h12.21a6.52 6.52 0 0 1 7.76 0H32V2A30 30 0 0 0 4.5 20zM48.26 12.74a5.93 5.93 0 0 1-.06-.84 6.44 6.44 0 0 1 1.48-4.13A29.83 29.83 0 0 0 32 2v18h19a20.15 20.15 0 0 1-2.74-7.26zM27.12 25.25a7.89 7.89 0 0 1-.05.84c-.6 5.52-6.48 12.71-6.48 12.71s-5.89-7.19-6.48-12.71a5.93 5.93 0 0 1-.06-.84A6.52 6.52 0 0 1 16.71 20H4.5a30 30 0 0 0 0 24H32V20h-7.53a6.51 6.51 0 0 1 2.65 5.25z" style="stroke: #003369;"/><circle cx="20.59" cy="25.13" r="1.78" fill="none"/><path fill="none" stroke="#003369" stroke-miterlimit="10" stroke-width="2" d="M32 2c-6.52 0-12.13 7.22-14.66 17.6a6.52 6.52 0 0 1 9.78 5.65 7.89 7.89 0 0 1-.05.84c-.6 5.52-6.48 12.71-6.48 12.71a43.64 43.64 0 0 1-4.68-7.26V32c0 16.57 7.21 30 16.1 30S48.1 48.57 48.1 32 40.89 2 32 2z" style="stroke: #003369;"/><path fill="none" stroke="#003369" stroke-miterlimit="10" stroke-width="2" d="M15.91 31.54a43.64 43.64 0 0 0 4.68 7.26s5.88-7.19 6.48-12.71a7.89 7.89 0 0 0 .05-.84 6.51 6.51 0 0 0-9.78-5.65m1.47 5.53a1.78 1.78 0 1 1 1.78 1.79 1.78 1.78 0 0 1-1.78-1.79z" style="stroke: #003369;"/><circle cx="20.59" cy="25.13" r="1.78" fill="none" stroke="#003369" stroke-miterlimit="10" stroke-width="2" style="stroke: #003369;"/><circle cx="20.59" cy="25.13" r="1.78" fill="none" stroke="#003369" stroke-miterlimit="10" stroke-width="2" style="stroke: #003369;"/><path fill="none" stroke="#003369" stroke-miterlimit="10" stroke-width="2" d="M59 19c-.19.35-.38.7-.58 1h1.05c-.13-.35-.28-.7-.47-1zM4.5 44A30 30 0 0 0 32 62V44zM59.49 20h-1.05a45.29 45.29 0 0 1-3.7 5.45A45.35 45.35 0 0 1 51 20H32v24h27.5a30 30 0 0 0 0-24zM32 62h0a30 30 0 0 0 27.5-18H32z" style="stroke: #003369;"/><circle cx="54.74" cy="11.79" r="1.78" fill="none" stroke="#003369" stroke-miterlimit="10" stroke-width="2" style="stroke: #003369;"/></svg>
