<?xml version="1.0" encoding="UTF-8"?>
<svg xmlns="http://www.w3.org/2000/svg" data-name="Layer 1" viewBox="0 0 64 64"><path fill="none" stroke="#003369" stroke-miterlimit="10" stroke-width="2" d="M47.57 24.49A53.43 53.43 0 0 1 48.1 32c0 15.94-6.94 28.86-15.49 28.86S17.12 47.94 17.12 32 24.06 3.14 32.61 3.14c4.48 0 8.51 3.54 11.34 9.21M6.16 43.54h52.9M54.9 20.46h4.16m-52.9 0H42.4m-9.79 7.85v32.55m0-46.12v9.94m0-21.54v8.26M56.4 15.67a28.84 28.84 0 1 1-4.06-4.73" style="stroke: #003369;"/><path fill="none" stroke="#003369" stroke-miterlimit="10" stroke-width="2" d="M36.91 30.84C22.45 45.31 7.56 55 3.67 51.13 1.88 49.35 2.13 45.54 5 40.24" style="stroke: #003369;"/><path fill="none" stroke="#003369" stroke-miterlimit="10" stroke-width="2" d="M56.59 33.4l-2.07-15.85L59 13.12c1.21-1.21 3.37-5.34 2.16-6.55s-5.34.94-6.55 2.16l-4.43 4.42-15.91-2.06s-1.18-.22-1.71.31l-1.4 1.4a.88.88 0 0 0-.27.88c.13.31 1 .7 1.28.84l11 5.57-4.9 4.91-6.06-.35a1 1 0 0 0-.92.31l-1.36 1.36c-.18.18-.53.62.26 1s7.2 3 7.2 3 2.59 6.37 3 7.21.79.44 1 .26l1.37-1.36a1 1 0 0 0 .3-.92l-.79-5.63 5.36-5.35 5.58 11c.13.31.53 1.14.83 1.27a.8.8 0 0 0 .88-.26l1.41-1.41c.47-.54.26-1.73.26-1.73z" style="stroke: #003369;"/></svg>
