<?xml version="1.0" encoding="UTF-8"?>
<svg xmlns="http://www.w3.org/2000/svg" data-name="Layer 1" viewBox="0 0 64 64"><path fill="none" stroke="#003369" stroke-miterlimit="10" stroke-width="2" d="M52.46 13.05a25.1 25.1 0 0 1-3.82 2c-1 .64-1.13 2.36-1.19 3A3.18 3.18 0 0 0 49 20.31c1.81.88 2.83-1.08 4.76.17A47.43 47.43 0 0 0 58.39 23M4 27.11c.22.94.54 1.94.73 3.07A25.18 25.18 0 0 0 6.16 35c.82 1.69 6.2 2.44 6.2 2.44s-.87-2.77-1.63-3.39-1.08-2.63 1.37-4.71 3.53 1.43 3.91 0 1.87-1.95 3.07-3.81 2.59-1.28 5.08-2.52.61-2.25.78-2.75a1.06 1.06 0 0 1 1-.57 14.86 14.86 0 0 1 2 .14s.41.17.67-.61-.35-1.94-.84-2.65a2 2 0 0 0-1.41-.8L25 15.42s-1.36.11-1.72.48-.5.27-.72.45c-1.15 1-1.84 3.21-3.09 2.7a7.54 7.54 0 0 1-2.09-2.54c-.6-1.1.27-3.67.27-3.67-1.79-.18-.14.58-3.43.45a9.29 9.29 0 0 1-3.15-.53M20.88 57.48a13.64 13.64 0 0 1-.52-1.5c-1.3-4.56 0-4-2.2-5.46s-3.83-4.8-3-6.68A4.48 4.48 0 0 0 15 40.2" style="stroke: #003369;"/><path fill="none" stroke="#003369" stroke-miterlimit="10" stroke-width="2" d="M12.36 37.47A15 15 0 0 0 15 40.2l1.53-1.2s1.55-1.39 2.93-.66 3.34.29 5.79 1.9 1.3 1.28 3 2.09 6 2.53 3.85 5.62-3.36 4.16-4.42 6.93-3.18 3.58-3.58 4.64M21.81 5.4c-.2 1.45 1 4.34 2.26 5 0 0 .46-1 2.4 1.42s2.71 1.51 4.58 1-2.52-7.37-4.43-8.29" style="stroke: #003369;"/><circle cx="32" cy="32" r="28.41" fill="none" stroke="#003369" stroke-miterlimit="10" stroke-width="2" style="stroke: #003369;"/><path fill="none" stroke="#003369" stroke-miterlimit="10" stroke-width="2" d="M59.77 26.23c-1.91.55-2.66 1.67-3.85.59a4.84 4.84 0 0 0-6.36.67 11.26 11.26 0 0 0-1.63 2.71c-.51 1.23-1.21 3.1-.78 4.36.37 1.06.55 1.63 1.35 2.09s.42 0 1.47.61c1.58.92 2.85 2.33 2.13 5.88a21.56 21.56 0 0 0-.36 4c-.05 2.08.1 3.54.15 4.53" style="stroke: #003369;"/></svg>
