<?xml version="1.0" encoding="UTF-8"?>
<svg xmlns="http://www.w3.org/2000/svg" data-name="Layer 1" viewBox="0 0 64 64"><path fill="none" stroke="#003369" stroke-miterlimit="10" stroke-width="2" d="M9.5 14.16c.63-.77 1.31-1.52 2-2.25a28.39 28.39 0 1 1-5.1 6.94" style="stroke: #003369;"/><path fill="none" stroke="#003369" stroke-miterlimit="10" stroke-width="2" d="M28.42 37C42.14 50.67 56.25 58.8 60 55.1c1.69-1.69.91-6.56-2.94-11.77M31.79 18a5 5 0 0 1 3.58-1.52h2.49l2.5-2.48h6.23l3.18-3.28M59.05 32.64h-3.74l-2.49-3.74h-2.5l-1.24 1.25h-3.74l-6.23-6.23H27.97" style="stroke: #003369;"/><path fill="none" stroke="#003369" stroke-miterlimit="10" stroke-width="2" d="M46.38 48.64h-3.73v-8.73l-2.5-2.49h-4.98v-3.74l3.74-3.73h6.23l6.23 6.23v7.47l-4.99 4.99zM30.19 22.79l-7.82 3.95L27 31.41l5.74-.34a1 1 0 0 1 .88.29l1.38 1.3c.17.16.5.58-.25.91s-6.83 2.83-6.83 2.83-2.46 6-2.83 6.83-.75.42-.92.25l-1.29-1.29a1 1 0 0 1-.29-.87l.7-5.32-5.08-5.08-5.29 10.44c-.13.29-.5 1.08-.79 1.21a.77.77 0 0 1-.84-.25L10 41c-.5-.5-.29-1.63-.29-1.63l2-15-4.2-4.2c-1.15-1.15-3.2-5.07-2-6.22s5.06.9 6.21 2.05l4.2 4.2 15-2s1.12-.2 1.62.3l1.33 1.33a.8.8 0 0 1 .25.83c-.12.29-.91.67-1.2.79l-2.64 1.34" style="stroke: #003369;"/></svg>
