<?xml version="1.0" encoding="UTF-8"?>
<svg xmlns="http://www.w3.org/2000/svg" aria-describedby="desc" aria-labelledby="title" viewBox="0 0 64 64"><path fill="none" stroke="#003369" stroke-miterlimit="10" stroke-width="2" d="M20 33.416V16a4 4 0 0 1 4-4 4 4 0 0 1 4 4v4" data-name="layer1" style="stroke: #003369;"/><path fill="none" stroke="#003369" stroke-miterlimit="10" stroke-width="2" d="M20 32a4 4 0 0 0-4-4 4 4 0 0 0-4 4v4c0 6 6.187 13.189 6.187 13.189C20.629 52 23.227 54 26.738 54H42a10 10 0 0 0 10-10v-8M36 22v-8a4 4 0 0 0-4-4 4 4 0 0 0-4 4v2m8 0a4 4 0 0 1 4-4 4 4 0 0 1 4 4v8" data-name="layer1" style="stroke: #003369;"/><path fill="none" stroke="#003369" stroke-miterlimit="10" stroke-width="2" d="M44 20a4 4 0 0 1 4-4 4 4 0 0 1 4 4v22" data-name="layer1" style="stroke: #003369;"/></svg>
