<?xml version="1.0" encoding="UTF-8"?>
<svg xmlns="http://www.w3.org/2000/svg" aria-describedby="desc" aria-labelledby="title" viewBox="0 0 64 64"><path fill="none" stroke="#003369" stroke-width="2" d="M50.3 12L50 8c-.2-2.9-2.5-6-6-6H20c-3.3 0-5.7 2.3-6 6l-.3 4" data-name="layer2" style="stroke: #003369;"/><path fill="none" stroke="#003369" stroke-width="2" d="M46.3 12L46 8.3c-.1-.9-.8-2.3-2-2.3H20c-.4 0-1.8 0-2 2.4l-.3 3.6m2.3 8v2m8-2v2m8-2v2m8-2v2m-20 6v2m8-2v2m8-2v2m-20 6v2m8-2v2m8-2v2m8-2v2M20 52v2m8-2v2m8-2v2m8-2v2M24 44v2m8-2v2m8-2v2" data-name="layer2" style="stroke: #003369;"/><path fill="none" stroke="#003369" stroke-width="2" d="M50.3 12H13.7L10 58a3.9 3.9 0 0 0 4 4h36a3.9 3.9 0 0 0 4-4z" data-name="layer1" style="stroke: #003369;"/></svg>
