<?xml version="1.0" encoding="UTF-8"?>
<svg xmlns="http://www.w3.org/2000/svg" data-name="Layer 1" viewBox="0 0 64 64"><path fill="none" stroke="#003369" stroke-linejoin="round" stroke-width="2" d="M2.68 26.75h58.64v24.29H2.68zM32 26.75v24.29M41.77 26.75v24.29M51.55 26.75v24.29" style="stroke: #003369;"/><path fill="none" stroke="#003369" stroke-linejoin="round" stroke-width="2" d="M13.2 34.83h8.55v16.21H13.2zM17.34 12.96l7.33 6.9L32 26.75H2.68l7.33-6.89 7.33-6.9zM26.85 12.96l14.66 13.79M36.89 12.96l14.66 13.79" style="stroke: #003369;"/><path fill="none" stroke="#003369" stroke-linejoin="round" stroke-width="2" d="M17.34 12.96h29.32l14.66 13.79M14.87 20.92l2.74-2.9M7.01 36.28l2.73-2.9M7.01 33.2l2.73-2.9M24.92 41.34l2.74-2.9M35.52 46.89l2.73-2.9M45.29 36.52l2.74-2.9M55.69 44.39l2.74-2.9" style="stroke: #003369;"/></svg>
