<?xml version="1.0" encoding="UTF-8"?>
<svg xmlns="http://www.w3.org/2000/svg" aria-describedby="desc" aria-labelledby="title" viewBox="0 0 64 64"><path fill="none" stroke="#003369" stroke-miterlimit="10" stroke-width="2" d="M24 52a8 8 0 0 1 8 8V16a8 8 0 0 0-8-8H2v44zM54 8h8v44H40a8 8 0 0 0-8 8" data-name="layer2" style="stroke: #003369;"/><path fill="none" stroke="#003369" stroke-miterlimit="10" stroke-width="2" d="M32 16a8 8 0 0 1 8-8h2" data-name="layer2" style="stroke: #003369;"/><path fill="none" stroke="#003369" stroke-miterlimit="10" stroke-width="2" d="M54 26l-6-4-6 4V4h12v22zm-44-8h14m-14 8h14m-14 8h14m-14 8h14m16-8h14m-14 8h14" data-name="layer1" style="stroke: #003369;"/></svg>
