<?xml version="1.0" encoding="UTF-8"?>
<svg xmlns="http://www.w3.org/2000/svg" viewBox="0 0 64 64"><path fill="none" stroke="#003369" stroke-miterlimit="10" stroke-width="2" d="M14.62 33.96l-3.85 12.69M21.56 29.11L16.31 46.7M17.15 16.17v-2.03c0-.95-.78-1.73-1.73-1.73h-2.41c-.95 0-1.73.78-1.73 1.73v2.61h-1.3l-.21.02c-1.31.16-2.34 1.26-2.34 2.61v7.51a2.65 2.65 0 0 0 2.64 2.64c.08 0 .15-.02.22-.02L3.84 48.13S2.49 51.6 5.43 51.6H17.3s2.06-.06 3.47-1.88c.72-.93 2.51-6.29 4.08-11.28l6.12-.04c2.65-.02 5.3-.02 7.95-.06 1.77-.02 3.58-.94 3.58-2.94-.01-1.91 0-4.95 0-6.86v-1.07h11.34v-3.09h6.64v-8.21H17.15z" style="stroke: #003369;"/><path fill="none" stroke="#003369" stroke-miterlimit="10" stroke-width="2" d="M26.03 32.89c.76-2.94 1.09-4.83 1.3-5.68h9.39l.04 5.68H26.03z" style="stroke: #003369;"/></svg>
