<?xml version="1.0" encoding="UTF-8"?>
<svg xmlns="http://www.w3.org/2000/svg" aria-describedby="desc" aria-labelledby="title" viewBox="0 0 64 64"><ellipse cx="41.278" cy="22.722" fill="none" stroke="#003369" stroke-width="2" data-name="layer2" rx="5.178" ry="7.247" transform="rotate(-45 41.278 22.722)" style="stroke: #003369;"/><path fill="none" stroke="#003369" stroke-width="2" d="M10.785 46.774L8.75 48.81a4.131 4.131 0 0 0-5.537 6.12c2.142 2.143 2.934 1.471 3.658 2.2 1 1 .426 1.887 2.2 3.66a4.142 4.142 0 0 0 5.857-5.857 4.14 4.14 0 0 0-.334-.25l1.706-1.714" data-name="layer2" style="stroke: #003369;"/><ellipse cx="41.278" cy="22.722" fill="none" stroke="#003369" stroke-width="2" data-name="layer1" rx="15.53" ry="24.847" transform="rotate(-45 41.278 22.721)" style="stroke: #003369;"/><path fill="none" stroke="#003369" stroke-width="2" d="M23.709 5.152C17.68 11.183 9.869 23.517 12 37.359c0 0 .965 4.893 0 5.857a4.146 4.146 0 0 0 0 5.858L14.926 52a4.14 4.14 0 0 0 5.855 0c.965-.965 5.857 0 5.857 0 13.842 2.129 26.176-5.682 32.209-11.711" data-name="layer1" style="stroke: #003369;"/></svg>
