<?xml version="1.0" encoding="UTF-8"?>
<svg xmlns="http://www.w3.org/2000/svg" aria-describedby="desc" aria-labelledby="title" viewBox="0 0 64 64"><path fill="none" stroke="#003369" stroke-width="2" d="M58.9 34.4A5 5 0 0 1 62 39a5 5 0 0 1-5 5M7 44a5 5 0 0 1-5-5 5 5 0 0 1 2-4" data-name="layer1" style="stroke: #003369;"/><path fill="none" stroke="#003369" stroke-width="2" d="M8 26c-2 0-9.6 5.4-4 9 3.3 1.9 6.7-2.8 8-2.8S18 36 24 36s9.1-4 12-4 5.1 4 8 4 4.8-2 8-2 9.2 1.9 10-2-6-6-6-6" data-name="layer2" style="stroke: #003369;"/><path fill="none" stroke="#003369" stroke-width="2" d="M57 54l-.6 5a3.7 3.7 0 0 1-3.4 3H11a3.7 3.7 0 0 1-3.6-3l-.5-5" data-name="layer1" style="stroke: #003369;"/><path fill="none" stroke="#003369" stroke-width="2" d="M32 44l16 8 8-8" data-name="layer2" style="stroke: #003369;"/><path fill="none" stroke="#003369" stroke-width="2" d="M56 26a24 24 0 1 0-48 0h48z" data-name="layer1" style="stroke: #003369;"/><circle cx="44" cy="12" r="1" fill="none" stroke="#003369" stroke-width="2" data-name="layer1" style="stroke: #003369;"/><circle cx="38" cy="14" r="1" fill="none" stroke="#003369" stroke-width="2" data-name="layer1" style="stroke: #003369;"/><circle cx="32" cy="10" r="1" fill="none" stroke="#003369" stroke-width="2" data-name="layer1" style="stroke: #003369;"/><circle cx="28" cy="16" r="1" fill="none" stroke="#003369" stroke-width="2" data-name="layer1" style="stroke: #003369;"/><circle cx="22" cy="12" r="1" fill="none" stroke="#003369" stroke-width="2" data-name="layer1" style="stroke: #003369;"/><path fill="none" stroke="#003369" stroke-width="2" d="M62 49a5 5 0 0 1-5 5H7a5 5 0 0 1-5-5 5 5 0 0 1 5-5h50a5 5 0 0 1 5 5z" data-name="layer1" style="stroke: #003369;"/></svg>
