<?xml version="1.0" encoding="UTF-8"?>
<svg xmlns="http://www.w3.org/2000/svg" viewBox="0 0 36.93 69.94"><rect width="36.93" height="15.54" y="31.75" fill="#1d3767" rx="7.77" ry="7.77" style="fill: #003369;"/><text fill="#fff" font-family="Arial-BoldMT,Arial" font-size="11.82" transform="translate(6.42 43.69)"><tspan x="0" y="0">HD</tspan><tspan x="17.08" y="0" letter-spacing="-.02em">P</tspan></text><text fill="#1d3767" font-family="Arial-BoldMT,Arial" font-size="11.82" transform="translate(5.31 65.48)"><tspan x="0" y="0">xxxx</tspan></text><g fill="none" stroke="#1d3768" stroke-miterlimit="10"><path stroke-width=".85" d="M11.75 14.94c0 .85-.47 1.6-.97 2.06v.44c0 .28.14.71 1.53.97.8.15 1.44.74 1.67 1.53H5.63c.13-.78.74-1.4 1.53-1.53 1.39-.25 1.67-.69 1.67-.97V17c-.5-.46-.97-1.19-.97-2.06v-1.33c0-1.44 1.03-2 1.94-2s1.94.56 1.94 2v1.33zM18.69 4.86v.07a4.573 4.573 0 0 1-.33 1.71c-.38.91-1.04 1.67-1.88 2.16-.68.41-1.46.64-2.3.64h-.02c-2.49-.01-4.5-2.03-4.5-4.51S11.68.42 14.18.42s4.47 1.98 4.51 4.44z" style="fill: #003369;"/><path stroke-width=".85" d="M22.59 13.78h-8.34c.14-.78.75-1.39 1.53-1.53 1.39-.25 1.67-.69 1.67-.97v-.44c-.5-.46-.96-1.19-.97-2.04.84-.49 1.5-1.25 1.88-2.16.15-.37.25-.76.3-1.17.85.08 1.71.65 1.71 1.98v1.33c0 .85-.48 1.6-.98 2.06v.44c0 .28.14.71 1.53.97.8.16 1.45.75 1.67 1.53zM29.07 14.94c0 .85-.47 1.6-.97 2.06v.44c0 .28.14.71 1.53.97.8.15 1.44.74 1.67 1.53h-8.33c.13-.78.74-1.4 1.53-1.53 1.39-.25 1.67-.69 1.67-.97V17c-.5-.46-.97-1.19-.97-2.06v-1.33c0-1.44 1.03-2 1.94-2s1.94.56 1.94 2v1.33z" style="fill: #003369;"/><g stroke-width=".71"><path d="M21.46 18.03h-5.99M20.53 19.22l.93-1.19-.93-1.19m-4.13 2.39l-.93-1.19.93-1.19" style="fill: #003369;"/></g><g stroke-width=".5"><path d="M12.45 2.46V7.4h3.46V3.78l-1.32-1.32h-2.14z" style="fill: #003369;"/><path d="M14.59 2.46v1.32h1.32M13.27 4.11h.66m-.66.82h1.81m-1.81.82h1.81m-1.81.82h1.48" style="fill: #003369;"/></g></g></svg>
