<?xml version="1.0" encoding="UTF-8"?>
<svg xmlns="http://www.w3.org/2000/svg" aria-describedby="desc" aria-labelledby="title" viewBox="0 0 64 64"><path fill="none" stroke="#003369" stroke-miterlimit="10" stroke-width="2" d="M12 36V26c0-11 8-20 19-20h2c11 0 19 9 19 20v10" data-name="layer2" style="stroke: #003369;"/><path fill="none" stroke="#003369" stroke-miterlimit="10" stroke-width="2" d="M14.3 16.3c2.8 2.8 4.4.4 4.4.4A14.7 14.7 0 0 1 31.2 10h1.6a14.7 14.7 0 0 1 12.5 6.7s2.2 3.5 4.9.7" data-name="layer2" style="stroke: #003369;"/><path fill="none" stroke="#003369" stroke-miterlimit="10" stroke-width="2" d="M17 56H5.6A3.6 3.6 0 0 1 2 52.4V39.6A3.6 3.6 0 0 1 5.6 36H17zm30 0h11.4a3.6 3.6 0 0 0 3.6-3.6V39.6a3.6 3.6 0 0 0-3.6-3.6H47z" data-name="layer1" style="stroke: #003369;"/></svg>
