<?xml version="1.0" encoding="UTF-8"?>
<svg xmlns="http://www.w3.org/2000/svg" aria-describedby="desc" aria-labelledby="title" viewBox="0 0 64 64"><path fill="none" stroke="#003369" stroke-miterlimit="10" stroke-width="2" d="M20.8 36H14a4 4 0 0 1-4-4V22a4 4 0 0 1 4-4h6.8m22.4 18H50a4 4 0 0 0 4-4V22a4 4 0 0 0-4-4h-6.8" data-name="layer1" style="stroke: #003369;"/><path fill="none" stroke="#003369" stroke-miterlimit="10" stroke-width="2" d="M39.9 39.4A15.3 15.3 0 0 0 46 27c0-8.3-6.3-15-14-15s-14 6.7-14 15a15.3 15.3 0 0 0 6.1 12.4A24.1 24.1 0 0 0 8 62h48a24.1 24.1 0 0 0-16.1-22.6z" data-name="layer2" style="stroke: #003369;"/><path fill="none" stroke="#003369" stroke-miterlimit="10" stroke-width="2" d="M16 18A16 16 0 0 1 32 2a16 16 0 0 1 16 16" data-name="layer1" style="stroke: #003369;"/></svg>
