<?xml version="1.0" encoding="UTF-8"?>
<svg xmlns="http://www.w3.org/2000/svg" aria-describedby="desc" aria-labelledby="title" viewBox="0 0 64 64"><path fill="none" stroke="#003369" stroke-miterlimit="10" stroke-width="2" d="M6.775 7.821l25-5.769a1 1 0 0 1 .45 0l25 5.769A1 1 0 0 1 58 8.8v15.265A41.975 41.975 0 0 1 31.994 62 41.97 41.97 0 0 1 6 24.065V8.8a1 1 0 0 1 .775-.979z" data-name="layer2" style="stroke: #003369;"/><path fill="none" stroke="#003369" stroke-miterlimit="10" stroke-width="2" d="M39 18a7.549 7.549 0 0 0-7 4.815A7.549 7.549 0 0 0 25 18a7.113 7.113 0 0 0-7 7.222C18 31.481 23.133 37.741 32 44c8.867-6.259 14-12.519 14-18.778A7.113 7.113 0 0 0 39 18z" data-name="layer1" style="stroke: #003369;"/></svg>
