<?xml version="1.0" encoding="UTF-8"?>
<svg xmlns="http://www.w3.org/2000/svg" aria-describedby="desc" aria-labelledby="title" viewBox="0 0 64 64"><circle cx="32" cy="32" r="30" fill="none" stroke="#003369" stroke-miterlimit="10" stroke-width="2" data-name="layer2" style="stroke: #003369;"/><path fill="none" stroke="#003369" stroke-miterlimit="10" stroke-width="2" d="M47 27h-9a1 1 0 0 1-1-1v-9a1 1 0 0 0-1-1h-8a1 1 0 0 0-1 1v9a1 1 0 0 1-1 1h-9a1 1 0 0 0-1 1v8a1 1 0 0 0 1 1h9a1 1 0 0 1 1 1v9a1 1 0 0 0 1 1h8a1 1 0 0 0 1-1v-9a1 1 0 0 1 1-1h9a1 1 0 0 0 1-1v-8a1 1 0 0 0-1-1z" data-name="layer1" style="stroke: #003369;"/></svg>
