<?xml version="1.0" encoding="UTF-8"?>
<svg xmlns="http://www.w3.org/2000/svg" aria-describedby="desc" aria-labelledby="title" viewBox="0 0 64 64"><path fill="none" stroke="#003369" stroke-miterlimit="10" stroke-width="2" d="M52 8h4a2.006 2.006 0 0 1 2 2v6a2.006 2.006 0 0 1-2 2h-4m-16 6h-4v-4h-4v4h-4v4h4v4h4v-4h4v-4z" data-name="layer2" style="stroke: #003369;"/><path fill="none" stroke="#003369" stroke-miterlimit="10" stroke-width="2" d="M18 47h25m-25 7h25M9 2h37a6 6 0 0 1 6 6v48a6 6 0 0 1-6 6H9a1 1 0 0 1-1-1V3a1 1 0 0 1 1-1z" data-name="layer1" style="stroke: #003369;"/><circle cx="30" cy="26" r="13" fill="none" stroke="#003369" stroke-miterlimit="10" stroke-width="2" data-name="layer2" style="stroke: #003369;"/><path fill="none" stroke="#003369" stroke-miterlimit="10" stroke-width="2" d="M52 23h3a2.006 2.006 0 0 1 2 2v6a2.006 2.006 0 0 1-2 2h-3m3 0a2.006 2.006 0 0 1 2 2v6a2.006 2.006 0 0 1-2 2h-3m3 0a2.006 2.006 0 0 1 2 2v6a2.006 2.006 0 0 1-2 2h-3" data-name="layer1" style="stroke: #003369;"/></svg>
