<?xml version="1.0" encoding="UTF-8"?>
<svg xmlns="http://www.w3.org/2000/svg" aria-describedby="desc" aria-labelledby="title" viewBox="0 0 64 64"><path fill="none" stroke="#003369" stroke-miterlimit="10" stroke-width="2" d="M7 34h10.76a.5.5 0 0 0 .39-.188l3.437-4.3a.5.5 0 0 1 .8.022l4.166 5.833a.5.5 0 0 0 .839-.039l6.1-10.459a.5.5 0 0 1 .894.062l6.2 15.049a.5.5 0 0 0 .91.033l3.371-6.741a.5.5 0 0 1 .442-.272H57" data-name="layer1" style="stroke: #003369;"/><rect width="60" height="50" x="2" y="7" fill="none" stroke="#003369" stroke-miterlimit="10" stroke-width="2" data-name="layer2" rx="3" ry="3" style="stroke: #003369;"/><path fill="none" stroke="#003369" stroke-miterlimit="10" stroke-width="2" d="M7 12h50v35H7zm50 40H42" data-name="layer2" style="stroke: #003369;"/><path fill="none" stroke="#003369" stroke-miterlimit="10" stroke-width="2" d="M19.5 17a2.716 2.716 0 0 0-2.5 1.481A2.716 2.716 0 0 0 14.5 17a2.373 2.373 0 0 0-2.5 2.222c0 1.926 1.833 3.852 5 5.778 3.167-1.926 5-3.852 5-5.778A2.373 2.373 0 0 0 19.5 17zM47 17s-3 0-3 5" data-name="layer1" style="stroke: #003369;"/><circle cx="46" cy="22" r="2" fill="none" stroke="#003369" stroke-miterlimit="10" stroke-width="2" data-name="layer1" style="stroke: #003369;"/><path fill="none" stroke="#003369" stroke-miterlimit="10" stroke-width="2" d="M52 17v7" data-name="layer1" style="stroke: #003369;"/></svg>
