<?xml version="1.0" encoding="UTF-8"?>
<svg xmlns="http://www.w3.org/2000/svg" viewBox="0 0 64 64"><path fill="none" stroke="#003369" stroke-linejoin="round" stroke-width="2" d="M35.75 47.01h22.42c1.49 0 2.69-1.2 2.69-2.69" style="stroke: #003369;"/><path fill="none" stroke="#003369" stroke-miterlimit="10" stroke-width="2" d="M45.62 27.56v-7.45" style="stroke: #003369;"/><path fill="none" stroke="#003369" stroke-linejoin="round" stroke-width="2" d="M60.84 38.05c0 .66-.15 1.32-.48 1.95-.65 1.5-2.61 2.52-4.81 2.51H37.83c-3.25 0-6.29-1.13-8.18-3l-7.88-7.73-13.86-.89-1.89 2.69h-3.1l1.26-4.51-2.84-8.96h3.17l4.75 7.17H43.2c3.93 0 4.96 1.72 6.69 2.73.51.22 1.05.39 1.63.5" style="stroke: #003369;"/><path fill="none" stroke="#003369" stroke-miterlimit="10" stroke-width="2" d="M45.62 42.53l.89 4.48M54.58 42.53l.9 4.48M29.48 22.8h32.28" style="stroke: #003369;"/><path fill="none" stroke="#003369" stroke-linejoin="round" stroke-width="2" d="M48.14 36.55l-6.15-6.13h8.73c.22 0 .43.02.64.05 5.67.89 9.56 4.72 9.56 7.51h-8.69c-1.61.02-3.13-.51-4.1-1.43zM38.41 30.87H33l6.68 7.11h5.48l-6.75-7.11z" style="stroke: #003369;"/><path fill="none" stroke="#003369" stroke-miterlimit="10" stroke-width="2" d="M45.62 22.8l17.71-5.81" style="stroke: #003369;"/></svg>
