<?xml version="1.0" encoding="UTF-8"?>
<svg xmlns="http://www.w3.org/2000/svg" data-name="Layer 1" viewBox="0 0 64 64"><path fill="none" stroke="#1d3763" stroke-miterlimit="10" stroke-width="2" d="M43.3 22.1h-3.6c-8.1 0-11.63 4.5-11.63 4.5h-17L5.7 21.2H2.1l3.6 8.1-1.8 5.4h2.7l4.5-4.5 16 2.7 2.51 5a7.2 7.2 0 0 0 6.44 4H53.2c4.5 0 7.2-1.8 7.2-6.3 0-5.4-5.4-13.5-17.1-13.5zM48.72 22.76l-.04 12.54" style="stroke: #003369;"/><path fill="none" stroke="#1d3763" stroke-miterlimit="10" stroke-width="2" d="M38.85 22.76v6c0 3.85.34 6.51 4.58 6.51h17M42.4 16.7v5.4M61.9 16.7h-39M36.1 47.3v-5.4M48.7 47.3v-5.4M55.9 45.5a7.88 7.88 0 0 1-5.4 1.8H29.8" style="stroke: #003369;"/></svg>
