<?xml version="1.0" encoding="UTF-8"?>
<svg xmlns="http://www.w3.org/2000/svg" data-name="Layer 1" viewBox="0 0 64 64"><path fill="none" stroke="#1d3763" stroke-linejoin="round" stroke-width="2" d="M25.43 52.34h29.85a3.58 3.58 0 0 0 3.58-3.58" style="stroke: #003369;"/><path fill="none" stroke="#1d3763" stroke-miterlimit="10" stroke-width="2" d="M38.57 26.08v-9.55" style="stroke: #003369;"/><path fill="none" stroke="#1d3763" stroke-linejoin="round" stroke-width="2" d="M58.86 40.41a7.25 7.25 0 0 1-.45 2.59 4.73 4.73 0 0 1-4.56 3.34H37.06a9.57 9.57 0 0 1-7.75-4l-7.46-10.29-13.13-1.19-1.79 3.58H4l1.19-6L4 21.31h3l3 4.77h32.15c3.72 0 4.7 2.29 6.34 3.64a5.9 5.9 0 0 0 1.54.67" style="stroke: #003369;"/><path fill="none" stroke="#1d3763" stroke-miterlimit="10" stroke-width="2" d="M38.57 46.38l1.19 5.96M50.5 46.38l1.2 5.96M17.08 20.11h42.97" style="stroke: #003369;"/><path fill="none" stroke="#1d3763" stroke-linejoin="round" stroke-width="2" d="M46.83 38.42L41 30.26h8.27a3.15 3.15 0 0 1 .61.06c5.37 1.19 9.06 6.29 9.06 10h-8.23a4.78 4.78 0 0 1-3.88-1.9z" style="stroke: #003369;"/><path fill="none" stroke="#1d3763" stroke-miterlimit="10" stroke-width="2" d="M37.37 30.86h-2.39M31.4 30.86h-2.38" style="stroke: #003369;"/></svg>
