<?xml version="1.0" encoding="UTF-8"?>
<svg xmlns="http://www.w3.org/2000/svg" data-name="Layer 1" viewBox="0 0 64 64"><path fill="none" stroke="#1d3763" stroke-miterlimit="10" stroke-width="2" d="M42.35 24.1l3.21 10.49s.92 3.15 3.33 3.15h9.32" style="stroke: #003369;"/><path fill="none" stroke="#1d3763" stroke-linejoin="round" stroke-width="2" d="M15.32 28.88H8.83l18.1 7.36a10.86 10.86 0 0 0 10.46 8.13h14.2c5.94 0 8.69-4.21 6.12-9.35s-9.5-10.07-15.37-11l-5.08-.76a9 9 0 0 0-10 5.57H15.32" style="stroke: #003369;"/><path fill="none" stroke="#1d3763" stroke-miterlimit="10" stroke-width="2" d="M30.09 48.89h25.75a6.74 6.74 0 0 0 4.61-2M39.22 23.41v-8.3M15.08 17.87h46.31" style="stroke: #003369;"/><path fill="none" stroke="#1d3763" stroke-linejoin="round" stroke-width="2" d="M14.25 31.3a6.1 6.1 0 1 1 .58-2.59" style="stroke: #003369;"/></svg>
