<?xml version="1.0" encoding="UTF-8"?>
<svg xmlns="http://www.w3.org/2000/svg" data-name="Layer 1" viewBox="0 0 64 64"><path fill="none" stroke="#1d3763" stroke-miterlimit="10" stroke-width="2" d="M41.17 24.1l3.2 10.49s.93 3.15 3.33 3.15H57M11.08 33.82a5.92 5.92 0 1 1 1.62-8.12" style="stroke: #003369;"/><path fill="none" stroke="#1d3763" stroke-linejoin="round" stroke-width="2" d="M56.52 35C54 29.88 47 25 41.16 24.07l-5.08-.76a9 9 0 0 0-10 5.57H7.65l18.1 7.36a10.85 10.85 0 0 0 10.45 8.13h14.21c5.94 0 8.69-4.21 6.11-9.37z" style="stroke: #003369;"/><path fill="none" stroke="#1d3763" stroke-miterlimit="10" stroke-width="2" d="M28.91 48.89h25.75a6.71 6.71 0 0 0 4.6-2M38.04 23.41v-8.3M13.9 17.87h20.31M41.87 17.87h20.31" style="stroke: #003369;"/></svg>
