<?xml version="1.0" encoding="UTF-8"?>
<svg xmlns="http://www.w3.org/2000/svg" aria-describedby="desc" aria-labelledby="title" viewBox="0 0 64 64"><path fill="none" stroke="#003369" stroke-miterlimit="10" stroke-width="2" d="M25.9 49.3a26.4 26.4 0 0 0 6.1.7c17.2 0 29.5-17.5 29.5-17.5a51.8 51.8 0 0 0-9.5-9.7m-6.5-4.3A29.1 29.1 0 0 0 32 15C14.8 15 2.5 32.5 2.5 32.5a50.9 50.9 0 0 0 15.4 13.6M32 44a12 12 0 0 0 12-12m-3.5-8.5a12 12 0 0 0-17 17" data-name="layer2" style="stroke: #003369;"/><path fill="none" stroke="#003369" stroke-miterlimit="10" stroke-width="2" d="M62 2L2 62" data-name="layer1" style="stroke: #003369;"/></svg>
