<?xml version="1.0" encoding="UTF-8"?>
<svg xmlns="http://www.w3.org/2000/svg" aria-describedby="desc" aria-labelledby="title" viewBox="0 0 64 64"><path fill="none" stroke="#003369" stroke-miterlimit="10" stroke-width="2" d="M6 8H2v4m8-4h10v4h2m4 0h8m4 0h8m4 0h4v8h2" data-name="layer2" style="stroke: #003369;"/><path fill="none" stroke="#003369" stroke-miterlimit="10" stroke-width="2" d="M62 22v-2h-2m2 26v-8m0-4v-8m-14-6h-8m-4 0h-8m-4 0h-8m-4 0h-2v6m0 4v8m0 4v11a3 3 0 0 1-3 3H5a3 3 0 0 1-3-3v-1" data-name="layer1" style="stroke: #003369;"/><path fill="none" stroke="#003369" stroke-miterlimit="10" stroke-width="2" d="M2 16v8m0 4v8m0 4v8" data-name="layer2" style="stroke: #003369;"/><path fill="none" stroke="#003369" stroke-miterlimit="10" stroke-width="2" d="M16 56h8m4 0h8m4 0h8m4 0h7a3 3 0 0 0 3-3v-3" data-name="layer1" style="stroke: #003369;"/></svg>
