<?xml version="1.0" encoding="UTF-8"?>
<svg xmlns="http://www.w3.org/2000/svg" data-name="Layer 1" viewBox="0 0 64 64"><path fill="none" stroke="#00336a" stroke-miterlimit="3" stroke-width="2" d="M50.19 13.33v5.8h5.31v-5.8M50.19 19.13h-2.74v4.69a5.37 5.37 0 0 0 .13 1.18A5.09 5.09 0 0 0 49 27.63 5.42 5.42 0 0 0 58.13 25a6 6 0 0 0 .12-1.22v-4.65H55.5M39.74 28.1L22.76 13.82 5.75 28.1v22.46h12.42V35.82h9.16v14.74h12.52l-.11-22.46z" style="stroke: #003369;"/><path fill="none" stroke="#00336a" stroke-width="2" d="M52.86 29.4v16.34A4.27 4.27 0 0 1 48.58 50h0a4.28 4.28 0 0 1-4.28-4.28v-6.79a3.21 3.21 0 0 0-3.21-3.21H40" style="stroke: #003369;"/></svg>
