<?xml version="1.0" encoding="UTF-8"?>
<svg xmlns="http://www.w3.org/2000/svg" data-name="Layer 1" viewBox="0 0 64 64"><path fill="none" stroke="#00336a" stroke-miterlimit="3" stroke-width="2" d="M54.91 13.31v4.84h4.44v-4.84M54.92 18.15h-2.29v3.91a4.9 4.9 0 0 0 .11 1 4.51 4.51 0 0 0 8.79 0 4.9 4.9 0 0 0 .11-1v-3.91h-2.29" style="stroke: #003369;"/><path fill="none" stroke="#00336a" stroke-miterlimit="3" stroke-width="2" d="M4.39 42.78h38.84m-34.16 0V30.41l-2.3 1.72-4.41-5.83L23.8 10.08l7.41 5.6v-2.86h7.29v8.38l6.73 5.11-4.43 5.83-2.28-1.71v6m-10.91 6.4V30.41H20v12.37m37.13-16.21V49a4.92 4.92 0 0 1-4.88 4.88h0a4.73 4.73 0 0 1-3.46-1.44 4.67 4.67 0 0 1-1.42-3.3v-8a4.94 4.94 0 0 0-4.88-4.76h-4v6.4m18.64-16.21" style="stroke: #003369;"/></svg>
