<?xml version="1.0" encoding="UTF-8"?>
<svg xmlns="http://www.w3.org/2000/svg" aria-describedby="desc" aria-labelledby="title" viewBox="0 0 64 64"><path fill="none" stroke="#003369" stroke-miterlimit="10" stroke-width="2" d="M26 62h-8V20h28v42h-8" data-name="layer2" style="stroke: #003369;"/><path fill="none" stroke="#003369" stroke-miterlimit="10" stroke-width="2" d="M7 8h6v6H7zm15 0h6v6h-6zm14 0h6v6h-6zm15 0h6v6h-6zM7 20h6v6H7zm44 0h6v6h-6zM7 32h6v6H7zm44 0h6v6h-6zM7 44h6v6H7zm44 0h6v6h-6z" data-name="layer1" style="stroke: #003369;"/><path fill="none" stroke="#003369" stroke-miterlimit="10" stroke-width="2" d="M18 62H2V2h60v60H46" data-name="layer2" style="stroke: #003369;"/><path fill="none" stroke="#003369" stroke-miterlimit="10" stroke-width="2" d="M26 44h12v18H26z" data-name="layer2" style="stroke: #003369;"/><path fill="none" stroke="#003369" stroke-miterlimit="10" stroke-width="2" d="M38 30h-4v-4h-4v4h-4v4h4v4h4v-4h4v-4z" data-name="layer1" style="stroke: #003369;"/></svg>
