<?xml version="1.0" encoding="UTF-8"?>
<svg xmlns="http://www.w3.org/2000/svg" aria-describedby="desc" aria-labelledby="title" viewBox="0 0 64 64"><path fill="none" stroke="#003369" stroke-miterlimit="10" stroke-width="2" d="M40 8a4 4 0 0 1 4-4h8a4 4 0 0 1 4 4v19" data-name="layer1" style="stroke: #003369;"/><rect width="6" height="8" x="37" y="8" fill="none" stroke="#003369" stroke-miterlimit="10" stroke-width="2" data-name="layer1" rx="1" ry="1" style="stroke: #003369;"/><rect width="60" height="6" x="2" y="33" fill="none" stroke="#003369" stroke-miterlimit="10" stroke-width="2" data-name="layer2" rx="1" ry="1" style="stroke: #003369;"/><path fill="none" stroke="#003369" stroke-miterlimit="10" stroke-width="2" d="M60 33v-1a5 5 0 0 0-5-5h-5a5 5 0 0 0-5 5v1m-25 0v-2a3 3 0 0 1 3-3h15a3 3 0 0 1 3 3v2m4 6L16 55m3-16l29 16m-31 3h30" data-name="layer2" style="stroke: #003369;"/><circle cx="51" cy="58" r="4" fill="none" stroke="#003369" stroke-miterlimit="10" stroke-width="2" data-name="layer1" style="stroke: #003369;"/><circle cx="13" cy="58" r="4" fill="none" stroke="#003369" stroke-miterlimit="10" stroke-width="2" data-name="layer1" style="stroke: #003369;"/></svg>
