<?xml version="1.0" encoding="UTF-8"?>
<svg xmlns="http://www.w3.org/2000/svg" aria-describedby="desc" aria-labelledby="title" viewBox="0 0 64 64"><path fill="none" stroke="#003369" stroke-miterlimit="10" stroke-width="2" d="M26 42.3A17.2 17.2 0 0 1 18.8 32c-3 0-3.8-6.3-3.8-7.3s0-2.6 3-2.7v-3m20 23.3A17.2 17.2 0 0 0 45.2 32c3 0 3.7-6.3 3.7-7.3S49 22.1 46 22v-3" data-name="layer1" style="stroke: #003369;"/><path fill="none" stroke="#003369" stroke-miterlimit="10" stroke-width="2" d="M24 40.8V44c0 2 1 5-10 7S2 62 2 62h60s0-8.7-12-11-10-5-10-7v-3.2" data-name="layer1" style="stroke: #003369;"/><path fill="none" stroke="#003369" stroke-miterlimit="10" stroke-width="2" d="M18 18.9c6-1.2 22-1.1 28 0V8c0-4-4-6-14-6S18 4 18 8zm0-6.3c6-.7 22-.9 28 0" data-name="layer2" style="stroke: #003369;"/><path fill="none" stroke="#003369" stroke-miterlimit="10" stroke-width="2" d="M24 44a18 18 0 0 0 8 2.4 18.2 18.2 0 0 0 8-2.4m-20 5.5A14.8 14.8 0 0 0 32 56a14.8 14.8 0 0 0 12-6.5m-12-3.1V62" data-name="layer1" style="stroke: #003369;"/></svg>
