<?xml version="1.0" encoding="UTF-8"?>
<svg xmlns="http://www.w3.org/2000/svg" aria-describedby="desc" aria-labelledby="title" viewBox="0 0 64 64"><path fill="none" stroke="#003369" stroke-width="2" d="M52 17.965v22.857c0 9.467-9.582 17.143-19.049 17.143h-1.9C21.58 57.965 12 50.289 12 40.822V17.965zM52 22h1.016A8.984 8.984 0 0 1 62 30.982a8.982 8.982 0 0 1-8.982 8.982H52" data-name="layer2" style="stroke: #003369;"/><path fill="none" stroke="#003369" stroke-width="2" d="M32 13.998v-12m-12.002 12V8.002m24.004 5.996V8.002M62 60a2 2 0 0 1-2 2H4a2 2 0 0 1-2-2 2 2 0 0 1 2-2h56a2 2 0 0 1 2 2z" data-name="layer1" style="stroke: #003369;"/></svg>
