<?xml version="1.0" encoding="UTF-8"?>
<svg xmlns="http://www.w3.org/2000/svg" aria-describedby="desc" aria-labelledby="title" viewBox="0 0 64 64"><path fill="none" stroke="#003369" stroke-width="2" d="M34 49.9c2.5-2 11-9.4 15.4-18.2A20 20 0 1 0 12 21.9a19.8 19.8 0 0 0 2.6 9.8c4.4 8.9 13 16.2 15.4 18.2M32 2c-7.4 0-15.4 18.1-1.6 48M32 2c7.4 0 15.4 18.1 1.6 48" data-name="layer2" style="stroke: #003369;"/><path fill="none" stroke="#003369" stroke-width="2" d="M26 50v8.8a3.2 3.2 0 0 0 3.2 3.2h5.6a3.2 3.2 0 0 0 3.2-3.2V50z" data-name="layer1" style="stroke: #003369;"/></svg>
