<?xml version="1.0" encoding="UTF-8"?>
<svg xmlns="http://www.w3.org/2000/svg" aria-describedby="desc" aria-labelledby="title" viewBox="0 0 64 64"><path fill="none" stroke="#003369" stroke-miterlimit="10" stroke-width="2" d="M40.8 33.9a12.4 12.4 0 0 0-21.1-7.2L5.6 40.8a12.4 12.4 0 0 0 17.6 17.6l14.1-14.1a12.4 12.4 0 0 0 2.8-4.2m-6.1.8l-.2.2-13.9 13.7A7.6 7.6 0 0 1 9.2 44.1L23 30.2A7.6 7.6 0 0 1 36 36" data-name="layer2" style="stroke: #003369;"/><path fill="none" stroke="#003369" stroke-miterlimit="10" stroke-width="2" d="M23.2 30.1a12.4 12.4 0 0 0 21.1 7.2l14.1-14.1A12.4 12.4 0 0 0 40.8 5.6L26.7 19.7a12.4 12.4 0 0 0-2.8 4.2m6.1-.8l.2-.2L44.1 9.2a7.6 7.6 0 0 1 10.7 10.7L41 33.8A7.6 7.6 0 0 1 28 28" data-name="layer1" style="stroke: #003369;"/></svg>
