<?xml version="1.0" encoding="UTF-8"?>
<svg xmlns="http://www.w3.org/2000/svg" aria-describedby="desc" aria-labelledby="title" viewBox="0 0 64 64"><path fill="none" stroke="#003369" stroke-width="2" d="M46.9 14.4A11.2 11.2 0 0 0 47 13a11 11 0 0 0-19.8-6.5" data-name="layer2" style="stroke: #003369;"/><path fill="none" stroke="#003369" stroke-width="2" d="M34.4 13.5a11 11 0 1 0-16.6 12.6h.1" data-name="layer2" style="stroke: #003369;"/><path fill="none" stroke="#003369" stroke-width="2" d="M41 24H17.1l.8 2.1L32 62l12.2-28.1" data-name="layer1" style="stroke: #003369;"/><path fill="none" stroke="#003369" stroke-width="2" d="M41 24v6a4 4 0 0 0 3.2 3.9h.8a4 4 0 0 0 4-4V23h2a11 11 0 0 0-22 0v1" data-name="layer1" style="stroke: #003369;"/></svg>
