<?xml version="1.0" encoding="UTF-8"?>
<svg xmlns="http://www.w3.org/2000/svg" aria-describedby="desc" aria-labelledby="title" viewBox="0 0 64 64"><path fill="none" stroke="#003369" stroke-width="2" d="M8 48v11.4a2.6 2.6 0 0 0 2.6 2.6h42.8a2.6 2.6 0 0 0 2.6-2.6V48z" data-name="layer2" style="stroke: #003369;"/><path fill="none" stroke="#003369" stroke-width="2" d="M56 48V2H8v46" data-name="layer1" style="stroke: #003369;"/><path fill="none" stroke="#003369" stroke-width="2" d="M31.7 20.5l-4.3-7.4a2.1 2.1 0 0 0-2.9-.8l-7.4 4.3a2.1 2.1 0 0 0-.8 2.9l4.3 7.4a2.1 2.1 0 0 0 2.9.8l7.4-4.3a2.1 2.1 0 0 0 .8-2.9zm.6 14l4.3-7.4a2.1 2.1 0 0 1 2.9-.8l7.4 4.3a2.1 2.1 0 0 1 .8 2.9l-4.3 7.4a2.1 2.1 0 0 1-2.9.8l-7.4-4.3a2.1 2.1 0 0 1-.8-2.9z" data-name="layer1" style="stroke: #003369;"/></svg>
