<?xml version="1.0" encoding="UTF-8"?>
<svg xmlns="http://www.w3.org/2000/svg" aria-describedby="desc" aria-labelledby="title" viewBox="0 0 64 64"><path fill="none" stroke="#003369" stroke-width="2" d="M19.1 29.8L32 62l13.4-34" data-name="layer2" style="stroke: #003369;"/><path fill="none" stroke="#003369" stroke-width="2" d="M32 2a18 18 0 0 0-18 18v6a4 4 0 1 0 8 0v-2a4 4 0 1 1 8 0v6a4 4 0 1 0 8 0v-6a2 2 0 0 1 4 0 4 4 0 0 0 8 0v-4A18 18 0 0 0 32 2z" data-name="layer1" style="stroke: #003369;"/></svg>
