<?xml version="1.0" encoding="UTF-8"?>
<svg xmlns="http://www.w3.org/2000/svg" aria-describedby="desc" aria-labelledby="title" viewBox="0 0 64 64"><path fill="none" stroke="#003369" stroke-miterlimit="10" stroke-width="2" d="M30 46.9c-4-.9-4-2.3-4-3.3v-1.5a9.3 9.3 0 0 0 2.9-6.9v-4.5A6.8 6.8 0 0 0 22 24a6.8 6.8 0 0 0-7 6.7v4.5a9.3 9.3 0 0 0 3 6.9v1.5c0 .9 0 2.4-4.2 3.3S10 52 10 52h24a5.1 5.1 0 0 0-4-5.1z" data-name="layer2" style="stroke: #003369;"/><path fill="none" stroke="#003369" stroke-miterlimit="10" stroke-width="2" d="M36 10h26v50H2V10h26" data-name="layer1" style="stroke: #003369;"/><path fill="none" stroke="#003369" stroke-miterlimit="10" stroke-width="2" d="M28 4h8v12h-8z" data-name="layer2" style="stroke: #003369;"/><path fill="none" stroke="#003369" stroke-miterlimit="10" stroke-width="2" d="M38 24h16m-16 8h10m-10 8h14" data-name="layer1" style="stroke: #003369;"/></svg>
