<?xml version="1.0" encoding="UTF-8"?>
<svg xmlns="http://www.w3.org/2000/svg" viewBox="0 0 64 64"><g fill="#003369"><path d="M48.23 51.4H15.77c-.92 0-3.73 0-3.73-2.73v-2.58h39.92v2.58c0 2.73-2.81 2.73-3.73 2.73zm-34.19-3.31v.58c0 .41 0 .73 1.73.73h32.46c1.73 0 1.73-.32 1.73-.73v-.58H14.04z" style="fill: #003369;"/><path d="M14.04 48.41L.89 44.64V6.65l13.15 3.89v37.87zM2.89 43.13l9.15 2.63V12.04L2.89 9.33v33.8zM49.96 48.41V10.54l13.15-3.89v37.99l-13.15 3.77zm2-36.37v33.72l9.15-2.63V9.33l-9.15 2.71z" style="fill: #003369;"/><path d="M13.04 10.29h37.92v2H13.04zM32.17 48.09H16.3V34.3h15.87v13.79zm-13.87-2h11.87V36.3H18.3v9.79z" style="fill: #003369;"/><path d="M45.84 48.09H30.17V34.3h15.67v13.79zm-13.67-2h11.67V36.3H32.17v9.79z" style="fill: #003369;"/><path d="M39.37 36.29H24.43V22.5h14.94v13.79zm-12.94-2h10.94V24.5H26.43v9.79z" style="fill: #003369;"/></g><path fill="#003369" d="M21.78 57.01h-6.42v-6.83h6.42v6.83zm-4.42-2h2.42v-2.83h-2.42v2.83zM48.3 57.01h-6.42v-6.83h6.42v6.83zm-4.42-2h2.42v-2.83h-2.42v2.83zM39.69 35.59l-1.93-.52c.03-.1.68-2.51 3.33-2.98.63-.11.94-.23 1.08-.31-.35-.44-.57-.95-.73-1.43-.77-.52-.96-1.75-.96-2.25 0-.25 0-.97.49-1.49-.16-.97-.18-2.22.45-3.04.29-.37.68-.6 1.13-.68 1.74-1.09 3.86-1.13 5.25-.07 1.12.86 1.56 2.25 1.24 3.84.45.51.44 1.2.44 1.43 0 .65-.27 1.81-1.02 2.29-.21.49-.49.94-.85 1.33.15.09.5.24 1.22.38a3.99 3.99 0 0 1 3.16 3l-1.95.46c-.18-.77-.8-1.36-1.58-1.5-1.27-.24-2.95-.76-2.95-2.42v-.7l.34-.3c.41-.35.71-.82.87-1.34l.21-.71h.44c.04-.14.08-.32.1-.46h-1.03l.47-1.33c.39-1.08.27-1.93-.34-2.39-.65-.49-1.93-.56-3.12.27l-.26.18h-.24c-.1.23-.18.92.1 2.03l.31 1.24h-.89c.01.13.05.32.09.46H43l.2.73c.13.48.33 1.07.66 1.36l.34.3v.7c.01 1.33-.81 2.02-2.77 2.38-1.37.25-1.74 1.48-1.75 1.53z" style="fill: #003369;"/><path fill="#003369" d="M37.01 24.6l-.35-1.97c.4-.07.64-.15.79-.2-.26-.36-.43-.76-.56-1.14-.62-.45-.87-1.4-.87-2.05 0-.23 0-.86.42-1.35-.13-.87-.14-1.98.43-2.71.27-.34.63-.56 1.05-.64 1.57-.98 3.49-1.01 4.74-.05 1.01.77 1.42 2.02 1.15 3.44.38.48.38 1.08.38 1.29 0 .48-.19 1.63-.93 2.11-.17.38-.38.73-.64 1.04.16.07.44.17.91.26l-.38 1.96c-1.15-.22-2.69-.69-2.69-2.24v-.67l.34-.3c.34-.3.59-.69.73-1.12l.21-.71h.39c.01-.05.03-.11.04-.16h-.94l.47-1.33c.19-.52.4-1.47-.26-1.98-.54-.41-1.6-.46-2.61.24l-.26.18h-.17c-.06.24-.09.8.12 1.64l.31 1.24h-.8c0 .05.02.11.04.16h.39l.2.73c.1.38.27.9.54 1.14l.34.3v.67c.02 1.56-1.35 2-2.54 2.21zM13.94 36.75l-.35-1.97c1.11-.2 1.48-.64 1.6-.85-.34-.44-.56-.94-.72-1.42-.77-.52-.96-1.75-.96-2.25 0-.25 0-.97.48-1.49-.16-.97-.18-2.22.45-3.03.29-.37.68-.6 1.13-.68 1.74-1.09 3.86-1.13 5.25-.07 1.12.86 1.56 2.25 1.24 3.83.44.51.44 1.19.44 1.43 0 .65-.26 1.81-1.02 2.29-.21.49-.49.94-.84 1.33.15.09.5.24 1.21.38l-.38 1.96c-1.26-.24-2.94-.76-2.94-2.41v-.7l.34-.3c.41-.35.71-.81.86-1.33l.21-.71h.44c.04-.14.08-.32.1-.45h-1.03l.47-1.33c.38-1.08.26-1.93-.34-2.39-.65-.49-1.92-.56-3.11.27l-.26.18h-.24c-.1.23-.17.92.1 2.03l.31 1.24h-.89c.01.13.05.32.09.45h.44l.2.73c.13.48.33 1.07.66 1.35l.34.3v.7c0 .8-.69 2.44-3.3 2.91z" style="fill: #003369;"/><path fill="#003369" d="M18.3 30.25c-1.11 0-2.32-.24-3.58-.71l.7-1.87c1.9.71 3.56.77 4.82.18l.85 1.81c-.84.39-1.77.59-2.79.59zM40.67 19.14c-1.99 0-3.65-.74-3.75-.78l.82-1.82s2.57 1.13 4.64.3l.74 1.86c-.82.33-1.67.45-2.46.45zM45.21 27.49c-1.24 0-2.44-.33-3.59-1l1-1.73c.56.33 2.27 1.31 4.9.23l.76 1.85c-1.05.43-2.08.65-3.08.65z" style="fill: #003369;"/></svg>
