<?xml version="1.0" encoding="UTF-8"?>
<svg xmlns="http://www.w3.org/2000/svg" data-name="Layer 1" viewBox="0 0 64 64"><defs><clipPath id="a"><path fill="none" d="M41.3 6.26h19v13h-19z"/></clipPath></defs><path fill="none" stroke="#003369" stroke-miterlimit="10" stroke-width="2" d="M40.71 31.76v8.01M43.83 31.76v8.01M37.59 31.76v8.01M34.5 30.11h12.42v11.33H34.5zM33.7 48.07v8.01M36.83 48.07v8.01M30.58 48.07v8.01M27.5 46.42h12.42v11.33H27.5zM46.13 48.07v8.01M49.25 48.07v8.01M43 48.07v8.01M39.92 46.42h12.42v11.33H39.92zM9.55 57.74h19M19.05 14.5v39.55" style="stroke: #003369;"/><path fill="none" stroke="#003369" stroke-miterlimit="10" stroke-width="2" d="M40.72 38.74V19.77H13.68M41.3 19.71L19.05 14.5l-5.37 1.79M13.68 57.74v-3.69h10.53v3.69" style="stroke: #003369;"/><path fill="none" stroke="#003369" stroke-miterlimit="10" stroke-width="2" d="M3.7 16.23h10.27v7.06H3.7z" style="stroke: #003369;"/><g fill="none" stroke="#003369" stroke-miterlimit="10" stroke-width="2" clip-path="url(#a)"><path d="M46.3 16.17l-3.79-3.42 1.56-1 2.23 1 2.55-1.3 7.63-3.88s1.82-1.07 2.7-.28.16 1.38-.59 1.88-3.58 2-3.58 2l-2.64 5.93-1.91 1-.53-4.06z" style="fill: #003369;"/><path d="M54.04 8.84l-4.09-.31-2.11 1.17 1.38 1.59" style="fill: #003369;"/></g></svg>
