<?xml version="1.0" encoding="UTF-8"?>
<svg xmlns="http://www.w3.org/2000/svg" aria-describedby="desc" aria-labelledby="title" viewBox="0 0 64 64"><path fill="none" stroke="#003369" stroke-miterlimit="10" stroke-width="2" d="M19 20h16M19 36h16m-16-8h12M19 44h12m12-24h2m-2 16h2m-2-8h2m-2 16h2" data-name="layer2" style="stroke: #003369;"/><path fill="none" stroke="#003369" stroke-miterlimit="10" stroke-width="2" d="M23 2zm12 0zm11.9 0zM53 8l-6.1-6L41 6l-6-4-6 4-6-4-6 4-6-4v54l6.1 6 5.9-4 6 4 6-4 6 4 6-4 6 4V8zM41 62zm-12 0zm-11.9 0z" data-name="layer1" style="stroke: #003369;"/></svg>
