<?xml version="1.0" encoding="UTF-8"?>
<svg xmlns="http://www.w3.org/2000/svg" aria-describedby="desc" aria-labelledby="title" viewBox="0 0 64 64"><path fill="none" stroke="#003369" stroke-miterlimit="10" stroke-width="2" d="M26 10a8 8 0 0 1 8-8 8 8 0 0 1 8 8v39a7 7 0 0 0 7 7 7.1 7.1 0 0 0 7-7.5V18" data-name="layer1" style="stroke: #003369;"/><rect width="32" height="52" x="2" y="10" fill="none" stroke="#003369" stroke-miterlimit="10" stroke-width="2" data-name="layer2" rx="2" ry="2" style="stroke: #003369;"/><circle cx="18" cy="46" r="8" fill="none" stroke="#003369" stroke-miterlimit="10" stroke-width="2" data-name="layer2" style="stroke: #003369;"/><path fill="none" stroke="#003369" stroke-miterlimit="10" stroke-width="2" d="M2 30h32" data-name="layer2" style="stroke: #003369;"/><path fill="none" stroke="#003369" stroke-miterlimit="10" stroke-width="2" d="M53 31h-3v6h3a3 3 0 0 0 0-6zm6-16h3v6h-3a3 3 0 0 1 0-6z" data-name="layer1" style="stroke: #003369;"/></svg>
