<?xml version="1.0" encoding="UTF-8"?>
<svg xmlns="http://www.w3.org/2000/svg" viewBox="0 0 64 64"><g fill="#003369"><path d="M14.48 54.81c-1.55 0-3.21-.48-4.89-1.44-2.73-1.57-5.19-4.25-6.91-7.54C.95 42.54.14 38.99.41 35.86c.28-3.3 1.7-5.79 4-7s5.15-.96 8.03.69c2.73 1.57 5.19 4.25 6.91 7.54 1.73 3.29 2.54 6.84 2.27 9.97-.28 3.3-1.7 5.79-4 7-.96.51-2.02.76-3.14.76zm-6.93-24.7c-.8 0-1.55.17-2.22.53-1.68.88-2.72 2.79-2.94 5.39-.23 2.76.5 5.92 2.05 8.88 1.55 2.96 3.73 5.35 6.14 6.73 2.26 1.3 4.43 1.53 6.1.65 1.68-.88 2.72-2.79 2.94-5.39.23-2.76-.5-5.92-2.05-8.88-1.55-2.96-3.73-5.35-6.14-6.73-1.36-.78-2.68-1.17-3.89-1.17z" style="fill: #003369;"/><path d="M9.17 39.53c-2.21-1.44-3.95-5.33-4.03-7.84l2-.06c.06 1.92 1.51 5.18 3.12 6.23l-1.09 1.67zM11.02 39.2c-.61-1.61-.52-4.95.17-6.62l1.85.77c-.49 1.18-.57 4.02-.15 5.15l-1.87.71zM14.2 41.09l-1.58-1.23c1.07-1.37 3.01-2.04 4.34-2.19l.23 1.99c-1.21.14-2.44.73-2.99 1.43zM17.04 51.52l-1.99-.2c.12-1.19-.21-2.93-.71-3.81-.14-.25-.25-.45-.35-.64-.33-.62-.43-.8-1.07-1.32L14.18 44c.91.74 1.17 1.17 1.58 1.93.09.17.19.36.32.59.81 1.41 1.1 3.63.97 5.01zM11.79 50.98l-1.84-.79c.83-1.91.96-3.65.4-5.19l1.88-.68c.73 2 .58 4.31-.44 6.67zM8.37 42c-2.66 0-3.99-1.55-5.33-3.43l1.63-1.16c1.32 1.85 2.16 2.71 4.05 2.58l.13 2c-.16.01-.32.02-.48.02z" style="fill: #003369;"/><path d="M17.63 54.06l-.93-1.77 2.82-1.48c3.62-1.9 4.06-8.21.99-14.06-3.14-5.98-8.8-9.46-12.35-7.59l-2.82 1.48-.93-1.77 2.82-1.48c4.6-2.41 11.35 1.37 15.05 8.44 3.64 6.95 2.84 14.31-1.83 16.76l-2.82 1.48z" style="fill: #003369;"/><path d="M18.38 46.46c-1.51-1.37-2.68-2.18-4.16-2.31l.17-1.99c2.25.2 3.87 1.5 5.33 2.82l-1.34 1.49zM7.4 47.92L6.23 46.3l.17-.12c1.19-.86 1.51-1.09 1.88-2.09l1.88.69c-.58 1.58-1.3 2.09-2.59 3.02l-.17.12z" style="fill: #003369;"/><path d="M13.43 45.78h-.15l-5.03-.42c-.54-.05-1.02-.33-1.29-.78s-.31-.99-.11-1.5l1.96-4.82c.21-.51.63-.91 1.17-1.09.51-.17 1.05-.13 1.48.12 3.38 1.95 3.88 4.97 3.88 6.59 0 .52-.23 1.03-.62 1.39-.35.33-.82.51-1.29.51zM8.88 43.4l4.46.37c-.02-1.41-.53-3.31-2.72-4.65L8.88 43.4zM49.39 25.69c-.64 0-1.32-.19-1.99-.58-1.05-.6-2.02-1.61-2.74-2.85-1.6-2.78-1.43-5.78.4-6.83.94-.55 2.17-.47 3.38.22 1.05.6 2.02 1.61 2.74 2.85 1.6 2.78 1.43 5.78-.4 6.83-.42.24-.89.36-1.38.36zm-2.94-8.63c-.15 0-.28.03-.39.09-.7.41-.71 2.29.34 4.1.53.93 1.26 1.7 2 2.12.57.32 1.07.41 1.39.22.7-.41.71-2.29-.34-4.1-.53-.93-1.26-1.7-2-2.12-.37-.21-.71-.32-.99-.32zM23.26 40.35l-1.04-1.71 1.59-.96c.09-.06.18-.52-.08-1.44-.3-1.04-.95-2.34-1.85-3.68-.85-1.27-1.79-2.29-2.64-2.89-.61-.42-1.15-.6-1.38-.44l-.14.08-2.06.94-.83-1.82 2-.91c.6-.36 1.79-.71 3.55.51 1.05.73 2.18 1.95 3.16 3.41 1.01 1.51 1.76 3.01 2.11 4.25.63 2.19-.07 3.21-.77 3.68l-1.63.99z" style="fill: #003369;"/><path d="M11.33 28.59l-.85-1.81L49.29 8.61l-.05 4.1 4.03.68-.23 2.94 4.93.32.07 3.07 4.47.6-.27 1.98-6.16-.83-.07-2.95-5.12-.32.24-3.14-3.91-.67.03-2.62-35.92 16.82z" style="fill: #003369;"/><path d="M23.16 49.65l-.97-1.75 36.39-20.22c1.35-1.33 2.06-3.14 2.43-4.51L23.86 43.09l-.95-1.76 40.6-21.77-.14 1.82c-.02.2-.41 4.89-3.51 7.83l-.2.15-36.5 20.29zM35.91 33.77l-.34-1.22c-.02-.07-2.04-7.24-5.57-10.05l-1.25-1 7-3.34.5.43c.2.17 4.87 4.33 5.85 10.99l.1.68-6.28 3.5zm-3.54-11.78c2.47 2.67 4.06 6.79 4.75 8.82l2.88-1.6c-.85-4.4-3.53-7.53-4.61-8.65L32.38 22z" style="fill: #003369;"/><path d="M18.988 27.704l12.217-5.93.873 1.8-12.217 5.93zM24.396 36.783l11.47-6.055.934 1.769-11.47 6.055zM18.425 31.637l14.682-7.24.884 1.794-14.682 7.24zM20.63 34.826l14.067-7.239.915 1.779-14.066 7.238zM37.273 20.869l10.502-5.066.869 1.802-10.502 5.065zM39.155 23.991l10.989-5.345.875 1.798L40.03 25.79zM40.322 27.229l10.462-5.37.914 1.779-10.463 5.37z" style="fill: #003369;"/><path d="M29.13 38.79c-2.32-12.63-10.41-13.62-10.75-13.65l.19-1.99c.4.04 9.92 1.1 12.53 15.28l-1.97.36z" style="fill: #003369;"/><path d="M32.87 36.85C29.5 23.52 22.71 23.17 22.64 23.17l.06-2c.34 0 8.37.4 12.11 15.19l-1.94.49zM45.31 30.22c-3.59-12.52-9.47-13.23-9.52-13.23l.12-2c.3.02 7.29.61 11.32 14.68l-1.92.55zM49.88 27.73c-3.59-12.52-8.81-13.18-8.87-13.18l.14-1.99c.27.02 6.62.56 10.65 14.63l-1.92.55z" style="fill: #003369;"/></g><path fill="#003369" d="M37.97 31.11c-1.52-6.47-5.38-9.9-5.42-9.93l1.32-1.51c.18.16 4.38 3.89 6.05 10.98l-1.95.46z" style="fill: #003369;"/></svg>
