<?xml version="1.0" encoding="UTF-8"?>
<svg xmlns="http://www.w3.org/2000/svg" aria-describedby="desc" aria-labelledby="title" viewBox="0 0 64 64"><path fill="none" stroke="#003369" stroke-width="2" d="M21.7 8C15.2 6.1 9 7.5 9 20s7.9 17 7.9 17" data-name="layer2" style="stroke: #003369;"/><path fill="none" stroke="#003369" stroke-width="2" d="M50.1 30c-1.7-3.6-3.1-7-3.1-10 0-8 3.1-13.1 4-14s-4.1-4.3-6.9-4-5 2-11.1 2H21c.3 2.8 2 8 2 16 0 2.2-1.6 5.9-3.3 10" data-name="layer2" style="stroke: #003369;"/><path fill="none" stroke="#003369" stroke-width="2" d="M19.7 30C17.5 35.2 15 41.2 15 46c0 8.6 5.3 14.4 10 16h20a17.4 17.4 0 0 0 10-16c0-5.7-2.7-11.1-4.9-16z" data-name="layer1" style="stroke: #003369;"/></svg>
