<?xml version="1.0" encoding="UTF-8"?>
<svg xmlns="http://www.w3.org/2000/svg" aria-describedby="desc" aria-labelledby="title" viewBox="0 0 64 64"><rect width="60" height="36" x="2" y="14" fill="none" stroke="#003369" stroke-width="2" data-name="layer1" rx="2" ry="2" style="stroke: #003369;"/><path fill="none" stroke="#003369" stroke-width="2" d="M10 20h4v4h-4z" data-name="layer2" style="stroke: #003369;"/><path fill="none" stroke="#003369" stroke-width="2" d="M20 20h4v4h-4zm10 0h4v4h-4zm10 0h4v4h-4zm10 0h4v4h-4zM10 30h4v4h-4zm0 10h4v4h-4z" data-name="layer1" style="stroke: #003369;"/><path fill="none" stroke="#003369" stroke-width="2" d="M20 40h34v4H20z" data-name="layer2" style="stroke: #003369;"/><path fill="none" stroke="#003369" stroke-width="2" d="M20 30h4v4h-4zm10 0h4v4h-4zm10 0h4v4h-4zm10 0h4v4h-4z" data-name="layer1" style="stroke: #003369;"/></svg>
