<?xml version="1.0" encoding="UTF-8"?>
<svg xmlns="http://www.w3.org/2000/svg" aria-describedby="desc" aria-labelledby="title" viewBox="0 0 64 64"><path fill="none" stroke="#003369" stroke-width="2" d="M31 26v-1.3a6.7 6.7 0 0 1 6.7-6.7H55a6 6 0 0 0 6-6 6 6 0 0 0-6-6H27a4 4 0 0 1-4-4" data-name="layer2" style="stroke: #003369;"/><rect width="58" height="36" x="3" y="26" fill="none" stroke="#003369" stroke-width="2" data-name="layer1" rx="2" ry="2" style="stroke: #003369;"/><path fill="none" stroke="#003369" stroke-width="2" d="M10 32h4v4h-4zm10 0h4v4h-4zm10 0h4v4h-4zm10 0h4v4h-4zm10 0h4v4h-4zM10 42h4v4h-4zm0 10h4v4h-4zm10 0h34v4H20zm0-10h4v4h-4zm10 0h4v4h-4zm10 0h4v4h-4zm10 0h4v4h-4z" data-name="layer1" style="stroke: #003369;"/></svg>
