<?xml version="1.0" encoding="UTF-8"?>
<svg xmlns="http://www.w3.org/2000/svg" data-name="Layer 1" viewBox="0 0 64 64"><path fill="#003369" d="M61.35 38.9H54.7v-2h4.65v-5H47.21v-5.66h-1.28v12.58H29.28v-2h14.65V20.59H20.69v16.23H24v2h-5.31V18.59h27.24v5.65h7.93L57 29.89h2.26a1.94 1.94 0 0 1 2.13 2zm-1.92-7zm-10.22-2h5.46l-2-3.65h-3.46z" style="fill: #003369;"/><path fill="#003369" d="M26.66 45.41a4.82 4.82 0 1 1 4.82-4.82 4.82 4.82 0 0 1-4.82 4.82zm0-7.64a2.82 2.82 0 1 0 2.82 2.82 2.82 2.82 0 0 0-2.82-2.82zM51.75 45.41a4.82 4.82 0 1 1 4.82-4.82 4.82 4.82 0 0 1-4.82 4.82zm0-7.64a2.82 2.82 0 1 0 2.82 2.82 2.82 2.82 0 0 0-2.82-2.82zM3.65 35.29h12.48v2H3.65zM9.88 29.05h6.25v2H9.88z" style="fill: #003369;"/><path fill="#003369" d="M43.9 36.84h5.46v2H43.9zM32.29 23.75a4.65 4.65 0 0 0-3.56 7.7l.61-.61a3.76 3.76 0 0 1-.87-2.44 3.83 3.83 0 1 1 6.78 2.44l.61.61a4.65 4.65 0 0 0-3.57-7.7zm.42 8.55V29h.8v-.6h-.8v-.5a1 1 0 0 0 .66-.93 1.08 1.08 0 1 0-2.15 0 1 1 0 0 0 .66.93v.49h-.81V29h.81v3.29a3.3 3.3 0 0 1-2-.91l-.58.62a4.65 4.65 0 0 0 6 0l-.58-.62a3.34 3.34 0 0 1-2.01.92zm-.42-4.88a.46.46 0 0 1-.46-.47.47.47 0 1 1 .93 0 .45.45 0 0 1-.44.46z" style="fill: #003369;"/><path fill="#003369" d="M32.29 33.23a4.61 4.61 0 0 1-3.08-1.14l-.1-.08.75-.81.09.09a3.27 3.27 0 0 0 1.8.86v-3H31v-.86h.8V28a1.12 1.12 0 0 1-.66-1 1.2 1.2 0 0 1 2.4 0 1.09 1.09 0 0 1-.66 1v.28h.81v.86h-.81v3a3.22 3.22 0 0 0 1.8-.87l.09-.09.76.81-.1.08a4.62 4.62 0 0 1-3.14 1.16zM29.47 32a4.53 4.53 0 0 0 5.65 0l-.41-.43a3.49 3.49 0 0 1-2 .86h-.14v-3.55h.81v-.36h-.81v-.71h.09a.84.84 0 0 0 .57-.82 1 1 0 1 0-1.9 0 .86.86 0 0 0 .58.81h.08v.71h-.8v.36H32v3.55h-.13a3.54 3.54 0 0 1-2-.86zm6.4-.35l-.79-.79.07-.09a3.71 3.71 0 1 0-6.56-2.36 3.74 3.74 0 0 0 .84 2.36l.07.09-.78.79-.09-.1a4.81 4.81 0 1 1 8.49-3.14A4.79 4.79 0 0 1 36 31.54zm-.45-.81l.43.44a4.56 4.56 0 1 0-8.14-2.87 4.51 4.51 0 0 0 1 2.87l.43-.44a4 4 0 1 1 6.25 0zm-3.1-3.28a.6.6 0 0 1-.42-.18.59.59 0 0 1-.2-.38.58.58 0 0 1 .18-.41.58.58 0 0 1 .41-.17.59.59 0 0 1 .58.59.58.58 0 0 1-.56.59zm0-.25a.32.32 0 0 0 .31-.34.34.34 0 0 0-.33-.34.33.33 0 0 0-.3.37.35.35 0 0 0 .29.3z" style="fill: #003369;"/></svg>
