<?xml version="1.0" encoding="UTF-8"?>
<svg xmlns="http://www.w3.org/2000/svg" data-name="Layer 1" viewBox="0 0 64 64"><path fill="#003369" d="M60.17 40.89h-8.54v-2h6.54v-7.06c0-.16 0-.32-.67-.32H42V24h-2.43v16.78H17.64v-2h19.93V16.42H5.83v22.36h4.78v2H3.83V14.42h35.74V22H50.3l4.14 7.55h3.23a2.28 2.28 0 0 1 2.5 2.31zM44 29.51h8.21l-3-5.55H44z" style="fill: #003369;"/><path fill="#003369" d="M14.14 49.58a6.1 6.1 0 1 1 6.1-6.1 6.1 6.1 0 0 1-6.1 6.1zm0-10.2a4.1 4.1 0 1 0 4.1 4.1 4.11 4.11 0 0 0-4.1-4.1zM47.69 49.58a6.1 6.1 0 1 1 6.1-6.1 6.11 6.11 0 0 1-6.1 6.1zm0-10.2a4.1 4.1 0 1 0 4.1 4.1 4.11 4.11 0 0 0-4.1-4.1z" style="fill: #003369;"/><path fill="#003369" d="M37.18 38.8h7.3v2h-7.3zM21.68 20a7 7 0 0 0-5.37 11.62l.92-.92a5.77 5.77 0 1 1 8.91 0l.92.92A7 7 0 0 0 21.68 20zm.63 12.89v-5h1.21V27h-1.21v-.75a1.46 1.46 0 0 0 1-1.41 1.62 1.62 0 0 0-3.24 0 1.48 1.48 0 0 0 1 1.41V27h-1.23v.92h1.22v5a5 5 0 0 1-3-1.37l-.87.93a7 7 0 0 0 9.07 0l-.88-.93a5.11 5.11 0 0 1-3.07 1.34zm-.64-7.35a.7.7 0 0 1-.69-.71.7.7 0 0 1 1.4 0 .67.67 0 0 1-.66.7z" style="fill: #003369;"/><path fill="#003369" d="M21.68 34.23a6.9 6.9 0 0 1-4.61-1.7l-.1-.08L18 31.33l.09.09a5 5 0 0 0 2.82 1.33v-4.7h-1.19v-1.17h1.21v-.53a1.6 1.6 0 0 1-1-1.5 1.75 1.75 0 0 1 3.49 0 1.61 1.61 0 0 1-1 1.5v.53h1.22v1.17h-1.21v4.7a5 5 0 0 0 2.82-1.33l.09-.09 1.06 1.12-.1.08a6.94 6.94 0 0 1-4.62 1.7zm-4.35-1.8a6.89 6.89 0 0 0 8.71 0l-.71-.75a5.14 5.14 0 0 1-3 1.33h-.14V27.8h1.21v-.67h-1.22v-.95h.08a1.36 1.36 0 0 0 .92-1.3 1.5 1.5 0 0 0-3 0 1.34 1.34 0 0 0 .91 1.29h.08v1H20v.67h1.21V33h-.13a5.17 5.17 0 0 1-3-1.33zm9.73-.63L26 30.71l.07-.09a5.64 5.64 0 1 0-8.72 0l.07.09-1.12 1.09-.09-.1a7.22 7.22 0 1 1 10.94 0zm-5.38-11.68a6.89 6.89 0 0 0-5.37 11.31l.75-.74A5.91 5.91 0 1 1 27.58 27a6 6 0 0 1-1.27 3.68l.74.74a6.89 6.89 0 0 0-5.37-11.31zm0 5.55a.83.83 0 0 1 0-1.66.84.84 0 0 1 .82.83.82.82 0 0 1-.79.83zm0-.25a.57.57 0 0 0 .54-.58.59.59 0 0 0-.57-.58.58.58 0 0 0 0 1.16z" style="fill: #003369;"/></svg>
