<?xml version="1.0" encoding="UTF-8"?>
<svg xmlns="http://www.w3.org/2000/svg" aria-describedby="desc" aria-labelledby="title" viewBox="0 0 64 64"><path fill="none" stroke="#003369" stroke-miterlimit="10" stroke-width="2" d="M20 9v32a4.012 4.012 0 0 1-4 4 4.012 4.012 0 0 1-4-4V9" data-name="layer1" style="stroke: #003369;"/><rect width="60" height="7" x="2" y="51" fill="none" stroke="#003369" stroke-miterlimit="10" stroke-width="2" data-name="layer2" rx="1" ry="1" style="stroke: #003369;"/><path fill="none" stroke="#003369" stroke-miterlimit="10" stroke-width="2" d="M6 21v30m52-30v30m-6-30h10m-26 0h8m-24 0h8M2 21h10" data-name="layer2" style="stroke: #003369;"/><path fill="none" stroke="#003369" stroke-miterlimit="10" stroke-width="2" d="M36 9v32a4.012 4.012 0 0 1-4 4 4.012 4.012 0 0 1-4-4V9m-2 0h12M10 9h12m30 0v32a4.012 4.012 0 0 1-4 4 4.012 4.012 0 0 1-4-4V9m-2 0h12M28 30.083h8M44 25h8m-40-7h8" data-name="layer1" style="stroke: #003369;"/></svg>
