<?xml version="1.0" encoding="UTF-8"?>
<svg xmlns="http://www.w3.org/2000/svg" data-name="Layer 1" viewBox="0 0 64 64"><path fill="none" stroke="#003369" stroke-miterlimit="10" stroke-width="2" d="M50.78 29.39a18.86 18.86 0 1 0-27.09 17v10.49a2.86 2.86 0 0 0 2.85 2.85H37.3a2.86 2.86 0 0 0 2.85-2.85V46.34a18.84 18.84 0 0 0 10.63-16.95zM23.69 54.99h16.46M23.69 50.59h16.46" style="stroke: #003369;"/><path fill="none" stroke="#003369" stroke-miterlimit="10" stroke-width="2" d="M31.92 62.72a3 3 0 0 0 3-3h-6a3 3 0 0 0 3 3zM31.92 8V1.28M53.35 28.63h6.72M47.68 14.49l4.76-4.75M47.71 43.4l4.36 5.13M10.65 28.63H3.93M16.32 14.49l-4.76-4.75M16.29 43.4l-4.36 5.13M37.3 17.34a14.27 14.27 0 0 1 8 9.75" style="stroke: #003369;"/></svg>
