<?xml version="1.0" encoding="UTF-8"?>
<svg xmlns="http://www.w3.org/2000/svg" aria-describedby="desc" aria-labelledby="title" viewBox="0 0 64 64"><path fill="none" stroke="#003369" stroke-miterlimit="10" stroke-width="2" d="M52 26.3V53a6 6 0 0 1-6 6H18a6 6 0 0 1-6-6V26.3" data-name="layer2" style="stroke: #003369;"/><rect width="4" height="4" x="20" y="30" fill="none" stroke="#003369" stroke-miterlimit="10" stroke-width="2" data-name="layer2" rx="1" ry="1" style="stroke: #003369;"/><rect width="4" height="4" x="30" y="30" fill="none" stroke="#003369" stroke-miterlimit="10" stroke-width="2" data-name="layer2" rx="1" ry="1" style="stroke: #003369;"/><rect width="4" height="4" x="40" y="30" fill="none" stroke="#003369" stroke-miterlimit="10" stroke-width="2" data-name="layer2" rx="1" ry="1" style="stroke: #003369;"/><rect width="4" height="4" x="20" y="39" fill="none" stroke="#003369" stroke-miterlimit="10" stroke-width="2" data-name="layer2" rx="1" ry="1" style="stroke: #003369;"/><rect width="4" height="4" x="30" y="39" fill="none" stroke="#003369" stroke-miterlimit="10" stroke-width="2" data-name="layer2" rx="1" ry="1" style="stroke: #003369;"/><rect width="4" height="4" x="40" y="39" fill="none" stroke="#003369" stroke-miterlimit="10" stroke-width="2" data-name="layer2" rx="1" ry="1" style="stroke: #003369;"/><rect width="4" height="4" x="20" y="48" fill="none" stroke="#003369" stroke-miterlimit="10" stroke-width="2" data-name="layer2" rx="1" ry="1" style="stroke: #003369;"/><rect width="4" height="4" x="30" y="48" fill="none" stroke="#003369" stroke-miterlimit="10" stroke-width="2" data-name="layer2" rx="1" ry="1" style="stroke: #003369;"/><rect width="4" height="4" x="40" y="48" fill="none" stroke="#003369" stroke-miterlimit="10" stroke-width="2" data-name="layer2" rx="1" ry="1" style="stroke: #003369;"/><path fill="none" stroke="#003369" stroke-miterlimit="10" stroke-width="2" d="M17.8 24.7a3.9 3.9 0 0 0 3-4.4c-.3-3-1.4-7.3 11.2-7.3s11.5 4.3 11.2 7.3a3.9 3.9 0 0 0 3 4.4l9.9 2c1.3.2 3.2.8 4.6-1.1a11.4 11.4 0 0 0-2-13.4C53.5 7.2 43.1 5 32 5S10.5 7.2 5.3 12.3a11.4 11.4 0 0 0-2 13.4c1.4 1.8 3.3 1.3 4.6 1.1z" data-name="layer1" style="stroke: #003369;"/></svg>
