<?xml version="1.0" encoding="UTF-8"?>
<svg xmlns="http://www.w3.org/2000/svg" aria-describedby="desc" aria-labelledby="title" viewBox="0 0 64 64"><path fill="none" stroke="#003369" stroke-miterlimit="10" stroke-width="2" d="M32 16v40m-10 0h20M28 12H12L2 32" data-name="layer2" style="stroke: #003369;"/><circle cx="32" cy="12" r="4" fill="none" stroke="#003369" stroke-miterlimit="10" stroke-width="2" data-name="layer2" style="stroke: #003369;"/><path fill="none" stroke="#003369" stroke-miterlimit="10" stroke-width="2" d="M12 12l10 20m14-20h16l10 20M52 12L42 32" data-name="layer2" style="stroke: #003369;"/><path fill="none" stroke="#003369" stroke-miterlimit="10" stroke-width="2" d="M12 42a10 10 0 0 0 10-10H2a10 10 0 0 0 10 10zm40 0a10 10 0 0 1-10-10h20a10 10 0 0 1-10 10z" data-name="layer1" style="stroke: #003369;"/></svg>
