<?xml version="1.0" encoding="UTF-8"?>
<svg xmlns="http://www.w3.org/2000/svg" viewBox="0 0 64 64"><path fill="#003369" d="M24.9 31.5h7.3v2h-7.3zM24.9 33.9h7.3v2h-7.3zM24.9 26.7H27v2h-2.1zM24.9 28.9H27v2h-2.1zM24.9 24.5H27v2h-2.1zM27.5 26.7h2.2v2h-2.2zM27.5 28.9h2.2v2h-2.2zM27.5 24.5h2.2v2h-2.2zM30 26.7h2.2v2H30zM30 28.9h2.2v2H30zM30 24.5h2.2v2H30zM33.1 26.7h2.2v2h-2.2zM33.1 28.9h2.2v2h-2.2zM33.1 24.5h2.2v2h-2.2zM35.7 26.7h2.1v2h-2.1zM35.7 28.9h2.1v2h-2.1zM35.7 24.5h2.1v2h-2.1zM38.2 26.7h2.1v2h-2.1zM38.2 28.9h2.1v2h-2.1zM38.2 24.5h2.1v2h-2.1zM33.1 31.5h7.3v2h-7.3zM33.1 33.9h7.3v2h-7.3z" style="fill: #003369;"/><path fill="none" stroke="#003369" stroke-miterlimit="10" stroke-width="2" d="M1.8 18.9h40.4v18.4H1.8z" style="stroke: #003369;"/><path fill="#003369" d="M203.5 43h-15.9v-2h15.9v2zM63.2 43h-5.9v-2h3.9v-8.7H48.8v-5.7h-1.3v10.9h3.3v2h-10v-2h4.7V24.6h10.1l3.1 5.7H61c1.6 0 2.2 1 2.2 2V43zM50.8 30.3h5.7l-2-3.7h-3.6v3.7zM34.2 43h-11v-2h11v2zm-18.7 0h-4.6v-2h4.6v2zm34-.1h-7.2v-2h7.2v2z" style="fill: #003369;"/><circle cx="38.1" cy="41.2" r="3.9" fill="none" stroke="#003369" stroke-width="2" style="stroke: #003369;"/><circle cx="19.3" cy="41.2" r="3.9" fill="none" stroke="#003369" stroke-width="2" style="stroke: #003369;"/><circle cx="7.2" cy="41.2" r="3.9" fill="none" stroke="#003369" stroke-width="2" style="stroke: #003369;"/><circle cx="53.4" cy="41.2" r="3.9" fill="none" stroke="#003369" stroke-width="2" style="stroke: #003369;"/><path fill="none" stroke="#003369" stroke-miterlimit="10" stroke-width="2" d="M6 34V22.8M10.8 34V22.8M15.5 34V22.8M20.4 19.4v17.1" style="stroke: #003369;"/><path fill="#003369" d="M25 20.5h7.2v3.2H25zM33.1 20.5h7.2v3.2h-7.2zM21.9 26.7H24v2h-2.1zM21.9 29H24v2h-2.1zM21.9 24.5H24v2h-2.1zM21.9 31.5h2.2v2h-2.2zM21.9 33.9h2.2v2h-2.2zM23.9 23.7h-2v-3.2h2z" style="fill: #003369;"/></svg>
