<?xml version="1.0" encoding="UTF-8"?>
<svg xmlns="http://www.w3.org/2000/svg" data-name="Layer 1" viewBox="0 0 64 64"><path fill="none" stroke="#003369" stroke-miterlimit="10" stroke-width="2" d="M46.68 26.95v9.28M50.3 26.95v9.28M43.07 26.95v9.28M39.5 25.04h14.38v13.11H39.5zM38.57 45.83v9.28M42.19 45.83v9.28M34.96 45.83v9.28M31.39 43.92h14.38v13.11H31.39zM52.96 45.83v9.28M56.57 45.83v9.28M49.34 45.83v9.28M45.77 43.92h14.38v13.11H45.77zM10.61 57.03h22M21.61 6.97v45.79" style="stroke: #003369;"/><path fill="none" stroke="#003369" stroke-miterlimit="10" stroke-width="2" d="M46.69 35.03V13.07H15.4M47.37 13.01L21.61 6.97 15.4 9.05M15.4 57.03v-4.27h12.19v4.27" style="stroke: #003369;"/><path fill="none" stroke="#003369" stroke-miterlimit="10" stroke-width="2" d="M3.84 8.98h11.89v8.17H3.84z" style="stroke: #003369;"/></svg>
