<?xml version="1.0" encoding="UTF-8"?>
<svg xmlns="http://www.w3.org/2000/svg" data-name="Layer 1" viewBox="0 0 113.39 113.39"><path fill="none" d="M95.35 85.31a9.93 9.93 0 1 0 9.94 9.93 9.94 9.94 0 0 0-9.94-9.93zm6.06 14.5l-1.41 1.41-4.72-4.71-4.72 4.71-1.41-1.41 4.71-4.72-4.71-4.71L90.56 89l4.72 4.72L100 89l1.41 1.42-4.72 4.71zM95.47 15.17a1.2 1.2 0 1 0 0-2.4 1.2 1.2 0 0 0 0 2.4zM26.05 35.34a2.2 2.2 0 1 0-2.2 2.2 2.19 2.19 0 0 0 2.2-2.2zM64.47 27.31h2v5.59h2.2v-5.59h2v5.59h2.02v-6.72H62.33v6.72h2.14v-5.59zM80.57 43.04l2.56-2.56h-4.7l-2.56 2.56h4.7zM93.88 43.04v-2.56h-.4l-2.56 2.56h2.96zM88.09 43.04l2.56-2.56h-4.69l-2.57 2.56h4.7zM73.04 43.04l2.57-2.56h-4.7l-2.56 2.56h4.69zM21.89 48.27h4.16v1h-4.16zM28.23 49.28h1.4l.03-6.94h-1.61v6.94h.18zM26.05 43.3v-.97l-4.16-.01v.98h4.16zM18.37 42.32l-.03 6.93 1.55.02v-6.95h-1.52zM21.89 45.3h4.16v.97h-4.16zM50.48 43.04l2.56-2.56h-3.23v2.56h.67zM65.52 43.04l2.56-2.56h-4.69l-2.56 2.56h4.69zM58 43.04l2.56-2.56h-4.69l-2.57 2.56H58z"/><path fill="#1d3763" d="M56.67 69a2.83 2.83 0 0 1-1.39-.37L50 70.45h13.27l-5.22-1.83a2.92 2.92 0 0 1-1.38.38zM44.73 79.17h2.34v-5.69h1.8v5.69h2.4v-5.69h1.8v5.69h2.39v-5.69h1.81v5.69h2.39v-5.69h1.8v5.69h2.4v-5.69h1.8v5.69h2.76v-6.92H44.73v6.92zM58.44 88.75a2.3 2.3 0 1 0-2.3 2.3 2.3 2.3 0 0 0 2.3-2.3zM52.28 97.18h1.8v5.61h4.36v-5.68h1.8v5.68h1.68a.13.13 0 0 0 .13-.13v-6.91a.12.12 0 0 0-.13-.12H50.66a.12.12 0 0 0-.12.12v6.91a.12.12 0 0 0 .12.13h1.62z" style="fill: #003369;"/><path fill="#1d3763" d="M112.15 56.72a54.9 54.9 0 0 0-5.92-25l-1.79.91a52.85 52.85 0 0 1 5.71 23.86H3.25A53.51 53.51 0 0 1 56.7 3.26 52.9 52.9 0 0 1 81 9.08l.91-1.78a54.81 54.81 0 0 0-25.19-6 55.46 55.46 0 1 0 30 102.12 11.92 11.92 0 1 0 16.82-16.86 56.23 56.23 0 0 0 8.61-29.84zm-48.3 45.94a1.93 1.93 0 0 1-1.93 1.93h-1.68v3.29h-1.8v-3.29h-4.36v3.22h-1.8v-3.22h-1.62a1.93 1.93 0 0 1-1.93-1.93v-6.91a1.93 1.93 0 0 1 1.93-1.92h11.26a1.93 1.93 0 0 1 1.93 1.92zM52 88.75a4.1 4.1 0 1 1 4.1 4.1 4.11 4.11 0 0 1-4.1-4.1zM70.22 81h-27.3V70.45h1.66L54 67.16a2.88 2.88 0 0 1-.22-1.1 2.93 2.93 0 0 1 2-2.78v-2.74h1.8v4.4h-.9a1.12 1.12 0 0 0-1.12 1.12 1.06 1.06 0 0 0 .13.5l1-.34 1 .35a1.08 1.08 0 0 0 .14-.51h1.8a2.93 2.93 0 0 1-.22 1.11l9.35 3.28h1.5zm35.07 14.27a9.94 9.94 0 1 1-9.94-9.93 9.94 9.94 0 0 1 9.94 9.9z" style="fill: #003369;"/><path fill="#1d3763" d="M95.28 93.676l4.717-4.717 1.414 1.415-4.717 4.716zM89.15 99.805l4.717-4.717 1.414 1.415-4.717 4.716zM95.278 96.508l1.414-1.414 4.716 4.716-1.414 1.414z" style="fill: #003369;"/><path fill="#1d3763" d="M89.149 90.378l1.414-1.414 4.716 4.716-1.414 1.414z" style="fill: #003369;"/><path fill="#1d3763" d="M93.868 95.086l1.414-1.415 1.414 1.415-1.414 1.414zM68.51 16.51v.89a3 3 0 0 0 .17-5.74V9h-2v4.5h1a1 1 0 1 1-1 1h-2a3 3 0 0 0 1.86 2.79v-.79zM64.47 27.31h2v5.59h-2z" style="fill: #003369;"/><path fill="#1d3763" d="M62.06 29.74l-1.73 1.4v3.76h14.36V24.18h-6.18v.53h-2v-.53h-6.18v4.39l.47-.38zm.27-3.56h10.36v6.72h-2v1h-2v-1h-2.2v1h-2v-1h-2.16z" style="fill: #003369;"/><path fill="#1d3763" d="M64.47 32.9h2v1h-2zM68.67 27.31h2v5.59h-2zM68.67 32.9h2v1h-2zM45.15 40.99h-6.61l2.47-2.09-1.29-1.52-5.46 4.61 5.46 4.61 1.29-1.52-2.47-2.09h6.61v-2zM28.05 35.34a4.2 4.2 0 1 0-4.2 4.2 4.2 4.2 0 0 0 4.2-4.2zm-6.4 0a2.2 2.2 0 1 1 2.2 2.2 2.2 2.2 0 0 1-2.2-2.2zM18.34 49.25v-6.93h1.52v-1h2v1h4.16v-1h2v1.06h1.61v6.94h-1.4v2h1.4a2 2 0 0 0 2-2v-6.98a2 2 0 0 0-2-2H18.37a2 2 0 0 0-2 2v6.91a2 2 0 0 0 2 2h1.52v-2z" style="fill: #003369;"/><path fill="#1d3763" d="M28.05 42.34l-2-.01v.97h1v2h-1v.97h1v2h-1v1.01h2v-6.94zM28.05 54.47v-3.19h-2v3.19h2zM26.05 41.28h2v1.05h-2zM19.97 51.28h-.08v3.12h2v-3.12h-1.92zM20.89 48.27v-2h1v-.97h-1v-2h1v-.98h-2v6.95l.66.01h1.34v-1.01h-1z" style="fill: #003369;"/><path fill="#1d3763" d="M19.97 49.28h.58l-.66-.01v2.01h.08v-2zM19.89 41.35h2v.97h-2zM21.89 49.28h4.16v2h-4.16zM28.05 49.28h.17v2h-.17zM26.05 49.28h1.53v2h-1.53z" style="fill: #003369;"/><path fill="#1d3763" d="M27.58 49.28h.47v2h-.47zM20.55 49.28h1.34v2h-1.34zM19.97 49.28h.58v2h-.58zM21.89 43.3h4.16v2h-4.16zM26.05 43.3h1v2h-1zM20.89 43.3h1v2h-1zM21.89 46.27h4.16v2h-4.16zM26.05 46.27h1v2h-1zM20.89 46.27h1v2h-1zM47.97 43.04h1.84v-2.56h-1.34l-.63-1.78.02-.01h-.05v13.87h2v-7.52h-1.84v-2zM95.35 40.48h-1.47v2.56h.95v2h-.95v7.52h2V38.47h-2v.01h1.47v2zM70.91 45.04h2v7.52h-2z" style="fill: #003369;"/><path fill="#1d3763" d="M60.33 31.14v-2.57L47.86 38.69h1.95v1.79h3.23l1.72-1.72 1.41 1.41-.3.31h4.69l1.72-1.72 1.42 1.41-.31.31h4.69l1.73-1.72 1.41 1.41-.31.31h4.7l1.72-1.72 1.41 1.41-.31.31h4.7l1.72-1.72 1.41 1.41-.3.31h4.69l1.72-1.72 1.42 1.41-.31.31h.4v-2H51.29l9.04-7.34z" style="fill: #003369;"/><path fill="#1d3763" d="M62.06 29.74l-1.26-1.55-.47.38v2.57l1.73-1.4zM48.47 40.48h1.34v-1.79h-1.95l-.02.01.63 1.78zM93.88 38.48h1.47v2h-1.47zM90.92 43.04l-1.52 1.52-1.42-1.42.11-.1h-4.7l-1.51 1.52-1.42-1.42.11-.1h-4.7l-1.52 1.52-1.41-1.42.1-.1h-4.69l-1.52 1.52-1.41-1.42.1-.1h-4.69l-1.52 1.52-1.42-1.42.11-.1h-4.7l-1.51 1.52-1.42-1.42.11-.1h-.67v2h21.1v-1h2v1h20.97v-2h-2.96z" style="fill: #003369;"/><path fill="#1d3763" d="M47.97 43.04h1.84v2h-1.84zM93.88 43.04h.95v2h-.95zM70.91 44.04h2v1h-2zM75.87 43.04l2.56-2.56h-2.82l-2.57 2.56h2.83z" style="fill: #003369;"/><path fill="#1d3763" d="M78.74 40.17l-1.41-1.41-1.72 1.72h2.82l.31-.31zM72.94 43.14l1.41 1.42 1.52-1.52h-2.83l-.1.1zM83.39 43.04l2.57-2.56h-2.83l-2.56 2.56h2.82z" style="fill: #003369;"/><path fill="#1d3763" d="M86.26 40.17l-1.41-1.41-1.72 1.72h2.83l.3-.31zM80.46 43.14l1.42 1.42 1.51-1.52h-2.82l-.11.1zM90.92 43.04l2.56-2.56h-2.83l-2.56 2.56h2.83z" style="fill: #003369;"/><path fill="#1d3763" d="M93.79 40.17l-1.42-1.41-1.72 1.72h2.83l.31-.31zM87.98 43.14l1.42 1.42 1.52-1.52h-2.83l-.11.1zM68.35 43.04l2.56-2.56h-2.83l-2.56 2.56h2.83z" style="fill: #003369;"/><path fill="#1d3763" d="M71.22 40.17l-1.41-1.41-1.73 1.72h2.83l.31-.31zM65.42 43.14l1.41 1.42 1.52-1.52h-2.83l-.1.1zM53.3 43.04l2.57-2.56h-2.83l-2.56 2.56h2.82z" style="fill: #003369;"/><path fill="#1d3763" d="M56.17 40.17l-1.41-1.41-1.72 1.72h2.83l.3-.31zM50.37 43.14l1.42 1.42 1.51-1.52h-2.82l-.11.1zM60.83 43.04l2.56-2.56h-2.83L58 43.04h2.83z" style="fill: #003369;"/><path fill="#1d3763" d="M63.7 40.17l-1.42-1.41-1.72 1.72h2.83l.31-.31zM57.89 43.14l1.42 1.42 1.52-1.52H58l-.11.1zM68.51 17.4a2.88 2.88 0 0 1-.83.13 3 3 0 0 1-1.17-.23v6.88h2z" style="fill: #003369;"/><path fill="#1d3763" d="M68.51 17.4v-.89h-2v.79a3 3 0 0 0 1.17.23 2.88 2.88 0 0 0 .83-.13zM66.51 24.18h2v.53h-2zM107.65 17.69a12.17 12.17 0 1 0-21.39 7.9L87.84 24a9.9 9.9 0 1 1 15.29 0l1.57 1.57a12.09 12.09 0 0 0 2.95-7.88z" style="fill: #003369;"/><path fill="#1d3763" d="M89.21 25.41L87.71 27a12 12 0 0 0 15.55 0l-1.5-1.59a8.71 8.71 0 0 1-5.21 2.36v-8.51h2.09v-1.57h-2.09v-1.28A2.52 2.52 0 0 0 98.26 14a2.78 2.78 0 0 0-5.56 0 2.54 2.54 0 0 0 1.71 2.42v1.28h-2.08v1.57h2.08v8.51a8.69 8.69 0 0 1-5.2-2.37zM94.28 14a1.21 1.21 0 0 1 2.41 0 1.21 1.21 0 0 1-2.41 0z" style="fill: #003369;"/></svg>
