<?xml version="1.0" encoding="UTF-8"?>
<svg xmlns="http://www.w3.org/2000/svg" data-name="Layer 1" viewBox="0 0 64 64"><path fill="none" stroke="#003369" stroke-miterlimit="10" stroke-width="2" d="M16.24 47.77c-4 0-4 2-8 2s-4-2-8-2m32 0c-4 0-4 2-8 2s-4-2-8-2m32 0c-4 0-4 2-8 2s-4-2-8-2m31.52 0c-4 0-4 2-8 2s-4-2-8-2M7.21 33.64h2M11 33.64h2M15.67 40.85v-5.52l2.26-.95v-4.11H3.56v3.89l.73.94v6.22" style="stroke: #003369;"/><path fill="none" stroke="#003369" stroke-miterlimit="10" stroke-width="2" d="M5.68 49.4L3.2 45.56v-5.27h11.41l2.19 1.59h32l2.79-2.68h9.71l-6.84 10M8.21 30.99v-5.86M26.01 26.18h30.95v4.09H26.01zM41.46 18.82H18.95" style="stroke: #003369;"/><path fill="none" stroke="#003369" stroke-miterlimit="10" stroke-width="2" d="M22.05 41.88V14.22l19.75 3.02v8.43" style="stroke: #003369;"/></svg>
