<?xml version="1.0" encoding="UTF-8"?>
<svg xmlns="http://www.w3.org/2000/svg" aria-describedby="desc" aria-labelledby="title" viewBox="0 0 64 64"><path fill="none" stroke="#003369" stroke-miterlimit="10" stroke-width="2" d="M37 51H2s0-7 9.4-8.8S20 38.6 20 37v-2a14.2 14.2 0 0 1-4-7c-2.5 0-4-3-4-6 0-.8 0-4 2-4-1.6-6.4-.4-13 4-13 10.4-7 25-1.5 20 13 2 0 2 3.2 2 4 0 3-1.5 6-4 6a14.1 14.1 0 0 1-4 7v2a3.8 3.8 0 0 0 2.5 3.4" data-name="layer2" style="stroke: #003369;"/><path fill="none" stroke="#003369" stroke-miterlimit="10" stroke-width="2" d="M55 36a7.7 7.7 0 0 0-7 5 7.7 7.7 0 0 0-7-5 6.9 6.9 0 0 0-7 7c0 9 14 19 14 19s14-10 14-19a6.9 6.9 0 0 0-7-7z" data-name="layer1" style="stroke: #003369;"/></svg>
