<?xml version="1.0" encoding="UTF-8"?>
<svg xmlns="http://www.w3.org/2000/svg" aria-describedby="desc" aria-labelledby="title" viewBox="0 0 64 64"><path fill="none" stroke="#003369" stroke-miterlimit="10" stroke-width="2" d="M36.3 50H2s0-6 7-8 9-4.4 9-6v-2a61.4 61.4 0 0 1-12-2c3.3-3.3 6-4.3 6-18 0-6 3.7-11.6 10-11.6s14 0 14 11.6c0 13.7 2.7 14.7 6 18a61.6 61.6 0 0 1-12 2v2c0 1.2.6 2.7 4.3 4.3" data-name="layer2" style="stroke: #003369;"/><path fill="none" stroke="#003369" stroke-miterlimit="10" stroke-width="2" d="M55 36a7.7 7.7 0 0 0-7 5 7.7 7.7 0 0 0-7-5 6.9 6.9 0 0 0-7 7c0 9 14 19 14 19s14-10 14-19a6.9 6.9 0 0 0-7-7z" data-name="layer1" style="stroke: #003369;"/></svg>
