<?xml version="1.0" encoding="UTF-8"?>
<svg xmlns="http://www.w3.org/2000/svg" aria-describedby="desc" aria-labelledby="title" viewBox="0 0 64 64"><path fill="none" stroke="#003369" stroke-miterlimit="10" stroke-width="2" d="M59.4 10.3l-5.7-5.7a9 9 0 0 0-12.7 0l-8.5 8.5a9 9 0 0 0 0 12.7l5.7 5.7a9 9 0 0 0 12.7 0l8.5-8.5a9 9 0 0 0 0-12.7zM31.5 38.2l-5.7-5.7a9 9 0 0 0-12.7 0L4.6 41a9 9 0 0 0 0 12.7l5.7 5.7a9 9 0 0 0 12.7 0l8.5-8.5a9 9 0 0 0 0-12.7z" data-name="layer2" style="stroke: #003369;"/><path fill="none" stroke="#003369" stroke-miterlimit="10" stroke-width="2" d="M18.1 46L46 18.1" data-name="layer1" style="stroke: #003369;"/></svg>
