<?xml version="1.0" encoding="UTF-8"?>
<svg xmlns="http://www.w3.org/2000/svg" aria-describedby="desc" aria-labelledby="title" viewBox="0 0 64 64"><path fill="none" stroke="#003369" stroke-miterlimit="10" stroke-width="2" d="M36 34v1a8 8 0 0 0 8 8h10a8 8 0 0 0 8-8v-6a8 8 0 0 0-8-8H44a8 8 0 0 0-8 8v1m4 0v-1a4 4 0 0 1 4-4h10a4 4 0 0 1 4 4v6a4 4 0 0 1-4 4H44a4 4 0 0 1-4-4v-1m-12-4v-1a8 8 0 0 0-8-8H10a8 8 0 0 0-8 8v6a8 8 0 0 0 8 8h10a8 8 0 0 0 8-8v-1m-4 0v1a4 4 0 0 1-4 4H10a4 4 0 0 1-4-4v-6a4 4 0 0 1 4-4h10a4 4 0 0 1 4 4v1" data-name="layer2" style="stroke: #003369;"/><path fill="none" stroke="#003369" stroke-miterlimit="10" stroke-width="2" d="M48.3 32a2 2 0 0 1-2 2h-29a2 2 0 0 1-2-2 2 2 0 0 1 2-2h29a2 2 0 0 1 2 2z" data-name="layer1" style="stroke: #003369;"/></svg>
