<?xml version="1.0" encoding="UTF-8"?>
<svg xmlns="http://www.w3.org/2000/svg" aria-describedby="desc" aria-labelledby="title" viewBox="0 0 64 64"><path fill="none" stroke="#003369" stroke-miterlimit="10" stroke-width="2" d="M37 30.3l.8.8a9.3 9.3 0 0 0 13.2 0l8.3-8.3a9.3 9.3 0 0 0 0-13.2l-5-5a9.3 9.3 0 0 0-13.2 0L32.8 13a9.3 9.3 0 0 0 0 13.2l.8.8m3.4-3.3l-.8-.8a4.7 4.7 0 0 1 0-6.6L44.4 8A4.7 4.7 0 0 1 51 8l5 5a4.7 4.7 0 0 1 0 6.6l-8.3 8.3a4.7 4.7 0 0 1-6.6 0l-.8-.8M27 33.7l-.8-.8a9.3 9.3 0 0 0-13.2 0l-8.3 8.2a9.3 9.3 0 0 0 0 13.2l5 5a9.3 9.3 0 0 0 13.2 0l8.3-8.3a9.3 9.3 0 0 0 0-13.2l-.8-.8M27 40.3l.8.8a4.7 4.7 0 0 1 0 6.6L19.6 56a4.7 4.7 0 0 1-6.6 0l-5-5a4.7 4.7 0 0 1 0-6.6l8.3-8.3a4.7 4.7 0 0 1 6.6 0l.8.8" data-name="layer2" style="stroke: #003369;"/><path fill="none" stroke="#003369" stroke-miterlimit="10" stroke-width="2" d="M45.4 18.6a2.3 2.3 0 0 1 0 3.3l-24 24a2.3 2.3 0 0 1-3.3 0 2.3 2.3 0 0 1 0-3.3l24-24a2.3 2.3 0 0 1 3.3 0z" data-name="layer1" style="stroke: #003369;"/></svg>
