<?xml version="1.0" encoding="UTF-8"?>
<svg xmlns="http://www.w3.org/2000/svg" aria-describedby="desc" aria-labelledby="title" viewBox="0 0 64 64"><path fill="none" stroke="#003369" stroke-width="2" d="M48 52V2H16v50" data-name="layer2" style="stroke: #003369;"/><rect width="9" height="9" x="22.9" y="10.9" fill="none" stroke="#003369" stroke-width="2" data-name="layer2" rx="2" ry="2" transform="rotate(-30 27.483 15.364)" style="stroke: #003369;"/><path fill="none" stroke="#003369" stroke-width="2" d="M34.6 40.5a2 2 0 0 1-.7 2.7l-4.3 2.5a2 2 0 0 1-2.7-.7l-2.5-4.3a2 2 0 0 1 .7-2.7l4.3-2.5a2 2 0 0 1 2.7.7z" data-name="layer2" style="stroke: #003369;"/><rect width="9" height="9" x="32.1" y="22.9" fill="none" stroke="#003369" stroke-width="2" data-name="layer2" rx="2" ry="2" transform="matrix(.5 -.87 .87 .5 -5.44 45.4)" style="stroke: #003369;"/><path fill="none" stroke="#003369" stroke-width="2" d="M16 52v7.4a2.6 2.6 0 0 0 2.6 2.6h26.8a2.6 2.6 0 0 0 2.6-2.6V52z" data-name="layer1" style="stroke: #003369;"/></svg>
