<?xml version="1.0" encoding="UTF-8"?>
<svg xmlns="http://www.w3.org/2000/svg" data-name="Layer 1" viewBox="0 0 64 64"><path fill="none" stroke="#003369" stroke-miterlimit="10" stroke-width="2" d="M12.59 52v1.4c0 1.34 1.09 1.54 2.43 1.54h28.86c1.34 0 2.42-.2 2.42-1.54V52zM12.59 20.17l-9.91-2.93v31.91l9.91 2.84V20.17zM56.22 30.06v19.09l-9.92 2.84V30.06M12.59 20.17H39.1M17.85 41.51h11.51V52H17.85zM29.36 41.51h11.51V52H29.36zM23.6 31.02h11.51v10.49H23.6z" style="stroke: #003369;"/><circle cx="50.21" cy="20.17" r="11.11" fill="none" stroke="#003369" stroke-miterlimit="10" stroke-width="2" style="stroke: #003369;"/><path fill="#003369" d="M49 26v-2.4h2.37V26zm.48-3.42l-.4-5.2v-3h2.21v3L51 22.55z" style="fill: #003369;"/></svg>
