<?xml version="1.0" encoding="UTF-8"?>
<svg xmlns="http://www.w3.org/2000/svg" aria-describedby="desc" aria-labelledby="title" viewBox="0 0 64 64"><path fill="none" stroke="#003369" stroke-width="2" d="M34 59H10a6 6 0 0 1-6-6V25.3A4.8 4.8 0 0 1 2 21c0-8 8.1-16 18-16h24M3.7 25h24" data-name="layer2" style="stroke: #003369;"/><path fill="none" stroke="#003369" stroke-width="2" d="M62 21c0-8-8.1-16-18-16s-18 8-18 16a4.8 4.8 0 0 0 2 4.3V53a6 6 0 0 0 6 6h20a6 6 0 0 0 6-6V25.3a4.9 4.9 0 0 0 2-4.3z" data-name="layer1" style="stroke: #003369;"/></svg>
