<?xml version="1.0" encoding="UTF-8"?>
<svg xmlns="http://www.w3.org/2000/svg" data-name="Layer 1" viewBox="0 0 64 64"><path fill="none" stroke="#003369" stroke-linecap="round" stroke-linejoin="round" stroke-width="2" d="M31.44 41.9a7.26 7.26 0 0 1 6.12 2.73 11.48 11.48 0 0 0 2-6.72c0-7-3.8-20.63-8.49-20.63s-8.48 13.63-8.48 20.63A11.64 11.64 0 0 0 25 45.29a7.78 7.78 0 0 1 6.44-3.39zM25 45.29s-.6 3.63.88 5.74M36.94 51c1.48-2.11.62-6.4.62-6.4M36.76 50.6a9.3 9.3 0 0 0-5.32-1.55 9.27 9.27 0 0 0-5.31 1.55M36.61 50.6a2.22 2.22 0 0 1 0 3.1M26.19 50.6a2.23 2.23 0 0 0 0 3.1M40.55 58.51a22.88 22.88 0 0 0-3.2-4.81l-2.3.3a22 22 0 0 1-4.72.32c-1.57-.12-3.12-.46-4.7-.61h-.09a23.75 23.75 0 0 0-3.49 4.81 3.15 3.15 0 0 0 1.53 4.2c2.13.94 3.33-.55 4.4-2.23 0 .8 1.36 2.32 3 2.32h.55c1.68 0 3-1.52 3-2.32 1.07 1.68 2.27 3.17 4.39 2.23a3.16 3.16 0 0 0 1.63-4.21z" style="stroke: #003369;"/><path fill="none" stroke="#003369" stroke-miterlimit="10" stroke-width="2" d="M14.42 6.43A10.4 10.4 0 0 0 9.3 11c-1.45 2.78-2.3 6.16-1.11 9.15s4.32 5.48 7.56 4.9c3.81-.67 4.36-5.07 3.43-8.34-.1-.33-.21-.66-.33-1L14.3 18c-1.17.41-4.3-4.1.12-11.57z" style="stroke: #003369;"/><path fill="none" stroke="#003369" stroke-miterlimit="10" stroke-width="2" d="M14.42 17.28a8 8 0 0 0 1.29-3.83l.09-2.12s3.12 2.7 2.43 4.57M18.76 23.05S22.09 26 24.3 26M16.3 25c1.74 1.89 4.44 4.47 7.32 5M47.63 6.43A10.4 10.4 0 0 1 52.75 11c1.45 2.74 2.28 6.12 1.11 9.11s-4.32 5.48-7.56 4.9c-3.81-.67-4.36-5.07-3.42-8.34.09-.33.2-.66.32-1L47.75 18c.79 0 4.25-4.6-.12-11.57z" style="stroke: #003369;"/><path fill="none" stroke="#003369" stroke-miterlimit="10" stroke-width="2" d="M47.63 17.28a8 8 0 0 1-1.29-3.83l-.09-2.12S43.13 14 43.82 15.9M43.29 23.05S40 26 37.75 26M45.75 25c-1.74 1.89-4.31 4.6-7.19 5.13M32.38 17.65s-.2-12 6.44-16.65M30 17.65s.2-12-6.45-16.65M22.94 33.11s-7.73 1.22-11.43-4.21M22.62 36.71s-8.89-.83-13.32 3.82M22.59 39s-3 0-6.65 5.42M39.13 33.09s7.69 1.24 11.38-4.19M39.56 36.67s8.74-.79 13.16 3.86M39.44 39s3 0 6.64 5.43" style="stroke: #003369;"/><rect width="1.48" height="2.95" x="35.4" y="14.55" fill="none" stroke="#003369" stroke-linecap="round" stroke-linejoin="round" stroke-width="2" rx=".7" style="stroke: #003369;"/><rect width="1.48" height="2.95" x="25.28" y="13.55" fill="none" stroke="#003369" stroke-linecap="round" stroke-linejoin="round" stroke-width="2" rx=".7" style="stroke: #003369;"/><path fill="none" stroke="#003369" stroke-linecap="round" stroke-linejoin="round" stroke-width="2" d="M26.01 16.5l1.07 2.62M36.13 17.5l-.73 2.21" style="stroke: #003369;"/></svg>
