<?xml version="1.0" encoding="UTF-8"?>
<svg xmlns="http://www.w3.org/2000/svg" aria-describedby="desc" aria-labelledby="title" viewBox="0 0 64 64"><path fill="none" stroke="#003369" stroke-width="2" d="M38 44h24v16H38zm6 0V34a6 6 0 0 1 6-6 6 6 0 0 1 6 6v10m-6 6v4" data-name="layer2" style="stroke: #003369;"/><path fill="none" stroke="#003369" stroke-width="2" d="M38 50H4a2 2 0 0 1-2-2V4a2 2 0 0 1 2-2h48a2 2 0 0 1 2 2v25.5M39 26h-9m3 16h-3m16-32H30" data-name="layer1" style="stroke: #003369;"/><circle cx="11" cy="10" r="1" fill="none" stroke="#003369" stroke-width="2" data-name="layer1" style="stroke: #003369;"/><circle cx="11" cy="26" r="1" fill="none" stroke="#003369" stroke-width="2" data-name="layer1" style="stroke: #003369;"/><circle cx="11" cy="42" r="1" fill="none" stroke="#003369" stroke-width="2" data-name="layer1" style="stroke: #003369;"/><path fill="none" stroke="#003369" stroke-width="2" d="M54 18H2m42 16H2" data-name="layer1" style="stroke: #003369;"/></svg>
