<?xml version="1.0" encoding="UTF-8"?>
<svg xmlns="http://www.w3.org/2000/svg" aria-describedby="desc" aria-labelledby="title" viewBox="0 0 64 64"><ellipse cx="27" cy="10" fill="none" stroke="#003369" stroke-width="2" data-name="layer2" rx="23" ry="8" style="stroke: #003369;"/><path fill="none" stroke="#003369" stroke-width="2" d="M50 30.344V9.961m0 12.059c0 4.4-10.3 7.961-23 7.961S4 26.417 4 22.02m37.9 18.064a54.274 54.274 0 0 1-14.9 1.9c-12.7 0-23-3.564-23-7.961" data-name="layer2" style="stroke: #003369;"/><path fill="none" stroke="#003369" stroke-width="2" d="M36 53.329a62.346 62.346 0 0 1-9 .633C14.3 53.962 4 50.4 4 46V10" data-name="layer2" style="stroke: #003369;"/><path fill="none" stroke="#003369" stroke-width="2" d="M36 46.001h24v16H36zM42 46V36a6 6 0 0 1 6-6 6 6 0 0 1 6 6v10m-6 6.001v4" data-name="layer1" style="stroke: #003369;"/></svg>
