<?xml version="1.0" encoding="UTF-8"?>
<svg xmlns="http://www.w3.org/2000/svg" aria-describedby="desc" aria-labelledby="title" viewBox="0 0 64 64"><path fill="none" stroke="#003369" stroke-width="2" d="M18 56v4a2 2 0 0 1-2 2h-4a2 2 0 0 1-2-2v-4m42 0v4a2 2 0 0 1-2 2h-4a2 2 0 0 1-2-2v-4M16 10h30v8H16z" data-name="layer2" style="stroke: #003369;"/><path fill="none" stroke="#003369" stroke-width="2" d="M8 24h26v18H8" data-name="layer1" style="stroke: #003369;"/><path fill="none" stroke="#003369" stroke-width="2" d="M42 42V24h12V8a6 6 0 0 0-6-6H14a6 6 0 0 0-6 6v48h46V42zm10-18v18M8 48h8m30 0h8" data-name="layer1" style="stroke: #003369;"/></svg>
