<?xml version="1.0" encoding="UTF-8"?>
<svg xmlns="http://www.w3.org/2000/svg" aria-describedby="desc" aria-labelledby="title" viewBox="0 0 64 64"><path fill="none" stroke="#003369" stroke-miterlimit="10" stroke-width="2" d="M33 62c0-17.1 16.3-25.2 17.8-39.7A18 18 0 1 0 15 20a18.1 18.1 0 0 0 .2 2.2C16.7 36.8 33 44.9 33 62z" data-name="layer2" style="stroke: #003369;"/><path fill="none" stroke="#003369" stroke-miterlimit="10" stroke-width="2" d="M41 18.3a4.3 4.3 0 0 0-4.4-4.3 4.4 4.4 0 0 0-3.6 1.8 4.4 4.4 0 0 0-3.6-1.8 4.3 4.3 0 0 0-4.4 4.3 4.2 4.2 0 0 0 0 .5c.5 4.5 8 9.3 8 9.3s6.6-4.3 7.8-8.5a4.2 4.2 0 0 0 .2-1.3z" data-name="layer1" style="stroke: #003369;"/></svg>
