<?xml version="1.0" encoding="UTF-8"?>
<svg xmlns="http://www.w3.org/2000/svg" aria-describedby="desc" aria-labelledby="title" viewBox="0 0 64 64"><path fill="none" stroke="#003369" stroke-miterlimit="10" stroke-width="2" d="M54 24a22 22 0 1 0-28 21.1L32 59l6-13.9A22 22 0 0 0 54 24z" data-name="layer2" style="stroke: #003369;"/><path fill="none" stroke="#003369" stroke-miterlimit="10" stroke-width="2" d="M42 21.5a5.5 5.5 0 0 0-10-3.2 5.5 5.5 0 0 0-10 3.2 5.5 5.5 0 0 0 0 .6C22.6 27.9 32 34 32 34s8.3-5.6 9.8-10.9a5.5 5.5 0 0 0 .2-1.6z" data-name="layer1" style="stroke: #003369;"/></svg>
