<?xml version="1.0" encoding="UTF-8"?>
<svg xmlns="http://www.w3.org/2000/svg" aria-describedby="desc" aria-labelledby="title" viewBox="0 0 64 64"><path fill="none" stroke="#003369" stroke-miterlimit="10" stroke-width="2" d="M32 2a20 20 0 0 0-20 20c0 18 20 39 20 39s20-21 20-39A20 20 0 0 0 32 2z" data-name="layer2" style="stroke: #003369;"/><path fill="none" stroke="#003369" stroke-miterlimit="10" stroke-width="2" d="M42 21.5a5.5 5.5 0 0 0-10-3.2 5.5 5.5 0 0 0-10 3.2 5.5 5.5 0 0 0 0 .6C22.6 27.9 32 34 32 34s8.3-5.6 9.8-10.9a5.5 5.5 0 0 0 .2-1.6z" data-name="layer1" style="stroke: #003369;"/></svg>
