<?xml version="1.0" encoding="UTF-8"?>
<svg xmlns="http://www.w3.org/2000/svg" viewBox="0 0 64 64"><path fill="#003369" d="M35.58 63.46c-.67 0-1.33-.2-1.97-.59-1.23-.76-1.97-2.07-1.96-3.5V47.02h-.54l-.06 12.38c0 1.42-.73 2.71-1.93 3.46-1.11.7-2.33.75-3.51.17a4.126 4.126 0 0 1-2.32-3.69l-.09-23.6-8.48-4.48-2.28-6.79c-.23-.56-.66-1.76-.98-2.65l-.32-.89c-.39-1.06-.24-2.05.42-2.8.72-.83 1.99-1.21 3.17-.96.99.21 1.72.84 2 1.71l3.66 8.3 5.1 1.97h12.27l5.86-1.96 3.65-8.28c.29-.88 1.02-1.5 2-1.71 1.17-.25 2.45.13 3.17.96.65.75.8 1.74.42 2.79l-.32.89c-.32.9-.76 2.1-1 2.71l-2.26 6.76-9.7 4.46v6.37l-.09 17.2c0 1.45-.75 2.77-1.99 3.54-.61.38-1.26.57-1.91.57zm-6.46-18.44h4.54l-.02 14.35c0 .73.38 1.4 1.02 1.8.63.39 1.18.4 1.78.03.65-.4 1.04-1.09 1.05-1.85l.09-24.84 10.08-4.63 2.01-6c.26-.65.68-1.83 1-2.7l.33-.9c.19-.51.02-.71-.05-.79-.24-.28-.79-.42-1.24-.32-.2.04-.46.15-.53.4l-.04.12-4.02 9.14-7.01 2.34H25.14l-6.22-2.4-4.06-9.23c-.08-.25-.33-.35-.53-.4-.45-.1-1 .04-1.24.32-.06.07-.24.27-.05.79l.33.9c.31.87.73 2.04.98 2.64l2.04 6.09 8.83 4.67.09 24.8c0 .81.47 1.54 1.21 1.91.55.28 1.04.25 1.56-.07.62-.39.99-1.05.99-1.78l.06-14.37z" style="fill: #003369;"/><path fill="#003369" d="M32 28.05c-2.81 0-5.09-2.28-5.09-5.09s2.28-5.09 5.09-5.09 5.09 2.28 5.09 5.09-2.28 5.09-5.09 5.09zm0-8.18c-1.7 0-3.09 1.39-3.09 3.09s1.39 3.09 3.09 3.09 3.09-1.39 3.09-3.09-1.39-3.09-3.09-3.09zM28.142 10.766l2.444-.855.66 1.888-2.444.855zM29.087 13.55l2.501-.875.66 1.888-2.5.875zM54.5 26.31c-1.53 0-3.03-.43-4.41-1.27l1.04-1.71c1.46.89 3.08 1.18 4.69.84l.41 1.96c-.58.12-1.16.18-1.73.18z" style="fill: #003369;"/><g fill="#003369"><path d="M46.08 23.22c-.69-.68-3.37-3.44-4.18-4.57-.91-1.26-2.16-2.23-3.35-2.58l.56-1.92c1.63.48 3.24 1.69 4.41 3.33.64.89 3.06 3.43 3.96 4.32l-1.41 1.42z" style="fill: #003369;"/><path d="M37 18.34c-.27 0-.55-.04-.81-.14l-1.67-.59a2.456 2.456 0 0 1-1.49-3.13l1.2-3.4a2.456 2.456 0 0 1 3.13-1.49l1.67.59c.62.22 1.11.66 1.39 1.25.28.59.32 1.26.1 1.87l-1.2 3.4c-.35 1-1.3 1.63-2.31 1.63zm-1.82-2.62l1.67.59c.23.08.49-.04.58-.27l1.2-3.4a.465.465 0 0 0-.27-.58l-1.67-.59a.462.462 0 0 0-.58.28l-1.2 3.4c-.08.23.04.49.27.58z" style="fill: #003369;"/></g><path fill="#003369" d="M9.16 26.29c-.51 0-1-.05-1.5-.15l.41-1.96c1.88.4 3.62-.34 4.75-1.02l1.04 1.71c-1.55.94-3.15 1.43-4.7 1.43zM26.51 18.34a2.45 2.45 0 0 1-2.31-1.63l-1.2-3.4a2.46 2.46 0 0 1 1.49-3.13l1.67-.59c1.28-.45 2.68.22 3.13 1.49l1.2 3.4c.22.62.18 1.28-.1 1.87A2.46 2.46 0 0 1 29 17.61l-1.67.59c-.27.1-.54.14-.82.14zm.46-6.89s-.1 0-.15.03l-1.67.59c-.23.08-.36.34-.27.58l1.2 3.4c.08.23.34.36.58.27l1.67-.59c.15-.05.23-.17.26-.23s.07-.19.02-.35l-1.2-3.4a.45.45 0 0 0-.43-.3zM25.13 35.49l-1.88-.69c.08-.22.19-.48.3-.77.37-.9 1.13-2.78.83-3.46l1.82-.82c.66 1.45-.19 3.52-.8 5.03-.11.26-.2.5-.28.71zM37.63 35.49c-.96-2.6-1.17-4.53-.62-5.74l1.82.82c-.24.52-.18 1.9.67 4.22l-1.88.69zM24.22 37.6h14.35v2H24.22zM24.26 40.62h14.31v2H24.26zM31.73 35.75l-4.14-4.95 1.53-1.28 2.55 3.04 2.35-3.01 1.58 1.23-3.87 4.97zM24.26 45.02h14.31v2H24.26zM33.59 34.76h3.1v2h-3.1z" style="fill: #003369;"/><path fill="#003369" d="M17.81 22.93l-1.42-1.41c.87-.87 2.43-2.74 3.21-3.84 1.27-1.79 3.01-3.12 4.77-3.65l.57 1.92c-1.32.39-2.71 1.47-3.71 2.89-.76 1.08-2.39 3.06-3.43 4.1zM32.6 9.08l-1.79-.9 1.13-2.24h-2.32L32.2.8l1.79.89-1.13 2.25h2.32L32.6 9.08z" style="fill: #003369;"/></svg>
