<?xml version="1.0" encoding="UTF-8"?>
<svg xmlns="http://www.w3.org/2000/svg" viewBox="0 0 64 64"><path fill="#003369" d="M22.03 62.55L22 55.16l-10.83-6.52-2.84-9.63c-.3-.84-.85-2.58-1.25-3.85-.17-.54-.31-1-.41-1.28-.63-1.98.15-3.21.67-3.76.9-.96 2.33-1.36 3.64-1.02 1.16.29 1.99 1.1 2.31 2.23L18 43.51l6.6 2.9 14.41-.02 7.58-2.88 4.7-12.15c.32-1.12 1.15-1.93 2.31-2.23 1.31-.33 2.74.07 3.64 1.02.52.56 1.3 1.78.67 3.76-.09.28-.24.74-.41 1.27-.4 1.27-.95 3.02-1.27 3.91L53.4 48.7l-12.38 6.48v7.34h-2v-8.56l12.71-6.65 2.6-8.85c.32-.91.87-2.64 1.27-3.9.17-.54.32-1 .41-1.29.17-.52.26-1.25-.22-1.77-.4-.42-1.09-.61-1.69-.46-.32.08-.74.3-.88.85l-.03.11-5.04 13.03-8.75 3.33-15.19.02-7.75-3.4-5.06-13.11c-.15-.56-.56-.77-.88-.85-.6-.15-1.29.04-1.69.46-.49.52-.39 1.25-.22 1.78.09.28.24.74.41 1.29.4 1.26.94 2.98 1.25 3.84l2.63 8.93 11.12 6.7.04 8.51h-2z" style="fill: #003369;"/><g fill="#003369"><path d="M28.381 11.592l2.63-.87.628 1.899-2.63.87zM29.326 14.182l2.63-.87.628 1.9-2.63.87z" style="fill: #003369;"/><path d="M26.62 19.04c-1.04 0-2.02-.62-2.39-1.62l-1.26-3.36c-.23-.61-.2-1.27.08-1.86.29-.61.81-1.07 1.47-1.29l1.74-.58c1.3-.44 2.74.23 3.21 1.48l1.26 3.36c.23.61.2 1.27-.08 1.86-.29.61-.81 1.07-1.47 1.29l-1.74.58c-.27.09-.55.13-.82.13zm.47-6.85c-.06 0-.13.01-.19.03l-1.74.58c-.14.05-.25.14-.3.25-.03.07-.06.17-.01.3l1.26 3.36c.09.25.42.38.7.29l1.74-.58c.14-.05.25-.14.3-.25.03-.07.06-.17.01-.3l-1.26-3.36c-.07-.19-.28-.32-.51-.32zM5.94 39.02l-.81-1.83c.69-.3 1.62-.97 2.63-1.87l1.34 1.49c-.82.74-2.03 1.72-3.16 2.22z" style="fill: #003369;"/><path d="M13.16 32.11l-1.67-1.1c.62-.93 1.9-3.03 2.43-4.08l.56-1.11c.83-1.66 1.39-2.76 2.52-4.62.78-1.28 3.59-5.55 7.11-6.9l.72 1.87c-2.33.9-4.69 3.73-6.13 6.08-1.09 1.79-1.63 2.86-2.44 4.48l-.56 1.11c-.57 1.13-1.89 3.29-2.55 4.28z" style="fill: #003369;"/></g><path fill="#003369" d="M32.27 44.21c-1.4 0-2.81-.39-4.07-1.17-2.61-1.63-4.05-4.6-4.05-8.38v-1h2v1c0 2.17.54 5.08 3.11 6.68 2.24 1.39 4.97 1.12 6.97-.69 1.45-1.32 2.2-3.34 2.22-6v-1h2.01v1.01c-.03 3.24-.99 5.75-2.88 7.46a7.837 7.837 0 0 1-5.3 2.08z" style="fill: #003369;"/><g fill="#003369"><path d="M23.63 35.66h-.52c-1.12-.05-1.95-.93-1.94-2v-1.5c-.01-1.06.82-1.94 1.89-1.99h.72v2h-.68l.06 1.5h.46v1.99zM40.96 35.66v-2h.52l-.06-1.5h-.61v-1.99h.68c1.12.05 1.95.92 1.94 2v1.5c.01 1.06-.82 1.94-1.89 1.99h-.56z" style="fill: #003369;"/><path d="M23.1 33.66h18.25v2H23.1zM41.9 32.69H22.64l.16-1.14c.91-6.35 4.54-8.65 7.43-9.46l.54 1.93c-3.06.86-5 3.1-5.79 6.68h14.58c-.75-3.57-2.7-5.82-5.8-6.67l.53-1.93c2.93.81 6.59 3.11 7.44 9.47l.15 1.13z" style="fill: #003369;"/><path d="M23.79 30.69h16.96v2H23.79zM29.4 22.69h2v5.46h-2zM33.15 22.69h2v5.46h-2z" style="fill: #003369;"/><path d="M33.23 23.05c-.06-.07-.4-.25-.95-.25s-.89.18-.95.25c.02-.02.08-.11.08-.26h-2c0-1.13 1.24-1.99 2.87-1.99s2.87.85 2.87 1.99h-2c0 .14.06.24.08.26z" style="fill: #003369;"/></g><g fill="#003369"><path d="M21.294 6.093l1.414-1.414 3.09 3.09-1.414 1.415zM27.237 1.59l1.898-.633 1.372 4.118-1.898.632zM38.798 7.768l3.09-3.09 1.415 1.414-3.09 3.09zM34.096 5.07L35.469.953l1.897.633-1.373 4.117z" style="fill: #003369;"/></g><path fill="#003369" d="M38.08 19.04c-.27 0-.55-.04-.82-.13l-1.74-.58c-.66-.22-1.18-.68-1.47-1.29a2.36 2.36 0 0 1-.08-1.86l1.26-3.36c.47-1.25 1.91-1.92 3.21-1.48l1.74.58c.66.22 1.18.68 1.47 1.29.28.59.31 1.25.08 1.86l-1.26 3.36c-.37.99-1.35 1.62-2.39 1.62zm-1.92-2.61l1.74.58c.29.1.61-.03.7-.29l1.26-3.36c.05-.13.02-.23-.01-.3a.472.472 0 0 0-.3-.25l-1.74-.58c-.29-.1-.61.03-.7.29l-1.26 3.36c-.05.13-.02.23.01.3.06.12.16.21.3.25zM58.75 38.6c-1.12-.5-2.34-1.48-3.16-2.22l1.34-1.49c1 .9 1.94 1.57 2.63 1.87l-.81 1.83z" style="fill: #003369;"/><path fill="#003369" d="M51.55 32.11c-.66-.99-1.98-3.16-2.55-4.28l-.56-1.11c-.81-1.62-1.35-2.69-2.44-4.48-1.43-2.35-3.8-5.18-6.13-6.08l.72-1.87c3.52 1.35 6.34 5.63 7.11 6.9 1.14 1.86 1.69 2.96 2.52 4.62l.56 1.11c.54 1.06 1.8 3.13 2.43 4.08l-1.67 1.1z" style="fill: #003369;"/></svg>
