<svg xmlns="http://www.w3.org/2000/svg" data-name="Layer 1" viewBox="0 0 64 64"><path fill="none" stroke="#1d3763" stroke-miterlimit="10" stroke-width="2" d="M22.84 49.82h29.77a4.76 4.76 0 0 1 4.71 4l-27.06 5.97a10.5 10.5 0 0 1-5.9-.29L7.51 53.64a.59.59 0 0 0-.19 0L2 53.52V40.61h8.29a.67.67 0 0 0 .24 0l2.3-.79a14.7 14.7 0 0 1 5.57-.93 20 20 0 0 1 4.92.93l12.3 4A5.08 5.08 0 0 1 39.29 49"/><circle cx="46.58" cy="27.88" r="7.22" fill="none" stroke="#003369" stroke-miterlimit="10" stroke-width="2"/><path fill="none" stroke="#003369" stroke-miterlimit="10" stroke-width="2" d="M60.46 25.3a1.61 1.61 0 0 1-1.54-1.16 12.19 12.19 0 0 0-1-2.33 1.63 1.63 0 0 1 .26-1.92 1.58 1.58 0 0 0 0-2.25l-1.39-1.4a1.59 1.59 0 0 0-2.25 0 1.6 1.6 0 0 1-1.92.26 12.83 12.83 0 0 0-2.33-1 1.61 1.61 0 0 1-1.13-1.5 1.6 1.6 0 0 0-1.6-1.59h-2A1.59 1.59 0 0 0 44 14a1.62 1.62 0 0 1-1.16 1.54 12.56 12.56 0 0 0-2.34 1 1.62 1.62 0 0 1-1.91-.26 1.59 1.59 0 0 0-2.26 0l-1.39 1.39a1.59 1.59 0 0 0 0 2.25 1.62 1.62 0 0 1 .26 1.92 12.83 12.83 0 0 0-1 2.33 1.62 1.62 0 0 1-1.5 1.13 1.6 1.6 0 0 0-1.59 1.6v2a1.6 1.6 0 0 0 1.59 1.6 1.63 1.63 0 0 1 1.54 1.16 12.83 12.83 0 0 0 1 2.33 1.62 1.62 0 0 1-.26 1.92 1.59 1.59 0 0 0 0 2.25l1.4 1.4a1.59 1.59 0 0 0 2.25 0 1.62 1.62 0 0 1 1.92-.26 12.16 12.16 0 0 0 2.33 1A1.63 1.63 0 0 1 44 41.76a1.59 1.59 0 0 0 1.6 1.59h2a1.6 1.6 0 0 0 1.6-1.59 1.61 1.61 0 0 1 1.16-1.54 12.19 12.19 0 0 0 2.33-1 1.62 1.62 0 0 1 1.92.27 1.59 1.59 0 0 0 2.25 0l1.4-1.39a1.61 1.61 0 0 0 0-2.26A1.6 1.6 0 0 1 58 34a12.83 12.83 0 0 0 1-2.33 1.62 1.62 0 0 1 1.54-1.16 1.6 1.6 0 0 0 1.59-1.6v-2a1.6 1.6 0 0 0-1.67-1.61z"/><circle cx="21.07" cy="13.95" r="4.68" fill="none" stroke="#003369" stroke-miterlimit="10" stroke-width="2"/><path fill="none" stroke="#003369" stroke-miterlimit="10" stroke-width="2" d="M30.07 12.28a1 1 0 0 1-1-.75 8 8 0 0 0-.62-1.53 1 1 0 0 1 .17-1.25 1 1 0 0 0 0-1.46l-.9-.9a1.05 1.05 0 0 0-1.47 0 1.06 1.06 0 0 1-1.25.19A8.31 8.31 0 0 0 23.5 6a1.06 1.06 0 0 1-.76-1 1 1 0 0 0-1-1h-1.31a1 1 0 0 0-1 1 1 1 0 0 1-.76 1 8.31 8.31 0 0 0-1.51.63 1.06 1.06 0 0 1-1.24-.17 1 1 0 0 0-1.46 0l-.9.9a1 1 0 0 0 0 1.47A1.06 1.06 0 0 1 13.7 10a8.31 8.31 0 0 0-.63 1.51 1.05 1.05 0 0 1-1 .75 1 1 0 0 0-1 1v1.27a1 1 0 0 0 1 1 1.05 1.05 0 0 1 1 .75 8.71 8.71 0 0 0 .62 1.51 1 1 0 0 1-.16 1.24 1 1 0 0 0 0 1.47l.9.9a1 1 0 0 0 1.46 0 1.06 1.06 0 0 1 1.24-.17 8.4 8.4 0 0 0 1.52.63 1.05 1.05 0 0 1 .75 1 1 1 0 0 0 1 1h1.28a1 1 0 0 0 1-1 1 1 0 0 1 .76-1 8.31 8.31 0 0 0 1.56-.53 1.06 1.06 0 0 1 1.24.17 1.05 1.05 0 0 0 1.47 0l.9-.9a1 1 0 0 0 0-1.46 1 1 0 0 1-.17-1.25 8 8 0 0 0 .63-1.51 1 1 0 0 1 1-.75 1.05 1.05 0 0 0 1-1v-1.31a1.05 1.05 0 0 0-1-1.04z"/></svg>