<?xml version="1.0" encoding="UTF-8"?>
<svg xmlns="http://www.w3.org/2000/svg" data-name="Layer 1" viewBox="0 0 64 64"><path fill="none" stroke="#003369" stroke-width="2" d="M18.41 20.79a17 17 0 0 1 4.7-3.6c6.63-3.39 15.89-2.1 21.75 2.28 10.43 7.8 6.28 23.05-2.92 30-4.5 3.37-10 5.16-15.5 6.13a61.53 61.53 0 0 1-14.32 1.22 7.85 7.85 0 0 1-6.44-3.6C3 48.44 7.88 43 9.82 38.88a50.73 50.73 0 0 0 2.07-6.05c1.39-4.22 3.4-8.69 6.52-12.04z" style="stroke: #003369;"/><path fill="none" stroke="#003369" stroke-linecap="round" stroke-linejoin="round" stroke-width="2" d="M38.73 19.91s-.11.59.85.77a5 5 0 0 0 1.74 0" style="stroke: #003369;"/><path fill="none" stroke="#003369" stroke-linejoin="round" stroke-width="2" d="M37.83 7.15s6.37 5.48 1.67 13.93" style="stroke: #003369;"/><path fill="#003369" d="M45.66 13.49a16.25 16.25 0 0 1 9.2 6.72c2.76 4.51 3 10.71.71 18.51-.07-1.59-.17-3.27-.33-5-1-11.45-3.68-17.45-8.11-18.34-.86-.17-1-.48-1.47-1.93m-5.14-3c4.51.73 1.88 6 6.22 6.9 8.18 1.65 6.89 31.89 6.89 31.89 17.68-37.71-13.11-38.76-13.11-38.76z" style="fill: #003369;"/><path fill="none" stroke="#003369" stroke-linecap="round" stroke-width="2" d="M31.48 20s-8.3 1-11.08 7.78M18.8 31a10 10 0 0 0-.85 3.8" style="stroke: #003369;"/></svg>
