<?xml version="1.0" encoding="UTF-8"?>
<svg xmlns="http://www.w3.org/2000/svg" aria-describedby="desc" aria-labelledby="title" viewBox="0 0 64 64"><path fill="none" stroke="#003369" stroke-width="2" d="M26.5 34v28m-10 0h20" data-name="layer2" style="stroke: #003369;"/><path fill="none" stroke="#003369" stroke-width="2" d="M33.5 12a11 11 0 1 1 7 11.3" data-name="layer1" style="stroke: #003369;"/><path fill="none" stroke="#003369" stroke-width="2" d="M44.1 18a18.9 18.9 0 0 0 .4-4v-2h-36v2a18.9 18.9 0 0 0 .4 4" data-name="layer2" style="stroke: #003369;"/><path fill="none" stroke="#003369" stroke-width="2" d="M8.9 18c.8 3.6 2.8 5.3 5.6 6s5 2.8 5.4 4.8 1.4 5.2 6.6 5.2c5.2 0 6.2-3.3 6.7-5.3s1.7-3.9 5.4-4.8 4.8-2.4 5.6-6z" data-name="layer1" style="stroke: #003369;"/></svg>
