<?xml version="1.0" encoding="UTF-8"?>
<svg xmlns="http://www.w3.org/2000/svg" aria-describedby="desc" aria-labelledby="title" viewBox="0 0 64 64"><path fill="none" stroke="#003369" stroke-miterlimit="10" stroke-width="2" d="M42.9 43.3A61 61 0 0 0 48 49s14-13.4 14-26a14 14 0 0 0-23.3-10.5m-13.5 0A14 14 0 0 0 2 23c0 12.6 14 26 14 26a61 61 0 0 0 4.9-5.5" data-name="layer2" style="stroke: #003369;"/><path fill="none" stroke="#003369" stroke-miterlimit="10" stroke-width="2" d="M31.9 11a16 16 0 0 0-16 16c0 14.4 16 32 16 32s16-17.6 16-32a16 16 0 0 0-16-16z" data-name="layer1" style="stroke: #003369;"/><circle cx="32" cy="27" r="6" fill="none" stroke="#003369" stroke-miterlimit="10" stroke-width="2" data-name="layer1" style="stroke: #003369;"/></svg>
