<?xml version="1.0" encoding="UTF-8"?>
<svg xmlns="http://www.w3.org/2000/svg" data-name="Layer 1" viewBox="0 0 64 64"><path fill="none" stroke="#003369" stroke-miterlimit="10" stroke-width="2" d="M35.22 38A2.2 2.2 0 0 0 38 40c2.18-.38 3.18-2.4 4-4.45.91-2.23 1.83-3.67 1.33-6.53a5 5 0 0 0-5.76-3.89c-3.63.44-4.44 3-4 5.59l.61 3.28" style="stroke: #003369;"/><path fill="none" stroke="#003369" stroke-miterlimit="10" stroke-width="2" d="M19.91 54.74L27.6 44.1l8.87-4.25M21 34.2l6.6 9.9" style="stroke: #003369;"/><path fill="none" stroke="#003369" stroke-miterlimit="10" stroke-width="2" d="M14.91 13.3A15.77 15.77 0 0 0 10 24.49c0 2.42 3.24 3.61-1.69 10.43-.6.83-1.61 1.79-1.61 5.53s2.8 9 5.08 11.89a6.72 6.72 0 0 0 5.69 2.76c2.3 0 9-2.2 9-2.2l1.1 5.5" style="stroke: #003369;"/><path fill="none" stroke="#003369" stroke-miterlimit="10" stroke-width="2" d="M8.9 34.2H21l12.44-5.25" style="stroke: #003369;"/><path fill="none" stroke="#003369" stroke-miterlimit="10" stroke-width="2" d="M37.65 40c0 11.14-5.65 14-5.65 14a8.74 8.74 0 0 0 7.7 4.4c7.7 0 17.6-5.58 17.6-26.4 0-16.5-9.9-26.4-24.23-26.4-17.56 0-20 4-18.16 7.64 1.49 3 7 9.52 14.94 13.26" style="stroke: #003369;"/></svg>
