<?xml version="1.0" encoding="UTF-8"?>
<svg xmlns="http://www.w3.org/2000/svg" data-name="Layer 1" viewBox="0 0 64 64"><path fill="none" stroke="#003369" stroke-miterlimit="10" stroke-width="2" d="M17.53 12.17a17.24 17.24 0 0 0-5.33 12.32c0 2.42 3.24 3.61-1.69 10.43-.6.83-1.61 1.79-1.61 5.53s2.8 9 5.08 11.89a6.72 6.72 0 0 0 5.69 2.76c2.3 0 9-2.2 9-2.2l1.1 5.5M37.13 37.87A2.84 2.84 0 0 0 40.41 40c2.17-.38 3.18-2.4 4-4.45.91-2.23 1.82-3.67 1.33-6.53A5 5 0 0 0 40 25.1c-3.64.44-4.45 3-4 5.59l.58 3.31" style="stroke: #003369;"/><path fill="none" stroke="#003369" stroke-miterlimit="10" stroke-width="2" d="M11.1 34.2h12.1l12.61-6.24M22.11 54.74L29.8 44.1l8.07-4.62M23.2 34.2l6.6 9.9" style="stroke: #003369;"/><path fill="none" stroke="#003369" stroke-miterlimit="10" stroke-width="2" d="M34.2 24.3a3.3 3.3 0 0 0-3.3-3.3h-1.7a3.3 3.3 0 0 1-3.26-3.77l.56-3.93s-5.52-.6-8.8-1.1-3-6.6 1.37-6.6H35.3c11.51 0 19.8 6.84 19.8 19.18 0 10.46-7.7 17.65-7.7 22.7 0 2.3 2.2 8.72 2.2 8.72M47.52 46.34L44.1 41.9" style="stroke: #003369;"/></svg>
