<?xml version="1.0" encoding="UTF-8"?>
<svg xmlns="http://www.w3.org/2000/svg" aria-describedby="desc" aria-labelledby="title" viewBox="0 0 64 64"><rect width="50" height="60" x="7" y="2" fill="none" stroke="#003369" stroke-miterlimit="10" stroke-width="2" data-name="layer1" rx="4" ry="4" style="stroke: #003369;"/><rect width="16" height="8" x="13" y="7" fill="none" stroke="#003369" stroke-miterlimit="10" stroke-width="2" data-name="layer2" rx="4" ry="4" style="stroke: #003369;"/><rect width="16" height="8" x="13" y="21" fill="none" stroke="#003369" stroke-miterlimit="10" stroke-width="2" data-name="layer2" rx="4" ry="4" style="stroke: #003369;"/><rect width="16" height="8" x="13" y="35" fill="none" stroke="#003369" stroke-miterlimit="10" stroke-width="2" data-name="layer2" rx="4" ry="4" style="stroke: #003369;"/><rect width="16" height="8" x="13" y="49" fill="none" stroke="#003369" stroke-miterlimit="10" stroke-width="2" data-name="layer2" rx="4" ry="4" style="stroke: #003369;"/><rect width="16" height="8" x="35" y="7" fill="none" stroke="#003369" stroke-miterlimit="10" stroke-width="2" data-name="layer2" rx="4" ry="4" style="stroke: #003369;"/><rect width="16" height="8" x="35" y="21" fill="none" stroke="#003369" stroke-miterlimit="10" stroke-width="2" data-name="layer2" rx="4" ry="4" style="stroke: #003369;"/><rect width="16" height="8" x="35" y="35" fill="none" stroke="#003369" stroke-miterlimit="10" stroke-width="2" data-name="layer2" rx="4" ry="4" style="stroke: #003369;"/><rect width="16" height="8" x="35" y="49" fill="none" stroke="#003369" stroke-miterlimit="10" stroke-width="2" data-name="layer1" rx="4" ry="4" style="stroke: #003369;"/><path fill="none" stroke="#003369" stroke-miterlimit="10" stroke-width="2" d="M21 7v8m22-8v8m-22 6v8m22-8v8m-22 6v8m22-8v8m-22 6v8" data-name="layer2" style="stroke: #003369;"/><path fill="none" stroke="#003369" stroke-miterlimit="10" stroke-width="2" d="M43 49v8" data-name="layer1" style="stroke: #003369;"/></svg>
