<?xml version="1.0" encoding="UTF-8"?>
<svg xmlns="http://www.w3.org/2000/svg" aria-describedby="desc" aria-labelledby="title" viewBox="0 0 64 64"><circle cx="31" cy="19.994" r="2" fill="none" stroke="#003369" stroke-miterlimit="10" stroke-width="2" data-name="layer2" style="stroke: #003369;"/><circle cx="35" cy="31.994" r="2" fill="none" stroke="#003369" stroke-miterlimit="10" stroke-width="2" data-name="layer2" style="stroke: #003369;"/><circle cx="22" cy="47.994" r="2" fill="none" stroke="#003369" stroke-miterlimit="10" stroke-width="2" data-name="layer2" style="stroke: #003369;"/><circle cx="38" cy="50.994" r="4" fill="none" stroke="#003369" stroke-miterlimit="10" stroke-width="2" data-name="layer2" style="stroke: #003369;"/><path fill="none" stroke="#003369" stroke-miterlimit="10" stroke-width="2" d="M47.962 40l-7.439-14.95A5 5 0 0 1 40 22.819V1.994H24V22.82a5 5 0 0 1-.523 2.227L16.04 40" data-name="layer1" style="stroke: #003369;"/><path fill="none" stroke="#003369" stroke-miterlimit="10" stroke-width="2" d="M53.064 50.251L47.962 40H16.04l-5.1 10.254a7.943 7.943 0 0 0-.844 4.98 8.184 8.184 0 0 0 8.17 6.764h27.443a8.2 8.2 0 0 0 8.271-7.44 7.936 7.936 0 0 0-.916-4.307z" data-name="layer2" style="stroke: #003369;"/><path fill="none" stroke="#003369" stroke-miterlimit="10" stroke-width="2" d="M21 1.994h22" data-name="layer1" style="stroke: #003369;"/></svg>
