<?xml version="1.0" encoding="UTF-8"?>
<svg xmlns="http://www.w3.org/2000/svg" aria-describedby="desc" aria-labelledby="title" viewBox="0 0 64 64"><path fill="none" stroke="#003369" stroke-miterlimit="10" stroke-width="2" d="M47.636 8.364a8.054 8.054 0 0 0-11.378 0l-3.982 3.982m-10.809 5.121l17.066 17.066" data-name="layer2" style="stroke: #003369;"/><path fill="none" stroke="#003369" stroke-miterlimit="10" stroke-width="2" d="M38 35.071l12.48-12.484a12.1 12.1 0 0 0 0-17.067 12.1 12.1 0 0 0-17.067 0L9.52 29.413a12.1 12.1 0 0 0 0 17.067A12.113 12.113 0 0 0 23 48.949" data-name="layer2" style="stroke: #003369;"/><path fill="none" stroke="#003369" stroke-miterlimit="10" stroke-width="2" d="M30.436 36.753l17.402 17.359M33.516 35.729l17.266 17.224" data-name="layer1" style="stroke: #003369;"/><ellipse cx="40" cy="45.125" fill="none" stroke="#003369" stroke-miterlimit="10" stroke-width="2" data-name="layer1" rx="17" ry="10.125" style="stroke: #003369;"/><path fill="none" stroke="#003369" stroke-miterlimit="10" stroke-width="2" d="M23 45.125v6.75C23 57.467 30.611 62 40 62s17-4.533 17-10.125v-6.75" data-name="layer1" style="stroke: #003369;"/></svg>
