<?xml version="1.0" encoding="UTF-8"?>
<svg xmlns="http://www.w3.org/2000/svg" data-name="Layer 1" viewBox="0 0 64 64"><circle cx="42.8" cy="15.12" r="3.6" fill="none" stroke="#1d3763" stroke-miterlimit="10" stroke-width="2" style="stroke: #003369;"/><path fill="none" stroke="#1d3763" stroke-miterlimit="10" stroke-width="2" d="M39.2 34.32v7.8a1.8 1.8 0 0 0 1.8 1.8h3.6a1.8 1.8 0 0 0 1.8-1.8v-7.8h1.8a1.8 1.8 0 0 0 1.8-1.8v-8.4a1.81 1.81 0 0 0-1.8-1.8H37.4a1.81 1.81 0 0 0-1.8 1.8v.6" style="stroke: #003369;"/><circle cx="21.2" cy="15.12" r="3.6" fill="none" stroke="#1d3763" stroke-miterlimit="10" stroke-width="2" style="stroke: #003369;"/><path fill="none" stroke="#1d3763" stroke-miterlimit="10" stroke-width="2" d="M28.4 24.12a1.81 1.81 0 0 0-1.8-1.8H15.8a1.81 1.81 0 0 0-1.8 1.8v8.4a1.8 1.8 0 0 0 1.8 1.8h1.8v7.8a1.8 1.8 0 0 0 1.8 1.8H23a1.8 1.8 0 0 0 1.8-1.8v-7.8" style="stroke: #003369;"/><circle cx="32" cy="17.52" r="3.6" fill="none" stroke="#1d3763" stroke-miterlimit="10" stroke-width="2" style="stroke: #003369;"/><path fill="none" stroke="#1d3763" stroke-miterlimit="10" stroke-width="2" d="M37.4 24.72H26.6a1.81 1.81 0 0 0-1.8 1.8v8.4a1.8 1.8 0 0 0 1.8 1.8h1.8v7.8a1.8 1.8 0 0 0 1.8 1.8h3.6a1.8 1.8 0 0 0 1.8-1.8h0v-7.8h1.8a1.8 1.8 0 0 0 1.8-1.8v-8.4a1.81 1.81 0 0 0-1.8-1.8zM12.62 4.5v8.39h-8.4m8.4 0L2.76 3M59.78 12.89h-8.4V4.5M61.24 3l-9.86 9.86M4.22 51.11h8.4v8.39M2.76 61l9.86-9.86M51.38 59.5v-8.39h8.4m-8.4 0L61.24 61" style="stroke: #003369;"/><path fill="none" stroke="#1d3763" stroke-miterlimit="10" stroke-width="2" d="M46.4 34.54C54.56 36 60 39.11 60 42c0 3.8-12.5 8-28 8S4 46.4 4 42c0-3.3 5.29-6.2 13.25-7.48" style="stroke: #003369;"/></svg>
