<?xml version="1.0" encoding="UTF-8"?>
<svg xmlns="http://www.w3.org/2000/svg" data-name="Layer 1" viewBox="0 0 64 64"><path fill="none" stroke="#1d3763" stroke-miterlimit="10" stroke-width="2" d="M12.62 4.5v8.39h-8.4m8.4 0L2.76 3M59.78 12.89h-8.4V4.5M61.24 3l-9.86 9.86M4.22 51.11h8.4v8.39M2.76 61l9.86-9.86M51.38 59.5v-8.39h8.4m-8.4 0L61.24 61" style="stroke: #003369;"/><circle cx="32.31" cy="10.2" r="4.2" fill="none" stroke="#1d3763" stroke-miterlimit="10" stroke-width="2" style="stroke: #003369;"/><path fill="none" stroke="#1d3763" stroke-miterlimit="10" stroke-width="2" d="M36.51 36.94c8.82.56 15.4 2.8 15.4 5.46S43.16 48 32.31 48s-19.6-2.52-19.6-5.6 6.58-4.9 15.4-5.46" style="stroke: #003369;"/><path fill="none" stroke="#1d3763" stroke-miterlimit="10" stroke-width="2" d="M39.31 17.2h-14a1.4 1.4 0 0 0-1.4 1.4V27a1.4 1.4 0 0 0 1.4 1.4h2.8v10.5a2.1 2.1 0 0 0 2.1 2.1h4.2a2.1 2.1 0 0 0 2.1-2.1V28.4h2.8a1.4 1.4 0 0 0 1.4-1.4v-8.4a1.4 1.4 0 0 0-1.4-1.4z" style="stroke: #003369;"/></svg>
