<?xml version="1.0" encoding="UTF-8"?>
<svg xmlns="http://www.w3.org/2000/svg" viewBox="0 0 64 64"><circle cx="42.8" cy="18.2" r="3.6" fill="none" stroke="#1d3763" stroke-miterlimit="10" stroke-width="2" style="stroke: #003369;"/><path fill="none" stroke="#1d3763" stroke-miterlimit="10" stroke-width="2" d="M39.2 37.4v7.8c0 1 .8 1.8 1.8 1.8h3.6c1 0 1.8-.8 1.8-1.8v-7.8h1.8c1 0 1.8-.8 1.8-1.8v-8.4c0-1-.8-1.8-1.8-1.8H37.4c-1 0-1.8.8-1.8 1.8v.6" style="stroke: #003369;"/><circle cx="21.2" cy="18.2" r="3.6" fill="none" stroke="#1d3763" stroke-miterlimit="10" stroke-width="2" style="stroke: #003369;"/><path fill="none" stroke="#1d3763" stroke-miterlimit="10" stroke-width="2" d="M28.4 27.2c0-1-.8-1.8-1.8-1.8H15.8c-1 0-1.8.8-1.8 1.8v8.4c0 1 .8 1.8 1.8 1.8h1.8v7.8c0 1 .8 1.8 1.8 1.8H23c1 0 1.8-.8 1.8-1.8v-7.8" style="stroke: #003369;"/><circle cx="32" cy="20.6" r="3.6" fill="none" stroke="#1d3763" stroke-miterlimit="10" stroke-width="2" style="stroke: #003369;"/><path fill="none" stroke="#1d3763" stroke-miterlimit="10" stroke-width="2" d="M37.4 27.8H26.6c-1 0-1.8.8-1.8 1.8V38c0 1 .8 1.8 1.8 1.8h1.8v7.8c0 1 .8 1.8 1.8 1.8h3.6c1 0 1.8-.8 1.8-1.8v-7.8h1.8c1 0 1.8-.8 1.8-1.8v-8.4c0-1-.8-1.8-1.8-1.8zM12.6 4.5v8.4H4.2m8.4 0L2.8 3M59.8 12.9h-8.4V4.5M61.2 3l-9.9 9.9M4.2 51.1h8.4v8.4M2.8 61l9.9-9.9M51.4 59.5v-8.4h8.4m-8.4 0l9.9 9.9" style="stroke: #003369;"/></svg>
