<?xml version="1.0" encoding="UTF-8"?>
<svg xmlns="http://www.w3.org/2000/svg" aria-describedby="desc" aria-labelledby="title" viewBox="0 0 64 64"><path fill="none" stroke="#003369" stroke-miterlimit="10" stroke-width="2" d="M62 12a4 4 0 0 1-4 4H6a4 4 0 0 1-4-4 4 4 0 0 1 4-4h52a4 4 0 0 1 4 4zm0 20a4 4 0 0 1-4 4H6a4 4 0 0 1-4-4 4 4 0 0 1 4-4h52a4 4 0 0 1 4 4z" data-name="layer2" style="stroke: #003369;"/><path fill="none" stroke="#003369" stroke-miterlimit="10" stroke-width="2" d="M62 52a4 4 0 0 1-4 4H6a4 4 0 0 1-4-4 4 4 0 0 1 4-4h52a4 4 0 0 1 4 4z" data-name="layer1" style="stroke: #003369;"/></svg>
