<?xml version="1.0" encoding="UTF-8"?>
<svg xmlns="http://www.w3.org/2000/svg" aria-describedby="desc" aria-labelledby="title" viewBox="0 0 64 64"><path fill="none" stroke="#003369" stroke-miterlimit="10" stroke-width="2" d="M20 14A12 12 0 0 1 32 2a12 12 0 0 1 12 12v19a12 12 0 0 1-12 12 12 12 0 0 1-12-12z" data-name="layer1" style="stroke: #003369;"/><path fill="none" stroke="#003369" stroke-miterlimit="10" stroke-width="2" d="M52 26.3V33a20 20 0 0 1-20 20 20 20 0 0 1-20-20v-6.7M52 29H12m20 24v9" data-name="layer2" style="stroke: #003369;"/><path fill="none" stroke="#003369" stroke-miterlimit="10" stroke-width="2" d="M44 20h-8m7.8-8H36m-8 0h-7.8m7.8 8h-8" data-name="layer1" style="stroke: #003369;"/></svg>
