<?xml version="1.0" encoding="UTF-8"?>
<svg xmlns="http://www.w3.org/2000/svg" aria-describedby="desc" aria-labelledby="title" viewBox="0 0 64 64"><path fill="none" stroke="#003369" stroke-miterlimit="10" stroke-width="2" d="M60.812 61a.506.506 0 0 0 .449-.73A7.491 7.491 0 0 0 54.5 56h-45a7.491 7.491 0 0 0-6.762 4.27.506.506 0 0 0 .449.73z" data-name="layer2" style="stroke: #003369;"/><circle cx="14" cy="43" r="6" fill="none" stroke="#003369" stroke-miterlimit="10" stroke-width="2" data-name="layer2" style="stroke: #003369;"/><path fill="none" stroke="#003369" stroke-miterlimit="10" stroke-width="2" d="M18.31 38.831a13 13 0 0 1 4.958-13.276M42.53 42a12.995 12.995 0 0 1-22.5.977m-4.421 5.8A20.005 20.005 0 0 0 50.084 42m-31.8-21.434A19.959 19.959 0 0 0 11 36q0 .89.076 1.76M11 48.195V56" data-name="layer2" style="stroke: #003369;"/><path fill="none" stroke="#003369" stroke-miterlimit="10" stroke-width="2" d="M31 42h28" data-name="layer1" style="stroke: #003369;"/><rect width="11.719" height="27.345" x="20.14" y="6.327" fill="none" stroke="#003369" stroke-miterlimit="10" stroke-width="2" data-name="layer1" rx="1.953" ry="1.953" transform="rotate(-45 26 20)" style="stroke: #003369;"/><path fill="none" stroke="#003369" stroke-miterlimit="10" stroke-width="2" d="M19.207 7.47L15.535 3.8a.5.5 0 0 0-.707 0L9.8 8.827a.5.5 0 0 0 0 .707l3.672 3.672" data-name="layer1" style="stroke: #003369;"/></svg>
