<?xml version="1.0" encoding="UTF-8"?>
<svg xmlns="http://www.w3.org/2000/svg" viewBox="0 0 64 64"><path fill="none" stroke="#003369" stroke-miterlimit="10" stroke-width="2" d="M5.3 30.59c0-15.3 11.82-27.7 26.39-27.7s26.39 12.4 26.39 27.69" style="stroke: #003369;"/><rect width="55.91" height="4.73" x="4.04" y="30.59" fill="none" stroke="#003369" stroke-miterlimit="10" stroke-width="2" rx=".96" ry=".96" style="stroke: #003369;"/><path fill="none" stroke="#003369" stroke-width="2" d="M17.39 7.31c4.2-.3 8.18 5.32 12.39 5.43 1.73.05 3.38-.84 5.11-.86 2.63-.02 4.9 1.96 7.51 2.26 2.34.27 5.44-2.4 6.59-4.45M9.9 14.97c.7.88 2.96.62 4.07.73s2.39.39 2.91 1.38c.37.71.22 1.6.58 2.31.47.93 1.59 1.25 2.5 1.75.21.12.43.25.54.46.36.66-.44 1.37-1.17 1.56-1.56.4-3.19-.04-4.76-.34s-3.33-.43-4.67.45c-.96.63-3.05 2.4-4.19 2.49M34.12 18.62c-1.18.29-2.42.28-3.64.2-.93-.06-1.88-.21-2.79-.03s-1.83.77-2.06 1.68c-.32 1.27.77 2.42 1.77 3.26.66.55 1.34 1.1 2.14 1.42 2.4.96 5.16-.4 7.68.16.85.19 1.63.59 2.48.77 1.27.27 2.74-.06 3.53-1.09s.57-2.79-.6-3.36c-.29-.14-.62-.21-.86-.42-.36-.31-.43-.83-.6-1.28-.44-1.11-1.63-1.76-2.81-1.9s-3.09.3-4.24.59zM54.8 17.21c-1.13.25-2.81.74-3.73 1.43-.29.22-.58.48-.67.83-.07.28 0 .57.07.85l.86 3.45c.12.46.25.96.61 1.26.52.43 1.27.33 1.95.3a7 7 0 0 1 3.77.93" style="stroke: #003369;"/><path fill="none" stroke="#003369" stroke-miterlimit="10" stroke-width="2" d="M26.53 58.85C14.78 56.59 7.1 44.83 7.1 35.32M56.43 35.32c0 9.68-7.67 21.56-19.57 23.53" style="stroke: #003369;"/><rect width="10.33" height="4.21" x="26.53" y="56.89" fill="none" stroke="#003369" stroke-miterlimit="10" stroke-width="2" rx="1.19" ry="1.19" style="stroke: #003369;"/><path fill="none" stroke="#003369" stroke-miterlimit="10" stroke-width="2" d="M26.53 58.85c-10.51-7.63-15.52-14.03-16.31-23.53M36.86 58.85c10.51-7.63 15.77-14.03 16.55-23.53" style="stroke: #003369;"/></svg>
