<?xml version="1.0" encoding="UTF-8"?>
<svg xmlns="http://www.w3.org/2000/svg" viewBox="0 0 64 64"><path fill="none" stroke="#003369" stroke-width="2" d="M57.24 21.99c1.31 3.33 1.2 5.7 1.2 5.7L47.5 30.06l-4.54 4.31-7.43-.43-4.75-3.01c-6.19-1.08-7.44 3.45-7.44 3.45l-1.65 8.4c-2.06 6.03-7.02 3.45-7.02 3.45l-7.01-3.01c-4.74-16.8 0-25.2 0-25.2C18.82-1.16 40.67 6.37 40.67 6.37c3.95 1.47 6.8 2.84 9.04 5.02 0 0 5.22 4.71 7.53 10.6zM21.93 41.3l6.47 4.73M38.71 34.12l-3.86 11.91M27.91 46.03h7.07V51h-7.07zM32 50.99v8.1" style="stroke: #003369;"/><path fill="none" stroke="#003369" stroke-width="2" d="M12.52 11.77c1.08 1.39 2.87 2.73 2.38 4.14-.21.62-.65 1.23-.48 1.86.1.39.43.68.78.86.91.45 2.01.25 2.92-.2s1.69-1.11 2.56-1.63a9.181 9.181 0 0 1 5.44-1.26c.39.03.79.1 1.11.32.36.26.55.69.79 1.07.47.77 1.21 1.41 2.09 1.61s1.9-.13 2.38-.89c.83-1.31-.11-3.26.83-4.48.94-1.21 3.27-1.06 3.65-2.55.28-1.09-.91-2.05-2.03-2.19s-2.25.2-3.37.07-3.44-2.4-3.2-3.5M5.85 24.55c1.46 1.29 4.62 4.06 7.38 3.88 1.26-.08 2.48-.48 3.74-.65s2.63-.08 3.63.69 1.4 2.39.56 3.33c-.79.87-2.15.79-3.33.74-1.09-.05-2.19-.01-3.27.11-.38.04-.79.11-1.07.37-.71.66-.12 1.96-.69 2.74-.43.6-1.3.62-2.04.57-.56-.04-1.21-.12-1.52-.6-.16-.25-.19-.57-.26-.86-.35-1.4-1.85-1.95-3.21-1.46M31.36 31.29c-.48-1.17-.97-3.39-.57-4.59.4-1.2 1.63-1.98 2.88-2.13s2.51.25 3.64.8c.93.45 1.87 1.03 2.9.95.98-.07 1.81-.74 2.75-1.07s2.25-.1 2.47.86c.14.64-.3 1.27-.82 1.67s-1.15.66-1.62 1.11c-.64.61-.92 1.48-1.19 2.32-.26.81-.34 2.35-.11 3.08M46.6 9.06c-.06 1.14-1.83 2.62-2.75 3.3s-1.88 1.67-1.61 2.78c.26 1.07 1.53 1.54 2.64 1.62s2.29-.05 3.23.53c.23.14.44.33.55.57.12.26.11.55.1.83-.03 1.04-.05 2.12.36 3.07s1.41 1.74 2.44 1.56c1.35-.24 3.93-2.03 5.28-2.26" style="stroke: #003369;"/></svg>
