<?xml version="1.0" encoding="UTF-8"?>
<svg xmlns="http://www.w3.org/2000/svg" aria-describedby="desc" aria-labelledby="title" viewBox="0 0 64 64"><path fill="none" stroke="#003369" stroke-miterlimit="10" stroke-width="2" d="M6.88 6.878a3 3 0 0 1 4.242.001L24 20.46V15a3 3 0 0 1 6 0v15H15a3 3 0 0 1 0-6h4.092L6.878 11.121a3 3 0 0 1 .001-4.243z" data-name="layer2" style="stroke: #003369;"/><path fill="none" stroke="#003369" stroke-miterlimit="10" stroke-width="2" d="M52 37a3 3 0 0 1-3 3h-4.758l12.88 12.879a3 3 0 1 1-4.243 4.242L40 44.243V49a3 3 0 0 1-6 0V34h15a3 3 0 0 1 3 3z" data-name="layer1" style="stroke: #003369;"/></svg>
