<?xml version="1.0" encoding="UTF-8"?>
<svg xmlns="http://www.w3.org/2000/svg" viewBox="0 0 64 64"><path fill="none" stroke="#003369" stroke-miterlimit="10" stroke-width="2" d="M61.09 2.13l-8.54 3.4-32.78 32.9 5.89 5.87 32.78-32.91 3.36-8.56c.17-.44-.27-.88-.71-.7zM31.46 26.69l5.89 5.87M34.4 23.74l5.89 5.87" style="stroke: #003369;"/><path fill="none" stroke="#003369" stroke-miterlimit="10" stroke-width="2" d="M29.89 28.27l-12.2-3.14-2.47 2.48 7.7 7.66 6.97-7zM35.79 34.14l3.18 12.19-2.46 2.48-7.7-7.67 6.98-7zM25.66 44.3l-5.89-5.87-4.69 2.19-6.49 6.51 8.42 8.39L23.5 49l2.16-4.7z" style="stroke: #003369;"/><path fill="none" stroke="#003369" stroke-miterlimit="10" stroke-width="2" d="M14.56 41.14L4.09 37.76 2.16 39.7l6.95 6.91 5.45-5.47zM22.98 49.52l3.42 10.46-1.93 1.93L17.53 55l5.45-5.48zM15.06 40.64l8.42 8.38M10.035 48.568l5.52 5.497-2.484 2.494-5.52-5.496zM52.51 5.56l5.89 5.86" style="stroke: #003369;"/></svg>
