<?xml version="1.0" encoding="UTF-8"?>
<svg xmlns="http://www.w3.org/2000/svg" aria-describedby="desc" aria-labelledby="title" viewBox="0 0 64 64"><path fill="none" stroke="#003369" stroke-miterlimit="10" stroke-width="2" d="M10 20v40a2 2 0 0 1-2 2 2 2 0 0 1-2-2V20m0-8V4a2 2 0 0 1 2-2 2 2 0 0 1 2 2v8m24 22v26a2 2 0 0 1-2 2 2 2 0 0 1-2-2V34m0-8V4a2 2 0 0 1 2-2 2 2 0 0 1 2 2v22m24 32v2a2 2 0 0 1-2 2 2 2 0 0 1-2-2v-2m0-8V4a2 2 0 0 1 2-2 2 2 0 0 1 2 2v46" data-name="layer2" style="stroke: #003369;"/><path fill="none" stroke="#003369" stroke-miterlimit="10" stroke-width="2" d="M2 12h12v8H2zm48 38h12v8H50zM26 26h12v8H26z" data-name="layer1" style="stroke: #003369;"/></svg>
