<?xml version="1.0" encoding="UTF-8"?>
<svg xmlns="http://www.w3.org/2000/svg" aria-describedby="desc" aria-labelledby="title" viewBox="0 0 64 64"><path fill="none" stroke="#003369" stroke-miterlimit="10" stroke-width="2" d="M2 49.5V16.2S6 12 18 12s15.2 6 28 6a63.4 63.4 0 0 0 16-2.5v34S57.6 52 48 52s-17.2-6-28-6a44.8 44.8 0 0 0-18 3.5z" data-name="layer1" style="stroke: #003369;"/><path fill="none" stroke="#003369" stroke-miterlimit="10" stroke-width="2" d="M41.9 31.6c1 5.5-2.7 10-8.1 10s-10.6-4.5-11.6-10 2.7-10 8.1-10S41 26 41.9 31.6z" data-name="layer2" style="stroke: #003369;"/><path fill="none" stroke="#003369" stroke-miterlimit="10" stroke-width="2" d="M11.9 12.4A10 10 0 0 1 2 24m0 14a10 10 0 0 1 9.9 8.7M62 26a10 10 0 0 1-9.9-8.4m.1 34.2A10.1 10.1 0 0 1 52 50a10 10 0 0 1 10-10" data-name="layer1" style="stroke: #003369;"/></svg>
