<?xml version="1.0" encoding="UTF-8"?>
<svg xmlns="http://www.w3.org/2000/svg" aria-describedby="desc" aria-labelledby="title" viewBox="0 0 64 64"><path fill="none" stroke="#003369" stroke-miterlimit="10" stroke-width="2" d="M38 18s18 14 18 34a10 10 0 0 1-10 10H18A10 10 0 0 1 8 52c0-20 18-34 18-34S14 7.6 14 4s8 2 12 2c5.7 0 6.3-4 10-4s4.1 4.1 10 4.1c2.2 0-2 6-8 11.9z" data-name="layer2" style="stroke: #003369;"/><path fill="none" stroke="#003369" stroke-miterlimit="10" stroke-width="2" d="M26 18h13a19.2 19.2 0 0 0 13-4m-2 8a6.5 6.5 0 0 1 6 3" data-name="layer2" style="stroke: #003369;"/><path fill="none" stroke="#003369" stroke-miterlimit="10" stroke-width="2" d="M20 38h14m-14 6h14m4-16h-1.7A13.4 13.4 0 0 0 23 41c0 7.1 6.2 13 13.3 13H38" data-name="layer1" style="stroke: #003369;"/></svg>
