<?xml version="1.0" encoding="UTF-8"?>
<svg xmlns="http://www.w3.org/2000/svg" aria-describedby="desc" aria-labelledby="title" viewBox="0 0 64 64"><path fill="none" stroke="#003369" stroke-miterlimit="10" stroke-width="2" d="M42 22a20 20 0 1 1-20 20" data-name="layer1" style="stroke: #003369;"/><circle cx="22" cy="22.001" r="20" fill="none" stroke="#003369" stroke-miterlimit="10" stroke-width="2" data-name="layer2" style="stroke: #003369;"/><path fill="none" stroke="#003369" stroke-miterlimit="10" stroke-width="2" d="M26.949 17a5.006 5.006 0 0 0-4.932-4.167c-2.762 0-5 1.822-5 4.583s2.5 4.012 5 4.584 5 1.822 5 4.584-2.238 4.584-5 4.584a5 5 0 0 1-5-5" style="stroke: #003369;"/><path fill="none" stroke="#003369" stroke-miterlimit="10" stroke-width="2" d="M22.018 12.832v-2.831m0 23.998v-2.832" data-name="layer2" style="stroke: #003369;"/><path fill="none" stroke="#003369" stroke-miterlimit="10" stroke-width="2" d="M42 53.999v-2.834" data-name="layer1" style="stroke: #003369;"/><path fill="none" stroke="#003369" stroke-miterlimit="10" stroke-width="2" d="M37 46.165a5 5 0 0 0 5 5c2.762 0 5-1.822 5-4.582S44.5 42.562 42 42a9.814 9.814 0 0 1-2.887-1.1" style="stroke: #003369;"/><path fill="none" stroke="#003369" stroke-miterlimit="10" stroke-width="2" d="M46.93 37a4.993 4.993 0 0 0-1.535-2.835" data-name="layer1" style="stroke: #003369;"/></svg>
