<?xml version="1.0" encoding="UTF-8"?>
<svg xmlns="http://www.w3.org/2000/svg" aria-describedby="desc" aria-labelledby="title" viewBox="0 0 64 64"><path fill="none" stroke="#003369" stroke-miterlimit="10" stroke-width="2" d="M41.6 37.6l-10 12.5h8L30 62" data-name="layer2" style="stroke: #003369;"/><path fill="none" stroke="#003369" stroke-miterlimit="10" stroke-width="2" d="M17.7 31.1A10 10 0 1 1 31.1 18M22 2.1v4m-16 16H2M8.4 8.5l2.3 2.3m24.9-2.3l-2.3 2.3M10.7 33.4l-2.3 2.2" data-name="layer1" style="stroke: #003369;"/><path fill="none" stroke="#003369" stroke-miterlimit="10" stroke-width="2" d="M46 44.1h4a10 10 0 0 0 0-20 13 13 0 0 0-25 4.1h-1a8 8 0 0 0 0 16h4" data-name="layer1" style="stroke: #003369;"/></svg>
