<?xml version="1.0" encoding="UTF-8"?>
<svg xmlns="http://www.w3.org/2000/svg" aria-describedby="desc" aria-labelledby="title" viewBox="0 0 64 64"><path fill="none" stroke="#003369" stroke-miterlimit="10" stroke-width="2" d="M17.7 31a10 10 0 1 1 13.5-13M22 2v4M6 22H2M8 8l3 3m25-3l-3 3M11 33l-3 3" data-name="layer2" style="stroke: #003369;"/><path fill="none" stroke="#003369" stroke-miterlimit="10" stroke-width="2" d="M50 24a13 13 0 0 0-25 4.1h-1a8 8 0 0 0 0 16h26a10 10 0 0 0 0-20z" data-name="layer2" style="stroke: #003369;"/><path fill="none" stroke="#003369" stroke-miterlimit="10" stroke-width="2" d="M20 50l-5 6m15-6L20 62m20-12l-5 6m15-6L40 62" data-name="layer1" style="stroke: #003369;"/></svg>
