<?xml version="1.0" encoding="UTF-8"?>
<svg xmlns="http://www.w3.org/2000/svg" aria-describedby="desc" aria-labelledby="title" viewBox="0 0 64 64"><path fill="none" stroke="#003369" stroke-miterlimit="10" stroke-width="2" d="M17.7 31a10 10 0 1 1 13.4-13M22 2v4M6 22H2M8.4 8.5l2.3 2.2m24.9-2.2l-2.3 2.2M10.7 33.3l-2.3 2.3" data-name="layer2" style="stroke: #003369;"/><path fill="none" stroke="#003369" stroke-miterlimit="10" stroke-width="2" d="M50 24a13 13 0 0 0-25 4.1h-1a8 8 0 0 0 0 16h26a10 10 0 0 0 0-20z" data-name="layer2" style="stroke: #003369;"/><path fill="none" stroke="#003369" stroke-miterlimit="10" stroke-width="2" d="M20 50l-2 2m12-2l-6 7m16-7l-2 2m12-2l-7 8" data-name="layer1" style="stroke: #003369;"/></svg>
