<?xml version="1.0" encoding="UTF-8"?>
<svg xmlns="http://www.w3.org/2000/svg" aria-describedby="desc" aria-labelledby="title" viewBox="0 0 64 64"><path fill="none" stroke="#003369" stroke-width="2" d="M30 30h32" data-name="layer1" style="stroke: #003369;"/><path fill="none" stroke="#003369" stroke-width="2" d="M2 4v19a9 9 0 0 0 9 9 9 9 0 0 0 9-9v-8A13 13 0 0 1 33 2a13 13 0 0 1 13 13v1" data-name="layer2" style="stroke: #003369;"/><path fill="none" stroke="#003369" stroke-width="2" d="M58 16a4 4 0 0 1 4 4v28a14 14 0 0 1-14 14h-4a14 14 0 0 1-14-14V20a4 4 0 0 1 4-4zm-12 0v14" data-name="layer1" style="stroke: #003369;"/></svg>
