<?xml version="1.0" encoding="UTF-8"?>
<svg xmlns="http://www.w3.org/2000/svg" aria-describedby="desc" aria-labelledby="title" viewBox="0 0 64 64"><path fill="none" stroke="#003369" stroke-miterlimit="10" stroke-width="2" d="M19.7 57.2L7.9 37.8a4 4 0 0 1 1.8-5.4 4 4 0 0 1 5.3 1.8l4.5 7.2" data-name="layer1" style="stroke: #003369;"/><path fill="none" stroke="#003369" stroke-miterlimit="10" stroke-width="2" d="M19.5 41.4L16.5 8a4 4 0 0 1 4-4 4 4 0 0 1 4 4l3 20V6a4 4 0 0 1 4-4 4 4 0 0 1 4 4v24l2-20a4 4 0 0 1 4-4 4 4 0 0 1 4 4l-2 22 5-12c.9-2 1.8-4 4-4s4.5 1.9 4 4l-5 19v13a10 10 0 0 1-10 10H28.2a10.1 10.1 0 0 1-8.6-4.8" data-name="layer1" style="stroke: #003369;"/></svg>
