<?xml version="1.0" encoding="UTF-8"?>
<svg xmlns="http://www.w3.org/2000/svg" aria-describedby="desc" aria-labelledby="title" viewBox="0 0 64 64"><path fill="none" stroke="#003369" stroke-miterlimit="10" stroke-width="2" d="M4 3v58h4v-3a1 1 0 0 1 1-1h2a1 1 0 0 1 1 1v3h40v-3a1 1 0 0 1 1-1h2a1 1 0 0 1 1 1v3h4V3z" data-name="layer1" style="stroke: #003369;"/><rect width="4" height="6" x="8" y="47" fill="none" stroke="#003369" stroke-miterlimit="10" stroke-width="2" data-name="layer1" rx="1" ry="1" style="stroke: #003369;"/><rect width="4" height="6" x="8" y="37" fill="none" stroke="#003369" stroke-miterlimit="10" stroke-width="2" data-name="layer1" rx="1" ry="1" style="stroke: #003369;"/><rect width="4" height="6" x="8" y="27" fill="none" stroke="#003369" stroke-miterlimit="10" stroke-width="2" data-name="layer1" rx="1" ry="1" style="stroke: #003369;"/><rect width="4" height="6" x="8" y="17" fill="none" stroke="#003369" stroke-miterlimit="10" stroke-width="2" data-name="layer1" rx="1" ry="1" style="stroke: #003369;"/><rect width="4" height="6" x="8" y="7" fill="none" stroke="#003369" stroke-miterlimit="10" stroke-width="2" data-name="layer1" rx="1" ry="1" style="stroke: #003369;"/><path fill="none" stroke="#003369" stroke-miterlimit="10" stroke-width="2" d="M16 34h32v22H16zm0-26h32v22H16z" data-name="layer2" style="stroke: #003369;"/><rect width="4" height="6" x="52" y="47" fill="none" stroke="#003369" stroke-miterlimit="10" stroke-width="2" data-name="layer1" rx="1" ry="1" style="stroke: #003369;"/><rect width="4" height="6" x="52" y="37" fill="none" stroke="#003369" stroke-miterlimit="10" stroke-width="2" data-name="layer1" rx="1" ry="1" style="stroke: #003369;"/><rect width="4" height="6" x="52" y="27" fill="none" stroke="#003369" stroke-miterlimit="10" stroke-width="2" data-name="layer1" rx="1" ry="1" style="stroke: #003369;"/><rect width="4" height="6" x="52" y="17" fill="none" stroke="#003369" stroke-miterlimit="10" stroke-width="2" data-name="layer1" rx="1" ry="1" style="stroke: #003369;"/><rect width="4" height="6" x="52" y="7" fill="none" stroke="#003369" stroke-miterlimit="10" stroke-width="2" data-name="layer1" rx="1" ry="1" style="stroke: #003369;"/></svg>
