<?xml version="1.0" encoding="UTF-8"?>
<svg xmlns="http://www.w3.org/2000/svg" aria-describedby="desc" aria-labelledby="title" viewBox="0 0 64 64"><path fill="none" stroke="#003369" stroke-width="2" d="M10.5 36.5s2.6 20.7 2.8 23.1A2.4 2.4 0 0 0 16 62h31.9a2.4 2.4 0 0 0 2.6-2.4c.3-2.4 2.9-23.4 2.9-23.4M20 46l1.6 16M44 46l-1.6 16M32 46v16" data-name="layer2" style="stroke: #003369;"/><path fill="none" stroke="#003369" stroke-width="2" d="M32 2C18.3 2 6 16.7 6 28s11.3 10 16 10h24.1c4.8 0 11.7-2 11.9-10S50.5 2 32 2zM20 20l-2 2m14-2l-2 2m-2-10l-2 2m14-2l-2 2m6 6l-2 2" data-name="layer1" style="stroke: #003369;"/></svg>
