<?xml version="1.0" encoding="UTF-8"?>
<svg xmlns="http://www.w3.org/2000/svg" data-name="Layer 1" viewBox="0 0 64 64"><path fill="none" stroke="#003369" stroke-width="2" d="M13.55 55.71a3 3 0 0 0 3 3h30.9a3 3 0 0 0 3-3v-9h-36.9zm36.9-48.92a3 3 0 0 0-3-3h-30.9a3 3 0 0 0-3 3v5h36.9zm0 39.92V11.79m-36.9 0v34.92" style="stroke: #003369;"/><circle cx="32" cy="52.71" r="2" fill="none" stroke="#003369" stroke-width="2" style="stroke: #003369;"/><path fill="#003369" d="M25.26 28.47a1.59 1.59 0 0 0-.1-.39.71.71 0 0 0-.7-.39 1.05 1.05 0 0 0-.54.13.89.89 0 0 0-.3.34 1.42 1.42 0 0 0-.14.48 3.43 3.43 0 0 0 0 .56v2.67h-1.35v-3-.42a1.24 1.24 0 0 0-.1-.39.71.71 0 0 0-.7-.39 1 1 0 0 0-.53.13.84.84 0 0 0-.31.34 1.69 1.69 0 0 0-.14.48 5.09 5.09 0 0 0 0 .56v2.67H19v-5.1h1.31v.68a1.59 1.59 0 0 1 .59-.59 1.8 1.8 0 0 1 .84-.2 1.89 1.89 0 0 1 .56.08 1.49 1.49 0 0 1 .42.2 1.41 1.41 0 0 1 .28.26 2 2 0 0 1 .19.29 2.1 2.1 0 0 1 .71-.63 2.19 2.19 0 0 1 1-.2 2.14 2.14 0 0 1 .81.14 1.35 1.35 0 0 1 .53.41 1.67 1.67 0 0 1 .3.63 3.49 3.49 0 0 1 .09.82v3.23h-1.36v-3c0-.12 0-.26-.01-.4zM27.56 33.53v-1h.78a.55.55 0 0 0 .22-.06.46.46 0 0 0 .18-.16 2 2 0 0 0 .17-.31l.05-.14-2-5.1h1.44l1.16 3.69 1.19-3.69h1.33l-1.87 5c-.16.4-.29.72-.41 1a1.75 1.75 0 0 1-.41.55 1.22 1.22 0 0 1-.54.25 4.19 4.19 0 0 1-.78.06zM34.1 28.13L36.91 25h1.59L36 27.75l2.73 4.12h-1.65l-2-3.11-.95 1v2.08h-1.39V25h1.36zM43.25 31.87l-2.76-5.26v5.26h-1.28V25H41l2.76 5.26V25H45v6.9z" style="fill: #003369;"/></svg>
