<?xml version="1.0" encoding="UTF-8"?>
<svg xmlns="http://www.w3.org/2000/svg" data-name="Layer 1" viewBox="0 0 64 64"><path fill="none" stroke="#003369" stroke-miterlimit="10" stroke-width="2" d="M17.34 12.58a16.6 16.6 0 0 1 23.47 0M20.82 16.06a11.67 11.67 0 0 1 16.52 0M24.3 19.53a6.76 6.76 0 0 1 9.56 0M31.5 51.59h4.86v4.69H31.5z" style="stroke: #003369;"/><path fill="none" stroke="#003369" stroke-miterlimit="10" stroke-width="2" d="M26.65 51.59h4.86v4.69h-4.86zM21.8 51.59h4.85v4.69H21.8z" style="stroke: #003369;"/><path fill="none" stroke="#003369" stroke-miterlimit="10" stroke-width="2" d="M26.65 46.91h4.86v4.69h-4.86z" style="stroke: #003369;"/><path fill="none" stroke="#003369" stroke-miterlimit="10" stroke-width="2" d="M31.5 46.91h4.86v4.69H31.5zm-9.7 0h4.85v4.69H21.8zm0-4.69h4.85v4.69H21.8z" style="stroke: #003369;"/><path fill="none" stroke="#003369" stroke-miterlimit="10" stroke-width="2" d="M12.91 34v22.28h5.37l.07-18.94h21.46l.07 18.94h5.36V34l-16.16-9.77zM5.38 10.93v1" style="stroke: #003369;"/><path fill="none" stroke="#003369" stroke-dasharray="2.06 2.06" stroke-miterlimit="10" stroke-width="2" d="M5.38 13.99v31.94" style="stroke: #003369;"/><path fill="none" stroke="#003369" stroke-miterlimit="10" stroke-width="2" d="M5.38 46.96v1h1" style="stroke: #003369;"/><path fill="none" stroke="#003369" stroke-dasharray="1.97 1.97" stroke-miterlimit="10" stroke-width="2" d="M8.35 47.96h2.97" style="stroke: #003369;"/><path fill="none" stroke="#003369" stroke-miterlimit="10" stroke-width="2" d="M12.3 47.96h1M64 41.79h-1" style="stroke: #003369;"/><path fill="none" stroke="#003369" stroke-dasharray="1.95 1.95" stroke-miterlimit="10" stroke-width="2" d="M61.05 41.79H46.42" style="stroke: #003369;"/><path fill="none" stroke="#003369" stroke-miterlimit="10" stroke-width="2" d="M45.45 41.79h-1" style="stroke: #003369;"/></svg>
