<?xml version="1.0" encoding="UTF-8"?>
<svg xmlns="http://www.w3.org/2000/svg" viewBox="0 0 64 64"><path fill="none" stroke="#003369" stroke-width="2" d="M20.8 23.8h22.1m0 0v22.1H20.8V23.8M42.9 45.9H20.8M30.8 49.3H33" style="stroke: #003369;"/><path fill="none" stroke="#003369" stroke-width="2" d="M42.9 28.8h19V28l-1.6-2.5H42.9M60.3 25.5V11.4H38.7v8M21.1 28.8h-19V28l1.6-2.5h17.4M3.7 25.5V11.4h21.6v8M42.9 23.8h-4.2" style="stroke: #003369;"/><path fill="none" stroke="#003369" stroke-width="2" d="M20.8 23.8h22.1m0 0v22.1H20.8V23.8" style="stroke: #003369;"/><path fill="none" stroke="#003369" stroke-width="2" d="M42.9 21c0-.9-.7-1.7-1.7-1.7H22.5c-.9 0-1.7.7-1.7 1.7v2.8h22.1V21zm0 24.9V23.8m-22.1 0v22.1m0 0v5c0 .9.7 1.7 1.7 1.7h18.8c.9 0 1.7-.7 1.7-1.7v-5H20.8zM26.3 28.8h11.4M26.3 34.9h11.4M26.3 41h11.4" style="stroke: #003369;"/></svg>
