<?xml version="1.0" encoding="UTF-8"?>
<svg xmlns="http://www.w3.org/2000/svg" aria-describedby="desc" aria-labelledby="title" viewBox="0 0 64 64"><path fill="none" stroke="#003369" stroke-miterlimit="10" stroke-width="2" d="M46.837 40.986A10.055 10.055 0 0 0 57 31.106a10.058 10.058 0 0 0-10.22-9.883c-.333 0-.66.018-.985.05a13.628 13.628 0 0 0-12.646-8.283 13.474 13.474 0 0 0-13.515 11.54c-.04 0-.075-.012-.114-.012a8.238 8.238 0 1 0 0 16.468z" data-name="layer2" style="stroke: #003369;"/><path fill="none" stroke="#003369" stroke-miterlimit="10" stroke-width="2" d="M26.984 14.416a10 10 0 0 0-9.983-9.427 4.454 4.454 0 0 0-.748.076 6.98 6.98 0 0 1-9.188 9.285 4.279 4.279 0 0 0-.064.64 10.002 10.002 0 0 0 9.689 9.997" data-name="layer2" style="stroke: #003369;"/><circle cx="18" cy="49.998" r="2" fill="none" stroke="#003369" stroke-miterlimit="10" stroke-width="2" data-name="layer1" style="stroke: #003369;"/><circle cx="34" cy="49.998" r="2" fill="none" stroke="#003369" stroke-miterlimit="10" stroke-width="2" data-name="layer1" style="stroke: #003369;"/><circle cx="50" cy="50" r="2" fill="none" stroke="#003369" stroke-miterlimit="10" stroke-width="2" data-name="layer1" style="stroke: #003369;"/><circle cx="42" cy="58" r="2" fill="none" stroke="#003369" stroke-miterlimit="10" stroke-width="2" data-name="layer1" style="stroke: #003369;"/><circle cx="26" cy="58" r="2" fill="none" stroke="#003369" stroke-miterlimit="10" stroke-width="2" data-name="layer1" style="stroke: #003369;"/></svg>
