<?xml version="1.0" encoding="UTF-8"?>
<svg xmlns="http://www.w3.org/2000/svg" aria-describedby="desc" aria-labelledby="title" viewBox="0 0 64 64"><path fill="none" stroke="#003369" stroke-miterlimit="10" stroke-width="2" d="M36.978 35.559L26.98 48.058h7.998L25.416 60" data-name="layer2" style="stroke: #003369;"/><path fill="none" stroke="#003369" stroke-miterlimit="10" stroke-width="2" d="M43.002 40.037h3.836A10.056 10.056 0 0 0 57 30.154a10.058 10.058 0 0 0-10.22-9.884c-.333 0-.66.019-.985.05a13.626 13.626 0 0 0-12.647-8.282 13.474 13.474 0 0 0-13.513 11.54c-.04 0-.077-.013-.116-.013a8.24 8.24 0 1 0 0 16.472H25" data-name="layer1" style="stroke: #003369;"/><path fill="none" stroke="#003369" stroke-miterlimit="10" stroke-width="2" d="M26.984 13.463a9.999 9.999 0 0 0-9.982-9.425 3.961 3.961 0 0 0-.748.075 6.979 6.979 0 0 1-9.188 9.283 2.909 2.909 0 0 0-.064.642 10 10 0 0 0 9.687 9.995" data-name="layer1" style="stroke: #003369;"/></svg>
