<?xml version="1.0" encoding="UTF-8"?>
<svg xmlns="http://www.w3.org/2000/svg" aria-describedby="desc" aria-labelledby="title" viewBox="0 0 64 64"><path fill="none" stroke="#003369" stroke-miterlimit="10" stroke-width="2" d="M45.871 37.997a10.055 10.055 0 0 0 10.163-9.881 10.058 10.058 0 0 0-10.22-9.883c-.333 0-.66.019-.985.05a13.627 13.627 0 0 0-12.646-8.282 13.473 13.473 0 0 0-13.515 11.54c-.04-.001-.075-.013-.114-.013a8.24 8.24 0 1 0 0 16.469z" data-name="layer2" style="stroke: #003369;"/><path fill="none" stroke="#003369" stroke-miterlimit="10" stroke-width="2" d="M43.998 46v15.994M36 46v5.992M28 46v9.993M20.002 46v15.994m-9.968-5.897a10.002 10.002 0 0 1 9.968 5.897m33.964-5.897a10.002 10.002 0 0 0-9.968 5.897" data-name="layer1" style="stroke: #003369;"/><path fill="none" stroke="#003369" stroke-miterlimit="10" stroke-width="2" d="M26.019 11.426A10 10 0 0 0 16.035 2a4.216 4.216 0 0 0-.748.075A6.979 6.979 0 0 1 6.1 11.36a4.019 4.019 0 0 0-.065.641 10 10 0 0 0 9.689 9.996" data-name="layer2" style="stroke: #003369;"/><circle cx="60" cy="56" r="1" fill="none" stroke="#003369" stroke-miterlimit="10" stroke-width="2" data-name="layer1" style="stroke: #003369;"/><circle cx="4" cy="56" r="1" fill="none" stroke="#003369" stroke-miterlimit="10" stroke-width="2" data-name="layer1" style="stroke: #003369;"/></svg>
