<?xml version="1.0" encoding="UTF-8"?>
<svg xmlns="http://www.w3.org/2000/svg" aria-describedby="desc" aria-labelledby="title" viewBox="0 0 64 64"><path fill="none" stroke="#003369" stroke-miterlimit="10" stroke-width="2" d="M25.7 16.3A12 12 0 0 0 14 7h-.7A8.6 8.6 0 0 1 2 18.3v.7a12 12 0 0 0 8.6 11.5" data-name="layer2" style="stroke: #003369;"/><path fill="none" stroke="#003369" stroke-miterlimit="10" stroke-width="2" d="M59.4 33A12 12 0 0 0 48 25h-1.1a16 16 0 0 0-30.7 4H16a10 10 0 0 0-8 4" data-name="layer2" style="stroke: #003369;"/><path fill="none" stroke="#003369" stroke-miterlimit="10" stroke-width="2" d="M6 39h54m-50 8h44m-36 8h32M8.1 55H12" data-name="layer1" style="stroke: #003369;"/></svg>
