<?xml version="1.0" encoding="UTF-8"?>
<svg xmlns="http://www.w3.org/2000/svg" aria-describedby="desc" aria-labelledby="title" viewBox="0 0 64 64"><path fill="none" stroke="#003369" stroke-miterlimit="10" stroke-width="2" d="M26.984 11.426A10 10 0 0 0 17 2a3.534 3.534 0 0 0-.748.075 6.926 6.926 0 0 1 .64 2.892 6.982 6.982 0 0 1-9.828 6.393A3.535 3.535 0 0 0 7 12a10.001 10.001 0 0 0 9.69 9.996" data-name="layer1" style="stroke: #003369;"/><path fill="none" stroke="#003369" stroke-miterlimit="10" stroke-width="2" d="M46.838 38.001A10.056 10.056 0 0 0 57 28.118a10.058 10.058 0 0 0-10.22-9.884c-.333 0-.66.019-.985.05a13.626 13.626 0 0 0-12.647-8.282 13.473 13.473 0 0 0-13.513 11.54c-.04-.001-.076-.013-.115-.013a8.24 8.24 0 1 0 0 16.472z" data-name="layer2" style="stroke: #003369;"/><circle cx="19" cy="44" r="1" fill="none" stroke="#003369" stroke-miterlimit="10" stroke-width="2" data-name="layer1" style="stroke: #003369;"/><circle cx="39" cy="44" r="1" fill="none" stroke="#003369" stroke-miterlimit="10" stroke-width="2" data-name="layer1" style="stroke: #003369;"/><circle cx="37" cy="53" r="1" fill="none" stroke="#003369" stroke-miterlimit="10" stroke-width="2" data-name="layer1" style="stroke: #003369;"/><circle cx="29" cy="57" r="1" fill="none" stroke="#003369" stroke-miterlimit="10" stroke-width="2" data-name="layer1" style="stroke: #003369;"/><circle cx="19" cy="61" r="1" fill="none" stroke="#003369" stroke-miterlimit="10" stroke-width="2" data-name="layer1" style="stroke: #003369;"/><circle cx="39" cy="61" r="1" fill="none" stroke="#003369" stroke-miterlimit="10" stroke-width="2" data-name="layer1" style="stroke: #003369;"/><circle cx="47" cy="57" r="1" fill="none" stroke="#003369" stroke-miterlimit="10" stroke-width="2" data-name="layer1" style="stroke: #003369;"/><circle cx="15" cy="52" r="1" fill="none" stroke="#003369" stroke-miterlimit="10" stroke-width="2" data-name="layer1" style="stroke: #003369;"/><circle cx="27" cy="49" r="1" fill="none" stroke="#003369" stroke-miterlimit="10" stroke-width="2" data-name="layer1" style="stroke: #003369;"/><circle cx="49" cy="47" r="1" fill="none" stroke="#003369" stroke-miterlimit="10" stroke-width="2" data-name="layer1" style="stroke: #003369;"/></svg>
