<?xml version="1.0" encoding="UTF-8"?>
<svg xmlns="http://www.w3.org/2000/svg" aria-describedby="desc" aria-labelledby="title" viewBox="0 0 64 64"><path fill="none" stroke="#003369" stroke-miterlimit="10" stroke-width="2" d="M44 38h4a9.932 9.932 0 0 0 10-9.904 10.058 10.058 0 0 0-10.22-9.884c-.333 0-.66.018-.985.05A13.627 13.627 0 0 0 34.148 9.98a13.472 13.472 0 0 0-13.514 11.54c-.04-.001-.076-.013-.115-.013a8.384 8.384 0 0 0-8.52 8.237C11.999 34.293 16.295 38 21 38h5.762" data-name="layer2" style="stroke: #003369;"/><path fill="none" stroke="#003369" stroke-miterlimit="10" stroke-width="2" d="M7.989 58.473l-2.806 3.505m12.808-15.997l-5.896 7.364m31.873.172l-6.773 8.461M50 45.98l-1.601 2" data-name="layer1" style="stroke: #003369;"/><path fill="none" stroke="#003369" stroke-miterlimit="10" stroke-width="2" d="M27.984 11.426A10 10 0 0 0 18.001 2a4.285 4.285 0 0 0-.748.076 6.978 6.978 0 0 1-9.188 9.283 3.46 3.46 0 0 0-.064.641 10 10 0 0 0 9.687 9.996" data-name="layer2" style="stroke: #003369;"/><path fill="none" stroke="#003369" stroke-miterlimit="10" stroke-width="2" d="M38.737 25L23.999 41h7.467L28.21 55l15.789-16.999h-7.368L38.737 25z" data-name="layer1" style="stroke: #003369;"/></svg>
