<?xml version="1.0" encoding="UTF-8"?>
<svg xmlns="http://www.w3.org/2000/svg" viewBox="0 0 64 64"><g fill="#003369"><path d="M33.17 33.02H9.14v-11.8c0-7.15 5.39-12.97 12.01-12.97s12.01 5.82 12.01 12.97v11.8zm-22.02-2h20.02v-9.8c0-6.05-4.49-10.97-10.01-10.97s-10.01 4.92-10.01 10.97v9.8z" style="fill: #003369;"/><path d="M14.427 23.193l.455-1.948 4.567 1.066-.454 1.947zM22.959 22.32l4.567-1.066.454 1.947-4.567 1.066zM31.59 20.387l5.216-3.622 1.14 1.643-5.215 3.622z" style="fill: #003369;"/><path d="M31.596 22.07l1.14-1.642 5.216 3.622-1.14 1.643z" style="fill: #003369;"/><path d="M29.84 27.12H12.48c-1.84 0-3.33-1.36-3.33-3.03v-2.82c.09-1.6 1.55-2.88 3.33-2.88h17.36c1.84 0 3.33 1.36 3.33 3.03v2.82c-.09 1.6-1.55 2.88-3.33 2.88zm-18.69-5.7v2.67c0 .56.61 1.03 1.33 1.03h17.36c.72 0 1.33-.47 1.33-1.03v-2.67c0-.56-.61-1.03-1.33-1.03H12.48c-.72 0-1.33.47-1.33 1.03z" style="fill: #003369;"/></g><path fill="#003369" d="M60.95 57.53h-5.03v-2h5.03v2zm-14.36 0h-21.1v-2h21.1v2zm16.18-3.43h-7.98v-2h5.98v-6.38c0-.08-.01-.12-.01-.13-.01.01-.12-.07-.53-.07H45.87v-6.86h-1.96V52.1h4.14v2H23.76v-2h18.13V31.81h-2.98v-2h4.98v6.86h9.8l3.77 6.86h2.85c1.8.04 2.44 1.16 2.44 2.2v8.38zM47.86 43.52h7.33l-2.67-4.86h-4.66v4.86zM17.33 54.1h-6.3V38.57h2V52.1h4.3v2z" style="fill: #003369;"/><path fill="#003369" d="M20.55 62.15c-3.13 0-5.67-2.54-5.67-5.67s2.54-5.67 5.67-5.67 5.67 2.54 5.67 5.67-2.54 5.67-5.67 5.67zm0-9.34c-2.02 0-3.67 1.65-3.67 3.67s1.65 3.67 3.67 3.67 3.67-1.65 3.67-3.67-1.65-3.67-3.67-3.67zM51.25 62.15c-3.13 0-5.67-2.54-5.67-5.67s2.54-5.67 5.67-5.67 5.67 2.54 5.67 5.67-2.54 5.67-5.67 5.67zm0-9.34c-2.02 0-3.67 1.65-3.67 3.67s1.65 3.67 3.67 3.67 3.67-1.65 3.67-3.67-1.65-3.67-3.67-3.67zM21.7 42.06c-11.29 0-20.46-9.02-20.46-20.11s9.17-20.1 20.46-20.1 20.46 9.02 20.46 20.1-9.18 20.1-20.46 20.1zm0-38.2C11.52 3.85 3.24 11.97 3.24 21.95s8.28 18.1 18.46 18.1 18.46-8.12 18.46-18.1-8.28-18.1-18.46-18.1z" style="fill: #003369;"/></svg>
