<?xml version="1.0" encoding="UTF-8"?>
<svg xmlns="http://www.w3.org/2000/svg" aria-describedby="desc" aria-labelledby="title" viewBox="0 0 64 64"><path fill="none" stroke="#003369" stroke-miterlimit="10" stroke-width="2" d="M39 33a7 7 0 0 1-7 7m-5.4-2.6a7 7 0 0 1 9.8-9.9" data-name="layer2" style="stroke: #003369;"/><circle cx="32" cy="32" r="30" fill="none" stroke="#003369" stroke-miterlimit="10" stroke-width="2" data-name="layer1" style="stroke: #003369;"/><path fill="none" stroke="#003369" stroke-miterlimit="10" stroke-width="2" d="M30 44h18.2a1.8 1.8 0 0 0 1.8-1.8V23.8M42 22h-1.3l-3.9-4h-9.6l-3.9 4h-7.5a1.8 1.8 0 0 0-1.8 1.8v18.4a1.8 1.8 0 0 0 1.8 1.8H20" data-name="layer2" style="stroke: #003369;"/><path fill="none" stroke="#003369" stroke-miterlimit="10" stroke-width="2" d="M53.2 10.8L10.8 53.2m42.4-42.4L10.8 53.2" data-name="layer1" style="stroke: #003369;"/></svg>
