<?xml version="1.0" encoding="UTF-8"?>
<svg xmlns="http://www.w3.org/2000/svg" data-name="Layer 1" viewBox="0 0 64 64"><circle cx="32.53" cy="20.76" r="4.01" fill="none" stroke="#1d3763" stroke-miterlimit="10" stroke-width="1.9" style="stroke: #003369;"/><path fill="none" stroke="#1d3763" stroke-miterlimit="10" stroke-width="1.9" d="M38.55 28.78h-12a2 2 0 0 0-2 2v9.35a2 2 0 0 0 2 2h2v8.69a2 2 0 0 0 2 2h4a2 2 0 0 0 2-2h0v-8.68h2a2 2 0 0 0 2-2v-9.35a2 2 0 0 0-2-2.01z" style="stroke: #003369;"/><path fill="none" stroke="#1d3763" stroke-width="2.13" d="M13.37 25.85v-13.7h37.69v44.7H13.37V41.59" style="stroke: #003369;"/><path fill="none" stroke="#1d3763" stroke-miterlimit="10" stroke-width="1.96" d="M56 61.81L8.41 6.32" style="stroke: #003369;"/><path fill="none" stroke="#1d3763" stroke-miterlimit="10" stroke-width="2.21" d="M15.41 31.76l-2.25-2.53-2.25 2.53M10.91 35.45L13.16 38l2.25-2.53" style="stroke: #003369;"/><rect width="10.31" height="15.7" x="8.03" y="25.85" fill="none" stroke="#1d3763" stroke-miterlimit="10" stroke-width="2" rx="1.42" style="stroke: #003369;"/><path fill="none" stroke="#1d3763" stroke-width="2.04" d="M21.18 2.19h22.13v6.22H21.18z" style="stroke: #003369;"/><path fill="none" stroke="#1d3763" stroke-width="2" d="M24.39 5.36h3.75M30.32 5.36h3.76M36.14 5.36h3.76" style="stroke: #003369;"/></svg>
