<?xml version="1.0" encoding="UTF-8"?>
<svg xmlns="http://www.w3.org/2000/svg" data-name="Layer 1" viewBox="0 0 64 64"><circle cx="43.18" cy="22.83" r="3.6" fill="none" stroke="#1d3763" stroke-miterlimit="10" stroke-width="2" style="stroke: #003369;"/><path fill="none" stroke="#1d3763" stroke-miterlimit="10" stroke-width="2" d="M39.58 42v7.8a1.8 1.8 0 0 0 1.8 1.8H45a1.79 1.79 0 0 0 1.8-1.8V42h1.8a1.79 1.79 0 0 0 1.8-1.8v-8.4a1.8 1.8 0 0 0-1.8-1.8H37.78a1.81 1.81 0 0 0-1.8 1.8v.6" style="stroke: #003369;"/><circle cx="21.58" cy="22.83" r="3.6" fill="none" stroke="#1d3763" stroke-miterlimit="10" stroke-width="2" style="stroke: #003369;"/><path fill="none" stroke="#1d3763" stroke-miterlimit="10" stroke-width="2" d="M28.78 31.83A1.8 1.8 0 0 0 27 30H16.18a1.81 1.81 0 0 0-1.8 1.8v8.4a1.8 1.8 0 0 0 1.8 1.8H18v7.8a1.8 1.8 0 0 0 1.8 1.8h3.6a1.79 1.79 0 0 0 1.8-1.8V42" style="stroke: #003369;"/><circle cx="32.38" cy="25.23" r="3.6" fill="none" stroke="#1d3763" stroke-miterlimit="10" stroke-width="2" style="stroke: #003369;"/><path fill="none" stroke="#1d3763" stroke-miterlimit="10" stroke-width="2" d="M37.78 32.43H27a1.81 1.81 0 0 0-1.8 1.8v8.4a1.8 1.8 0 0 0 1.8 1.8h1.8v7.8a1.8 1.8 0 0 0 1.8 1.8h3.6a1.79 1.79 0 0 0 1.8-1.8h0v-7.8h1.8a1.79 1.79 0 0 0 1.8-1.8v-8.4a1.8 1.8 0 0 0-1.82-1.8z" style="stroke: #003369;"/><path fill="none" stroke="#1d3763" stroke-width="2.13" d="M53.73 56.72H11V12h42.73z" style="stroke: #003369;"/><path fill="none" stroke="#1d3763" stroke-miterlimit="10" stroke-width="1.96" d="M59.11 61.63L4.89 5.76" style="stroke: #003369;"/><path fill="none" stroke="#1d3763" stroke-width="2.04" d="M21.32 2.37h22.13v6.22H21.32z" style="stroke: #003369;"/><path fill="none" stroke="#1d3763" stroke-width="2" d="M24.53 5.54h3.75M30.46 5.54h3.76M36.28 5.54H40" style="stroke: #003369;"/></svg>
