<?xml version="1.0" encoding="UTF-8"?>
<svg xmlns="http://www.w3.org/2000/svg" data-name="Layer 1" viewBox="0 0 64 64"><circle cx="42.18" cy="19.24" r="3.82" fill="none" stroke="#1d3763" stroke-miterlimit="10" stroke-width="2" style="stroke: #003369;"/><path fill="none" stroke="#1d3763" stroke-miterlimit="10" stroke-width="2" d="M38.36 39.59v8.26a1.91 1.91 0 0 0 1.91 1.91h3.81A1.9 1.9 0 0 0 46 47.85v-8.26h1.9a1.92 1.92 0 0 0 1.91-1.91v-8.9a1.91 1.91 0 0 0-1.91-1.91H36.45a1.9 1.9 0 0 0-1.9 1.91v.63" style="stroke: #003369;"/><circle cx="30.73" cy="21.78" r="3.82" fill="none" stroke="#1d3763" stroke-miterlimit="10" stroke-width="2" style="stroke: #003369;"/><path fill="none" stroke="#1d3763" stroke-miterlimit="10" stroke-width="2" d="M36.45 29.41H25a1.91 1.91 0 0 0-1.91 1.91v8.9A1.9 1.9 0 0 0 25 42.13h1.91v8.27a1.9 1.9 0 0 0 1.9 1.9h3.82a1.91 1.91 0 0 0 1.91-1.9h0v-8.27h1.9a1.9 1.9 0 0 0 1.91-1.91v-8.9a1.91 1.91 0 0 0-1.9-1.91z" style="stroke: #003369;"/><path fill="none" stroke="#1d3763" stroke-width="2.1" d="M55.45 55.88H17.76V12.73h37.69z" style="stroke: #003369;"/><path fill="none" stroke="#1d3763" stroke-miterlimit="10" stroke-width="1.96" d="M60.37 61.5L12.8 6.91" style="stroke: #003369;"/><path fill="none" stroke="#1d3763" stroke-miterlimit="10" stroke-width="2" d="M3.63 41.32l4.8 5.4 4.8-5.4m-4.8-6.61v12M13.23 22.28l-4.8-5.4-4.8 5.4m4.8 6.6v-12" style="stroke: #003369;"/><path fill="none" stroke="#1d3763" stroke-width="2.04" d="M24.85 2.5H47v6.22H24.85z" style="stroke: #003369;"/><path fill="none" stroke="#1d3763" stroke-width="2" d="M28.05 5.67h3.76M34 5.67h3.76M39.81 5.67h3.75" style="stroke: #003369;"/></svg>
