<?xml version="1.0" encoding="UTF-8"?>
<svg xmlns="http://www.w3.org/2000/svg" data-name="Layer 1" viewBox="0 0 64 64"><path fill="none" stroke="#1d3763" stroke-width="2.04" d="M25.67 2.2H47.8v6.22H25.67z" style="stroke: #003369;"/><path fill="none" stroke="#1d3763" stroke-width="2" d="M28.88 5.37h3.75M34.81 5.37h3.76M40.63 5.37h3.76" style="stroke: #003369;"/><circle cx="36.93" cy="20.76" r="4.01" fill="none" stroke="#1d3763" stroke-miterlimit="10" stroke-width="1.9" style="stroke: #003369;"/><path fill="none" stroke="#1d3763" stroke-miterlimit="10" stroke-width="1.9" d="M43 28.78H31a2 2 0 0 0-2 2v9.35a2 2 0 0 0 2 2h2v8.69a2 2 0 0 0 2 2h4a2 2 0 0 0 2-2h0v-8.68h2a2 2 0 0 0 2-2v-9.36a2 2 0 0 0-2-2z" style="stroke: #003369;"/><path fill="none" stroke="#1d3763" stroke-width="2.13" d="M55.46 56.84H17.77v-44.7h37.69z" style="stroke: #003369;"/><path fill="none" stroke="#1d3763" stroke-miterlimit="10" stroke-width="1.96" d="M60.37 61.8L12.81 6.32" style="stroke: #003369;"/><path fill="none" stroke="#1d3763" stroke-miterlimit="10" stroke-width="2" d="M3.63 40.73l4.8 5.4 4.8-5.4m-4.8-6.61v12M13.23 21.69l-4.8-5.4-4.8 5.4m4.8 6.6v-12" style="stroke: #003369;"/></svg>
