<?xml version="1.0" encoding="UTF-8"?>
<svg xmlns="http://www.w3.org/2000/svg" data-name="Layer 1" viewBox="0 0 64 64"><circle cx="43.18" cy="22.88" r="3.6" fill="none" stroke="#1d3763" stroke-miterlimit="10" stroke-width="2" style="stroke: #003369;"/><path fill="none" stroke="#1d3763" stroke-miterlimit="10" stroke-width="2" d="M39.58 42.08v7.8a1.81 1.81 0 0 0 1.8 1.8H45a1.8 1.8 0 0 0 1.8-1.8v-7.8h1.8a1.8 1.8 0 0 0 1.8-1.8v-8.4a1.79 1.79 0 0 0-1.8-1.8H37.78a1.8 1.8 0 0 0-1.8 1.8v.6" style="stroke: #003369;"/><circle cx="21.58" cy="22.88" r="3.6" fill="none" stroke="#1d3763" stroke-miterlimit="10" stroke-width="2" style="stroke: #003369;"/><path fill="none" stroke="#1d3763" stroke-miterlimit="10" stroke-width="2" d="M28.78 31.88a1.79 1.79 0 0 0-1.8-1.8h-10.8a1.8 1.8 0 0 0-1.8 1.8v8.4a1.81 1.81 0 0 0 1.8 1.8H18v7.8a1.81 1.81 0 0 0 1.8 1.8h3.6a1.8 1.8 0 0 0 1.8-1.8v-7.8" style="stroke: #003369;"/><circle cx="32.38" cy="25.28" r="3.6" fill="none" stroke="#1d3763" stroke-miterlimit="10" stroke-width="2" style="stroke: #003369;"/><path fill="none" stroke="#1d3763" stroke-miterlimit="10" stroke-width="2" d="M37.78 32.48H27a1.8 1.8 0 0 0-1.8 1.8v8.4a1.81 1.81 0 0 0 1.8 1.8h1.8v7.8a1.81 1.81 0 0 0 1.8 1.8h3.6a1.8 1.8 0 0 0 1.8-1.8h0v-7.8h1.8a1.8 1.8 0 0 0 1.8-1.8v-8.4a1.79 1.79 0 0 0-1.82-1.8z" style="stroke: #003369;"/><path fill="none" stroke="#1d3763" stroke-width="2.13" d="M53.73 56.77H11v-44.7h42.73z" style="stroke: #003369;"/><path fill="none" stroke="#1d3763" stroke-miterlimit="10" stroke-width="2" d="M22.63 2.32l4.8 5.4 4.8-5.4M42.14 9.05l-4.8-5.4-4.8 5.4" style="stroke: #003369;"/><path fill="none" stroke="#1d3763" stroke-miterlimit="10" stroke-width="1.96" d="M59.11 61.68L4.89 5.8" style="stroke: #003369;"/></svg>
