<?xml version="1.0" encoding="UTF-8"?>
<svg xmlns="http://www.w3.org/2000/svg" data-name="Layer 1" viewBox="0 0 64 64"><circle cx="37.53" cy="18.77" r="3.82" fill="none" stroke="#1d3763" stroke-miterlimit="10" stroke-width="2" style="stroke: #003369;"/><path fill="none" stroke="#1d3763" stroke-miterlimit="10" stroke-width="2" d="M33.71 39.12v8.26a1.91 1.91 0 0 0 1.91 1.91h3.81a1.9 1.9 0 0 0 1.91-1.91v-8.26h1.91a1.92 1.92 0 0 0 1.91-1.91v-8.9a1.91 1.91 0 0 0-1.91-1.91H31.8a1.9 1.9 0 0 0-1.9 1.91v.63" style="stroke: #003369;"/><circle cx="26.08" cy="21.31" r="3.82" fill="none" stroke="#1d3763" stroke-miterlimit="10" stroke-width="2" style="stroke: #003369;"/><path fill="none" stroke="#1d3763" stroke-miterlimit="10" stroke-width="2" d="M31.8 28.94H20.36a1.92 1.92 0 0 0-1.91 1.91v8.9a1.92 1.92 0 0 0 1.91 1.91h1.91v8.26a1.9 1.9 0 0 0 1.9 1.91H28a1.91 1.91 0 0 0 1.91-1.91h0v-8.26h1.9a1.91 1.91 0 0 0 1.91-1.91v-8.9a1.91 1.91 0 0 0-1.92-1.91z" style="stroke: #003369;"/><path fill="none" stroke="#1d3763" stroke-width="2.13" d="M13.37 25.85v-13.7h37.69v44.7H13.37V41.59" style="stroke: #003369;"/><path fill="none" stroke="#1d3763" stroke-miterlimit="10" stroke-width="1.96" d="M56 61.81L8.13 6.58" style="stroke: #003369;"/><path fill="none" stroke="#1d3763" stroke-miterlimit="10" stroke-width="2.21" d="M15.41 31.76l-2.25-2.53-2.25 2.53M10.91 35.45L13.16 38l2.25-2.53" style="stroke: #003369;"/><rect width="10.31" height="15.7" x="8.03" y="25.85" fill="none" stroke="#1d3763" stroke-miterlimit="10" stroke-width="2" rx="1.42" style="stroke: #003369;"/><path fill="none" stroke="#1d3763" stroke-width="2.04" d="M21.28 2.19h22.13v6.22H21.28z" style="stroke: #003369;"/><path fill="none" stroke="#1d3763" stroke-width="2" d="M24.49 5.36h3.75M30.42 5.36h3.76M36.25 5.36H40" style="stroke: #003369;"/></svg>
