<?xml version="1.0" encoding="UTF-8"?>
<svg xmlns="http://www.w3.org/2000/svg" data-name="Layer 1" viewBox="0 0 64 64"><path fill="none" stroke="#00336a" stroke-miterlimit="3" stroke-width="2" d="M12.66 12.32A27.07 27.07 0 0 0 4.65 32a27.07 27.07 0 0 0 8 19.68l38.69-39.36A26.13 26.13 0 0 0 32 4.16a26.13 26.13 0 0 0-19.34 8.16zM12.66 51.68A26.13 26.13 0 0 0 32 59.84a26.13 26.13 0 0 0 19.34-8.16 27.07 27.07 0 0 0 8-19.68 27.07 27.07 0 0 0-8-19.68" style="stroke: #003369;"/><path fill="none" stroke="#00336a" stroke-miterlimit="3" stroke-width="2" d="M16.77 30.85v0a2.4 2.4 0 0 0-.11-.23 16.76 16.76 0 0 0-3-4.17 16.76 16.76 0 0 0-3 4.17 2.4 2.4 0 0 0-.11.23v0a3.36 3.36 0 0 0-.28 1.35 3.36 3.36 0 0 0 3.37 3.38 3.38 3.38 0 0 0 3.09-4.73z" style="stroke: #003369;"/><path fill="none" stroke="#00336a" stroke-miterlimit="10" stroke-width="2" d="M25 24.78l-2-2A9.9 9.9 0 0 0 14.41 20l-.56-3.46a13.49 13.49 0 0 1 11.63 3.74l1.89 1.86" style="stroke: #003369;"/><path fill="none" stroke="#00336a" stroke-linejoin="round" stroke-width="2" d="M52.49 39.37l4.4 4.46M50.3 41.48l4.99 5" style="stroke: #003369;"/><path fill="none" stroke="#00336a" stroke-linecap="round" stroke-miterlimit="10" stroke-width="2" d="M33.36 31l7.69 7.7c1.13 1.13 0 3.11 0 3.11" style="stroke: #003369;"/><path fill="none" stroke="#00336a" stroke-linejoin="round" stroke-width="2" d="M42.45 28.19L53 38.76l-3.3 3.32L37.65 30a2.66 2.66 0 0 0-3.73 0l-2.8 2.8" style="stroke: #003369;"/><path fill="none" stroke="#00336a" stroke-linejoin="round" stroke-width="2" d="M47.32 39.83l-5.81 6a2.65 2.65 0 0 1-3.73 0l-6.11-6.11L31 32.7l-6-6a1.14 1.14 0 0 1 0-1.61l2.81-2.81a1.16 1.16 0 0 1 1.62 0l.74.74 8.42-.94 4.9 4.92-4.33 4.33" style="stroke: #003369;"/></svg>
