<?xml version="1.0" encoding="UTF-8"?>
<svg xmlns="http://www.w3.org/2000/svg" data-name="Layer 1" viewBox="0 0 64 64"><circle cx="32" cy="32" r="30.25" fill="none" stroke="#003369" stroke-miterlimit="10" stroke-width="2" transform="rotate(-77 31.998 32)" style="stroke: #003369;"/><path fill="none" stroke="#003369" stroke-miterlimit="10" stroke-width="2" d="M10.61 10.61l43.09 42M41.72 33.09l3.74 3.75a2.76 2.76 0 0 0 3.9-3.9l-9.26-9.27c-1.68-1.68-3.54-1.84-5.53.15l-.57.57a2.76 2.76 0 0 1-3.91-3.9l2-1.95c2.25-2.26 3.53-3.08 5.43-3.08h3l12.22 12.27-4.3 4.27" style="stroke: #003369;"/><path fill="none" stroke="#003369" stroke-miterlimit="10" stroke-width="2" d="M41.71 33.09l4.72 4.72a2.76 2.76 0 0 1-3.9 3.91M41.56 40.74a2.76 2.76 0 0 1-3.9 3.9l-1.95-2M35.92 42.9l1 1a2.76 2.76 0 0 1-3.9 3.9l-1-1M15.8 32l-4.45-4.45 11-11s1.47 1.71 2.71 1.71c1.5 0 1.87-.48 2.76-1.38 1.46-1.46 3.67-1.42 5.52.43" style="stroke: #003369;"/><path fill="none" stroke="#003369" stroke-miterlimit="10" stroke-width="2" d="M20.73 34.89a2.76 2.76 0 1 0-3.77-4l-.12.13-1.95 1.95a2.76 2.76 0 0 0 3.9 3.9z" style="stroke: #003369;"/><path fill="none" stroke="#003369" stroke-miterlimit="10" stroke-width="2" d="M24.64 38.79a2.76 2.76 0 0 0-3.91-3.9h0l-2.92 2.92a2.76 2.76 0 0 0 3.9 3.9zm3.9 3.9a2.76 2.76 0 0 0-3.9-3.9l-1.95 2a2.76 2.76 0 0 0 3.9 3.9z" style="stroke: #003369;"/><path fill="none" stroke="#003369" stroke-miterlimit="10" stroke-width="2" d="M32.22 46.8a2.76 2.76 0 1 0-3.9-3.9h0l-1 1a2.76 2.76 0 0 0 3.9 3.9z" style="stroke: #003369;"/></svg>
