<?xml version="1.0" encoding="UTF-8"?>
<svg xmlns="http://www.w3.org/2000/svg" aria-describedby="desc" aria-labelledby="title" viewBox="0 0 64 64"><path fill="none" stroke="#003369" stroke-miterlimit="10" stroke-width="2" d="M18 25.411V28c0 7.181 2.879 13.379 7.609 16.268m11.984 0C42.323 41.379 45 35.113 45 27.932V25" data-name="layer2" style="stroke: #003369;"/><path fill="none" stroke="#003369" stroke-miterlimit="10" stroke-width="2" d="M24 43.112V44c0 2 .607 4.989-10.391 7C2 53.122 2 62 2 62h60s0-8.535-12.424-11C38.884 48.878 39 46 39 44v-.722" data-name="layer2" style="stroke: #003369;"/><path fill="none" stroke="#003369" stroke-miterlimit="10" stroke-width="2" d="M22.201 48.115l9.798 7.883L24.001 61l-5.84-11.077m22.838-1.919l-9 7.994L40.001 61l5.592-10.972M26 18a16.74 16.74 0 0 1-10 8m22-8a16.86 16.86 0 0 0 10 8" data-name="layer2" style="stroke: #003369;"/><path fill="none" stroke="#003369" stroke-miterlimit="10" stroke-width="2" d="M22.114 6.952A17.991 17.991 0 0 0 14 22v3.6S14.314 36 8 40c4 4 16 4 16 4M41.884 6.952A17.985 17.985 0 0 1 50 22v3.6S49.687 36 56 40c-4 4-17 4-17 4" data-name="layer2" style="stroke: #003369;"/><path fill="none" stroke="#003369" stroke-miterlimit="10" stroke-width="2" d="M24 18h16s1.769-10.426 2-12a3.379 3.379 0 0 0-3.447-4h-13.3C23.345 2 21.737 3.3 22 6s2 12 2 12zm7.999-12v8m4-4h-8" data-name="layer1" style="stroke: #003369;"/></svg>
