<?xml version="1.0" encoding="UTF-8"?>
<svg xmlns="http://www.w3.org/2000/svg" viewBox="0 0 36.93 67.21"><rect width="36.93" height="15.54" y="29.1" fill="#1d3767" rx="7.77" ry="7.77" style="fill: #003369;"/><text fill="#fff" font-family="Arial-BoldMT,Arial" font-size="11.82" transform="translate(5.99 41.04)"><tspan x="0" y="0">OFD</tspan></text><g fill="none" stroke="#1d3768" stroke-miterlimit="10" stroke-width=".75"><path d="M13.34 15.02h2.59v2.5h-2.59v-2.5zM10.75 15.02h2.59v2.5h-2.59v-2.5z" style="fill: #003369;"/><path d="M8.17 15.02h2.59v2.5H8.17v-2.5zM10.75 12.52h2.59v2.5h-2.59v-2.5z" style="fill: #003369;"/><path d="M13.34 12.52h2.59v2.5h-2.59v-2.5zm-5.17 0h2.59v2.5H8.17v-2.5zm0-2.5h2.59v2.5H8.17v-2.5z" style="fill: #003369;"/><path d="M3.43 5.65v11.86h2.86l.04-10.09h11.43l.04 10.09h2.86V5.65L12.05.44 3.43 5.65z" style="fill: #003369;"/></g><g fill="none" stroke="#1d3768" stroke-miterlimit="10" stroke-width=".61"><path d="M28.08 16.81h-3.2m5.34 0h-.74m-1.21-.51h-.78m0-2.34h1.56l.59 1.01h.51c.12 0 .23.04.23.2v1.09h-1.05m.82-1.25h-2.03V14m-4.45 2.3h-.78v-3.35h4.6v3.35h-2.85" style="fill: #003369;"/><circle cx="24.14" cy="16.81" r=".7" style="fill: #003369;"/><circle cx="28.78" cy="16.81" r=".7" style="fill: #003369;"/></g><g><text fill="#1d3767" font-family="Arial-BoldMT,Arial" font-size="11.82" transform="translate(5.31 62.75)"><tspan x="0" y="0">2300</tspan></text></g></svg>
