<?xml version="1.0" encoding="UTF-8"?>
<svg xmlns="http://www.w3.org/2000/svg" aria-describedby="desc" aria-labelledby="title" viewBox="0 0 64 64"><path fill="none" stroke="#003369" stroke-miterlimit="10" stroke-width="2" d="M19 30V15A13 13 0 0 1 32 2a13 13 0 0 1 13 13v2a2 2 0 1 1-4 0v-2a9 9 0 0 0-18 0v15" data-name="layer2" style="stroke: #003369;"/><rect width="44" height="32" x="10" y="30" fill="none" stroke="#003369" stroke-miterlimit="10" stroke-width="2" data-name="layer1" rx="6" ry="6" style="stroke: #003369;"/><path fill="none" stroke="#003369" stroke-miterlimit="10" stroke-width="2" d="M34 49a2 2 0 0 1-2 2 2 2 0 0 1-2-2v-6a2 2 0 0 1 2-2 2 2 0 0 1 2 2z" data-name="layer1" style="stroke: #003369;"/></svg>
