<?xml version="1.0" encoding="UTF-8"?>
<svg xmlns="http://www.w3.org/2000/svg" aria-describedby="desc" aria-labelledby="title" viewBox="0 0 64 64"><path fill="none" stroke="#003369" stroke-width="2" d="M26 17.7a24.9 24.9 0 0 1 9-1.7c13.3 0 24 10.3 24 23S48.3 62 35 62 11 51.7 11 39a22.2 22.2 0 0 1 3.7-12.3" data-name="layer2" style="stroke: #003369;"/><path fill="none" stroke="#003369" stroke-width="2" d="M29 4c0 10.2-3.6 24-24 24C5 14.2 13 4 29 4zm0 20c1.5-.7 5-.2 6 2 1-2.2 4.4-2.9 6-2m-6 2c0-6-.4-19.5 6-24" data-name="layer1" style="stroke: #003369;"/></svg>
