<?xml version="1.0" encoding="UTF-8"?>
<svg xmlns="http://www.w3.org/2000/svg" aria-describedby="desc" aria-labelledby="title" viewBox="0 0 64 64"><path fill="none" stroke="#003369" stroke-width="2" d="M52 52l2 8a2 2 0 0 1-2 2h-4a2 2 0 0 1-2-2v-8M32.2 4L56 27.8M24.1 16.3l31.5 31.5M10 24.7L38 52" data-name="layer2" style="stroke: #003369;"/><path fill="none" stroke="#003369" stroke-width="2" d="M51.4 6.8l-35 35M56 24.7L28 52m-4-22.3V18a16 16 0 0 1 32 0v30a4 4 0 0 1-4 4H28a4 4 0 0 1-2.5-.9L10.7 36A8 8 0 0 1 16 22a6.5 6.5 0 0 1 4 2l4 3.7" data-name="layer1" style="stroke: #003369;"/></svg>
