<?xml version="1.0" encoding="UTF-8"?>
<svg xmlns="http://www.w3.org/2000/svg" data-name="Layer 1" viewBox="0 0 64 64"><path fill="none" stroke="#003369" stroke-miterlimit="10" stroke-width="2" d="M56.41 44.42H45.5M50.5 39.07H39.56l-2.61 3.42H.25" style="stroke: #003369;"/><path fill="none" stroke="#003369" stroke-miterlimit="10" stroke-width="2" d="M49.59 27.6l.91 1.82v15" style="stroke: #003369;"/><circle cx="58.22" cy="44.42" r="1.82" fill="none" stroke="#003369" stroke-miterlimit="10" stroke-width="2" style="stroke: #003369;"/><circle cx="43.68" cy="44.42" r="1.82" fill="none" stroke="#003369" stroke-miterlimit="10" stroke-width="2" style="stroke: #003369;"/><circle cx="38.87" cy="44.42" r="1.82" fill="none" stroke="#003369" stroke-miterlimit="10" stroke-width="2" style="stroke: #003369;"/><circle cx="8.47" cy="44.42" r="1.82" fill="none" stroke="#003369" stroke-miterlimit="10" stroke-width="2" style="stroke: #003369;"/><circle cx="13.34" cy="44.42" r="1.82" fill="none" stroke="#003369" stroke-miterlimit="10" stroke-width="2" style="stroke: #003369;"/><circle cx="3.66" cy="44.42" r="1.82" fill="none" stroke="#003369" stroke-miterlimit="10" stroke-width="2" style="stroke: #003369;"/><path fill="none" stroke="#003369" stroke-miterlimit="10" stroke-width="2" d="M58.22 38.51v-4.09M55.5 34.42v4.09h2.72l3.82.76a.92.92 0 0 1 .73.9v4.25H60M50.5 31.24v3.18h7.72c-.48-.77-2.79-3.15-7.72-3.18zM47.77 41.69l-4.11.02v-2.62l4.11-.02v2.62zM47.77 39.53v-9.98M7.06 23.53v14.7M11.66 23.53V34.9M16.25 23.53v11.25M20.84 23.53v11.25M25.43 23.53V34.9M30.02 23.53v14.7M34.48 39.78h-1.49l-4.43-2H8.3l-3.8 2-1.89.01V20.23l31.87-.01v19.56zM36 20.22H1.29S1 16 5.29 16H32c4 0 4 4.22 4 4.22z" style="stroke: #003369;"/></svg>
