<?xml version="1.0" encoding="UTF-8"?>
<svg xmlns="http://www.w3.org/2000/svg" aria-describedby="desc" aria-labelledby="title" viewBox="0 0 64 64"><path fill="none" stroke="#003369" stroke-miterlimit="10" stroke-width="2" d="M8.1 34.7L35.4 62l24.8-24.8L32.9 9.9M6.3 36.6L32.9 9.9" data-name="layer2" style="stroke: #003369;"/><path fill="none" stroke="#003369" stroke-miterlimit="10" stroke-width="2" d="M13.7 40.3l14.8-14.8a1.8 1.8 0 0 1 2.5 0l13.6 13.7a1.8 1.8 0 0 1 0 2.5L29.8 56.4" data-name="layer1" style="stroke: #003369;"/><circle cx="32.9" cy="16.9" r="1.8" fill="none" stroke="#003369" stroke-miterlimit="10" stroke-width="2" data-name="layer2" transform="rotate(-45 32.89 16.876)" style="stroke: #003369;"/><path fill="none" stroke="#003369" stroke-miterlimit="10" stroke-width="2" d="M32.9 15.2V2" data-name="layer2" style="stroke: #003369;"/><path fill="none" stroke="#003369" stroke-miterlimit="10" stroke-width="2" d="M7.3 39.9s-3.5 4.2-3.5 7.6a3.4 3.4 0 0 0 3.5 3.4 3.4 3.4 0 0 0 3.5-3.4c0-3.1-3.5-7.6-3.5-7.6z" data-name="layer1" style="stroke: #003369;"/></svg>
