<?xml version="1.0" encoding="UTF-8"?>
<svg xmlns="http://www.w3.org/2000/svg" data-name="Layer 1" viewBox="0 0 64 64"><path fill="none" stroke="#003369" stroke-miterlimit="10" stroke-width="2" d="M62.47 59.38H1.53" style="stroke: #003369;"/><circle cx="15.47" cy="36.73" r="8.5" fill="none" stroke="#003369" stroke-miterlimit="10" stroke-width="2" style="stroke: #003369;"/><path fill="none" stroke="#003369" stroke-miterlimit="10" stroke-width="1.5" d="M12.25 33.2l4.3 4.73" style="stroke: #003369;"/><path fill="none" stroke="#003369" stroke-miterlimit="10" stroke-width="2" d="M15.47 45.39v13.77" style="stroke: #003369;"/><path fill="none" stroke="#003369" stroke-miterlimit="10" stroke-width="1.5" d="M10.11 36.93H7.05M23.96 36.93h-3.11M15.48 42.3v2.96M15.48 28.27v3.15M14.29 37.63l4.83-3.31" style="stroke: #003369;"/><path fill="none" stroke="#003369" stroke-miterlimit="10" stroke-width="2" d="M62.43 56.28H23.01M30.49 24.71h7.26v6.74h-7.26zM39.09 24.71h7.26v6.74h-7.26zM47.69 24.71h7.26v6.74h-7.26zM30.49 15.17h7.26v6.74h-7.26zM39.09 15.17h7.26v6.74h-7.26zM47.69 15.17h7.26v6.74h-7.26zM30.55 41.66h24.4v4.73h-24.4zM30.55 34.17h24.4v4.73h-24.4zM56.78 53.17H28.67M28.67 49.11h28.11M30.67 53.17V49.1M54.78 49.1v4.07M38.53 53.17V49.1M46.91 49.1v4.07" style="stroke: #003369;"/></svg>
