<?xml version="1.0" encoding="UTF-8"?>
<svg xmlns="http://www.w3.org/2000/svg" data-name="Layer 1" viewBox="0 0 64 64"><path fill="none" stroke="#003369" stroke-miterlimit="10" stroke-width="2" d="M44.23 33.97h4.28v4.73h-4.28zM49.3 33.97h4.28v4.73H49.3zM54.37 33.97h4.28v4.73h-4.28zM44.23 18.5h4.28v4.73h-4.28zM49.3 18.5h4.28v4.73H49.3zM54.37 18.5h4.28v4.73h-4.28zM44.23 26.17h4.28v4.73h-4.28zM49.3 26.17h4.28v4.73H49.3zM54.37 26.17h4.28v4.73h-4.28zM44.26 48.48h14.39v3.32H44.26zM44.26 41.96h14.39v3.32H44.26zM62.87 58.83H1.94M62.72 55.33H39.97" style="stroke: #003369;"/><circle cx="12.63" cy="36.18" r="8.5" fill="none" stroke="#003369" stroke-miterlimit="10" stroke-width="2" style="stroke: #003369;"/><path fill="none" stroke="#003369" stroke-miterlimit="10" stroke-width="1.5" d="M9.41 32.66l4.3 4.72" style="stroke: #003369;"/><path fill="none" stroke="#003369" stroke-miterlimit="10" stroke-width="2" d="M12.63 44.85v13.77" style="stroke: #003369;"/><path fill="none" stroke="#003369" stroke-miterlimit="10" stroke-width="1.5" d="M7.27 36.39H4.21M21.12 36.39H18M12.64 41.76v2.96M12.64 27.72v3.16M11.45 37.09l4.83-3.32M25.84 47.99l-2.44-4.13" style="stroke: #003369;"/><path fill="none" stroke="#003369" stroke-miterlimit="10" stroke-width="2" d="M28.82 35.78v.44a3.85 3.85 0 0 0 3.55 3.92 3.85 3.85 0 0 0 3.56-3.92m-.87 6.1v13.06a.87.87 0 0 1-.87.88H32a.87.87 0 0 1-.87-.88v-6.66" style="stroke: #003369;"/><path fill="none" stroke="#003369" stroke-miterlimit="10" stroke-width="2" d="M27.36 47.11a1.31 1.31 0 1 0 0 2.61A7.94 7.94 0 0 0 35 42.65a1.26 1.26 0 0 0 .05-.33 1.45 1.45 0 0 0-2.89 0s-.48 4.35-4.33 4.79zM29.09 35.78h-2.67M35.92 34.19v1.59h-7.59v-1.62a3.8 3.8 0 1 1 7.59 0z" style="stroke: #003369;"/></svg>
