<?xml version="1.0" encoding="UTF-8"?>
<svg xmlns="http://www.w3.org/2000/svg" data-name="Layer 1" viewBox="0 0 64 64"><path fill="none" stroke="#003369" stroke-miterlimit="10" stroke-width="2" d="M62.47 58.27H1.53" style="stroke: #003369;"/><circle cx="15.47" cy="35.62" r="8.5" fill="none" stroke="#003369" stroke-miterlimit="10" stroke-width="2" style="stroke: #003369;"/><path fill="none" stroke="#003369" stroke-miterlimit="10" stroke-width="1.5" d="M12.25 32.1l4.3 4.72" style="stroke: #003369;"/><path fill="none" stroke="#003369" stroke-miterlimit="10" stroke-width="2" d="M15.47 44.29v13.77" style="stroke: #003369;"/><path fill="none" stroke="#003369" stroke-miterlimit="10" stroke-width="1.5" d="M10.11 35.83H7.05M23.96 35.83h-3.11M15.48 41.2v2.96M15.48 27.16v3.16M14.29 36.53l4.83-3.32" style="stroke: #003369;"/><path fill="none" stroke="#003369" stroke-miterlimit="10" stroke-width="2" d="M62.43 55.17H23.01M30.2 25.82h7.35v6.74H30.2zM38.9 25.82h7.35v6.74H38.9zM47.61 25.82h7.35v6.74h-7.35zM30.2 16.27h7.35v6.74H30.2zM38.9 16.27h7.35v6.74H38.9zM47.61 16.27h7.35v6.74h-7.35zM30.26 42.77h24.69v4.73H30.26zM30.26 35.27h24.69V40H30.26zM30.33 50.47h24.72v.63H30.33zM30.33 51.59h4.42v.53h-4.42zM40.48 51.59h4.42v.53h-4.42zM50.64 51.59h4.42v.53h-4.42z" style="stroke: #003369;"/></svg>
