<?xml version="1.0" encoding="UTF-8"?>
<svg xmlns="http://www.w3.org/2000/svg" aria-describedby="desc" aria-labelledby="title" viewBox="0 0 64 64"><path fill="none" stroke="#003369" stroke-miterlimit="10" stroke-width="2" d="M18.9 32.6a10 10 0 1 1 14.8-11M24 2v6M8 24H2M8 8l5 5m27-5l-5 5" data-name="layer2" style="stroke: #003369;"/><path fill="none" stroke="#003369" stroke-miterlimit="10" stroke-width="2" d="M54 36a4 4 0 0 1 4 4 4 4 0 0 1-4 4h-6m10 14a4 4 0 0 0 4-4 4 4 0 0 0-4-4H48" data-name="layer1" style="stroke: #003369;"/><path fill="none" stroke="#003369" stroke-miterlimit="10" stroke-width="2" d="M55.2 30.8a10.3 10.3 0 0 0-5.6-1.6h-.4a13.6 13.6 0 0 0-25.8 3.6A8.8 8.8 0 1 0 20.8 50H37a5 5 0 0 1 5 5 5 5 0 0 1-5 5" data-name="layer1" style="stroke: #003369;"/><path fill="none" stroke="#003369" stroke-miterlimit="10" stroke-width="2" d="M29.3 42H40a4 4 0 0 0 4-4 4 4 0 0 0-4-4" data-name="layer1" style="stroke: #003369;"/></svg>
