<?xml version="1.0" encoding="UTF-8"?>
<svg xmlns="http://www.w3.org/2000/svg" aria-describedby="desc" aria-labelledby="title" viewBox="0 0 64 64"><path fill="none" stroke="#003369" stroke-miterlimit="10" stroke-width="2" d="M33.5 6L6 33.5a7.1 7.1 0 0 1 .2 9.9l14.4 14.4a7.1 7.1 0 0 1 9.9.2L58 30.5a7.1 7.1 0 0 1 0-10.1L43.6 6a7.1 7.1 0 0 1-10.1 0z" data-name="layer2" style="stroke: #003369;"/><path fill="none" stroke="#003369" stroke-miterlimit="10" stroke-width="2" d="M29.2 47.7a3.1 3.1 0 0 1-4.3 0l-8.6-8.6a3.1 3.1 0 0 1 0-4.3L35 16.1a3.1 3.1 0 0 1 4.3 0l8.6 8.6a3.1 3.1 0 0 1 0 4.3z" data-name="layer1" style="stroke: #003369;"/></svg>
