<?xml version="1.0" encoding="UTF-8"?>
<svg xmlns="http://www.w3.org/2000/svg" aria-describedby="desc" aria-labelledby="title" viewBox="0 0 64 64"><path fill="none" stroke="#003369" stroke-miterlimit="10" stroke-width="2" d="M40 20l8.8 8.7C51.2 31.1 52 34.2 52 40c0 8.6-.1 22-.1 22M22 44a20 20 0 0 0 3.3 11.5C28.1 60 28 61.3 28 62" data-name="layer1" style="stroke: #003369;"/><path fill="none" stroke="#003369" stroke-miterlimit="10" stroke-width="2" d="M29.8 44H14a2 2 0 0 1-2-2V4a2 2 0 0 1 2-2h24a2 2 0 0 1 2 2v31M30 2v23" data-name="layer2" style="stroke: #003369;"/><path fill="none" stroke="#003369" stroke-miterlimit="10" stroke-width="2" d="M44.1 39.1L28.4 23.5a5 5 0 0 0-7 0 5 5 0 0 0 0 7l8.6 8.6s-2.6 8 6 14.9" data-name="layer1" style="stroke: #003369;"/></svg>
