<?xml version="1.0" encoding="UTF-8"?>
<svg xmlns="http://www.w3.org/2000/svg" aria-describedby="desc" aria-labelledby="title" viewBox="0 0 64 64"><circle cx="32" cy="23" r="5" fill="none" stroke="#003369" stroke-miterlimit="10" stroke-width="2" data-name="layer2" style="stroke: #003369;"/><path fill="none" stroke="#003369" stroke-miterlimit="10" stroke-width="2" d="M40.4 32H23.6a1.6 1.6 0 0 0-1.6 1.6v10.8a1.6 1.6 0 0 0 1.6 1.6H26v12.4a1.6 1.6 0 0 0 1.6 1.6h8.8a1.6 1.6 0 0 0 1.6-1.6V46h2.4a1.6 1.6 0 0 0 1.6-1.6V33.6a1.6 1.6 0 0 0-1.6-1.6z" data-name="layer2" style="stroke: #003369;"/><circle cx="10" cy="8" r="4" fill="none" stroke="#003369" stroke-miterlimit="10" stroke-width="2" data-name="layer1" style="stroke: #003369;"/><path fill="none" stroke="#003369" stroke-miterlimit="10" stroke-width="2" d="M16.4 16H3.6A1.6 1.6 0 0 0 2 17.6v8.8A1.6 1.6 0 0 0 3.6 28H6v10.4A1.6 1.6 0 0 0 7.6 40h4.8a1.6 1.6 0 0 0 1.6-1.6V28h2.4a1.6 1.6 0 0 0 1.6-1.6v-8.8a1.6 1.6 0 0 0-1.6-1.6z" data-name="layer1" style="stroke: #003369;"/><circle cx="54" cy="8" r="4" fill="none" stroke="#003369" stroke-miterlimit="10" stroke-width="2" data-name="layer1" style="stroke: #003369;"/><path fill="none" stroke="#003369" stroke-miterlimit="10" stroke-width="2" d="M60.4 16H47.6a1.6 1.6 0 0 0-1.6 1.6v8.8a1.6 1.6 0 0 0 1.6 1.6H50v10.4a1.6 1.6 0 0 0 1.6 1.6h4.8a1.6 1.6 0 0 0 1.6-1.6V28h2.4a1.6 1.6 0 0 0 1.6-1.6v-8.8a1.6 1.6 0 0 0-1.6-1.6z" data-name="layer1" style="stroke: #003369;"/></svg>
