<?xml version="1.0" encoding="UTF-8"?>
<svg xmlns="http://www.w3.org/2000/svg" aria-describedby="desc" aria-labelledby="title" viewBox="0 0 64 64"><path fill="none" stroke="#003369" stroke-miterlimit="10" stroke-width="2" d="M32 14.4l8.8-8.8a12.4 12.4 0 0 1 17.6 0 12.4 12.4 0 0 1 0 17.6L44.3 37.3a12.4 12.4 0 0 1-17.6 0 12.6 12.6 0 0 1-1.6-1.9" data-name="layer2" style="stroke: #003369;"/><path fill="none" stroke="#003369" stroke-miterlimit="10" stroke-width="2" d="M32 49.6l-8.8 8.8a12.4 12.4 0 0 1-17.6 0 12.4 12.4 0 0 1 0-17.6l14.1-14.1a12.4 12.4 0 0 1 17.6 0 12.5 12.5 0 0 1 1.6 1.9" data-name="layer1" style="stroke: #003369;"/></svg>
