<?xml version="1.0" encoding="UTF-8"?>
<svg xmlns="http://www.w3.org/2000/svg" data-name="Ebene 1" viewBox="0 0 64 64"><path fill="none" stroke="#003369" stroke-miterlimit="10" stroke-width="2" d="M20.41 19.71l11.1 4.85 8.93-3.84c1.13 3.44-.52 5-3.95 6.47l-1.25.54-.64.27c-3.89 1.66-3.78 1.24-5.81.68l-8.32-2.8M24.42 7.07a5 5 0 1 1-4.53-5.48 5 5 0 0 1 4.53 5.48z" style="stroke: #003369;"/><path fill="none" stroke="#003369" stroke-miterlimit="10" stroke-width="2" d="M28.44 28.53l.71 5.47 8.32 11.68-1.87 13.87c-.15 1.55-.76 2.62-2.85 2.42-3.1-.3-2.68-2.94-2.68-2.94l1.16-12.66-7.91-6.52.09 8.6-4.63 11.6s-.11 2.67-3.41 2.36a2.64 2.64 0 0 1-2.6-2.93l3.92-12.15-1.47-27.79c0-3.9.9-4.71 3.56-5.27l5.08-.09a3.64 3.64 0 0 1 3.43 3.25c.14 1.26.8 5.8.8 5.8M40.35 24.4l.71.91a5.7 5.7 0 1 0 9-7l-4-5-6.42 1.1 6.09 7.77M23.21 9.88a4.32 4.32 0 0 1 6.07.73l3.93 4.7-.84.66.86 1.09.84-.66.59.75-.84.66.86 1.1.84-.66.59.74-.85.67.86 1.09.85-.66 1.09 1.45" style="stroke: #003369;"/></svg>
