<?xml version="1.0" encoding="UTF-8"?>
<svg xmlns="http://www.w3.org/2000/svg" data-name="Ebene 1" viewBox="0 0 64 64"><circle cx="28.79" cy="7.82" r="5.43" fill="none" stroke="#003369" stroke-miterlimit="10" stroke-width="2" style="stroke: #003369;"/><path fill="none" stroke="#003369" stroke-miterlimit="10" stroke-width="2" d="M28.94 39.27l6.72 9.12v10.44s-.17 2.78 3.07 2.78c2.2 0 2.72-1.16 2.72-2.78V47.36l-6.9-12.24M28.79 40.26v18.57s.15 2.78-3.3 2.78a2.75 2.75 0 0 1-3-2.78V44.49M24.12 31.71a2.33 2.33 0 0 1 .48-.46 2.71 2.71 0 0 1 3.25 4.34 2.76 2.76 0 0 1-.65.36" style="stroke: #003369;"/><path fill="none" stroke="#003369" stroke-miterlimit="10" stroke-width="2" d="M16.92 29.66c-.71.21-.68.34-1.3 1-2.63 2.63-1.9 7.26.44 10.39a9.78 9.78 0 0 0 7.4 4 4.81 4.81 0 0 0 4.24-2.3c.86-1.45 1.17-3.26 2.31-4.53 1.53-1.72 4.94-2 5.57-4.49A6.54 6.54 0 0 0 34.44 29M32.78 26.78c-1.57-1.67-3.85-3.15-5.78-2.14a5.83 5.83 0 0 0-1 .72 16.65 16.65 0 0 1-4.58 3.22M44.77 22.42l-2-2.71a1.68 1.68 0 0 1 .33-2.35l3-2.26a1.68 1.68 0 0 1 2.35.33l1.24 1.65a1.69 1.69 0 0 1-.33 2.36l-1.17.84" style="stroke: #003369;"/><path fill="none" stroke="#003369" stroke-miterlimit="10" stroke-width="2" d="M42.57 19.44l-12 9a.89.89 0 0 0-.17 1.25l.57.77a.89.89 0 0 0 1.25.17l12-9" style="stroke: #003369;"/><path fill="none" stroke="#003369" stroke-miterlimit="10" stroke-width="2" d="M44.86 22.54l-.46-.77a1.83 1.83 0 0 1 .18-2.26 2.07 2.07 0 0 1 2.42-.63 2.59 2.59 0 0 1 1 1c1.36 2.39 1.15 2 1.71 3 0 0-8.08 6.06-11.59 7.47A2.72 2.72 0 0 1 34.44 29M37.71 22.42c-3.49-4.87-7.25-6.12-10.88-6.12s-10.45 1.78-10.45 5.23v6.3c0 2-.42 2 2.13 5.25l.42.53.82 1c2.22 2.84 4.16 3.45 7.08 1.51l-5.89-6.84-.08-5.28" style="stroke: #003369;"/></svg>
