<?xml version="1.0" encoding="UTF-8"?>
<svg xmlns="http://www.w3.org/2000/svg" data-name="Ebene 1" viewBox="0 0 64 64"><path fill="#003369" d="M32.14 21.58a5.34 5.34 0 1 0-5.34-5.34 5.35 5.35 0 0 0 5.34 5.34zm0-8.67a3.34 3.34 0 1 1-3.34 3.33 3.34 3.34 0 0 1 3.34-3.33z" style="fill: #003369;"/><path fill="#003369" d="M58.77 36.38a2.59 2.59 0 0 0 1.67-2.27c0-2.87-5.13-3.41-8.53-3.45v-1.52h-2v1.54c-3.32.14-7.53.83-7.53 3.43a2.14 2.14 0 0 0 .62 1.48l-1.81.29a16.44 16.44 0 0 0-1.89-1.22h.16v-3.32l8.54-7.1L50.71 18c1.42-3 .66-5.21-2.4-7l-1-.55-.38.86L40.35 1.1l-1.68 1.08L46 13.53l-2.18 4.85L38 23.25H27.2l-7.51-3.88-2.83-6.31 5.08-4.48-1.33-1.5-7.14 6.31c-1.47 1.61-1.72 3.39-.64 5.67l2.79 6.4L25 30v4.59l-6.65-1.11c1.83-.49 3.24-1.35 3.24-2.85 0-2.6-4.21-3.29-7.53-3.43v-1.58h-2v1.51c-3.4.05-8.53.59-8.53 3.46 0 1.15.83 1.92 2 2.44l-2 11.54L12 46v16.46h2V46.31l3.37.57v.79a14.74 14.74 0 0 0 3.09 9l-3.94 4.91L18 62.87l3.72-4.63a14.8 14.8 0 0 0 20.76.08l4.05 4.58L48 61.58l-4.21-4.76A14.85 14.85 0 0 0 47 48.6l3-.53V62h2V47.74l8.39-1.41zM17.16 24l-2.51-5.75c-.8-1.69-.66-2.74.66-3.75l2.84 6.34 8.57 4.43h12l6.75-5.63 2.8-6.24c1.31 1 1.45 2.07.64 3.79L46.34 23l-8.91 7.4v3.41A14.57 14.57 0 0 0 27 33.75v-5.06zM12 44l-6.08-1 1.64-9.26 4.44.66zm.63-11.9c-4.23 0-7-.88-7-1.46s2.59-1.39 6.53-1.46v1.13h2v-1.14c3.38.17 5.53.91 5.53 1.42s-2.87 1.46-7.1 1.46zM14 44.28v-9.54l8.77 1.45a14.89 14.89 0 0 0-5.17 8.7zm18.14 16.25A12.86 12.86 0 1 1 45 47.67a12.87 12.87 0 0 1-12.86 12.86zM47 46.57a14.81 14.81 0 0 0-2-6.39 14 14 0 0 0-2-2.58l3.14-.5a23.06 23.06 0 0 0 3.86.44v8.51zm5-.86v-8.15a24.29 24.29 0 0 0 4.81-.51l1.28 7.64zm-.63-10.14c-4.23 0-7-.88-7-1.46s2.15-1.25 5.53-1.42v1.09h2v-1.12c3.94.06 6.53.89 6.53 1.45s-2.79 1.46-7.02 1.46z" style="fill: #003369;"/></svg>
