<?xml version="1.0" encoding="UTF-8"?>
<svg xmlns="http://www.w3.org/2000/svg" data-name="Ebene 1" viewBox="0 0 64 64"><circle cx="20.76" cy="7.03" r="5.32" fill="none" stroke="#003369" stroke-miterlimit="10" stroke-width="2" style="stroke: #003369;"/><path fill="none" stroke="#003369" stroke-miterlimit="10" stroke-width="2" d="M20.86 35l.14 4.55-4.66 20a2.69 2.69 0 0 0 2.93 2.72c3.38 0 3.24-2.72 3.24-2.72l4.2-18.26 3.35-1.38v19.32s-.18 2.72 3 2.72c2.15 0 2.67-1.13 2.67-2.72V47.99l-.03-13.25L33.16 19" style="stroke: #003369;"/><path fill="none" stroke="#003369" stroke-miterlimit="10" stroke-width="2" d="M19.41 23.09L18.6 28l9 5c-1.76 2.95-3.74 3.23-6.9 1.65 0 0-6.15-2.46-8.15-4.29l1.4-8.41c1-4.1 2.56-5 5.77-6.52L24.25 14M51.5 21.55l-7.56-3.22M49.93 18.7l-1.65 3.88M47.39 17.62l-1.64 3.87M38.82 16.35l-10.05-4.14M25.75 32.08L39.96 7.03" style="stroke: #003369;"/><path fill="none" stroke="#003369" stroke-miterlimit="10" stroke-width="2" d="M33.91 23.66l3.7 2.34c2.54-2.71 7.26-9 7.26-9a14.14 14.14 0 0 0-2.51-1.6c-.36-.23-3.24-1.67-4.36.6a1.81 1.81 0 0 0 .84 2.23c-.69.75-1.14 1.42-2.24 1.42a3.84 3.84 0 0 1-2.28-.84 3.06 3.06 0 0 0-2.95-2.3A3.11 3.11 0 0 0 29 17.75L26.56 17c-1.44-.35-3-3.16-1.67-6.38 0 0 2.24-3.95 6-2.78A12.91 12.91 0 0 1 33.45 9s-.74 2.89 3 3.17a2.84 2.84 0 0 0 1.44-.35c1.65.41 2.83 1.39 2.83 3.17" style="stroke: #003369;"/></svg>
