<?xml version="1.0" encoding="UTF-8"?>
<svg xmlns="http://www.w3.org/2000/svg" data-name="Ebene 1" viewBox="0 0 64 64"><path fill="none" stroke="#003369" stroke-miterlimit="10" stroke-width="2" d="M56.24 52.49h.36a1.07 1.07 0 0 0 1.07-1.07v-1.88a2.5 2.5 0 0 0-2.5-2.5H43.75a2.5 2.5 0 0 0-2.5 2.5v1.88a1.07 1.07 0 0 0 1.07 1.07h.36m.61 7.35v-7.35h12.6v7.38M39.69 30.66L31 24.28s-3-2.48-.3-3.33a6.46 6.46 0 0 1 5.62 1.23l5.87 4.15M39 59.92v-1.45a2.6 2.6 0 0 0-2.59-2.6h-1.84M12.93 22.95v12.12M18.43 20.67v22.32M23.93 13.16v42.55M29.43 10.51V31.6M40 11.29a5.14 5.14 0 1 0 5.13-5.14A5.13 5.13 0 0 0 40 11.29zM25.38 60.28l7.87-15.5s1.13-3.19 3.59-3.89a16.56 16.56 0 0 1 2.27-.5c1.65-.18 4-.16 4-.16l-.17-5.66" style="stroke: #003369;"/><path fill="none" stroke="#003369" stroke-miterlimit="10" stroke-width="2" d="M32 59.84L39 47h9.25a5.36 5.36 0 0 0 4.08-1.86c1.16-1.4 1.19-4.29 1.19-4.29L53 25.16a5.62 5.62 0 0 0-5.61-5.62 4.83 4.83 0 0 0-5.15 5.12v3.1l-3.93 4.68H28.4c.32 3.68 2.51 4.52 6.3 4.49h2.11c4.3 0 4-.36 5.71-1.69l6.69-7.64M20.3 55.92h7.39M34.65 36.72v5.45M29.43 35.23v16.9" style="stroke: #003369;"/><path fill="none" stroke="#003369" stroke-miterlimit="10" stroke-width="2" d="M34.74 32.26v-23c1 0 1-.14 1-.76V5.27a1.58 1.58 0 0 0-1.58-1.58h-6.57A1.58 1.58 0 0 0 26 5.3v.49c-.16 2-.14 2.76.26 3.2a.92.92 0 0 0 .69.3h2.5v1.22a4.85 4.85 0 0 0-1.41.12 7.57 7.57 0 0 0-3 1.57h0a13.76 13.76 0 0 0-1.19 1.13c-.25.27-.51.56-.76.88a22.36 22.36 0 0 0-1.7 2.43c-.3.47-.61.93-.93 1.36h0c-.22.3-.45.6-.68.87a13.73 13.73 0 0 1-2.45 2.29c-.22.15-.44.3-.67.44a9.09 9.09 0 0 1-2.38 1 5.18 5.18 0 0 1-.66.14 7.23 7.23 0 0 1-2.32 0c-.22 0-.44-.08-.65-.13a7.31 7.31 0 0 1-2.8-1.43A2.87 2.87 0 0 0 4 21.4a3 3 0 0 0-.81 2.6A10.18 10.18 0 0 0 5 28.24h0c1 1.58 2.61 4.27 4.7 8l.73 1.3c.79 1.43 1.67 3 2.6 4.73l.64 1.19.08.14c.85 1.56 1.72 3.19 2.6 4.82l.72 1.35c.87 1.63 1.75 3.28 2.6 4.9l.65 1.23a2.59 2.59 0 0 0-2.11 2.55v1.37M60.83 59.73H9.53" style="stroke: #003369;"/></svg>
