<?xml version="1.0" encoding="UTF-8"?>
<svg xmlns="http://www.w3.org/2000/svg" data-name="Ebene 1" viewBox="0 0 64 64"><path fill="none" stroke="#003369" stroke-miterlimit="10" stroke-width="2" d="M57.84 51.64h.35a1.07 1.07 0 0 0 1.07-1.07v-1.89a2.5 2.5 0 0 0-2.5-2.49H45.35a2.5 2.5 0 0 0-2.5 2.49v1.89a1.07 1.07 0 0 0 1.07 1.07h.36m.61 7.92v-7.92h12.6v7.92M41.26 29.84l-8.74-6.38s-3-2.49-.29-3.34a6.44 6.44 0 0 1 5.61 1.24l5.92 4.15M40.58 59.67v-2A2.6 2.6 0 0 0 38 55.05h-1.86M14.49 22.12v12.12M19.99 19.84v22.33M25.5 12.33v42.55M31 9.69v21.08M41.56 10.46a5.14 5.14 0 1 0 5.13-5.13 5.13 5.13 0 0 0-5.13 5.13z" style="stroke: #003369;"/><path fill="none" stroke="#003369" stroke-miterlimit="10" stroke-width="2" d="M44.48 33.75l.16 5.65s-2.32 0-4 .16a18 18 0 0 0-2.26.5c-2.47.71-3.59 3.9-3.59 3.9l-6.58 13.57s-1.52 3 2 3.55c2.48.41 4.71-4.42 4.71-4.42l5.66-10.45h9.24a5.38 5.38 0 0 0 4.09-1.86c1.16-1.4 1.18-4.29 1.18-4.29l-.49-15.69a5.62 5.62 0 0 0-5.6-5.65 4.82 4.82 0 0 0-5.14 5.12v3.08l-3.91 4.69H30c.31 3.68 2.5 4.51 6.3 4.48h2.1c4.31 0 4-.35 5.72-1.68l6.68-7.65M21.87 55.09h7.39M36.09 36.03l.13 5.31M31 34.48v16.83" style="stroke: #003369;"/><path fill="none" stroke="#003369" stroke-miterlimit="10" stroke-width="2" d="M36.3 31.43v-23c1 0 1-.15 1-.76V4.44a1.58 1.58 0 0 0-1.57-1.54h-6.57a1.58 1.58 0 0 0-1.58 1.58v.48c-.16 2-.15 2.76.26 3.2a.93.93 0 0 0 .69.31H31v1.22a4.5 4.5 0 0 0-1.41.12 7.31 7.31 0 0 0-3 1.57h0a12.3 12.3 0 0 0-1.19 1.12c-.25.27-.51.57-.76.88a23.41 23.41 0 0 0-1.71 2.43c-.29.48-.6.94-.92 1.37h0q-.33.45-.69.87a13.4 13.4 0 0 1-2.45 2.29c-.21.15-.44.3-.67.44a9.15 9.15 0 0 1-2.38 1l-.65.14a7.29 7.29 0 0 1-2.33 0c-.22 0-.43-.08-.64-.14a7.47 7.47 0 0 1-2.81-1.42 2.85 2.85 0 0 0-3.79.15 3.05 3.05 0 0 0-.84 2.62 10.1 10.1 0 0 0 1.79 4.23h0c1 1.57 2.6 4.27 4.7 8l.72 1.3c.8 1.43 1.67 3 2.6 4.73l.65 1.2.07.13c.85 1.64 1.71 3.28 2.61 4.9q.36.69.72 1.35l2.6 4.89.65 1.23a2.61 2.61 0 0 0-2.12 2.55" style="stroke: #003369;"/></svg>
