<?xml version="1.0" encoding="UTF-8"?>
<svg xmlns="http://www.w3.org/2000/svg" data-name="Ebene 1" viewBox="0 0 64 64"><circle cx="32.83" cy="19.27" r="4.85" fill="none" stroke="#003369" stroke-miterlimit="10" stroke-width="2" style="stroke: #003369;"/><path fill="none" stroke="#003369" stroke-miterlimit="10" stroke-width="2" d="M56 57.93v-14h2.87a.87.87 0 0 0 .88-.88v-9.33a.88.88 0 0 0-.88-.88h-.29v-8.46a.78.78 0 0 0 0-.21s.11-.66-1.23-.66H35.1m3.17 20.42H56m-48 0h18M11.57 23.51h-2.9a3.21 3.21 0 0 0-3.21 3.21v6.12h-.29a.88.88 0 0 0-.88.88v9.33a.87.87 0 0 0 .88.88h2.76v14m40.18-34.42L15.32 4.38l39.45 19.13m-6.44 15.75H53a.88.88 0 0 0 .88-.87v-3.8h5.83m-55.42 0h5.83v3.8a.88.88 0 0 0 .88.87h9.33m10.35-15.75H11.57l11.16-15.1m11.87 15.1M38.63 55H39a1.07 1.07 0 0 0 1.07-1.07V52a2.5 2.5 0 0 0-2.5-2.49H26.14a2.5 2.5 0 0 0-2.5 2.49v1.89A1.07 1.07 0 0 0 24.71 55h.36m.62 4.63V55h12.59v4.63M29.49 54.94l-.06 4.68" style="stroke: #003369;"/><path fill="none" stroke="#003369" stroke-miterlimit="10" stroke-width="2" d="M45.5 59.62l-7.27-14v-9.38l3.25 3.33s2 2.65 3.91 1.54A55 55 0 0 0 51 36.6s1.75-1.39-1.15-2c-2.21-.47-4.56 1.28-4.56 1.28l-3-4.09c-3.21-4.42-6.53-5-10-5s-8.52 1.13-10 5l-2 5.71c0 1.95 2.13 3.46 4.29 3.46l1.37-2.76v8.2a3.46 3.46 0 0 0 .73 2.46 3.1 3.1 0 0 0 2 .69M10.12 35.89h10.72M52.88 35.89h1M51.41 35.89h2.61" style="stroke: #003369;"/></svg>
