<?xml version="1.0" encoding="UTF-8"?>
<svg xmlns="http://www.w3.org/2000/svg" viewBox="0 0 64 64"><g fill="#003369"><path d="M36.67 63.84H15.84c-1.7 0-3.08-1.38-3.08-3.08v-37.5c0-1.7 1.38-3.08 3.08-3.08h20.83c1.7 0 3.08 1.38 3.08 3.08v37.5c0 1.7-1.38 3.08-3.08 3.08zm-21.91-8.33v5.25c0 .6.49 1.08 1.08 1.08h20.83c.6 0 1.08-.49 1.08-1.08v-5.25H14.76zm0-2h23V27.73h-23V53.5zm0-27.77h23v-2.47c0-.6-.49-1.08-1.08-1.08H15.84c-.6 0-1.08.49-1.08 1.08v2.47z" style="fill: #003369;"/><path d="M26.26 61.06a2.39 2.39 0 1 1 0-4.78 2.39 2.39 0 0 1 0 4.78zm0-2.78c-.21 0-.39.17-.39.39s.17.39.39.39.39-.17.39-.39-.17-.39-.39-.39z" style="fill: #003369;"/></g><path fill="#003369" d="M60.26 23.95h-2c0-11.91-9.69-21.59-21.6-21.59v-2c13.01 0 23.6 10.58 23.6 23.59zm-6.7 0h-2c0-8.22-6.68-14.9-14.9-14.9v-2c9.32 0 16.9 7.58 16.9 16.9zm-6.69 0h-2c0-4.52-3.68-8.21-8.21-8.21v-2c5.63 0 10.21 4.58 10.21 10.21z" style="fill: #003369;"/></svg>
