<?xml version="1.0" encoding="UTF-8"?>
<svg xmlns="http://www.w3.org/2000/svg" aria-describedby="desc" aria-labelledby="title" viewBox="0 0 64 64"><path fill="none" stroke="#003369" stroke-miterlimit="10" stroke-width="2" d="M32 2c-6.6 0-14 4-14 14.4V20c-3 0-3 2.1-3 3s.4 5 3.4 5a17.2 17.2 0 0 0 7.2 10.3m12 0A17.2 17.2 0 0 0 44.8 28c3 0 3.2-4 3.2-5s0-3-3-3v-3.6C45 6 38.6 2 32 2" data-name="layer2" style="stroke: #003369;"/><path fill="none" stroke="#003369" stroke-miterlimit="10" stroke-width="2" d="M24 37.1c0 2 .6 3.8-10.4 5.9S2 54 2 54v8h60v-8s0-8.7-12.4-11C38.9 41 39 39.3 39 37.3M18 18c12 0 11.6-8 19.6-8s7.4 7 7.4 7" data-name="layer2" style="stroke: #003369;"/><path fill="none" stroke="#003369" stroke-miterlimit="10" stroke-width="2" d="M23.9 38.7L32 44l7.2-5.1M32 44v18" data-name="layer2" style="stroke: #003369;"/><path fill="none" stroke="#003369" stroke-miterlimit="10" stroke-width="2" d="M22 40.6V52" data-name="layer1" style="stroke: #003369;"/><circle cx="22" cy="54" r="2" fill="none" stroke="#003369" stroke-miterlimit="10" stroke-width="2" data-name="layer1" style="stroke: #003369;"/><path fill="none" stroke="#003369" stroke-miterlimit="10" stroke-width="2" d="M41.7 55.7A3 3 0 0 1 40 53v-6a3 3 0 0 1 3-3h4a3 3 0 0 1 3 3v6a3 3 0 0 1-1.6 2.6M45 44s1-6-5-6h-1" data-name="layer1" style="stroke: #003369;"/></svg>
