<?xml version="1.0" encoding="UTF-8"?>
<svg xmlns="http://www.w3.org/2000/svg" aria-describedby="desc" aria-labelledby="title" viewBox="0 0 64 64"><path fill="none" stroke="#003369" stroke-width="2" d="M58 40S37.2 24.1 28 16C12 19 6 30 6 30l52 10zm0 8v-8M6 44v6l52 12V52M6 30v8" data-name="layer2" style="stroke: #003369;"/><path fill="none" stroke="#003369" stroke-width="2" d="M58 52a9.4 9.4 0 0 1-9.5 1.2c-4.1-1.9-3.7-2.9-10.5-3.2s-9.8.7-14-2a13.7 13.7 0 0 0-8-2c-5.2.6-9.7-1.5-10-2v-6l52 10zM34 2v26" data-name="layer1" style="stroke: #003369;"/></svg>
