<?xml version="1.0" encoding="UTF-8"?>
<svg xmlns="http://www.w3.org/2000/svg" aria-describedby="desc" aria-labelledby="title" viewBox="0 0 64 64"><path fill="none" stroke="#003369" stroke-width="2" d="M49 14a43.6 43.6 0 0 0-2-12H17a43.6 43.6 0 0 0-2 12" data-name="layer2" style="stroke: #003369;"/><path fill="none" stroke="#003369" stroke-width="2" d="M19.1 33.9A48.3 48.3 0 0 1 21 46v14a2 2 0 0 0 2.1 2h17.8a2 2 0 0 0 2.1-2V46a48.3 48.3 0 0 1 1.9-12.1C46 29.6 49 19 49 14H15c0 5 3 15.6 4.1 19.9z" data-name="layer1" style="stroke: #003369;"/><circle cx="32" cy="21" r="1" fill="none" stroke="#003369" stroke-width="2" data-name="layer1" style="stroke: #003369;"/><circle cx="38" cy="27" r="1" fill="none" stroke="#003369" stroke-width="2" data-name="layer1" style="stroke: #003369;"/><circle cx="30" cy="33" r="1" fill="none" stroke="#003369" stroke-width="2" data-name="layer1" style="stroke: #003369;"/><circle cx="34" cy="41" r="1" fill="none" stroke="#003369" stroke-width="2" data-name="layer1" style="stroke: #003369;"/><circle cx="30" cy="49" r="1" fill="none" stroke="#003369" stroke-width="2" data-name="layer1" style="stroke: #003369;"/></svg>
