<?xml version="1.0" encoding="UTF-8"?>
<svg xmlns="http://www.w3.org/2000/svg" viewBox="0 0 64 64"><path fill="none" stroke="#003369" stroke-miterlimit="10" stroke-width="2" d="M46.59 56.53h-21.1m35.46 0h-5.03m-7.89-3.43h-5.14m0-15.44H53.1l3.77 6.86h3.34c.69 0 1.54.17 1.54 1.2v7.38h-6.98m5.53-8.58H46.84v-6.78m-7.93-6.94h3.98v22.3H23.76M17.33 53.11h-5.3V38.58" style="stroke: #003369;"/><circle cx="20.55" cy="56.48" r="4.67" fill="none" stroke="#003369" stroke-miterlimit="10" stroke-width="2" style="stroke: #003369;"/><circle cx="51.25" cy="56.48" r="4.67" fill="none" stroke="#003369" stroke-miterlimit="10" stroke-width="2" style="stroke: #003369;"/><ellipse cx="21.7" cy="21.95" fill="none" stroke="#003369" stroke-miterlimit="10" stroke-width="2" rx="19.46" ry="19.1" style="stroke: #003369;"/><path fill="none" stroke="#003369" stroke-miterlimit="10" stroke-width="2" d="M35.01 35.89s-.03-2.96-5.33-4.02c-4.43-.89-4.44-2.22-4.44-3.11v-1.44M18.15 27.33v1.43c0 .89 0 2.22-4.44 3.11C8.39 32.93 8.5 36 8.5 36M24.36 27.87a7.459 7.459 0 0 0 3.18-4.5c1.34-.02 1.65-1.89 1.65-2.31s.04-2.04-1.29-2.06v-.89m-12.43 0V19c-1.33.01-1.29 1.68-1.29 2.1s.32 2.28 1.67 2.28a7.5 7.5 0 0 0 3.18 4.5" style="stroke: #003369;"/><path fill="none" stroke="#003369" stroke-miterlimit="10" stroke-width="2" d="M25.52 29.97l-3.82 2.34 1.77 3.99 4.49-4.88m-12.48 0l4.44 4.88 1.77-3.99L17.85 30M16.47 10.23s-5.07-2.17-5.16 3.22l2.75 4.66h15.18l2.83-4.46s.3-5.18-5.12-3.38" style="stroke: #003369;"/><path fill="none" stroke="#003369" stroke-miterlimit="10" stroke-width="2" d="M11.31 13.45c1.12-.03 2.53-.68 3.36-1.43s1.93-2.04 2.73-2.83c1.53-1.51 3.75-2.06 5.82-1.5 1.74.47 2.99 2.01 4.25 3.3s2.83 2.94 4.61 2.66" style="stroke: #003369;"/><path fill="#003369" d="M23.69 15.18h-1.14l-.9-1.27-.93 1.27h-1.03l1.46-1.99-1.37-1.96h1.13l.82 1.17.85-1.17h1.04l-1.39 1.89 1.46 2.07z" style="fill: #003369;"/><rect width="3.13" height="2.52" x="17.7" y="20.17" fill="none" stroke="#003369" stroke-miterlimit="10" stroke-width="2" rx=".95" ry=".95" transform="rotate(-21.93 19.276 21.433)" style="stroke: #003369;"/><path fill="none" stroke="#003369" stroke-miterlimit="10" stroke-width="2" d="M20.72 20.88c2.02-.82 3.51-1.61 5.24-2.77M14.82 22.88c1.17-.31 1.8-.52 2.99-.94" style="stroke: #003369;"/></svg>
