<?xml version="1.0" encoding="UTF-8"?>
<svg xmlns="http://www.w3.org/2000/svg" aria-describedby="desc" aria-labelledby="title" viewBox="0 0 64 64"><path fill="none" stroke="#003369" stroke-width="2" d="M28.1 20v-6a24.1 24.1 0 1 0 21.8 13.9l-5.4 2.5m10.3-12.2l5-2.4A24 24 0 0 0 38.1 2l-.8 5" data-name="layer2" style="stroke: #003369;"/><path fill="none" stroke="#003369" stroke-width="2" d="M10.1 38a18 18 0 1 0 34.3-7.6L28.1 38V20a18 18 0 0 0-18 18z" data-name="layer1" style="stroke: #003369;"/><circle cx="21.1" cy="35" r="2" fill="none" stroke="#003369" stroke-width="2" data-name="layer1" style="stroke: #003369;"/><circle cx="25.1" cy="47" r="1" fill="none" stroke="#003369" stroke-width="2" data-name="layer1" style="stroke: #003369;"/><circle cx="35.1" cy="43" r="3" fill="none" stroke="#003369" stroke-width="2" data-name="layer1" style="stroke: #003369;"/><path fill="none" stroke="#003369" stroke-width="2" d="M38.1 7h-.8l-3.2 21 20.7-9.8A18 18 0 0 0 38.1 7z" data-name="layer1" style="stroke: #003369;"/></svg>
