<?xml version="1.0" encoding="UTF-8"?>
<svg xmlns="http://www.w3.org/2000/svg" data-name="Layer 1" viewBox="0 0 64 64"><path fill="none" stroke="#003369" stroke-miterlimit="10" stroke-width="2" d="M33.39 25.05c.79-.05 7.17 2.09 7.52 4.79a25.6 25.6 0 0 1 3.79-13.92 23.88 23.88 0 0 1 1.79-2.57" style="stroke: #003369;"/><path fill="none" stroke="#003369" stroke-miterlimit="10" stroke-width="2" d="M42.47 19.79s-2.38-10 10.25-14.24a18.42 18.42 0 0 1-9.87 14.71M41.19 44.52l15.05-7.07a2.66 2.66 0 0 1 3.06 4.23l-.29.26-18.1 14.11A10.22 10.22 0 0 1 31.26 58l-19.79-5.25H4V40.88h8.25a.86.86 0 0 0 .47-.16s5-3.7 9.13-3.45S40.27 44 41 44.39c.23.17 3.58 1.21 2.54 4.22C43.09 50 41 50.32 39.7 50l-16.46-3.78M29.09 39.05c-.6.89 7.77-6 23.56.08M40.91 29.84c-11.48-.34-14.36-7.14-15-9.58h.5c11.44-.01 13.98 7.07 14.5 9.58zM41.6 29.84c.55-2.55 3.15-9.79 15-9.58-.65 2.44-3.54 9.24-15 9.58z" style="stroke: #003369;"/><path fill="none" stroke="#003369" stroke-miterlimit="10" stroke-width="2" d="M49.93 25.05a22.52 22.52 0 0 0-9 4.79l.32 9.29" style="stroke: #003369;"/></svg>
