<?xml version="1.0" encoding="UTF-8"?>
<svg xmlns="http://www.w3.org/2000/svg" data-name="Layer 1" viewBox="0 0 64 64"><path fill="none" stroke="#003369" stroke-miterlimit="10" stroke-width="2" d="M25.71 57.4L41.41 37h10.08c2.77 0 9.92-2.24 9.92-5s-7.15-5-9.92-5H41.41L25.71 6.6S24.61 5 23.41 5h-3.2a1.4 1.4 0 0 0-1.3.7 5.19 5.19 0 0 0 .5 2.4l6.2 18.9h-11.2l-6.5-7.3a1.59 1.59 0 0 0-1.4-.7h-3.1c-.4 0-1.3.1-.8 1.4S7.41 32 7.41 32s-4.3 10.2-4.8 11.6.39 1.4.8 1.4h3.1a1.61 1.61 0 0 0 1.4-.7l5.5-7.3h12.2l-6.2 18.9a5.19 5.19 0 0 0-.5 2.4 1.3 1.3 0 0 0 1.3.7h3.2c1.2 0 2.3-1.6 2.3-1.6z" style="stroke: #003369;"/></svg>
