<?xml version="1.0" encoding="UTF-8"?>
<svg xmlns="http://www.w3.org/2000/svg" data-name="Layer 1" viewBox="0 0 64 64"><path fill="none" stroke="#003369" stroke-miterlimit="10" stroke-width="2" d="M41.28 35.34l15.21-7.14a2.7 2.7 0 0 1 3 .47 2.69 2.69 0 0 1-.2 4.07L41 47a10.34 10.34 0 0 1-9.76 1.94l-20-5.28a.64.64 0 0 0-.2 0H3.66v-12H12a.84.84 0 0 0 .48-.16s5-3.74 9.22-3.48 18.65 6.84 19.4 7.19c.23.17 3.62 1.23 2.57 4.27-.47 1.39-2.63 1.73-3.89 1.43l-16.64-3.85M41 24.28c-11.6-.35-14.52-7.22-15.2-9.69h.5c11.61-.01 14.17 7.15 14.7 9.69zm.7 0c.55-2.58 3.18-9.9 15.2-9.69-.66 2.47-3.58 9.34-15.19 9.69zM41.36 25.34v5.1" style="stroke: #003369;"/></svg>
