<?xml version="1.0" encoding="UTF-8"?>
<svg xmlns="http://www.w3.org/2000/svg" aria-describedby="desc" aria-labelledby="title" viewBox="0 0 64 64"><path fill="none" stroke="#003369" stroke-width="2" d="M38.4 31.2L31.5 18a7.7 7.7 0 0 0-5.9-3.7c.2 3.6 1 12 1 12" data-name="layer2" style="stroke: #003369;"/><path fill="none" stroke="#003369" stroke-width="2" d="M50.4 36.1L15.7 21.8a2.7 2.7 0 0 1-1.7-2.7c0-1.6-1.2-4.8-3.4-5.7l-2.4-.9-.8 12.4a2.5 2.5 0 0 0 1.5 1.8L23.8 34 9.9 43.9a10.4 10.4 0 0 0 8.6 1.6l18.6-5.1L56.8 50s5.3-9.3-6.4-13.9z" data-name="layer1" style="stroke: #003369;"/></svg>
