<?xml version="1.0" encoding="UTF-8"?>
<svg xmlns="http://www.w3.org/2000/svg" data-name="Layer 1" viewBox="0 0 64 64"><g fill="#1d3763" data-name="Aisle Seat"><path d="M10.86 36.7h-5.5a3.21 3.21 0 0 1-3.2-3.2v-2.2a3.21 3.21 0 0 1 3.2-3.2h5.5a3.2 3.2 0 0 1 3.2 3.2v2.2a3.2 3.2 0 0 1-3.2 3.2zm-5.5-6.6a1.2 1.2 0 0 0-1.2 1.2v2.2a1.2 1.2 0 0 0 1.2 1.2h5.5a1.2 1.2 0 0 0 1.2-1.2v-2.2a1.2 1.2 0 0 0-1.2-1.2zM35.61 36.7h-5.5a3.21 3.21 0 0 1-3.2-3.2v-2.2a3.21 3.21 0 0 1 3.2-3.2h5.5a3.2 3.2 0 0 1 3.2 3.2v2.2a3.2 3.2 0 0 1-3.2 3.2zm-5.5-6.6a1.2 1.2 0 0 0-1.2 1.2v2.2a1.2 1.2 0 0 0 1.2 1.2h5.5a1.2 1.2 0 0 0 1.2-1.2v-2.2a1.2 1.2 0 0 0-1.2-1.2zM26.26 19.1H14.71A3.75 3.75 0 0 1 11 15.35v-6.6A3.75 3.75 0 0 1 14.71 5h11.55A3.75 3.75 0 0 1 30 8.75v6.6a3.75 3.75 0 0 1-3.74 3.75zM14.71 7A1.76 1.76 0 0 0 13 8.75v6.6a1.76 1.76 0 0 0 1.75 1.75h11.51A1.75 1.75 0 0 0 28 15.35v-6.6A1.75 1.75 0 0 0 26.26 7zM31.21 53.2H9.76A3.75 3.75 0 0 1 6 49.45v-6.6a3.75 3.75 0 0 1 3.76-3.75h21.45A3.75 3.75 0 0 1 35 42.85v6.6a3.75 3.75 0 0 1-3.79 3.75zM9.76 41.1A1.75 1.75 0 0 0 8 42.85v6.6a1.75 1.75 0 0 0 1.76 1.75h21.45A1.75 1.75 0 0 0 33 49.45v-6.6a1.75 1.75 0 0 0-1.75-1.75z" style="fill: #003369;"/><path d="M9.11 29.1h-2V14.25a3.21 3.21 0 0 1 3.2-3.2H12v2h-1.69a1.2 1.2 0 0 0-1.2 1.2zM33.86 29.1h-2V14.25a1.2 1.2 0 0 0-1.2-1.2H29v-2h1.65a3.2 3.2 0 0 1 3.2 3.2zM9.31 52.2h2V58h-2zM29.66 52.2h2V58h-2zM47.54 52.2h2V58h-2z" style="fill: #003369;"/></g><path fill="none" stroke="#1d3763" stroke-miterlimit="10" stroke-width="2" d="M8.11 35.7v4.96" style="stroke: #003369;"/><path fill="#1d3763" d="M31.86 35.7h2v4.96h-2z" style="fill: #003369;"/><g fill="#1d3763" data-name="Aisle Seat"><path d="M49.36 36.7h-5.5a3.21 3.21 0 0 1-3.2-3.2v-2.2a3.21 3.21 0 0 1 3.2-3.2h5.5a3.2 3.2 0 0 1 3.2 3.2v2.2a3.2 3.2 0 0 1-3.2 3.2zm-5.5-6.6a1.2 1.2 0 0 0-1.2 1.2v2.2a1.2 1.2 0 0 0 1.2 1.2h5.5a1.2 1.2 0 0 0 1.2-1.2v-2.2a1.2 1.2 0 0 0-1.2-1.2zM60.84 19.1h-7.63a3.75 3.75 0 0 1-3.75-3.75v-6.6A3.75 3.75 0 0 1 53.21 5h7.63v2h-7.63a1.76 1.76 0 0 0-1.75 1.75v6.6a1.76 1.76 0 0 0 1.75 1.75h7.63zM60.84 53.2H48.26a3.75 3.75 0 0 1-3.75-3.75v-6.6a3.75 3.75 0 0 1 3.75-3.75h12.58v2H48.26a1.75 1.75 0 0 0-1.75 1.75v6.6a1.75 1.75 0 0 0 1.75 1.75h12.58z" style="fill: #003369;"/><path d="M47.61 29.1h-2V14.25a3.21 3.21 0 0 1 3.2-3.2h1.65v2h-1.65a1.2 1.2 0 0 0-1.2 1.2z" style="fill: #003369;"/></g><path fill="#1d3763" d="M45.61 35.7h2v4.96h-2zM7.01 56.74h53.83v2H7.01z" style="fill: #003369;"/></svg>
