<?xml version="1.0" encoding="UTF-8"?>
<svg xmlns="http://www.w3.org/2000/svg" data-name="Layer 1" viewBox="0 0 64 64"><path fill="none" stroke="#003369" stroke-miterlimit="10" stroke-width="2" d="M57.4 38.23L37 22.53V12.44c0-2.76-2.24-9.91-5-9.91s-5 7.15-5 9.91v10.09L6.6 38.23S5 39.33 5 40.53v3.2A1.4 1.4 0 0 0 5.7 45a5.19 5.19 0 0 0 2.4-.5L27 38.33v11.2L19.7 56a1.59 1.59 0 0 0-.7 1.4v3.1c0 .4.1 1.3 1.4.8S32 56.53 32 56.53s10.2 4.3 11.6 4.8 1.4-.4 1.4-.8v-3.1a1.61 1.61 0 0 0-.7-1.4l-7.3-5.5v-12.2l18.9 6.2a5.19 5.19 0 0 0 2.4.5 1.31 1.31 0 0 0 .7-1.3v-3.2c0-1.2-1.6-2.3-1.6-2.3z" style="stroke: #003369;"/></svg>
