<?xml version="1.0" encoding="UTF-8"?>
<svg xmlns="http://www.w3.org/2000/svg" data-name="Layer 1" viewBox="0 0 64 64"><g fill="#1d3763" data-name="Aisle Seat"><path d="M23.84 19.23h-9.55a3.75 3.75 0 0 1-3.75-3.75v-6.6a3.75 3.75 0 0 1 3.75-3.75h9.55a3.76 3.76 0 0 1 3.75 3.75v6.6a3.76 3.76 0 0 1-3.75 3.75zm-9.55-12.1a1.75 1.75 0 0 0-1.75 1.75v6.6a1.75 1.75 0 0 0 1.75 1.75h9.55a1.75 1.75 0 0 0 1.75-1.75v-6.6a1.76 1.76 0 0 0-1.75-1.75zM30.79 51.33H7.34a3.75 3.75 0 0 1-3.75-3.75V33.84h5.1v2h-3.1v11.74a1.75 1.75 0 0 0 1.75 1.75h23.45a1.75 1.75 0 0 0 1.75-1.75V35.84h-3.1v-2h5.06v13.74a3.76 3.76 0 0 1-3.71 3.75zM59.41 51.33H43.14a3.75 3.75 0 0 1-3.75-3.75V33.84h5.1v2h-3.1v11.74a1.75 1.75 0 0 0 1.75 1.75h16.27z" style="fill: #003369;"/><path d="M30.24 45.18H7.89v-9.34h-2.2V13.38a3.2 3.2 0 0 1 3.2-3.2h3.65v2H8.89a1.2 1.2 0 0 0-1.2 1.2v20.46h2.2v9.34h18.35v-9.34h2.2V13.38a1.2 1.2 0 0 0-1.2-1.2h-3.65v-2h3.65a3.21 3.21 0 0 1 3.2 3.2v22.46h-2.2zM7.89 51.33h2v5.8h-2zM28.24 51.33h2v5.8h-2z" style="fill: #003369;"/></g><g fill="#1d3763" data-name="Aisle Seat"><path d="M58.94 19.23h-8.79a3.75 3.75 0 0 1-3.75-3.75v-6.6a3.75 3.75 0 0 1 3.75-3.75h8.79v2h-8.79a1.75 1.75 0 0 0-1.75 1.75v6.6a1.75 1.75 0 0 0 1.75 1.75h8.79z" style="fill: #003369;"/><path d="M59.41 45.18H43.75v-9.34h-2.2V13.38a3.2 3.2 0 0 1 3.2-3.2h3.65v2h-3.65a1.2 1.2 0 0 0-1.2 1.2v20.46h2.2v9.34h13.66zM43.75 51.33h2v5.8h-2z" style="fill: #003369;"/></g><path fill="#1d3763" d="M5.59 56.87h53.83v2H5.59z" style="fill: #003369;"/></svg>
