<?xml version="1.0" encoding="UTF-8"?>
<svg xmlns="http://www.w3.org/2000/svg" data-name="Layer 1" viewBox="0 0 64 64"><path fill="none" stroke="#1d3763" stroke-miterlimit="10" stroke-width="2.02" d="M18.67 25.56l.19-12.37M20.28 50.44l-1.5-11.99M15.44 27.11l-4.82-10.12M28.45 44.11l-7.31-8.15M11.07 29.58l-4.7-1.91M31.67 30.29l-9.52 1.28M12.59 35.81l-5.37 3.78M27.27 18.1l-6.13 9.83M15.82 38.07l-3.45 9.78" style="stroke: #003369;"/><path fill="none" stroke="#1d3763" stroke-miterlimit="10" stroke-width="2" d="M18.86 50.44c-3.31 0-6.45-1.85-8.87-5.22a23.21 23.21 0 0 1-3.94-13.41A23.2 23.2 0 0 1 10 18.41c2.42-3.37 5.56-5.22 8.87-5.22s6.45 1.85 8.86 5.22a23.13 23.13 0 0 1 4 13.4 23.14 23.14 0 0 1-4 13.41c-2.42 3.37-5.57 5.22-8.87 5.22z" style="stroke: #003369;"/><path fill="none" stroke="#1d3763" stroke-miterlimit="10" stroke-width="2" d="M29.21 12.94c5.47 1.11 16.43 4.12 22.78 8.38l.07.06c.28.24 2.68 2.55 2.84 10.6h0v0c-.16 8.05-2.56 10.36-2.84 10.6l-.07.06c-7.05 4.73-18.92 7.38-22.39 8.08" style="stroke: #003369;"/><path fill="none" stroke="#1d3763" stroke-miterlimit="10" stroke-width="2" d="M53.4 24l2.07 1.13a10.13 10.13 0 0 1 5.41 6.48V32a10.16 10.16 0 0 1-5.32 6.44h-.1l-1.91.72" style="stroke: #003369;"/><path fill="none" stroke="#1d3763" stroke-miterlimit="10" stroke-width="2.02" d="M22 53.52h-3.3c-8.62 0-15.63-9.65-15.63-21.52s7-21.52 15.63-21.52H22c8.62 0 15.63 9.65 15.63 21.52s-7 21.52-15.63 21.52z" style="stroke: #003369;"/><path fill="none" stroke="#1d3763" stroke-miterlimit="10" stroke-width="2" d="M9.92 31.92c1.71 5.91 8.09 6.14 8.36 6.14 1.13 0 3.67-2.34 3.67-6.14s-2.55-6.14-3.68-6.14c-.07 0-6.62.22-8.35 6.14z" style="stroke: #003369;"/></svg>
