<?xml version="1.0" encoding="UTF-8"?>
<svg xmlns="http://www.w3.org/2000/svg" data-name="Layer 1" viewBox="0 0 64 64"><path fill="none" stroke="#003369" stroke-linejoin="round" stroke-width="2" d="M3 49.25s7.08-11.35 17-4M16.31 49.25S25.91 33.1 36.67 45M33.55 49.25S45.19 28 61 49.25" style="stroke: #003369;"/><path fill="none" stroke="#003369" stroke-linejoin="round" stroke-width="2" d="M13.48 42.78v-7.14s-.5-2.22-3.71-3.15c0 0-.31 6.72 3.71 6.72M29.22 40.64v-9.13s-1.79-3-6.73-2.17c0 0 3.15 7.17 6.73 3.59M29.22 31.51s1.79-3 6.73-2.17c0 0-3.15 7.17-6.73 3.59M47.25 40.38V26.31S44.49 21.65 36.88 23c0 0 4.85 11 10.37 5.52M47.25 26.31S50 21.65 57.62 23c0 0-4.85 11-10.37 5.52" style="stroke: #003369;"/><path fill="none" stroke="#003369" stroke-linejoin="round" stroke-width="2" d="M47.25 39.21V16.07a6.6 6.6 0 0 1 4.82-4.63s.68 7-4.82 7M4.15 52.56a4.64 4.64 0 0 1 1-.8M24.41 51.7a4.89 4.89 0 0 1 1-.8M42.61 52.16a4.72 4.72 0 0 1 1-.79M42.61 47.46a5.09 5.09 0 0 1 1-.79M38.41 50a5.09 5.09 0 0 1 1-.79M19 51.3a4.72 4.72 0 0 1 1-.79M7.17 49.64a4.82 4.82 0 0 1 1-.79M21.32 48.39a4.64 4.64 0 0 1 1-.8" style="stroke: #003369;"/></svg>
