<?xml version="1.0" encoding="UTF-8"?>
<svg xmlns="http://www.w3.org/2000/svg" data-name="Layer 1" viewBox="0 0 64 64"><path fill="none" stroke="#003369" stroke-miterlimit="10" stroke-width="2" d="M58.25 51.45c.75-2.25-1.76-3.73-4.25-4.86L39 39.9l-6.53-25.75A4.06 4.06 0 0 0 30.71 12l-3-1.2a1.09 1.09 0 0 0-1.37.73 1 1 0 0 0 0 .23l-3.42 21-9.56-4.26-2.98-8.5s-.5-1.93-1.38-2.07l-2-.21s-1 .08-1 .92l-.39 15.22c0 .57.2 1.29 1.64 1.89l38.62 17.07c8.54.67 11.42.86 12.38-1.37z" style="stroke: #003369;"/></svg>
