<?xml version="1.0" encoding="UTF-8"?>
<svg xmlns="http://www.w3.org/2000/svg" data-name="Layer 1" viewBox="0 0 64 64"><path fill="none" stroke="#003369" stroke-miterlimit="10" stroke-width="2" d="M49.72 50.19l-3.33-25.53 7.13-7.13C55.48 15.58 59 8.94 57 7s-8.6 1.52-10.55 3.47l-7.13 7.13-25.52-3.33s-1.91-.35-2.76.49L8.78 17a1.39 1.39 0 0 0-.43 1.41c.21.5 1.56 1.13 2.05 1.34l17.75 9-7.92 7.92-9.76-.56a1.58 1.58 0 0 0-1.47.5l-2.2 2.2c-.29.28-.85 1 .42 1.55s11.6 4.81 11.6 4.81 4.17 10.25 4.8 11.6 1.28.7 1.56.42L27.37 55a1.63 1.63 0 0 0 .5-1.49l-1.28-9 8.63-8.62 9 17.74c.21.5.85 1.84 1.35 2.05a1.29 1.29 0 0 0 1.43-.47L49.22 53c.85-.9.5-2.81.5-2.81z" style="stroke: #003369;"/></svg>
