<?xml version="1.0" encoding="UTF-8"?>
<svg xmlns="http://www.w3.org/2000/svg" data-name="Layer 1" viewBox="0 0 64 64"><path fill="none" stroke="#00336a" stroke-miterlimit="3" stroke-width="2" d="M13.22 11.51A26.74 26.74 0 0 1 32 4.21a26.81 26.81 0 0 1 19.65 8.14A26.81 26.81 0 0 1 59.79 32a26.81 26.81 0 0 1-8.14 19.65A26.81 26.81 0 0 1 32 59.79a26.81 26.81 0 0 1-19.65-8.14A26.81 26.81 0 0 1 4.21 32h14.71a10.17 10.17 0 0 1 7.77-9.77A10.37 10.37 0 0 1 29 22h8.71v5.08h10.7M18.92 32a9.7 9.7 0 0 0 3 7.11 9.57 9.57 0 0 0 4.81 2.68A10.37 10.37 0 0 0 29 42h8.71V27m0 9.86h10.7" style="stroke: #003369;"/></svg>
