<?xml version="1.0" encoding="UTF-8"?>
<svg xmlns="http://www.w3.org/2000/svg" viewBox="0 0 36.93 65.34"><rect width="36.93" height="15.54" y="27.23" fill="#1d3767" rx="7.77" ry="7.77" style="fill: #003369;"/><text fill="#fff" font-family="Arial-BoldMT,Arial" font-size="11.82" transform="translate(5.65 39.17)"><tspan x="0" y="0">POD</tspan></text><g fill="none" stroke="#1d3768" stroke-miterlimit="10" stroke-width=".75"><path d="M12.51.38h5.17v1.78h-5.17V.38zm0 2.07c.07 1.48 1.12 2.67 2.42 2.67s2.35-1.19 2.42-2.67v-.3m-1.58 8.8v4.53c0 .33-.27.59-.59.59H13.7c-.33 0-.59-.27-.59-.59V6.6" style="fill: #003369;"/><path d="M18.34 9.86h-.33c-2.62-.3-2.95-3.26-2.95-3.26a.938.938 0 0 0-.98-.89.925.925 0 0 0-.98.89c0 .08.01.15.04.23.76 4.81 5.2 4.81 5.2 4.81.49 0 .89-.4.89-.89s-.4-.89-.89-.89h0z" style="fill: #003369;"/><path d="M17.48 9.86V5.41h7.7v5.93h-6.09" style="fill: #003369;"/><path d="M19.4 5.41h3.85v1.48H19.4V5.41zm-6.89-2.96v-.3h7.11" style="fill: #003369;"/></g><g><text fill="#1d3767" font-family="Arial-BoldMT,Arial" font-size="11.82" transform="translate(5.31 60.89)"><tspan x="0" y="0">3000</tspan></text></g></svg>
