<?xml version="1.0" encoding="UTF-8"?>
<svg xmlns="http://www.w3.org/2000/svg" aria-describedby="desc" aria-labelledby="title" viewBox="0 0 64 64"><path fill="none" stroke="#003369" stroke-miterlimit="10" stroke-width="2" d="M44 22.6a15.9 15.9 0 0 0 1-5.6c0-8.3-6.3-15-14-15S17 8.7 17 17a15.3 15.3 0 0 0 6.1 12.4A24.1 24.1 0 0 0 7 52h40" data-name="layer2" style="stroke: #003369;"/><path fill="none" stroke="#003369" stroke-miterlimit="10" stroke-width="2" d="M47 50v12m8 0H39m16-20a8 8 0 0 1-8 8 8 8 0 0 1-8-8V30a8 8 0 0 1 8-8 8 8 0 0 1 8 8z" data-name="layer1" style="stroke: #003369;"/></svg>
