<?xml version="1.0" encoding="UTF-8"?>
<svg xmlns="http://www.w3.org/2000/svg" aria-describedby="desc" aria-labelledby="title" viewBox="0 0 64 64"><path fill="none" stroke="#003369" stroke-miterlimit="10" stroke-width="2" d="M22 41.4V6a4 4 0 0 1 4-4 4 4 0 0 1 4 4v22m-7.8 29.2L10.4 37.8a4 4 0 0 1 1.8-5.4 4 4 0 0 1 5.4 1.8l4.4 7.2M30 22a4 4 0 0 1 4-4 4 4 0 0 1 4 4v8m0-6a4 4 0 0 1 4-4 4 4 0 0 1 4 4v8" data-name="layer1" style="stroke: #003369;"/><path fill="none" stroke="#003369" stroke-miterlimit="10" stroke-width="2" d="M22.2 57.2a10.1 10.1 0 0 0 8.6 4.8H44a10 10 0 0 0 10-10V28a4 4 0 0 0-4-4 4 4 0 0 0-4 4" data-name="layer1" style="stroke: #003369;"/></svg>
