<?xml version="1.0" encoding="UTF-8"?>
<svg xmlns="http://www.w3.org/2000/svg" aria-describedby="desc" aria-labelledby="title" viewBox="0 0 64 64"><path fill="none" stroke="#003369" stroke-miterlimit="10" stroke-width="2" d="M40 18h19a3 3 0 0 1 3 3v30a3 3 0 0 1-3 3H40m14-36v36" data-name="layer2" style="stroke: #003369;"/><rect width="38" height="60" x="2" y="2" fill="none" stroke="#003369" stroke-miterlimit="10" stroke-width="2" data-name="layer1" rx="3" ry="3" style="stroke: #003369;"/><path fill="none" stroke="#003369" stroke-miterlimit="10" stroke-width="2" d="M10 10h22v16H10zm0 26h2m8 0h2m8 0h2m-22 8h2m8 0h2m8 0h2m-22 8h2m8 0h2m8 0h2" data-name="layer1" style="stroke: #003369;"/></svg>
