<?xml version="1.0" encoding="UTF-8"?>
<svg xmlns="http://www.w3.org/2000/svg" data-name="Layer 1" viewBox="0 0 64 64"><path fill="none" stroke="#00336a" stroke-width="2" d="M17.16 53.14v3.71a1.85 1.85 0 0 1-1.85 1.85H7.89A1.85 1.85 0 0 1 6 56.85V53m52 0v3.89a1.85 1.85 0 0 1-1.86 1.85h-7.46a1.85 1.85 0 0 1-1.86-1.85v-3.75" style="stroke: #003369;"/><path fill="none" stroke="#00336a" stroke-width="2" d="M52.39 29L45 17.92H19L11.6 29l-7.42 7.46v13.9A2.78 2.78 0 0 0 7 53.14h50a2.77 2.77 0 0 0 2.78-2.78v-13.9zM9.93 30.89h23m5 0h16.12M4.18 29h7.42m40.8 0h7.42" style="stroke: #003369;"/><path fill="none" stroke="#00336a" stroke-miterlimit="3" stroke-width="2" d="M24.83 12.02h4.83V7.59h-4.83M29.66 12v2.3h3.91a4.36 4.36 0 0 0 3.18-1.3 4.31 4.31 0 0 0 1.33-3.2 4.52 4.52 0 0 0-3.49-4.4 4.84 4.84 0 0 0-1-.1h-3.93v2.29" style="stroke: #003369;"/><path fill="none" stroke="#00336a" stroke-miterlimit="3" stroke-width="2" d="M38 10h13.37a7.68 7.68 0 0 1 0 15.35h-1.52" style="stroke: #003369;"/><path fill="none" stroke="#00336a" stroke-width="2" d="M4 38.69h9.27l5.42 7.42H4.12m55.46-7.42h-9.27l-5.42 7.42h14.8" style="stroke: #003369;"/><path fill="none" stroke="#00336a" stroke-miterlimit="10" stroke-width="2" d="M39 24.23l-14.47 16h7.27l-3.3 14 13.8-17-5.21-.23z" style="stroke: #003369;"/></svg>
