<?xml version="1.0" encoding="UTF-8"?>
<svg xmlns="http://www.w3.org/2000/svg" data-name="Layer 1" viewBox="0 0 64 64"><path fill="none" stroke="#00336a" stroke-width="2" d="M17.16 53.53v3.7a1.86 1.86 0 0 1-1.86 1.86H7.89A1.86 1.86 0 0 1 6 57.23v-3.89m51.92 0v3.89a1.86 1.86 0 0 1-1.86 1.86h-7.38a1.86 1.86 0 0 1-1.86-1.86v-3.7" style="stroke: #003369;"/><path fill="none" stroke="#00336a" stroke-width="2" d="M52.38 29.42L45 18.3H19l-7.4 11.12-7.42 7.42v13.91A2.79 2.79 0 0 0 7 53.53h50a2.78 2.78 0 0 0 2.78-2.78V36.84zM9.93 31.28h22.7m5.62 0h15.83m-49.9-1.86h7.42" style="stroke: #003369;"/><path fill="none" stroke="#00336a" stroke-width="2" d="M4.18 38.69h9.27l5.42 7.42H4.15m55.65-7.42h-9.27l-5.42 7.42h14.61" style="stroke: #003369;"/><path fill="none" stroke="#00336a" stroke-miterlimit="3" stroke-width="2" d="M24.83 12.4h4.83V7.97h-4.83M29.66 12.4v2.29h3.91a4.9 4.9 0 0 0 1-.11 4.58 4.58 0 0 0 3.49-4.39A4.39 4.39 0 0 0 36.75 7a4.34 4.34 0 0 0-2.16-1.21 5.69 5.69 0 0 0-1-.1h-3.93V8" style="stroke: #003369;"/><path fill="none" stroke="#00336a" stroke-miterlimit="3" stroke-width="2" d="M52.42 29.42h.45a9.6 9.6 0 0 0 0-19.19H38" style="stroke: #003369;"/><path fill="none" stroke="#00336a" stroke-miterlimit="10" stroke-width="2" d="M39.23 24.23l-14.47 16h7.27l-3.3 14 13.8-17-5.22-.23z" style="stroke: #003369;"/></svg>
