<?xml version="1.0" encoding="UTF-8"?>
<svg xmlns="http://www.w3.org/2000/svg" data-name="Layer 1" viewBox="0 0 64 64"><path fill="none" stroke="#003369" stroke-miterlimit="10" stroke-width="2" d="M2.56 6.06a3.07 3.07 0 0 1 3.27-2.14C12.62 4 19.34 4 26.13 4a2.61 2.61 0 0 1 2.79 2.08 11.29 11.29 0 0 1-.13 2.46l-.54 4.72a1.34 1.34 0 0 1-.55 1.13L6.08 33.07c-.12.12-.31.25-.55.44-.12-1.39-.3-2.71-.42-4-.37-2.9-.67-5.86-1-8.81s-.61-5.8-1-8.69l-.55-4.75zM47.66 53.69a5.39 5.39 0 1 0-5.41-5.42 5.39 5.39 0 0 0 5.41 5.42zm.06 7.78h-8.3a6.93 6.93 0 0 1-7.2-5.93 5.92 5.92 0 0 1-.07-1.08V42.21a6.91 6.91 0 0 1 5.79-7 13.46 13.46 0 0 1 1.61-.13h16.34c3.09.07 5.47 1.34 6.76 4.21a7.67 7.67 0 0 1 .58 2.94c.06 4.08 0 8.16 0 12.25a6.86 6.86 0 0 1-7.08 7c-2.83.06-5.66-.01-8.43-.01zM27.48 19.49c-.25 1.7-.43 3.27-.61 4.78-.31 2.84-.61 5.62-1 8.41s-.67 5.68-1 8.52c-.3 2.42-.55 4.78-.85 7.2a2.49 2.49 0 0 1-2.38 2.24H9.34a2.66 2.66 0 0 1-2.44-2.36c-.31-3.15-.73-6.29-1.1-9.44 0-.36-.12-.72-.12-1.08a1.23 1.23 0 0 1 .32-.61c2.81-2.36 5.68-4.72 8.55-7.07 4.1-3.39 8.25-6.78 12.34-10.16a2 2 0 0 1 .59-.43zM53.84 33.51H43.11a1.07 1.07 0 0 0-.06-.46c0-1.55 0-3.09.06-4.7a2.42 2.42 0 0 1 2.67-2.63h5.45a2.39 2.39 0 0 1 2.61 2.41c.11 1.71 0 3.43 0 5.15.05.06 0 .11 0 .23zM12 53.75h9.22c0 1.57.06 3.14-.06 4.72 0 .81-.94 1.45-1.81 1.45-1.81 0-3.68.06-5.54 0A1.83 1.83 0 0 1 12 58.29c-.09-1.51 0-2.97 0-4.54z" style="stroke: #003369;"/></svg>
