<?xml version="1.0" encoding="UTF-8"?>
<svg xmlns="http://www.w3.org/2000/svg" aria-describedby="desc" aria-labelledby="title" viewBox="0 0 64 64"><path fill="none" stroke="#003369" stroke-miterlimit="10" stroke-width="2" d="M6 2h52v60H6zm0 48h52" data-name="layer2" style="stroke: #003369;"/><path fill="none" stroke="#003369" stroke-miterlimit="10" stroke-width="2" d="M50.7 50a9.3 9.3 0 0 0-7.4-7c-6.3-1.2-5.4-3.2-5.4-4.4v-.7c1.5-1.4 1.7-3.3 2.4-5.6 1.9 0 2.4-4 2.4-4.6s.1-3-1.9-3c4.2-11.4-6.9-16-15.3-10.1-3.4 0-3.7 5.1-2.5 10.1-2 0-1.9 2.4-1.9 3s.4 4.6 2.4 4.6c.6 2.3.8 4.2 2.3 5.6v.8c0 1.3.9 3.3-5.4 4.4a9.2 9.2 0 0 0-7.4 7" data-name="layer1" style="stroke: #003369;"/></svg>
