<?xml version="1.0" encoding="UTF-8"?>
<svg xmlns="http://www.w3.org/2000/svg" aria-describedby="desc" aria-labelledby="title" viewBox="0 0 64 64"><path fill="none" stroke="#003369" stroke-miterlimit="10" stroke-width="2" d="M54 22.6V8h-9v7.445M40 62h14V29.769M10 30v32h14" data-name="layer2" style="stroke: #003369;"/><circle cx="32" cy="29" r="5" fill="none" stroke="#003369" stroke-miterlimit="10" stroke-width="2" data-name="layer2" style="stroke: #003369;"/><path fill="none" stroke="#003369" stroke-miterlimit="10" stroke-width="2" d="M24 42h16v20H24zm8-37L2.436 28.651a.5.5 0 0 0-.036.749l3.287 3.287a.5.5 0 0 0 .668.035L32 12l25.65 20.718a.5.5 0 0 0 .668-.035l3.287-3.283a.5.5 0 0 0-.041-.744z" data-name="layer1" style="stroke: #003369;"/></svg>
