<?xml version="1.0" encoding="UTF-8"?>
<svg xmlns="http://www.w3.org/2000/svg" aria-describedby="desc" aria-labelledby="title" viewBox="0 0 64 64"><path fill="none" stroke="#003369" stroke-width="2" d="M26.1 17.3A18.7 18.7 0 0 0 30 7h4s.8 8.8 4 10.3" data-name="layer2" style="stroke: #003369;"/><path fill="none" stroke="#003369" stroke-width="2" d="M40.7 47c-1.7 6-5 10-8.7 10-5.5 0-10-9-10-20s4.5-20 10-20c3.7 0 6.9 4 8.7 10M20.9 56.3a11.4 11.4 0 0 1-3.9.7C8.7 57 2 48 2 37s6.7-20 14.9-20a11.4 11.4 0 0 1 3.9.7m22.3 38.6a11.4 11.4 0 0 0 3.9.7c8.3 0 15-9 15-20s-6.7-20-14.9-20a11.4 11.4 0 0 0-3.9.7" data-name="layer1" style="stroke: #003369;"/><path fill="none" stroke="#003369" stroke-width="2" d="M12.6 31c1.5-8.1 6.1-14 11.4-14a7.9 7.9 0 0 1 4.4 1.4m0 37.2A7.9 7.9 0 0 1 24 57c-4.4 0-8.3-4-10.4-10m22.1 8.6A7.9 7.9 0 0 0 40 57c6.6 0 12-9 12-20s-5.3-20-12-20a7.9 7.9 0 0 0-4.4 1.4" data-name="layer1" style="stroke: #003369;"/></svg>
