<?xml version="1.0" encoding="UTF-8"?>
<svg xmlns="http://www.w3.org/2000/svg" aria-describedby="desc" aria-labelledby="title" viewBox="0 0 64 64"><path fill="none" stroke="#003369" stroke-miterlimit="10" stroke-width="2" d="M16 48V8a6 6 0 0 1 6-6h34" data-name="layer2" style="stroke: #003369;"/><path fill="none" stroke="#003369" stroke-miterlimit="10" stroke-width="2" d="M50 12h12V8a6 6 0 0 0-6-6 6 6 0 0 0-6 6v44a10 10 0 0 1-10 10 10 10 0 0 1-10-10v-4H2v4a10 10 0 0 0 10 10h28" data-name="layer2" style="stroke: #003369;"/><path fill="none" stroke="#003369" stroke-miterlimit="10" stroke-width="2" d="M24 12h16M24 28h16m-16-8h12M24 36h12" data-name="layer1" style="stroke: #003369;"/></svg>
