<?xml version="1.0" encoding="UTF-8"?>
<svg xmlns="http://www.w3.org/2000/svg" aria-describedby="desc" aria-labelledby="title" viewBox="0 0 64 64"><path fill="none" stroke="#003369" stroke-miterlimit="10" stroke-width="2" d="M36 4a4 4 0 0 0-4 4v4h4a4 4 0 0 0 0-8zm-8 0a4 4 0 0 1 4 4v4h-4a4 4 0 0 1 0-8zM3 18a4 4 0 0 1 4-4h50a4 4 0 0 1 4 4" data-name="layer2" style="stroke: #003369;"/><path fill="none" stroke="#003369" stroke-miterlimit="10" stroke-width="2" d="M56 22H8c0 8-6 12-6 26a12 12 0 0 0 12 12h36a12 12 0 0 0 12-12c0-14-6-14-6-26z" data-name="layer1" style="stroke: #003369;"/></svg>
