<?xml version="1.0" encoding="UTF-8"?>
<svg xmlns="http://www.w3.org/2000/svg" aria-describedby="desc" aria-labelledby="title" viewBox="0 0 64 64"><path fill="none" stroke="#003369" stroke-width="2" d="M51.2 21.2c-2.9-2.9.5-5.4 2.5-5.4a6 6 0 1 0-5.7-5.7c0 2-2.5 5.4-5.4 2.5L32 2 21.4 12.6c-2.9 2.9.5 5.4 2.5 5.4a6.1 6.1 0 1 1-5.7 5.7c0-2-2.5-5.4-5.4-2.5L2 32l10.8 10.8c2.9 2.9-.5 5.4-2.5 5.4a6.1 6.1 0 1 0 3.9 10.3 6 6 0 0 0 1.8-4.6c0-2 2.5-5.4 5.4-2.5L32 62l10.8-10.8c2.9-2.9-.5-5.4-2.5-5.4a6 6 0 1 1 5.7-5.7c0 2 2.5 5.4 5.4 2.5L62 32z" data-name="layer1" style="stroke: #003369;"/></svg>
