<?xml version="1.0" encoding="UTF-8"?>
<svg xmlns="http://www.w3.org/2000/svg" aria-describedby="desc" aria-labelledby="title" viewBox="0 0 64 64"><path fill="none" stroke="#003369" stroke-miterlimit="10" stroke-width="2" d="M19 38.9l-3 23 16-6 16 6-2.9-23M32 45.8v10.1" data-name="layer2" style="stroke: #003369;"/><circle cx="32" cy="23.9" r="12" fill="none" stroke="#003369" stroke-miterlimit="10" stroke-width="2" data-name="layer1" style="stroke: #003369;"/><path fill="none" stroke="#003369" stroke-miterlimit="10" stroke-width="2" d="M32 4.7l4.6-2.6 3.1 4.2 5.3-.5 1.1 5.2 5.1 1.6-1.1 5.2 3.9 3.6-3.1 4.3 2.1 4.8-4.5 2.7-.1 5.3-5.2.6-2.2 4.8-5-1.6-4 3.5-4-3.5-5 1.6-2.2-4.8-5.2-.6-.1-5.3-4.5-2.7 2.1-4.8-3.1-4.3 3.9-3.6-1.1-5.2 5.1-1.6L19 5.8l5.3.5 3.1-4.2L32 4.7z" data-name="layer1" style="stroke: #003369;"/></svg>
