<?xml version="1.0" encoding="UTF-8"?>
<svg xmlns="http://www.w3.org/2000/svg" data-name="Layer 1" viewBox="0 0 64 64"><circle cx="14.14" cy="43.48" r="5.1" fill="none" stroke="#003369" stroke-miterlimit="10" stroke-width="2" style="stroke: #003369;"/><path fill="none" stroke="#003369" stroke-miterlimit="10" stroke-width="2" d="M38.57 23h11.14l4.14 7.55h3.65c.74 0 1.68.2 1.68 1.32v8.06h-7.55m6-9.38H43V23M10.61 39.78H4.82V15.42h33.75v24.36H17.64" style="stroke: #003369;"/><circle cx="47.69" cy="43.48" r="5.1" fill="none" stroke="#003369" stroke-miterlimit="10" stroke-width="2" style="stroke: #003369;"/><path fill="#003369" d="M22.43 27.09h-2.68l-4.21 3.83h.76l-1.15 1.15h1.15l-1.91 1.91 3.82-1.53-.57-.2 1.72-.95-.57-.2 3.64-4.01zM27.66 23.37l-2.32 2.27a1.5 1.5 0 0 1 0 .3 3 3 0 0 1-3.16 2.87H22L19.74 31a6.46 6.46 0 0 0 2.53.51A5.87 5.87 0 0 0 28.36 26a5.24 5.24 0 0 0-.7-2.63z" style="fill: #003369;"/><path fill="#003369" d="M18.79 26a3 3 0 0 1 3.15-2.87h.11a3.28 3.28 0 0 1 3 1.7l2.17-2.08a6.36 6.36 0 0 0-5-2.31A5.87 5.87 0 0 0 16.11 26a5.44 5.44 0 0 0 2.81 4.67l2.06-2A2.92 2.92 0 0 1 18.79 26z" style="fill: #003369;"/><path fill="none" stroke="#003369" stroke-miterlimit="10" stroke-width="2" d="M44.48 39.8h-7.3" style="stroke: #003369;"/></svg>
