<?xml version="1.0" encoding="UTF-8"?>
<svg xmlns="http://www.w3.org/2000/svg" data-name="Layer 1" viewBox="0 0 64 64"><path fill="none" stroke="#003369" stroke-miterlimit="10" stroke-width="2" d="M44.93 25.24h8.34l3.09 5.65h2.74c.55 0 1.25.14 1.25 1v6H54.7m4.52-7h-11v-5.65M24 37.82h-4.31V19.59h25.24v18.23H29.28" style="stroke: #003369;"/><circle cx="26.66" cy="40.59" r="3.82" fill="none" stroke="#003369" stroke-miterlimit="10" stroke-width="2" style="stroke: #003369;"/><circle cx="51.75" cy="40.59" r="3.82" fill="none" stroke="#003369" stroke-miterlimit="10" stroke-width="2" style="stroke: #003369;"/><path fill="none" stroke="#003369" stroke-miterlimit="10" stroke-width="2" d="M16.13 36.29H3.65M16.13 30.05H9.88" style="stroke: #003369;"/><path fill="#003369" d="M33.6 28.32h-1.99l-3.16 2.87h.57l-.86.86h.86l-1.43 1.43 2.86-1.15-.43-.14 1.29-.71-.43-.15 2.72-3.01zM37.52 25.55l-1.74 1.69a.88.88 0 0 1 0 .23 2.26 2.26 0 0 1-2.36 2.15h-.12l-1.71 1.63a5 5 0 0 0 1.9.38A4.39 4.39 0 0 0 38 27.5a3.7 3.7 0 0 0-.48-1.95z" style="fill: #003369;"/><path fill="#003369" d="M30.88 27.5a2.26 2.26 0 0 1 2.36-2.15h.08a2.48 2.48 0 0 1 2.26 1.28l1.63-1.56a4.78 4.78 0 0 0-3.72-1.73 4.38 4.38 0 0 0-4.61 4.15A4.08 4.08 0 0 0 31 31l1.54-1.47a2.2 2.2 0 0 1-1.66-2.03z" style="fill: #003369;"/><path fill="none" stroke="#003369" stroke-miterlimit="10" stroke-width="2" d="M49.36 37.84H43.9" style="stroke: #003369;"/></svg>
