<?xml version="1.0" encoding="UTF-8"?>
<svg xmlns="http://www.w3.org/2000/svg" data-name="Layer 1" viewBox="0 0 64 64"><path fill="#003369" d="M17.67 14.76a.87.87 0 0 0 .66.31.84.84 0 0 0 .66-.32l3.21-3.89a.86.86 0 1 0-1.33-1.09l-2.54 3.08-1.14-1.38a.86.86 0 0 0-1.33 1.1z" style="fill: #003369;"/><path fill="#003369" d="M18.75 19.52A7.54 7.54 0 1 0 11.22 12a7.55 7.55 0 0 0 7.53 7.52zm0-13.35A5.82 5.82 0 1 1 12.94 12a5.82 5.82 0 0 1 5.81-5.83z" style="fill: #003369;"/><path fill="#003369" d="M51.92 4.45h-26.5l.22.21a10.41 10.41 0 0 1 1.26 1.46h24.16v51.71H12.94V21h-.06a10.25 10.25 0 0 1-1.45-1.1l-.21-.19v39a.86.86 0 0 0 .86.86h39.84a.86.86 0 0 0 .86-.86V5.31a.86.86 0 0 0-.86-.86z" style="fill: #003369;"/><path fill="#003369" d="M28.81 12.79h16.47a.86.86 0 0 0 0-1.72H28.77V12.66zM27.74 16.87c-.13.26-.28.52-.43.76a.87.87 0 0 0 .86.75h17.2a.86.86 0 0 0 0-1.72H28.08a.94.94 0 0 0-.34.21zM28.08 23.82h17.2a.86.86 0 0 0 0-1.72h-17.2a.86.86 0 0 0 0 1.72zM22.34 27.84h-2.86a.86.86 0 0 0 0 1.72h2.86a.86.86 0 1 0 0-1.72zM22.34 22.1h-2.86a.85.85 0 0 0-.76.48v.05a1 1 0 0 0-.05.3.85.85 0 0 0 .86.86h2.86a.86.86 0 1 0 0-1.72zM28.08 29.56h17.2a.86.86 0 0 0 0-1.72h-17.2a.86.86 0 0 0 0 1.72zM22.34 33.14h-2.86a.86.86 0 0 0 0 1.72h2.86a.86.86 0 1 0 0-1.72zM28.08 34.86h17.2a.86.86 0 0 0 0-1.72h-17.2a.86.86 0 0 0 0 1.72zM22.34 38.87h-2.86a.86.86 0 1 0 0 1.72h2.86a.86.86 0 1 0 0-1.72zM28.08 40.59h17.2a.86.86 0 0 0 0-1.72h-17.2a.86.86 0 0 0 0 1.72zM22.34 44.17h-2.86a.86.86 0 0 0 0 1.72h2.86a.86.86 0 1 0 0-1.72zM28.08 45.89h17.2a.86.86 0 0 0 0-1.72h-17.2a.86.86 0 0 0 0 1.72zM22.34 49.91h-2.86a.86.86 0 0 0 0 1.72h2.86a.86.86 0 1 0 0-1.72zM28.08 51.63h17.2a.86.86 0 1 0 0-1.72h-17.2a.86.86 0 1 0 0 1.72z" style="fill: #003369;"/></svg>
