<?xml version="1.0" encoding="UTF-8"?>
<svg xmlns="http://www.w3.org/2000/svg" data-name="Layer 1" viewBox="0 0 64 64"><path fill="none" stroke="#003369" stroke-miterlimit="10" stroke-width="2" d="M49 42a2.54 2.54 0 0 0-2.5-2.11 2.36 2.36 0 0 0-2.54 2.32c0 1.4 1.27 2 2.54 2.32s2.5.89 2.5 2.29a2.36 2.36 0 0 1-2.53 2.32 2.54 2.54 0 0 1-2.54-2.53M46.45 39.86v-1.69m0 12.66v-1.69" style="stroke: #003369;"/><circle cx="46.45" cy="44.5" r="9.5" fill="none" stroke="#003369" stroke-miterlimit="10" stroke-width="2" style="stroke: #003369;"/><path fill="none" stroke="#003369" stroke-miterlimit="10" stroke-width="2" d="M50.05 33V18l-16-16h-26v60h42v-6" style="stroke: #003369;"/><path fill="none" stroke="#003369" stroke-miterlimit="10" stroke-width="2" d="M34.05 2v16h16M18.05 22h8m-8 10h22m-22 10h12m-12 10h17" style="stroke: #003369;"/></svg>
