<?xml version="1.0" encoding="UTF-8"?>
<svg xmlns="http://www.w3.org/2000/svg" viewBox="0 0 36.93 67.54"><g fill="none" stroke="#3bba8e" stroke-miterlimit="10" stroke-width=".75"><path d="M18.74 15.29h2.22v2.14h-2.22v-2.14zm-2.22 0h2.22v2.14h-2.22v-2.14z" style="fill: #003369;"/><path d="M14.32 15.29h2.22v2.14h-2.22v-2.14zm2.21-2.14h2.22v2.14h-2.22v-2.14z" style="fill: #003369;"/><path d="M14.32 13.15h2.22v2.14h-2.22v-2.14z" style="fill: #003369;"/><path d="M9.9 5.63v11.8h2.84l.04-10.04h11.37l.04 10.04h2.84V5.63L18.46.44 9.9 5.63zm14.22 3.29H12.81m11.31 0H12.81m11.31 1.53H12.81" style="fill: #003369;"/></g><rect width="36.93" height="15.54" y="29.42" fill="#3bba8e" rx="7.77" ry="7.77" style="fill: #003369;"/><text fill="#fff" font-family="Arial-BoldMT,Arial" font-size="11.82" transform="translate(6.31 41.36)"><tspan x="0" y="0">RCF</tspan></text><g fill="#fff" stroke="#3bba8e" stroke-miterlimit="10" stroke-width=".75"><circle cx="24.28" cy="5.25" r="3.24" style="fill: #003369;"/><path d="M23.09 5.25l.97.97 1.73-1.73" style="fill: #003369;"/></g><g><text fill="#3bba8e" font-family="Arial-BoldMT,Arial" font-size="11.82" transform="translate(5.31 63.09)"><tspan x="0" y="0">1405</tspan></text></g></svg>
