<?xml version="1.0" encoding="UTF-8"?>
<svg xmlns="http://www.w3.org/2000/svg" data-name="Layer 1" viewBox="0 0 64 64"><path fill="#00336a" d="M27.83 42.21l-1.68-1.09 5.21-7.96H24.1l7.22-11.07 1.67 1.1-5.19 7.97h7.25l-7.22 11.05zM26.86 14.03h-6.02v-2h4.02V9.42h-4.02v-2h6.02v6.61z" style="fill: #003369;"/><path fill="#00336a" d="M29.93 16.4h-5.07V13h2v1.4h3.07a3.7 3.7 0 0 0 .83-.09 3.43 3.43 0 0 0 1.76-1 3.66 3.66 0 0 0 0-5.21 3.43 3.43 0 0 0-1.75-1 3.73 3.73 0 0 0-.84-.1h-3.07v1.42h-2V5h5.08a6.38 6.38 0 0 1 1.25.13 5.5 5.5 0 0 1 2.74 1.52 5.51 5.51 0 0 1 1.68 4 5.46 5.46 0 0 1-1.68 4 5.35 5.35 0 0 1-2.73 1.53 5.26 5.26 0 0 1-1.27.22z" style="fill: #003369;"/><g fill="#00336a"><path d="M54.8 59a7 7 0 0 1-3.55-13l1 1.72A5 5 0 1 0 54.8 47h-.17v-2h.2a7 7 0 0 1 0 14zM9.2 59a7 7 0 1 1 6.8-8.83l-1.93.53A5.13 5.13 0 0 0 9.2 47a5 5 0 1 0 4.87 6.16l1.94.46A7 7 0 0 1 9.2 59z" style="fill: #003369;"/><path d="M18.79 50.64a9.49 9.49 0 0 0-9.59-8.48v-2a11.46 11.46 0 0 1 11.58 10.26zM41.65 50.009l7.117-11.554 1.703 1.048-7.116 11.555zM34.65 9.54h16.18v2H34.65z" style="fill: #003369;"/></g><path fill="#00336a" d="M44.26 54.3H9.58a2.42 2.42 0 0 1 0-4.83h34.68a2.42 2.42 0 1 1 0 4.83zM9.58 51.47a.41.41 0 0 0-.41.41.41.41 0 0 0 .41.42h34.68a.42.42 0 0 0 .42-.42.41.41 0 0 0-.42-.41zM43.44 11.13l1.92-.554 10.154 35.132-1.921.555z" style="fill: #003369;"/><path fill="#00336a" d="M54.65 53.82a2.43 2.43 0 0 1-2.33-1.75l-11.89-41 1.92-.56 11.89 41a.42.42 0 1 0 .81-.23l-1.45-5 1.92-.56 1.45 5a2.43 2.43 0 0 1-1.65 3 2.59 2.59 0 0 1-.67.1z" style="fill: #003369;"/></svg>
