<?xml version="1.0" encoding="UTF-8"?>
<svg xmlns="http://www.w3.org/2000/svg" aria-describedby="desc" aria-labelledby="title" viewBox="0 0 64 64"><path fill="none" stroke="#003369" stroke-miterlimit="10" stroke-width="2" d="M44 50a12 12 0 0 1-12 12 12 12 0 0 1-12-12V31a12 12 0 0 1 12-12 12 12 0 0 1 12 12z" data-name="layer1" style="stroke: #003369;"/><path fill="none" stroke="#003369" stroke-miterlimit="10" stroke-width="2" d="M12 37.7V31a20 20 0 0 1 20-20 20 20 0 0 1 20 20v6.7M12 35h40M32 11V2" data-name="layer2" style="stroke: #003369;"/><path fill="none" stroke="#003369" stroke-miterlimit="10" stroke-width="2" d="M20 44h8m-7.8 8H28m8 0h7.8M36 44h8" data-name="layer1" style="stroke: #003369;"/></svg>
