<?xml version="1.0" encoding="UTF-8"?>
<svg xmlns="http://www.w3.org/2000/svg" aria-describedby="desc" aria-labelledby="title" viewBox="0 0 64 64"><path fill="none" stroke="#003369" stroke-width="2" d="M52.4 46l4.8 4.8L62 46m-24 0l-4.8-4.8-4.8 4.8" data-name="layer2" style="stroke: #003369;"/><path fill="none" stroke="#003369" stroke-width="2" d="M50.9 56.6a11.8 11.8 0 0 1-14.1-2.1A12.1 12.1 0 0 1 34 42m5.6-6.6a11.8 11.8 0 0 1 14.1 2.1A12.1 12.1 0 0 1 56.4 50" data-name="layer2" style="stroke: #003369;"/><circle cx="8" cy="12" r="1" fill="none" stroke="#003369" stroke-width="2" data-name="layer1" style="stroke: #003369;"/><circle cx="15" cy="12" r="1" fill="none" stroke="#003369" stroke-width="2" data-name="layer1" style="stroke: #003369;"/><circle cx="22" cy="12" r="1" fill="none" stroke="#003369" stroke-width="2" data-name="layer1" style="stroke: #003369;"/><path fill="none" stroke="#003369" stroke-width="2" d="M54 38V18M2 18v32h32M2 6h52v12H2z" data-name="layer1" style="stroke: #003369;"/></svg>
