<?xml version="1.0" encoding="UTF-8"?>
<svg xmlns="http://www.w3.org/2000/svg" viewBox="0 0 36.93 68.24"><rect width="36.93" height="15.54" y="30.05" fill="#1d3767" rx="7.77" ry="7.77" style="fill: #003369;"/><text fill="#fff" font-family="Arial-BoldMT,Arial" font-size="11.82" transform="translate(5.98 41.99)"><tspan x="0" y="0">REH</tspan></text><g fill="none" stroke="#1d3768" stroke-miterlimit="10" stroke-width=".61"><path d="M23.08 16.04h2.78v2.69h-2.78v-2.69z" style="fill: #003369;"/><path d="M20.3 16.04h2.78v2.69H20.3v-2.69zM17.52 16.04h2.78v2.69h-2.78v-2.69z" style="fill: #003369;"/><path d="M20.3 13.36h2.78v2.69H20.3v-2.69z" style="fill: #003369;"/><path d="M23.08 13.36h2.78v2.69h-2.78v-2.69zm-5.57 0h2.78v2.69h-2.78v-2.69zm0-2.69h2.78v2.69h-2.78v-2.69z" style="fill: #003369;"/><path d="M12.43 5.97v12.76h3.08l.04-10.86h12.3l.04 10.86h3.08V5.97L21.69.36l-9.26 5.61z" style="fill: #003369;"/><g><path d="M19.19 22.11h-5.46M17.07 19.99l2.12 2.12-2.12 2.12" style="fill: #003369;"/></g><g><path d="M28.04 22.41h-5.46M25.91 20.29l2.12 2.12-2.12 2.12" style="fill: #003369;"/></g></g><g fill="none" stroke="#1d3768" stroke-miterlimit="10" stroke-width=".61"><path d="M8.55 18.1H5.43m5.21 0h-.72m-1.18-.49h-.76m0-2.28H9.5l.57.99h.49c.11 0 .23.04.23.19v1.06H9.76m.8-1.22H8.58v-.99M4.25 17.6h-.76v-3.27h4.49v3.27H5.21" style="fill: #003369;"/><circle cx="4.71" cy="18.1" r=".68" style="fill: #003369;"/><circle cx="9.23" cy="18.1" r=".68" style="fill: #003369;"/></g><text fill="#1d3767" font-family="Arial-BoldMT,Arial" font-size="3.64" transform="translate(17.7 6.37)"><tspan x="0" y="0">HUB</tspan></text><g><text fill="#1d3767" font-family="Arial-BoldMT,Arial" font-size="11.82" transform="translate(5.31 63.78)"><tspan x="0" y="0">1240</tspan></text></g></svg>
