<?xml version="1.0" encoding="UTF-8"?>
<svg xmlns="http://www.w3.org/2000/svg" aria-describedby="desc" aria-labelledby="title" viewBox="0 0 64 64"><path fill="none" stroke="#003369" stroke-miterlimit="10" stroke-width="2" d="M40 39.3a8 8 0 0 0 6 2.7h8a8 8 0 0 0 8-8v-4a8 8 0 0 0-8-8h-8a8 8 0 0 0-6.9 4l3.3 2.3A4 4 0 0 1 46 26h8a4 4 0 0 1 4 4v4a4 4 0 0 1-4 4h-8a4 4 0 0 1-3.4-1.9zm-18.7-3.1A4 4 0 0 1 18 38h-8a4 4 0 0 1-4-4v-4a4 4 0 0 1 4-4h8a4 4 0 0 1 3.3 1.8l3.6-1.8a8 8 0 0 0-6.9-4h-8a8 8 0 0 0-8 8v4a8 8 0 0 0 8 8h8a8 8 0 0 0 6-2.7z" data-name="layer2" style="stroke: #003369;"/><path fill="none" stroke="#003369" stroke-miterlimit="10" stroke-width="2" d="M23 17l-9-9m27 9l9-9m-18 8V2m-9 45l-9 9m27-9l9 9m-18-8v14" data-name="layer1" style="stroke: #003369;"/></svg>
