<?xml version="1.0" encoding="UTF-8"?>
<svg xmlns="http://www.w3.org/2000/svg" aria-describedby="desc" aria-labelledby="title" viewBox="0 0 64 64"><path fill="none" stroke="#003369" stroke-width="2" d="M32 46v15.5M20 62h24m-28 0h-4m-4 0H4m48 0h-4m12 0h-4" data-name="layer2" style="stroke: #003369;"/><rect width="60" height="32" x="2" y="14" fill="none" stroke="#003369" stroke-width="2" data-name="layer1" rx="2" ry="2" style="stroke: #003369;"/><path fill="none" stroke="#003369" stroke-width="2" d="M2.4 14.8L7.4 4A3 3 0 0 1 10 2h44a2.9 2.9 0 0 1 2.5 2l5.2 10.8M54 38H34m20-16H34M2 30h60" data-name="layer1" style="stroke: #003369;"/><circle cx="11" cy="22" r="2" fill="none" stroke="#003369" stroke-width="2" data-name="layer1" style="stroke: #003369;"/><circle cx="11" cy="38" r="2" fill="none" stroke="#003369" stroke-width="2" data-name="layer1" style="stroke: #003369;"/></svg>
