<?xml version="1.0" encoding="UTF-8"?>
<svg xmlns="http://www.w3.org/2000/svg" aria-describedby="desc" aria-labelledby="title" viewBox="0 0 64 64"><path fill="none" stroke="#003369" stroke-width="2" d="M53 47l4 6 5-5" data-name="layer1" style="stroke: #003369;"/><circle cx="11" cy="12" r="1" fill="none" stroke="#003369" stroke-width="2" data-name="layer2" style="stroke: #003369;"/><circle cx="11" cy="28" r="1" fill="none" stroke="#003369" stroke-width="2" data-name="layer2" style="stroke: #003369;"/><circle cx="11" cy="44" r="1" fill="none" stroke="#003369" stroke-width="2" data-name="layer2" style="stroke: #003369;"/><path fill="none" stroke="#003369" stroke-width="2" d="M2 20h52M2 36h30m-2-24h16M30 28h16M34.7 52H4a2 2 0 0 1-2-2V6a2 2 0 0 1 2-2h48a2 2 0 0 1 2 2v33.1" data-name="layer2" style="stroke: #003369;"/><path fill="none" stroke="#003369" stroke-width="2" d="M46 60a12 12 0 1 1 10.9-7.1" data-name="layer1" style="stroke: #003369;"/></svg>
