<?xml version="1.0" encoding="UTF-8"?>
<svg xmlns="http://www.w3.org/2000/svg" viewBox="0 0 36.93 66.84"><rect width="36.93" height="15.54" y="28.65" fill="#1d3767" rx="7.77" ry="7.77" style="fill: #003369;"/><text fill="#fff" font-family="Arial-BoldMT,Arial" font-size="11.82" transform="translate(4.67 40.59)"><tspan x="0" y="0">REW</tspan></text><g fill="none" stroke="#1d3768" stroke-miterlimit="10" stroke-width=".75"><path d="M24.22 14.67h2.53v2.44h-2.53v-2.44z" style="fill: #003369;"/><path d="M21.69 14.67h2.53v2.44h-2.53v-2.44z" style="fill: #003369;"/><path d="M19.17 14.67h2.53v2.44h-2.53v-2.44z" style="fill: #003369;"/><path d="M21.69 12.24h2.53v2.44h-2.53v-2.44z" style="fill: #003369;"/><path d="M24.22 12.24h2.53v2.44h-2.53v-2.44zm-5.05 0h2.53v2.44h-2.53v-2.44zm0-2.44h2.53v2.44h-2.53V9.8z" style="fill: #003369;"/><path d="M14.55 5.53v11.58h2.79l.04-9.85h11.16l.04 9.85h2.79V5.53L22.96.44l-8.41 5.09z" style="fill: #003369;"/></g><g fill="none" stroke="#1d3768" stroke-miterlimit="10" stroke-width=".61"><path d="M10.63 16.48H7.51m5.22 0h-.72m-1.18-.5h-.76m0-2.29h1.52l.57.99h.5c.11 0 .23.04.23.19v1.07h-1.03m.8-1.22h-1.98v-.99m-4.34 2.25h-.76V12.7h4.49v3.28H7.29" style="fill: #003369;"/><circle cx="6.78" cy="16.48" r=".69" style="fill: #003369;"/><circle cx="11.31" cy="16.48" r=".69" style="fill: #003369;"/></g><g><text fill="#1d3767" font-family="Arial-BoldMT,Arial" font-size="11.82" transform="translate(5.31 62.38)"><tspan x="0" y="0">1000</tspan></text></g></svg>
