<?xml version="1.0" encoding="UTF-8"?>
<svg xmlns="http://www.w3.org/2000/svg" viewBox="0 0 36.93 68.24"><rect width="36.93" height="15.54" y="30.13" fill="#1d3767" rx="7.77" ry="7.77" style="fill: #003369;"/><text fill="#fff" font-family="Arial-BoldMT,Arial" font-size="11.82" transform="translate(8.28 42.07)"><tspan x="0" y="0">RIH</tspan></text><g fill="none" stroke="#1d3768" stroke-miterlimit="10" stroke-width=".61"><path d="M21.84 16.04h2.78v2.69h-2.78v-2.69zM19.06 16.04h2.78v2.69h-2.78v-2.69z" style="fill: #003369;"/><path d="M16.28 16.04h2.78v2.69h-2.78v-2.69z" style="fill: #003369;"/><path d="M19.06 13.36h2.78v2.69h-2.78v-2.69zM21.84 13.36h2.78v2.69h-2.78v-2.69zm-5.57 0h2.78v2.69h-2.78v-2.69zm0-2.69h2.78v2.69h-2.78v-2.69z" style="fill: #003369;"/><path d="M11.19 5.97v12.76h3.08l.04-10.86h12.3l.04 10.86h3.08V5.97L20.45.36l-9.26 5.61z" style="fill: #003369;"/><g><path d="M17.96 22.11H12.5M15.83 19.99l2.12 2.12-2.12 2.12" style="fill: #003369;"/></g><g><path d="M26.8 22.41h-5.46M24.68 20.29l2.12 2.12-2.12 2.12" style="fill: #003369;"/></g></g><g fill="none" stroke="#1d3768" stroke-miterlimit="10" stroke-width=".61"><path d="M7.31 18.1H4.19m5.21 0h-.72m-1.18-.49h-.76m0-2.28h1.52l.57.99h.49c.11 0 .23.04.23.19v1.06H8.52m.8-1.22H7.34v-.99M3.01 17.6h-.76v-3.27h4.49v3.27H3.96" style="fill: #003369;"/><circle cx="3.47" cy="18.1" r=".68" style="fill: #003369;"/><circle cx="7.99" cy="18.1" r=".68" style="fill: #003369;"/></g><text fill="#1d3767" font-family="Arial-BoldMT,Arial" font-size="3.64" transform="translate(16.46 6.37)"><tspan x="0" y="0">HUB</tspan></text><g><text fill="#1d3767" font-family="Arial-BoldMT,Arial" font-size="11.82" transform="translate(5.31 63.78)"><tspan x="0" y="0">1450</tspan></text></g></svg>
