<?xml version="1.0" encoding="UTF-8"?>
<svg xmlns="http://www.w3.org/2000/svg" viewBox="0 0 36.93 66.84"><rect width="36.93" height="15.54" y="28.73" fill="#1d3767" rx="7.77" ry="7.77" style="fill: #003369;"/><text fill="#fff" font-family="Arial-BoldMT,Arial" font-size="11.82" transform="translate(6.97 40.67)"><tspan x="0" y="0">RIW</tspan></text><g fill="none" stroke="#1d3768" stroke-miterlimit="10" stroke-width=".75"><path d="M20.58 14.67h2.53v2.44h-2.53v-2.44z" style="fill: #003369;"/><path d="M18.06 14.67h2.53v2.44h-2.53v-2.44zM15.53 14.67h2.53v2.44h-2.53v-2.44z" style="fill: #003369;"/><path d="M18.06 12.24h2.53v2.44h-2.53v-2.44z" style="fill: #003369;"/><path d="M20.58 12.24h2.53v2.44h-2.53v-2.44zm-5.05 0h2.53v2.44h-2.53v-2.44zm0-2.44h2.53v2.44h-2.53V9.8z" style="fill: #003369;"/><path d="M10.91 5.53v11.58h2.79l.04-9.85H24.9l.04 9.85h2.79V5.53L19.32.44l-8.41 5.09z" style="fill: #003369;"/></g><g fill="none" stroke="#1d3768" stroke-miterlimit="10" stroke-width=".61"><path d="M6.99 16.48H3.87m5.22 0h-.72m-1.18-.5h-.76m0-2.29h1.52l.57.99h.5c.11 0 .23.04.23.19v1.07H8.22m.8-1.22H7.04v-.99M2.7 15.98h-.76V12.7h4.48v3.28H3.64" style="fill: #003369;"/><circle cx="3.15" cy="16.48" r=".69" style="fill: #003369;"/><circle cx="7.68" cy="16.48" r=".69" style="fill: #003369;"/></g><g><text fill="#1d3767" font-family="Arial-BoldMT,Arial" font-size="11.82" transform="translate(5.31 62.38)"><tspan x="0" y="0">1420</tspan></text></g></svg>
