<?xml version="1.0" encoding="UTF-8"?>
<svg xmlns="http://www.w3.org/2000/svg" aria-describedby="desc" aria-labelledby="title" viewBox="0 0 64 64"><circle cx="46" cy="18" r="4" fill="none" stroke="#003369" stroke-width="2" data-name="layer1" style="stroke: #003369;"/><path fill="none" stroke="#003369" stroke-width="2" d="M8.8 38.2a4 4 0 0 1-5.7 0 4 4 0 0 1 0-5.7l7.1-7.1a4 4 0 0 1 5.7 0 4 4 0 0 1 0 5.7zm22.7 22.6a4 4 0 0 1-5.7 0 4 4 0 0 1 0-5.7l7.1-7.1a4 4 0 0 1 5.7 0 4 4 0 0 1 0 5.7z" data-name="layer1" style="stroke: #003369;"/><path fill="none" stroke="#003369" stroke-width="2" d="M18.7 39.6L13.1 34 41.4 5.6a12 12 0 0 1 16.9.1 12 12 0 0 1 .1 16.9L30 50.9l-5.7-5.7" data-name="layer2" style="stroke: #003369;"/><path fill="none" stroke="#003369" stroke-width="2" d="M20.1 49.5a4 4 0 0 1-5.7 0 4 4 0 0 1 0-5.7l7.1-7.1a4 4 0 0 1 5.7 0 4 4 0 0 1 0 5.7z" data-name="layer1" style="stroke: #003369;"/></svg>
