<?xml version="1.0" encoding="UTF-8"?>
<svg xmlns="http://www.w3.org/2000/svg" data-name="Layer 1" viewBox="0 0 64 64"><path fill="#003369" d="M14.8 56.72h34.39v2H14.8zM14.8 41.97h34.39v2H14.8zM14.8 58.72a8.38 8.38 0 0 1 0-16.72v2a6.38 6.38 0 0 0 0 12.75zM49.2 58.72v-2a6.38 6.38 0 0 0 0-12.72v-2a8.38 8.38 0 0 1 0 16.75z" style="fill: #003369;"/><path fill="#003369" d="M15.89 55.56a5.22 5.22 0 0 1 0-10.44 5.22 5.22 0 0 1 0 10.44zm0-8.44A3.22 3.22 0 1 0 19 50.34a3.16 3.16 0 0 0-3.11-3.22z" style="fill: #003369;"/><circle cx="15.89" cy="50.34" r="1.17" fill="#003369" style="fill: #003369;"/><path fill="#003369" d="M37.37 55.56a5.22 5.22 0 1 1 5.08-5.22 5.16 5.16 0 0 1-5.08 5.22zm0-8.44a3.22 3.22 0 1 0 3.08 3.22 3.16 3.16 0 0 0-3.08-3.22z" style="fill: #003369;"/><circle cx="37.37" cy="50.34" r="1.17" fill="#003369" style="fill: #003369;"/><path fill="#003369" d="M26.63 55.56a5.22 5.22 0 1 1 5.08-5.22 5.16 5.16 0 0 1-5.08 5.22zm0-8.44a3.22 3.22 0 1 0 3.08 3.22 3.16 3.16 0 0 0-3.08-3.22z" style="fill: #003369;"/><circle cx="26.63" cy="50.34" r="1.17" fill="#003369" style="fill: #003369;"/><path fill="#003369" d="M48.11 55.56a5.22 5.22 0 1 1 5.08-5.22 5.16 5.16 0 0 1-5.08 5.22zm0-8.44a3.22 3.22 0 1 0 3.08 3.22 3.16 3.16 0 0 0-3.08-3.22z" style="fill: #003369;"/><circle cx="48.11" cy="50.34" r="1.17" fill="#003369" style="fill: #003369;"/><path fill="#003369" d="M52.83 39.59H11.17V5.28h41.66zm-39.66-2h37.66V7.28H13.17z" style="fill: #003369;"/><path fill="#003369" d="M25.88 20V5.28h12.24V20L32 14.51zM32 11.84l4.12 3.66V7.28h-8.24v8.22z" style="fill: #003369;"/></svg>
