<?xml version="1.0" encoding="UTF-8"?>
<svg xmlns="http://www.w3.org/2000/svg" data-name="Layer 1" viewBox="0 0 64 64"><path fill="none" stroke="#003369" stroke-miterlimit="8" stroke-width="2" d="M28.19 58.84V35.88M34 34.09c0-20.88-16.25-21.42-16.25-21.42v12.76a10.44 10.44 0 1 0 20.88 0V12.67s-4.32-1.24-8.32 7.33" style="stroke: #003369;"/><path fill="none" stroke="#003369" stroke-miterlimit="8" stroke-width="2" d="M21.22 13.21V8a14.49 14.49 0 0 1 11.88 7.49" style="stroke: #003369;"/><path fill="none" stroke="#003369" stroke-miterlimit="8" stroke-width="2" d="M36.3 13V8a12.39 12.39 0 0 0-7.3 2.87" style="stroke: #003369;"/><path fill="none" stroke="#003369" stroke-miterlimit="8" stroke-width="2" d="M24.34 8.54c1.52-1.14 4-4.42 5.82-3a25.17 25.17 0 0 1 2.7 3.18M28.33 51.09s4.74-7.18 11.27-7.84" style="stroke: #003369;"/><path fill="none" stroke="#003369" stroke-linecap="square" stroke-linejoin="round" stroke-width="2" d="M33.23 46.19c1.79 2.32 4.62 2.5 7.13 1.31a11.85 11.85 0 0 0 4.39-3.71c.49-.68 2.65-4.17.73-4.46-4.14-.62-12.56-.71-12.82 4.52a3.22 3.22 0 0 0 .57 2.34z" style="stroke: #003369;"/></svg>
