<?xml version="1.0" encoding="UTF-8"?>
<svg xmlns="http://www.w3.org/2000/svg" data-name="Layer 1" viewBox="0 0 64 64"><path fill="none" stroke="#003369" stroke-miterlimit="8" stroke-width="2" d="M31.8 59.64V35.07M37.59 33.29c0-20.88-16.25-21.43-16.25-21.43v12.76a10.44 10.44 0 1 0 20.88 0V11.86s-4.3-1.24-8.31 7.33" style="stroke: #003369;"/><path fill="none" stroke="#003369" stroke-miterlimit="8" stroke-width="2" d="M24.82 12.4V7.22a14.49 14.49 0 0 1 11.88 7.46" style="stroke: #003369;"/><path fill="none" stroke="#003369" stroke-miterlimit="8" stroke-width="2" d="M39.9 12.18v-5a12.38 12.38 0 0 0-7.3 2.85" style="stroke: #003369;"/><path fill="none" stroke="#003369" stroke-miterlimit="8" stroke-width="2" d="M28 7.73c1.51-1.13 4-4.42 5.81-3a24.37 24.37 0 0 1 2.7 3.18M31.85 48.35s3.82-5.69 8.72-6.18" style="stroke: #003369;"/><path fill="none" stroke="#003369" stroke-linecap="square" stroke-linejoin="round" stroke-width="2" d="M35.31 44.82c1.58 2 4.09 2.22 6.31 1.16a10.43 10.43 0 0 0 3.88-3.28c.44-.6 2.36-3.69.66-4-3.67-.55-11.13-.63-11.36 4a2.85 2.85 0 0 0 .51 2.12z" style="stroke: #003369;"/><path fill="none" stroke="#003369" stroke-miterlimit="8" stroke-width="2" d="M31.81 53.44s-3.81-5.68-8.58-6.16" style="stroke: #003369;"/><path fill="none" stroke="#003369" stroke-linecap="square" stroke-linejoin="round" stroke-width="2" d="M28.32 49.86c-1.53 2-4 2.14-6.11 1.12a10.32 10.32 0 0 1-3.76-3.18c-.42-.58-2.27-3.58-.63-3.82 3.55-.54 10.77-.62 11 3.86a2.76 2.76 0 0 1-.5 2.02z" style="stroke: #003369;"/></svg>
