<?xml version="1.0" encoding="UTF-8"?>
<svg xmlns="http://www.w3.org/2000/svg" aria-describedby="desc" aria-labelledby="title" viewBox="0 0 64 64"><path fill="none" stroke="#003369" stroke-width="2" d="M32 16v20" data-name="layer1" style="stroke: #003369;"/><rect width="60" height="18" x="2" y="36" fill="none" stroke="#003369" stroke-width="2" data-name="layer1" rx="2" ry="2" style="stroke: #003369;"/><circle cx="11" cy="45" r="2" fill="none" stroke="#003369" stroke-width="2" data-name="layer2" style="stroke: #003369;"/><circle cx="21" cy="45" r="2" fill="none" stroke="#003369" stroke-width="2" data-name="layer2" style="stroke: #003369;"/><circle cx="31" cy="45" r="2" fill="none" stroke="#003369" stroke-width="2" data-name="layer2" style="stroke: #003369;"/><path fill="none" stroke="#003369" stroke-width="2" d="M8 54v4m48-4v4M25.1 20a8 8 0 0 1 0-8m13.8 0a8 8 0 0 1 0 8m-21.2 3.1a16 16 0 0 1 0-14.2m28.6 0a16 16 0 0 1 0 14.2m-36 3.1A23.9 23.9 0 0 1 8 16a23 23 0 0 1 2-10m44 0a23 23 0 0 1 2 10 23.9 23.9 0 0 1-2.3 10.2" data-name="layer1" style="stroke: #003369;"/></svg>
