<?xml version="1.0" encoding="UTF-8"?>
<svg xmlns="http://www.w3.org/2000/svg" data-name="Layer 1" viewBox="0 0 64 64"><circle cx="46.5" cy="7.84" r="4.84" fill="none" stroke="#003369" stroke-miterlimit="10" stroke-width="2" transform="rotate(-9.22 46.487 7.868)" style="stroke: #003369;"/><path fill="none" stroke="#003369" stroke-miterlimit="10" stroke-width="2" d="M56.75 18.82l-.3-.57a1.88 1.88 0 0 0-2.54-.79L45.31 22l-2.84-8.72a1.86 1.86 0 0 0-1-1.15l-.33-.13-15.53-5.88h-.07a1.89 1.89 0 0 0-1.82.32l-9.35 7.63a1.88 1.88 0 0 0-.27 2.65l.41.5a1.88 1.88 0 0 0 2.65.27l8.23-6.71 9.46 3.56-17.69 25.47-8.62 1.76a1.88 1.88 0 0 0-1.47 2.22l.5 2.48a1.89 1.89 0 0 0 2.23 1.47l10.35-2.11a1.8 1.8 0 0 0 .93-.5 1.93 1.93 0 0 0 .27-.3l6-8.65 6.73 8.26L28 57.21a1.9 1.9 0 0 0 .88 2.52l2.28 1.09a1.9 1.9 0 0 0 2.52-.88L41 44.64v-.13-.12h0v-.12-.06V44a.22.22 0 0 0 0-.08v-.17a1.87 1.87 0 0 0-.42-1.08l-9-11.08-.58-.72 8.52-12.29L42 26.09a1.89 1.89 0 0 0 2.38 1.21l.61-.2a1.73 1.73 0 0 0 .39-.18L56 21.37a1.89 1.89 0 0 0 .75-2.55z" style="stroke: #003369;"/></svg>
