<?xml version="1.0" encoding="UTF-8"?>
<svg xmlns="http://www.w3.org/2000/svg" data-name="Layer 1" viewBox="0 0 64 64"><path fill="none" stroke="#003369" stroke-linejoin="round" stroke-width="2" d="M53.4 22.7c5.44 12.56 2.05 26.58.84 29.84S56.3 55 56.9 57.13s-2 3-2 3H9.15s-2.66-.85-2.05-3 3.9-1.33 2.66-4.59-4.6-17.28.84-29.84" style="stroke: #003369;"/><path fill="none" stroke="#003369" stroke-linejoin="round" stroke-width="2" d="M36.2 26.59c5.95-.2 12-.83 17.2-3.89 2.05-1.21 2.29-4.11 2.41-6.28S54.44 8 53.4 9.41c-1.51 2.09-5.12 2.8-7.44 3.35a61.42 61.42 0 0 1-27.93 0c-2.32-.54-5.92-1.25-7.43-3.34-1-1.45-2.54 4.83-2.41 7s.36 5.07 2.41 6.28c6.45 3.79 14.13 4.12 21.41 4 1.38-.04 2.79-.06 4.19-.11z" style="stroke: #003369;"/><path fill="none" stroke="#003369" stroke-linejoin="round" stroke-width="2" d="M53.4 9.41s1.6-3.26-7.13-4.54a100.33 100.33 0 0 0-28.54 0C9 6.15 10.6 9.41 10.6 9.41" style="stroke: #003369;"/></svg>
