<?xml version="1.0" encoding="UTF-8"?>
<svg xmlns="http://www.w3.org/2000/svg" viewBox="0 0 64 64"><path fill="#003369" d="M55.4 59H8.6A3.61 3.61 0 0 1 5 55.4V8.6C5 6.62 6.62 5 8.6 5h46.8C57.38 5 59 6.62 59 8.6v46.8c0 1.98-1.62 3.6-3.6 3.6zM8.6 7C7.72 7 7 7.72 7 8.6v46.8c0 .88.72 1.6 1.6 1.6h46.8c.88 0 1.6-.72 1.6-1.6V8.6c0-.88-.72-1.6-1.6-1.6H8.6z" style="fill: #003369;"/><path fill="#003369" d="M52.07 52.07H11.93v-6.2h2v4.2h36.14V13.93H13.93v4.2h-2v-6.2h40.14v40.14zM13.93 38.93h-2V25.06h2v13.87z" style="fill: #003369;"/><path fill="#003369" d="M15.67 46.87H10.2v-8.93h5.47v8.93zm-3.47-2h1.47v-4.93H12.2v4.93zm3.47-18.8H10.2v-8.93h5.47v8.93zm-3.47-2h1.47v-4.93H12.2v4.93z" style="fill: #003369;"/><g fill="#003369"><path d="M40.37 35.88h-.04a3.88 3.88 0 0 1-2.74-1.17 3.844 3.844 0 0 1-1.11-2.76c.01-1.04.42-2.01 1.17-2.74.73-.72 1.7-1.11 2.72-1.11h.04a3.896 3.896 0 0 1 2.69 6.67c-.73.72-1.7 1.11-2.72 1.11zm0-5.78a1.892 1.892 0 0 0-1.35 3.21c.35.36.83.56 1.33.57.55 0 .98-.19 1.34-.54.74-.73.76-1.93.03-2.67-.35-.36-.83-.56-1.33-.57h-.02z" style="fill: #003369;"/><path d="M33.52 37.171l4.021-3.94 1.4 1.427-4.02 3.942zM41.674 29.187l4.02-3.94 1.4 1.427-4.02 3.942zM33.68 26.611l1.429-1.4 3.94 4.022-1.428 1.4zM41.67 34.75l1.428-1.4 3.941 4.02-1.428 1.4z" style="fill: #003369;"/></g><path fill="#003369" d="M24.33 38.9c-3.81 0-6.9-3.1-6.9-6.9s3.1-6.9 6.9-6.9 6.9 3.1 6.9 6.9-3.1 6.9-6.9 6.9zm0-11.81c-2.7 0-4.9 2.2-4.9 4.9s2.2 4.9 4.9 4.9 4.9-2.2 4.9-4.9-2.2-4.9-4.9-4.9z" style="fill: #003369;"/><path fill="#003369" d="M23.33 26.1h2v1.97h-2zM23.33 35.94h2v1.97h-2zM18.42 31h1.97v2h-1.97zM28.26 31h1.97v2h-1.97zM19.43 28.529l1.413-1.415 1.38 1.379-1.414 1.414zM26.425 35.517l1.414-1.414 1.379 1.378-1.414 1.415zM19.431 35.475l1.38-1.379 1.413 1.414-1.379 1.38zM26.428 28.487l1.38-1.38 1.413 1.415-1.378 1.379zM24.33 35.44a3.436 3.436 0 0 1-2.85-1.5 3.447 3.447 0 0 1 .89-4.78c.76-.52 1.67-.71 2.58-.55.9.17 1.69.68 2.21 1.44 1.07 1.56.67 3.71-.89 4.78-.58.4-1.25.6-1.94.6zm-.01-4.88c-.29 0-.57.09-.81.25-.65.45-.82 1.35-.37 2 .22.32.54.53.92.6.38.07.76-.01 1.08-.23.66-.45.82-1.35.37-2a1.41 1.41 0 0 0-.92-.6c-.09-.02-.18-.02-.27-.02z" style="fill: #003369;"/></svg>
