<?xml version="1.0" encoding="UTF-8"?>
<svg xmlns="http://www.w3.org/2000/svg" viewBox="0 0 64 64"><path fill="#003369" d="M26.97 62.18H4.41v-30.8l.26-.29c.06-.07 6.48-7.43 4.83-26.07l-.08-.87 10.97-2.47 12.85 25.2-.04 29.24c-.06.22-1.61 5.45-6.16 6.05h-.06zM6.41 60.19h20.43c2.89-.42 4.17-3.8 4.4-4.49V27.36L19.32 3.97l-7.76 1.75c1.32 17.07-3.89 24.8-5.15 26.41v28.05z" style="fill: #003369;"/><path fill="#003369" d="M60.07 62.18H37.44c-4.56-.6-6.1-5.83-6.16-6.06l-.04-.27V26.88l12.84-25.2 10.97 2.47-.08.87c-1.66 18.64 4.76 26 4.83 26.07l.26.29v30.8zm-22.43-2h20.43V32.13c-1.27-1.61-6.47-9.34-5.15-26.41l-7.76-1.75-11.92 23.39v28.33c.23.68 1.51 4.07 4.4 4.49z" style="fill: #003369;"/><path fill="#003369" d="M5.41 33.63h53.66v2H5.41zM5.41 38.32h53.66v2H5.41zM32.51 12.64c-2.78 0-5.82-.75-9.78-2.48l.8-1.83c7.7 3.36 11.44 2.75 17.4 0l.84 1.82c-3.37 1.56-6.16 2.49-9.25 2.49zM5.41 45.99h53.66v2H5.41zM5.41 50.67h53.66v2H5.41z" style="fill: #003369;"/></svg>
