<?xml version="1.0" encoding="UTF-8"?>
<svg xmlns="http://www.w3.org/2000/svg" data-name="Layer 1" viewBox="0 0 113.39 113.39"><circle cx="32.79" cy="46.25" r="2.63" fill="none"/><path fill="none" d="M23.33 42.62a3.85 3.85 0 0 0-3.84-3.84h-3.63a.21.21 0 0 0-.21.21v4.4a4 4 0 0 1 2-.56 4 4 0 0 1 4 4 3.75 3.75 0 0 1-.09.82h6.8a4.51 4.51 0 0 1-.25-1.42 4.59 4.59 0 0 1 .89-2.61h-5.67z"/><circle cx="17.67" cy="46.85" r="2.02" fill="none"/><path fill="none" d="M25.47 30.31H20.7a.21.21 0 0 0-.21.21v6.35a5.85 5.85 0 0 1 4.75 4.75h4.92l-3.92-10.77a.82.82 0 0 0-.77-.54zM65.4 79.55l.47.83 5.31-2.97-.88-1.57-12.58 7.04.88 1.57 5.7-3.19-.47-.83 1.57-.88zM96.69 14a1.21 1.21 0 1 0-1.22 1.2 1.18 1.18 0 0 0 1.22-1.2zM95.35 85.31a9.93 9.93 0 1 0 9.94 9.93 9.94 9.94 0 0 0-9.94-9.93zm6.06 14.5l-1.41 1.41-4.72-4.71-4.72 4.71-1.41-1.41 4.71-4.72-4.71-4.71L90.56 89l4.72 4.72L100 89l1.41 1.42-4.72 4.71z"/><path fill="#1d3763" d="M20.09 47.67h1.52a3.75 3.75 0 0 0 .09-.82 4 4 0 0 0-4-4 4 4 0 0 0-2 .56v3.46a2 2 0 1 1 2 2 2 2 0 0 1-2-2h-2a4 4 0 0 0 6.89 2.82h-.45zM35.42 46.25a2.63 2.63 0 1 1-2.63-2.63H29a4.59 4.59 0 0 0-.83 2.63 4.51 4.51 0 0 0 .25 1.42h1.68v2h-.4a4.57 4.57 0 0 0 7.13-1.21h-1.41z" style="fill: #003369;"/><path fill="#1d3763" d="M35.42 46.25v-3.81a4.66 4.66 0 0 0-2.63-.82v2a2.63 2.63 0 0 1 2.63 2.63zM15.65 43.39V39a.21.21 0 0 1 .21-.21h3.63a3.85 3.85 0 0 1 3.84 3.84v1H29a4.67 4.67 0 0 1 1.4-1.33l-.24-.68h-4.92a5.85 5.85 0 0 0-4.75-4.75v.91h-2v-1h-2.63A2.21 2.21 0 0 0 13.65 39v7.86a4 4 0 0 1 2-3.47zM32.79 41.62h-.51v.05a4.07 4.07 0 0 1 .51-.05z" style="fill: #003369;"/><path fill="#1d3763" d="M15.65 43.39a4 4 0 0 0-2 3.46h2zM32.52 42.28l-1.88.72-.24-.66a4.67 4.67 0 0 0-1.4 1.28h3.8v-2a4.07 4.07 0 0 0-.49.05zM20.49 36.87v-6.35a.21.21 0 0 1 .21-.21h4.77a.82.82 0 0 1 .77.54l3.92 10.77h2.12l-4.16-11.46a2.83 2.83 0 0 0-2.65-1.85H20.7a2.21 2.21 0 0 0-2.21 2.21v6.26h1a5.55 5.55 0 0 1 1 .09z" style="fill: #003369;"/><path fill="#1d3763" d="M20.49 37.78v-.91a5.55 5.55 0 0 0-1-.09h-1v1zM30.4 42.3a4.6 4.6 0 0 1 1.9-.63v-.05h-2.14z" style="fill: #003369;"/><path fill="#1d3763" d="M32.52 42.28l-.22-.61a4.6 4.6 0 0 0-1.9.63l.24.66zM36.83 48.46h4.32v-2h-3.73v-.21a4.5 4.5 0 0 1-.59 2.21zM37.42 46.25V27.51h-2v14.93a4.63 4.63 0 0 1 2 3.81z" style="fill: #003369;"/><path fill="#1d3763" d="M35.42 42.44v6h1.41a4.5 4.5 0 0 0 .59-2.21 4.63 4.63 0 0 0-2-3.79zM44.13 48.46h44.44v-2h-6.76l.47.85-1.75.97-1.02-1.82H50.8l-.98.53-.28-.53h-5.41v2zM28.41 47.67h-6.8a4.07 4.07 0 0 1-1.07 2h9.16a4.68 4.68 0 0 1-1.29-2z" style="fill: #003369;"/><path fill="#1d3763" d="M20.09 47.67v2h.45a4.07 4.07 0 0 0 1.07-2zM30.09 47.67h-1.68a4.68 4.68 0 0 0 1.29 2h.39zM79.49 30.68l-1.24-2.37c-2.86-5.59-7.74-4.34-12-3.23-4.84 1.24-9.42 2.42-12.79-4l-1.8.92c4.11 7.8 10.18 6.24 15 5s7.73-1.75 9.77 2.22l.33.64-26.12 14.4-8.92-17-1.72.94 9.59 18.26h1.21zM50.8 46.46h-1.26l.28.53.98-.53zM76.28 36.58l-1.75.98 4.98 8.9h2.3l-5.53-9.88zM82.28 47.31l-.47-.85h-2.3l1.02 1.82 1.75-.97z" style="fill: #003369;"/><path fill="#1d3763" d="M75.76 35.66l.52.92 5.22-2.92-.97-1.75-12.58 7.04.98 1.75 5.6-3.14-.51-.92 1.74-.98z" style="fill: #003369;"/><path fill="#1d3763" d="M74.018 36.631l1.745-.976.513.917-1.746.976zM89.15 99.805l4.717-4.717 1.414 1.415-4.717 4.716zM95.28 93.676l4.717-4.717 1.414 1.415-4.717 4.716zM95.278 96.508l1.414-1.414 4.716 4.716-1.414 1.414z" style="fill: #003369;"/><path fill="#1d3763" d="M89.149 90.378l1.414-1.414 4.716 4.716-1.414 1.414zM93.868 95.096l1.414-1.415 1.414 1.415-1.414 1.414zM63.46 66.48l-14.16 8 .91.12a4.19 4.19 0 0 1 1.16.29 2.48 2.48 0 0 1 1.5 1.45 2.45 2.45 0 0 1-.27 2 4.74 4.74 0 0 1-3.16 2.29 9.29 9.29 0 0 1-4.72-.16 7.37 7.37 0 0 0-1-.2.59.59 0 0 1 0 .08 3.28 3.28 0 0 0 1.36 1.46c.69.34 1.34.73 2 1.11.31.2.63.39.95.57h.53l18.6-10.46z" style="fill: #003369;"/><path fill="#1d3763" d="M112.15 56.72a54.88 54.88 0 0 0-5.94-25l-1.78.91a52.86 52.86 0 0 1 5.72 23.89H3.25A53.51 53.51 0 0 1 56.7 3.26a53 53 0 0 1 24 5.7l.9-1.78a54.85 54.85 0 0 0-25-5.92 55.46 55.46 0 1 0 30 102.12 11.92 11.92 0 1 0 16.82-16.86 56.23 56.23 0 0 0 8.73-29.8zM78.09 92.53H29v-1.8h4.15a12.24 12.24 0 0 1-2.39-3.1l-3-5.12-.3-.51a2.22 2.22 0 0 1-2.87-.48c-.78-.87-1.53-1.76-2.27-2.65l-.36-.42 1.38-1.16.36.43c.73.87 1.46 1.74 2.23 2.59.17.2.36.34.79 0l.37-.25.9-.58.6.89.21.33.51.86c1 1.71 2 3.41 3 5.13a10.35 10.35 0 0 0 2.11 2.75c1 .81 1.45.59 1.86.29a2.16 2.16 0 0 1 1.47-.4 1.34 1.34 0 0 0 1.37-.55 2.08 2.08 0 0 1 1.26-.73 1.91 1.91 0 0 0 1.45-.8 1.29 1.29 0 0 1 1.88-.39l.15.09a10.29 10.29 0 0 0 1 .55l.47.26a2.56 2.56 0 0 0 .83.35c1.38 0 2.8 0 4.17-.1l1.13-.01a.56.56 0 0 0 .47-.25 1.21 1.21 0 0 0 .23-.94 1 1 0 0 0-.49-.69 2.93 2.93 0 0 0-1-.41c-.57-.11-1.14-.18-1.7-.24l-.97-.14a2.25 2.25 0 0 1-.82-.26c-.34-.19-.67-.39-1-.59-.62-.38-1.21-.73-1.82-1a5 5 0 0 1-2.14-2.2 3 3 0 0 1-.45-2.28l.19-.82.83.13.71.1a10.86 10.86 0 0 1 1.74.33 7.46 7.46 0 0 0 3.82.12 2.88 2.88 0 0 0 2-1.43.55.55 0 0 0-.32-.93 3.06 3.06 0 0 0-.68-.17 27.28 27.28 0 0 1-6.57-1.51 9.72 9.72 0 0 0-1.9-.55c-1.24-.18-2.49-.33-3.75-.47l-1.67-.2a2.66 2.66 0 0 1-.39-.07l-1.09-.23.29-.94c.31-1 .31-1-.53-1.71l-1.22-1-.91-.79 1.17-1.37.93.8c.39.34.78.68 1.18 1 1.11.92 1.48 1.55 1.34 2.62L38 72c1.27.15 2.54.3 3.8.48a11.25 11.25 0 0 1 2.25.63c.9.32 1.77.58 2.64.8v-.09L64.15 64l5.47 9.79-18.21 10.27a4.93 4.93 0 0 1 1.24.53 2.88 2.88 0 0 1 1.28 1.88 3 3 0 0 1-.54 2.32 2.37 2.37 0 0 1-1.86 1h-1.2c-1.4.06-2.84.13-4.28.1a3.55 3.55 0 0 1-1.67-.58c-.13-.07-.26-.15-.39-.21a10 10 0 0 1-1-.54 3.73 3.73 0 0 1-2.45 1.25 1.2 1.2 0 0 0-.12.09 3.36 3.36 0 0 1-.92.78h30.1l-5.3-9.47-5.7 3.19-.88-1.57 12.58-7 .88 1.57-5.31 3 5.79 10.35h6.43zm27.2 2.71a9.94 9.94 0 1 1-9.94-9.93 9.94 9.94 0 0 1 9.94 9.93z" style="fill: #003369;"/><path fill="#1d3763" d="M87.84 24a9.9 9.9 0 1 1 15.29 0l1.57 1.57a12.17 12.17 0 1 0-18.44 0z" style="fill: #003369;"/><path fill="#1d3763" d="M103.26 27l-1.5-1.59a8.71 8.71 0 0 1-5.21 2.36v-8.51h2.09v-1.57h-2.09v-1.28A2.52 2.52 0 0 0 98.26 14a2.78 2.78 0 0 0-5.56 0 2.54 2.54 0 0 0 1.71 2.42v1.28h-2.08v1.57h2.08v8.51a8.69 8.69 0 0 1-5.2-2.36L87.71 27a12 12 0 0 0 15.55 0zm-9-13a1.21 1.21 0 0 1 2.41 0 1.21 1.21 0 0 1-2.41 0z" style="fill: #003369;"/></svg>
