<?xml version="1.0" encoding="UTF-8"?>
<svg xmlns="http://www.w3.org/2000/svg" viewBox="0 0 64 64"><path fill="#003369" d="M8.79 10.52h26.98v2H8.79z" style="fill: #003369;"/><path fill="#003369" d="M36.15 60.38c-1.4 0-2.31-.03-2.47-.03l-.97-.03v-2.25l-10.46-1.05-.71 3.02-17.22-1.48-.09-.82c-.52-4.77.95-8.47 1.01-8.63.04-.1 4.7-13.2 2.04-44.39l-.09-1.08h30.45l-3.19 28.97c-.25 2.28.65 4.49 2.41 5.93 3.04 2.48 8.47 5.92 17.08 8.16 2.13.33 6.04 2.04 5.94 6.29v3.25l-.46.29c-5.5 3.48-17.93 3.87-23.26 3.87zm-1.44-2.01c3.74.05 17.31-.02 23.16-3.27v-2.16-.01c.09-3.59-4.1-4.25-4.28-4.28l-.11-.02c-8.99-2.34-14.69-5.95-17.89-8.56a8.648 8.648 0 0 1-3.13-7.7L35.4 5.62H9.37c2.51 30.94-2.06 43.66-2.25 44.19-.02.05-1.18 3.02-.95 6.88L20 57.88l.71-3.04 14.01 1.41v2.11z" style="fill: #003369;"/><path fill="#003369" d="M7.8 57.903l.338-3.062 1.988.22-.339 3.061zM37.65 56.77h2v2.6h-2zM42.538 56.726l1.999-.065.078 2.429-1.999.065zM14.036 58.336l.353-2.949 1.986.238-.354 2.95zM48.296 56.237l1.986-.242.288 2.373-1.985.241zM53.223 55.367l1.946-.459.535 2.268-1.947.46zM42.59 53.09c-.99 0-2-.02-3.07-.05-5.66-.18-11.52-.92-17.71-1.7l-1.73-.22c-1.81-.23-12-1.46-13.6-1.61l.19-1.99c1.73.16 12.15 1.43 13.67 1.62l1.73.22c6.15.78 11.96 1.52 17.53 1.69 7.02.22 11.85-.15 17.2-2.72l.87 1.8c-4.85 2.33-9.39 2.97-15.06 2.97z" style="fill: #003369;"/></svg>
