<?xml version="1.0" encoding="UTF-8"?>
<svg xmlns="http://www.w3.org/2000/svg" viewBox="0 0 64 64"><path fill="#003369" d="M36.55 53.79c-1.54 0-2.54-.03-2.71-.04l-.97-.03v-2.46l-11.62-1.17-.77 3.3-18.69-1.61-.09-.82c-.56-5.2 1.03-9.23 1.1-9.4l1.86.75s-1.31 3.34-1.03 7.62l15.31 1.32.78-3.33 15.16 1.53v2.32c3.96.05 19 0 25.48-3.58-.12-1.12-.39-3.43-.62-4.42l1.95-.44c.33 1.44.71 5.14.73 5.29l.06.62-.52.33c-5.99 3.79-19.57 4.22-25.4 4.22z" style="fill: #003369;"/><path fill="#003369" d="M5.595 51.183l.37-3.35 1.988.22-.37 3.35zM38.28 49.94h2v2.85h-2zM43.635 49.886l1.999-.065.086 2.659-1.999.065zM12.417 51.671l.387-3.227 1.986.239-.387 3.226zM49.932 49.338l1.985-.241.316 2.6-1.985.242zM55.325 48.386l1.947-.458.585 2.482-1.947.458zM34.32 39.16c-.69 0-1.32-.03-1.85-.07-3.52-.32-6.49-2.04-8.59-4.98-.95-1.34-1.58-2.87-2.14-4.33a80.453 80.453 0 0 1-4.6-17.81l1.98-.27c.82 5.91 2.32 11.75 4.48 17.36.54 1.39 1.08 2.74 1.9 3.89 1.75 2.45 4.22 3.89 7.14 4.15 3.32.3 9.54-.42 11.32-2.18l1.41 1.42c-2.15 2.13-7.48 2.83-11.06 2.83z" style="fill: #003369;"/><path fill="#003369" d="M10.62 19.75c-2.24 0-4.37-.02-6.05-.06l.04-2c3.89.09 10.15.1 14.73-.08l.08 2c-2.63.1-5.82.14-8.8.14zM14.97 45.2c-.54-3.07-1.73-7.04-3.44-9-1.65-1.89-4.77-3.31-7.77-3.55l.16-1.99c3.53.28 7.11 1.94 9.11 4.23 2.43 2.78 3.54 7.9 3.91 9.97l-1.97.35zM23.3 19.59c-1.28 0-2.33-1.04-2.33-2.33s1.04-2.33 2.33-2.33 2.33 1.04 2.33 2.33-1.04 2.33-2.33 2.33zm0-2.65c-.18 0-.33.15-.33.33s.15.33.33.33.33-.15.33-.33-.15-.33-.33-.33zM25.2 25.51c-1.28 0-2.33-1.04-2.33-2.33s1.04-2.33 2.33-2.33 2.33 1.04 2.33 2.33-1.04 2.33-2.33 2.33zm0-2.65c-.18 0-.33.15-.33.33s.15.33.33.33.33-.15.33-.33-.15-.33-.33-.33zM28.36 31.02c-1.28 0-2.33-1.04-2.33-2.33s1.04-2.33 2.33-2.33 2.33 1.04 2.33 2.33-1.04 2.33-2.33 2.33zm0-2.65c-.18 0-.33.15-.33.33s.15.33.33.33.33-.15.33-.33-.15-.33-.33-.33zM32.89 35.84c-1.28 0-2.33-1.04-2.33-2.33s1.04-2.33 2.33-2.33 2.33 1.04 2.33 2.33-1.04 2.33-2.33 2.33zm0-2.65c-.18 0-.33.15-.33.33s.15.33.33.33.33-.15.33-.33-.15-.33-.33-.33z" style="fill: #003369;"/><path fill="#003369" d="M42.35 48.37c-2.24 0-4.71-.09-7.45-.29-.99-.07-24.49-1.75-31.03-4.93a2.672 2.672 0 0 1-1.46-1.98c-.25-1.63-.43-5.67 1.22-14.3.03-.15.05-.29.06-.44.07-1.04.24-5.07-.41-12.97v-.06-.1c.03-.72.35-1.38.89-1.86a2.68 2.68 0 0 1 2.03-.66c2.18.2 8.36.54 18.54-.56.71-.08 1.41.13 1.97.58.56.45.91 1.09.98 1.8.43 4.12 2.55 14.35 12.95 20.23l.15.11s3.18 2.39 15.94 3.72c.1 0 3.88.17 5.09 5.54.26 1.16-.29 2.36-1.34 2.93-2.4 1.3-7.71 3.22-18.14 3.22zM5.97 12.77c-.17 0-.34.06-.47.17-.09.08-.2.22-.21.44.65 7.94.48 12.09.41 13.17-.02.23-.04.46-.09.69-1.66 8.65-1.4 12.4-1.21 13.62.03.22.16.4.36.49 6.19 3.01 30.06 4.72 30.3 4.73 15.52 1.14 22.3-1.5 24.49-2.69.27-.14.4-.45.34-.73-.86-3.8-3.19-3.98-3.29-3.99-12.68-1.33-16.34-3.63-16.99-4.12-11.15-6.34-13.43-17.31-13.89-21.73a.707.707 0 0 0-.25-.46.693.693 0 0 0-.5-.15c-10.35 1.12-16.69.77-18.93.56s-.04 0-.06 0z" style="fill: #003369;"/></svg>
