<?xml version="1.0" encoding="UTF-8"?>
<svg xmlns="http://www.w3.org/2000/svg" data-name="Layer 1" viewBox="0 0 64 64"><path fill="none" stroke="#003369" stroke-miterlimit="10" stroke-width="2" d="M60.82 3A4.84 4.84 0 0 0 56 7.8c0 3.63 2.17 6.05 4.84 6.05M60.77 16.27A20.17 20.17 0 0 0 52.55 18a2.41 2.41 0 0 0-1.41 2.2v14.22a3.63 3.63 0 0 0 3.63 3.63V61h5.68V37.74M3.18 3A4.84 4.84 0 0 1 8 7.8c0 3.63-2.17 6.05-4.84 6.05M3.23 16.27A20.17 20.17 0 0 1 11.45 18a2.41 2.41 0 0 1 1.41 2.2v14.22a3.63 3.63 0 0 1-3.63 3.63V61H3.55V37.74M43.88 29.58l3.63-3.63-3.63-3.63M20.35 22.32l-3.63 3.63 3.63 3.63M26.9 25.94h2M31.06 25.94h2M22.61 25.94h2M35.2 25.94h2M39.42 25.94h2M22.08 50.37h2M26.6 48.6a2.51 2.51 0 0 0 2.34 1.91 2.83 2.83 0 0 0 0-5.61 2.55 2.55 0 0 0-1.86.69c-.14.11-.22.13-.31.09s-.13-.37-.13-.37v-4h5.28M16 43.71l2.71-2.48a.36.36 0 0 1 .32-.11c.12 0 .11.3.11.3v10M41.32 46.79a2.58 2.58 0 0 0-5.15 0v4.65" style="stroke: #003369;"/><path fill="none" stroke="#003369" stroke-miterlimit="10" stroke-width="2" d="M46.46 51.48v-4.7a2.57 2.57 0 1 0-5.14 0v4.74M36.17 46.66v-3.97" style="stroke: #003369;"/></svg>
