<?xml version="1.0" encoding="UTF-8"?>
<svg xmlns="http://www.w3.org/2000/svg" viewBox="0 0 64 64"><path fill="#003369" d="M55.65 59.22H8.85c-1.99 0-3.6-1.62-3.6-3.6V8.82c0-1.98 1.62-3.6 3.6-3.6h46.8c1.98 0 3.6 1.62 3.6 3.6v46.8c0 1.98-1.62 3.6-3.6 3.6zm-46.8-52c-.88 0-1.6.72-1.6 1.6v46.8c0 .88.72 1.6 1.6 1.6h46.8c.88 0 1.6-.72 1.6-1.6V8.82c0-.88-.72-1.6-1.6-1.6H8.85z" style="fill: #003369;"/><path fill="#003369" d="M52.32 52.28H12.19v-6.2h2v4.2h36.13V14.15H14.19v4.2h-2v-6.2h40.13v40.13zM14.19 39.15h-2V25.28h2v13.87z" style="fill: #003369;"/><g fill="#003369"><path d="M26.1 37.15c-2.72 0-4.94-2.21-4.94-4.94s2.21-4.94 4.94-4.94 4.94 2.21 4.94 4.94-2.21 4.94-4.94 4.94zm0-7.87c-1.62 0-2.94 1.32-2.94 2.94s1.32 2.94 2.94 2.94 2.94-1.32 2.94-2.94-1.32-2.94-2.94-2.94z" style="fill: #003369;"/><path d="M27.1 38.12h-2v-1.97h2v1.97zm2.48-1.02l-1.38-1.38 1.41-1.41 1.38 1.38-1.41 1.41zm-6.95 0l-1.41-1.41 1.38-1.38 1.41 1.41-1.38 1.38zm9.38-3.89h-1.97v-2h1.97v2zm-9.84 0H20.2v-2h1.97v2zm7.45-3.1l-1.41-1.41 1.38-1.38L31 28.73l-1.38 1.38zm-7.02 0l-1.38-1.38 1.41-1.41 1.38 1.38-1.41 1.41zm4.51-1.84h-2V26.3h2v1.97z" style="fill: #003369;"/></g><path fill="#003369" d="M15.92 47.08h-5.47v-8.93h5.47v8.93zm-3.47-2h1.47v-4.93h-1.47v4.93zm3.47-18.8h-5.47v-8.93h5.47v8.93zm-3.47-2h1.47v-4.93h-1.47v4.93z" style="fill: #003369;"/><g fill="#003369"><path d="M40.88 35.98c-2.14 0-3.89-1.75-3.89-3.89s1.75-3.89 3.89-3.89 3.89 1.75 3.89 3.89-1.75 3.89-3.89 3.89zm0-5.78c-1.04 0-1.89.85-1.89 1.89s.85 1.89 1.89 1.89 1.89-.85 1.89-1.89-.85-1.89-1.89-1.89z" style="fill: #003369;"/><path d="M39.77 34.98h2v7.28h-2z" style="fill: #003369;"/></g></svg>
