<?xml version="1.0" encoding="UTF-8"?>
<svg xmlns="http://www.w3.org/2000/svg" aria-describedby="desc" aria-labelledby="title" viewBox="0 0 64 64"><path fill="none" stroke="#003369" stroke-width="2" d="M38 26.6s0-8.4-4.2-12.7l-8.6-8.5C19.8 0 12.3 1.4 6.9 6.9 1.4 12.3 0 19.8 5.4 25.2l8.5 8.5C18.2 38 26.6 38 26.6 38" data-name="layer2" style="stroke: #003369;"/><path fill="none" stroke="#003369" stroke-width="2" d="M25.264 39.336l14.142-14.143 7.07 7.071-14.141 14.143zM50.7 39.4l1.4 1.4m-5.6 5.7l4.2 4.2m-11.3 0l4.2 4.2m14.2-8.4l4.2 4.2m-5.6 5.7l1.4 1.4m-9.9 1.4l2.8 2.8" data-name="layer1" style="stroke: #003369;"/></svg>
