<?xml version="1.0" encoding="UTF-8"?>
<svg xmlns="http://www.w3.org/2000/svg" aria-describedby="desc" aria-labelledby="title" viewBox="0 0 64 64"><path fill="none" stroke="#003369" stroke-miterlimit="10" stroke-width="2" d="M16 55c4 0 9.959-5.608 12.984-8a5.114 5.114 0 0 1 6.024-.016C38.057 49.355 44 55 48 55M20.084 26c8-3.205 14.6 3.65 24.121-.216" data-name="layer2" style="stroke: #003369;"/><path fill="none" stroke="#003369" stroke-miterlimit="10" stroke-width="2" d="M48 62V48.513a14 14 0 0 0-5.953-11.457l-5.527-3.881a1 1 0 0 1 0-1.637l5.526-3.881A14 14 0 0 0 48 16.2V2M16 2v14.2a14 14 0 0 0 5.954 11.457l5.526 3.881a1 1 0 0 1 0 1.637l-5.526 3.881A14 14 0 0 0 16 48.513V62m-3 0h38M13 2h38" data-name="layer1" style="stroke: #003369;"/><path fill="none" stroke="#003369" stroke-miterlimit="10" stroke-width="2" d="M27.816 32.77C30.687 33.5 31.833 37 32 37c.132 0 .867-3.383 4.095-4.7" data-name="layer2" style="stroke: #003369;"/></svg>
