<?xml version="1.0" encoding="UTF-8"?>
<svg xmlns="http://www.w3.org/2000/svg" data-name="Layer 1" viewBox="0 0 64 64"><path fill="none" stroke="#003369" stroke-miterlimit="10" stroke-width="2" d="M37.1 29.6h23.25M44.75 3.2v7.2M49.55 3.2v7.2M34 6.8s2.4-3.6 6-3.6h12M42.35 16.4v-4.2a1.81 1.81 0 0 1 1.8-1.8h6A1.81 1.81 0 0 1 52 12.2v4.2z" style="stroke: #003369;"/><path fill="none" stroke="#003369" stroke-miterlimit="10" stroke-width="2" d="M34 55.57v2.83a2.4 2.4 0 0 0 2.4 2.4H58a2.39 2.39 0 0 0 2.4-2.4v-30A13.22 13.22 0 0 0 52 16.11M33.95 51.27v4.3M33.95 30.8v6.22M40.09 17.26a13.19 13.19 0 0 0-3.45 3.17M42.35 16.11a13.34 13.34 0 0 0-2.26 1.15M36.69 20.36L36.5 20" style="stroke: #003369;"/><path fill="none" stroke="#003369" stroke-miterlimit="10" stroke-width="2" d="M36.5 20c-1.36-2.59-2.5-4.8-2.5-4.8s-1.23 2.21-2.6 4.8c-1 2-2.25 4-2.25 5.91a4.8 4.8 0 1 0 9.6 0c0-1.83-1.06-3.68-2.06-5.56M34 37c1.86.81 3.19 1.43 3.4 1.52s3.26 1.11 2.32 3.85c-.43 1.25-2.37 1.56-3.5 1.28l-15-3.46m16.33-1.55l13.68-6.43a2.44 2.44 0 0 1 2.71.43 2.38 2.38 0 0 1 .75 1.87 2.43 2.43 0 0 1-.92 1.79l-16.5 12.86a9.32 9.32 0 0 1-8.78 1.74l-18-4.75a.52.52 0 0 0-.18 0H3.65v-10.8h7.51a.71.71 0 0 0 .43-.14c.05 0 4.46-3.37 8.31-3.14 2.7.14 9.78 3.08 14.05 5" style="stroke: #003369;"/></svg>
