<?xml version="1.0" encoding="UTF-8"?>
<svg xmlns="http://www.w3.org/2000/svg" aria-describedby="desc" aria-labelledby="title" viewBox="0 0 64 64"><path fill="none" stroke="#003369" stroke-width="2" d="M20.4 54l-1.7.2A8.7 8.7 0 0 1 10 44.1m9.9 17.7h-1.4A16.5 16.5 0 0 1 2 45.4v-.9m22-4.4l-4.3 4.3" data-name="layer2" style="stroke: #003369;"/><path fill="none" stroke="#003369" stroke-width="2" d="M31.9 45.1a2 2 0 0 1-2.9 0l-10-10a2 2 0 0 1 0-2.9l17.2-17.3a2 2 0 0 1 2.9 0L49.2 25a2 2 0 0 1 0 2.9z" data-name="layer1" style="stroke: #003369;"/><path fill="none" stroke="#003369" stroke-width="2" d="M22.6 28.6L6.8 12.8a2 2 0 0 1 0-2.9L14 2.7a2 2 0 0 1 2.9 0l15.7 15.8m2.9 23l15.8 15.8a2 2 0 0 0 2.9 0l7.2-7.2a2 2 0 0 0 0-2.9L45.6 31.5" data-name="layer1" style="stroke: #003369;"/></svg>
