<?xml version="1.0" encoding="UTF-8"?>
<svg xmlns="http://www.w3.org/2000/svg" data-name="Layer 1" viewBox="0 0 64 64"><path fill="none" stroke="#003369" stroke-linecap="round" stroke-linejoin="round" stroke-width="2" d="M8.07 10.62l2.21 13.83s9.64 4.34 25 5.28L33.29 17z" style="stroke: #003369;"/><path fill="none" stroke="#003369" stroke-linecap="square" stroke-miterlimit="10" stroke-width="2" d="M13.49 16.25l1.2 5.09a59.72 59.72 0 0 0 15.15 3.46l-1-4.93z" style="stroke: #003369;"/><path fill="none" stroke="#003369" stroke-linecap="round" stroke-linejoin="round" stroke-width="2" d="M8.07 10.62l22-5.93S45 4.58 52 5.81c0 0 1.22.61 1.22 10l-18 14M33.29 17.02L52.02 5.81" style="stroke: #003369;"/><path fill="none" stroke="#003369" stroke-linecap="round" stroke-linejoin="round" stroke-width="2" d="M55.88 48.27c-.47-3.2-5-14.49-5.08-19.67s2.44-12.83 2.44-12.83L37.51 28s.45 1.66.81 3.25l6.21 1.63s1.8 4.67.58 6.32c-1 1.38-2.67 3.55-4.65 3.7.28 1.57 1.91 3.16 1.87 3.59-.19 1.79-3.2 2.17-4.24 3.67s-1.51 5.08.38 6.5 9.88 4 12.61 1.88 5.27-7.07 4.8-10.27z" style="stroke: #003369;"/><path fill="none" stroke="#003369" stroke-linecap="round" stroke-linejoin="round" stroke-width="2" d="M40.24 38.36a1.52 1.52 0 0 1-.44.2c-1.49.26-6.17-1.71-6.17-1.71l2.56 5.52s.44.11 3.05.48a5.6 5.6 0 0 0 1.22 0" style="stroke: #003369;"/><path fill="none" stroke="#003369" stroke-linecap="round" stroke-linejoin="round" stroke-width="2" d="M38.32 31.24l-4.69 5.61s4.68 2 6.17 1.71a1.52 1.52 0 0 0 .44-.2M40.46 42.89c2-.15 3.63-2.32 4.65-3.7 1.22-1.65-.58-6.32-.58-6.32s-2.66 4.4-4.29 5.49" style="stroke: #003369;"/><path fill="none" stroke="#003369" stroke-linecap="round" stroke-linejoin="round" stroke-width="2" d="M38.32 31.24l6.21 1.63s-2.66 4.4-4.29 5.49" style="stroke: #003369;"/></svg>
