<?xml version="1.0" encoding="UTF-8"?>
<svg xmlns="http://www.w3.org/2000/svg" data-name="Layer 1" viewBox="0 0 64 64"><g fill="#00336a"><path d="M54.8 56.71a7 7 0 0 1-3.55-13l1 1.72a5 5 0 1 0 2.54-.69h-.15l-.06-2h.21a7 7 0 0 1 0 14zM9.2 56.71a7 7 0 1 1 6.8-8.79l-1.93.54a5.13 5.13 0 0 0-4.87-3.75 5 5 0 1 0 4.87 6.16l1.94.46a7 7 0 0 1-6.81 5.38z" style="fill: #003369;"/><path d="M18.79 48.39a9.49 9.49 0 0 0-9.59-8.48v-2a11.47 11.47 0 0 1 11.58 10.26zM41.663 47.764L48.78 36.21l1.703 1.049-7.117 11.554zM34.65 7.29h16.18v2H34.65z" style="fill: #003369;"/></g><path fill="#00336a" d="M44.26 52.05H9.58a2.42 2.42 0 0 1 0-4.83h34.68a2.42 2.42 0 1 1 0 4.83zM9.58 49.22a.41.41 0 0 0-.41.42.41.41 0 0 0 .41.41h34.68a.41.41 0 0 0 .42-.41.42.42 0 0 0-.42-.42zM43.445 8.89l1.92-.556L55.52 43.466l-1.922.555z" style="fill: #003369;"/><path fill="#00336a" d="M54.64 51.57a2.42 2.42 0 0 1-2.32-1.75L40.51 8.88l1.93-.56 11.81 41a.41.41 0 0 0 .19.24.4.4 0 0 0 .32 0 .38.38 0 0 0 .25-.2.43.43 0 0 0 0-.32L53.6 44l1.92-.56 1.45 5a2.43 2.43 0 0 1-1.65 3 2.24 2.24 0 0 1-.68.13z" style="fill: #003369;"/></svg>
