<?xml version="1.0" encoding="UTF-8"?>
<svg xmlns="http://www.w3.org/2000/svg" data-name="Layer 1" viewBox="0 0 64 64"><g fill="#00336a"><path d="M54.8 57.79a7 7 0 1 1 7-7 7 7 0 0 1-7 7zm0-12a5 5 0 1 0 5 5 5 5 0 0 0-5-5zM9.2 57.79a7 7 0 1 1 7-7 7 7 0 0 1-7 7zm0-12a5 5 0 1 0 5 5 5 5 0 0 0-5-5z" style="fill: #003369;"/><path d="M42.7 50.59H19l-.1-.89A9.77 9.77 0 0 0 9.2 41v-2a11.76 11.76 0 0 1 11.54 9.6h21l8.56-11.69 1.61 1.18zM44.13 10.19h6.52v2h-6.52z" style="fill: #003369;"/></g><path fill="#00336a" d="M42.614 7.458l1.94-.486L55.355 50.1l-1.94.486z" style="fill: #003369;"/></svg>
