<?xml version="1.0" encoding="UTF-8"?>
<svg xmlns="http://www.w3.org/2000/svg" aria-describedby="desc" aria-labelledby="title" viewBox="0 0 64 64"><path fill="none" stroke="#003369" stroke-miterlimit="10" stroke-width="2" d="M36.651 31.653l15.675-15.675 5.245-.983L62 5l-2-2-10.243 4.18-1.029 5.292-15.629 15.629" data-name="layer2" style="stroke: #003369;"/><path fill="none" stroke="#003369" stroke-miterlimit="10" stroke-width="2" d="M15.584 59.761L29.16 46.184a7.474 7.474 0 0 0 2.1-4.152l6.557-4.548a2.7 2.7 0 0 0 .438-4.229L31.5 26.5a2.7 2.7 0 0 0-4.229.438l-4.493 6.477a7.477 7.477 0 0 0-4.278 2.113L4.928 49.1a7.535 7.535 0 0 0 10.656 10.661z" data-name="layer1" style="stroke: #003369;"/></svg>
