<?xml version="1.0" encoding="UTF-8"?>
<svg xmlns="http://www.w3.org/2000/svg" aria-describedby="desc" aria-labelledby="title" viewBox="0 0 64 64"><path fill="none" stroke="#003369" stroke-miterlimit="10" stroke-width="2" d="M38 50H2s0-6 7-8 9-4.4 9-6v-2a61.4 61.4 0 0 1-12-2c3.3-3.3 6-4.3 6-18 0-6 3.7-11.6 10-11.6s14 0 14 11.6c0 13.7 2.7 14.7 6 18a61.7 61.7 0 0 1-12 2v2c0 1.6 1.1 3.7 9 6a9.9 9.9 0 0 1 5 3" data-name="layer2" style="stroke: #003369;"/><path fill="none" stroke="#003369" stroke-miterlimit="10" stroke-width="2" d="M38 46h24v16H38zm6 0V36a6 6 0 0 1 6-6 6 6 0 0 1 6 6v10m-6 6v4" data-name="layer1" style="stroke: #003369;"/></svg>
