<?xml version="1.0" encoding="UTF-8"?>
<svg xmlns="http://www.w3.org/2000/svg" aria-describedby="desc" aria-labelledby="title" viewBox="0 0 64 64"><path fill="none" stroke="#003369" stroke-miterlimit="10" stroke-width="2" d="M38 42H4.4A2.4 2.4 0 0 1 2 39.6V12.4A2.4 2.4 0 0 1 4.4 10h43.2a2.4 2.4 0 0 1 2.4 2.4V22M2 18h48m-39.9 8H26m-16 8h7" data-name="layer2" style="stroke: #003369;"/><path fill="none" stroke="#003369" stroke-miterlimit="10" stroke-width="2" d="M38 38h24v16H38zm6 0V28a6 6 0 0 1 6-6 6 6 0 0 1 6 6v10m-6 6v4" data-name="layer1" style="stroke: #003369;"/></svg>
