<?xml version="1.0" encoding="UTF-8"?>
<svg xmlns="http://www.w3.org/2000/svg" viewBox="0 0 64 64"><path fill="#003369" d="M6.69 54.82H2.13c-.55 0-1-.45-1-1V10.18c0-.55.45-1 1-1h4.56c.55 0 1 .45 1 1v43.64c0 .55-.45 1-1 1zm-3.56-2h2.56V11.18H3.13v41.64zM61.87 54.82h-4.56c-.55 0-1-.45-1-1V10.18c0-.55.45-1 1-1h4.56c.55 0 1 .45 1 1v43.64c0 .55-.45 1-1 1zm-3.56-2h2.56V11.18h-2.56v41.64z" style="fill: #003369;"/><path fill="#003369" d="M6.69 17.01H57.3v2H6.69zM6.69 30.43H57.3v2H6.69zM6.69 43.85H57.3v2H6.69z" style="fill: #003369;"/><g fill="#003369"><path d="M12.372 16.01l1.373-1.454 5.773 5.451-1.373 1.455z" style="fill: #003369;"/><path d="M12.446 20.11l5.607-5.608 1.415 1.415-5.608 5.607z" style="fill: #003369;"/></g><g fill="#003369"><path d="M28.422 16.01l1.373-1.453 5.773 5.451-1.373 1.454z" style="fill: #003369;"/><path d="M28.488 20.108l5.607-5.608 1.415 1.415-5.608 5.607z" style="fill: #003369;"/></g><g fill="#003369"><path d="M44.434 16.01l1.373-1.453 5.773 5.451-1.373 1.454z" style="fill: #003369;"/><path d="M44.489 20.107l5.607-5.607 1.414 1.414-5.607 5.607z" style="fill: #003369;"/></g><g fill="#003369"><path d="M12.38 29.434l1.372-1.454 5.773 5.451-1.373 1.454z" style="fill: #003369;"/><path d="M12.445 33.529l5.608-5.607 1.414 1.414-5.607 5.607z" style="fill: #003369;"/></g><g fill="#003369"><path d="M28.429 29.435l1.373-1.454 5.773 5.451-1.373 1.454z" style="fill: #003369;"/><path d="M28.487 33.527l5.608-5.607 1.414 1.414-5.607 5.607z" style="fill: #003369;"/></g><g fill="#003369"><path d="M44.441 29.425l1.373-1.454 5.773 5.451-1.373 1.454z" style="fill: #003369;"/><path d="M44.498 33.526l5.608-5.607 1.414 1.414-5.608 5.607z" style="fill: #003369;"/></g><g fill="#003369"><path d="M12.386 42.848l1.374-1.454 5.772 5.451L18.16 48.3z" style="fill: #003369;"/><path d="M12.445 46.948l5.607-5.607 1.414 1.414-5.607 5.608z" style="fill: #003369;"/></g><g fill="#003369"><path d="M28.426 42.849l1.373-1.454 5.773 5.451-1.373 1.454z" style="fill: #003369;"/><path d="M28.487 46.946l5.607-5.607 1.414 1.414-5.607 5.608z" style="fill: #003369;"/></g><g fill="#003369"><path d="M44.438 42.849l1.373-1.455 5.773 5.452-1.373 1.454z" style="fill: #003369;"/><path d="M44.498 46.946l5.607-5.608 1.414 1.415-5.607 5.607z" style="fill: #003369;"/></g></svg>
