<?xml version="1.0" encoding="UTF-8"?>
<svg xmlns="http://www.w3.org/2000/svg" viewBox="0 0 64 64"><path fill="#1d3763" d="M6.69 54.82H2.13c-.55 0-1-.45-1-1V10.18c0-.55.45-1 1-1h4.56c.55 0 1 .45 1 1v43.64c0 .55-.45 1-1 1zm-3.56-2h2.56V11.18H3.13v41.64zM34.28 54.82h-4.56c-.55 0-1-.45-1-1V10.18c0-.55.45-1 1-1h4.56c.55 0 1 .45 1 1v43.64c0 .55-.45 1-1 1zm-3.56-2h2.56V11.18h-2.56v41.64z" style="fill: #003369;"/><path fill="#1d3763" d="M6.69 11.99h23.02v2H6.69zM6.69 21.01h23.02v2H6.69z" style="fill: #003369;"/><g fill="#1d3763"><path d="M9.495 10.987l1.373-1.454 5.773 5.452-1.373 1.454z" style="fill: #003369;"/><path d="M9.563 15.084l5.607-5.608 1.414 1.414-5.607 5.608z" style="fill: #003369;"/></g><path fill="#1d3763" d="M6.69 24.75h23.02v2H6.69zM6.69 50.98H57.3v2H6.69z" style="fill: #003369;"/><path fill="#1d3763" d="M61.87 54.82h-4.56c-.55 0-1-.45-1-1V10.18c0-.55.45-1 1-1h4.56c.55 0 1 .45 1 1v43.64c0 .55-.45 1-1 1zm-3.56-2h2.56V11.18h-2.56v41.64z" style="fill: #003369;"/><path fill="#1d3763" d="M34.28 11.99H57.3v2H34.28zM34.28 21.01H57.3v2H34.28zM34.28 24.75H57.3v2H34.28zM6.69 28.52h23.02v2H6.69zM34.28 28.52H57.3v2H34.28zM6.69 32.22h23.02v2H6.69zM34.28 32.22H57.3v2H34.28zM6.69 36.09h23.02v2H6.69zM6.69 39.82h23.02v2H6.69zM34.28 36.09H57.3v2H34.28zM34.28 39.82H57.3v2H34.28zM6.69 43.6h23.02v2H6.69zM34.28 43.6H57.3v2H34.28zM6.69 47.3h23.02v2H6.69zM34.28 47.3H57.3v2H34.28z" style="fill: #003369;"/><g fill="#1d3763"><path d="M19.273 10.984l1.373-1.454 5.773 5.451-1.373 1.455z" style="fill: #003369;"/><path d="M19.331 15.085l5.608-5.607 1.414 1.414-5.607 5.607z" style="fill: #003369;"/></g><g fill="#1d3763"><path d="M37.34 10.986l1.373-1.454 5.772 5.452-1.373 1.454z" style="fill: #003369;"/><path d="M37.399 15.088l5.607-5.608 1.414 1.415-5.607 5.607z" style="fill: #003369;"/></g><g fill="#1d3763"><path d="M47.107 10.983l1.373-1.454 5.773 5.451-1.373 1.454z" style="fill: #003369;"/><path d="M47.167 15.09l5.608-5.608 1.414 1.414-5.608 5.607z" style="fill: #003369;"/></g></svg>
