<?xml version="1.0" encoding="UTF-8"?>
<svg xmlns="http://www.w3.org/2000/svg" data-name="Layer 1" viewBox="0 0 64 64"><path fill="none" stroke="#003369" stroke-miterlimit="10" stroke-width="2" d="M54.13 45c-.08.14-.23.43-.44.32a.59.59 0 0 1-.17-.18 3.71 3.71 0 0 1-.82-1.69 2.65 2.65 0 0 1 .3-1.31 3.18 3.18 0 0 1 .69-1 .22.22 0 0 1 .15-.08.25.25 0 0 1 .17.1 3.1 3.1 0 0 1 .91 1.68 2.59 2.59 0 0 1-.16 1.23 3.51 3.51 0 0 1-.8 1.27M60.64 48.83c.12.12.36.34.2.51a.59.59 0 0 1-.22.12 4 4 0 0 1-1.85.34 2.68 2.68 0 0 1-1.23-.6 3.06 3.06 0 0 1-.79-.93c0-.06-.06-.11 0-.17s.08-.11.14-.14a3.14 3.14 0 0 1 1.86-.43 2.51 2.51 0 0 1 1.14.48 3.5 3.5 0 0 1 1 1.11M53.74 48.37c.17 0 .49 0 .51.19a.52.52 0 0 1 0 .24 3.73 3.73 0 0 1-1 1.61 2.66 2.66 0 0 1-1.27.53 3.13 3.13 0 0 1-1.22 0 .18.18 0 0 1-.16-.27 3.06 3.06 0 0 1 .89-1.67 2.55 2.55 0 0 1 1.12-.54 3.61 3.61 0 0 1 1.5 0M60.63 42.36c.11.12.35.34.2.51a.59.59 0 0 1-.22.12 3.74 3.74 0 0 1-1.85.34 2.5 2.5 0 0 1-1.23-.6 3.24 3.24 0 0 1-.8-.93.32.32 0 0 1 0-.16.29.29 0 0 1 .14-.15 3.14 3.14 0 0 1 1.86-.42 2.53 2.53 0 0 1 1.15.47 3.86 3.86 0 0 1 1 1.11M52.31 37.62c.13.1.41.27.28.47a.47.47 0 0 1-.19.15 3.76 3.76 0 0 1-1.76.66 2.68 2.68 0 0 1-1.32-.37 3.09 3.09 0 0 1-.94-.78.21.21 0 0 1-.07-.16c0-.07.06-.12.11-.16a3.16 3.16 0 0 1 1.76-.75 2.68 2.68 0 0 1 1.21.27 3.7 3.7 0 0 1 1.2.92" style="stroke: #003369;"/><path fill="none" stroke="#003369" stroke-linejoin="round" stroke-width="2" d="M54.17 29.1a5.35 5.35 0 0 0-5.75 4.27 5.3 5.3 0 0 0-2.57.28 5.16 5.16 0 0 0-3.2 6.57 5 5 0 0 0 2.26 2.64 5 5 0 0 0 0 3.48v.11L15.69 57.1 3.11 22.56l43-15.66z" style="stroke: #003369;"/><path fill="none" stroke="#003369" stroke-miterlimit="10" stroke-width="2" d="M24.35 41.74S17.85 30.23 36 18.26c0 0 10.21 11.74-11.65 23.48zM32.25 26.86s-6.94 9.91-9.47 19.83" style="stroke: #003369;"/></svg>
