<?xml version="1.0" encoding="UTF-8"?>
<svg xmlns="http://www.w3.org/2000/svg" data-name="Layer 1" viewBox="0 0 64 64"><path fill="none" stroke="#003369" stroke-linejoin="round" stroke-width="2" d="M17.17 16.1a3.89 3.89 0 0 1 .84-.65M22.51 12.71a3.92 3.92 0 0 1 .83-.65M32.65 11.74a3.89 3.89 0 0 1 .84-.65M42.28 13.59a3.68 3.68 0 0 1 .83-.65M22.09 17.72a3.73 3.73 0 0 1 .84-.64M26.53 13.91a3.89 3.89 0 0 1 .84-.65M36.79 13.91a3.89 3.89 0 0 1 .84-.65M26.53 19.27a3.89 3.89 0 0 1 .84-.65M31.4 16.42a3.76 3.76 0 0 1 .83-.64M30.92 20.93a3.89 3.89 0 0 1 .84-.65M36.37 18.94a4.08 4.08 0 0 1 .84-.64M42.69 17.49a3.89 3.89 0 0 1 .84-.65M47.43 16a3.68 3.68 0 0 1 .83-.65M29.1 24.51v29.23M31.75 24.65l.02 29.34M34.89 24.11v29.34M57.19 17.85v29.38M4.26 16.72l27.49 7.93M4.33 23.3l6.69 1.94M4.26 31.33l14.37 4.15M4.26 39.89l27.51 7.95M59.74 16.57l-27.99 8.07M48.44 26.41l-16.67 4.85M59.64 31.2l-27.87 8.08M42.51 44.73l-10.74 3.11" style="stroke: #003369;"/><path fill="none" stroke="#003369" stroke-linejoin="round" stroke-width="2" d="M59.73 16.57v29.38l-27.96 8.04-27.51-7.9V16.72M4.26 16.72l7.21-1.45M59.74 16.57l-8.3-1.59" style="stroke: #003369;"/><path fill="none" stroke="#003369" stroke-linejoin="round" stroke-width="2" d="M8.58 17.81C13 13.17 21.71 10 31.77 10s18.85 3.25 23.28 7.8M15.83 26.64l16.01 4.64M21.15 36.21l10.62 3.07M59.64 23.15l-9.25 2.69M59.64 39.76l-12.85 3.72M59.64 39.76l-27.87 8.08" style="stroke: #003369;"/></svg>
