<?xml version="1.0" encoding="UTF-8"?>
<svg xmlns="http://www.w3.org/2000/svg" data-name="Layer 1" viewBox="0 0 64 64"><path fill="none" stroke="#003369" stroke-miterlimit="10" stroke-width="2" d="M14.35 29.65c5-5.19 9.16-6.33 16.25-7.48a31.27 31.27 0 0 1 15.25 1.46 44.93 44.93 0 0 1 8.24 3.65c1.74 1 5.33 2.73 4.07 5.29A6.56 6.56 0 0 1 56 34.74c-6.19 4.61-12.74 9.37-20.39 10.43-5.58.78-11.29-.51-16.49-2.69a38.39 38.39 0 0 1-12.5-8.15 2.93 2.93 0 0 1-1-1.77 3 3 0 0 1 1.17-2.15C12.31 24.83 19.17 20.16 27 18.93a31.17 31.17 0 0 1 15 1.58 44.52 44.52 0 0 1 15.76 9.4M38.2 37.91s6.06-1.09 9.92-3.57" style="stroke: #003369;"/></svg>
