<?xml version="1.0" encoding="UTF-8"?>
<svg xmlns="http://www.w3.org/2000/svg" viewBox="0 0 64 64"><path fill="none" stroke="#003369" stroke-miterlimit="10" stroke-width="2" d="M52.6 49.3l2.2-2.2c.3-.3.8-.5 1.3-.4 2.5.3 4.8-1.4 5.2-4 0 0 0 0 0 0v-.6-.4l-2.8 1.7c-.2.1-.4.1-.6 0l-1.1-.9c-.1-.1-.1-.2-.2-.2l-.3-1.3c-.1-.2 0-.5.2-.6l3.1-1.8c-2-1.6-4.9-1.4-6.5.6 0 0 0 0 0 0-.8 1-1.2 2.3-1 3.5 0 .5-.1.9-.5 1.3l-2.2 2.2M46.4 49.3l-2.2 2.2c-.3.3-.8.5-1.3.4h-.6c-2.5 0-4.6 2-4.6 4.6 0 0 0 0 0 0 0 .3 0 .5.1.8l3.1-2c.2-.1.4-.1.6 0l1.1.9c.1.1.1.2.2.3l.4 1.3c.1.2 0 .5-.2.6l-3.3 1.9c2.1 1.5 4.9 1.1 6.5-1 .6-.9 1-1.9.9-3V56c-.1-.5.1-1 .4-1.3l2.2-2.2" style="stroke: #003369;"/><path fill="none" stroke="#003369" stroke-miterlimit="10" stroke-width="2" d="M47.4 44c-.3-.3-.5-.8-.4-1.3.3-2.5-1.4-4.9-4-5.2 0 0 0 0 0 0h-1l1.7 2.8c.1.2.1.4 0 .6l-1 1.2c-.1.1-.2.1-.3.2l-1.3.3c-.2.1-.5 0-.6-.2l-1.8-3.1c-1.6 2-1.4 4.9.6 6.5 1 .8 2.3 1.2 3.5 1.1.5-.1 1 .1 1.3.4l2.2 2.2 3.1-3.1-2-2.4zM56.4 51.9h-.3c-.5.1-1-.1-1.3-.4l-2.2-2.2-3.1 3.1 2.2 2.2c.3.3.5.8.4 1.3v.6c0 2.5 2 4.6 4.5 4.6.3 0 .5 0 .8-.1l-2-3.1c-.1-.2-.1-.4 0-.6l.9-1.1c.1-.1.2-.1.2-.2l1.3-.4c.2-.1.5 0 .6.2l1.9 3.3c1.5-2 1.1-4.9-1-6.4-.7-.6-1.8-.9-2.9-.8h0zM49.5 52.4l3.1-3.1M49.5 46.2l-3.1 3.1" style="stroke: #003369;"/><path fill="none" stroke="#003369" stroke-width="2" d="M3 13.4l4.1-8.9c.3-.9 1.2-1.5 2.1-1.6h36.1c1 .1 1.8.7 2 1.6l4.3 8.9" style="stroke: #003369;"/><circle cx="10" cy="19.3" r="1.6" fill="none" stroke="#003369" stroke-width="2" style="stroke: #003369;"/><circle cx="10" cy="32.4" r="1.6" fill="none" stroke="#003369" stroke-width="2" style="stroke: #003369;"/><circle cx="10" cy="45.5" r="1.6" fill="none" stroke="#003369" stroke-width="2" style="stroke: #003369;"/><path fill="none" stroke="#003369" stroke-width="2" d="M35.1 45.5h-6.2 6.2M46.4 32.4H28.9h17.5M46.4 19.3H28.9h17.5M35.1 39H2.7v11.5c0 .9.7 1.6 1.6 1.6h30.8M51.9 14.4c0-.9-.7-1.6-1.6-1.6h-46c-.9 0-1.6.7-1.6 1.6h0v11.5h49.2V14.4zm-23 4.9h0z" style="stroke: #003369;"/><path fill="none" stroke="#003369" stroke-width="2" d="M51.9 36V25.9H2.7V39m42.6-6.6h0z" style="stroke: #003369;"/></svg>
