<?xml version="1.0" encoding="UTF-8"?>
<svg xmlns="http://www.w3.org/2000/svg" aria-describedby="desc" aria-labelledby="title" viewBox="0 0 64 64"><path fill="none" stroke="#003369" stroke-width="2" d="M58.6 49.1a11.8 11.8 0 0 0 .2-2.1 11.9 11.9 0 0 0-.2-2.3l3.1-1.7-4-6.9-3 1.8a18.2 18.2 0 0 0-3.7-2.2V32h-8v3.7a7.8 7.8 0 0 0-3.8 2.1L36.1 36 32 43l3 1.7a11.7 11.7 0 0 0-.2 2.3 11.9 11.9 0 0 0 .2 2.1L31.7 51l4 6.9 3.4-1.9a8.3 8.3 0 0 0 3.9 2.3V62h8v-3.7a19.2 19.2 0 0 0 3.8-2.3l3.2 2 4-7zM46.8 52a5 5 0 1 1 5-5 5 5 0 0 1-5 5z" data-name="layer2" style="stroke: #003369;"/><path fill="none" stroke="#003369" stroke-width="2" d="M33.5 50H4a2 2 0 0 1-2-2V4a2 2 0 0 1 2-2h48a2 2 0 0 1 2 2v33.4M46 26H30m16-16H30" data-name="layer1" style="stroke: #003369;"/><circle cx="11" cy="10" r="1" fill="none" stroke="#003369" stroke-width="2" data-name="layer1" style="stroke: #003369;"/><circle cx="11" cy="26" r="1" fill="none" stroke="#003369" stroke-width="2" data-name="layer1" style="stroke: #003369;"/><circle cx="11" cy="42" r="1" fill="none" stroke="#003369" stroke-width="2" data-name="layer1" style="stroke: #003369;"/><path fill="none" stroke="#003369" stroke-width="2" d="M54 18H2m41 16H2" data-name="layer1" style="stroke: #003369;"/></svg>
