<?xml version="1.0" encoding="UTF-8"?>
<svg xmlns="http://www.w3.org/2000/svg" aria-describedby="desc" aria-labelledby="title" viewBox="0 0 64 64"><path fill="none" stroke="#003369" stroke-miterlimit="10" stroke-width="2" d="M32.2 24H12M2 8h6l10 40h32l6.4-18.7" data-name="layer2" style="stroke: #003369;"/><circle cx="20" cy="56" r="4" fill="none" stroke="#003369" stroke-miterlimit="10" stroke-width="2" data-name="layer2" style="stroke: #003369;"/><circle cx="46" cy="56" r="4" fill="none" stroke="#003369" stroke-miterlimit="10" stroke-width="2" data-name="layer2" style="stroke: #003369;"/><circle cx="47" cy="19" r="5" fill="none" stroke="#003369" stroke-miterlimit="10" stroke-width="2" data-name="layer1" style="stroke: #003369;"/><path fill="none" stroke="#003369" stroke-miterlimit="10" stroke-width="2" d="M62 23l-3.4-2a11.8 11.8 0 0 0 .2-2.1 11.9 11.9 0 0 0-.2-2.3l3.1-1.6-4-7-3.2 1.8A11.1 11.1 0 0 0 51 7.7V4h-8v3.7a13 13 0 0 0-3.9 2.1L36 8l-4 7 3 1.7a11.7 11.7 0 0 0-.2 2.3 11.9 11.9 0 0 0 .2 2.1L31.7 23l4 6.9 3.3-1.8a13 13 0 0 0 4 2.2V34h8v-3.7a11.2 11.2 0 0 0 3.7-2.3l3.3 2z" data-name="layer1" style="stroke: #003369;"/></svg>
