<?xml version="1.0" encoding="UTF-8"?>
<svg xmlns="http://www.w3.org/2000/svg" data-name="Layer 1" viewBox="0 0 64 64"><path fill="none" stroke="#003369" stroke-miterlimit="10" stroke-width="2" d="M16.24 42.32c-4 0-4 2-8 2s-4-2-8-2m32 0c-4 0-4 2-8 2s-4-2-8-2m32 0c-4 0-4 2-8 2s-4-2-8-2m31.52 0c-4 0-4 2-8 2s-4-2-8-2M8.21 28.19h2M12 28.19h2M16.67 36.43v-6.55l2.26-.95v-4.11H4.56v3.88l.73.95v6.22" style="stroke: #003369;"/><path fill="none" stroke="#003369" stroke-miterlimit="10" stroke-width="2" d="M5.68 44L3.2 40.11v-5.27h11.41l2.19 1.59h32l2.79-2.68h9.71l-6.84 10M9.21 25.53v-5.85M58.34 28.18v5.59M54.71 30.32v3.45M22.62 32.55h25V30s-3.81-.18-9.76-.37a46.48 46.48 0 0 1-9.29-1.08L22.62 30zM22.61 26.6h25v-2.55s-3.81-.18-9.76-.37a46.13 46.13 0 0 1-9.29-1.07l-5.9 1.44z" style="stroke: #003369;"/></svg>
