<?xml version="1.0" encoding="UTF-8"?>
<svg xmlns="http://www.w3.org/2000/svg" viewBox="0 0 44.16 60.23"><g fill="none" stroke="#1d3768" stroke-miterlimit="10" stroke-width="1.24"><path d="M31.71 6.23v-.1c0-.65.2-1.29.56-1.84.23-.37.36-.79.38-1.23 0-.44-.14-.86-.38-1.23-.37-.54-.56-1.18-.56-1.84m2.6 6.23v-.1c0-.65.2-1.29.56-1.84.23-.37.37-.79.39-1.23-.01-.44-.14-.86-.39-1.23-.36-.54-.56-1.18-.56-1.84M9.22 22.53h3.37v3.37H9.22v-3.37zm7.35 0h3.37v3.37h-3.37v-3.37zm11.08 0h3.37v3.37h-3.37v-3.37zm7.35 0h3.37v3.37H35v-3.37z" style="fill: #003369;"/><path d="M14.57 17.3v-4.31L5.36 17.3v18.43h18.43V12.99l-9.22 4.31zm9.22 1.53h18.43v16.89H23.79V18.83zm11.67 0V8.08h-4.92v10.75" style="fill: #003369;"/><path d="M36.84 35.73v-5.37h-7.68v5.37" style="fill: #003369;"/></g><text fill="#1d3767" font-family="Arial-BoldMT,Arial" font-size="11.82" transform="translate(0 55.78)"><tspan x="0" y="0">Shipper</tspan></text></svg>
