<?xml version="1.0" encoding="UTF-8"?>
<svg xmlns="http://www.w3.org/2000/svg" data-name="Layer 1" viewBox="0 0 64 64"><path fill="none" stroke="#003369" stroke-miterlimit="10" stroke-width="2" d="M16.24 42.32c-4 0-4 2-8 2s-4-2-8-2m32 0c-4 0-4 2-8 2s-4-2-8-2m32 0c-4 0-4 2-8 2s-4-2-8-2m31.52 0c-4 0-4 2-8 2s-4-2-8-2M7.21 28.19h2M11 28.19h2M15.67 35.4v-5.52l2.26-.95v-4.11H3.56v3.88l.73.95v6.22" style="stroke: #003369;"/><path fill="none" stroke="#003369" stroke-miterlimit="10" stroke-width="2" d="M5.68 44L3.2 40.11v-5.27h11.41l2.19 1.59h32l2.79-2.68h9.71l-6.84 10M8.21 25.53v-5.85M58.34 28.18v5.59M54.71 30.32v3.45M21.62 29.45h26.62M21.62 32.83h26.62M21.62 22.7h26.62M21.62 26.07h26.62" style="stroke: #003369;"/></svg>
