<?xml version="1.0" encoding="UTF-8"?>
<svg xmlns="http://www.w3.org/2000/svg" data-name="Layer 1" viewBox="0 0 64 64"><path fill="none" stroke="#003369" stroke-miterlimit="10" stroke-width="2" d="M18 47.31c-4 0-4 2-8 2s-4-2-8-2m32 0c-4 0-4 2-8 2s-4-2-8-2m32 0c-4 0-4 2-8 2s-4-2-8-2m28 1a7.77 7.77 0 0 1-4 1c-4 0-4-2-8-2" style="stroke: #003369;"/><path fill="none" stroke="#003369" stroke-miterlimit="10" stroke-width="2" d="M54.63 48.61c2.41 0 7.3-15.16 7.34-15.32a1 1 0 0 0-.18-.85 1 1 0 0 0-.79-.39h-9a1 1 0 0 0-1 .76s-.86 3.24-3 3.24H3a1 1 0 0 0-1 1c0 2.58 1.31 11.26 5.79 12m-3.49-13v-9.84h8.37v9.84m3.61-7.94h10v4h-10zm18 7.94h0v-4h0m10 4h0v-4h0m-10-4h10v4h-10z" style="stroke: #003369;"/><path fill="none" stroke="#003369" stroke-miterlimit="10" stroke-width="2" d="M16.78 28.11l4.59-4.59 4.75 4.75" style="stroke: #003369;"/><path fill="none" stroke="#003369" stroke-miterlimit="10" stroke-width="2" d="M10.1 26.21l11.52-11.52v8.83M54.88 36.16h2" style="stroke: #003369;"/></svg>
