<?xml version="1.0" encoding="UTF-8"?>
<svg xmlns="http://www.w3.org/2000/svg" data-name="Layer 1" viewBox="0 0 64 64"><path fill="none" stroke="#003369" stroke-miterlimit="10" stroke-width="2" d="M17.84 42.63c-4 0-4 2-8 2s-4-2-8-2m32 0c-4 0-4 2-8 2s-4-2-8-2m32 0c-4 0-4 2-8 2s-4-2-8-2m28 1a7.87 7.87 0 0 1-4 1c-4 0-4-2-8-2" style="stroke: #003369;"/><path fill="none" stroke="#003369" stroke-miterlimit="10" stroke-width="2" d="M54.47 43.93c2.41 0 7.3-15.16 7.34-15.32a1.06 1.06 0 0 0-.18-.86 1 1 0 0 0-.79-.38h-9a1 1 0 0 0-1 .75s-.86 3.25-3 3.25h-45a1 1 0 0 0-1 1c0 2.58 1.31 11.26 5.79 12m6.51-17h10v4h-10zm10 0h10v4h-10zm-10-4h10v4h-10zm-10 4h10v4h-10zm0-4h10v4h-10zm10-4h10v4h-10zm-10 0h10v4h-10zm20 4h10v4h-10zm10 8h0v-4h0m10 4h0v-4h0m-10-4h10v4h-10zM55 31.07h2" style="stroke: #003369;"/></svg>
