<?xml version="1.0" encoding="UTF-8"?>
<svg xmlns="http://www.w3.org/2000/svg" aria-describedby="desc" aria-labelledby="title" viewBox="0 0 64 64"><path fill="none" stroke="#003369" stroke-miterlimit="10" stroke-width="2" d="M38 8.4A20 20 0 0 1 54 28v2m-44 0v-2A20 20 0 0 1 26 8.4M38 8a4 4 0 0 1-4 4h-4a4 4 0 0 1-4-4 4 4 0 0 1 4-4h4a4 4 0 0 1 4 4z" data-name="layer2" style="stroke: #003369;"/><path fill="none" stroke="#003369" stroke-miterlimit="10" stroke-width="2" d="M32 38v14M20 38v14m24-14v14M6.1 30L12 60h40l6-30M2 30h60" data-name="layer1" style="stroke: #003369;"/></svg>
