<?xml version="1.0" encoding="UTF-8"?>
<svg xmlns="http://www.w3.org/2000/svg" aria-describedby="desc" aria-labelledby="title" viewBox="0 0 64 64"><path fill="none" stroke="#003369" stroke-miterlimit="10" stroke-width="2" d="M47.9 13.5h-.5a15.8 15.8 0 0 0-30.1 4.2 10.1 10.1 0 0 0-3-.5 10.4 10.4 0 0 0 0 20.8h33.6a12.3 12.3 0 0 0 0-24.5z" data-name="layer2" style="stroke: #003369;"/><path fill="none" stroke="#003369" stroke-miterlimit="10" stroke-width="2" d="M18 46v4m2-2h-4m18 0h-4m2 2v-4m-5 12h-4m2 2v-4m15 0v4m2-2h-4m8-12v4m2-2h-4" data-name="layer1" style="stroke: #003369;"/></svg>
