<?xml version="1.0" encoding="UTF-8"?>
<svg xmlns="http://www.w3.org/2000/svg" aria-describedby="desc" aria-labelledby="title" viewBox="0 0 64 64"><circle cx="32" cy="39" r="7" fill="none" stroke="#003369" stroke-miterlimit="10" stroke-width="2" data-name="layer2" style="stroke: #003369;"/><path fill="none" stroke="#003369" stroke-miterlimit="10" stroke-width="2" d="M32 46a12.1 12.1 0 0 0-12 12v2h24v-2a12.1 12.1 0 0 0-12-12z" data-name="layer2" style="stroke: #003369;"/><circle cx="52" cy="10" r="6" fill="none" stroke="#003369" stroke-miterlimit="10" stroke-width="2" data-name="layer2" style="stroke: #003369;"/><path fill="none" stroke="#003369" stroke-miterlimit="10" stroke-width="2" d="M62 28c0-7.5-4.5-12-10-12s-10 4.5-10 12z" data-name="layer2" style="stroke: #003369;"/><circle cx="12" cy="10" r="6" fill="none" stroke="#003369" stroke-miterlimit="10" stroke-width="2" data-name="layer2" style="stroke: #003369;"/><path fill="none" stroke="#003369" stroke-miterlimit="10" stroke-width="2" d="M22 28c0-7.5-4.5-12-10-12S2 20.5 2 28z" data-name="layer2" style="stroke: #003369;"/><path fill="none" stroke="#003369" stroke-miterlimit="10" stroke-width="2" d="M12 34l8 8m32-8l-8 8M24 14h16" data-name="layer1" style="stroke: #003369;"/></svg>
