<?xml version="1.0" encoding="UTF-8"?>
<svg xmlns="http://www.w3.org/2000/svg" data-name="Layer 1" viewBox="0 0 64 64"><circle cx="16.57" cy="17.2" r="5.9" fill="none" stroke="#00336a" stroke-miterlimit="10" stroke-width="2" style="stroke: #003369;"/><path fill="none" stroke="#00336a" stroke-miterlimit="10" stroke-width="2" d="M16.57 4.55v3.37m0 18.56v3.37M29.22 17.2h-3.37m-18.56 0H3.91m3.72-8.94L10 10.62m13.15 13.16l2.36 2.36m0-17.88l-2.36 2.36M10 23.78l-2.37 2.36M43.94 53.4H16.57l10.59-19.95 5.56-10.47h27.37L43.94 53.4zM54.53 33.45H27.16M49.22 43.45H22.03M46.4 22.98L30.25 53.4M33.87 59.34V53.4M50.4 59.34V41.22M23.07 59.45h36.12" style="stroke: #003369;"/></svg>
