<?xml version="1.0" encoding="UTF-8"?>
<svg xmlns="http://www.w3.org/2000/svg" data-name="Layer 1" viewBox="0 0 64 64"><path fill="none" stroke="#00336a" stroke-width="2" d="M58.09 23.16l3.92.55M30.36 19.29l3.92.55M53.43 31.09l2.38 3.16M36.55 8.75l2.39 3.15M48.39 5.67l-.54 3.92M58.94 11.87l-3.16 2.38" style="stroke: #003369;"/><path fill="none" stroke="#00336a" stroke-width="1.92" d="M38.7 22.94a8.28 8.28 0 0 1-.1-1.23 7.55 7.55 0 1 1 7.55 7.5" style="stroke: #003369;"/><path fill="none" stroke="#00336a" stroke-miterlimit="10" stroke-width="2" d="M19.75 52.73H7.93L1.99 22.96h11.82l5.94 29.77z" style="stroke: #003369;"/><path fill="none" stroke="#00336a" stroke-miterlimit="10" stroke-width="2" d="M7.9 22.96l5.94 29.77v5.6M3.36 29.84h11.82M4.93 37.67h11.82M6.49 45.51h11.82M35.17 52.73H23.35l-5.94-29.77h11.82l5.94 29.77z" style="stroke: #003369;"/><path fill="none" stroke="#00336a" stroke-miterlimit="10" stroke-width="2" d="M23.32 22.96l5.94 29.77v5.6M18.78 29.84H30.6M20.35 37.67h11.82M21.91 45.51h11.82M50.52 52.73H38.7l-5.94-29.77h11.82l5.94 29.77z" style="stroke: #003369;"/><path fill="none" stroke="#00336a" stroke-miterlimit="10" stroke-width="2" d="M38.67 22.96l5.94 29.77v5.6M34.13 29.84h11.82M35.69 37.67h11.83M37.26 45.51h11.82M3.36 58.33h51.09" style="stroke: #003369;"/></svg>
