<?xml version="1.0" encoding="UTF-8"?>
<svg xmlns="http://www.w3.org/2000/svg" data-name="Layer 1" viewBox="0 0 64 64"><path fill="none" stroke="#00336a" stroke-miterlimit="10" stroke-width="2" d="M39.32 44v16.44M47.64 35.37v25.07M53.9 60.59H33.07M28.9 24l5.4-3.84a4.06 4.06 0 0 1 2.38-.76h22a1.92 1.92 0 0 1 1.78 1.18 1.94 1.94 0 0 1-.4 2.1L33.58 49.9a3 3 0 0 1-2.09.88 3 3 0 0 1-1-.17L7.65 42.37a1.68 1.68 0 0 1-.41-2.95l21.53-15.29M17.42 45.6l29.2-26.16M29.51 23.53l27.5 2.32M23.41 27.97l26.8 4.86M15.81 33.41l26.87 7.15M12.19 23.81l.69 3.94M7.66 23.77a.85.85 0 0 1 0 .39l-.34 2M20.82 5.8l1.88-.68M21.95 10.19h4M21.5 14.69l1.88.69M19.55 18.78l3.06 2.57M16.31 21.94l1 1.74M15.19 3.41A9.93 9.93 0 0 1 19 11.19 10 10 0 0 1 3.39 19.5" style="stroke: #003369;"/></svg>
