<?xml version="1.0" encoding="UTF-8"?>
<svg xmlns="http://www.w3.org/2000/svg" data-name="Layer 1" viewBox="0 0 64 64"><circle cx="15.55" cy="15.14" r="5.9" fill="none" stroke="#00336a" stroke-miterlimit="10" stroke-width="2" style="stroke: #003369;"/><path fill="none" stroke="#00336a" stroke-miterlimit="10" stroke-width="2" d="M15.55 2.49v3.37m0 18.56v3.37m12.66-12.65h-3.38m-18.56 0H2.9M6.61 6.2L9 8.56m13.13 13.16l2.37 2.36m0-17.88l-2.37 2.36M9 21.72l-2.39 2.36M39.81 44.92v16.44M48.13 36.29v25.07M54.38 61.51H33.56M29.39 25l5.4-3.84a4.06 4.06 0 0 1 2.38-.76h22a1.93 1.93 0 0 1 1.38 3.28L34.07 50.82a3 3 0 0 1-2.07.88 3 3 0 0 1-1-.17L8.13 43.29a1.68 1.68 0 0 1-.4-2.95l21.53-15.29m0 0l.13-.09M17.91 46.52l29.2-26.16M30 24.45l27.49 2.32M23.9 28.89l26.8 4.86M16.3 34.33l26.87 7.15" style="stroke: #003369;"/></svg>
