<?xml version="1.0" encoding="UTF-8"?>
<svg xmlns="http://www.w3.org/2000/svg" data-name="Layer 1" viewBox="0 0 64 64"><path fill="none" stroke="#00336a" stroke-miterlimit="10" stroke-width="2" d="M19.77 55.4H7.94L2 25.64h11.82l5.95 29.76z" style="stroke: #003369;"/><path fill="none" stroke="#00336a" stroke-miterlimit="10" stroke-width="2" d="M7.91 25.64l5.95 29.76V61M3.37 32.51h11.82M4.94 40.35h11.82M6.5 48.18h11.82M35.19 55.4H23.36l-5.94-29.76h11.82l5.95 29.76z" style="stroke: #003369;"/><path fill="none" stroke="#00336a" stroke-miterlimit="10" stroke-width="2" d="M23.33 25.64l5.94 29.76V61M18.79 32.51h11.82M20.36 40.35h11.82M21.92 48.18h11.82M50.53 55.4H38.71l-5.94-29.76h11.82l5.94 29.76z" style="stroke: #003369;"/><path fill="none" stroke="#00336a" stroke-miterlimit="10" stroke-width="2" d="M38.68 25.64l5.94 29.76V61M34.14 32.51h11.82M35.7 40.35h11.83M37.27 48.18h11.82M3.37 61h51.09M53.2 23.41l-.69 3.94M57.73 23.36a.85.85 0 0 0 0 .39l.35 2M44.57 5.39l-1.88-.68M43.45 9.78h-4M43.89 14.29l-1.88.68M45.85 18.37l-3.07 2.57M49.08 21.54l-1 1.73M50.21 3a10 10 0 0 0 6.24 17.78A9.88 9.88 0 0 0 62 19.09" style="stroke: #003369;"/></svg>
