<?xml version="1.0" encoding="UTF-8"?>
<svg xmlns="http://www.w3.org/2000/svg" data-name="Layer 1" viewBox="0 0 64 64"><path fill="none" stroke="#00336a" stroke-width="2" d="M57.05 20.73l3.92.54M29.32 16.86l3.92.54M52.39 28.66l2.39 3.16M35.51 6.31l2.39 3.16M47.35 3.23l-.54 3.93M57.9 9.43l-3.16 2.39" style="stroke: #003369;"/><path fill="none" stroke="#00336a" stroke-miterlimit="3" stroke-width="2" d="M15.57 28.14l1.9-7.31H35.9l.68 7.62H25.52l.68-7.62m-.68 7.62l-.89 10.08h12.84l-.89-10.08m-23.53 9.13l2.17-8.17m.51-1.92l-.25 1h10m-10 0l-.26 1m-2.17 8.17l-.25 1m9.83 18.32l1.07-8.28m14.71.13l.67 8m-14.45-18.3H12.8L10 49.11h13.69l.94-10.58m12.84 0H49.3l-2.67-10.08H36.58m-.68-7.62h8.7l2 7.62m-9.13 10.08l.93 10.58h13.7l-2.8-10.58M23.69 49.11H38.4" style="stroke: #003369;"/><path fill="none" stroke="#00336a" stroke-width="1.92" d="M37.66 20.51a8.52 8.52 0 0 1-.1-1.24 7.55 7.55 0 1 1 8.38 7.5" style="stroke: #003369;"/><path fill="none" stroke="#00336a" stroke-miterlimit="3" stroke-width="2" d="M6.87 56.85h47.91" style="stroke: #003369;"/></svg>
