<?xml version="1.0" encoding="UTF-8"?>
<svg xmlns="http://www.w3.org/2000/svg" data-name="Layer 1" viewBox="0 0 64 64"><path fill="none" stroke="#00336a" stroke-miterlimit="10" stroke-width="2" d="M42.87 51.34H15.5l10.59-19.95 5.56-10.47h27.37L42.87 51.34zM53.46 31.39H26.09M48.15 41.39H20.96M45.34 20.92L29.18 51.34M32.8 57.28v-5.94M49.33 57.28V39.16M22 57.39h36.12M13.24 27.02l.7 3.94M8.72 27a1.07 1.07 0 0 1 0 .4l-.35 2M21.87 9l1.88-.68M23 13.39h4M22.56 17.9l1.88.68M20.6 21.98l3.07 2.57M17.37 25.15l1 1.73M16.24 6.61A10 10 0 0 1 4.44 22.7" style="stroke: #003369;"/></svg>
