<?xml version="1.0" encoding="UTF-8"?>
<svg xmlns="http://www.w3.org/2000/svg" aria-describedby="desc" aria-labelledby="title" viewBox="0 0 64 64"><circle cx="32" cy="22" r="4" fill="none" stroke="#003369" stroke-width="2" data-name="layer1" style="stroke: #003369;"/><path fill="none" stroke="#003369" stroke-width="2" d="M22 26h-3.1a2.9 2.9 0 0 0-2.9 2.9v12.2a2.9 2.9 0 0 1-2.4 2.9h-2.7A2.9 2.9 0 0 0 8 46.9V58h8m26-32h3.1a2.9 2.9 0 0 1 2.9 2.9v12.2a2.9 2.9 0 0 0 2.4 2.9H53a2.9 2.9 0 0 1 3 2.9V58h-8m-20 0h8m6-6V19.8C42 8.9 32 2 32 2S22 8.9 22 19.8V52" data-name="layer2" style="stroke: #003369;"/><path fill="none" stroke="#003369" stroke-width="2" d="M28 62v-4a6 6 0 1 0-12 0v4zm20 0v-4a6 6 0 1 0-12 0v4z" data-name="layer1" style="stroke: #003369;"/></svg>
