<?xml version="1.0" encoding="UTF-8"?>
<svg xmlns="http://www.w3.org/2000/svg" viewBox="0 0 36.93 66.25"><rect width="36.93" height="15.54" y="28.07" fill="#1d3767" rx="7.77" ry="7.77" style="fill: #003369;"/><text fill="#fff" font-family="Arial-BoldMT,Arial" font-size="11.82" transform="translate(6.42 40.01)"><tspan x="0" y="0">SPC</tspan></text><text fill="#1d3767" font-family="Arial-BoldMT,Arial" font-size="11.82" transform="translate(5.31 61.8)"><tspan x="0" y="0">xxxx</tspan></text><g fill="none" stroke="#1d3768" stroke-miterlimit="10" stroke-width=".75"><path d="M26.74 6.89v8.89c0 .33-.27.59-.59.59h-1.48c-.33 0-.59-.27-.59-.59v-4.53" style="fill: #003369;"/><path d="M21.5 10.15h.33c2.62-.3 2.95-3.26 2.95-3.26.03-.52.46-.91.98-.89.52-.03.96.37.98.89 0 .08-.01.15-.04.23-.76 4.81-5.2 4.81-5.2 4.81-.49 0-.89-.4-.89-.89s.4-.89.89-.89h0zM20.76 11.63h-5.01" style="fill: #003369;"/><path d="M14.67 9.9V5.7H22.37v4.45" style="fill: #003369;"/><path d="M20.44 7.19h-3.85V5.71h3.85v1.48z" style="fill: #003369;"/><circle cx="24.92" cy="2.9" r="2.53" style="fill: #003369;"/><path d="M9.49.67h5.17v1.78H9.49V.67zm0 2.07c.07 1.48 1.12 2.67 2.42 2.67s2.35-1.19 2.42-2.67v-.3m-1.58 8.8v4.53c0 .33-.27.59-.59.59h-1.48c-.33 0-.59-.27-.59-.59V6.89" style="fill: #003369;"/><path d="M16.21 10.85a.886.886 0 0 1-.89.89s-4.44 0-5.2-4.81c-.02-.08-.04-.15-.04-.23.03-.52.47-.91.99-.89.51-.02.95.37.98.89 0 0 .3 2.71 2.62 3.2.1.03.22.05.33.06h.32c.49 0 .89.4.89.89zM9.49 2.56v-.3h7.11" style="fill: #003369;"/></g></svg>
