<?xml version="1.0" encoding="UTF-8"?>
<svg xmlns="http://www.w3.org/2000/svg" data-name="Layer 1" viewBox="0 0 64 64"><path fill="none" stroke="#003369" stroke-miterlimit="10" stroke-width="2" d="M36.44 20.03V6.92M27.6 20.03V6.92M32.02 20.03V6.92M22.84 4.29h18.32v18.47H22.84zM36.44 38.51V25.4M27.6 38.51V25.4M32.02 38.51V25.4M22.84 22.77h18.32v18.47H22.84zM54.77 20.03V6.92M45.93 20.03V6.92M50.35 20.03V6.92M41.17 4.29h18.32v18.47H41.17zM54.77 38.51V25.4M45.93 38.51V25.4M50.35 38.51V25.4M41.17 22.77h18.32v18.47H41.17zM36.44 56.99V43.87M27.6 56.99V43.87M32.02 56.99V43.87M22.84 41.24h18.32v18.47H22.84zM18.1 38.51V25.4M9.26 38.51V25.4M13.68 38.51V25.4M4.5 22.77h18.32v18.47H4.5zM18.1 56.99V43.87M9.26 56.99V43.87M13.68 56.99V43.87M4.5 41.24h18.32v18.47H4.5zM54.77 56.99V43.87M45.93 56.99V43.87M50.35 56.99V43.87M41.17 41.24h18.32v18.47H41.17z" style="stroke: #003369;"/></svg>
