<?xml version="1.0" encoding="UTF-8"?>
<svg xmlns="http://www.w3.org/2000/svg" data-name="Layer 1" viewBox="0 0 64 64"><path fill="none" stroke="#003369" stroke-miterlimit="10" stroke-width="2" d="M17.84 51.59v-9.86M8.71 51.59v-9.86M13.27 51.59v-9.86M22.4 51.59v-9.86M26.97 51.59v-9.86M3.92 39.38h28.06v14.68H3.92zM45.94 51.59v-9.86M36.81 51.59v-9.86M41.38 51.59v-9.86M50.51 51.59v-9.86M55.08 51.59v-9.86M32.02 39.38h28.06v14.68H32.02zM17.84 36.89v-9.86M8.71 36.89v-9.86M13.27 36.89v-9.86M22.4 36.89v-9.86M26.97 36.89v-9.86M3.92 24.68h28.06v14.68H3.92zM45.94 36.89v-9.86M36.81 36.89v-9.86M41.38 36.89v-9.86M50.51 36.89v-9.86M55.08 36.89v-9.86M32.02 24.68h28.06v14.68H32.02zM45.94 22.15v-9.86M36.81 22.15v-9.86M41.38 22.15v-9.86M50.51 22.15v-9.86M55.08 22.15v-9.86M32.02 9.94h28.06v14.68H32.02z" style="stroke: #003369;"/></svg>
