<?xml version="1.0" encoding="UTF-8"?>
<svg xmlns="http://www.w3.org/2000/svg" data-name="Ebene 1" viewBox="0 0 64 64"><path fill="none" stroke="#003369" stroke-miterlimit="10" stroke-width="2" d="M28.25 8v6.59a2 2 0 0 0-1.58 2v2.13a.54.54 0 0 0 .54.54h8a.54.54 0 0 0 .54-.54v-2.13a2 2 0 0 0-1.58-2V8a.54.54 0 0 0-.54-.54h-4.84a.54.54 0 0 0-.54.54zM2 11.94l3.32 5.64A2 2 0 0 0 5 20.1l1 1.83a.56.56 0 0 0 .33.25h.13a.57.57 0 0 0 .28-.08l6.84-4.25a.56.56 0 0 0 .18-.73l-1.08-1.82a1.91 1.91 0 0 0-1.23-.92 1.86 1.86 0 0 0-1.12.06L7.05 8.83a.57.57 0 0 0-.34-.25.52.52 0 0 0-.4.07l-4.14 2.57a.52.52 0 0 0-.17.72zM48.8 17.13a.54.54 0 0 0 .18.73l6.84 4.25a.54.54 0 0 0 .28.08h.13a.56.56 0 0 0 .33-.25l1.08-1.83a2 2 0 0 0-.37-2.52l3.33-5.64a.54.54 0 0 0-.18-.72l-4.14-2.58a.54.54 0 0 0-.41-.07.52.52 0 0 0-.33.25l-3.31 5.62a1.89 1.89 0 0 0-1.13-.06 1.93 1.93 0 0 0-1.23.92zM47.34 55.33C47.19 57.54 40.65 60 31.29 60s-16.06-2.42-16.22-4.63l.54-1.21c1.78-1.87 7.72-3.59 15.68-3.59S45 52.24 46.79 54.1zM15.07 55.33l13.92-32.46M47.34 55.33L33.56 22.87M5.31 17.58l5.05-3.13M28.25 14.63h5.91M52.23 14.45l5.04 3.13M31.37 7.56V4.04" style="stroke: #003369;"/><path fill="none" stroke="#003369" stroke-miterlimit="10" stroke-width="2" d="M58.84 10.04l2.24-3v-3H2.75v3l1.32 3" style="stroke: #003369;"/></svg>
