<?xml version="1.0" encoding="UTF-8"?>
<svg xmlns="http://www.w3.org/2000/svg" data-name="Ebene 1" viewBox="0 0 64 64"><path fill="none" stroke="#003369" stroke-miterlimit="10" stroke-width="2" d="M16.02 54.21L50.75 21M28.75 8v6.59a2 2 0 0 0-1.58 2v2.13a.54.54 0 0 0 .54.54h8a.54.54 0 0 0 .54-.54v-2.13a2 2 0 0 0-1.58-2V8a.54.54 0 0 0-.54-.54h-4.84a.54.54 0 0 0-.54.54zM2.49 11.94l3.32 5.64a2.06 2.06 0 0 0-.36 2.52l1.08 1.83a.56.56 0 0 0 .33.25H7a.57.57 0 0 0 .28-.08l6.84-4.25a.55.55 0 0 0 .18-.73l-1.08-1.82a1.92 1.92 0 0 0-1.22-.91 1.89 1.89 0 0 0-1.13.06L7.55 8.83a.52.52 0 0 0-.33-.25.54.54 0 0 0-.41.07l-4.14 2.57a.52.52 0 0 0-.18.72zM49.3 17.13a.54.54 0 0 0 .18.73l6.84 4.25a.54.54 0 0 0 .28.08h.13a.56.56 0 0 0 .33-.25l1.08-1.83a2 2 0 0 0-.37-2.52l3.33-5.64a.54.54 0 0 0-.18-.72l-4.14-2.58a.54.54 0 0 0-.41-.07.52.52 0 0 0-.33.25l-3.31 5.62a1.89 1.89 0 0 0-1.13-.06 1.93 1.93 0 0 0-1.23.92zM47.84 55.33C47.69 57.54 41.15 60 31.79 60s-16.06-2.42-16.22-4.63l.54-1.21c1.78-1.87 7.72-3.59 15.68-3.59s13.73 1.71 15.5 3.57zM15.57 55.33l13.92-32.46M47.84 55.33L34.06 22.87M5.81 17.58l5.05-3.13M28.75 14.63h5.91M52.73 14.45l5.04 3.13M31.88 7.56V4.04" style="stroke: #003369;"/><path fill="none" stroke="#003369" stroke-miterlimit="10" stroke-width="2" d="M59.34 10.04l2.24-3v-3H3.25v3l1.32 3M53.75 22.87l-5.88 32.36" style="stroke: #003369;"/></svg>
