<?xml version="1.0" encoding="UTF-8"?>
<svg xmlns="http://www.w3.org/2000/svg" data-name="Ebene 1" viewBox="0 0 64 64"><path fill="none" stroke="#003369" stroke-miterlimit="10" stroke-width="2" d="M60.09 40.5V16.35A13.41 13.41 0 0 0 46.69 3H17.11A13.41 13.41 0 0 0 3.72 16.35V40.5M39.43 17.35v16.98" style="stroke: #003369;"/><path fill="none" stroke="#003369" stroke-miterlimit="10" stroke-width="2" d="M12.49 36.11v-25.2h3.32a2.53 2.53 0 0 0 2.35-1.26l1.3-2a1.45 1.45 0 0 1 1.21-.64h23.46a1.45 1.45 0 0 1 1.2.64l1.31 2A2.44 2.44 0 0 0 49 10.91h3.3v27M25.36 34.33V17.35" style="stroke: #003369;"/><path fill="none" stroke="#003369" stroke-miterlimit="10" stroke-width="2" d="M12.49 40.42v-3.76H23a2.37 2.37 0 0 0 2.35-2.19 18 18 0 0 0 14.08 0 2.35 2.35 0 0 0 2.34 2.19H52.3v3.76M61.98 40.42H2.15v3.12h18.83v1.71h22.59v-1.71h18.41v-3.12zM11.9 61v-3.15a2.58 2.58 0 0 0-2.57-2.57H4.59A2.57 2.57 0 0 0 2 57.85V61" style="stroke: #003369;"/><path fill="none" stroke="#003369" stroke-miterlimit="10" stroke-width="2" d="M21.77 61v-3.15a2.57 2.57 0 0 0-2.57-2.57h-4.73a2.57 2.57 0 0 0-2.57 2.57V61" style="stroke: #003369;"/><path fill="none" stroke="#003369" stroke-miterlimit="10" stroke-width="2" d="M31.64 61v-3.15a2.58 2.58 0 0 0-2.57-2.57h-4.74a2.57 2.57 0 0 0-2.57 2.57V61" style="stroke: #003369;"/><path fill="none" stroke="#003369" stroke-miterlimit="10" stroke-width="2" d="M41.51 61v-3.15a2.57 2.57 0 0 0-2.57-2.57h-4.73a2.57 2.57 0 0 0-2.57 2.57V61M51.39 61v-3.15a2.57 2.57 0 0 0-2.57-2.57h-4.74a2.58 2.58 0 0 0-2.57 2.57V61M61.27 61v-3.15a2.58 2.58 0 0 0-2.57-2.57H54a2.57 2.57 0 0 0-2.57 2.57V61M28.25 52.79v-1.47a1.65 1.65 0 0 0-1.65-1.65h-3.48a1.65 1.65 0 0 0-1.65 1.65v1.47M21.47 52.79v-1.47a1.65 1.65 0 0 0-1.65-1.65h-3.48a1.65 1.65 0 0 0-1.65 1.65v1.47" style="stroke: #003369;"/><path fill="none" stroke="#003369" stroke-miterlimit="10" stroke-width="2" d="M14.69 52.79v-1.47A1.65 1.65 0 0 0 13 49.67H9.56a1.65 1.65 0 0 0-1.65 1.65v1.47M35 52.79v-1.47a1.65 1.65 0 0 0-1.65-1.65H29.9a1.65 1.65 0 0 0-1.65 1.65v1.47" style="stroke: #003369;"/><path fill="none" stroke="#003369" stroke-miterlimit="10" stroke-width="2" d="M41.8 52.79v-1.47a1.65 1.65 0 0 0-1.64-1.65h-3.49A1.65 1.65 0 0 0 35 51.32v1.47" style="stroke: #003369;"/><path fill="none" stroke="#003369" stroke-miterlimit="10" stroke-width="2" d="M48.58 52.79v-1.47a1.65 1.65 0 0 0-1.65-1.65h-3.48a1.65 1.65 0 0 0-1.65 1.65v1.47M55.36 52.79v-1.47a1.65 1.65 0 0 0-1.65-1.65h-3.48a1.65 1.65 0 0 0-1.65 1.65v1.47" style="stroke: #003369;"/></svg>
