<?xml version="1.0" encoding="UTF-8"?>
<svg xmlns="http://www.w3.org/2000/svg" data-name="Ebene 1" viewBox="0 0 64 64"><path fill="none" stroke="#003369" stroke-miterlimit="10" stroke-width="2" d="M29.46 8.07v6.59a2 2 0 0 0-1.58 2v2.13a.54.54 0 0 0 .53.54h8a.54.54 0 0 0 .54-.54v-2.17a2 2 0 0 0-1.58-2V8.07a.54.54 0 0 0-.54-.54H30a.54.54 0 0 0-.54.54zM3.2 12l3.32 5.65a2 2 0 0 0-.36 2.51L7.23 22a.61.61 0 0 0 .34.25h.12a.6.6 0 0 0 .31-.11l6.84-4.25a.54.54 0 0 0 .17-.73l-1.07-1.82a1.91 1.91 0 0 0-1.23-.92 1.86 1.86 0 0 0-1.12.06L8.25 8.86a.52.52 0 0 0-.33-.25.54.54 0 0 0-.41.07l-4.13 2.57a.52.52 0 0 0-.18.75zM14.26 45.03L9.69 21.07M13.4 19.29l12.52 13.45M50 17.16a.54.54 0 0 0 .17.73L57 22.14a.6.6 0 0 0 .29.08h.12a.61.61 0 0 0 .34-.25l1.07-1.83a2 2 0 0 0-.36-2.51L61.8 12a.52.52 0 0 0-.18-.72l-4.13-2.6a.54.54 0 0 0-.41-.07.52.52 0 0 0-.33.25l-3.32 5.62a1.86 1.86 0 0 0-1.12-.06 1.91 1.91 0 0 0-1.23.92zM55.31 21.07l-6.76 34.29M16.82 54.15l35.49-34.94M48.55 55.36c-.16 2.21-6.7 4.63-16 4.63s-16.07-2.42-16.23-4.63l.55-1.21c1.77-1.87 7.71-3.59 15.68-3.59s13.94 1.73 15.71 3.59zM6.52 17.62l5.05-3.14M29.46 14.66h5.91M53.43 14.48l5.05 3.14M16.44 55.02l15.47-36.07M48.54 55.09L33.4 18.95M32.17 7.53V4.01" style="stroke: #003369;"/><path fill="none" stroke="#003369" stroke-miterlimit="10" stroke-width="2" d="M5.37 10.01L3.12 6.77V4.01" style="stroke: #003369;"/><path fill="none" stroke="#003369" stroke-miterlimit="10" stroke-width="2" d="M59.63 10.01l2.25-3v-3H2.12" style="stroke: #003369;"/></svg>
