<?xml version="1.0" encoding="UTF-8"?>
<svg xmlns="http://www.w3.org/2000/svg" aria-describedby="desc" aria-labelledby="title" viewBox="0 0 64 64"><path fill="none" stroke="#003369" stroke-miterlimit="10" stroke-width="2" d="M15 51.1L7 57l3.1-9.5L2 42h9.9l3.1-9.7 3.1 9.7H28l-8.1 5.5L23 57l-8-5.9zm34 0L41 57l3.1-9.5L36 42h9.9l3.1-9.7 3.1 9.7H62l-8.1 5.5L57 57l-8-5.9z" data-name="layer2" style="stroke: #003369;"/><path fill="none" stroke="#003369" stroke-miterlimit="10" stroke-width="2" d="M32 25.9l-8 5.8 3.1-9.4L19 16h9.9L32 7l3.1 9H45l-8.1 6.3 3.1 9.4-8-5.8z" data-name="layer1" style="stroke: #003369;"/></svg>
