<?xml version="1.0" encoding="UTF-8"?>
<svg xmlns="http://www.w3.org/2000/svg" aria-describedby="desc" aria-labelledby="title" viewBox="0 0 64 64"><path fill="none" stroke="#003369" stroke-width="2" d="M2 30v8c0 15.8 7.1 22 26 22s34-12 34-23.3v-12" data-name="layer2" style="stroke: #003369;"/><path fill="none" stroke="#003369" stroke-width="2" d="M45.8 19.1a2 2 0 0 0-2.7-.9l-14.9 6.5-11.1-6.4a2 2 0 0 0-2.2 3.3l8.7 8.2-1.5 9.5a2 2 0 0 0 1.3 2.5h.6a2 2 0 0 0 1.9-1.4l4.7-10.2 14.3-8.7a2 2 0 0 0 .9-2.4z" data-name="layer2" style="stroke: #003369;"/><path fill="none" stroke="#003369" stroke-width="2" d="M12 10c4.2 0 3.8 2 11.8 2C40.6 12 41.4 4 52 4s10 18.6 10 20.7C62 36 46.9 52 28 52S2 43.8 2 28c0-14.2 5.3-18 10-18z" data-name="layer1" style="stroke: #003369;"/></svg>
