<?xml version="1.0" encoding="UTF-8"?>
<svg xmlns="http://www.w3.org/2000/svg" aria-describedby="desc" aria-labelledby="title" viewBox="0 0 64 64"><path fill="none" stroke="#003369" stroke-width="2" d="M23.1 10A9 9 0 0 1 41 10M11 24H3a2 2 0 0 1-2-2 2 2 0 0 1 2-2h8m42 4h8a2 2 0 0 0 2-2 2 2 0 0 0-2-2h-8" data-name="layer2" style="stroke: #003369;"/><path fill="none" stroke="#003369" stroke-width="2" d="M53 10v46a6 6 0 0 1-6 6H17a6 6 0 0 1-6-6V10m-4 0h50" data-name="layer1" style="stroke: #003369;"/></svg>
