<?xml version="1.0" encoding="UTF-8"?>
<svg xmlns="http://www.w3.org/2000/svg" aria-describedby="desc" aria-labelledby="title" viewBox="0 0 64 64"><path fill="none" stroke="#003369" stroke-miterlimit="10" stroke-width="2" d="M34 7a10 10 0 0 1 10 10 10 10 0 0 1-10 10H8a6 6 0 0 0-6 6 6 6 0 0 0 6 6h24a8 8 0 0 1 8 8 8 8 0 0 1-8 8" data-name="layer2" style="stroke: #003369;"/><path fill="none" stroke="#003369" stroke-miterlimit="10" stroke-width="2" d="M26 11a4 4 0 0 1 4 4 4 4 0 0 1-4 4H14" data-name="layer2" style="stroke: #003369;"/><path fill="none" stroke="#003369" stroke-miterlimit="10" stroke-width="2" d="M50 15a8 8 0 0 1 8 8 8 8 0 0 1-8 8h-6m12 20a6 6 0 0 0 6-6 6 6 0 0 0-6-6H44" data-name="layer1" style="stroke: #003369;"/></svg>
