<?xml version="1.0" encoding="UTF-8"?>
<svg xmlns="http://www.w3.org/2000/svg" aria-describedby="desc" aria-labelledby="title" viewBox="0 0 64 64"><path fill="none" stroke="#003369" stroke-miterlimit="10" stroke-width="2" d="M36 36h12v22H36z" data-name="layer2" style="stroke: #003369;"/><path fill="none" stroke="#003369" stroke-miterlimit="10" stroke-width="2" d="M56 30v28H8V30" data-name="layer2" style="stroke: #003369;"/><path fill="none" stroke="#003369" stroke-miterlimit="10" stroke-width="2" d="M16 36h14v12H16z" data-name="layer2" style="stroke: #003369;"/><path fill="none" stroke="#003369" stroke-miterlimit="10" stroke-width="2" d="M52.6 6H11.4L2 22.5a7.5 7.5 0 0 0 15 0 7.5 7.5 0 0 0 15 0 7.5 7.5 0 0 0 15 0 7.5 7.5 0 0 0 15 0zM2 22h60M32 6v16.5m-15 0L22 6m25 16.5L42 6" data-name="layer1" style="stroke: #003369;"/></svg>
