<?xml version="1.0" encoding="UTF-8"?>
<svg xmlns="http://www.w3.org/2000/svg" aria-describedby="desc" aria-labelledby="title" viewBox="0 0 64 64"><circle cx="32" cy="8" r="6" fill="none" stroke="#003369" stroke-miterlimit="10" stroke-width="2" data-name="layer1" style="stroke: #003369;"/><path fill="none" stroke="#003369" stroke-miterlimit="10" stroke-width="2" d="M38 46.2c12.6.8 22 4 22 7.8s-12.5 8-28 8-28-3.6-28-8 9.4-7 22-7.8" data-name="layer2" style="stroke: #003369;"/><path fill="none" stroke="#003369" stroke-miterlimit="10" stroke-width="2" d="M42 18H22a2 2 0 0 0-2 2v12a2 2 0 0 0 2 2h4v15a3 3 0 0 0 3 3h6a3 3 0 0 0 3-3V34h4a2 2 0 0 0 2-2V20a2 2 0 0 0-2-2z" data-name="layer1" style="stroke: #003369;"/></svg>
