<?xml version="1.0" encoding="UTF-8"?>
<svg xmlns="http://www.w3.org/2000/svg" viewBox="0 0 64 64"><path fill="none" stroke="#003369" stroke-miterlimit="10" stroke-width="2" d="M10.11 39.68l11.22 2.74.82 1.19h28.84c11.52-.52 11.73-5.81 11.73-5.81.2-6.45-11.73-5.83-11.73-5.83H22.14s-7.53 1.33-12.03 4.19" style="stroke: #003369;"/><rect width="11.34" height="3.2" x="1.28" y="36.16" fill="none" stroke="#003369" stroke-miterlimit="10" stroke-width="2" rx=".42" ry=".42" style="stroke: #003369;"/><path fill="none" stroke="#003369" stroke-miterlimit="10" stroke-width="2" d="M4.22 36.16v-9.18h5.59l2.71 7.9M2.67 39.36v5.26H8.7l1.5-5.26M37.92 31.96l1.16-3.69c.13-.4.32-.75.71-.75h7.66c.39 0 .57.3.71.75l1.06 3.69M26.33 36.96h6.51M36.38 36.96h6.51M46.36 36.96h6.51M45.21 27.51v-6.96s-.01-1.18.79-1.15l1.26-.02M42.4 22.66v4.85" style="stroke: #003369;"/></svg>
