<?xml version="1.0" encoding="UTF-8"?>
<svg xmlns="http://www.w3.org/2000/svg" aria-describedby="desc" aria-labelledby="title" viewBox="0 0 64 64"><path fill="none" stroke="#003369" stroke-miterlimit="10" stroke-width="2" d="M11.937 56.994H36m7 0h6m7 0h6" data-name="layer2" style="stroke: #003369;"/><path fill="none" stroke="#003369" stroke-miterlimit="10" stroke-width="2" d="M59.828 15.659a4.008 4.008 0 0 0 0-5.664l-2.841-2.832a4.04 4.04 0 0 0-5.683 0L32.124 26.28l5.683 5.664a3.021 3.021 0 0 0 4.262 0zM32.124 26.28L3.1 55.206a.1.1 0 0 0 .029.162c1.424.616 14.063 5.617 25.44-5.723 9.945-9.912 9.235-17.7 9.235-17.7" data-name="layer1" style="stroke: #003369;"/></svg>
