<?xml version="1.0" encoding="UTF-8"?>
<svg xmlns="http://www.w3.org/2000/svg" data-name="Layer 1" viewBox="0 0 64 64"><path fill="none" stroke="#003369" stroke-miterlimit="10" stroke-width="2" d="M56.49 38.51h4.62v16.08h-4.62zM56.49 46.54s-15.52 2.4-16.64-15M61.11 34.37v4.14M61.11 54.58v4.37M2.89 19.37l4.16 4.74 5.78-1.75 3.84 11.81 40.88-11.72-4.71-17.4L2.89 19.37z" style="stroke: #003369;"/><path fill="none" stroke="#003369" stroke-miterlimit="10" stroke-width="2" d="M9.17 23.47l3.2 9.59 2.94-.84M42 26.86a3.49 3.49 0 0 1 .29 1.41 3.42 3.42 0 0 1-3.58 3.4 3.46 3.46 0 0 1-3.58-2.79" style="stroke: #003369;"/></svg>
