<?xml version="1.0" encoding="UTF-8"?>
<svg xmlns="http://www.w3.org/2000/svg" aria-describedby="desc" aria-labelledby="title" viewBox="0 0 64 64"><path fill="none" stroke="#003369" stroke-width="2" d="M40 41.719a24.628 24.628 0 0 0 8 1.254c7.732 0 14-3.133 14-7v-14m-27.996.002v6.254m-4.008-.911V15.971M2 15.971v14c0 3.172 4.219 5.85 10 6.711m0-2.653v14c0 3.865 6.267 7 14 7s14-3.135 14-7v-14" data-name="layer2" style="stroke: #003369;"/><ellipse cx="15.996" cy="15.941" fill="none" stroke="#003369" stroke-width="2" data-name="layer1" rx="3" ry="1" style="stroke: #003369;"/><ellipse cx="26" cy="34" fill="none" stroke="#003369" stroke-width="2" data-name="layer1" rx="3" ry="1" style="stroke: #003369;"/><ellipse cx="48.004" cy="21.975" fill="none" stroke="#003369" stroke-width="2" data-name="layer1" rx="14" ry="7" style="stroke: #003369;"/><ellipse cx="48.004" cy="21.943" fill="none" stroke="#003369" stroke-width="2" data-name="layer1" rx="3" ry="1" style="stroke: #003369;"/><ellipse cx="15.996" cy="15.971" fill="none" stroke="#003369" stroke-width="2" data-name="layer1" rx="14" ry="7" style="stroke: #003369;"/><ellipse cx="26" cy="34.029" fill="none" stroke="#003369" stroke-width="2" data-name="layer1" rx="14" ry="7" style="stroke: #003369;"/></svg>
