<?xml version="1.0" encoding="UTF-8"?>
<svg xmlns="http://www.w3.org/2000/svg" data-name="Layer 1" viewBox="0 0 64 64"><path fill="none" stroke="#003369" stroke-miterlimit="10" stroke-width="2" d="M54.24 30.1c4.48-2.91 8.17-7.58 5.55-13.24S46.34 10.2 41.4 4.65c-4.48 5.11-4.73 13.6-.72 20.29C43.37 29.44 48.3 30 50.86 30M35.18 9.2a25.46 25.46 0 1 0 9.8 5M28.65 8.76v50.59M3.51 34.05h50.41M6.43 21.88H38.9M5.62 45.82H51" style="stroke: #003369;"/><path fill="none" stroke="#003369" stroke-miterlimit="10" stroke-width="2" d="M28.65 59.35c-7.5 0-13.58-11.33-13.58-25.3S21.15 8.76 28.65 8.76M28.71 59.35c7.5 0 13.58-11.33 13.58-25.3a27.93 27.93 0 0 0-.61-6.95" style="stroke: #003369;"/></svg>
