<?xml version="1.0" encoding="UTF-8"?>
<svg xmlns="http://www.w3.org/2000/svg" data-name="Layer 1" viewBox="0 0 64 64"><path fill="none" stroke="#003369" stroke-miterlimit="10" stroke-width="2" d="M8.7 30.49C4.13 27.51 1 22.74 3.64 17s13.75-6.8 18.8-12.47c4.58 5.22 4.83 13.9.74 20.73-2.76 4.6-7.79 5.22-10.41 5.21M28.79 8.33a26 26 0 1 1-10 5.11" style="stroke: #003369;"/><path fill="none" stroke="#003369" stroke-miterlimit="10" stroke-width="2" d="M61.34 35.14h-3.85l-2.57-3.85h-2.56l-1.29 1.28h-3.85l-6.41-6.42h-9v-2.56A5.14 5.14 0 0 1 37 18.45h2.56l2.57-2.56h6.42l2.56-2.57M42.09 50.54h-3.85v-8.98l-2.57-2.57h-5.13v-3.85l3.85-3.85h6.42l6.41 6.42v7.7l-5.13 5.13z" style="stroke: #003369;"/></svg>
