<?xml version="1.0" encoding="UTF-8"?>
<svg xmlns="http://www.w3.org/2000/svg" aria-describedby="desc" aria-labelledby="title" viewBox="0 0 64 64"><path fill="none" stroke="#003369" stroke-width="2" d="M18 52v6a2 2 0 0 1-2 2H8a2 2 0 0 1-2-2v-6m52 0v6a2 2 0 0 1-2 2h-8a2 2 0 0 1-2-2v-6M24 30v4m8-4v4m8-4v4" data-name="layer2" style="stroke: #003369;"/><path fill="none" stroke="#003369" stroke-width="2" d="M4 42V27.4C4 23.6 9.7 20 9.7 20L16 4h32l6.3 16s5.7 3.6 5.7 7.4V42" data-name="layer1" style="stroke: #003369;"/><rect width="60" height="10" x="2" y="42" fill="none" stroke="#003369" stroke-width="2" data-name="layer1" rx="2" ry="2" style="stroke: #003369;"/><path fill="none" stroke="#003369" stroke-width="2" d="M4 28h10a2 2 0 0 1 2 2v4a2 2 0 0 1-2 2H4m56-8H50a2 2 0 0 0-2 2v4a2 2 0 0 0 2 2h10M9.7 20h44.6m-43.8-2H4m49.5 0H60" data-name="layer1" style="stroke: #003369;"/></svg>
