<?xml version="1.0" encoding="UTF-8"?>
<svg xmlns="http://www.w3.org/2000/svg" aria-describedby="desc" aria-labelledby="title" viewBox="0 0 64 64"><path fill="none" stroke="#003369" stroke-width="2" d="M48 25H20m28 16H20M10 10a5 5 0 0 1 5-5 5 5 0 0 1 5 5v41.3M38 10a5 5 0 0 1 5-5 5 5 0 0 1 5 5v41.2" data-name="layer2" style="stroke: #003369;"/><path fill="none" stroke="#003369" stroke-width="2" d="M18 51c-4 0-4 2-8 2s-4-2-8-2m32 0c-4 0-4 2-8 2s-4-2-8-2m32 0c-4 0-4 2-8 2s-4-2-8-2m28 1a7.8 7.8 0 0 1-4 1c-4 0-4-2-8-2m-32 8c-4 0-4 2-8 2s-4-2-8-2m32 0c-4 0-4 2-8 2s-4-2-8-2m32 0c-4 0-4 2-8 2s-4-2-8-2m28 1a7.7 7.7 0 0 1-4 1c-4 0-4-2-8-2" data-name="layer1" style="stroke: #003369;"/></svg>
