<?xml version="1.0" encoding="UTF-8"?>
<svg xmlns="http://www.w3.org/2000/svg" aria-describedby="desc" aria-labelledby="title" viewBox="0 0 64 64"><path fill="none" stroke="#003369" stroke-miterlimit="10" stroke-width="2" d="M54 19v-8H20V7H2v45a3 3 0 0 0 3 3h54a3 3 0 0 0 3-3V19H10v33a3 3 0 0 1-3 3" data-name="layer2" style="stroke: #003369;"/><path fill="none" stroke="#003369" stroke-miterlimit="10" stroke-width="2" d="M42 37l4 4 4-4m-20 0l-4-4-4 4" data-name="layer1" style="stroke: #003369;"/><path fill="none" stroke="#003369" stroke-miterlimit="10" stroke-width="2" d="M40.7 45.8A9.8 9.8 0 0 1 29 44.1a10.1 10.1 0 0 1-2.3-10.4m4.6-5.5A9.8 9.8 0 0 1 43 29.9a10.1 10.1 0 0 1 2.3 10.4" data-name="layer1" style="stroke: #003369;"/></svg>
