<?xml version="1.0" encoding="UTF-8"?>
<svg xmlns="http://www.w3.org/2000/svg" viewBox="0 0 36.93 68.27"><rect width="36.93" height="15.54" y="30.08" fill="#1d3767" rx="7.77" ry="7.77" style="fill: #003369;"/><text fill="#fff" font-family="Arial-BoldMT,Arial" font-size="11.82" transform="translate(6.42 42.02)"><tspan x="0" y="0" letter-spacing="-.07em">T</tspan><tspan x="6.34" y="0">AD</tspan></text><text fill="#1d3767" font-family="Arial-BoldMT,Arial" font-size="11.82" transform="translate(5.31 63.81)"><tspan x="0" y="0">xxxx</tspan></text><g stroke="#1d3768" stroke-miterlimit="10"><g fill="#fff" stroke-width=".6"><path d="M11.37 5.48l.89.89a.658.658 0 0 0 .93-.93l-2.21-2.21c-.4-.4-.85-.44-1.32.03l-.14.14c-.26.25-.68.24-.93-.02a.665.665 0 0 1 0-.91l.47-.46c.54-.54.84-.73 1.3-.73h.71L14 4.2l-1.03 1.03" style="fill: #003369;"/><path d="M11.37 5.48l1.13 1.13c.26.26.26.67 0 .93s-.67.26-.93 0l-1.03-1.03M10.54 6.51l.79.79c.25.27.23.68-.03.93-.25.24-.65.24-.9 0l-.47-.47" style="fill: #003369;"/><path d="M9.99 7.82l.23.23c.25.26.24.68-.02.93-.25.24-.65.24-.91 0l-.23-.23M5.19 5.22L4.13 4.16l2.64-2.63s.35.41.65.41c.36 0 .45-.12.66-.33.35-.35.88-.34 1.32.1" style="fill: #003369;"/><path d="M6.37 5.91c.27-.25.28-.67.03-.93a.652.652 0 0 0-.93-.03l-.03.03-.46.47c-.25.26-.24.68.02.93.25.24.66.24.91 0l.46-.47z" style="fill: #003369;"/><path d="M7.3 6.84c.26-.26.26-.67 0-.93a.652.652 0 0 0-.93 0h0l-.7.7c-.25.26-.24.68.02.93.25.24.66.24.91 0l.7-.7zm.93.93c.25-.26.24-.68-.03-.93a.653.653 0 0 0-.9 0l-.47.47c-.25.26-.24.68.02.93.25.24.65.24.91 0l.46-.46z" style="fill: #003369;"/><path d="M9.11 8.75c.26-.26.26-.67 0-.93a.652.652 0 0 0-.93 0h0l-.23.23c-.25.26-.25.68.02.93.26.25.66.25.91 0l.23-.23z" style="fill: #003369;"/></g><g fill="none" stroke-width=".75"><path d="M26.98 6.6h-1.47V5.13h1.47V6.6zm-3.2 0h-1.47V5.13h1.47V6.6zm3.2 2.94h-1.47V8.07h1.47v1.47zm-3.2 0h-1.47V8.07h1.47v1.47zm3.2 2.93h-1.47V11h1.47v1.47zm-3.2 0h-1.47V11h1.47v1.47zm-4.8 0h-1.47V11h1.47v1.47zm-3.2 0h-1.47V11h1.47v1.47zm2.33 5.97V15.5h-2.93v2.94m10.93 0V15.5h-2.93v2.94" style="fill: #003369;"/><path d="M28.65 18.44h-8V3.77h8v14.67zm-7.93 0h-8.07v-8.8h8" style="fill: #003369;"/></g><g fill="#fff" stroke-width=".75"><circle cx="28.07" cy="5.1" r="4.72" style="fill: #003369;"/><path d="M28.07 1.64l.06 3.62 2.24 1.1" style="fill: #003369;"/></g></g></svg>
