<?xml version="1.0" encoding="UTF-8"?>
<svg xmlns="http://www.w3.org/2000/svg" aria-describedby="desc" aria-labelledby="title" viewBox="0 0 64 64"><path fill="none" stroke="#003369" stroke-width="2" d="M16 3v16m6 16V25a6 6 0 0 0-6-6 6 6 0 0 0-6 6v10z" data-name="layer2" style="stroke: #003369;"/><path fill="none" stroke="#003369" stroke-width="2" d="M48 3v54a4 4 0 0 1-4 4H6a4 4 0 0 1-4-4V3zm0 10a14 14 0 0 1 14 14v4a14 14 0 0 1-14 14" data-name="layer1" style="stroke: #003369;"/><path fill="none" stroke="#003369" stroke-width="2" d="M48 41a10 10 0 0 0 10-10v-4a10 10 0 0 0-10-10" data-name="layer1" style="stroke: #003369;"/></svg>
