<?xml version="1.0" encoding="UTF-8"?>
<svg xmlns="http://www.w3.org/2000/svg" data-name="Layer 1" viewBox="0 0 64 64"><path fill="none" stroke="#003369" stroke-miterlimit="10" stroke-width="2" d="M40.53 10.87a6.66 6.66 0 0 1 1.71 3 29.32 29.32 0 0 1 0 5.87s1.63-.16 1.51 2.93c-.16 3.89-2.46 4.21-2.46 4.21-.48 5.47-2.72 6.24-2.72 6.24l.06 3.24c0 1.54-.11 4.52 8.15 5.62 9.47 1.43 9.47 8.92 9.47 8.92v6.4H7.79v-6.4a11 11 0 0 1 9.47-8.92c8.26-1.1 8.15-3.75 8.15-5.4L25.36 33s-2.31-.69-2.78-6.16c0 0-2.3-.32-2.46-4.21-.13-3.09 1.5-2.93 1.5-2.93a30.16 30.16 0 0 1 0-5.87c.36-2.26 4.84-7.09 10.24-7.09H32a12 12 0 0 1 8.52 4.13" style="stroke: #003369;"/><path fill="none" stroke="#003369" stroke-miterlimit="10" stroke-width="2" d="M41.42 11.06a7.16 7.16 0 0 1 1.58-.18h.12c4.18 0 7.65 3.74 7.92 5.5a22.57 22.57 0 0 1 0 4.54s1.26-.13 1.17 2.27c-.13 3-1.9 3.25-1.9 3.25-.37 4.24-2.11 4.84-2.11 4.84v2.51c0 1.19-.08 3.49 6.31 4.35 7.34 1.11 7.34 6.9 7.34 6.9v5h-5.6M7.79 50H2.08v-5a8.55 8.55 0 0 1 7.34-6.9c6.39-.86 6.31-2.9 6.31-4.18v-2.74s-1.79-.54-2.16-4.78c0 0-1.78-.24-1.9-3.25-.1-2.4 1.16-2.27 1.16-2.27a23.4 23.4 0 0 1 0-4.54c.28-1.76 3.75-5.5 7.93-5.5h.11a7.35 7.35 0 0 1 2.21.34" style="stroke: #003369;"/></svg>
