<?xml version="1.0" encoding="UTF-8"?>
<svg xmlns="http://www.w3.org/2000/svg" aria-describedby="desc" aria-labelledby="title" viewBox="0 0 64 64"><path fill="none" stroke="#003369" stroke-miterlimit="10" stroke-width="2" d="M46 33h5a3.3 3.3 0 0 0 3-3v-7a3.3 3.3 0 0 0-3-3h-5m-29 0h-5a3.3 3.3 0 0 0-3 3v7a3.3 3.3 0 0 0 3 3h6.2" data-name="layer2" style="stroke: #003369;"/><path fill="none" stroke="#003369" stroke-miterlimit="10" stroke-width="2" d="M25.4 42.3C20.7 39.4 17 33.2 17 26V16C17 5.6 24.8 2 31.4 2 38 2 46 5.6 46 16v16c0 4-4 7-7 7" data-name="layer1" style="stroke: #003369;"/><path fill="none" stroke="#003369" stroke-miterlimit="10" stroke-width="2" d="M24 41.3V44c0 2 .4 5-10.6 7A14.2 14.2 0 0 0 2 62h59a14.6 14.6 0 0 0-11.6-11C38.7 49 39 46 39 44v-5" data-name="layer1" style="stroke: #003369;"/><path fill="none" stroke="#003369" stroke-miterlimit="10" stroke-width="2" d="M39 39a3 3 0 0 0-3-3h-2a3 3 0 0 0-3 3 3 3 0 0 0 3 3h2a3 3 0 0 0 3-3z" data-name="layer2" style="stroke: #003369;"/><path fill="none" stroke="#003369" stroke-miterlimit="10" stroke-width="2" d="M21.4 48.5l10 12.5 10.2-12.5M17 18c12 0 12-8 20-8s9 7 9 7" data-name="layer1" style="stroke: #003369;"/></svg>
