<?xml version="1.0" encoding="UTF-8"?>
<svg xmlns="http://www.w3.org/2000/svg" data-name="Layer 1" viewBox="0 0 64 64"><path fill="none" stroke="#003369" stroke-miterlimit="10" stroke-width="1.98" d="M27.8 21.93H11.43a5.66 5.66 0 0 0-5.67 5.66v26.57h52.72V21.93H36.2M45.67 26.77h8.36M45.67 30.9h8.36M45.67 35.03h8.36M45.67 39.16h8.36" style="stroke: #003369;"/><path fill="none" stroke="#003369" stroke-miterlimit="10" stroke-width="1.98" d="M2.78 54.15h58.45v3.5H2.78z" style="stroke: #003369;"/><path fill="none" stroke="#003369" stroke-miterlimit="10" stroke-width="2" d="M32.39 26v3.59M36.31 22.64V10.26a3.92 3.92 0 0 0-7.84 0V26.9A6.86 6.86 0 1 0 38 28.61a7 7 0 0 0-1.71-1.71v-4.26" style="stroke: #003369;"/><circle cx="32.39" cy="32.53" r="2.94" fill="none" stroke="#003369" stroke-miterlimit="10" stroke-width="2" style="stroke: #003369;"/><path fill="none" stroke="#003369" stroke-miterlimit="10" stroke-width="2" d="M24.45 13.61h-5.73M24.45 10.09h-9.32M24.45 17.12h-6.77" style="stroke: #003369;"/></svg>
