<?xml version="1.0" encoding="UTF-8"?>
<svg xmlns="http://www.w3.org/2000/svg" aria-describedby="desc" aria-labelledby="title" viewBox="0 0 64 64"><path fill="none" stroke="#003369" stroke-miterlimit="10" stroke-width="2" d="M24 44.89v1.194c0 2 .6 4.86-10.391 6.917C2 55.175 2 62 2 62h60s.129-7.5-12.418-9C40 51.854 40 48 40 46v-1.606m-11.92 9.604l-4.961-4.682m12.801 4.682l4.799-4.822" data-name="layer2" style="stroke: #003369;"/><path fill="none" stroke="#003369" stroke-miterlimit="10" stroke-width="2" d="M18 23v3.009c-3.043.03-3 4.049-3 4.991s.391 4.868 3.438 4.868A16.8 16.8 0 0 0 25.61 46m11.99-.007a16.775 16.775 0 0 0 7.17-10.133c3.025-.034 3.727-4.251 3.727-5.2s.5-4.6-2.5-4.65V23" data-name="layer2" style="stroke: #003369;"/><ellipse cx="32" cy="54.998" fill="none" stroke="#003369" stroke-miterlimit="10" stroke-width="2" data-name="layer1" rx="4" ry="5" style="stroke: #003369;"/><path fill="none" stroke="#003369" stroke-miterlimit="10" stroke-width="2" d="M18 23c0-2 6.266-2.993 14-2.993S46 21.343 46 23V6l-6 4-8-8-8 8-6-4z" data-name="layer1" style="stroke: #003369;"/></svg>
