<?xml version="1.0" encoding="UTF-8"?>
<svg xmlns="http://www.w3.org/2000/svg" aria-describedby="desc" aria-labelledby="title" viewBox="0 0 64 64"><path fill="none" stroke="#003369" stroke-miterlimit="10" stroke-width="2" d="M11.402 11.402l38.985 38.985M48.336 52.6l8.523 8.523a3.022 3.022 0 0 0 4.262 0 3.022 3.022 0 0 0 0-4.262L52.6 48.336" data-name="layer2" style="stroke: #003369;"/><path fill="none" stroke="#003369" stroke-miterlimit="10" stroke-width="2" d="M2.879 9.982l7.1-7.1a3.022 3.022 0 0 1 4.262 0L46.5 35.131a21.734 21.734 0 0 1 4.912 7.569l1.9 4.929-5.682 5.682-4.929-1.9a21.734 21.734 0 0 1-7.57-4.911L2.879 14.243a3.022 3.022 0 0 1 0-4.261zm19.899 1.431l-2.131 2.131m7.802 3.54l-2.131 2.131m7.802 3.54l-2.131 2.131m7.802 3.54l-2.131 2.131m7.802 3.541l-2.131 2.13" data-name="layer1" style="stroke: #003369;"/></svg>
