<?xml version="1.0" encoding="UTF-8"?>
<svg xmlns="http://www.w3.org/2000/svg" viewBox="0 0 64 64"><path fill="#003369" d="M11.92 26.08l-8.27-2.37V1.45l8.27 2.44v22.19zM5.65 22.2l4.27 1.22V5.39L5.65 4.13V22.2z" style="fill: #003369;"/><path fill="#003369" d="M10.92 3.64h21.3v2h-21.3zM26.15 20.18h-9.27v-8.63h9.27v8.63zm-7.27-2h5.27v-4.63h-5.27v4.63zM17.51 32.28h-5.73v-5.73h5.73v5.73zm-3.73-2h1.73v-1.73h-1.73v1.73z" style="fill: #003369;"/><path fill="#003369" d="M22.51 27.8h-8.7v-9.36h8.7v9.36zm-6.7-2h4.7v-5.36h-4.7v5.36z" style="fill: #003369;"/><path fill="#003369" d="M24.65 27.8h-4.13v-9.36h8.7v6.02l-.83.15c-.08.02-2.15.43-3.45 2.7l-.29.5zm-2.13-2h1a7.713 7.713 0 0 1 3.7-2.93v-2.43h-4.7v5.36zM39.49 24.62h-8.27V3.93l8.27-2.49v23.18zm-6.27-2h4.27V4.13l-4.27 1.29v17.2z" style="fill: #003369;"/><g fill="#003369"><path d="M46.13 26.84c-2.76 0-5.01-2.25-5.01-5.01s2.25-5.01 5.01-5.01 5.01 2.25 5.01 5.01-2.25 5.01-5.01 5.01zm0-8.02c-1.66 0-3.01 1.35-3.01 3.01s1.35 3.01 3.01 3.01 3.01-1.35 3.01-3.01-1.35-3.01-3.01-3.01zM50.09 63.56c-.33 0-.67-.05-1.01-.15-2.39-.69-3.35-2.73-4.03-4.84l-.37-1.18c-.41-1.29-.82-2.62-1.33-3.88-.38-.96-.81-2.04-1.43-2.88-1.79-2.42-4.84-6.42-4.84-6.42l-.03-.05c-1.4-1.84-1.75-3.98-1.09-6.41.98-3.6 3.04-7.75 4.23-9.06.91-1 2.94-1.22 4.4-1.11 2.08.16 3.74.95 4.56 2.18.43.65.76 1.36 1.08 2.04.94 2.03 1.43 2.77 2.85 2.49.19-.04.4-.09.64-.14 1.58-.37 3.74-.87 5.18.1.62.42 1.02 1.07 1.16 1.89.19 1.2-.21 2.01-.59 2.48-1.07 1.32-3.11 1.58-4.77 1.67-4.2.21-4.97.03-6.09-.53-.48-.24-.99-.8-1.43-1.39l-1.83 4.94c1.08 1.29 4.06 5.04 4.98 7.79l.31.93c.53 1.59 1.08 3.23 1.54 4.88.06.22.13.46.21.69.35 1.14.74 2.43.46 3.74-.18.8-.61 1.43-1.26 1.82-.44.26-.94.39-1.48.39zM38.68 43.02c.22.28 3.12 4.09 4.85 6.43.78 1.05 1.28 2.31 1.68 3.33.53 1.33.96 2.7 1.38 4.02l.37 1.16c.6 1.88 1.26 3.12 2.68 3.53.36.1.7.09.92-.04.17-.1.27-.27.33-.53.17-.8-.13-1.78-.42-2.73-.08-.25-.15-.5-.22-.75-.44-1.6-.98-3.22-1.51-4.78l-.31-.94c-.98-2.94-4.94-7.53-4.98-7.57l-.39-.45 3.71-9.99 1.05 1.92c.57 1.05 1.38 2.16 1.68 2.33.65.32 1.04.52 5.09.32 1.77-.09 2.89-.4 3.32-.93.11-.14.25-.39.17-.9-.06-.35-.19-.47-.3-.55-.71-.48-2.6-.04-3.61.19-.26.06-.5.12-.7.16-3.1.62-4.23-1.82-5.06-3.61-.29-.62-.58-1.25-.93-1.78-.47-.7-1.61-1.19-3.04-1.29-1.46-.11-2.56.24-2.77.46-.87.96-2.83 4.74-3.78 8.24-.74 2.72.34 4.14.7 4.61.04.05.07.09.09.12zM29.62 40.39c-.25 0-.51-.02-.76-.06-1.29-.21-2.36-.92-3.17-2.11-1.16-1.71-1.37-3.83-.61-6.13.8-2.4 2.65-4.71 4.22-5.25 2.11-.73 8.59-.62 9.33-.61l2.14.04-1.41 1.61s-2.52 2.91-3.54 6.21c-.99 3.22-1.09 3.84-1.1 3.87l-.06.39-.31.27c-.1.08-2.3 1.76-4.72 1.76zm6.97-12.17c-2.34.01-5.52.12-6.63.51-.78.27-2.29 1.92-2.98 3.99-.39 1.18-.64 2.89.36 4.38.49.73 1.09 1.14 1.82 1.26 1.45.23 3.04-.69 3.67-1.11.17-.69.54-1.97 1.07-3.73.65-2.11 1.79-4.02 2.68-5.3z" style="fill: #003369;"/><path d="M24.85 55.18c-.87 0-1.75-.14-2.58-1.01-.94-.98-1.16-2.35-.6-3.68 1.22-2.88 6.02-3 7.83-3.05h.23c1.02-.04 3.41-.27 4.46-.38l1.68-2.97 4.14 5.52-.26.54c-.18.38-1.82 3.71-4.57 4.11-3.17.47-6.37.77-9.5.89h-.19c-.21.02-.43.02-.64.02zm11.25-7.44l-.68 1.21-.51.05c-.15.02-3.72.39-5.12.43h-.24c-3.53.1-5.56.72-6.04 1.84-.18.41-.28 1.01.2 1.52.4.41.7.42 1.7.38h.2c3.06-.12 6.18-.42 9.28-.87 1.18-.17 2.23-1.56 2.77-2.47l-1.56-2.08z" style="fill: #003369;"/></g><path fill="#003369" d="M21.51 27.8H9.92v-3.05h2v1.05h9.59v2z" style="fill: #003369;"/></svg>
