<?xml version="1.0" encoding="UTF-8"?>
<svg xmlns="http://www.w3.org/2000/svg" viewBox="0 0 64 64"><g fill="#003369"><path d="M.723 15.835l.73-1.861 5.734 2.25-.73 1.862zM3.002 8.718l1.58-1.227 4.55 5.862-1.58 1.226zM9.02 5.484l1.963-.38 1.237 6.38-1.964.381z" style="fill: #003369;"/></g><g fill="#003369"><path d="M23.53 54.85H7.64V32.59h15.89v22.26zm-13.89-2h11.89V34.59H9.64v18.26z" style="fill: #003369;"/><path d="M18.44 41.6h4.09v2h-4.09z" style="fill: #003369;"/><path d="M26.17 54.85H.79V24.09l22.16-13.41 16.06 8.35-.92 1.78-15.07-7.84L2.79 25.22v27.63h23.38v2z" style="fill: #003369;"/><path d="M26.17 52.85h18.01v2H26.17z" style="fill: #003369;"/></g><path fill="#003369" d="M43.18 49.09h2v5.75h-2z" style="fill: #003369;"/><g fill="#003369"><path d="M33.44 32.69c-.34 0-.69-.08-1.01-.23a2.26 2.26 0 0 1-1.11-3.01l1.82.84c-.06.13 0 .29.13.36.09.04.18.05.24.03.02 0 .05-.02.07-.07 0 0-.08-.15-.37-.38l.61-.79-.61.79c-1.49-1.16-1.17-2.34-.96-2.79.26-.56.73-.97 1.31-1.15.53-.16 1.12-.11 1.65.13 1.01.47 1.53 1.58 1.24 2.65l-1.93-.52a.265.265 0 0 0-.15-.31.355.355 0 0 0-.24-.03c-.02 0-.05.02-.07.07 0 0 .08.15.37.38 1.49 1.16 1.17 2.34.96 2.79-.26.56-.73.97-1.31 1.15-.21.06-.42.09-.64.09zM49.57 22.63c-2.76 0-5.01-2.25-5.01-5.01s2.25-5.01 5.01-5.01 5.01 2.25 5.01 5.01-2.25 5.01-5.01 5.01zm0-8.02c-1.66 0-3.01 1.35-3.01 3.01s1.35 3.01 3.01 3.01 3.01-1.35 3.01-3.01-1.35-3.01-3.01-3.01zM53.53 59.35c-.33 0-.67-.05-1.01-.15-2.39-.69-3.35-2.73-4.03-4.84l-.37-1.18c-.4-1.29-.82-2.62-1.32-3.87-.38-.96-.81-2.04-1.43-2.88-1.79-2.42-4.84-6.42-4.84-6.42l-.03-.05c-1.4-1.84-1.75-3.98-1.09-6.41.98-3.6 3.04-7.75 4.23-9.06.91-1 2.93-1.22 4.4-1.11 2.08.16 3.74.95 4.56 2.18.43.65.76 1.36 1.08 2.04.94 2.03 1.43 2.77 2.85 2.49.19-.04.41-.09.64-.14 1.58-.37 3.74-.87 5.18.1.62.42 1.02 1.07 1.16 1.89.19 1.2-.21 2.01-.59 2.48-1.07 1.32-3.11 1.58-4.77 1.67-4.2.21-4.97.03-6.09-.53-.48-.24-.99-.8-1.43-1.39l-1.83 4.94c1.08 1.29 4.06 5.04 4.98 7.79l.31.93c.53 1.59 1.08 3.23 1.54 4.88.06.23.13.46.21.69.35 1.14.74 2.43.46 3.74-.18.8-.61 1.43-1.26 1.82-.44.26-.94.39-1.48.39zM42.12 38.81c.22.29 3.12 4.09 4.85 6.43.78 1.05 1.26 2.26 1.68 3.33.53 1.33.96 2.69 1.37 4.01l.37 1.17c.6 1.88 1.26 3.12 2.68 3.53.36.1.7.09.92-.04.17-.1.27-.27.33-.53.17-.8-.13-1.78-.42-2.73-.08-.25-.15-.5-.22-.75-.44-1.6-.98-3.22-1.51-4.78l-.31-.93c-.98-2.94-4.94-7.53-4.98-7.57l-.39-.45 3.71-9.99 1.05 1.92c.57 1.05 1.38 2.16 1.68 2.33.65.32 1.04.52 5.09.32 1.77-.09 2.89-.4 3.32-.93.11-.14.25-.39.17-.9-.06-.35-.19-.47-.3-.55-.71-.48-2.6-.04-3.61.19-.26.06-.5.12-.7.16-3.1.62-4.23-1.82-5.06-3.61-.29-.62-.58-1.25-.93-1.78-.47-.7-1.61-1.19-3.04-1.29-1.46-.11-2.56.24-2.77.46-.87.96-2.83 4.74-3.78 8.24-.74 2.72.34 4.14.7 4.61.04.05.07.09.09.12z" style="fill: #003369;"/><path d="M33.06 36.18c-.25 0-.51-.02-.76-.06-1.29-.2-2.36-.92-3.17-2.11-1.16-1.71-1.37-3.83-.61-6.13.8-2.4 2.65-4.71 4.22-5.25 2.11-.73 8.6-.62 9.33-.61l2.14.04-1.41 1.61s-2.52 2.91-3.54 6.21c-.99 3.22-1.1 3.84-1.1 3.87l-.06.39-.31.27c-.1.08-2.3 1.76-4.72 1.76zm6.97-12.17c-2.34.01-5.52.12-6.63.51-.78.27-2.29 1.92-2.98 3.99-.39 1.18-.64 2.89.36 4.38.5.73 1.09 1.14 1.83 1.26 1.43.22 3.03-.7 3.66-1.11.17-.69.54-1.97 1.07-3.72.65-2.11 1.79-4.02 2.68-5.3zM28.29 50.97c-.87 0-1.75-.14-2.58-1.01-.94-.98-1.16-2.35-.6-3.68 1.22-2.88 6.02-3 7.82-3.05h.23c1.02-.04 3.41-.27 4.46-.38l1.68-2.98 4.14 5.52-.26.54c-.18.38-1.82 3.71-4.57 4.11-3.18.47-6.37.77-9.5.89h-.19c-.21.02-.43.02-.64.02zm11.25-7.44l-.68 1.21-.51.05c-.15.02-3.72.39-5.12.43h-.24c-3.53.1-5.56.72-6.04 1.84-.18.41-.28 1.01.2 1.52.4.41.7.42 1.7.38h.2c3.05-.12 6.17-.41 9.28-.87 1.18-.17 2.23-1.56 2.77-2.47l-1.56-2.08z" style="fill: #003369;"/></g></svg>
