<?xml version="1.0" encoding="UTF-8"?>
<svg xmlns="http://www.w3.org/2000/svg" aria-describedby="desc" aria-labelledby="title" viewBox="0 0 64 64"><path fill="none" stroke="#003369" stroke-miterlimit="10" stroke-width="2" d="M18 54h2c4 0 12 4 16 4h16a4 4 0 0 0 0-8h2a4 4 0 0 0 0-8h2a4 4 0 0 0 0-8m0 0h2a4 4 0 1 0 0-8H38a81.1 81.1 0 0 0 2-18 4 4 0 0 0-8 0s-1.8 19.9-14 21.8" data-name="layer2" style="stroke: #003369;"/><path fill="none" stroke="#003369" stroke-miterlimit="10" stroke-width="2" d="M2 60l16-2V26H2v34z" data-name="layer1" style="stroke: #003369;"/><circle cx="10" cy="50" r="1" fill="none" stroke="#003369" stroke-miterlimit="10" stroke-width="2" data-name="layer1" style="stroke: #003369;"/></svg>
