<svg xmlns="http://www.w3.org/2000/svg" viewBox="0 0 36.93 69.94"><rect width="36.93" height="15.54" y="31.75" fill="#1d3767" rx="7.77" ry="7.77"/><text fill="#fff" font-family="Arial-BoldMT,Arial" font-size="11.82" transform="translate(6.42 43.69)"><tspan x="0" y="0">TN</tspan><tspan x="15.76" y="0" letter-spacing="-.02em">P</tspan></text><text fill="#1d3767" font-family="Arial-BoldMT,Arial" font-size="11.82" transform="translate(5.31 65.48)"><tspan x="0" y="0">xxxx</tspan></text><g fill="none" stroke-miterlimit="10"><path stroke="#1d3768" stroke-width=".85" d="M11.75 14.94c0 .85-.47 1.6-.97 2.06v.44c0 .28.14.71 1.53.97.8.15 1.44.74 1.67 1.53H5.63c.13-.78.74-1.4 1.53-1.53 1.39-.25 1.67-.69 1.67-.97V17c-.5-.46-.97-1.19-.97-2.06v-1.33c0-1.44 1.03-2 1.94-2s1.94.56 1.94 2v1.33zM18.69 4.86v.07a4.573 4.573 0 0 1-.33 1.71c-.38.91-1.04 1.67-1.88 2.16-.68.41-1.46.64-2.3.64h-.02c-2.49-.01-4.5-2.03-4.5-4.51S11.68.42 14.18.42s4.47 1.98 4.51 4.44z"/><path stroke="#1d3768" stroke-width=".85" d="M22.59 13.78h-8.34c.14-.78.75-1.39 1.53-1.53 1.39-.25 1.67-.69 1.67-.97v-.44c-.5-.46-.96-1.19-.97-2.04.84-.49 1.5-1.25 1.88-2.16.15-.37.25-.76.3-1.17.85.08 1.71.65 1.71 1.98v1.33c0 .85-.48 1.6-.98 2.06v.44c0 .28.14.71 1.53.97.8.16 1.45.75 1.67 1.53zM29.07 14.94c0 .85-.47 1.6-.97 2.06v.44c0 .28.14.71 1.53.97.8.15 1.44.74 1.67 1.53h-8.33c.13-.78.74-1.4 1.53-1.53 1.39-.25 1.67-.69 1.67-.97V17c-.5-.46-.97-1.19-.97-2.06v-1.33c0-1.44 1.03-2 1.94-2s1.94.56 1.94 2v1.33z"/><g stroke="#1d3768" stroke-width=".71"><path d="M21.46 18.03h-5.99M20.53 19.22l.93-1.19-.93-1.19m-4.13 2.39l-.93-1.19.93-1.19"/></g><g stroke="#1d3767" stroke-width=".5"><path d="M13.84 6.06v.15c0 .43-.35.77-.77.77s-.77-.35-.77-.77v-.62M11.28 4.25v1.37m5.14-2.91v4.45m-5.14-2.57l5.14-1.54m-5.14 2.23l5.14 1.54"/></g></g></svg>