<?xml version="1.0" encoding="UTF-8"?>
<svg xmlns="http://www.w3.org/2000/svg" data-name="Layer 1" viewBox="0 0 64 64"><path fill="none" stroke="#003369" stroke-miterlimit="10" stroke-width="2" d="M32.12 14.68a19.1 19.1 0 0 1 8.41-3l7.25-7.26M58.57 15.44l-7.16 7.16v3.46a12.08 12.08 0 0 1-1.76 6.27M32 49.87a19.2 19.2 0 0 1-8.4 3l-6.71 6.71M6.52 48.14L12.71 42v-3.51a12.06 12.06 0 0 1 1.76-6.27" style="stroke: #003369;"/><path fill="none" stroke="#003369" stroke-miterlimit="10" stroke-width="2" d="M25.51 43.86L17 35.3a19.35 19.35 0 0 1-5.5-11.49L4 16.29M14.75 5.29l7.64 7.64h3.45a12.06 12.06 0 0 1 8.55 3.54l4.43 4.42M33.27 44.37l-12.8-12.8a2.44 2.44 0 0 1 0-3.43l.21-.2a2.41 2.41 0 0 1 3.42 0" style="stroke: #003369;"/><path fill="none" stroke="#003369" stroke-miterlimit="10" stroke-width="2" d="M33.27 37.11L22.89 26.73a2.41 2.41 0 0 1 0-3.42l.21-.21a2.43 2.43 0 0 1 3.42 0L36.9 33.48" style="stroke: #003369;"/><path fill="none" stroke="#003369" stroke-miterlimit="10" stroke-width="2" d="M27.73 24.31a2.41 2.41 0 0 1 0-3.42l.2-.21a2.43 2.43 0 0 1 3.42 0l9.18 9.17M35 24.31a2.43 2.43 0 0 1 0-3.42l.21-.21a2.43 2.43 0 0 1 3.42 0l8.57 8.57a19.31 19.31 0 0 1 5.44 11.49l7.4 7.4M49.65 59.54l-7.91-7.92h-3.46a12.08 12.08 0 0 1-8.55-3.54l-4.42-4.42a2.41 2.41 0 0 1 0-3.42l.2-.21a2.43 2.43 0 0 1 3.42 0" style="stroke: #003369;"/></svg>
