<?xml version="1.0" encoding="UTF-8"?>
<svg xmlns="http://www.w3.org/2000/svg" data-name="Layer 1" viewBox="0 0 64 64"><path fill="none" stroke="#003369" stroke-miterlimit="10" stroke-width="2" d="M42.06 20.65a13 13 0 0 1-1.88 1c-.49.31-.55 1.16-.58 1.47a1.53 1.53 0 0 0 .76 1.11c.89.43 1.39-.53 2.34.09a25 25 0 0 0 2.3 1.22m-26.75 2c.11.46.27.95.36 1.51a12.38 12.38 0 0 0 .7 2.37c.41.83 3.05 1.2 3.05 1.2a5.47 5.47 0 0 0-.8-1.67c-.37-.31-.53-1.29.67-2.32s1.74.71 1.93 0 .92-1 1.51-1.87 1.27-.63 2.49-1.24.3-1.11.39-1.35a.52.52 0 0 1 .49-.28A6.37 6.37 0 0 1 30 24s.21.08.33-.3a1.79 1.79 0 0 0-.41-1.31 1 1 0 0 0-.69-.39l-.67-.17a2 2 0 0 0-.85.23c-.18.19-.24.14-.35.22-.57.5-.91 1.58-1.52 1.33a3.68 3.68 0 0 1-1-1.25c-.29-.54.13-1.8.13-1.8-.88-.09-.07.28-1.68.22a4.8 4.8 0 0 1-1.55-.26m4.82 22a6.44 6.44 0 0 1-.25-.74c-.64-2.24 0-2-1.09-2.68s-1.88-2.36-1.47-3.29a2.19 2.19 0 0 0-.11-1.81" style="stroke: #003369;"/><path fill="none" stroke="#003369" stroke-miterlimit="10" stroke-width="2" d="M22.34 32.66a7.5 7.5 0 0 0 1.3 1.34l.75-.59s.76-.68 1.44-.32 1.65.14 2.85.93.64.63 1.48 1 2.95 1.24 1.89 2.76a14.71 14.71 0 0 0-2.17 3.41c-.53 1.36-1.57 1.76-1.76 2.28M27 16.89a3.14 3.14 0 0 0 1.11 2.46s.23-.49 1.18.7 1.33.74 2.25.49-1.24-3.63-2.18-4.08" style="stroke: #003369;"/><circle cx="32" cy="29.97" r="13.97" fill="none" stroke="#003369" stroke-miterlimit="10" stroke-width="2" style="stroke: #003369;"/><path fill="none" stroke="#003369" stroke-miterlimit="10" stroke-width="2" d="M45.66 27.13c-.94.27-1.31.82-1.9.29a2.38 2.38 0 0 0-3.12.33 5.91 5.91 0 0 0-.81 1.34 3.53 3.53 0 0 0-.38 2.14c.18.52.27.8.66 1s.21 0 .73.3c.77.45 1.4 1.14 1 2.89a10 10 0 0 0-.17 2c0 1 0 1.74.07 2.22" style="stroke: #003369;"/><path fill="none" stroke="#003369" stroke-width="2" d="M14 59a3 3 0 0 0 3 3h30a3 3 0 0 0 3-3v-9H14zM50 5a3 3 0 0 0-3-3H17a3 3 0 0 0-3 3v5h36zm0 45V10m-36 0v40" style="stroke: #003369;"/><circle cx="32" cy="56" r="2" fill="none" stroke="#003369" stroke-width="2" style="stroke: #003369;"/></svg>
