<?xml version="1.0" encoding="UTF-8"?>
<svg xmlns="http://www.w3.org/2000/svg" data-name="Layer 1" viewBox="0 0 64 64"><ellipse cx="32" cy="29.5" fill="none" stroke="#003369" stroke-miterlimit="10" stroke-width="2" rx="7.24" ry="13.5" style="stroke: #003369;"/><path fill="none" stroke="#003369" stroke-miterlimit="10" stroke-width="2" d="M19.62 34.9h24.76M19.62 24.1h24.76M32 16v27" style="stroke: #003369;"/><circle cx="32" cy="29.5" r="13.5" fill="none" stroke="#003369" stroke-miterlimit="10" stroke-width="2" style="stroke: #003369;"/><path fill="none" stroke="#003369" stroke-width="2" d="M14 59a3 3 0 0 0 3 3h30a3 3 0 0 0 3-3v-9H14zM50 5a3 3 0 0 0-3-3H17a3 3 0 0 0-3 3v5h36zm0 45V10m-36 0v40" style="stroke: #003369;"/><circle cx="32" cy="56" r="2" fill="none" stroke="#003369" stroke-width="2" style="stroke: #003369;"/></svg>
