<?xml version="1.0" encoding="UTF-8"?>
<svg xmlns="http://www.w3.org/2000/svg" data-name="Layer 1" viewBox="0 0 64 64"><path fill="none" stroke="#003369" stroke-miterlimit="10" stroke-width="2" d="M49.49 21.6a11.83 11.83 0 0 1-1.69.89c-.44.28-.5 1-.52 1.32a1.37 1.37 0 0 0 .68 1c.8.39 1.25-.48 2.1.07a22.58 22.58 0 0 0 2 1.12m-24 1.81c.1.42.24.86.32 1.36A11.32 11.32 0 0 0 29 31.3c.37.74 2.74 1.07 2.74 1.07a4.72 4.72 0 0 0-.72-1.49c-.33-.28-.48-1.17.61-2.08s1.56.63 1.72 0 .83-.87 1.36-1.69S35.89 26.55 37 26s.27-1 .35-1.21a.45.45 0 0 1 .44-.26 8.69 8.69 0 0 1 .88.07s.18.07.3-.27a1.64 1.64 0 0 0-.37-1.17.93.93 0 0 0-.6-.36l-.6-.15a1.81 1.81 0 0 0-.76.21c-.16.16-.22.12-.31.2-.51.44-.82 1.42-1.37 1.19a3.22 3.22 0 0 1-.96-1.12c-.27-.49.12-1.62.12-1.62-.79-.08-.06.26-1.52.2a4.15 4.15 0 0 1-1.39-.24m4.33 19.75c-.09-.21-.16-.44-.23-.66-.57-2 0-1.77-1-2.41S32.65 36 33 35.2a2 2 0 0 0 0-1.61" style="stroke: #003369;"/><path fill="none" stroke="#003369" stroke-miterlimit="10" stroke-width="2" d="M31.78 32.39a6.65 6.65 0 0 0 1.22 1.2l.67-.53s.69-.61 1.3-.29 1.47.13 2.55.84.58.56 1.33.92 2.65 1.12 1.7 2.48a13.17 13.17 0 0 0-2 3.06c-.47 1.23-1.41 1.59-1.58 2m-1-23.9a2.86 2.86 0 0 0 1 2.21s.21-.44 1.06.63 1.2.67 2 .44-1.11-3.25-2-3.66" style="stroke: #003369;"/><circle cx="40.45" cy="29.97" r="12.55" fill="none" stroke="#003369" stroke-miterlimit="10" stroke-width="2" style="stroke: #003369;"/><path fill="none" stroke="#003369" stroke-miterlimit="10" stroke-width="2" d="M52.72 27.42c-.85.25-1.18.74-1.7.26a2.14 2.14 0 0 0-2.81.3 4.56 4.56 0 0 0-.72 1.2 3.12 3.12 0 0 0-.35 1.92c.17.47.25.72.6.92s.19 0 .65.27c.7.41 1.26 1 .94 2.6a9.48 9.48 0 0 0-.16 1.77c0 .91 0 1.56.07 2" style="stroke: #003369;"/><path fill="none" stroke="#003369" stroke-width="2" d="M11 59a3 3 0 0 0 3 3h30a3 3 0 0 0 3-3v-9H11zM47 5a3 3 0 0 0-3-3H14a3 3 0 0 0-3 3v5h36zm0 11.46V10m0 40v-6M11 10v40" style="stroke: #003369;"/><circle cx="29" cy="56" r="2" fill="none" stroke="#003369" stroke-width="2" style="stroke: #003369;"/></svg>
