<?xml version="1.0" encoding="UTF-8"?>
<svg xmlns="http://www.w3.org/2000/svg" data-name="Layer 1" viewBox="0 0 64 64"><path fill="#003369" d="M50.64 12.87a3.19 3.19 0 1 0-3.19 3.19 3.19 3.19 0 0 0 3.19-3.19zm-1.72 0a1.47 1.47 0 1 1-1.47-1.47 1.46 1.46 0 0 1 1.47 1.47z" style="fill: #003369;"/><path fill="#003369" d="M45.73 25c.28.29.5.5.67.67l.51.45.1.09a.87.87 0 0 0 .46.15.83.83 0 0 0 .52-.19l.08-.08.23-.22c.28-.26.55-.53.82-.81a32 32 0 0 0 2.49-2.91c2.44-3.26 3.68-6.34 3.68-9.15a7.88 7.88 0 1 0-15.76 0c0 2.81 1.24 5.89 3.68 9.15A31.51 31.51 0 0 0 45.73 25zM47 23.77A30 30 0 0 1 44.63 21c-1.53-2-3.34-5.09-3.34-8.12a6.23 6.23 0 0 1 1.8-4.36 6.17 6.17 0 0 1 10.52 4.36c0 3-1.82 6.08-3.34 8.12a30 30 0 0 1-2.34 2.74l-.48.48zM15.81 21.48a2.71 2.71 0 1 0-2.71-2.71 2.71 2.71 0 0 0 2.71 2.71zm-1-2.71a1 1 0 1 1 1 1 1 1 0 0 1-.99-1z" style="fill: #003369;"/><path fill="#003369" d="M14.32 28.51l.66.66a1.83 1.83 0 0 0 .17.15v.05l.15.05a.81.81 0 0 0 .55.2.87.87 0 0 0 .57-.21l.09-.08.17-.15.66-.66a24.22 24.22 0 0 0 2-2.33c2-2.62 3-5.1 3-7.38a6.44 6.44 0 0 0-12.88 0c0 2.28 1 4.76 3 7.38a24.22 24.22 0 0 0 1.86 2.32zm-3.23-9.71a4.72 4.72 0 1 1 9.44 0c0 2.36-1.42 4.76-2.62 6.35a22.82 22.82 0 0 1-1.85 2.17c-.09.09-.17.18-.25.25l-.25-.25a22.82 22.82 0 0 1-1.85-2.17c-1.2-1.59-2.62-3.99-2.62-6.35z" style="fill: #003369;"/><path fill="#003369" d="M51.4 26.29l-.12.15-.42.52v.05l-.57.69c-.21.24-.4.47-.6.69l-.18.2h1.09a21 21 0 0 1 0 15.64h-7.43v.08a15.66 15.66 0 0 1-.66 1.46l-.09.19h7.37A20.82 20.82 0 0 1 36.9 56.47a16.48 16.48 0 0 0 3.16-4.31 27.35 27.35 0 0 0 2-5.15l.27-.94-.5.84a28.08 28.08 0 0 1-3.29 4.41c-1.76 3.36-4.05 5.42-6.44 5.82V46.38a15.59 15.59 0 0 1-1.46-3.52l-.25-.92v2.29h-8.9a39.59 39.59 0 0 1 0-15.64h8.9v10.14l.25-.74a6.83 6.83 0 0 1 1.44-2.49v-6.91H41a38.08 38.08 0 0 1 .75 6.41l.18.18A6.87 6.87 0 0 1 43.21 37l.23.47V37v-.63a40.91 40.91 0 0 0-.75-7.82h2.61l-.18-.2c-.42-.48-.84-1-1.24-1.47v-.05h-1.52A29 29 0 0 0 41.1 23a27.45 27.45 0 0 1-2.1-4.14 15.55 15.55 0 0 0-2.09-2.51c.38.11.76.23 1.13.36l.23.08-.07-.23c-.15-.56-.28-1.12-.37-1.66v-.08h-.08a22.66 22.66 0 0 0-14 .33h-.11v.12A7.46 7.46 0 0 1 24 16.7v.15l.14-.05c.45-.17.92-.32 1.38-.45a15.71 15.71 0 0 0-1.42 1.58V18a12.44 12.44 0 0 1-.65 3.81l.23.09.23-.45C25.7 18.11 28 16 30.37 15.64v11.23h-8.49c.21-.79.45-1.56.71-2.3l-.23-.1a24.62 24.62 0 0 1-1.45 2.46c-.33.49-.68 1-1 1.46a1.33 1.33 0 0 1-.14.19v.05a41.48 41.48 0 0 0 0 15.6h-7.8a20.89 20.89 0 0 1-.05-15.52v-.06l-.21-.27-.53-.73v-.06l-.27-.39-.2-.2-.09.2a22.56 22.56 0 1 0 40.87-.76zM21.88 46h8.49v11.18c-2.39-.4-4.67-2.46-6.44-5.82A25.94 25.94 0 0 1 21.88 46zm-9.18 0h7.4a27.62 27.62 0 0 0 2.31 6.2 16.46 16.46 0 0 0 3.15 4.31A20.82 20.82 0 0 1 12.7 46zm19.39-19.13V15.64c2.39.4 4.68 2.47 6.44 5.83a26.51 26.51 0 0 1 2.06 5.4z" style="fill: #003369;"/><path fill="#003369" d="M36.88 38a2.48 2.48 0 1 0 2.47 2.47A2.47 2.47 0 0 0 36.88 38zm.75 2.47a.75.75 0 1 1-.75-.75.75.75 0 0 1 .75.76z" style="fill: #003369;"/><path fill="#003369" d="M38.26 49A22 22 0 0 0 40 47a11.17 11.17 0 0 0 2.6-6.5 5.72 5.72 0 1 0-11.44 0 11.11 11.11 0 0 0 2.6 6.5 21.77 21.77 0 0 0 1.74 2l.58.58.14.13.08.06.07.15v-.05a.86.86 0 0 0 .47.14.89.89 0 0 0 .49-.16l.07-.05.09-.08.14-.13c.19-.11.37-.3.63-.59zm2.62-8.53A9.92 9.92 0 0 1 38.62 46 18.35 18.35 0 0 1 37 47.85l-.14.14-.14-.14A21.26 21.26 0 0 1 35.14 46a9.92 9.92 0 0 1-2.26-5.46 4 4 0 0 1 6.83-2.83 4.06 4.06 0 0 1 1.17 2.8z" style="fill: #003369;"/></svg>
