<?xml version="1.0" encoding="UTF-8"?>
<svg xmlns="http://www.w3.org/2000/svg" data-name="Layer 1" viewBox="0 0 64 64"><path fill="none" stroke="#003369" stroke-miterlimit="10" stroke-width="2" d="M19.11 53.45l-12 7.09m38-7.09l11.74 6.93M15.11 3.46a3 3 0 0 0-3 3v14.37c-2.33.82-2 4-2 6.63v20a6 6 0 0 0 6 6h32a6 6 0 0 0 6-6v-20c0-2.61.32-5.81-2-6.63V6.46a3 3 0 0 0-3-3zm-5 34h44" style="stroke: #003369;"/><circle cx="20.11" cy="27.45" r="2" fill="none" stroke="#003369" stroke-miterlimit="10" stroke-width="2" style="stroke: #003369;"/><circle cx="44.11" cy="27.45" r="2" fill="none" stroke="#003369" stroke-miterlimit="10" stroke-width="2" style="stroke: #003369;"/><path fill="none" stroke="#003369" stroke-miterlimit="10" stroke-width="2" d="M12.11 15.45h40M32.11 4.01v11.08M11.27 58.1h41.72" style="stroke: #003369;"/></svg>
