<?xml version="1.0" encoding="UTF-8"?>
<svg xmlns="http://www.w3.org/2000/svg" data-name="Layer 1" viewBox="0 0 64 64"><path fill="none" stroke="#003369" stroke-width="2" d="M-111.84 41.94H-119m8.4-3.51h-4.28m14.5-7.14h-11.21v-5.65m-9 12.79h5.69V25.57h8.49l3.15 5.72h2.78c.57 0 1.29.14 1.29 1V42h-4.87m-24.73-16l-21.66 16h4.61m7.65 0h11m73.24 0h11m69.22 0h15.88" style="stroke: #003369;"/><path fill="none" stroke="#003369" stroke-miterlimit="10" stroke-width="2" d="M5.03 18.88h46.08v18.4H5.03z" style="stroke: #003369;"/><circle cx="46.02" cy="41.24" r="3.89" fill="none" stroke="#003369" stroke-width="2" style="stroke: #003369;"/><circle cx="22.52" cy="41.24" r="3.89" fill="none" stroke="#003369" stroke-width="2" style="stroke: #003369;"/><circle cx="10.42" cy="41.24" r="3.89" fill="none" stroke="#003369" stroke-width="2" style="stroke: #003369;"/><path fill="none" stroke="#003369" stroke-miterlimit="10" stroke-width="2" d="M10.01 33.96V22.75M15.11 33.96V22.75M20.21 33.96V22.75M25.31 33.96V22.75M30.41 33.96V22.75M35.5 33.96V22.75M40.6 33.96V22.75M45.7 33.96V22.75" style="stroke: #003369;"/><path fill="none" stroke="#003369" stroke-width="2" d="M54.73 33.23h3.24v5.6h-3.24zM56.13 33.21v-6.19M58.97 40.17h-9.15M14.11 41.89h4.62" style="stroke: #003369;"/></svg>
