<?xml version="1.0" encoding="UTF-8"?>
<svg xmlns="http://www.w3.org/2000/svg" aria-describedby="desc" aria-labelledby="title" viewBox="0 0 64 64"><rect width="16" height="12" x="10" y="24" fill="none" stroke="#003369" stroke-width="2" data-name="layer1" rx="3" ry="3" style="stroke: #003369;"/><path fill="none" stroke="#003369" stroke-width="2" d="M13 50H5a3 3 0 0 1-3-3V13a3 3 0 0 1 3-3h32a3.8 3.8 0 0 1 2.1.9l12.4 12.3c1.2 1.3 2.5 2.1 2.5 4.8v19a3 3 0 0 1-3 3H21" data-name="layer2" style="stroke: #003369;"/><path fill="none" stroke="#003369" stroke-width="2" d="M32 50V24h12v26m7 0h11v-6" data-name="layer2" style="stroke: #003369;"/><circle cx="17" cy="53" r="5" fill="none" stroke="#003369" stroke-width="2" data-name="layer1" style="stroke: #003369;"/></svg>
