<svg xmlns="http://www.w3.org/2000/svg" data-name="Layer 1" viewBox="0 0 64 64"><circle cx="48.99" cy="31.81" r="9.31" fill="none" stroke="#003369" stroke-miterlimit="10" stroke-width="2"/><path fill="none" stroke="#003369" stroke-miterlimit="10" stroke-width="2" d="M48.99 32.44v25.93"/><path fill="#fff" stroke="#003369" stroke-miterlimit="10" stroke-width="2" d="M49.12 37.86l5.7-5.7"/><path fill="none" stroke="#003369" stroke-miterlimit="10" stroke-width="2" d="M48.86 37.86l-5.7-5.7M35.6 25.93v32.44M32 33.69a8 8 0 0 0-3.81-6.8 8 8 0 0 0-15.45 2.74 8.83 8.83 0 0 0 .13 1.47A8 8 0 1 0 18 45.7a8 8 0 0 0 13.23-8.62 8 8 0 0 0 .77-3.39z"/><path fill="none" stroke="#003369" stroke-miterlimit="10" stroke-width="2" d="M39.68 31.81a9.31 9.31 0 0 1 6.6-8.91c-.34-9.64-5-17.27-10.68-17.27s-10.32 7.62-10.68 17.25a7.92 7.92 0 0 1 3.29 4 8 8 0 0 1 3.05 10.19 8 8 0 0 1 .76 3.4 8.46 8.46 0 0 1-.05.87 6.81 6.81 0 0 0 3.63 1.11c2.57 0 4.91-1.55 6.76-4.12a9.26 9.26 0 0 1-2.68-6.52zM21.2 34.22v24.15"/><path fill="#fff" stroke="#003369" stroke-miterlimit="10" stroke-width="2" d="M21.2 43.22l4.99-4.99"/><path fill="none" stroke="#003369" stroke-miterlimit="10" stroke-width="2" d="M21.07 40.02l-5.96-4.18"/></svg>