<?xml version="1.0" encoding="UTF-8"?>
<svg xmlns="http://www.w3.org/2000/svg" viewBox="0 0 36.93 68.27"><rect width="36.93" height="15.54" y="30.08" fill="#1d3767" rx="7.77" ry="7.77" style="fill: #003369;"/><text fill="#fff" font-family="Arial-BoldMT,Arial" font-size="11.82" transform="translate(6.42 42.02)"><tspan x="0" y="0">TRO</tspan></text><text fill="#1d3767" font-family="Arial-BoldMT,Arial" font-size="11.82" transform="translate(5.31 63.81)"><tspan x="0" y="0">xxxx</tspan></text><g stroke-miterlimit="10"><g fill="#fff" stroke="#1d3768" stroke-width=".6"><path d="M27.51 5.48l.89.89a.658.658 0 0 0 .93-.93l-2.21-2.21c-.4-.4-.85-.44-1.32.03l-.14.14c-.26.25-.68.24-.93-.02a.665.665 0 0 1 0-.91l.47-.46c.54-.54.84-.73 1.3-.73h.71l2.93 2.92-1.03 1.03" style="fill: #003369;"/><path d="M27.51 5.48l1.13 1.13c.26.26.26.67 0 .93s-.67.26-.93 0l-1.03-1.03M26.68 6.51l.79.79c.25.27.23.68-.03.93-.25.24-.65.24-.9 0l-.47-.47M26.13 7.82l.23.23c.25.26.24.68-.02.93-.25.24-.65.24-.91 0l-.23-.23m-3.87-3.53l-1.06-1.06 2.64-2.64s.35.41.65.41c.36 0 .45-.12.66-.33.35-.35.88-.34 1.32.1" style="fill: #003369;"/><path d="M22.5 5.91c.27-.25.28-.67.03-.93a.652.652 0 0 0-.93-.03l-.03.03-.46.47c-.25.26-.24.68.02.93.25.24.66.24.91 0l.46-.47z" style="fill: #003369;"/><path d="M23.44 6.84c.26-.26.26-.67 0-.93a.652.652 0 0 0-.93 0h0l-.7.7c-.25.26-.24.68.02.93.25.24.66.24.91 0l.7-.7zm.93.93c.25-.26.24-.68-.03-.93a.653.653 0 0 0-.9 0l-.47.47c-.25.26-.24.68.02.93.25.24.65.24.91 0l.46-.46z" style="fill: #003369;"/><path d="M25.25 8.75c.26-.26.26-.67 0-.93a.652.652 0 0 0-.93 0h0l-.23.23c-.25.26-.25.68.02.93.26.25.66.25.91 0l.23-.23z" style="fill: #003369;"/></g><path fill="none" stroke="#1d3767" stroke-width=".65" d="M11.38 4.56s.8 3.21-2.54 5.1" style="stroke: #003369;"/><g fill="none" stroke="#1d3768" stroke-width=".75"><path d="M15.89 4.13v-.05c0-.32.1-.63.28-.9.11-.18.18-.39.19-.6 0-.21-.07-.42-.19-.6a1.62 1.62 0 0 1-.28-.9m1.27 3.05v-.05c0-.32.1-.63.28-.9.11-.18.18-.39.19-.6 0-.21-.07-.42-.19-.6-.18-.27-.27-.58-.28-.9M4.86 12.11h1.65v1.65H4.86v-1.65zm3.6 0h1.65v1.65H8.46v-1.65zm5.43 0h1.65v1.65h-1.65v-1.65zm3.6 0h1.65v1.65h-1.65v-1.65z" style="fill: #003369;"/><path d="M7.49 9.55V7.44L2.98 9.55v9.03H12V7.44L7.48 9.55zm4.52.75h9.03v8.28H12V10.3zm5.72 0V5.04h-2.41v5.27" style="fill: #003369;"/><path d="M18.4 18.58v-2.63h-3.76v2.63" style="fill: #003369;"/></g><g fill="#fff" stroke="#1d3768" stroke-width=".75"><circle cx="6.75" cy="5.1" r="4.72" style="fill: #003369;"/><path d="M6.75 1.64l.06 3.62 2.24 1.1" style="fill: #003369;"/></g></g></svg>
