<?xml version="1.0" encoding="UTF-8"?>
<svg xmlns="http://www.w3.org/2000/svg" viewBox="0 0 64 64"><path fill="#003369" d="M60.95 57.53h-5.03v-2h5.03v2zm-14.36 0h-21.1v-2h21.1v2zm16.18-3.43h-7.98v-2h5.98v-6.38c0-.08-.01-.12-.01-.13 0 .01-.12-.07-.53-.07H45.87v-6.86h-1.96V52.1h4.14v2H23.76v-2h18.13V31.81h-2.98v-2h4.98v6.86h9.8l3.77 6.86h2.85c1.8.04 2.44 1.16 2.44 2.2v8.38zM47.86 43.52h7.33l-2.67-4.86h-4.66v4.86zM17.33 54.1h-6.3V38.57h2V52.1h4.3v2z" style="fill: #003369;"/><path fill="#003369" d="M20.55 62.15c-3.13 0-5.67-2.54-5.67-5.67s2.54-5.67 5.67-5.67 5.67 2.54 5.67 5.67-2.54 5.67-5.67 5.67zm0-9.34c-2.02 0-3.67 1.65-3.67 3.67s1.65 3.67 3.67 3.67 3.67-1.65 3.67-3.67-1.65-3.67-3.67-3.67zM51.25 62.15c-3.13 0-5.67-2.54-5.67-5.67s2.54-5.67 5.67-5.67 5.67 2.54 5.67 5.67-2.54 5.67-5.67 5.67zm0-9.34c-2.02 0-3.67 1.65-3.67 3.67s1.65 3.67 3.67 3.67 3.67-1.65 3.67-3.67-1.65-3.67-3.67-3.67zM21.7 42.06c-11.29 0-20.46-9.02-20.46-20.11s9.17-20.1 20.46-20.1 20.46 9.02 20.46 20.1-9.18 20.1-20.46 20.1zm0-38.2C11.52 3.85 3.24 11.97 3.24 21.95s8.28 18.1 18.46 18.1 18.46-8.12 18.46-18.1-8.28-18.1-18.46-18.1z" style="fill: #003369;"/><g fill="#003369"><path d="M28.425 23.428l1.914-.581 1.682 5.54-1.914.581zM25.389 21.304l1.916-.573 2.292 7.675-1.916.573z" style="fill: #003369;"/><path d="M33.39 31.83h-5.18c-.17 0-1.42-.07-2.3-1.21-.17-.21-.47-.6-1.72-4.54l-3.01-.02c-.8 0-1.61 0-2.41-.02-1.48-.02-2.55-.98-2.55-2.28V21.3h-4.95v-1.35h-2.9v-5.58h18.91c.06-.91.82-1.64 1.75-1.64h1.05c.97 0 1.76.79 1.76 1.76v.2c1 .25 1.68 1.09 1.68 2.09v3.27c0 .75-.38 1.41-.97 1.8l2.47 7.14c.07.18.45 1.28-.12 2.11-.19.27-.63.73-1.52.73zM13.27 19.31h4.95v4.46c0 .26.57.27.58.27.8.01 1.6.01 2.39.02l4.47.03.22.69c1.22 3.89 1.58 4.54 1.63 4.63.29.37.74.41.75.41h4.93c-.01-.06-.03-.11-.04-.16l-3.32-9.58 1.62.12s.08-.08.08-.16v-3.27c0-.08-.07-.14-.14-.15h-1.54v-1.9h-.57v1.64h-18.9v1.58h2.9v1.35z" style="fill: #003369;"/><path d="M25.69 23.67h-6.98l.03-4.48h5.87l.19.76c.03.13.07.31.12.54.09.44.23 1.08.45 1.93l.32 1.25zm-4.96-2h2.4c-.04-.17-.07-.33-.1-.48h-2.3v.48z" style="fill: #003369;"/></g></svg>
