<?xml version="1.0" encoding="UTF-8"?>
<svg xmlns="http://www.w3.org/2000/svg" viewBox="0 0 64 64"><path fill="none" stroke="#003369" stroke-miterlimit="10" stroke-width="2" d="M46.59 56.53h-21.1m35.46 0h-5.03m-7.89-3.43h-5.14m0-15.44H53.1l3.77 6.86h3.34c.69 0 1.54.17 1.54 1.2v7.38h-6.98m5.53-8.58H46.84v-6.78m-7.93-6.94h3.98v22.3H23.76M17.33 53.11h-5.3V38.58" style="stroke: #003369;"/><circle cx="20.55" cy="56.48" r="4.67" fill="none" stroke="#003369" stroke-miterlimit="10" stroke-width="2" style="stroke: #003369;"/><circle cx="51.25" cy="56.48" r="4.67" fill="none" stroke="#003369" stroke-miterlimit="10" stroke-width="2" style="stroke: #003369;"/><ellipse cx="21.7" cy="21.95" fill="none" stroke="#003369" stroke-miterlimit="10" stroke-width="2" rx="19.46" ry="19.1" style="stroke: #003369;"/><path fill="none" stroke="#003369" stroke-miterlimit="10" stroke-width="2" d="M25.34 22.38l.79-6.11c.14-1.3-.81-2.47-2.11-2.61s-2.42.77-2.59 2.02c0 .03 0 .06-.01.09l-.5-.46.24-1.19-1.37-1.23a5.06 5.06 0 0 1 9.1 3.54l-.7 5.91M14.95 14.68l-4.62-.71M15.88 11.86L11.76 8.7M18.8 10.56L19.03 6M17.03 22.45v-5.84c0-.31.03-.61.08-.9l1.15.47h.09l.03.89 1.53 1.2v4.16" style="stroke: #003369;"/><circle cx="22.32" cy="27.38" r=".76" fill="none" stroke="#003369" stroke-miterlimit="10" stroke-width="2" style="stroke: #003369;"/><path fill="none" stroke="#003369" stroke-miterlimit="10" stroke-width="2" d="M22.32 31.57v-3.42M15.92 22.45H28.7c1.32 0 2.4 1.05 2.4 2.33v7.78c0 1.29-1.07 2.33-2.4 2.33H15.92c-1.32 0-2.4-1.05-2.4-2.33v-7.78c0-1.29 1.07-2.33 2.4-2.33z" style="stroke: #003369;"/></svg>
