<?xml version="1.0" encoding="UTF-8"?>
<svg xmlns="http://www.w3.org/2000/svg" data-name="Layer 1" viewBox="0 0 64 64"><path fill="none" stroke="#003369" stroke-miterlimit="10" stroke-width="2" d="M35.54 25.42c3 2.11 12.72 2.76 12.72 2.76v3.28H1.81v-2.62zM56.9 39.5H45.99M50.99 34.15H40.05l-2.61 3.42H.74" style="stroke: #003369;"/><path fill="none" stroke="#003369" stroke-miterlimit="10" stroke-width="2" d="M50.08 22.68l.91 1.82v15" style="stroke: #003369;"/><circle cx="58.72" cy="39.5" r="1.82" fill="none" stroke="#003369" stroke-miterlimit="10" stroke-width="2" style="stroke: #003369;"/><circle cx="44.17" cy="39.5" r="1.82" fill="none" stroke="#003369" stroke-miterlimit="10" stroke-width="2" style="stroke: #003369;"/><circle cx="39.36" cy="39.5" r="1.82" fill="none" stroke="#003369" stroke-miterlimit="10" stroke-width="2" style="stroke: #003369;"/><circle cx="29.19" cy="39.5" r="1.82" fill="none" stroke="#003369" stroke-miterlimit="10" stroke-width="2" style="stroke: #003369;"/><circle cx="19.78" cy="39.5" r="1.82" fill="none" stroke="#003369" stroke-miterlimit="10" stroke-width="2" style="stroke: #003369;"/><circle cx="24.39" cy="39.5" r="1.82" fill="none" stroke="#003369" stroke-miterlimit="10" stroke-width="2" style="stroke: #003369;"/><circle cx="8.96" cy="39.5" r="1.82" fill="none" stroke="#003369" stroke-miterlimit="10" stroke-width="2" style="stroke: #003369;"/><circle cx="4.16" cy="39.5" r="1.82" fill="none" stroke="#003369" stroke-miterlimit="10" stroke-width="2" style="stroke: #003369;"/><path fill="none" stroke="#003369" stroke-miterlimit="10" stroke-width="2" d="M58.72 33.59V29.5M56 29.5v4.09h2.73l3.81.76a.91.91 0 0 1 .73.9v4.25h-2.74M51 26.32v3.18h7.73c-.5-.77-2.81-3.15-7.73-3.18zM48.26 36.77l-4.11.02v-2.62l4.11-.02v2.62zM22.45 31.24v6.44M26.63 31.24v6.44M22.45 34.45h4.18M4.61 31.4v6.28M8.8 31.4v6.28M4.61 34.45H8.8M48.26 34.61v-8.64" style="stroke: #003369;"/></svg>
