<?xml version="1.0" encoding="UTF-8"?>
<svg xmlns="http://www.w3.org/2000/svg" viewBox="0 0 64 64"><path fill="none" stroke="#003369" stroke-width="2" d="M23.4 42h11" style="stroke: #003369;"/><path fill="none" stroke="#003369" stroke-miterlimit="10" stroke-width="2" d="M2.1 18.9h40.4v18.4H2.1z" style="stroke: #003369;"/><path fill="none" stroke="#003369" stroke-width="2" d="M49.8 41.9h-7.2m8.4-3.5h-4.3m14.5-7.1H50v-5.7m-9 12.8h5.7V25.6h8.5l3.1 5.7h2.8c.6 0 1.3.1 1.3 1V42h-4.8m-46.4-.1h4.6m17-15.9" style="stroke: #003369;"/><circle cx="38.3" cy="41.2" r="3.9" fill="none" stroke="#003369" stroke-width="2" style="stroke: #003369;"/><circle cx="19.6" cy="41.2" r="3.9" fill="none" stroke="#003369" stroke-width="2" style="stroke: #003369;"/><circle cx="7.5" cy="41.2" r="3.9" fill="none" stroke="#003369" stroke-width="2" style="stroke: #003369;"/><circle cx="53.7" cy="41.2" r="3.9" fill="none" stroke="#003369" stroke-width="2" style="stroke: #003369;"/><path fill="none" stroke="#003369" stroke-miterlimit="10" stroke-width="2" d="M7.3 34V22.8M12.3 34V22.8M17.2 34V22.8M22.2 34V22.8M27.2 34V22.8M32.2 34V22.8M37.1 34V22.8" style="stroke: #003369;"/></svg>
