<?xml version="1.0" encoding="UTF-8"?>
<svg xmlns="http://www.w3.org/2000/svg" aria-describedby="desc" aria-labelledby="title" viewBox="0 0 64 64"><path fill="none" stroke="#003369" stroke-miterlimit="10" stroke-width="2" d="M32 6V2m8 56a4 4 0 0 1-4 4 4 4 0 0 1-4-4V36" data-name="layer2" style="stroke: #003369;"/><path fill="none" stroke="#003369" stroke-miterlimit="10" stroke-width="2" d="M2 36a30 30 0 1 1 60 0M2 36a9 9 0 0 1 15 0m0 0a9 9 0 0 1 15 0m0 0a9 9 0 0 1 15 0m0 0a9 9 0 0 1 15 0" data-name="layer1" style="stroke: #003369;"/></svg>
