<?xml version="1.0" encoding="UTF-8"?>
<svg xmlns="http://www.w3.org/2000/svg" aria-describedby="desc" aria-labelledby="title" viewBox="0 0 64 64"><path fill="none" stroke="#003369" stroke-miterlimit="10" stroke-width="2" d="M52.4 50l4.6 5 5-5m-24 0l-5-5-4.6 5" data-name="layer2" style="stroke: #003369;"/><path fill="none" stroke="#003369" stroke-miterlimit="10" stroke-width="2" d="M50.9 60.6a11.8 11.8 0 0 1-14.1-2.1A12.1 12.1 0 0 1 34 46m5.6-6.6a11.8 11.8 0 0 1 14.1 2.1A12.1 12.1 0 0 1 56.4 54" data-name="layer2" style="stroke: #003369;"/><path fill="none" stroke="#003369" stroke-miterlimit="10" stroke-width="2" d="M53.9 41.9L58 22M6.1 22L12 52h10m4-50L8.1 22M38 2l18 20M2 22h60" data-name="layer1" style="stroke: #003369;"/></svg>
