<?xml version="1.0" encoding="UTF-8"?>
<svg xmlns="http://www.w3.org/2000/svg" aria-describedby="desc" aria-labelledby="title" viewBox="0 0 64 64"><path fill="none" stroke="#003369" stroke-miterlimit="10" stroke-width="2" d="M52.4 18l4.6 5 5-5m-24 0l-5-5-4.6 5" data-name="layer2" style="stroke: #003369;"/><path fill="none" stroke="#003369" stroke-miterlimit="10" stroke-width="2" d="M50.9 28.6a11.8 11.8 0 0 1-14.1-2.1A12.1 12.1 0 0 1 34 14m5.6-6.6a11.8 11.8 0 0 1 14 2.1A12.1 12.1 0 0 1 56.4 22" data-name="layer2" style="stroke: #003369;"/><path fill="none" stroke="#003369" stroke-miterlimit="10" stroke-width="2" d="M24 22H12M2 6h6l10 40h32l3.7-11.5" data-name="layer1" style="stroke: #003369;"/><circle cx="20" cy="54" r="4" fill="none" stroke="#003369" stroke-miterlimit="10" stroke-width="2" data-name="layer1" style="stroke: #003369;"/><circle cx="46" cy="54" r="4" fill="none" stroke="#003369" stroke-miterlimit="10" stroke-width="2" data-name="layer1" style="stroke: #003369;"/></svg>
