<?xml version="1.0" encoding="UTF-8"?>
<svg xmlns="http://www.w3.org/2000/svg" aria-describedby="desc" aria-labelledby="title" viewBox="0 0 64 64"><path fill="none" stroke="#003369" stroke-width="2" d="M32 54v9" data-name="layer2" style="stroke: #003369;"/><path fill="none" stroke="#003369" stroke-width="2" d="M40 21H24a6 6 0 0 0-6 6v15a12 12 0 0 0 12 12h4a12 12 0 0 0 12-12V27a6 6 0 0 0-6-6zm-8 0v13" data-name="layer1" style="stroke: #003369;"/><circle cx="32" cy="11" r="5" fill="none" stroke="#003369" stroke-width="2" data-name="layer2" style="stroke: #003369;"/><path fill="none" stroke="#003369" stroke-width="2" d="M8 10h8c4 0 7.4-8 16-8s11.9 8 16 8h8m-40 0s12 7 12 11m20-11s-12 6.6-12 11" data-name="layer1" style="stroke: #003369;"/></svg>
