<?xml version="1.0" encoding="UTF-8"?>
<svg xmlns="http://www.w3.org/2000/svg" aria-describedby="desc" aria-labelledby="title" viewBox="0 0 64 64"><path fill="none" stroke="#003369" stroke-miterlimit="10" stroke-width="2" d="M51.7 15L48 5 20.5 15" data-name="layer1" style="stroke: #003369;"/><path fill="none" stroke="#003369" stroke-miterlimit="10" stroke-width="2" d="M58 43v13a3 3 0 0 1-3 3H5a3 3 0 0 1-3-3V18a3 3 0 0 1 3-3h50a3 3 0 0 1 3 3v13" data-name="layer2" style="stroke: #003369;"/><rect width="20" height="12" x="42" y="31" fill="none" stroke="#003369" stroke-miterlimit="10" stroke-width="2" data-name="layer1" rx="2" ry="2" style="stroke: #003369;"/><path fill="none" stroke="#003369" stroke-miterlimit="10" stroke-width="2" d="M12 21h2m8 0h2m8 0h2m8 0h2M16 53h2m8 0h2m8 0h2m8 0h2" data-name="layer2" style="stroke: #003369;"/><circle cx="49" cy="37" r="1" fill="none" stroke="#003369" stroke-miterlimit="10" stroke-width="2" data-name="layer1" style="stroke: #003369;"/></svg>
