<?xml version="1.0" encoding="UTF-8"?>
<svg xmlns="http://www.w3.org/2000/svg" data-name="Layer 1" viewBox="0 0 64 64"><path fill="none" stroke="#003369" stroke-miterlimit="10" stroke-width="2" d="M13.41 19.87l15.12 11.31M28.53 19.87L13.41 31.18M13.41 46.16l15.12 11.3M28.53 46.16l-15.12 11.3M13.44 1.3v61.4M28.5 1.3v61.4M13.44 3.68H28.5v10.13H13.44z" style="stroke: #003369;"/><text fill="#003369" font-family="Arial-Black,Arial Black" font-size="7" font-weight="800" transform="translate(18.25 11.17)">C</text><path fill="none" stroke="#003369" stroke-miterlimit="10" stroke-width="2" d="M13.47 37.97h14.99M35.47 19.87l15.12 11.31M50.59 19.87L35.47 31.18M35.47 46.16l15.12 11.3M50.59 46.16l-15.12 11.3M35.51 1.3v61.4M50.56 1.3v61.4M35.5 3.68h15.06v10.13H35.5z" style="stroke: #003369;"/><text fill="#003369" font-family="Arial-Black,Arial Black" font-size="7" font-weight="800" transform="translate(40.32 11.17)">D</text><path fill="none" stroke="#003369" stroke-miterlimit="10" stroke-width="2" d="M35.54 37.97h14.99" style="stroke: #003369;"/></svg>
