<?xml version="1.0" encoding="UTF-8"?>
<svg xmlns="http://www.w3.org/2000/svg" data-name="Layer 1" viewBox="0 0 64 64"><path fill="none" stroke="#003369" stroke-miterlimit="10" stroke-width="2" d="M9.56 1.26v61.47M25.72 1.26v61.48M6.65 29.98v-5.12M6.65 23.74v-5.13M6.65 34.87v-3.65M6.65 57.84v-5.12M6.65 62.73v-3.65M6.65 51.6v-5.13M6.65 45.25v-5.13M28.56 29.98v-5.12M28.56 23.73v-5.12M28.56 34.87v-3.66M28.56 57.85v-5.12M28.56 62.74v-3.66M28.56 51.6v-5.12M28.56 45.25v-5.13M12.34 33.34h1.29v.53h-1.29zM21.72 33.34h1.3v.53h-1.3zM12.34 32.22h10.67v.63H12.34zM16.55 33.34h2.25v.53h-2.25zM11.56 28.99h3.3v-3.15h-3.3M15.68 25.84h4v3.15h-4zM23.8 25.84h-3.29v3.15h3.29M11.56 22.76h3.3v-3.15h-3.3M15.68 19.61h4v3.15h-4zM23.8 19.61h-3.29v3.15h3.29M11.53 36.71h12.3M12.38 61.22h1.28v.53h-1.28zM21.69 61.22h1.29v.53h-1.29zM12.38 60.1h10.59v.63H12.38zM16.56 61.22h2.24v.53h-2.24zM11.56 56.87h3.3v-3.15h-3.3M15.68 53.72h4v3.15h-4zM23.8 53.72h-3.29v3.15h3.29M11.56 50.64h3.3v-3.15h-3.3M15.68 47.49h4v3.15h-4zM23.8 47.49h-3.29v3.15h3.29M11.56 44.28h3.3v-3.15h-3.3M15.68 41.13h4v3.15h-4zM23.8 41.13h-3.29v3.15h3.29" style="stroke: #003369;"/><text fill="#003369" font-family="Arial-Black,Arial Black" font-size="7" font-weight="800" transform="translate(15.05 11.13)">A</text><path fill="none" stroke="#003369" stroke-miterlimit="10" stroke-width="2" d="M9.66 14.19h16.11M9.66 3.38h16.11M38.35 1.26v61.47M54.51 1.26v61.48M35.44 29.98v-5.12M35.44 23.74v-5.13M35.44 34.87v-3.65M35.44 57.84v-5.12M35.44 62.73v-3.65M35.44 51.6v-5.13M35.44 45.25v-5.13M57.35 29.98v-5.12M57.35 23.73v-5.12M57.35 34.87v-3.66M57.35 57.85v-5.12M57.35 62.74v-3.66M57.35 51.6v-5.12M57.35 45.25v-5.13M41.13 33.34h1.29v.53h-1.29zM50.51 33.34h1.3v.53h-1.3zM41.13 32.22H51.8v.63H41.13zM45.34 33.34h2.25v.53h-2.25zM40.35 28.99h3.3v-3.15h-3.3M44.47 25.84h4v3.15h-4zM52.59 25.84H49.3v3.15h3.29M40.35 22.76h3.3v-3.15h-3.3M44.47 19.61h4v3.15h-4zM52.59 19.61H49.3v3.15h3.29M40.32 36.71h12.29M41.17 61.22h1.28v.53h-1.28zM50.48 61.22h1.29v.53h-1.29zM41.16 60.1h10.59v.63H41.16zM45.34 61.22h2.24v.53h-2.24zM40.35 56.87h3.3v-3.15h-3.3M44.47 53.72h4v3.15h-4zM52.59 53.72H49.3v3.15h3.29M40.35 50.64h3.3v-3.15h-3.3M44.47 47.49h4v3.15h-4zM52.59 47.49H49.3v3.15h3.29M40.35 44.28h3.3v-3.15h-3.3M44.47 41.13h4v3.15h-4zM52.59 41.13H49.3v3.15h3.29" style="stroke: #003369;"/><text fill="#003369" font-family="Arial-Black,Arial Black" font-size="7" font-weight="800" transform="translate(43.84 11.13)">B</text><path fill="none" stroke="#003369" stroke-miterlimit="10" stroke-width="2" d="M38.45 14.19h16.11M38.45 3.38h16.11" style="stroke: #003369;"/></svg>
