<?xml version="1.0" encoding="UTF-8"?>
<svg xmlns="http://www.w3.org/2000/svg" data-name="Layer 1" viewBox="0 0 64 64"><path fill="none" stroke="#003369" stroke-miterlimit="10" stroke-width="2" d="M35.6 10.4v4.8H21.2v-4.8" style="stroke: #003369;"/><path fill="none" stroke="#003369" stroke-miterlimit="10" stroke-width="2" d="M3.2 17.6l15.6-7.2h16.8V5.6a2.39 2.39 0 0 0-2.4-2.4H20.38a7.33 7.33 0 0 0-3 .66L3.2 10.4M21.2 18.8V32M26 18.8v9.6M30.8 18.8v4.8M45 54.8l-13.66 5.79a2.49 2.49 0 0 1-3.08-.86 2.4 2.4 0 0 1 1.09-3.51" style="stroke: #003369;"/><path fill="none" stroke="#003369" stroke-miterlimit="10" stroke-width="2" d="M22 54.15a2.4 2.4 0 0 0 1.87 4.42l8.87-3.77M19.43 50l-1.57.67a2.4 2.4 0 1 0 1.88 4.41l3.1-1.31M30.58 31.53a13.91 13.91 0 0 1-1.6.13 4 4 0 0 0-2.06.53 2.38 2.38 0 0 0-.92 2.35 2.33 2.33 0 0 0 .47 1.06M60.8 27.2l-9 3.48a4.83 4.83 0 0 1-2.63.32l-4-.63" style="stroke: #003369;"/><path fill="none" stroke="#003369" stroke-miterlimit="10" stroke-width="2" d="M60.8 52.4h-6.28a4.94 4.94 0 0 0-1.78.34l-3 1.2a12 12 0 0 1-4.46.86H24.93a2.49 2.49 0 0 1-2.5-2A2.4 2.4 0 0 1 24.8 50" style="stroke: #003369;"/><path fill="none" stroke="#003369" stroke-miterlimit="10" stroke-width="2" d="M18.8 45.2a2.4 2.4 0 0 0 0 4.8h16.8M18.8 40.4a2.4 2.4 0 0 1 0-4.8h21.6M34.4 40.4h-18a2.4 2.4 0 1 0 0 4.8h18" style="stroke: #003369;"/><path fill="none" stroke="#003369" stroke-miterlimit="10" stroke-width="2" d="M60.8 35.6H55a4.81 4.81 0 0 1-2.55-.73L45 30.19a4.92 4.92 0 0 0-2-.7 43.58 43.58 0 0 1-9.37-1.91 3.84 3.84 0 0 0-2.1-.32 2.4 2.4 0 0 0-.53 4.52l9.4 3.82" style="stroke: #003369;"/></svg>
