<?xml version="1.0" encoding="UTF-8"?>
<svg xmlns="http://www.w3.org/2000/svg" aria-describedby="desc" aria-labelledby="title" viewBox="0 0 64 64"><path fill="none" stroke="#003369" stroke-miterlimit="10" stroke-width="2" d="M42 22h10a10 10 0 0 1 10 10 10 10 0 0 1-10 10H36a10 10 0 0 1-10-10 10 10 0 0 1 .2-2" data-name="layer2" style="stroke: #003369;"/><path fill="none" stroke="#003369" stroke-miterlimit="10" stroke-width="2" d="M22 42H12A10 10 0 0 1 2 32a10 10 0 0 1 10-10h16a10 10 0 0 1 10 10 10 10 0 0 1-.2 2" data-name="layer1" style="stroke: #003369;"/></svg>
