<?xml version="1.0" encoding="UTF-8"?>
<svg xmlns="http://www.w3.org/2000/svg" data-name="Layer 1" viewBox="0 0 64 64"><path fill="none" stroke="#003369" stroke-width="2" d="M6 46.87l-4 6v2h60v-2l-4-6M6 12.87h52v34H6z" style="stroke: #003369;"/><path fill="none" stroke="#003369" stroke-width="2" d="M36.15 31.87a10.72 10.72 0 0 0 4 1v4l4.9-4.9c3-1.35 5.1-4 5.1-7.1 0-4.4-4.25-8-9.5-8s-9.5 3.6-9.5 8c0 0 .05.65.1 1" style="stroke: #003369;"/><circle cx="40.65" cy="24.87" r=".5" fill="none" stroke="#003369" stroke-width="2" style="stroke: #003369;"/><circle cx="36.65" cy="24.87" r=".5" fill="none" stroke="#003369" stroke-width="2" style="stroke: #003369;"/><circle cx="44.65" cy="24.87" r=".5" fill="none" stroke="#003369" stroke-width="2" style="stroke: #003369;"/><path fill="none" stroke="#003369" stroke-width="2" d="M37.85 43c-4.1-.7-3.7-1.75-3.7-2.45v-1.23a6.93 6.93 0 0 0 2-5v-3.4a4.74 4.74 0 0 0-5-5.05 4.74 4.74 0 0 0-5 5.05v3.35a6.89 6.89 0 0 0 2.05 5v1.25c0 .7.35 1.75-3.7 2.45s-4.35 2.85-4.35 3.85h22c0-.95-.65-3.15-4.3-3.82z" style="stroke: #003369;"/></svg>
