<?xml version="1.0" encoding="UTF-8"?>
<svg xmlns="http://www.w3.org/2000/svg" aria-describedby="desc" aria-labelledby="title" viewBox="0 0 64 64"><rect width="60" height="60" x="2" y="1.994" fill="none" stroke="#003369" stroke-miterlimit="10" stroke-width="2" data-name="layer2" rx="5" ry="5" style="stroke: #003369;"/><path fill="none" stroke="#003369" stroke-miterlimit="10" stroke-width="2" d="M42 25.994H22l-9-15a41.176 41.176 0 0 1 18.561-4c6.983 0 13.661.962 19.439 4zm-10 0l4-13m-4-5.998v3.998" data-name="layer2" style="stroke: #003369;"/><path fill="none" stroke="#003369" stroke-miterlimit="10" stroke-width="2" d="M28.9 48.774l-2-11.909a7 7 0 1 0-13.8 2.351l2 11.909a7 7 0 1 0 13.8-2.351zM45.27 31.1a6.982 6.982 0 0 0-8.066 5.7l-2.096 11.9a7.064 7.064 0 0 0 5.622 8.18 6.982 6.982 0 0 0 8.066-5.7l2.095-11.9a7.064 7.064 0 0 0-5.621-8.18z" data-name="layer1" style="stroke: #003369;"/></svg>
