<?xml version="1.0" encoding="UTF-8"?>
<svg xmlns="http://www.w3.org/2000/svg" aria-describedby="desc" aria-labelledby="title" viewBox="0 0 64 64"><path fill="none" stroke="#003369" stroke-miterlimit="10" stroke-width="2" d="M4 2h48a4 4 0 0 1 4 4 4 4 0 0 1-4 4H12a4 4 0 0 0-4 4 4 4 0 0 0 4 4h44a4 4 0 0 1 4 4 4 4 0 0 1-4 4H24a4 4 0 0 0-4 4 4 4 0 0 0 4 4h18a4 4 0 0 1 4 4 4 4 0 0 1-4 4H22a4 4 0 0 0-4 4 4 4 0 0 0 4 4h8a4 4 0 0 1 4 4 4 4 0 0 1-4 4m-4 4a4 4 0 0 1 4-4" data-name="layer1" style="stroke: #003369;"/></svg>
