<?xml version="1.0" encoding="UTF-8"?>
<svg xmlns="http://www.w3.org/2000/svg" data-name="Layer 1" viewBox="0 0 64 64"><path fill="none" stroke="#003369" stroke-miterlimit="10" stroke-width="2" d="M11.93 11.8v4.36H5.66V11.8zM23.15 31.44h5.26v3.95h-5.26zM19.5 45.55h-3.21V11.73h-4.36v38.14h7.7a4.52 4.52 0 0 1-.13-4.33zM42.93 45.55h-7.78v0h0v0h-7.27a4.52 4.52 0 0 1-.13 4.33h15.31a4.52 4.52 0 0 1-.13-4.33zM58.34 45.52H54v0h-2.69a4.52 4.52 0 0 1-.13 4.33h7.16zM43.06 49.88a4.64 4.64 0 0 0 8.12 0M51.18 49.88a4.52 4.52 0 0 0 .13-4.33M42.93 45.55a4.52 4.52 0 0 0 .13 4.33" style="stroke: #003369;"/><path fill="none" stroke="#003369" stroke-miterlimit="10" stroke-width="2" d="M19.52 45.52a4.64 4.64 0 0 1 8.34 0h7.27V31.39H16.29v14.13zM16.29 45.52v0h3.21zM27.88 45.55h7.25v0h-7.27zM19.5 45.55a4.52 4.52 0 0 0 .13 4.33M19.63 49.88a4.64 4.64 0 0 0 8.12 0M27.75 49.88a4.52 4.52 0 0 0 .13-4.33M27.86 45.52a4.64 4.64 0 0 0-8.34 0M27.88 45.55h0M19.52 45.52h0M47.12 42.92a4.66 4.66 0 0 1 4.17 2.6H54V31.39H35.15v14.13H43a4.65 4.65 0 0 1 4.12-2.6zM42 31.44h5.26v4H42zM51.31 45.55H54v0h-2.71zM42.93 45.55h0-7.8v0zM51.29 45.52a4.64 4.64 0 0 0-8.34 0M51.31 45.55h0M43 45.52h0" style="stroke: #003369;"/><path fill="none" stroke="#003369" stroke-miterlimit="10" stroke-width="2" d="M42 31.44h5.26v3.95H42zM20.84 18.45h17.2v12.93h-17.2z" style="stroke: #003369;"/><path fill="none" stroke="#003369" stroke-miterlimit="10" stroke-width="2" d="M27.1 18.51h4.8v3.61h-4.8zM23 47.26a.74.74 0 0 0-.08.34.79.79 0 0 0 .08.4M23 48a.76.76 0 0 0 1.34 0M24.36 48a.79.79 0 0 0 .1-.37.74.74 0 0 0-.08-.34M24.38 47.25a.77.77 0 0 0-1.38 0M46.46 47.26a.74.74 0 0 0-.08.34.79.79 0 0 0 .1.37M46.48 48a.76.76 0 0 0 1.34 0M47.82 48a.69.69 0 0 0 .1-.37.74.74 0 0 0-.08-.34M47.84 47.25a.77.77 0 0 0-1.38 0" style="stroke: #003369;"/></svg>
