<?xml version="1.0" encoding="UTF-8"?>
<svg xmlns="http://www.w3.org/2000/svg" aria-describedby="desc" aria-labelledby="title" viewBox="0 0 64 64"><path fill="none" stroke="#003369" stroke-width="2" d="M32 46.8a6.1 6.1 0 0 0-4.5 2 1 1 0 0 0 0 1.4l3.7 3.8a1 1 0 0 0 1.4 0l3.7-3.8a1 1 0 0 0 0-1.4 6.1 6.1 0 0 0-4.3-2z" data-name="layer2" style="stroke: #003369;"/><path fill="none" stroke="#003369" stroke-width="2" d="M18.4 39.9l4 4.5a14.6 14.6 0 0 1 19.2 0l4-4.5a20.6 20.6 0 0 0-27.1 0z" data-name="layer1" style="stroke: #003369;"/><path fill="none" stroke="#003369" stroke-width="2" d="M10.2 30.4l4 4.5a27.2 27.2 0 0 1 35.8 0l4-4.5a33.2 33.2 0 0 0-43.7 0z" data-name="layer2" style="stroke: #003369;"/><path fill="none" stroke="#003369" stroke-width="2" d="M32 9.8A45.6 45.6 0 0 0 2 21l4 4.5a39.6 39.6 0 0 1 52.1 0L62 21A45.6 45.6 0 0 0 32 9.8z" data-name="layer1" style="stroke: #003369;"/></svg>
