<?xml version="1.0" encoding="UTF-8"?>
<svg xmlns="http://www.w3.org/2000/svg" aria-describedby="desc" aria-labelledby="title" viewBox="0 0 64 64"><path fill="none" stroke="#003369" stroke-miterlimit="10" stroke-width="2" d="M12 38V28c0-11 8-20 19-20h2c11 0 19 9 19 20v10" data-name="layer2" style="stroke: #003369;"/><path fill="none" stroke="#003369" stroke-miterlimit="10" stroke-width="2" d="M8 38h8v18H8zm40 0h8v18h-8zM8 40H4a2 2 0 0 0-2 2v10a2 2 0 0 0 2 2h4m48 0h4a2 2 0 0 0 2-2V42a2 2 0 0 0-2-2h-4" data-name="layer1" style="stroke: #003369;"/></svg>
