<?xml version="1.0" encoding="UTF-8"?>
<svg xmlns="http://www.w3.org/2000/svg" data-name="Layer 1" viewBox="0 0 64 64"><path fill="none" stroke="#00336a" stroke-miterlimit="3" stroke-width="2" d="M18.72 34.83a5.63 5.63 0 0 0-4.14-1.7 5.63 5.63 0 0 0-4.14 1.7A5.56 5.56 0 0 0 8.81 38a7.45 7.45 0 0 0-.09 1 5.87 5.87 0 0 0 5.86 5.85 5.69 5.69 0 0 0 4.14-1.72 5.89 5.89 0 0 0 0-8.26zm19.54 13.44h-11.2m28.41-10.42a5.84 5.84 0 1 0-9.86 5.24 5.83 5.83 0 0 0 10-4.13 6.74 6.74 0 0 0-.14-1.11zM31 34.26l3.92-6h-4.56l3.92-6M26.57 40.71a8.61 8.61 0 0 1 12.15 0M29 43.14a5.15 5.15 0 0 1 7.29 0M6.72 48.27h17.09m17.69 0h17.08" style="stroke: #003369;"/><path fill="none" stroke="#00336a" stroke-miterlimit="10" stroke-width="2" d="M55.57 38.93h2a3.91 3.91 0 0 0 1.88-1.07A4 4 0 0 0 60.63 35v-3.11a4.06 4.06 0 0 0-3-3.92l-11-2.63c-.37-.1-11.38-8.14-14.41-8.14H15.6c-2.6 0-12.44 9.33-12.44 9.33v8.1a4.43 4.43 0 0 0 3.43 4.31h2.13" style="stroke: #003369;"/></svg>
