<?xml version="1.0" encoding="UTF-8"?>
<svg xmlns="http://www.w3.org/2000/svg" aria-describedby="desc" aria-labelledby="title" viewBox="0 0 64 64"><path fill="none" stroke="#003369" stroke-width="2" d="M53 51a2 2 0 0 1-2 2 2 2 0 0 1-2-2 2 2 0 0 1 2-2 2 2 0 0 1 2 2z" data-name="layer2" style="stroke: #003369;"/><path fill="none" stroke="#003369" stroke-width="2" d="M20.8 30.8A15 15 0 0 1 43 31m-30.7-8.8a27.1 27.1 0 0 1 39.2.3M3.8 13.8a39.8 39.8 0 0 1 56.5 0" data-name="layer1" style="stroke: #003369;"/><rect width="60" height="20" x="2" y="42" fill="none" stroke="#003369" stroke-width="2" data-name="layer1" rx="2" ry="2" style="stroke: #003369;"/></svg>
