<?xml version="1.0" encoding="UTF-8"?>
<svg xmlns="http://www.w3.org/2000/svg" aria-describedby="desc" aria-labelledby="title" viewBox="0 0 64 64"><path fill="none" stroke="#003369" stroke-miterlimit="10" stroke-width="2" d="M14 26v-6A18 18 0 0 1 32 2a18 18 0 0 1 18 18v6" data-name="layer2" style="stroke: #003369;"/><path fill="none" stroke="#003369" stroke-miterlimit="10" stroke-width="2" d="M6.6 34.5L10 58c.4 2 1.8 4 4 4h36c2.2 0 3.7-2 4-4l3.4-23.6" data-name="layer1" style="stroke: #003369;"/><path fill="none" stroke="#003369" stroke-miterlimit="10" stroke-width="2" d="M54 26H10a4 4 0 0 0-4 4l.6 4.5 19.7 13.9a10.6 10.6 0 0 0 11.3 0l19.8-14L58 30c.3-2-1.8-4-4-4zM32 38v4" data-name="layer1" style="stroke: #003369;"/></svg>
