<?xml version="1.0" encoding="UTF-8"?>
<svg xmlns="http://www.w3.org/2000/svg" data-name="Layer 1" viewBox="0 0 113.39 113.39"><path fill="none" d="M61.15 32.6h1.93a.22.22 0 0 0 .22-.23v-8.29a.22.22 0 0 0-.22-.23h-2v8.75zM53.65 23.85h5.4v1.58h-5.4zM53.65 27.43h5.4V29h-5.4zM53.65 31h5.4v1.6h-5.4zM51.65 23.85h-2.09a.22.22 0 0 0-.16.06.25.25 0 0 0-.07.17v4.86h2.32zM49.33 30.94v1.43a.23.23 0 0 0 .23.23h2.09V31zM95.47 15.17a1.2 1.2 0 1 0 0-2.4 1.2 1.2 0 0 0 0 2.4zM53.65 34.6h5.4v6.27h-5.4zM59.33 15.67a2.84 2.84 0 1 0-2.84 2.84 2.84 2.84 0 0 0 2.84-2.84zM95.35 85.31a9.93 9.93 0 1 0 9.94 9.93 9.94 9.94 0 0 0-9.94-9.93zm6.06 14.5l-1.41 1.41-4.71-4.71-4.72 4.71-1.41-1.41 4.71-4.72-4.71-4.71 1.4-1.38 4.72 4.72L100 89l1.42 1.42-4.72 4.71z"/><circle cx="34.91" cy="20.51" r="1.23" fill="none"/><path fill="#1d3763" d="M64.56 70.59a2.91 2.91 0 0 0 3.32-2.49 2.88 2.88 0 0 0-.55-2.18 2.91 2.91 0 0 0-1.94-1.15 2.94 2.94 0 0 0-3.33 2.49 2.95 2.95 0 0 0 2.5 3.33zM66.15 78.17l1.78.26-1 6.74 2.1.3a.37.37 0 0 0 .24-.06.34.34 0 0 0 .13-.22L70.62 77a.33.33 0 0 0-.28-.37L57 74.69a.37.37 0 0 0-.24.06.34.34 0 0 0-.13.22l-1.18 8.21a.33.33 0 0 0 .28.37l2.17.31 1-6.82 1.78.26-1 6.82 5.54.8z" style="fill: #003369;"/><path fill="#1d3763" d="M112.15 56.72a54.94 54.94 0 0 0-5.91-24.95l-1.79.9a52.93 52.93 0 0 1 5.7 23.85H3.25A53.51 53.51 0 0 1 56.7 3.26a52.87 52.87 0 0 1 24.24 5.8l.91-1.78a54.94 54.94 0 0 0-25.15-6 55.46 55.46 0 1 0 30 102.12 11.92 11.92 0 1 0 16.82-16.86 56.23 56.23 0 0 0 8.63-29.82zM60.28 67A4.75 4.75 0 1 1 65 72.42a4 4 0 0 1-.68 0 4.74 4.74 0 0 1-4-5.36zM72.4 77.24l-1.18 8.21a2.14 2.14 0 0 1-2.1 1.83h-.31L67.22 87l2.56 8.29-1.72.53-2.81-9.11-5.86-.84-1 7h6.88v12.31h-1.8V94.73H22.7v-1.8h33.86l1-7.28-.51-.08-1.67-.24a2.12 2.12 0 0 1-1.8-2.41l1.18-8.21a2.14 2.14 0 0 1 2.41-1.8l13.43 1.92a2.13 2.13 0 0 1 1.8 2.41zm4.71.65l-4.53-5.36L74 71.36 76.21 74V63.84H78V74l2.27-2.68 1.37 1.17zm28.18 17.35a9.94 9.94 0 1 1-9.94-9.93 9.94 9.94 0 0 1 9.94 9.93z" style="fill: #003369;"/><path fill="#1d3763" d="M95.28 93.686l4.717-4.717 1.414 1.415-4.717 4.716zM89.15 99.805l4.717-4.717 1.414 1.415-4.717 4.716z" style="fill: #003369;"/><path fill="#1d3763" d="M89.149 90.378l1.414-1.414 4.716 4.716-1.414 1.414zM95.278 96.508l1.414-1.414 4.716 4.716-1.414 1.414z" style="fill: #003369;"/><path fill="#1d3763" d="M93.868 95.086l1.414-1.415 1.414 1.415-1.414 1.414zM61.33 15.67a4.84 4.84 0 1 0-4.84 4.84 4.84 4.84 0 0 0 4.84-4.84zm-7.68 0a2.84 2.84 0 1 1 2.84 2.84 2.85 2.85 0 0 1-2.84-2.84zM49.33 28.94v-4.86a.25.25 0 0 1 .07-.17.22.22 0 0 1 .16-.06h2.09v-1h2v1h5.4v-1h2v1h2a.22.22 0 0 1 .22.23v8.29a.22.22 0 0 1-.22.23h-1.9v2h1.93a2.23 2.23 0 0 0 2.22-2.23v-8.29a2.23 2.23 0 0 0-2.22-2.23H49.56a2.22 2.22 0 0 0-2.23 2.23v4l1.31.88zM49.56 32.6a.23.23 0 0 1-.23-.23v-1.43h-1.31l-.69-.46v1.92a2.23 2.23 0 0 0 2.23 2.23h1.68v-2z" style="fill: #003369;"/><path fill="#1d3763" d="M52.67 29h.98v-1.57h-1v-2h1v-1.58h-2v5.13l1.02.02zM53.65 34.6h-2v6.27h2V34.6zM53.65 31h-1l-1-.02v1.62h2V31zM51.65 22.81h2v1.04h-2zM59.05 34.6v6.27h2V34.6h-2zM60.05 25.43v2h-1V29h1v2h-1v1.6h2v-8.75h-2v1.58h1zM59.05 22.89h2v.96h-2zM53.65 32.6h5.4v2h-5.4zM51.24 32.6h.41v2h-.41zM61.05 32.6h.1v2h-.1z" style="fill: #003369;"/><path fill="#1d3763" d="M52.02 32.6h1.64v2h-1.64zM51.65 32.6h.36v2h-.36zM59.05 32.6h1.41v2h-1.41zM60.46 32.6h.59v2h-.59zM53.65 25.43h5.4v2h-5.4zM52.65 25.43h1v2h-1zM59.05 25.43h1v2h-1zM37.91 21.67a3.22 3.22 0 0 1-1.28 1.56l10.7 7.22V28zM53.65 29h5.4v2h-5.4zM51.65 28.98l-2.32-.04v2l2.32.04v-2zM49.33 30.94v-2l-.69-.02-1.31-.88v2.41l.69.46 1.31.03zM52.67 29l-1.02-.02v2l1 .02h1v-2h-.98zM59.05 29h1v2h-1zM76.12 33.16v9.92l-2.09-2.46-1.52 1.29 4.61 5.45 4.61-5.45-1.52-1.3-2.09 2.47v-9.92h-2zM65.37 53.69V40.87h-4.32v1.28h-2v-1.28h-5.4v1.36h-2v-1.36H9.89v2h53.48v10.82h2z" style="fill: #003369;"/><path fill="#1d3763" d="M51.65 40.87h2v1.36h-2zM59.05 40.87h2v1.28h-2zM36.79 20.92l1.12.75a3.2 3.2 0 0 0-2-4.21v.83h-2v-.83a3.22 3.22 0 1 0 2.72 5.77l-1-.66zm-3.11-.41a1.23 1.23 0 1 1 1.23 1.23 1.23 1.23 0 0 1-1.23-1.23z" style="fill: #003369;"/><path fill="#1d3763" d="M37.91 21.67l-1.12-.75-1.12 1.65 1 .66a3.22 3.22 0 0 0 1.24-1.56zM35.91 17.46v-5.79h-2v5.79a3.22 3.22 0 0 1 1-.17 3.33 3.33 0 0 1 1 .17z" style="fill: #003369;"/><path fill="#1d3763" d="M35.91 18.29v-.83a3.33 3.33 0 0 0-1-.17 3.22 3.22 0 0 0-1 .17v.83zM89.21 25.41L87.71 27a12 12 0 0 0 15.55 0l-1.5-1.59a8.71 8.71 0 0 1-5.21 2.36v-8.51h2.09v-1.57h-2.09v-1.28A2.52 2.52 0 0 0 98.26 14a2.78 2.78 0 0 0-5.56 0 2.54 2.54 0 0 0 1.71 2.42v1.28h-2.08v1.57h2.08v8.51a8.69 8.69 0 0 1-5.2-2.37zM94.28 14a1.21 1.21 0 0 1 2.41 0 1.21 1.21 0 0 1-2.41 0z" style="fill: #003369;"/><path fill="#1d3763" d="M107.65 17.69a12.17 12.17 0 1 0-21.39 7.9L87.84 24a9.9 9.9 0 1 1 15.29 0l1.57 1.57a12.09 12.09 0 0 0 2.95-7.88z" style="fill: #003369;"/></svg>
