<?xml version="1.0" encoding="UTF-8"?>
<svg xmlns="http://www.w3.org/2000/svg" aria-describedby="desc" aria-labelledby="title" viewBox="0 0 64 64"><path fill="none" stroke="#003369" stroke-miterlimit="10" stroke-width="2" d="M24.018 40.772L24 44c0 2 0 5-9.982 7C2.035 53.4 2 62 2 62h60s-.057-8.605-12.014-11c-9.986-2-10-5-10-7l.025-3.237" data-name="layer1" style="stroke: #003369;"/><path fill="none" stroke="#003369" stroke-miterlimit="10" stroke-width="2" d="M38.006 42a16.789 16.789 0 0 0 7.17-10.136c3.025-.036 3.726-4.255 3.726-5.2s.1-4.6-2.9-4.653V20M18 20v2.007c-3 .029-2.917 3.783-2.917 4.724s.711 5.136 3.758 5.136A16.809 16.809 0 0 0 26.018 42" data-name="layer1" style="stroke: #003369;"/><path fill="none" stroke="#003369" stroke-miterlimit="10" stroke-width="2" d="M46 20v-1.6S43.995 2 38 2c-2 0-4.333 1.883-6 1.883S27.988 2 25.988 2C19.988 2 18 18.4 18 18.4V20m-8-.001h44" data-name="layer2" style="stroke: #003369;"/><path fill="none" stroke="#003369" stroke-miterlimit="10" stroke-width="2" d="M40.617 46.728l-8.619 5.271 4 9 10.119-11m-28.117 0l9.998 11 4-9-8.657-5.217" data-name="layer1" style="stroke: #003369;"/></svg>
