<?xml version="1.0" encoding="UTF-8"?>
<svg xmlns="http://www.w3.org/2000/svg" data-name="Layer 1" viewBox="0 0 113.39 113.39"><path fill="none" d="M45.29 36.04h2.63l-1.83-1.84 1.27-1.27h-2.07v3.11z"/><path fill="none" d="M61.5 23.76h-8v-8h-12v28h13.23V27.69h6.77v-3.93zM49.4 38h-6.11v-7.07h6.11v2h-1.76L48.75 34l2.5-2.81 1.49 1.33-3.34 3.81zm0-11.82v1.71h-6.11v-7.07h6.11v2h-1.76l1.11 1.11 2.5-2.81 1.49 1.33z"/><path fill="none" d="M45.29 25.93h2.63l-1.83-1.83 1.27-1.28h-2.07v3.11zM95.35 85.31a9.93 9.93 0 1 0 9.94 9.93 9.95 9.95 0 0 0-9.94-9.93zm6.06 14.5l-1.41 1.41-4.72-4.71-4.72 4.71-1.41-1.41 4.71-4.72-4.71-4.71L90.56 89l4.72 4.72L100 89l1.41 1.42-4.72 4.71zM60.08 21.76l-4.58-4.58v4.58h4.58zM63.5 27.29h1.2v2h-1.2zM61.5 31.29v-1.6h-4.77v19h14.7v-19H66.7v1.6zm7.38 15.47h-9.6v-2h9.6zm.22-4.87v1h-10v-1a5 5 0 0 1 2.39-4.24 3.39 3.39 0 0 1 2.61-5.56 3.38 3.38 0 0 1 2.6 5.56 5 5 0 0 1 2.4 4.24zM34 25.44L31.1 28l2.87 1.32.03-3.88zM95.47 15.17a1.2 1.2 0 1 0 0-2.4 1.2 1.2 0 0 0 0 2.4zM25.71 49.58l7.94-18.2-3.85-1.78-8.03 18.26 3.94 1.72z"/><path fill="none" d="M61.27 40.89h5.65a3 3 0 0 0-5.65 0zM65.5 35.49a1.4 1.4 0 1 0-1.4 1.4 1.4 1.4 0 0 0 1.4-1.4z"/><path fill="#1d3763" d="M60.32 71.58l-4.92-4.92v4.92h4.92zM63.4 76.91h1.4v2.2h-1.4z" style="fill: #003369;"/><path fill="#1d3763" d="M61.6 77.51v-4.13h-8v-8H41.4v28.2h13.43V77.51h6.77z" style="fill: #003369;"/><path fill="#1d3763" d="M56.63 98.46h14.9V79.31H66.6v1.6h-5v-1.6h-4.97v19.15z" style="fill: #003369;"/><path fill="#1d3763" d="M112.15 56.71a55 55 0 0 0-5.9-24.92l-1.79.9a52.84 52.84 0 0 1 5.69 23.83H3.25A53.51 53.51 0 0 1 56.7 3.26 52.83 52.83 0 0 1 81 9.09l.91-1.78a54.9 54.9 0 0 0-25.21-6 55.46 55.46 0 1 0 30 102.12 11.92 11.92 0 1 0 16.82-16.86 56.24 56.24 0 0 0 8.63-29.86zm-38.82 43.55h-18.5v-4.88H39.6v-31.8h15.27l8.53 8.53v3h3.2v2.4h6.73zm32-5a9.94 9.94 0 1 1-9.94-9.93 9.94 9.94 0 0 1 9.9 9.91z" style="fill: #003369;"/><path fill="#1d3763" d="M89.15 99.805l4.717-4.717 1.414 1.415-4.717 4.716zM95.28 93.686l4.717-4.717 1.414 1.415-4.717 4.716z" style="fill: #003369;"/><path fill="#1d3763" d="M95.278 96.508l1.414-1.414 4.716 4.716-1.414 1.414zM89.149 90.378l1.414-1.414 4.716 4.716-1.414 1.414z" style="fill: #003369;"/><path fill="#1d3763" d="M93.868 95.086l1.414-1.415 1.414 1.415-1.414 1.414zM41.5 43.76v-28h12v-1h2v2.42l4.58 4.58h2.42v2h-1v1.53h2v-2.94l-8.59-8.59H39.5v32h15.23v-2H41.5z" style="fill: #003369;"/><path fill="#1d3763" d="M61.5 23.76v-.58l-1.42-1.42H55.5v-4.58l-1.42-1.42h-.58v8h8z" style="fill: #003369;"/><path fill="#1d3763" d="M61.5 23.76h1v-2h-2.42l1.42 1.42v.58zM55.5 17.18v-2.42h-2v1h.58l1.42 1.42zM48.75 23.93l-1.11-1.11h-.28l-1.27 1.28 1.83 1.83h1.48v.29l3.34-3.77-1.49-1.32-2.5 2.8z" style="fill: #003369;"/><path fill="#1d3763" d="M47.92 25.93h-2.63v-3.11h2.07l.14-.14.14.14h1.76v-2h-6.11v7.11h6.11v-1.71l-.56.63-.92-.92z" style="fill: #003369;"/><path fill="#1d3763" d="M47.92 25.93l.92.92.56-.63v-.29h-1.48zM47.36 22.82h.28l-.14-.14-.14.14zM51.25 31.23l-2.5 2.81-1.11-1.11h-.28l-1.27 1.27 1.83 1.84h1.48v.29l3.34-3.77-1.49-1.33z" style="fill: #003369;"/><path fill="#1d3763" d="M47.92 36.04h-2.63v-3.11h2.07l.14-.14.14.14h1.76v-2h-6.11v7.11h6.11v-1.71l-.56.62-.92-.91z" style="fill: #003369;"/><path fill="#1d3763" d="M47.92 36.04l.92.91.56-.62v-.29h-1.48zM47.36 32.93h.28l-.14-.14-.14.14zM73.43 50.64V27.69h-6.74v2h4.74v18.95h-14.7V29.69h4.77v-2h-6.77v16.07h1v2h-1v4.88h18.7z" style="fill: #003369;"/><path fill="#1d3763" d="M54.73 43.76h1v2h-1zM64.69 27.29v2H63.5v.87h-2v1.13h5.19v-1.6h-1v-2h1v-2.4H63.5v2h1.19z" style="fill: #003369;"/><path fill="#1d3763" d="M61.5 27.69h1v2h-1v.47h2v-4.87h-2v2.4zM65.7 27.69h1v2h-1z" style="fill: #003369;"/><path fill="#1d3763" d="M61.5 27.69h1v2h-1zM59.28 44.76h9.6v2h-9.6zM64.1 32.09a3.39 3.39 0 0 0-2.61 5.56 5 5 0 0 1 2.61-.76 1.4 1.4 0 1 1 1.4-1.4 1.4 1.4 0 0 1-1.4 1.4 4.94 4.94 0 0 1 2.6.76 3.38 3.38 0 0 0-2.6-5.56z" style="fill: #003369;"/><path fill="#1d3763" d="M64.1 38.89a3 3 0 0 1 2.82 2h-5.65a3 3 0 0 1 2.83-2 3.37 3.37 0 0 1-2.61-1.24 5 5 0 0 0-2.39 4.24v1h10v-1a5 5 0 0 0-2.4-4.24 3.37 3.37 0 0 1-2.6 1.24z" style="fill: #003369;"/><path fill="#1d3763" d="M61.49 37.65a3.36 3.36 0 0 0 5.21 0 4.84 4.84 0 0 0-5.21 0zM26.74 52.21L36 31.09V21l-7.57 6.69-9.3 21.2zM34 25.44v3.88L31.1 28zm-4.2 4.16l3.85 1.78-7.94 18.2-3.94-1.72zM107.65 17.69a12.17 12.17 0 1 0-21.39 7.9L87.84 24a9.9 9.9 0 1 1 15.29 0l1.57 1.57a12.09 12.09 0 0 0 2.95-7.88z" style="fill: #003369;"/><path fill="#1d3763" d="M89.21 25.41L87.71 27a12 12 0 0 0 15.55 0l-1.5-1.59a8.71 8.71 0 0 1-5.21 2.36v-8.51h2.09v-1.57h-2.09v-1.28A2.52 2.52 0 0 0 98.26 14a2.78 2.78 0 0 0-5.56 0 2.54 2.54 0 0 0 1.71 2.42v1.28h-2.08v1.57h2.08v8.51a8.69 8.69 0 0 1-5.2-2.37zM94.28 14a1.21 1.21 0 0 1 2.41 0 1.21 1.21 0 0 1-2.41 0z" style="fill: #003369;"/></svg>
