<?xml version="1.0" encoding="UTF-8"?>
<svg xmlns="http://www.w3.org/2000/svg" aria-describedby="desc" aria-labelledby="title" viewBox="0 0 64 64"><path fill="none" stroke="#003369" stroke-miterlimit="10" stroke-width="2" d="M53.9 28.4A26 26 0 1 1 41 13m-2.1-1c-5.8 2.8-9.9 3.1-9.9 6.7s5.2 1.5 5.2 5.2-4 6.3-6.9 4.4-6.9-3-10.4 1.8-1.2 10.4 1.3 10.3 4.8-2.4 5.9.6 1.3 3 2.4 3.6 1.2 1.9.8 3.6 1.8 6.9 3.5 6.9 3.3-.7 3.5-3.5 2.3-2.9 3.3-3.7-.7-3.7 1.1-5.6 5.7-5.4 2.5-6.3-3-1.5-3.5-2.9-1.8-2.8.9-2.9a10.3 10.3 0 0 0 7.4-3.1l.7-.7" data-name="layer2" style="stroke: #003369;"/><path fill="none" stroke="#003369" stroke-miterlimit="10" stroke-width="2" d="M51 2a10 10 0 0 0-10 10c0 9 10 20 10 20s10-11 10-20A10 10 0 0 0 51 2z" data-name="layer1" style="stroke: #003369;"/><circle cx="51" cy="12" r="2" fill="none" stroke="#003369" stroke-miterlimit="10" stroke-width="2" data-name="layer1" style="stroke: #003369;"/></svg>
