<?xml version="1.0" encoding="UTF-8"?>
<svg xmlns="http://www.w3.org/2000/svg" data-name="Layer 1" viewBox="0 0 64 64"><path fill="none" stroke="#003369" stroke-miterlimit="10" stroke-width="2" d="M39.83 32l5.52-5.52a4 4 0 0 1 3.35-1.11A11.71 11.71 0 0 0 62 13.74v-1l-7 4.41a1.32 1.32 0 0 1-1.54-.1l-2.87-2.4a1.34 1.34 0 0 1-.42-.65l-.91-3.2a1.29 1.29 0 0 1 .6-1.49l8-4.56a11.74 11.74 0 0 0-19.2 10.43 4 4 0 0 1-1.1 3.36l-5.57 5.57M24.06 32l-5.52 5.52a4 4 0 0 1-3.33 1.1 10.37 10.37 0 0 0-1.47-.1A11.67 11.67 0 0 0 2 50.1a11.33 11.33 0 0 0 .15 1.9l7.92-5a1.31 1.31 0 0 1 1.53.1l2.87 2.4a1.24 1.24 0 0 1 .42.64l.92 3.2a1.31 1.31 0 0 1-.61 1.49l-8.44 4.86a11.73 11.73 0 0 0 18.7-10.17c0-.27-.05-.54-.08-.81a3.93 3.93 0 0 1 1.07-3.34l5.49-5.48M26.47 18.65a4 4 0 0 1-1.1-3.35A11.71 11.71 0 0 0 13.74 2h-1l4.41 7a1.32 1.32 0 0 1-.1 1.54l-2.4 2.87a1.34 1.34 0 0 1-.65.42l-3.2.91a1.29 1.29 0 0 1-1.49-.6l-4.56-8a11.74 11.74 0 0 0 10.43 19.2 4 4 0 0 1 3.36 1.1L24.06 32l7.88-7.89z" style="stroke: #003369;"/><path fill="none" stroke="#003369" stroke-miterlimit="10" stroke-width="2" d="M49.52 38.54l-.81.08a3.93 3.93 0 0 1-3.34-1.07L39.83 32l-7.89 7.89 5.58 5.57a4 4 0 0 1 1.1 3.33 10.37 10.37 0 0 0-.1 1.47A11.66 11.66 0 0 0 50.1 62a11.33 11.33 0 0 0 1.9-.15l-5-7.92a1.31 1.31 0 0 1 .1-1.53l2.4-2.87a1.24 1.24 0 0 1 .64-.42l3.2-.92a1.31 1.31 0 0 1 1.49.61l4.83 8.44a11.73 11.73 0 0 0-10.17-18.7zM31.94 39.89L39.83 32M31.94 24.11L24.06 32" style="stroke: #003369;"/></svg>
