<?xml version="1.0" encoding="UTF-8"?>
<svg xmlns="http://www.w3.org/2000/svg" data-name="Layer 1" viewBox="0 0 64 64"><path fill="none" stroke="#00336a" stroke-miterlimit="3" stroke-width="2" d="M12.51 12a27.07 27.07 0 0 0-8 19.68 27.08 27.08 0 0 0 8 19.69L51.19 12a26.16 26.16 0 0 0-19.34-8.17A26.16 26.16 0 0 0 12.51 12zM41.15 23.09c.93.36 7.37 1.32 7.35 8.69A7.14 7.14 0 0 1 46.4 37a7 7 0 0 1-3.93 2v.09a4.42 4.42 0 0 1-1.29 3.19 4.38 4.38 0 0 1-6.25 0 4.43 4.43 0 0 1-1.3-3.19h0l-8.78.07" style="stroke: #003369;"/><path fill="none" stroke="#00336a" stroke-miterlimit="3" stroke-width="2" d="M12.51 51.35a26.16 26.16 0 0 0 19.34 8.15 26.16 26.16 0 0 0 19.34-8.15 27.08 27.08 0 0 0 8-19.69 27.07 27.07 0 0 0-8-19.68" style="stroke: #003369;"/><path fill="none" stroke="#00336a" stroke-miterlimit="3" stroke-width="2" d="M26.28 39.09h-7.17A6.84 6.84 0 0 1 14.39 37a7.4 7.4 0 0 1 0-10.35 6.81 6.81 0 0 1 4-2.08 4.6 4.6 0 0 1-.16-1.25 4.29 4.29 0 0 1 1.27-3.13 4.15 4.15 0 0 1 3.08-1.3 4.08 4.08 0 0 1 2.68.94 9.54 9.54 0 0 1 1.47-1.94 8.35 8.35 0 0 1 6.16-2.59c7.56 0 8.22 7.83 8.22 7.83M43.47 49a2.64 2.64 0 0 0 2 .83 2.68 2.68 0 0 0 2-.83 2.84 2.84 0 0 0 0-4 2.68 2.68 0 0 0-2-.83 2.64 2.64 0 0 0-2 .83 2.84 2.84 0 0 0 0 4z" style="stroke: #003369;"/></svg>
