<svg width="159" height="14" viewBox="0 0 159 14" fill="none" xmlns="http://www.w3.org/2000/svg">
<path d="M38.9259 13.5222H42.2425V8.04121H46.6196V13.5222H49.9362V0.499512H46.6196V5.24759H42.2425V0.499512H38.9259V13.5222Z" fill="#FFFFFF"/>
<path d="M53.5958 13.5222H56.6733V5.36444L61.1752 13.5222H64.6061V0.499512H61.4143V8.52983L57.0268 0.499512H53.5958V13.5222Z" fill="#FFFFFF"/>
<path d="M68.1522 13.5222H77.7382V10.718H71.4688V8.04121H76.792V5.4919H71.4688V3.17628H77.499V0.499512H68.1522V13.5222Z" fill="#FFFFFF"/>
<path d="M133.704 12.0561C133.704 6.21393 133.704 6.21393 133.704 6.21393C128.506 6.21393 128.506 6.21393 128.506 6.21393C128.506 8.77386 128.506 8.77386 128.506 8.77386C130.637 8.77386 130.637 8.77386 130.637 8.77386C130.637 10.7177 130.637 10.7177 130.637 10.7177C130.284 10.962 129.452 11.2063 128.506 11.2063C126.021 11.2063 125.314 9.01817 125.314 6.94686C125.314 5.00301 125.907 2.80424 128.152 2.80424C129.338 2.80424 129.93 3.53716 130.284 4.50377C133.6 4.50377 133.6 4.50377 133.6 4.50377C133.122 1.33839 130.762 -2.53251e-09 128.277 -2.53251e-09C124.254 -2.53251e-09 122.008 3.03792 122.008 6.93624C122.008 10.8345 124.139 13.9999 128.277 13.9999C131.219 14.0106 133.112 12.6722 133.704 12.0561Z" fill="#FFFFFF"/>
<path d="M137.011 13.5222H146.597V10.718H140.328V8.04121H145.537V5.4919H140.328V3.17628H146.368V0.499512H137.011V13.5222Z" fill="#FFFFFF"/>
<path d="M149.561 13.5222H158.668V10.718H152.867V0.499512H149.561V13.5222Z" fill="#FFFFFF"/>
<path d="M95.0079 13.5222H98.2102V5.36444L102.587 13.5222H106.018V0.499512H102.941V8.52983L98.4493 0.499512H95.0079V13.5222Z" fill="#FFFFFF"/>
<path d="M113.12 0.499512H116.197L121.281 13.5222H117.611L116.78 11.0898H111.81L110.978 13.5222H107.547L112.631 0.499512H113.12ZM115.833 8.52983L114.295 3.90921L112.642 8.52983H115.833Z" fill="#FFFFFF"/>
<path d="M92.2924 6.45835V8.28536H87.3227V13.5221H85.3057V8.28536H80.3359V6.45835H85.3057V1.34912H87.3227V6.45835H92.2924Z" fill="#56B7E9"/>
<path d="M26.8652 13.3943H36.4408V10.6007H30.1714V7.9239H35.3803V5.36397H30.1714V3.04835H36.212V0.371582H26.8652V13.3943Z" fill="#FFFFFF"/>
<path d="M6.98672 0.499512H10.8856L6.63322 5.60875L11.3638 13.5222H7.45458L4.61622 8.28552L3.31661 9.86821V13.5222H0V0.499512H3.31661V5.60875L6.98672 0.499512Z" fill="#FFFFFF"/>
<path d="M23.789 0.499512C20.4724 0.499512 20.4724 0.499512 20.4724 0.499512C20.4724 8.41298 20.4724 8.41298 20.4724 8.41298C20.4724 10.1125 19.8798 10.9729 18.2266 10.9729C16.5735 10.9729 15.9809 10.1231 15.9809 8.41298C15.9809 0.499512 15.9809 0.499512 15.9809 0.499512C12.6643 0.499512 12.6643 0.499512 12.6643 0.499512C12.6643 8.16867 12.6643 8.16867 12.6643 8.16867C12.6643 11.9395 14.4422 13.894 18.2266 13.894C22.1359 13.894 23.789 11.9501 23.789 8.16867V0.499512Z" fill="#FFFFFF"/>
</svg>
