<svg width="29" height="28" viewBox="0 0 29 28" fill="none" xmlns="http://www.w3.org/2000/svg">
<path d="M2.83707 14.0066L2.85136 14.537C2.96363 16.8956 3.82043 19.221 5.29739 21.0778L5.61319 21.4592L3.81354 23.4577L3.37354 22.968C-4.23968 13.9938 1.81053 0.721958 13.7503 0.0134712L14.5064 0L15.2484 0.0134712C27.1955 0.727447 33.2384 13.9865 25.6248 22.968L25.1856 23.4577L23.3848 21.4592L23.7011 21.0778L24.0031 20.6837C28.1769 14.8175 26.0764 6.74393 19.5504 3.60347L19.041 3.37263L18.5057 3.1689C11.3705 0.583754 3.67757 5.34991 2.90598 12.8238L2.86497 13.408L2.83707 14.0066Z" fill="#12B8FF"/>
<path d="M14.3512 8.13447C14.4921 8.14095 14.6359 8.12532 14.7737 8.15426C15.3275 8.27001 15.6813 8.70724 15.7576 9.24709L15.7705 9.3833L15.7576 9.50537C15.5875 10.9395 13.5769 11.0309 13.2556 9.62761L13.242 9.50537L13.2284 9.3833L13.242 9.24709L13.2556 9.12485C13.4301 8.58018 13.7635 8.2286 14.3512 8.13447ZM14.6712 6.20093H14.3277C11.2141 6.39551 10.018 10.2341 12.6788 12.021L12.8711 12.1439L13.0771 12.239V12.5246H10.8091V14.2378H13.0771V25.4433L12.6645 25.3886C10.7874 25.1094 9.0032 24.3304 7.48338 23.2131L7.16708 22.9683L5.46289 24.9399L5.92995 25.2935C11.0318 28.9011 17.9683 28.9031 23.069 25.2935L23.5367 24.9399L21.8318 22.9683L21.5162 23.2131C19.9994 24.3365 18.2092 25.1062 16.3339 25.3886L15.9218 25.4433V14.2378H18.1899V12.5246H15.9218V12.239L16.1279 12.1439L16.3208 12.021C18.9865 10.239 17.7836 6.39551 14.6712 6.20093Z" fill="white"/>
</svg>
